<svg xmlns="http://www.w3.org/2000/svg"
  viewBox="0 0 900 400"
  width="900"
  height="400">
  <style>
    text {
      font-family: "Courier New", Courier, monospace;
      font-size: 12px;
    }
  </style>
  <g class="lines" fill="none">
    <path stroke="darkblue" d="M842.7996403365906,170.5511811023622L840.8128004772892,170.65014793605343C838.8259606179877,170.74911476974466,834.8522808993847,170.94704843712717,832.0842819964713,171.14498210450964C829.3162830935577,171.3429157718921,827.7539650063336,171.54084943927464,826.2121191752623,172.16266762109282C824.6702733441911,172.784485802911,823.1488997692726,173.83018849916485,821.9596920353783,174.45200668098303C820.770484301484,175.07382486280122,819.9134424086138,175.27175853018375,817.4404189626313,175.89357671200187C814.9673955166486,176.51539489382012,810.8783905175534,177.56109759007396,808.4372651443177,178.60680028632783C805.9961397710822,179.65250298258172,805.2028940237061,180.69820567883562,804.0130133346905,181.32002386065378C802.823132645675,181.941842042472,801.2366170150199,182.13977570985446,799.6984291757149,182.33770937723693C798.1602413364097,182.53564304461943,796.6703812884545,182.7335767120019,794.7025500588129,183.3553948938201C792.7347188291711,183.97721307563828,790.2889164178429,185.02291577189217,787.1386357446617,185.51694523979958C783.9883550714803,186.010974707707,780.133596136446,185.95333094726797,777.4443570168296,186.02347590073964C774.7551178972132,186.0936208542114,773.2313985930147,186.29155452159387,771.1688825778139,186.78962555161374C769.1063665626131,187.28769658163355,766.5050538364097,188.08590497429077,759.8522869050852,192.72500164533628C753.1995199737604,197.36409831638176,742.4952988373146,205.84408326581556,736.4636742897213,210.1830425742237C730.4320497421281,214.5220018826318,729.0730217833876,214.71993555001427,728.0271102289179,214.91786921739677C726.981198674448,215.11580288477924,726.248403524249,215.3137365521617,725.5101958921463,215.51167021954424C724.7719882600435,215.70960388692671,724.0283681460369,215.9075375543092,722.79885040038,216.44069710691755C721.5693326547231,216.97385665952595,719.8539172774158,217.8422420973602,716.2099134658883,218.37540164996855C712.565909654361,218.90856120257695,706.9933174086137,219.10649486995942,703.372751662595,219.6471875885279C699.7521859165762,220.18788030709644,698.0836466702858,221.07133207685095,696.8696597674628,221.61202479541944C695.6556728646398,222.152717513988,694.8962383052841,222.3506511813705,691.7096517033116,223.15345376261064C688.5230651013391,223.95625634385078,682.9093264567499,225.36392783894863,679.6611596543612,226.16673042018883C676.4129928519725,226.96953300142897,675.5303978917843,227.16746666881144,674.3743331976113,227.97026925005162C673.2182685034383,228.7730718312918,671.7887340752804,230.18074332638966,668.9895004410967,231.82364162132103C666.1902668069127,233.4665399162524,662.0213339667029,235.34466501101733,659.5576213355049,237.5789906883873C657.093908704307,239.8133163657573,656.335416282121,242.40384262573238,655.5896667458379,244.39622073755928C654.8439172095549,246.38859884938628,654.1109105591748,247.78282881306504,653.3779519770177,249.17705877674382C652.6449933948606,250.5712887404226,651.9120828809265,251.96551870410136,644.5049861337314,254.55604496407645C637.0978893865364,257.1465712240515,623.0166064060803,260.9333937803229,613.1915290332066,263.523920040298C603.3664516603329,266.1144463002731,597.7975798950416,267.5086762639518,590.8729439015561,268.3047580794825C583.9483079080709,269.10083989501317,575.6679076863915,269.29877356239564,568.3392294381106,269.4967072297781C561.0105511898298,269.6946408971606,554.6335949149475,269.8925745645431,545.183593885722,270.4415951884473C535.7335928564966,270.99061581235156,523.210547072928,271.8907233927775,515.3118229619074,273.6100338717542C507.4130988508867,275.3293443507309,504.13869641241405,277.8678577282583,500.5102042164315,279.23608125071326C496.8817120204488,280.60430477316817,492.89913006695616,280.80223844055064,488.9690818743214,282.75560689054186C485.03903368168653,284.708975340533,481.16151924990953,288.4177785731329,478.7554500316685,290.3711470231241C476.3493808134274,292.32451547311524,475.41475680872236,292.5224491404977,470.8235686640426,292.9942804335355C466.232380519363,293.4661117265733,457.9846282347087,294.21184064526625,451.8879914155809,294.68367193830403C445.7913545964531,295.15550323134175,441.845833242852,295.3534368987242,437.8651932455664,296.6967606370287C433.88455324828084,298.04008437533315,429.8687946073109,300.52879818455966,425.887154790988,301.8721219228641C421.9055149746652,303.2154456611686,417.9579939829894,303.41337932855106,414.3007521828628,303.6113129959336C410.64351038273617,303.80924666331606,407.2765477741585,304.00718033069853,403.1991656713717,304.205113998081C399.12178356858493,304.4030476654635,394.33398197158886,304.600981332846,388.68462958061895,304.7989150002285C383.035277189649,304.99684866761095,376.52437400470507,305.1947823349935,370.36044167345284,305.96541103783693C364.1965093422006,306.7360397406804,358.37954786463996,308.0793634789848,352.6789259070756,308.8499921818283C346.9783039495114,309.6206208846718,341.39402151194355,309.8185545520543,337.3016613508868,310.47833905448596C333.2093011898299,311.1381235569176,330.6088633052841,312.25975889439843,320.65430936708293,317.55036776958997C310.69975542888164,322.8409766447815,293.39108543702497,332.30055905768376,281.0936911192544,338.18524683117516C268.7962968014839,344.06993460466657,261.5101781577995,346.3797277387473,247.9235171914586,349.40831641420414C234.33685622511766,352.436905089661,214.44965293612017,356.18428930649407,190.43548987739777,359.4835105751642C166.42132681867537,362.78273184383426,138.28020399022805,365.6337901643414,124.20964257600436,367.059319324595L110.13908116178068,368.4848484848485" />
    <path stroke="blue" d="M842.7996403365906,160.92663252877279L840.8128004772892,161.0323135563399C838.8259606179877,161.13799458390702,834.8522808993847,161.34935663904125,832.0842819964713,161.55009703996748C829.3162830935577,161.75083744089378,827.7539650063336,161.9409561876121,826.2121191752623,162.17135265862314C824.6702733441911,162.40174912963417,823.1488997692726,162.6724233249379,821.9596920353783,162.90970036361503C820.770484301484,163.1469774022922,819.9134424086138,163.35085728434274,817.4404189626313,163.62106243954364C814.9673955166486,163.8912675947445,810.8783905175534,164.22779802309574,808.4372651443177,164.53833064108997C805.9961397710822,164.8488632590842,805.2028940237061,165.13339806672147,804.0130133346905,165.38085062122613C802.823132645675,165.6283031757308,801.2366170150199,165.83867347710282,799.6984291757149,166.09002746532647C798.1602413364097,166.34138145355018,796.6703812884545,166.63371912862553,794.7025500588129,167.57823351144106C792.7347188291711,168.52274789425658,790.2889164178429,170.11943898481232,787.1386357446617,171.71710861586158C783.9883550714803,173.31477824691083,780.133596136446,174.91342641845367,777.4443570168296,175.8147485217975C774.7551178972132,176.71607062514136,773.2313985930147,176.9200666602862,771.1688825778139,178.29857720790778C769.1063665626131,179.6770877555294,766.5050538364097,182.23011281562773,759.8522869050852,186.63522569258953C753.1995199737604,191.0403385695513,742.4952988373146,197.2975392633766,736.4636742897213,200.5310712914653C730.4320497421281,203.76460331955408,729.0730217833876,203.97446668190628,728.0271102289179,204.2562407762641C726.981198674448,204.53801487062185,726.248403524249,204.89169969698523,725.5101958921463,205.17372726085293C724.7719882600435,205.45575482472063,724.0283681460369,205.66612512609265,722.79885040038,206.00289394968715C721.5693326547231,206.3396627732816,719.8539172774158,206.80283011909853,716.2099134658883,209.41664351373825C712.565909654361,212.03045690837791,706.9933174086137,216.79491635184036,703.372751662595,219.33498010381825C699.7521859165762,221.8750438557962,698.0836466702858,222.1907119162896,696.8696597674628,222.45373109722232C695.6556728646398,222.71675027815502,694.8962383052841,222.92712057952704,691.7096517033116,223.834299075534C688.5230651013391,224.74147757154094,682.9093264567499,226.34546426218276,679.6611596543612,227.2780554318697C676.4129928519725,228.2106466015567,675.5303978917843,228.47184225028874,674.3743331976113,228.87067922165932C673.2182685034383,229.26951619302983,671.7887340752804,229.80599448703887,668.9895004410967,230.85155894779837C666.1902668069127,231.89712340855792,662.0213339667029,233.45177403606795,659.5576213355049,234.5264576556059C657.093908704307,235.60114127514385,656.335416282121,236.19585788670975,655.5896667458379,236.74709695926674C654.8439172095549,237.29833603182374,654.1109105591748,237.80609756537183,653.3779519770177,238.33302344254415C652.6449933948606,238.8599493197165,651.9120828809265,239.40603954051304,644.5049861337314,240.63460630812924C637.0978893865364,241.8631730757454,623.0166064060803,243.7742163901812,613.1915290332066,245.87019487372092C603.3664516603329,247.9661733572606,597.7975798950416,250.24708700990422,590.8729439015561,251.4930463923674C583.9483079080709,252.73900577483064,575.6679076863915,252.9500108871135,568.3392294381106,253.1561678090369C561.0105511898298,253.3623247309603,554.6335949149475,253.56363346252422,545.183593885722,253.87054292199574C535.7335928564966,254.17745238146725,523.210547072928,254.58996256884635,515.3118229619074,255.85644629735256C507.4130988508867,257.12293002585875,504.13869641241405,259.2433872954921,500.5102042164315,260.4154612161669C496.8817120204488,261.5875351368417,492.89913006695616,261.81122570855797,488.9690818743214,264.61482360052366C485.03903368168653,267.41842149248936,481.16151924990953,272.8019267047044,478.7554500316685,275.56143563975945C476.3493808134274,278.3209445748145,475.41475680872236,278.4564572327096,470.8235686640426,278.64044812377176C466.232380519363,278.82443901483384,457.9846282347087,279.05690813906295,451.8879914155809,279.4901065830578C445.7913545964531,279.9233050270526,441.845833242852,280.5572327908131,437.8651932455664,284.40513820113154C433.88455324828084,288.25304361145,429.8687946073109,295.3149266683264,425.887154790988,299.0887118358043C421.9055149746652,302.86249700328216,417.9579939829894,303.3481842813615,414.3007521828628,303.7821549106416C410.64351038273617,304.2161255399218,407.2765477741585,304.5983795204027,403.1991656713717,304.8946916613292C399.12178356858493,305.1910038022557,394.33398197158886,305.4013741036277,388.68462958061895,305.6090297267703C383.035277189649,305.81668534991286,376.52437400470507,306.02162629482604,370.36044167345284,306.8849590700434C364.1965093422006,307.7482918452608,358.37954786463996,309.2700164507824,352.6789259070756,310.1868516379421C346.9783039495114,311.1036868251017,341.39402151194355,311.4156325938993,337.3016613508868,311.9070132063566C333.2093011898299,312.3983938188139,330.6088633052841,313.06920927493087,320.65430936708293,319.02462307158345C310.69975542888164,324.980036868236,293.39108543702497,336.2200490054243,281.0936911192544,342.46608328462133C268.7962968014839,348.7121175638183,261.5101781577995,349.96417398502416,247.9235171914586,352.5715246731988C234.33685622511766,355.1788753613734,214.44965293612017,359.14152031651685,190.43548987739777,362.48830423227986C166.42132681867537,365.8350881480428,138.28020399022805,368.5660110244253,124.20964257600436,369.93147246261657L110.13908116178068,371.2969339008078" />
    
    <path stroke="darkorange" d="M842.7996403365906,209.4488188976378L840.8128004772892,209.3498520639466C838.8259606179877,209.25088523025534,834.8522808993847,209.05295156287283,832.0842819964713,208.8550178954903C829.3162830935577,208.65708422810783,827.7539650063336,208.45915056072536,826.2121191752623,207.83733237890718C824.6702733441911,207.215514197089,823.1488997692726,206.16981150083515,821.9596920353783,205.54799331901697C820.770484301484,204.92617513719878,819.9134424086138,204.72824146981625,817.4404189626313,204.10642328799813C814.9673955166486,203.48460510617988,810.8783905175534,202.43890240992604,808.4372651443177,201.39319971367217C805.9961397710822,200.34749701741828,805.2028940237061,199.30179432116438,804.0130133346905,198.6799761393462C802.823132645675,198.058157957528,801.2366170150199,197.8602242901455,799.6984291757149,197.66229062276304C798.1602413364097,197.46435695538057,796.6703812884545,197.26642328799804,794.7025500588129,196.6446051061799C792.7347188291711,196.02278692436167,790.2889164178429,194.97708422810783,787.1386357446617,194.48305476020042C783.9883550714803,193.989025292293,780.133596136446,194.04666905273203,777.4443570168296,193.97652409926033C774.7551178972132,193.9063791457886,773.2313985930147,193.7084454784061,771.1688825778139,193.21037444838626C769.1063665626131,192.71230341836645,766.5050538364097,191.91409502570923,759.8522869050852,187.27499835466372C753.1995199737604,182.63590168361824,742.4952988373146,174.15591673418444,736.4636742897213,169.81695742577634C730.4320497421281,165.4779981173682,729.0730217833876,165.28006444998573,728.0271102289179,165.08213078260323C726.981198674448,164.88419711522076,726.248403524249,164.6862634478383,725.5101958921463,164.48832978045579C724.7719882600435,164.29039611307329,724.0283681460369,164.0924624456908,722.79885040038,163.55930289308245C721.5693326547231,163.02614334047405,719.8539172774158,162.1577579026398,716.2099134658883,161.62459835003142C712.565909654361,161.09143879742305,706.9933174086137,160.89350513004055,703.372751662595,160.35281241147206C699.7521859165762,159.81211969290356,698.0836466702858,158.92866792314905,696.8696597674628,158.38797520458053C695.6556728646398,157.847282486012,694.8962383052841,157.64934881862953,691.7096517033116,156.84654623738936C688.5230651013391,156.0437436561492,682.9093264567499,154.63607216105137,679.6611596543612,153.8332695798112C676.4129928519725,153.03046699857103,675.5303978917843,152.83253333118856,674.3743331976113,152.02973074994838C673.2182685034383,151.2269281687082,671.7887340752804,149.81925667361037,668.9895004410967,148.176358378679C666.1902668069127,146.5334600837476,662.0213339667029,144.65533498898267,659.5576213355049,142.4210093116127C657.093908704307,140.1866836342427,656.335416282121,137.59615737426762,655.5896667458379,135.60377926244067C654.8439172095549,133.61140115061377,654.1109105591748,132.21717118693496,653.3779519770177,130.8229412232562C652.6449933948606,129.42871125957743,651.9120828809265,128.03448129589864,644.5049861337314,125.44395503592354C637.0978893865364,122.85342877594844,623.0166064060803,119.0666062196771,613.1915290332066,116.476079959702C603.3664516603329,113.88555369972693,597.7975798950416,112.49132373604816,590.8729439015561,111.69524192051752C583.9483079080709,110.89916010498689,575.6679076863915,110.7012264376044,568.3392294381106,110.5032927702219C561.0105511898298,110.30535910283943,554.6335949149475,110.10742543545693,545.183593885722,109.5584048115527C535.7335928564966,109.00938418764848,523.210547072928,108.1092766072225,515.3118229619074,106.3899661282458C507.4130988508867,104.67065564926912,504.13869641241405,102.13214227174171,500.5102042164315,100.76391874928676C496.8817120204488,99.39569522683182,492.89913006695616,99.19776155944935,488.9690818743214,97.24439310945814C485.03903368168653,95.29102465946697,481.16151924990953,91.58222142686708,478.7554500316685,89.6288529768759C476.3493808134274,87.67548452688472,475.41475680872236,87.47755085950223,470.8235686640426,87.00571956646449C466.232380519363,86.53388827342674,457.9846282347087,85.78815935473375,451.8879914155809,85.31632806169601C445.7913545964531,84.84449676865827,441.845833242852,84.64656310127579,437.8651932455664,83.30323936297133C433.88455324828084,81.95991562466683,429.8687946073109,79.47120181544038,425.887154790988,78.1278780771359C421.9055149746652,76.78455433883143,417.9579939829894,76.58662067144894,414.3007521828628,76.38868700406645C410.64351038273617,76.19075333668397,407.2765477741585,75.99281966930148,403.1991656713717,75.794886001919C399.12178356858493,75.59695233453651,394.33398197158886,75.39901866715402,388.68462958061895,75.20108499977154C383.035277189649,75.00315133238905,376.52437400470507,74.80521766500657,370.36044167345284,74.03458896216308C364.1965093422006,73.26396025931962,358.37954786463996,71.92063652101514,352.6789259070756,71.15000781817166C346.9783039495114,70.37937911532819,341.39402151194355,70.1814454479457,337.3016613508868,69.52166094551403C333.2093011898299,68.86187644308235,330.6088633052841,67.7402411056015,320.65430936708293,62.44963223040997C310.69975542888164,57.15902335521844,293.39108543702497,47.69944094231624,281.0936911192544,41.8147531688248C268.7962968014839,35.93006539533337,261.5101781577995,33.620272261252715,247.9235171914586,30.591683585795863C234.33685622511766,27.563094910339014,214.44965293612017,23.815710693505977,190.43548987739777,20.516489424835886C166.42132681867537,17.217268156165794,138.28020399022805,14.36620983565865,124.20964257600436,12.940680675405076L110.13908116178068,11.515151515151503" />
    <path stroke="orange" d="M842.7996403365906,219.0733674712272L840.8128004772892,218.96768644366009C838.8259606179877,218.86200541609298,834.8522808993847,218.65064336095875,832.0842819964713,218.44990296003252C829.3162830935577,218.24916255910625,827.7539650063336,218.05904381238793,826.2121191752623,217.82864734137684C824.6702733441911,217.59825087036583,823.1488997692726,217.3275766750621,821.9596920353783,217.0902996363849C820.770484301484,216.8530225977078,819.9134424086138,216.64914271565726,817.4404189626313,216.3789375604564C814.9673955166486,216.10873240525552,810.8783905175534,215.77220197690428,808.4372651443177,215.46166935891003C805.9961397710822,215.1511367409158,805.2028940237061,214.8666019332785,804.0130133346905,214.61914937877384C802.823132645675,214.3716968242692,801.2366170150199,214.16132652289716,799.6984291757149,213.90997253467347C798.1602413364097,213.65861854644982,796.6703812884545,213.36628087137447,794.7025500588129,212.42176648855897C792.7347188291711,211.47725210574345,790.2889164178429,209.8805610151877,787.1386357446617,208.28289138413842C783.9883550714803,206.68522175308917,780.133596136446,205.08657358154633,777.4443570168296,204.1852514782025C774.7551178972132,203.28392937485864,773.2313985930147,203.0799333397138,771.1688825778139,201.70142279209222C769.1063665626131,200.3229122444706,766.5050538364097,197.76988718437227,759.8522869050852,193.36477430741047C753.1995199737604,188.9596614304487,742.4952988373146,182.7024607366234,736.4636742897213,179.4689287085347C730.4320497421281,176.23539668044592,729.0730217833876,176.02553331809372,728.0271102289179,175.7437592237359C726.981198674448,175.46198512937815,726.248403524249,175.10830030301477,725.5101958921463,174.82627273914707C724.7719882600435,174.54424517527937,724.0283681460369,174.33387487390735,722.79885040038,173.9971060503129C721.5693326547231,173.6603372267184,719.8539172774158,173.19716988090147,716.2099134658883,170.5833564862618C712.565909654361,167.9695430916221,706.9933174086137,163.20508364815964,703.372751662595,160.66501989618172C699.7521859165762,158.1249561442038,698.0836466702858,157.80928808371038,696.8696597674628,157.54626890277765C695.6556728646398,157.28324972184495,694.8962383052841,157.0728794204729,691.7096517033116,156.165700924466C688.5230651013391,155.25852242845903,682.9093264567499,153.6545357378172,679.6611596543612,152.72194456813025C676.4129928519725,151.7893533984433,675.5303978917843,151.52815774971126,674.3743331976113,151.1293207783407C673.2182685034383,150.73048380697017,671.7887340752804,150.19400551296116,668.9895004410967,149.14844105220163C666.1902668069127,148.10287659144208,662.0213339667029,146.54822596393205,659.5576213355049,145.4735423443941C657.093908704307,144.39885872485613,656.335416282121,143.80414211329023,655.5896667458379,143.25290304073323C654.8439172095549,142.70166396817626,654.1109105591748,142.19390243462817,653.3779519770177,141.66697655745585C652.6449933948606,141.14005068028357,651.9120828809265,140.593960459487,644.5049861337314,139.3653936918708C637.0978893865364,138.13682692425462,623.0166064060803,136.2257836098188,613.1915290332066,134.12980512627908C603.3664516603329,132.0338266427394,597.7975798950416,129.75291299009584,590.8729439015561,128.5069536076326C583.9483079080709,127.26099422516937,575.6679076863915,127.04998911288651,568.3392294381106,126.84383219096311C561.0105511898298,126.63767526903972,554.6335949149475,126.43636653747576,545.183593885722,126.12945707800425C535.7335928564966,125.82254761853274,523.210547072928,125.41003743115364,515.3118229619074,124.14355370264745C507.4130988508867,122.87706997414124,504.13869641241405,120.75661270450792,500.5102042164315,119.58453878383311C496.8817120204488,118.41246486315832,492.89913006695616,118.18877429144203,488.9690818743214,115.38517639947638C485.03903368168653,112.5815785075107,481.16151924990953,107.19807329529566,478.7554500316685,104.43856436024059C476.3493808134274,101.6790554251855,475.41475680872236,101.54354276729042,470.8235686640426,101.3595518762283C466.232380519363,101.17556098516616,457.9846282347087,100.94309186093699,451.8879914155809,100.50989341694219C445.7913545964531,100.07669497294738,441.845833242852,99.44276720918691,437.8651932455664,95.59486179886846C433.88455324828084,91.74695638855003,429.8687946073109,84.6850733316736,425.887154790988,80.91128816419572C421.9055149746652,77.13750299671784,417.9579939829894,76.6518157186385,414.3007521828628,76.21784508935836C410.64351038273617,75.78387446007822,407.2765477741585,75.40162047959728,403.1991656713717,75.10530833867081C399.12178356858493,74.80899619774432,394.33398197158886,74.5986258963723,388.68462958061895,74.3909702732297C383.035277189649,74.1833146500871,376.52437400470507,73.97837370517395,370.36044167345284,73.11504092995655C364.1965093422006,72.25170815473915,358.37954786463996,70.7299835492175,352.6789259070756,69.81314836205787C346.9783039495114,68.89631317489827,341.39402151194355,68.58436740610068,337.3016613508868,68.0929867936434C333.2093011898299,67.60160618118613,330.6088633052841,66.93079072506917,320.65430936708293,60.97537692841657C310.69975542888164,55.019963131763966,293.39108543702497,43.77995099457572,281.0936911192544,37.533916715378695C268.7962968014839,31.287882436181675,261.5101781577995,30.035826014975868,247.9235171914586,27.428475326801237C234.33685622511766,24.82112463862661,214.44965293612017,20.858479683483164,190.43548987739777,17.511695767720187C166.42132681867537,14.164911851957212,138.28020399022805,11.433988975574707,124.20964257600436,10.068527537383453L110.13908116178068,8.703066099192199" />
  </g>
  
  <g class="axis y" stroke="black" fill="none" stroke-dasharray="4 6">
    <path d="M 0,285 h900" /><path d="M 0,190 h900" /><path d="M 0,95 h900" />
  </g>
  <g
    class="axis x"
    stroke="black" fill="none"
    transform="translate(0, 380)">
  
  <path d="M0,0 h900" />
  <g transform="translate(82, 0)">
      <text text-anchor="middle"
      fill="black"
      stroke="none"
      transform="translate(0, 12)">Mar</text>
      <path d="M0,0 v-5" />
    </g><g transform="translate(173, 0)">
      <text text-anchor="middle"
      fill="black"
      stroke="none"
      transform="translate(0, 12)">Apr</text>
      <path d="M0,0 v-5" />
    </g><g transform="translate(261, 0)">
      <text text-anchor="middle"
      fill="black"
      stroke="none"
      transform="translate(0, 12)">May</text>
      <path d="M0,0 v-5" />
    </g><g transform="translate(352, 0)">
      <text text-anchor="middle"
      fill="black"
      stroke="none"
      transform="translate(0, 12)">Jun</text>
      <path d="M0,0 v-5" />
    </g><g transform="translate(440, 0)">
      <text text-anchor="middle"
      fill="black"
      stroke="none"
      transform="translate(0, 12)">Jul</text>
      <path d="M0,0 v-5" />
    </g><g transform="translate(531, 0)">
      <text text-anchor="middle"
      fill="black"
      stroke="none"
      transform="translate(0, 12)">Aug</text>
      <path d="M0,0 v-5" />
    </g><g transform="translate(621, 0)">
      <text text-anchor="middle"
      fill="black"
      stroke="none"
      transform="translate(0, 12)">Sep</text>
      <path d="M0,0 v-5" />
    </g><g transform="translate(709, 0)">
      <text text-anchor="middle"
      fill="black"
      stroke="none"
      transform="translate(0, 12)">Oct</text>
      <path d="M0,0 v-5" />
    </g><g transform="translate(800, 0)">
      <text text-anchor="middle"
      fill="black"
      stroke="none"
      transform="translate(0, 12)">Nov</text>
      <path d="M0,0 v-5" />
    </g><g transform="translate(888, 0)">
      <text text-anchor="middle"
      fill="black"
      stroke="none"
      transform="translate(0, 12)">Dec</text>
      <path d="M0,0 v-5" />
    </g>
  
  </g>
</svg>