<svg xmlns="http://www.w3.org/2000/svg"
  viewBox="0 0 900 400"
  width="900"
  height="400">
  <style>
    text {
      font-family: "Courier New", Courier, monospace;
      font-size: 12px;
    }
  </style>
  <g class="lines" fill="none">
    <path stroke="darkblue" d="M899.636566440054,175.3846153846154L897.3736747706645,175.511655011655C895.110783101275,175.63869463869466,890.5849997624961,175.8927738927739,886.3187444425763,177.33000333000334C882.0524891226565,178.76723276723274,878.045761821596,181.3876123876124,869.9350524571279,186.96586746586743C861.8243430926599,192.54412254412253,849.6096516647843,201.08025308025307,842.6402137550189,205.47535797535798C835.6707758452532,209.8704628704629,833.9465914535976,210.12454212454213,832.5738979064537,210.37862137862138C831.2012043593098,210.63270063270065,830.1800016566777,210.8867798867799,828.6011242492385,211.47608502608503C827.0222468417992,212.06539016539014,824.8856947295527,212.98992118992115,820.590344558027,213.57922632922632C816.2949943865015,214.16853146853146,809.8408461556965,214.42261072261067,805.5779578957549,215.019449027876C801.3150696358133,215.61628733314123,799.2434413467348,216.55588468959255,794.9424308452138,217.75759190871545C790.6414203436929,218.95929912783845,784.1110276297295,220.4231162096331,780.2511505487087,221.28206437757C776.3912734676878,222.14101254550692,775.2019120196095,222.3950917995862,773.7055653531405,223.25403996752314C772.2092186866715,224.11298813546009,770.4058868018119,225.57680521725467,767.064990215497,227.27584909888284C763.7240936291822,228.97489298051096,758.8456323414119,230.90916366197266,755.8813770267852,233.19963492603947C752.9171217121584,235.4901061901062,751.8670723706754,238.13677803677805,750.8313276381697,240.18530173530175C749.7955829056642,242.23382543382544,748.7741427821362,243.68420098420097,747.752756617903,245.13457653457655C746.7313704536695,246.58495208495208,745.7100382487306,248.03532763532766,737.1965551262377,250.6819994819995C728.6830720037447,253.32867132867133,712.6774379636977,257.1716394716395,701.4496350529698,259.8183113183113C690.2218321422419,262.46498316498315,683.7718603608329,263.9153587153587,675.7999666774505,264.7675861175861C667.828072994068,265.61981351981353,658.3342574087118,265.87389277389275,649.9088034793009,266.127972027972C641.4833495498901,266.38205128205124,634.1262572764246,266.63613053613057,623.3194987408465,267.2412967467315C612.5127402052683,267.8464629573325,598.2563154075776,268.80271612445523,589.1909528085091,270.5781721901287C580.1255902094405,272.3536282558022,576.2512898089941,274.9482872200263,571.9795036613858,276.3726563291781C567.7077175137778,277.79702543832974,563.0384456190077,278.05110469240907,558.42814583722,280.060618729097C553.8178460554324,282.07013276578493,549.266518386627,285.8350815850816,546.3669710579903,287.84459562176954C543.4674237293535,289.8541096584575,542.2196567408854,290.1081889125367,536.8671900303927,290.63616579227124C531.5147233199,291.16414267200577,522.0575568873828,291.96601717739554,515.015139031777,292.49399405713C507.9727211761715,293.0219709368646,503.3450518974774,293.2760501909438,498.67795995820603,294.6755195159451C494.0108680189348,296.07498884094633,489.3043534190861,298.61984823686953,484.6361391264887,300.01931756187076C479.96792483389135,301.41878688687206,475.33801084854514,301.67286614095127,471.03395164688374,301.92694539503054C466.72989244522233,302.1810246491098,462.75168802724573,302.43510390318903,457.9759976118208,302.6891831572683C453.20030719639584,302.9432624113476,447.62713078352255,303.1973416654268,441.08681495529663,303.45142091950606C434.5464991270707,303.70550017358534,427.039043883492,303.95957942766455,419.92108301555646,304.7863537172048C412.803122147621,305.61312800674506,406.07465565532874,307.01259733174624,399.47678684356634,307.8393716212865C392.878918031804,308.66614591082674,386.4116469005715,308.92022516490596,381.61914276897375,309.6361552540344C376.82663863737594,310.35208534316286,373.7089015054128,311.5298662673405,362.3357538389623,316.87662072922876C350.9626061725118,322.2233751911171,331.33404797157385,331.7391031907161,317.33092968608406,337.6799365509043C303.32781140059427,343.6207699110925,294.95013303055254,345.98670863186993,279.49974013112984,349.0714428940235C264.04934723170726,352.1561771561772,241.5262398029037,355.95970695970703,214.37038699589002,359.3150738150739C187.21453418887634,362.6704406704407,155.42593600365254,365.5776445776446,139.5316369110407,367.03124653124655L123.63733781842878,368.4848484848485" />
    <path stroke="blue" d="M899.636566440054,174.49178089983508L897.3736747706645,174.62125797417784C895.110783101275,174.75073504852057,890.5849997624961,175.00968919720606,886.3187444425763,176.0607764095844C882.0524891226565,177.11186362196273,878.045761821596,178.9550838980339,869.9350524571279,183.02958630663883C861.8243430926599,187.10408871524382,849.6096516647843,193.4098732563825,842.6402137550189,196.69198913178468C835.6707758452532,199.97410500718686,833.9465914535976,200.23255221685258,832.5738979064537,200.5629101585238C831.2012043593098,200.89326810019506,830.1800016566777,201.29553677387187,828.6011242492385,201.75254670727546C827.0222468417992,202.2095566406791,824.8856947295527,202.72130783380945,820.590344558027,205.3837050757626C816.2949943865015,208.04610231771574,809.8408461556965,212.85914560849164,805.5779578957549,215.447793207783C801.3150696358133,218.0364408070744,799.2434413467348,218.40069271488127,794.9424308452138,219.40910393776235C790.6414203436929,220.41751516064343,784.1110276297295,222.07008569859872,780.2511505487087,223.0512607155991C776.3912734676878,224.0324357325995,775.2019120196095,224.34221522864505,773.7055653531405,224.78963604732903C772.2092186866715,225.23705686601303,770.4058868018119,225.8221190073355,767.064990215497,226.9162673154085C763.7240936291822,228.01041562348146,758.8456323414119,229.61365009830493,755.8813770267852,230.7369175651564C752.9171217121584,231.86018503200782,751.8670723706754,232.50348549088713,750.8313276381697,233.10330841075756C749.7955829056642,233.70313133062803,748.7741427821362,234.25947671148958,747.752756617903,234.83498643597534C746.7313704536695,235.41049616046112,745.7100382487306,236.00517022857116,737.1965551262377,237.28232084350077C728.6830720037447,238.5594714584304,712.6774379636977,240.51909862017968,701.4496350529698,242.66366095103285C690.2218321422419,244.80822328188597,683.7718603608329,247.13772078184306,675.7999666774505,248.43226401161974C667.828072994068,249.7268072413964,658.3342574087118,249.9863962009927,649.9088034793009,250.24113697022952C641.4833495498901,250.4958777394664,634.1262572764246,250.7457703183438,623.3194987408465,251.10126362512878C612.5127402052683,251.45675693191376,598.2563154075776,251.91785096660627,589.1909528085091,253.23291854242598C580.1255902094405,254.54798611824563,576.2512898089941,256.7170272351924,571.9795036613858,257.93768500318066C567.7077175137778,259.1583427711689,563.0384456190077,259.4306171901987,558.42814583722,262.2827989294778C553.8178460554324,265.1349806687569,549.266518386627,270.5670697282854,546.3669710579903,273.3751625106539C543.4674237293535,276.18325529302246,542.2196567408854,276.367351798231,536.8671900303927,276.59992653660663C531.5147233199,276.8325012749822,522.0575568873828,277.11355424652476,515.015139031777,277.5953365378331C507.9727211761715,278.0771188291413,503.3450518974774,278.75963044021523,498.67795995820603,282.65611969784715C494.0108680189348,286.552608955479,489.3043534190861,293.6630758596689,484.6361391264887,297.48544487446026C479.96792483389135,301.3078138892516,475.33801084854514,301.8420850146444,471.03395164688374,302.324639491238C466.72989244522233,302.8071939678316,462.75168802724573,303.238031795626,457.9759976118208,303.5829277838659C453.20030719639584,303.9278237721058,447.62713078352255,304.18677792079137,441.08681495529663,304.4430173912474C434.5464991270707,304.6992568617034,427.039043883492,304.95278165393006,419.92108301555646,305.8646982764609C412.803122147621,306.77661489899174,406.07465565532874,308.34692335182683,399.47678684356634,309.3123423862999C392.878918031804,310.277761420773,386.4116469005715,310.638291036884,381.61914276897375,311.1782554966548C376.82663863737594,311.7182199564255,373.7089015054128,312.4376192598559,362.3357538389623,318.44161690382197C350.9626061725118,324.445614547788,331.33404797157385,335.73421053228975,317.33092968608406,342.0288286588002C303.32781140059427,348.32344678531064,294.95013303055254,349.62408705382995,279.49974013112984,352.28002158931804C264.04934723170726,354.9359561248061,241.5262398029037,358.947184927263,214.37038699589002,362.34255269033946C187.21453418887634,365.7379204534159,155.42593600365254,368.51742717711187,139.5316369110407,369.90718053895984L123.63733781842878,371.2969339008078" />
    
    <path stroke="darkorange" d="M899.636566440054,204.6153846153846L897.3736747706645,204.488344988345C895.110783101275,204.36130536130534,890.5849997624961,204.1072261072261,886.3187444425763,202.66999666999666C882.0524891226565,201.23276723276726,878.045761821596,198.6123876123876,869.9350524571279,193.03413253413257C861.8243430926599,187.4558774558775,849.6096516647843,178.91974691974693,842.6402137550189,174.52464202464205C835.6707758452532,170.1295371295371,833.9465914535976,169.87545787545787,832.5738979064537,169.62137862137862C831.2012043593098,169.36729936729935,830.1800016566777,169.1132201132201,828.6011242492385,168.52391497391497C827.0222468417992,167.93460983460986,824.8856947295527,167.0100788100788,820.590344558027,166.42077367077368C816.2949943865015,165.83146853146854,809.8408461556965,165.5773892773893,805.5779578957549,164.980550972124C801.3150696358133,164.38371266685874,799.2434413467348,163.44411531040745,794.9424308452138,162.2424080912845C790.6414203436929,161.04070087216152,784.1110276297295,159.5768837903669,780.2511505487087,158.71793562243C776.3912734676878,157.85898745449308,775.2019120196095,157.6049082004138,773.7055653531405,156.7459600324769C772.2092186866715,155.88701186453997,770.4058868018119,154.42319478274536,767.064990215497,152.7241509011172C763.7240936291822,151.02510701948904,758.8456323414119,149.09083633802734,755.8813770267852,146.8003650739606C752.9171217121584,144.5098938098938,751.8670723706754,141.86322196322197,750.8313276381697,139.81469826469825C749.7955829056642,137.76617456617458,748.7741427821362,136.31579901579903,747.752756617903,134.86542346542348C746.7313704536695,133.41504791504792,745.7100382487306,131.96467236467237,737.1965551262377,129.3180005180005C728.6830720037447,126.67132867132868,712.6774379636977,122.82836052836053,701.4496350529698,120.18168868168868C690.2218321422419,117.53501683501685,683.7718603608329,116.0846412846413,675.7999666774505,115.23241388241388C667.828072994068,114.38018648018648,658.3342574087118,114.12610722610724,649.9088034793009,113.87202797202796C641.4833495498901,113.61794871794872,634.1262572764246,113.36386946386948,623.3194987408465,112.7587032532685C612.5127402052683,112.15353704266748,598.2563154075776,111.19728387554476,589.1909528085091,109.42182780987127C580.1255902094405,107.64637174419782,576.2512898089941,105.05171277997364,571.9795036613858,103.62734367082192C567.7077175137778,102.2029745616702,563.0384456190077,101.94889530759094,558.42814583722,99.93938127090301C553.8178460554324,97.92986723421505,549.266518386627,94.1649184149184,546.3669710579903,92.15540437823046C543.4674237293535,90.1458903415425,542.2196567408854,89.89181108746324,536.8671900303927,89.36383420772874C531.5147233199,88.83585732799423,522.0575568873828,88.03398282260447,515.015139031777,87.50600594286998C507.9727211761715,86.97802906313545,503.3450518974774,86.7239498090562,498.67795995820603,85.32448048405496C494.0108680189348,83.92501115905371,489.3043534190861,81.38015176313048,484.6361391264887,79.98068243812924C479.96792483389135,78.58121311312799,475.33801084854514,78.32713385904874,471.03395164688374,78.07305460496947C466.72989244522233,77.81897535089023,462.75168802724573,77.56489609681098,457.9759976118208,77.31081684273171C453.20030719639584,77.05673758865247,447.62713078352255,76.80265833457322,441.08681495529663,76.54857908049395C434.5464991270707,76.29449982641471,427.039043883492,76.04042057233546,419.92108301555646,75.21364628279521C412.803122147621,74.38687199325497,406.07465565532874,72.98740266825374,399.47678684356634,72.16062837871348C392.878918031804,71.33385408917324,386.4116469005715,71.07977483509399,381.61914276897375,70.36384474596554C376.82663863737594,69.6479146568371,373.7089015054128,68.47013373265948,362.3357538389623,63.12337927077118C350.9626061725118,57.77662480888288,331.33404797157385,48.260896809283906,317.33092968608406,42.320063449095706C303.32781140059427,36.37923008890751,294.95013303055254,34.01329136813008,279.49974013112984,30.928557105976466C264.04934723170726,27.84382284382285,241.5262398029037,24.040293040293047,214.37038699589002,20.684926184926187C187.21453418887634,17.329559329559327,155.42593600365254,14.422355422355416,139.5316369110407,12.96875346875346L123.63733781842878,11.515151515151503" />
    <path stroke="orange" d="M899.636566440054,205.50821910016492L897.3736747706645,205.37874202582216C895.110783101275,205.24926495147943,890.5849997624961,204.99031080279394,886.3187444425763,203.9392235904156C882.0524891226565,202.88813637803727,878.045761821596,201.0449161019661,869.9350524571279,196.97041369336114C861.8243430926599,192.89591128475618,849.6096516647843,186.59012674361747,842.6402137550189,183.3080108682153C835.6707758452532,180.02589499281308,833.9465914535976,179.76744778314742,832.5738979064537,179.4370898414762C831.2012043593098,179.1067318998049,830.1800016566777,178.70446322612813,828.6011242492385,178.24745329272454C827.0222468417992,177.7904433593209,824.8856947295527,177.27869216619055,820.590344558027,174.6162949242374C816.2949943865015,171.95389768228426,809.8408461556965,167.14085439150836,805.5779578957549,164.552206792217C801.3150696358133,161.9635591929256,799.2434413467348,161.59930728511873,794.9424308452138,160.59089606223765C790.6414203436929,159.58248483935657,784.1110276297295,157.92991430140128,780.2511505487087,156.9487392844009C776.3912734676878,155.9675642674005,775.2019120196095,155.65778477135495,773.7055653531405,155.21036395267097C772.2092186866715,154.76294313398697,770.4058868018119,154.1778809926645,767.064990215497,153.08373268459152C763.7240936291822,151.98958437651854,758.8456323414119,150.38634990169507,755.8813770267852,149.26308243484365C752.9171217121584,148.1398149679922,751.8670723706754,147.49651450911284,750.8313276381697,146.89669158924238C749.7955829056642,146.29686866937195,748.7741427821362,145.74052328851042,747.752756617903,145.16501356402466C746.7313704536695,144.58950383953888,745.7100382487306,143.99482977142884,737.1965551262377,142.7176791564992C728.6830720037447,141.4405285415696,712.6774379636977,139.48090137982032,701.4496350529698,137.33633904896715C690.2218321422419,135.19177671811403,683.7718603608329,132.86227921815694,675.7999666774505,131.5677359883803C667.828072994068,130.2731927586036,658.3342574087118,130.0136037990073,649.9088034793009,129.75886302977042C641.4833495498901,129.5041222605336,634.1262572764246,129.25422968165617,623.3194987408465,128.89873637487122C612.5127402052683,128.54324306808624,598.2563154075776,128.08214903339368,589.1909528085091,126.76708145757404C580.1255902094405,125.45201388175438,576.2512898089941,123.2829727648076,571.9795036613858,122.06231499681935C567.7077175137778,120.84165722883108,563.0384456190077,120.56938280980137,558.42814583722,117.71720107052222C553.8178460554324,114.86501933124312,549.266518386627,109.4329302717146,546.3669710579903,106.62483748934608C543.4674237293535,103.81674470697754,542.2196567408854,103.63264820176899,536.8671900303927,103.40007346339341C531.5147233199,103.16749872501782,522.0575568873828,102.8864457534752,515.015139031777,102.40466346216694C507.9727211761715,101.92288117085867,503.3450518974774,101.24036955978475,498.67795995820603,97.34388030215285C494.0108680189348,93.44739104452096,489.3043534190861,86.3369241403311,484.6361391264887,82.51455512553976C479.96792483389135,78.69218611074842,475.33801084854514,78.15791498535562,471.03395164688374,77.67536050876203C466.72989244522233,77.19280603216843,462.75168802724573,76.76196820437404,457.9759976118208,76.41707221613412C453.20030719639584,76.07217622789416,447.62713078352255,75.81322207920867,441.08681495529663,75.55698260875262C434.5464991270707,75.30074313829657,427.039043883492,75.04721834606995,419.92108301555646,74.1353017235391C412.803122147621,73.22338510100825,406.07465565532874,71.65307664817315,399.47678684356634,70.68765761370008C392.878918031804,69.72223857922701,386.4116469005715,69.36170896311597,381.61914276897375,68.82174450334524C376.82663863737594,68.28178004357451,373.7089015054128,67.56238074014409,362.3357538389623,61.558383096178034C350.9626061725118,55.55438545221197,331.33404797157385,44.26578946771028,317.33092968608406,37.9711713411998C303.32781140059427,31.676553214689317,294.95013303055254,30.375912946170057,279.49974013112984,27.71997841068197C264.04934723170726,25.06404387519389,241.5262398029037,21.052815072736987,214.37038699589002,17.657447309660554C187.21453418887634,14.262079546584124,155.42593600365254,11.48257282288816,139.5316369110407,10.09281946104018L123.63733781842878,8.703066099192199" />
  </g>
  
  <g class="axis y" stroke="black" fill="none" stroke-dasharray="4 6">
    <path d="M 0,285 h900" /><path d="M 0,190 h900" /><path d="M 0,95 h900" />
  </g>
  <g
    class="axis x"
    stroke="black" fill="none"
    transform="translate(0, 380)">
  
  <path d="M0,0 h900" />
  <g transform="translate(92, 0)">
      <text text-anchor="middle"
      fill="black"
      stroke="none"
      transform="translate(0, 12)">Mar</text>
      <path d="M0,0 v-5" />
    </g><g transform="translate(194, 0)">
      <text text-anchor="middle"
      fill="black"
      stroke="none"
      transform="translate(0, 12)">Apr</text>
      <path d="M0,0 v-5" />
    </g><g transform="translate(293, 0)">
      <text text-anchor="middle"
      fill="black"
      stroke="none"
      transform="translate(0, 12)">May</text>
      <path d="M0,0 v-5" />
    </g><g transform="translate(395, 0)">
      <text text-anchor="middle"
      fill="black"
      stroke="none"
      transform="translate(0, 12)">Jun</text>
      <path d="M0,0 v-5" />
    </g><g transform="translate(494, 0)">
      <text text-anchor="middle"
      fill="black"
      stroke="none"
      transform="translate(0, 12)">Jul</text>
      <path d="M0,0 v-5" />
    </g><g transform="translate(596, 0)">
      <text text-anchor="middle"
      fill="black"
      stroke="none"
      transform="translate(0, 12)">Aug</text>
      <path d="M0,0 v-5" />
    </g><g transform="translate(698, 0)">
      <text text-anchor="middle"
      fill="black"
      stroke="none"
      transform="translate(0, 12)">Sep</text>
      <path d="M0,0 v-5" />
    </g><g transform="translate(796, 0)">
      <text text-anchor="middle"
      fill="black"
      stroke="none"
      transform="translate(0, 12)">Oct</text>
      <path d="M0,0 v-5" />
    </g><g transform="translate(898, 0)">
      <text text-anchor="middle"
      fill="black"
      stroke="none"
      transform="translate(0, 12)">Nov</text>
      <path d="M0,0 v-5" />
    </g>
  
  </g>
</svg>