<svg xmlns="http://www.w3.org/2000/svg"
  viewBox="0 0 900 400"
  width="900"
  height="400">
  <style>
    text {
      font-family: "Courier New", Courier, monospace;
      font-size: 12px;
    }
  </style>
  <g class="lines" fill="none">
    <path stroke="darkorange" d="M899.6501045640933,175.3846153846154L897.3871788417215,175.511655011655C895.1242531193496,175.63869463869466,890.5984016746061,175.8927738927739,886.3320821542126,177.33000333000334C882.0657626338192,178.76723276723274,878.0589750377758,181.3876123876124,869.9481436198103,186.96586746586743C861.8373122018447,192.54412254412253,849.6224369619571,201.08025308025307,842.6528941730453,205.47535797535798C835.6833513841335,209.8704628704629,833.959141046198,210.12454212454213,832.5864268421619,210.37862137862138C831.2137126381259,210.63270063270065,830.1924945679895,210.8867798867799,828.6135934009134,211.47608502608503C827.0346922338372,212.06539016539014,824.8981079698211,212.98992118992115,820.6026931599898,213.57922632922632C816.3072783501584,214.16853146853146,809.8530329945115,214.42261072261067,805.5900805847654,215.019449027876C801.3271281750189,215.61628733314123,799.255468711173,216.55588468959255,794.9543934861672,217.75759190871545C790.6533182611614,218.95929912783845,784.1228272749958,220.4231162096331,780.2628921088584,221.28206437757C776.4029569427212,222.14101254550692,775.2135775966123,222.3950917995862,773.717208412465,223.25403996752314C772.2208392283178,224.11298813546009,770.4174802061322,225.57680521725467,767.0765333445461,227.27584909888284C763.73558648296,228.97489298051096,758.8570517819732,230.90916366197266,755.8927518599377,233.19963492603947C752.9284519379022,235.4901061901062,751.8783867948179,238.13677803677805,750.8426264759731,240.18530173530175C749.8068661571284,242.23382543382544,748.7854106625232,243.68420098420097,747.7640091280246,245.13457653457655C746.742607593526,246.58495208495208,745.7212600191341,248.03532763532766,737.2076487820282,250.6819994819995C728.6940375449223,253.32867132867133,712.6881626451026,257.1716394716395,701.4601907734917,259.8183113183113C690.232218901881,262.46498316498315,683.7821500584791,263.9153587153587,675.8101364105581,264.7675861175861C667.8381227626371,265.61981351981353,658.3441643101969,265.87389277389275,649.9185835908748,266.127972027972C641.4930028715528,266.38205128205124,634.1357998853489,266.63613053613057,623.3288787249477,267.2412967467315C612.5219575645464,267.8464629573325,598.2653182299478,268.80271612445523,589.1998192113429,270.5781721901287C580.1343201927378,272.3536282558022,576.2599614901266,274.9482872200263,571.9881110588143,276.3726563291781C567.716260627502,277.79702543832974,563.0469184674889,278.05110469240907,558.4365493078963,280.060618729097C553.8261801483036,282.07013276578493,549.2747839891314,285.8350815850816,546.3751930268398,287.84459562176954C543.4756020645483,289.8541096584575,542.2278162991374,290.1081889125367,536.8752690423876,290.63616579227124C531.5227217856377,291.16414267200577,522.0654130375489,291.96601717739554,515.0228892045631,292.49399405713C507.98036537157714,293.0219709368646,503.3526264536942,293.2760501909438,498.68546428198465,294.6755195159451C494.01830211027504,296.07498884094633,489.31171668473877,298.61984823686953,484.6434321428135,300.01931756187076C479.97514760088825,301.41878688687206,475.3451639425739,301.67286614095127,471.04103997154954,301.92694539503054C466.73691600052507,302.1810246491098,462.75865171679044,302.43510390318903,457.98288943469,302.6891831572683C453.2071271525895,302.9432624113476,447.6338668721232,303.1973416654268,441.0934526223676,303.45142091950606C434.5530383726121,303.70550017358534,427.04547015356746,303.95957942766455,419.92740217144757,304.7863537172048C412.80933418932756,305.61312800674506,406.0807664441323,307.01259733174624,399.4827983447579,307.8393716212865C392.8848302453835,308.66614591082674,386.41746179182996,308.92022516490596,381.62488554053647,309.6361552540344C376.832309289243,310.35208534316286,373.71452524020964,311.5298662673405,362.34120642566495,316.87662072922876C350.9678876111202,322.2233751911171,331.3390340310641,331.7391031907161,317.33570502053334,337.6799365509043C303.33237601000263,343.6207699110925,294.9545715689972,345.98670863186993,279.50394616531304,349.0714428940235C264.05332076162887,352.1561771561772,241.52987439526598,355.95970695970703,214.37361293511677,359.3150738150739C187.2173514749676,362.6704406704407,155.4282749210321,365.5776445776446,139.5337366440644,367.03124653124655L123.63919836709665,368.4848484848485" />
    <path stroke="orange" d="M899.6501045640933,174.49178089983508L897.3871788417215,174.62125797417784C895.1242531193496,174.75073504852057,890.5984016746061,175.00968919720606,886.3320821542126,176.0607764095844C882.0657626338192,177.11186362196273,878.0589750377758,178.9550838980339,869.9481436198103,183.02958630663883C861.8373122018447,187.10408871524382,849.6224369619571,193.4098732563825,842.6528941730453,196.69198913178468C835.6833513841335,199.97410500718686,833.959141046198,200.23255221685258,832.5864268421619,200.5629101585238C831.2137126381259,200.89326810019506,830.1924945679895,201.29553677387187,828.6135934009134,201.75254670727546C827.0346922338372,202.2095566406791,824.8981079698211,202.72130783380945,820.6026931599898,205.3837050757626C816.3072783501584,208.04610231771574,809.8530329945115,212.85914560849164,805.5900805847654,215.447793207783C801.3271281750189,218.0364408070744,799.255468711173,218.40069271488127,794.9543934861672,219.40910393776235C790.6533182611614,220.41751516064343,784.1228272749958,222.07008569859872,780.2628921088584,223.0512607155991C776.4029569427212,224.0324357325995,775.2135775966123,224.34221522864505,773.717208412465,224.78963604732903C772.2208392283178,225.23705686601303,770.4174802061322,225.8221190073355,767.0765333445461,226.9162673154085C763.73558648296,228.01041562348146,758.8570517819732,229.61365009830493,755.8927518599377,230.7369175651564C752.9284519379022,231.86018503200782,751.8783867948179,232.50348549088713,750.8426264759731,233.10330841075756C749.8068661571284,233.70313133062803,748.7854106625232,234.25947671148958,747.7640091280246,234.83498643597534C746.742607593526,235.41049616046112,745.7212600191341,236.00517022857116,737.2076487820282,237.28232084350077C728.6940375449223,238.5594714584304,712.6881626451026,240.51909862017968,701.4601907734917,242.66366095103285C690.232218901881,244.80822328188597,683.7821500584791,247.13772078184306,675.8101364105581,248.43226401161974C667.8381227626371,249.7268072413964,658.3441643101969,249.9863962009927,649.9185835908748,250.24113697022952C641.4930028715528,250.4958777394664,634.1357998853489,250.7457703183438,623.3288787249477,251.10126362512878C612.5219575645464,251.45675693191376,598.2653182299478,251.91785096660627,589.1998192113429,253.23291854242598C580.1343201927378,254.54798611824563,576.2599614901266,256.7170272351924,571.9881110588143,257.93768500318066C567.716260627502,259.1583427711689,563.0469184674889,259.4306171901987,558.4365493078963,262.2827989294778C553.8261801483036,265.1349806687569,549.2747839891314,270.5670697282854,546.3751930268398,273.3751625106539C543.4756020645483,276.18325529302246,542.2278162991374,276.367351798231,536.8752690423876,276.59992653660663C531.5227217856377,276.8325012749822,522.0654130375489,277.11355424652476,515.0228892045631,277.5953365378331C507.98036537157714,278.0771188291413,503.3526264536942,278.75963044021523,498.68546428198465,282.65611969784715C494.01830211027504,286.552608955479,489.31171668473877,293.6630758596689,484.6434321428135,297.48544487446026C479.97514760088825,301.3078138892516,475.3451639425739,301.8420850146444,471.04103997154954,302.324639491238C466.73691600052507,302.8071939678316,462.75865171679044,303.238031795626,457.98288943469,303.5829277838659C453.2071271525895,303.9278237721058,447.6338668721232,304.18677792079137,441.0934526223676,304.4430173912474C434.5530383726121,304.6992568617034,427.04547015356746,304.95278165393006,419.92740217144757,305.8646982764609C412.80933418932756,306.77661489899174,406.0807664441323,308.34692335182683,399.4827983447579,309.3123423862999C392.8848302453835,310.277761420773,386.41746179182996,310.638291036884,381.62488554053647,311.1782554966548C376.832309289243,311.7182199564255,373.71452524020964,312.4376192598559,362.34120642566495,318.44161690382197C350.9678876111202,324.445614547788,331.3390340310641,335.73421053228975,317.33570502053334,342.0288286588002C303.33237601000263,348.32344678531064,294.9545715689972,349.62408705382995,279.50394616531304,352.28002158931804C264.05332076162887,354.9359561248061,241.52987439526598,358.947184927263,214.37361293511677,362.34255269033946C187.2173514749676,365.7379204534159,155.4282749210321,368.51742717711187,139.5337366440644,369.90718053895984L123.63919836709665,371.2969339008078" />
    
    <path stroke="darkblue" d="M899.6501045640933,204.6153846153846L897.3871788417215,204.488344988345C895.1242531193496,204.36130536130534,890.5984016746061,204.1072261072261,886.3320821542126,202.66999666999666C882.0657626338192,201.23276723276726,878.0589750377758,198.6123876123876,869.9481436198103,193.03413253413257C861.8373122018447,187.4558774558775,849.6224369619571,178.91974691974693,842.6528941730453,174.52464202464205C835.6833513841335,170.1295371295371,833.959141046198,169.87545787545787,832.5864268421619,169.62137862137862C831.2137126381259,169.36729936729935,830.1924945679895,169.1132201132201,828.6135934009134,168.52391497391497C827.0346922338372,167.93460983460986,824.8981079698211,167.0100788100788,820.6026931599898,166.42077367077368C816.3072783501584,165.83146853146854,809.8530329945115,165.5773892773893,805.5900805847654,164.980550972124C801.3271281750189,164.38371266685874,799.255468711173,163.44411531040745,794.9543934861672,162.2424080912845C790.6533182611614,161.04070087216152,784.1228272749958,159.5768837903669,780.2628921088584,158.71793562243C776.4029569427212,157.85898745449308,775.2135775966123,157.6049082004138,773.717208412465,156.7459600324769C772.2208392283178,155.88701186453997,770.4174802061322,154.42319478274536,767.0765333445461,152.7241509011172C763.73558648296,151.02510701948904,758.8570517819732,149.09083633802734,755.8927518599377,146.8003650739606C752.9284519379022,144.5098938098938,751.8783867948179,141.86322196322197,750.8426264759731,139.81469826469825C749.8068661571284,137.76617456617458,748.7854106625232,136.31579901579903,747.7640091280246,134.86542346542348C746.742607593526,133.41504791504792,745.7212600191341,131.96467236467237,737.2076487820282,129.3180005180005C728.6940375449223,126.67132867132868,712.6881626451026,122.82836052836053,701.4601907734917,120.18168868168868C690.232218901881,117.53501683501685,683.7821500584791,116.0846412846413,675.8101364105581,115.23241388241388C667.8381227626371,114.38018648018648,658.3441643101969,114.12610722610724,649.9185835908748,113.87202797202796C641.4930028715528,113.61794871794872,634.1357998853489,113.36386946386948,623.3288787249477,112.7587032532685C612.5219575645464,112.15353704266748,598.2653182299478,111.19728387554476,589.1998192113429,109.42182780987127C580.1343201927378,107.64637174419782,576.2599614901266,105.05171277997364,571.9881110588143,103.62734367082192C567.716260627502,102.2029745616702,563.0469184674889,101.94889530759094,558.4365493078963,99.93938127090301C553.8261801483036,97.92986723421505,549.2747839891314,94.1649184149184,546.3751930268398,92.15540437823046C543.4756020645483,90.1458903415425,542.2278162991374,89.89181108746324,536.8752690423876,89.36383420772874C531.5227217856377,88.83585732799423,522.0654130375489,88.03398282260447,515.0228892045631,87.50600594286998C507.98036537157714,86.97802906313545,503.3526264536942,86.7239498090562,498.68546428198465,85.32448048405496C494.01830211027504,83.92501115905371,489.31171668473877,81.38015176313048,484.6434321428135,79.98068243812924C479.97514760088825,78.58121311312799,475.3451639425739,78.32713385904874,471.04103997154954,78.07305460496947C466.73691600052507,77.81897535089023,462.75865171679044,77.56489609681098,457.98288943469,77.31081684273171C453.2071271525895,77.05673758865247,447.6338668721232,76.80265833457322,441.0934526223676,76.54857908049395C434.5530383726121,76.29449982641471,427.04547015356746,76.04042057233546,419.92740217144757,75.21364628279521C412.80933418932756,74.38687199325497,406.0807664441323,72.98740266825374,399.4827983447579,72.16062837871348C392.8848302453835,71.33385408917324,386.41746179182996,71.07977483509399,381.62488554053647,70.36384474596554C376.832309289243,69.6479146568371,373.71452524020964,68.47013373265948,362.34120642566495,63.12337927077118C350.9678876111202,57.77662480888288,331.3390340310641,48.260896809283906,317.33570502053334,42.320063449095706C303.33237601000263,36.37923008890751,294.9545715689972,34.01329136813008,279.50394616531304,30.928557105976466C264.05332076162887,27.84382284382285,241.52987439526598,24.040293040293047,214.37361293511677,20.684926184926187C187.2173514749676,17.329559329559327,155.4282749210321,14.422355422355416,139.5337366440644,12.96875346875346L123.63919836709665,11.515151515151503" />
    <path stroke="blue" d="M899.6501045640933,205.50821910016492L897.3871788417215,205.37874202582216C895.1242531193496,205.24926495147943,890.5984016746061,204.99031080279394,886.3320821542126,203.9392235904156C882.0657626338192,202.88813637803727,878.0589750377758,201.0449161019661,869.9481436198103,196.97041369336114C861.8373122018447,192.89591128475618,849.6224369619571,186.59012674361747,842.6528941730453,183.3080108682153C835.6833513841335,180.02589499281308,833.959141046198,179.76744778314742,832.5864268421619,179.4370898414762C831.2137126381259,179.1067318998049,830.1924945679895,178.70446322612813,828.6135934009134,178.24745329272454C827.0346922338372,177.7904433593209,824.8981079698211,177.27869216619055,820.6026931599898,174.6162949242374C816.3072783501584,171.95389768228426,809.8530329945115,167.14085439150836,805.5900805847654,164.552206792217C801.3271281750189,161.9635591929256,799.255468711173,161.59930728511873,794.9543934861672,160.59089606223765C790.6533182611614,159.58248483935657,784.1228272749958,157.92991430140128,780.2628921088584,156.9487392844009C776.4029569427212,155.9675642674005,775.2135775966123,155.65778477135495,773.717208412465,155.21036395267097C772.2208392283178,154.76294313398697,770.4174802061322,154.1778809926645,767.0765333445461,153.08373268459152C763.73558648296,151.98958437651854,758.8570517819732,150.38634990169507,755.8927518599377,149.26308243484365C752.9284519379022,148.1398149679922,751.8783867948179,147.49651450911284,750.8426264759731,146.89669158924238C749.8068661571284,146.29686866937195,748.7854106625232,145.74052328851042,747.7640091280246,145.16501356402466C746.742607593526,144.58950383953888,745.7212600191341,143.99482977142884,737.2076487820282,142.7176791564992C728.6940375449223,141.4405285415696,712.6881626451026,139.48090137982032,701.4601907734917,137.33633904896715C690.232218901881,135.19177671811403,683.7821500584791,132.86227921815694,675.8101364105581,131.5677359883803C667.8381227626371,130.2731927586036,658.3441643101969,130.0136037990073,649.9185835908748,129.75886302977042C641.4930028715528,129.5041222605336,634.1357998853489,129.25422968165617,623.3288787249477,128.89873637487122C612.5219575645464,128.54324306808624,598.2653182299478,128.08214903339368,589.1998192113429,126.76708145757404C580.1343201927378,125.45201388175438,576.2599614901266,123.2829727648076,571.9881110588143,122.06231499681935C567.716260627502,120.84165722883108,563.0469184674889,120.56938280980137,558.4365493078963,117.71720107052222C553.8261801483036,114.86501933124312,549.2747839891314,109.4329302717146,546.3751930268398,106.62483748934608C543.4756020645483,103.81674470697754,542.2278162991374,103.63264820176899,536.8752690423876,103.40007346339341C531.5227217856377,103.16749872501782,522.0654130375489,102.8864457534752,515.0228892045631,102.40466346216694C507.98036537157714,101.92288117085867,503.3526264536942,101.24036955978475,498.68546428198465,97.34388030215285C494.01830211027504,93.44739104452096,489.31171668473877,86.3369241403311,484.6434321428135,82.51455512553976C479.97514760088825,78.69218611074842,475.3451639425739,78.15791498535562,471.04103997154954,77.67536050876203C466.73691600052507,77.19280603216843,462.75865171679044,76.76196820437404,457.98288943469,76.41707221613412C453.2071271525895,76.07217622789416,447.6338668721232,75.81322207920867,441.0934526223676,75.55698260875262C434.5530383726121,75.30074313829657,427.04547015356746,75.04721834606995,419.92740217144757,74.1353017235391C412.80933418932756,73.22338510100825,406.0807664441323,71.65307664817315,399.4827983447579,70.68765761370008C392.8848302453835,69.72223857922701,386.41746179182996,69.36170896311597,381.62488554053647,68.82174450334524C376.832309289243,68.28178004357451,373.71452524020964,67.56238074014409,362.34120642566495,61.558383096178034C350.9678876111202,55.55438545221197,331.3390340310641,44.26578946771028,317.33570502053334,37.9711713411998C303.33237601000263,31.676553214689317,294.9545715689972,30.375912946170057,279.50394616531304,27.71997841068197C264.05332076162887,25.06404387519389,241.52987439526598,21.052815072736987,214.37361293511677,17.657447309660554C187.2173514749676,14.262079546584124,155.4282749210321,11.48257282288816,139.5337366440644,10.09281946104018L123.63919836709665,8.703066099192199" />
  </g>
  
  <g class="axis y" stroke="black" fill="none" stroke-dasharray="4 6">
    <path d="M 0,285 h900" /><path d="M 0,190 h900" /><path d="M 0,95 h900" />
  </g>
  <g
    class="axis x"
    stroke="black" fill="none"
    transform="translate(0, 380)">
  
  <path d="M0,0 h900" />
  <g transform="translate(92, 0)">
      <text text-anchor="middle"
      fill="black"
      stroke="none"
      transform="translate(0, 12)">Mar</text>
      <path d="M0,0 v-5" />
    </g><g transform="translate(194, 0)">
      <text text-anchor="middle"
      fill="black"
      stroke="none"
      transform="translate(0, 12)">Apr</text>
      <path d="M0,0 v-5" />
    </g><g transform="translate(293, 0)">
      <text text-anchor="middle"
      fill="black"
      stroke="none"
      transform="translate(0, 12)">May</text>
      <path d="M0,0 v-5" />
    </g><g transform="translate(395, 0)">
      <text text-anchor="middle"
      fill="black"
      stroke="none"
      transform="translate(0, 12)">Jun</text>
      <path d="M0,0 v-5" />
    </g><g transform="translate(494, 0)">
      <text text-anchor="middle"
      fill="black"
      stroke="none"
      transform="translate(0, 12)">Jul</text>
      <path d="M0,0 v-5" />
    </g><g transform="translate(596, 0)">
      <text text-anchor="middle"
      fill="black"
      stroke="none"
      transform="translate(0, 12)">Aug</text>
      <path d="M0,0 v-5" />
    </g><g transform="translate(698, 0)">
      <text text-anchor="middle"
      fill="black"
      stroke="none"
      transform="translate(0, 12)">Sep</text>
      <path d="M0,0 v-5" />
    </g><g transform="translate(796, 0)">
      <text text-anchor="middle"
      fill="black"
      stroke="none"
      transform="translate(0, 12)">Oct</text>
      <path d="M0,0 v-5" />
    </g><g transform="translate(898, 0)">
      <text text-anchor="middle"
      fill="black"
      stroke="none"
      transform="translate(0, 12)">Nov</text>
      <path d="M0,0 v-5" />
    </g>
  
  </g>
</svg>