<svg xmlns="http://www.w3.org/2000/svg"
  viewBox="0 0 600 400"
  width="600"
  height="400">
  <style>
    text {
      font-family: "Courier New", Courier, monospace;
      font-size: 12px;
    }
  </style>
  <g class="lines" fill="none">
    <path stroke="darkorange" d="M596.9772937238632,175.3846153846154L589.8872570664076,183.7362637362637L563.3058982786804,212.96703296703296L561.6361800383137,212.96703296703296L561.6358212567291,212.96703296703296L558.9868599356205,215.33333333333331L546.084971643218,215.33333333333331L543.5901838944771,217.75280898876406L530.5072390381157,222.02247191011236L530.1075563528352,222.02247191011236L528.2498878166332,226.2921348314607L519.0897582976173,232.22222222222223L519.020897860624,240.66666666666666L519.0199752794064,244.88888888888886L519.0193089707492,249.11111111111111L483.4356589339882,261.77777777777777L470.5436883896752,266L450.42355027782327,266L435.3774550993779,266L403.9476244859536,268.47826086956525L397.1720598874283,276.7391304347826L388.5086890995919,276.7391304347826L380.1253985930731,289.1304347826087L379.58702119807623,289.1304347826087L359.55391324775366,291.06382978723406L350.9893355319714,291.06382978723406L342.2375250835231,299.1489361702128L333.66761689848335,299.1489361702128L326.64531307875524,299.1489361702128L315.8354545790878,299.1489361702128L300.4322948421651,299.1489361702128L286.8789873283506,303.1914893617021L273.94593629259725,303.1914893617021L268.9669704791183,306.4516129032258L224.78001994269073,339.13978494623655L207.31035516005397,346.5934065934066L156.24976451621626,359.1208791208791L83.18656004047288,368.4848484848485" />
    <path stroke="orange" d="M596.9772937238632,174.49178089983508L589.8872570664076,180.08330840825516L563.3058982786804,201.42506273456064L561.6361800383137,201.42327353802014L561.6358212567291,201.92908950857773L558.9868599356205,202.8213143713244L546.084971643218,218.89457016693765L543.5901838944771,219.26620931677775L530.5072390381157,224.18485539655353L530.1075563528352,224.36423897547127L528.2498878166332,225.51520836124885L519.0897582976173,230.25972715938298L519.020897860624,231.6162435483025L519.0199752794064,232.665859661865L519.0193089707492,233.85075349512803L483.4356589339882,239.85312883535312L470.5436883896752,247.16092889866448L450.42355027782327,247.1631694077615L435.3774550993779,247.1311873966741L403.9476244859536,247.8446222884637L397.1720598874283,254.5861057058565L388.5086890995919,254.63311842471853L380.1253985930731,272.8912416394586L379.58702119807623,272.62703819189295L359.55391324775366,272.705034037271L350.9893355319714,274.1999427280537L342.2375250835231,298.3817524533633L333.66761689848335,299.35345942997736L326.64531307875524,299.9601077091852L315.8354545790878,299.9601077091852L300.4322948421651,299.9409452746244L286.8789873283506,304.56925458338776L273.94593629259725,304.927756233125L268.9669704791183,306.5528567792836L224.78001994269073,345.4810044351055L207.31035516005397,349.15754368157764L156.24976451621626,362.40086598900615L83.18656004047288,371.2969339008078" />
    
    <path stroke="darkblue" d="M596.9772937238632,204.6153846153846L589.8872570664076,196.2637362637363L563.3058982786804,167.03296703296704L561.6361800383137,167.03296703296704L561.6358212567291,167.03296703296704L558.9868599356205,164.66666666666669L546.084971643218,164.66666666666669L543.5901838944771,162.24719101123594L530.5072390381157,157.97752808988764L530.1075563528352,157.97752808988764L528.2498878166332,153.7078651685393L519.0897582976173,147.77777777777777L519.020897860624,139.33333333333334L519.0199752794064,135.11111111111114L519.0193089707492,130.88888888888889L483.4356589339882,118.22222222222223L470.5436883896752,114.00000000000001L450.42355027782327,114.00000000000001L435.3774550993779,114.00000000000001L403.9476244859536,111.52173913043477L397.1720598874283,103.26086956521739L388.5086890995919,103.26086956521739L380.1253985930731,90.86956521739128L379.58702119807623,90.86956521739128L359.55391324775366,88.93617021276596L350.9893355319714,88.93617021276596L342.2375250835231,80.85106382978722L333.66761689848335,80.85106382978722L326.64531307875524,80.85106382978722L315.8354545790878,80.85106382978722L300.4322948421651,80.85106382978722L286.8789873283506,76.80851063829788L273.94593629259725,76.80851063829788L268.9669704791183,73.5483870967742L224.78001994269073,40.86021505376345L207.31035516005397,33.406593406593416L156.24976451621626,20.87912087912089L83.18656004047288,11.515151515151505" />
    <path stroke="blue" d="M596.9772937238632,205.50821910016492L589.8872570664076,199.91669159174484L563.3058982786804,178.57493726543936L561.6361800383137,178.57672646197986L561.6358212567291,178.07091049142227L558.9868599356205,177.1786856286756L546.084971643218,161.10542983306235L543.5901838944771,160.73379068322225L530.5072390381157,155.81514460344647L530.1075563528352,155.63576102452873L528.2498878166332,154.48479163875115L519.0897582976173,149.74027284061702L519.020897860624,148.3837564516975L519.0199752794064,147.334140338135L519.0193089707492,146.14924650487197L483.4356589339882,140.14687116464688L470.5436883896752,132.83907110133552L450.42355027782327,132.8368305922385L435.3774550993779,132.8688126033259L403.9476244859536,132.1553777115363L397.1720598874283,125.4138942941435L388.5086890995919,125.36688157528147L380.1253985930731,107.1087583605414L379.58702119807623,107.37296180810708L359.55391324775366,107.294965962729L350.9893355319714,105.80005727194629L342.2375250835231,81.61824754663672L333.66761689848335,80.64654057002267L326.64531307875524,80.0398922908148L315.8354545790878,80.0398922908148L300.4322948421651,80.05905472537557L286.8789873283506,75.43074541661223L273.94593629259725,75.07224376687499L268.9669704791183,73.44714322071641L224.78001994269073,34.51899556489451L207.31035516005397,30.84245631842237L156.24976451621626,17.599134010993865L83.18656004047288,8.703066099192199" />
  </g>
  
  <g class="axis y" stroke="black" fill="none" stroke-dasharray="4 6">
    <path d="M 0,285 h600" /><path d="M 0,190 h600" /><path d="M 0,95 h600" />
  </g>
  <g
    class="axis x"
    stroke="black" fill="none"
    transform="translate(0, 380)">
  
  <path d="M0,0 h600" />
  <g transform="translate(61.99745782446499, 0)">
      <text text-anchor="middle"
      fill="black"
      stroke="none"
      transform="translate(0, 12)">Mar</text>
      <path d="M0,0 v-5" />
    </g><g transform="translate(130.54524229407434, 0)">
      <text text-anchor="middle"
      fill="black"
      stroke="none"
      transform="translate(0, 12)">Apr</text>
      <path d="M0,0 v-5" />
    </g><g transform="translate(196.97108996314395, 0)">
      <text text-anchor="middle"
      fill="black"
      stroke="none"
      transform="translate(0, 12)">May</text>
      <path d="M0,0 v-5" />
    </g><g transform="translate(265.6111325545159, 0)">
      <text text-anchor="middle"
      fill="black"
      stroke="none"
      transform="translate(0, 12)">Jun</text>
      <path d="M0,0 v-5" />
    </g><g transform="translate(332.03698022358554, 0)">
      <text text-anchor="middle"
      fill="black"
      stroke="none"
      transform="translate(0, 12)">Jul</text>
      <path d="M0,0 v-5" />
    </g><g transform="translate(400.67702281495747, 0)">
      <text text-anchor="middle"
      fill="black"
      stroke="none"
      transform="translate(0, 12)">Aug</text>
      <path d="M0,0 v-5" />
    </g><g transform="translate(469.3170654063294, 0)">
      <text text-anchor="middle"
      fill="black"
      stroke="none"
      transform="translate(0, 12)">Sep</text>
      <path d="M0,0 v-5" />
    </g><g transform="translate(535.7429130753991, 0)">
      <text text-anchor="middle"
      fill="black"
      stroke="none"
      transform="translate(0, 12)">Oct</text>
      <path d="M0,0 v-5" />
    </g>
  
  </g>
</svg>