<svg xmlns="http://www.w3.org/2000/svg"
  viewBox="0 0 900 400"
  width="900"
  height="400">
  <style>
    text {
      font-family: "Courier New", Courier, monospace;
      font-size: 12px;
    }
  </style>
  <g class="lines" fill="none">
    <path stroke="darkblue" d="M813.1501085776331,179.52755905511813L812.323742958134,179.63492115138502C811.4973773386347,179.74228324765193,809.8446460996365,179.95700744018572,808.2402426519881,180.17173163271949C806.6358392043398,180.38645582525328,805.0797635480416,180.60118001778707,803.0457167100566,181.23978872475652C801.0116698720717,181.87839743172603,798.4996518524002,182.9408906531312,795.2831555708757,183.4517106461899C792.0666592893513,183.96253063924863,788.1456847459737,183.92167740396087,785.390230018014,184.00861288258386C782.6347752900543,184.09554836120688,781.044840377513,184.31027255374067,778.9161087539687,184.82513410891184C776.7873771304247,185.33999566408298,774.1198487958782,186.1549945818915,767.4008662562104,190.8108817780883C760.6818837165425,195.46676897428506,749.9114469717534,203.96354444887015,743.813606815817,208.31929428242958C737.7157666598806,212.67504411598898,736.2905230927969,212.88976830852278,735.1783959299838,213.10449250105657C734.066268767171,213.31921669359033,733.2672580086287,213.53394088612413,732.4628347681827,213.74866507865792C731.6584115277366,213.9633892711917,730.848575805387,214.17811346372548,729.5528424513868,214.7280635414851C728.2571090973867,215.2780136192448,726.4754781117363,216.1631895822304,722.7652586918657,216.71313965999002C719.0550392719952,217.2630897377497,713.4162314179047,217.47781393028347,709.7294500635426,218.0352971740033C706.0426687091807,218.5927804177231,704.3079138545471,219.4930227126289,703.0277113433808,220.05050595634873C701.7475088322147,220.60798920006854,700.9218586645156,220.8227133926023,697.6690564542,221.6423064989938C694.4162542438844,222.46189960538524,688.7362999909519,223.88636162563435,685.42191758022,224.70595473202582C682.1075351694881,225.5255478384173,681.1587246009567,225.7402720309511,679.9364442984405,226.55986513734254C678.7141639959243,227.379458243734,677.2184139594233,228.80392026398317,674.3529647168962,230.46360908406587C671.4875154743692,232.12329790414853,667.2523670258159,234.01821352406475,664.7224387862748,236.26932972658605C662.1925105467336,238.52044592910735,661.3678025162044,241.12776271423374,660.5558373715781,243.13693135121196C659.743872226952,245.14609998819017,658.9446499682286,246.55712047702028,658.1454757777284,247.96814096585035C657.3463015872281,249.37916145468043,656.5471754649508,250.79018194351048,649.0738631094124,253.39749872863692C641.6005507538742,256.0048155137633,627.453052165075,259.80842859518594,617.561759183858,262.41574538031233C607.6704662026413,265.0230621654387,602.0353788290066,266.4340826542688,595.0445272271782,267.2469549949507C588.0536756253496,268.05982733563263,579.707059795327,268.27455152816646,572.312165938703,268.4892757207002C564.917272082079,268.703999913234,558.4741001988533,268.9187241057678,548.9578835612847,269.48453525482336C539.4416669237161,270.05034640387885,526.8524055318043,270.9672445094561,518.8874658124404,272.7033455135841C510.9225260930766,274.4394465177121,507.58190804626065,276.9947504203908,503.88720024193486,278.37976446799706C500.19249243760896,279.76477851560327,496.14369487577324,279.9795027081371,492.1474310747951,281.94966168327954C488.1511672738172,283.919820658422,484.2074372336969,287.6454144161732,481.7351524071126,289.61557339131565C479.2628675805284,291.5857323664581,478.2620279674802,291.8004565589919,473.60462421445726,292.28907837718094C468.9472204614344,292.77770019537,460.63325256843683,293.5402196392143,454.47040014096586,294.0288414574033C448.30754771349484,294.51746327559243,444.29581075155056,294.73218746812614,440.2489551459218,296.092301731582C436.202099540293,297.4524159950377,432.12012529097984,299.95792032941546,428.0722698663138,301.31803459287124C424.0244144416477,302.678148856327,420.0106778416289,302.89287304886085,416.287220433159,303.1075972413946C412.5637630246891,303.3223214339284,409.13058480776823,303.5370456264622,404.9869870966382,303.75176981899597C400.84338938550826,303.96649401152973,395.9893721801689,304.18121820406355,390.27380418085585,304.3959423965973C384.55823618154267,304.6106665891311,377.98111738825554,304.8253907816649,371.75096944866004,305.61281000965965C365.52082150906466,306.4002292376544,359.6376444231608,307.7603435011102,353.8708068572533,308.54776272910493C348.1039692913459,309.3351819570997,342.45347124543486,309.5499061496335,338.2948954760348,310.22648117721644C334.13631970663477,310.90305620479944,331.46966621374577,312.0414820674316,321.4488966672013,317.34888146777445C311.4281271206569,322.6562808681173,294.053241520457,332.13265380617077,281.6896315943432,338.0341321048135C269.3260216682295,343.9356104034562,261.9736874162019,346.2621940626882,248.32081084151775,349.3075732632963C234.66793426683364,352.35295246390456,214.71451536949294,356.1171272058889,190.63413670242736,359.43313899971025C166.55375803536177,362.74915079353167,138.3464195985712,365.61699963919006,124.24275038017595,367.0509240620193L110.13908116178068,368.4848484848485" />
    <path stroke="blue" d="M813.1501085776331,161.7556147886426L812.323742958134,161.87467235631996C811.4973773386347,161.9937299239973,809.8446460996365,162.23184505935205,808.2402426519881,162.51094388155843C806.6358392043398,162.7900427037648,805.0797635480416,163.11012521282285,803.0457167100566,164.0823844296211C801.0116698720717,165.05464364641932,798.4996518524002,166.67907957095775,795.2831555708757,168.3044940359897C792.0666592893513,169.92990850102169,788.1456847459737,171.55630150654716,785.390230018014,172.48536844387374C782.6347752900543,173.41443538120026,781.044840377513,173.6461762503278,778.9161087539687,175.0524316319321C776.7873771304247,176.4586870135364,774.1198487958782,179.03945690761745,767.4008662562104,183.4723146185619C760.6818837165425,187.90517232950643,749.9114469717534,194.19011785731436,743.813606815817,197.4513947193858C737.7157666598806,200.71267158145724,736.2905230927969,200.95027977779216,735.1783959299838,201.25979870613264C734.066268767171,201.56931763447315,733.2672580086287,201.9507472948192,732.4628347681827,202.26051969266962C731.6584115277366,202.57029209051998,730.848575805387,202.80840722587473,729.5528424513868,203.1729208834519C728.2571090973867,203.5374345410291,726.4754781117363,204.02834672082872,722.7652586918657,206.66990494945108C719.0550392719952,209.3114631780735,713.4162314179047,214.10366745551866,709.7294500635426,216.67147604147928C706.0426687091807,219.2392846274399,704.3079138545471,219.58269752191597,703.0277113433808,219.8734615368314C701.7475088322147,220.16422555174677,700.9218586645156,220.4023406871015,697.6690564542,221.33726401709114C694.4162542438844,222.2721873470808,688.7362999909519,223.90391887170532,685.42191758022,224.86425487537497C682.1075351694881,225.82459087904462,681.1587246009567,226.11353136175936,679.9364442984405,226.54011316711262C678.7141639959243,226.9666949724659,677.2184139594233,227.53091810045757,674.3529647168962,228.6042273951998C671.4875154743692,229.67753668994203,667.2523670258159,231.25993215143478,664.7224387862748,232.36236060495548C662.1925105467336,233.4647890584761,661.3678025162044,234.08725050402472,660.5558373715781,234.66623441056439C659.743872226952,235.24521831710408,658.9446499682286,235.78072468463483,658.1454757777284,236.33539539578987C657.3463015872281,236.8900661069449,656.5471754649508,237.46390116172415,649.0738631094124,238.72021276332302C641.6005507538742,239.97652436492194,627.453052165075,241.9153125133404,617.561759183858,244.03903583086284C607.6704662026413,246.16275914838522,602.0353788290066,248.47141763501153,595.0445272271782,249.7451218514574C588.0536756253496,251.01882606790335,579.707059795327,251.2575760141689,572.312165938703,251.491477770075C564.917272082079,251.72537952598108,558.4741001988533,251.9544330915277,548.9578835612847,252.28908738498194C539.4416669237161,252.62374167843618,526.8524055318043,253.06399669979794,518.8874658124404,254.35822526228685C510.9225260930766,255.65245382477576,507.58190804626065,257.8006559283918,503.88720024193486,259.0004746830493C500.19249243760896,260.20029343770676,496.14369487577324,260.45172884340576,492.1474310747951,263.2830715693541C488.1511672738172,266.1144142953024,484.2074372336969,271.5256643415002,481.7351524071126,274.312918110538C479.2628675805284,277.1001718795758,478.2620279674802,277.2634293714536,473.60462421445726,277.4751650964984C468.9472204614344,277.68690082154325,460.63325256843683,277.94711477975505,454.47040014096586,278.4080580577326C448.30754771349484,278.8690013357101,444.29581075155056,279.5306739334533,440.2489551459218,283.4063241777544C436.202099540293,287.28197442205555,432.12012529097984,294.37160231291466,428.0722698663138,298.17313231437527C424.0244144416477,301.9746623158358,420.0106778416289,302.48809442789786,416.287220433159,302.94980989116067C412.5637630246891,303.41152535442353,409.13058480776823,303.82152416888715,404.9869870966382,304.14558114379633C400.84338938550826,304.4696381187055,395.9893721801689,304.7077532540602,390.27380418085585,304.9431537111855C384.55823618154267,305.17855416831077,377.98111738825554,305.41123994720664,371.75096944866004,306.30231755640676C365.52082150906466,307.1933951656069,359.6376444231608,308.7428646051112,353.8708068572533,309.6874446262536C348.1039692913459,310.6320246473959,342.45347124543486,310.97171525017615,338.2948954760348,311.4908406966161C334.13631970663477,312.0099661430561,331.46966621374577,312.7085264331558,321.4488966672013,318.69168506379106C311.4281271206569,324.67484369442633,294.053241520457,335.94260066559724,281.6896315943432,342.216379778777C269.3260216682295,348.49015889195675,261.9736874162019,349.76996014714524,248.32081084151775,352.4050556693026C234.66793426683364,355.0401511914599,214.71451536949294,359.03054098058607,190.63413670242736,362.4050697303317C166.55375803536177,365.77959848007737,138.3464195985712,368.5382661904426,124.24275038017595,369.9176000456252L110.13908116178068,371.2969339008078" />
    
    <path stroke="darkorange" d="M813.1501085776331,200.47244094488187L812.323742958134,200.36507884861498C811.4973773386347,200.25771675234807,809.8446460996365,200.04299255981428,808.2402426519881,199.82826836728051C806.6358392043398,199.61354417474672,805.0797635480416,199.3988199822129,803.0457167100566,198.76021127524345C801.0116698720717,198.12160256827397,798.4996518524002,197.0591093468688,795.2831555708757,196.54828935381008C792.0666592893513,196.03746936075137,788.1456847459737,196.0783225960391,785.390230018014,195.9913871174161C782.6347752900543,195.90445163879306,781.044840377513,195.6897274462593,778.9161087539687,195.17486589108816C776.7873771304247,194.66000433591702,774.1198487958782,193.84500541810849,767.4008662562104,189.1891182219117C760.6818837165425,184.53323102571494,749.9114469717534,176.03645555112985,743.813606815817,171.68070571757042C737.7157666598806,167.32495588401102,736.2905230927969,167.11023169147722,735.1783959299838,166.89550749894343C734.066268767171,166.68078330640967,733.2672580086287,166.46605911387587,732.4628347681827,166.25133492134208C731.6584115277366,166.0366107288083,730.848575805387,165.82188653627452,729.5528424513868,165.27193645851483C728.2571090973867,164.72198638075517,726.4754781117363,163.8368104177696,722.7652586918657,163.28686034000995C719.0550392719952,162.73691026225026,713.4162314179047,162.52218606971647,709.7294500635426,161.96470282599668C706.0426687091807,161.40721958227687,704.3079138545471,160.50697728737103,703.0277113433808,159.94949404365124C701.7475088322147,159.39201079993143,700.9218586645156,159.17728660739763,697.6690564542,158.3576935010062C694.4162542438844,157.53810039461473,688.7362999909519,156.1136383743656,685.42191758022,155.29404526797416C682.1075351694881,154.47445216158266,681.1587246009567,154.2597279690489,679.9364442984405,153.4401348626574C678.7141639959243,152.62054175626596,677.2184139594233,151.19607973601683,674.3529647168962,149.53639091593413C671.4875154743692,147.87670209585147,667.2523670258159,145.98178647593522,664.7224387862748,143.73067027341392C662.1925105467336,141.47955407089265,661.3678025162044,138.87223728576626,660.5558373715781,136.86306864878804C659.743872226952,134.85390001180983,658.9446499682286,133.44287952297975,658.1454757777284,132.03185903414968C657.3463015872281,130.62083854531957,656.5471754649508,129.2098180564895,649.0738631094124,126.60250127136312C641.6005507538742,123.99518448623674,627.453052165075,120.19157140481407,617.561759183858,117.58425461968768C607.6704662026413,114.97693783456133,602.0353788290066,113.56591734573124,595.0445272271782,112.75304500504932C588.0536756253496,111.94017266436738,579.707059795327,111.7254484718336,572.312165938703,111.5107242792998C564.917272082079,111.29600008676603,558.4741001988533,111.08127589423225,548.9578835612847,110.5154647451767C539.4416669237161,109.9496535961212,526.8524055318043,109.03275549054392,518.8874658124404,107.2966544864159C510.9225260930766,105.56055348228794,507.58190804626065,103.00524957960924,503.88720024193486,101.62023553200298C500.19249243760896,100.23522148439675,496.14369487577324,100.02049729186297,492.1474310747951,98.05033831672047C488.1511672738172,96.08017934157799,484.2074372336969,92.3545855838268,481.7351524071126,90.38442660868434C479.2628675805284,88.41426763354184,478.2620279674802,88.19954344100806,473.60462421445726,87.71092162281901C468.9472204614344,87.22229980462998,460.63325256843683,86.4597803607857,454.47040014096586,85.97115854259664C448.30754771349484,85.48253672440761,444.29581075155056,85.26781253187382,440.2489551459218,83.90769826841805C436.202099540293,82.54758400496227,432.12012529097984,80.04207967058451,428.0722698663138,78.68196540712874C424.0244144416477,77.32185114367297,420.0106778416289,77.1071269511392,416.287220433159,76.8924027586054C412.5637630246891,76.67767856607162,409.13058480776823,76.46295437353784,404.9869870966382,76.24823018100405C400.84338938550826,76.03350598847027,395.9893721801689,75.81878179593649,390.27380418085585,75.6040576034027C384.55823618154267,75.38933341086891,377.98111738825554,75.17460921833514,371.75096944866004,74.38718999034035C365.52082150906466,73.59977076234559,359.6376444231608,72.23965649888981,353.8708068572533,71.45223727089503C348.1039692913459,70.66481804290027,342.45347124543486,70.45009385036649,338.2948954760348,69.7735188227835C334.13631970663477,69.09694379520053,331.46966621374577,67.95851793256837,321.4488966672013,62.65111853222553C311.4281271206569,57.343719131882715,294.053241520457,47.86734619382921,281.6896315943432,41.965867895186484C269.3260216682295,36.064389596543755,261.9736874162019,33.7378059373118,248.32081084151775,30.69242673670365C234.66793426683364,27.6470475360955,214.71451536949294,23.882872794111165,190.63413670242736,20.566861000289776C166.55375803536177,17.250849206468388,138.3464195985712,14.383000360809945,124.24275038017595,12.949075937980723L110.13908116178068,11.515151515151503" />
    <path stroke="orange" d="M813.1501085776331,218.24438521135738L812.323742958134,218.12532764368004C811.4973773386347,218.00627007600266,809.8446460996365,217.76815494064795,808.2402426519881,217.48905611844157C806.6358392043398,217.2099572962352,805.0797635480416,216.88987478717715,803.0457167100566,215.9176155703789C801.0116698720717,214.94535635358068,798.4996518524002,213.32092042904227,795.2831555708757,211.6955059640103C792.0666592893513,210.07009149897831,788.1456847459737,208.44369849345284,785.390230018014,207.51463155612632C782.6347752900543,206.58556461879974,781.044840377513,206.3538237496722,778.9161087539687,204.9475683680679C776.7873771304247,203.5413129864636,774.1198487958782,200.96054309238255,767.4008662562104,196.5276853814381C760.6818837165425,192.09482767049357,749.9114469717534,185.80988214268564,743.813606815817,182.5486052806142C737.7157666598806,179.28732841854276,736.2905230927969,179.0497202222078,735.1783959299838,178.74020129386733C734.066268767171,178.43068236552685,733.2672580086287,178.0492527051808,732.4628347681827,177.7394803073304C731.6584115277366,177.42970790948002,730.848575805387,177.19159277412527,729.5528424513868,176.8270791165481C728.2571090973867,176.46256545897094,726.4754781117363,175.97165327917128,722.7652586918657,173.33009505054892C719.0550392719952,170.68853682192653,713.4162314179047,165.8963325444814,709.7294500635426,163.32852395852078C706.0426687091807,160.76071537256013,704.3079138545471,160.41730247808403,703.0277113433808,160.1265384631686C701.7475088322147,159.8357744482532,700.9218586645156,159.59765931289846,697.6690564542,158.6627359829088C694.4162542438844,157.72781265291917,688.7362999909519,156.09608112829463,685.42191758022,155.135745124625C682.1075351694881,154.17540912095535,681.1587246009567,153.8864686382406,679.9364442984405,153.45988683288735C678.7141639959243,153.0333050275341,677.2184139594233,152.4690818995424,674.3529647168962,151.39577260480016C671.4875154743692,150.32246331005797,667.2523670258159,148.74006784856522,664.7224387862748,147.63763939504454C662.1925105467336,146.5352109415239,661.3678025162044,145.91274949597528,660.5558373715781,145.33376558943561C659.743872226952,144.75478168289592,658.9446499682286,144.21927531536514,658.1454757777284,143.66460460421013C657.3463015872281,143.1099338930551,656.5471754649508,142.53609883827585,649.0738631094124,141.27978723667698C641.6005507538742,140.02347563507809,627.453052165075,138.0846874866596,617.561759183858,135.96096416913718C607.6704662026413,133.83724085161478,602.0353788290066,131.5285823649885,595.0445272271782,130.2548781485426C588.0536756253496,128.98117393209665,579.707059795327,128.7424239858311,572.312165938703,128.508522229925C564.917272082079,128.27462047401892,558.4741001988533,128.04556690847227,548.9578835612847,127.71091261501806C539.4416669237161,127.37625832156384,526.8524055318043,126.93600330020206,518.8874658124404,125.64177473771315C510.9225260930766,124.34754617522424,507.58190804626065,122.19934407160822,503.88720024193486,120.99952531695074C500.19249243760896,119.79970656229322,496.14369487577324,119.54827115659425,492.1474310747951,116.71692843064586C488.1511672738172,113.88558570469752,484.2074372336969,108.47433565849978,481.7351524071126,105.687081889462C479.2628675805284,102.89982812042422,478.2620279674802,102.73657062854643,473.60462421445726,102.5248349035016C468.9472204614344,102.3130991784568,460.63325256843683,102.05288522024493,454.47040014096586,101.59194194226741C448.30754771349484,101.1309986642899,444.29581075155056,100.46932606654674,440.2489551459218,96.5936758222456C436.202099540293,92.71802557794446,432.12012529097984,85.62839768708534,428.0722698663138,81.82686768562476C424.0244144416477,78.02533768416419,420.0106778416289,77.51190557210214,416.287220433159,77.0501901088393C412.5637630246891,76.58847464557647,409.13058480776823,76.17847583111283,404.9869870966382,75.85441885620367C400.84338938550826,75.53036188129448,395.9893721801689,75.29224674593975,390.27380418085585,75.05684628881447C384.55823618154267,74.82144583168916,377.98111738825554,74.58876005279332,371.75096944866004,73.69768244359322C365.52082150906466,72.80660483439311,359.6376444231608,71.25713539488876,353.8708068572533,70.31255537374643C348.1039692913459,69.36797535260413,342.45347124543486,69.02828474982385,338.2948954760348,68.50915930338388C334.13631970663477,67.99003385694391,331.46966621374577,67.29147356684425,321.4488966672013,61.308314936208944C311.4281271206569,55.32515630557364,294.053241520457,44.0573993344027,281.6896315943432,37.78362022122298C269.3260216682295,31.509841108043258,261.9736874162019,30.23003985285475,248.32081084151775,27.59494433069743C234.66793426683364,24.9598488085401,214.71451536949294,20.969459019413957,190.63413670242736,17.594930269668282C166.55375803536177,14.220401519922609,138.3464195985712,11.461733809557403,124.24275038017595,10.082399954374802L110.13908116178068,8.703066099192199" />
  </g>
  
  <g class="axis y" stroke="black" fill="none" stroke-dasharray="4 6">
    <path d="M 0,285 h900" /><path d="M 0,190 h900" /><path d="M 0,95 h900" />
  </g>
  <g
    class="axis x"
    stroke="black" fill="none"
    transform="translate(0, 380)">
  
  <path d="M0,0 h900" />
  <g transform="translate(82, 0)">
      <text text-anchor="middle"
      fill="black"
      stroke="none"
      transform="translate(0, 12)">Mar</text>
      <path d="M0,0 v-5" />
    </g><g transform="translate(173, 0)">
      <text text-anchor="middle"
      fill="black"
      stroke="none"
      transform="translate(0, 12)">Apr</text>
      <path d="M0,0 v-5" />
    </g><g transform="translate(261, 0)">
      <text text-anchor="middle"
      fill="black"
      stroke="none"
      transform="translate(0, 12)">May</text>
      <path d="M0,0 v-5" />
    </g><g transform="translate(352, 0)">
      <text text-anchor="middle"
      fill="black"
      stroke="none"
      transform="translate(0, 12)">Jun</text>
      <path d="M0,0 v-5" />
    </g><g transform="translate(440, 0)">
      <text text-anchor="middle"
      fill="black"
      stroke="none"
      transform="translate(0, 12)">Jul</text>
      <path d="M0,0 v-5" />
    </g><g transform="translate(530, 0)">
      <text text-anchor="middle"
      fill="black"
      stroke="none"
      transform="translate(0, 12)">Aug</text>
      <path d="M0,0 v-5" />
    </g><g transform="translate(621, 0)">
      <text text-anchor="middle"
      fill="black"
      stroke="none"
      transform="translate(0, 12)">Sep</text>
      <path d="M0,0 v-5" />
    </g><g transform="translate(709, 0)">
      <text text-anchor="middle"
      fill="black"
      stroke="none"
      transform="translate(0, 12)">Oct</text>
      <path d="M0,0 v-5" />
    </g><g transform="translate(800, 0)">
      <text text-anchor="middle"
      fill="black"
      stroke="none"
      transform="translate(0, 12)">Nov</text>
      <path d="M0,0 v-5" />
    </g><g transform="translate(888, 0)">
      <text text-anchor="middle"
      fill="black"
      stroke="none"
      transform="translate(0, 12)">Dec</text>
      <path d="M0,0 v-5" />
    </g>
  
  </g>
</svg>