<svg xmlns="http://www.w3.org/2000/svg"
  viewBox="0 0 900 400"
  width="900"
  height="400">
  <style>
    text {
      font-family: "Courier New", Courier, monospace;
      font-size: 12px;
    }
  </style>
  <g class="lines" fill="none">
    <path stroke="darkorange" d="M887.3324455958287,175.3846153846154L876.7939885510385,183.7362637362637L837.2841071060595,212.96703296703296L834.8022787597272,212.96703296703296L834.8017454755567,212.96703296703296L830.8643941691346,215.33333333333331L811.6873430288996,215.33333333333331L807.9791515489122,217.75280898876406L788.5329823611769,222.02247191011236L787.9389037951732,222.02247191011236L785.1777107269207,226.2921348314607L771.5623182931799,232.22222222222223L771.4599658241589,240.66666666666666L771.458594522006,244.88888888888886L771.4576041371179,249.11111111111111L718.566937201718,261.77777777777777L699.4046275596263,266L669.4985464670788,266L647.1343986649462,266L600.4178673059283,268.47826086956525L590.3468338366337,276.7391304347826L577.4698114287593,276.7391304347826L565.0090934994599,289.1304347826087L564.2088625098085,289.1304347826087L534.4321409203482,291.06382978723406L521.7019621180102,291.06382978723406L508.6934851620928,299.1489361702128L495.9553832806493,299.1489361702128L485.51760266891546,299.1489361702128L469.4500934354879,299.1489361702128L446.555213608469,299.1489361702128L426.4099088731297,303.1914893617021L407.18653819350897,303.1914893617021L399.78592520829227,306.4516129032258L334.10752287186034,339.13978494623655L308.14104049759663,346.5934065934066L232.24582765467486,359.1208791208791L123.64646785973136,368.4848484848485" />
    <path stroke="orange" d="M887.3324455958287,174.49178089983508L876.7939885510385,180.08330840825516L837.2841071060595,201.42506273456064L834.8022787597272,201.42327353802014L834.8017454755567,201.92908950857773L830.8643941691346,202.8213143713244L811.6873430288996,218.89457016693765L807.9791515489122,219.26620931677775L788.5329823611769,224.18485539655353L787.9389037951732,224.36423897547127L785.1777107269207,225.51520836124885L771.5623182931799,230.25972715938298L771.4599658241589,231.6162435483025L771.458594522006,232.665859661865L771.4576041371179,233.85075349512803L718.566937201718,239.85312883535312L699.4046275596263,247.16092889866448L669.4985464670788,247.1631694077615L647.1343986649462,247.1311873966741L600.4178673059283,247.8446222884637L590.3468338366337,254.5861057058565L577.4698114287593,254.63311842471853L565.0090934994599,272.8912416394586L564.2088625098085,272.62703819189295L534.4321409203482,272.705034037271L521.7019621180102,274.1999427280537L508.6934851620928,298.3817524533633L495.9553832806493,299.35345942997736L485.51760266891546,299.9601077091852L469.4500934354879,299.9601077091852L446.555213608469,299.9409452746244L426.4099088731297,304.56925458338776L407.18653819350897,304.927756233125L399.78592520829227,306.5528567792836L334.10752287186034,345.4810044351055L308.14104049759663,349.15754368157764L232.24582765467486,362.40086598900615L123.64646785973136,371.2969339008078" />
    
    <path stroke="darkblue" d="M887.3324455958287,204.6153846153846L876.7939885510385,196.2637362637363L837.2841071060595,167.03296703296704L834.8022787597272,167.03296703296704L834.8017454755567,167.03296703296704L830.8643941691346,164.66666666666669L811.6873430288996,164.66666666666669L807.9791515489122,162.24719101123594L788.5329823611769,157.97752808988764L787.9389037951732,157.97752808988764L785.1777107269207,153.7078651685393L771.5623182931799,147.77777777777777L771.4599658241589,139.33333333333334L771.458594522006,135.11111111111114L771.4576041371179,130.88888888888889L718.566937201718,118.22222222222223L699.4046275596263,114.00000000000001L669.4985464670788,114.00000000000001L647.1343986649462,114.00000000000001L600.4178673059283,111.52173913043477L590.3468338366337,103.26086956521739L577.4698114287593,103.26086956521739L565.0090934994599,90.86956521739128L564.2088625098085,90.86956521739128L534.4321409203482,88.93617021276596L521.7019621180102,88.93617021276596L508.6934851620928,80.85106382978722L495.9553832806493,80.85106382978722L485.51760266891546,80.85106382978722L469.4500934354879,80.85106382978722L446.555213608469,80.85106382978722L426.4099088731297,76.80851063829788L407.18653819350897,76.80851063829788L399.78592520829227,73.5483870967742L334.10752287186034,40.86021505376345L308.14104049759663,33.406593406593416L232.24582765467486,20.87912087912089L123.64646785973136,11.515151515151505" />
    <path stroke="blue" d="M887.3324455958287,205.50821910016492L876.7939885510385,199.91669159174484L837.2841071060595,178.57493726543936L834.8022787597272,178.57672646197986L834.8017454755567,178.07091049142227L830.8643941691346,177.1786856286756L811.6873430288996,161.10542983306235L807.9791515489122,160.73379068322225L788.5329823611769,155.81514460344647L787.9389037951732,155.63576102452873L785.1777107269207,154.48479163875115L771.5623182931799,149.74027284061702L771.4599658241589,148.3837564516975L771.458594522006,147.334140338135L771.4576041371179,146.14924650487197L718.566937201718,140.14687116464688L699.4046275596263,132.83907110133552L669.4985464670788,132.8368305922385L647.1343986649462,132.8688126033259L600.4178673059283,132.1553777115363L590.3468338366337,125.4138942941435L577.4698114287593,125.36688157528147L565.0090934994599,107.1087583605414L564.2088625098085,107.37296180810708L534.4321409203482,107.294965962729L521.7019621180102,105.80005727194629L508.6934851620928,81.61824754663672L495.9553832806493,80.64654057002267L485.51760266891546,80.0398922908148L469.4500934354879,80.0398922908148L446.555213608469,80.05905472537557L426.4099088731297,75.43074541661223L407.18653819350897,75.07224376687499L399.78592520829227,73.44714322071641L334.10752287186034,34.51899556489451L308.14104049759663,30.84245631842237L232.24582765467486,17.599134010993865L123.64646785973136,8.703066099192199" />
  </g>
  
  <g class="axis y" stroke="black" fill="none" stroke-dasharray="4 6">
    <path d="M 0,285 h900" /><path d="M 0,190 h900" /><path d="M 0,95 h900" />
  </g>
  <g
    class="axis x"
    stroke="black" fill="none"
    transform="translate(0, 380)">
  
  <path d="M0,0 h900" />
  <g transform="translate(92, 0)">
      <text text-anchor="middle"
      fill="black"
      stroke="none"
      transform="translate(0, 12)">Mar</text>
      <path d="M0,0 v-5" />
    </g><g transform="translate(194, 0)">
      <text text-anchor="middle"
      fill="black"
      stroke="none"
      transform="translate(0, 12)">Apr</text>
      <path d="M0,0 v-5" />
    </g><g transform="translate(293, 0)">
      <text text-anchor="middle"
      fill="black"
      stroke="none"
      transform="translate(0, 12)">May</text>
      <path d="M0,0 v-5" />
    </g><g transform="translate(395, 0)">
      <text text-anchor="middle"
      fill="black"
      stroke="none"
      transform="translate(0, 12)">Jun</text>
      <path d="M0,0 v-5" />
    </g><g transform="translate(494, 0)">
      <text text-anchor="middle"
      fill="black"
      stroke="none"
      transform="translate(0, 12)">Jul</text>
      <path d="M0,0 v-5" />
    </g><g transform="translate(596, 0)">
      <text text-anchor="middle"
      fill="black"
      stroke="none"
      transform="translate(0, 12)">Aug</text>
      <path d="M0,0 v-5" />
    </g><g transform="translate(698, 0)">
      <text text-anchor="middle"
      fill="black"
      stroke="none"
      transform="translate(0, 12)">Sep</text>
      <path d="M0,0 v-5" />
    </g><g transform="translate(796, 0)">
      <text text-anchor="middle"
      fill="black"
      stroke="none"
      transform="translate(0, 12)">Oct</text>
      <path d="M0,0 v-5" />
    </g>
  
  </g>
</svg>