<svg xmlns="http://www.w3.org/2000/svg"
  viewBox="0 0 900 400"
  width="900"
  height="400">
  <style>
    text {
      font-family: "Courier New", Courier, monospace;
      font-size: 12px;
    }
  </style>
  <g class="lines" fill="none">
    <path stroke="darkblue" d="M851.6608306188925,168.88888888888889L850.8764312639637,168.98484848484847C850.092031909035,169.08080808080808,848.5232331991773,169.27272727272725,846.5548962270141,169.7001378615552C844.5865592548511,170.12754845038307,842.2186840203826,170.79045043611973,839.0577359823491,171.21786102494764C835.8967879443156,171.64527161377555,831.9427671027173,171.83719080569472,829.1944270768082,172.02910999761392C826.4460870508992,172.22102918953314,824.9034278406798,172.4129483814523,823.381240886613,173.0287520878072C821.8590539325463,173.6445557941621,820.3573392346321,174.68424401495267,819.1877903777423,175.30004772130758C818.0182415208525,175.91585142766246,817.180858504987,176.10777061958163,814.7274939360087,176.72357432593654C812.2741293670307,177.33937803229142,808.2047832449401,178.379066253082,805.7833167487089,179.41875447387258C803.3618502524778,180.45844269466318,802.5882633821062,181.49813091545374,801.4180415700953,182.11393462180865C800.2478197580841,182.72973832816353,798.6809630044336,182.92165752008273,797.1624340421331,183.1135767120019C795.6439050798323,183.30549590392113,794.1737039088817,183.49741509584032,792.2255315562446,184.1132188021952C790.2773592036074,184.7290225085501,787.8512156692836,185.76871072934068,784.7205938731068,186.25672572178482C781.5899720769299,186.74474071422893,777.7548720189002,186.6810824783266,775.0852917762883,186.745212956335C772.4157115336765,186.80934343434342,770.9116511064826,187.0012626262626,768.8687939682864,187.49331918081916C766.82593683009,187.9853757353757,764.2442829808911,188.7775696525696,757.6111749265709,193.41065184815182C750.9780668722509,198.04373404373405,740.2935046128094,206.5177045177045,734.2815389422207,210.85064935064938C728.269573271632,215.18359418359418,726.930204189896,215.37551337551338,725.9039515124308,215.56743256743258C724.8776988349655,215.75935175935174,724.1645625617708,215.95127095127097,723.4460138066726,216.14319014319014C722.7274650515743,216.33510933510934,722.0035038145725,216.52702852702853,720.7936449459199,217.0541736041736C719.5837860772676,217.58131868131866,717.8880295769649,218.44368964368962,714.2636846424421,218.9708347208347C710.6393397079191,219.49797979797975,705.0864063391764,219.68989898989898,701.4854994701619,220.2245772330042C697.8845926011477,220.7592554761094,696.2357122318621,221.63669277040063,695.0413842060435,222.17137101350582C693.847056180225,222.70604925661107,693.1072804978736,222.89796844853026,689.9403527729058,223.6947565543071C686.7734250479378,224.49154466008397,681.1793452803531,225.89320167971854,677.9508373549688,226.6899897854954C674.7223294295846,227.48677789127228,673.8593933464009,227.67869708319145,672.7229875292325,228.47548518896835C671.586581712064,229.27227329474522,670.1767061609106,230.67393031437973,667.3971314037312,232.31081413384786C664.6175566465519,233.94769795331592,660.4682826833465,235.81980857261757,658.0242289291531,238.04811977452428C655.5801751749597,240.276430976431,654.8413416297781,242.86094276094275,654.1152509704996,244.8473063973064C653.3891603112211,246.83367003367002,652.6758125378456,248.2218855218855,651.9625128326929,249.61010101010103C651.2492131275404,250.99831649831648,650.5359614906107,252.38653198653196,643.1485236204202,254.97104377104378C635.7610857502297,257.55555555555554,621.6994616467781,261.3363636363636,611.8940431509089,263.9208754208754C602.0886246550398,266.5053872053872,596.539411766753,267.89360269360265,589.6344346502722,268.68367003367C582.7294575337913,269.4737373737374,574.4687161891164,269.66565656565655,567.1596968178401,269.8575757575758C559.8506774465637,270.049494949495,553.4933800486859,270.24141414141417,544.0630378964651,270.78442028985506C534.632695744244,271.327426438296,522.12930883768,272.2215195432587,514.2502436036638,273.9348155467721C506.3711783696477,275.6481115502855,503.1164348081796,278.1806104523496,499.5076014892015,279.5428194993412C495.8987681702233,280.90502854633286,491.9358450937352,281.0969477382521,488.0254557781049,283.04430171277994C484.11506646247454,284.99165568730785,480.257210907702,288.6944444444444,477.87080056646545,290.6417984189723C475.484390225229,292.58915239350017,474.56942509752844,292.7810715854194,469.99789582985323,293.2468884029938C465.4263665621781,293.7127052205683,457.1982731545283,294.452419663798,451.12129521240496,294.9182364813725C445.04431727028174,295.384053298947,441.1184547936851,295.57597249086615,437.157473673404,296.9132817537073C433.19649255312305,298.25059101654847,429.20039278915755,300.7332903503116,425.2384118498392,302.07059961315287C421.2764309105209,303.407908875994,417.34856879584964,303.5998280679132,413.71098587272746,303.7917472598324C410.0734029496054,303.98366645175156,406.72609921803223,304.1755856436708,402.6683759922499,304.36750483558995C398.61065276646764,304.5594240275091,393.8425100464761,304.7513432194283,388.21281653251066,304.9432624113475C382.5831230185452,305.13518160326674,376.09187871060584,305.3271007951859,369.94760525635814,306.0917150225661C363.80333180211034,306.8563292499463,358.0060292015542,308.19363851278746,352.3250661209945,308.9582527401676C346.6441030404347,309.72286696754776,341.0794794798714,309.914786159467,337.0067781958191,310.5685561864354C332.9340769117668,311.22232621340373,330.3532979042255,312.3379470754213,320.4184028430288,317.62254147514955C310.48350778183203,322.90713587487784,293.1944966669799,332.3607038123167,280.91676122621385,338.23937711034483C268.6390257854478,344.118050408373,261.3725660187679,346.42182906699037,247.8055639294315,349.44440326698395C234.23856184009506,352.46697746697754,214.37101742810214,356.2083472083472,190.37651324638423,359.501554001554C166.38200906466633,362.7947607947608,138.26054511322351,365.63980463980465,124.19981313750209,367.0623265623265L110.13908116178068,368.4848484848485" />
    <path stroke="blue" d="M851.6608306188925,160.04683330271314L850.8764312639637,160.16655529428672C850.092031909035,160.28627728586034,848.5232331991773,160.5257212690075,846.5548962270141,160.85348458942823C844.5865592548511,161.18124790984893,842.2186840203826,161.5973305675432,839.0577359823491,161.9074303216359C835.8967879443156,162.2175300757286,831.9427671027173,162.42164692621972,829.1944270768082,162.6151421225029C826.4460870508992,162.80863731878605,824.9034278406798,162.99151086086127,823.381240886613,163.21466212722922C821.8590539325463,163.43781339359717,820.3573392346321,163.70124238425782,819.1877903777423,163.93127421829186C818.0182415208525,164.1613060523259,817.180858504987,164.35794072973334,814.7274939360087,164.62090068029113C812.2741293670307,164.88386063084891,808.2047832449401,165.21314585455704,805.7833167487089,165.51643326790818C803.3618502524778,165.81972068125933,802.5882633821062,166.09701028425349,801.4180415700953,166.33721763411504C800.2478197580841,166.57742498397658,798.6809630044336,166.78055008070552,797.1624340421331,167.02465886428612C795.6439050798323,167.26876764786672,794.1737039088817,167.55386011829896,792.2255315562446,168.4911292964714C790.2773592036074,169.4283984746438,787.8512156692836,171.01784436055644,784.7205938731068,172.60826878696264C781.5899720769299,174.19869321336878,777.7548720189002,175.7900961802685,775.0852917762883,176.68417307896925C772.4157115336765,177.57824997766997,770.9116511064826,177.77500080817174,768.8687939682864,179.14626615115026C766.82593683009,180.51753149412875,764.2442829808911,183.06331134958398,757.6111749265709,187.46117902190267C750.9780668722509,191.85904669422135,740.2935046128094,198.10900218340353,734.2815389422207,201.33528900684917C728.269573271632,204.5615758302948,726.930204189896,204.76419398800394,725.9039515124308,205.03872287771858C724.8776988349655,205.31325176743334,724.1645625617708,205.6596913891536,723.4460138066726,205.93447374837817C722.7274650515743,206.20925610760278,722.0035038145725,206.41238120433172,720.7936449459199,206.7419048232831C719.5837860772676,207.0714284422345,717.8880295769649,207.52735058340832,714.2636846424421,210.13391877340487C710.6393397079191,212.7404869634015,705.0864063391764,217.49770120222084,701.4854994701619,220.03051974955568C697.8845926011477,222.56333829689052,696.2357122318621,222.8717611527408,695.0413842060435,223.1275351290304C693.847056180225,223.38330910532002,693.1072804978736,223.58643420204896,689.9403527729058,224.48636749341279C686.7734250479378,225.38630078477664,681.1793452803531,226.9830422707754,677.9508373549688,227.90838823581922C674.7223294295846,228.8337342008631,673.8593933464009,229.08768464495202,672.7229875292325,229.47927641167948C671.586581712064,229.8708681784069,670.1767061609106,230.40010126777284,667.3971314037312,231.43842052388925C664.6175566465519,232.47673978000572,660.4682826833465,234.02414520287266,658.0242289291531,235.09158361776755C655.5801751749597,236.1590220326624,654.8413416297781,236.74649343958518,654.1152509704996,237.2904873074991C653.3891603112211,237.83448117541298,652.6758125378456,238.33499750431795,651.9625128326929,238.8546781768472C651.2492131275404,239.37435884937642,650.5359614906107,239.91320386552988,643.1485236204202,241.134525428503C635.7610857502297,242.35584699147603,621.6994616467781,244.25964510126877,611.8940431509089,246.34837838016537C602.0886246550398,248.43711165906197,596.539411766753,250.71078010706245,589.6344346502722,251.94949428488258C582.7294575337913,253.18820846270273,574.4687161891164,253.39196837034248,567.1596968178401,253.59088008762276C559.8506774465637,253.78979180490307,553.4933800486859,253.9838553318239,544.0630378964651,254.28351958665232C534.632695744244,254.58318384148072,522.12930883768,254.9884488242167,514.2502436036638,256.2476873480798C506.3711783696477,257.50692587194294,503.1164348081796,259.6201379369332,499.5076014892015,260.7849666529649C495.8987681702233,261.94979536899655,491.9358450937352,262.16624073606977,488.0254557781049,264.9625934233923C484.11506646247454,267.75894611071493,480.257210907702,273.1352061182868,477.87080056646545,275.88746984869886C475.484390225229,278.6397335791108,474.56942509752844,278.76800103236286,469.99789582985323,278.9447467187818C465.4263665621781,279.12149240520085,457.1982731545283,279.34671632478694,451.12129521240496,279.77266956413865C445.04431727028174,280.1986228034903,441.1184547936851,280.8253053626077,437.157473673404,284.66596556828307C433.19649255312305,288.50662577395843,429.20039278915755,295.5612636261917,425.2384118498392,299.3278035890265C421.2764309105209,303.0943435518613,417.34856879584964,303.57278562529757,413.71098587272746,303.9995110499346C410.0734029496054,304.4262364745716,406.72609921803223,304.80124525040947,402.6683759922499,305.0903121866928C398.61065276646764,305.3793791229762,393.8425100464761,305.5825042197052,388.21281653251066,305.78291463820466C382.5831230185452,305.98332505670413,376.09187871060584,306.1810207969742,369.94760525635814,307.0371083675485C363.80333180211034,307.8931959381228,358.0060292015542,309.40767533900134,352.3250661209945,310.3172653215179C346.6441030404347,311.22685530403436,341.0794794798714,311.5315558681889,337.0067781958191,312.01569127600305C332.9340769117668,312.4998266838172,330.3532979042255,313.16339693529113,320.4184028430288,319.1115655273006C310.48350778183203,325.0597341193101,293.1944966669799,336.29250105185525,280.91676122621385,342.5312901264092C268.6390257854478,348.77007920096304,261.3725660187679,350.0148904175258,247.8055639294315,352.6149959010574C234.23856184009506,355.2151013845889,214.37101742810214,359.1705011350893,190.37651324638423,362.5100398462091C166.38200906466633,365.84957855732904,138.26054511322351,368.5732562290684,124.19981313750209,369.93509506493814L110.13908116178068,371.2969339008078" />
    
    <path stroke="darkorange" d="M851.6608306188925,211.1111111111111L850.8764312639637,211.0151515151515C850.092031909035,210.91919191919192,848.5232331991773,210.72727272727272,846.5548962270141,210.2998621384448C844.5865592548511,209.8724515496169,842.2186840203826,209.20954956388027,839.0577359823491,208.78213897505236C835.8967879443156,208.35472838622445,831.9427671027173,208.16280919430525,829.1944270768082,207.97089000238603C826.4460870508992,207.77897081046686,824.9034278406798,207.5870516185477,823.381240886613,206.9712479121928C821.8590539325463,206.3554442058379,820.3573392346321,205.31575598504733,819.1877903777423,204.69995227869242C818.0182415208525,204.08414857233754,817.180858504987,203.89222938041837,814.7274939360087,203.27642567406346C812.2741293670307,202.66062196770858,808.2047832449401,201.620933746918,805.7833167487089,200.58124552612742C803.3618502524778,199.54155730533682,802.5882633821062,198.50186908454623,801.4180415700953,197.88606537819135C800.2478197580841,197.27026167183644,798.6809630044336,197.07834247991727,797.1624340421331,196.88642328799804C795.6439050798323,196.69450409607887,794.1737039088817,196.50258490415968,792.2255315562446,195.8867811978048C790.2773592036074,195.2709774914499,787.8512156692836,194.23128927065932,784.7205938731068,193.74327427821518C781.5899720769299,193.25525928577107,777.7548720189002,193.3189175216734,775.0852917762883,193.254787043665C772.4157115336765,193.19065656565658,770.9116511064826,192.99873737373738,768.8687939682864,192.50668081918081C766.82593683009,192.0146242646243,764.2442829808911,191.2224303474304,757.6111749265709,186.58934815184818C750.9780668722509,181.95626595626598,740.2935046128094,173.4822954822955,734.2815389422207,169.14935064935068C728.269573271632,164.81640581640582,726.930204189896,164.62448662448665,725.9039515124308,164.43256743256745C724.8776988349655,164.24064824064826,724.1645625617708,164.04872904872906,723.4460138066726,163.85680985680986C722.7274650515743,163.66489066489066,722.0035038145725,163.4729714729715,720.7936449459199,162.9458263958264C719.5837860772676,162.41868131868134,717.8880295769649,161.55631035631038,714.2636846424421,161.02916527916528C710.6393397079191,160.5020202020202,705.0864063391764,160.31010101010102,701.4854994701619,159.7754227669958C697.8845926011477,159.24074452389058,696.2357122318621,158.36330722959937,695.0413842060435,157.82862898649415C693.847056180225,157.29395074338893,693.1072804978736,157.10203155146974,689.9403527729058,156.30524344569287C686.7734250479378,155.508455339916,681.1793452803531,154.10679832028146,677.9508373549688,153.3100102145046C674.7223294295846,152.51322210872772,673.8593933464009,152.32130291680852,672.7229875292325,151.52451481103165C671.586581712064,150.72772670525478,670.1767061609106,149.32606968562024,667.3971314037312,147.68918586615214C664.6175566465519,146.05230204668408,660.4682826833465,144.18019142738243,658.0242289291531,141.95188022547572C655.5801751749597,139.723569023569,654.8413416297781,137.13905723905725,654.1152509704996,135.15269360269363C653.3891603112211,133.16632996632998,652.6758125378456,131.7781144781145,651.9625128326929,130.38989898989902C651.2492131275404,129.00168350168352,650.5359614906107,127.61346801346802,643.1485236204202,125.02895622895623C635.7610857502297,122.44444444444444,621.6994616467781,118.66363636363637,611.8940431509089,116.07912457912458C602.0886246550398,113.49461279461279,596.539411766753,112.1063973063973,589.6344346502722,111.31632996632997C582.7294575337913,110.52626262626264,574.4687161891164,110.33434343434344,567.1596968178401,110.14242424242427C559.8506774465637,109.95050505050506,553.4933800486859,109.75858585858587,544.0630378964651,109.21557971014494C534.632695744244,108.672573561704,522.12930883768,107.77848045674132,514.2502436036638,106.06518445322791C506.3711783696477,104.35188844971452,503.1164348081796,101.81938954765042,499.5076014892015,100.45718050065875C495.8987681702233,99.0949714536671,491.9358450937352,98.90305226174792,488.0254557781049,96.95569828722002C484.11506646247454,95.00834431269213,480.257210907702,91.30555555555554,477.87080056646545,89.35820158102764C475.484390225229,87.41084760649977,474.56942509752844,87.21892841458059,469.99789582985323,86.75311159700613C465.4263665621781,86.28729477943169,457.1982731545283,85.54758033620197,451.12129521240496,85.08176351862754C445.04431727028174,84.61594670105309,441.1184547936851,84.4240275091339,437.157473673404,83.08671824629272C433.19649255312305,81.74940898345154,429.20039278915755,79.26670964968837,425.2384118498392,77.92940038684719C421.2764309105209,76.592091124006,417.34856879584964,76.40017193208682,413.71098587272746,76.20825274016762C410.0734029496054,76.01633354824843,406.72609921803223,75.82441435632923,402.6683759922499,75.63249516441005C398.61065276646764,75.44057597249086,393.8425100464761,75.24865678057166,388.21281653251066,75.05673758865247C382.5831230185452,74.86481839673327,376.09187871060584,74.67289920481409,369.94760525635814,73.9082849774339C363.80333180211034,73.14367075005372,358.0060292015542,71.80636148721256,352.3250661209945,71.04174725983236C346.6441030404347,70.27713303245218,341.0794794798714,70.085213840533,337.0067781958191,69.43144381356463C332.9340769117668,68.77767378659622,330.3532979042255,67.66205292457867,320.4184028430288,62.377458524850425C310.48350778183203,57.09286412512219,293.1944966669799,47.63929618768329,280.91676122621385,41.76062288965515C268.6390257854478,35.88194959162701,261.3725660187679,33.578170933009645,247.8055639294315,30.555596733016092C234.23856184009506,27.533022533022535,214.37101742810214,23.791652791652798,190.37651324638423,20.498445998446C166.38200906466633,17.205239205239206,138.26054511322351,14.360195360195354,124.19981313750209,12.93767343767343L110.13908116178068,11.515151515151503" />
    <path stroke="orange" d="M851.6608306188925,219.95316669728686L850.8764312639637,219.83344470571328C850.092031909035,219.71372271413966,848.5232331991773,219.4742787309925,846.5548962270141,219.14651541057182C844.5865592548511,218.81875209015107,842.2186840203826,218.4026694324568,839.0577359823491,218.09256967836413C835.8967879443156,217.7824699242714,831.9427671027173,217.57835307378028,829.1944270768082,217.38485787749713C826.4460870508992,217.19136268121395,824.9034278406798,217.00848913913873,823.381240886613,216.78533787277078C821.8590539325463,216.56218660640283,820.3573392346321,216.29875761574218,819.1877903777423,216.06872578170814C818.0182415208525,215.8386939476741,817.180858504987,215.64205927026669,814.7274939360087,215.3790993197089C812.2741293670307,215.1161393691511,808.2047832449401,214.78685414544302,805.7833167487089,214.48356673209184C803.3618502524778,214.18027931874067,802.5882633821062,213.9029897157465,801.4180415700953,213.66278236588496C800.2478197580841,213.4225750160234,798.6809630044336,213.21944991929445,797.1624340421331,212.97534113571385C795.6439050798323,212.73123235213328,794.1737039088817,212.44613988170104,792.2255315562446,211.5088707035286C790.2773592036074,210.5716015253562,787.8512156692836,208.98215563944356,784.7205938731068,207.3917312130374C781.5899720769299,205.80130678663122,777.7548720189002,204.20990381973152,775.0852917762883,203.31582692103075C772.4157115336765,202.42175002233003,770.9116511064826,202.22499919182826,768.8687939682864,200.85373384884974C766.82593683009,199.48246850587125,764.2442829808911,196.93668865041602,757.6111749265709,192.53882097809733C750.9780668722509,188.14095330577865,740.2935046128094,181.89099781659647,734.2815389422207,178.66471099315083C728.269573271632,175.43842416970517,726.930204189896,175.23580601199606,725.9039515124308,174.96127712228136C724.8776988349655,174.68674823256666,724.1645625617708,174.3403086108464,723.4460138066726,174.0655262516218C722.7274650515743,173.79074389239722,722.0035038145725,173.58761879566828,720.7936449459199,173.2580951767169C719.5837860772676,172.9285715577655,717.8880295769649,172.4726494165917,714.2636846424421,169.8660812265951C710.6393397079191,167.25951303659852,705.0864063391764,162.50229879777916,701.4854994701619,159.96948025044432C697.8845926011477,157.4366617031095,696.2357122318621,157.1282388472592,695.0413842060435,156.87246487096957C693.847056180225,156.61669089467995,693.1072804978736,156.413565797951,689.9403527729058,155.5136325065872C686.7734250479378,154.61369921522333,681.1793452803531,153.0169577292246,677.9508373549688,152.09161176418075C674.7223294295846,151.1662657991369,673.8593933464009,150.91231535504792,672.7229875292325,150.52072358832046C671.586581712064,150.12913182159306,670.1767061609106,149.5998987322271,667.3971314037312,148.5615794761107C664.6175566465519,147.52326021999428,660.4682826833465,145.97585479712734,658.0242289291531,144.90841638223245C655.5801751749597,143.84097796733758,654.8413416297781,143.25350656041476,654.1152509704996,142.70951269250088C653.3891603112211,142.165518824587,652.6758125378456,141.66500249568205,651.9625128326929,141.1453218231528C651.2492131275404,140.62564115062358,650.5359614906107,140.08679613447012,643.1485236204202,138.86547457149703C635.7610857502297,137.64415300852394,621.6994616467781,135.74035489873123,611.8940431509089,133.65162161983463C602.0886246550398,131.56288834093803,596.539411766753,129.28921989293755,589.6344346502722,128.05050571511745C582.7294575337913,126.81179153729731,574.4687161891164,126.60803162965755,567.1596968178401,126.40911991237725C559.8506774465637,126.21020819509694,553.4933800486859,126.0161446681761,544.0630378964651,125.71648041334767C534.632695744244,125.41681615851927,522.12930883768,125.01155117578327,514.2502436036638,123.75231265192015C506.3711783696477,122.49307412805706,503.1164348081796,120.37986206306682,499.5076014892015,119.21503334703512C495.8987681702233,118.05020463100341,491.9358450937352,117.83375926393025,488.0254557781049,115.03740657660768C484.11506646247454,112.24105388928511,480.257210907702,106.86479388171317,477.87080056646545,104.11253015130119C475.484390225229,101.3602664208892,474.56942509752844,101.23199896763721,469.99789582985323,101.05525328121819C465.4263665621781,100.87850759479915,457.1982731545283,100.65328367521307,451.12129521240496,100.22733043586136C445.04431727028174,99.80137719650965,441.1184547936851,99.17469463739229,437.157473673404,95.33403443171694C433.19649255312305,91.49337422604161,429.20039278915755,84.43873637380828,425.2384118498392,80.67219641097351C421.2764309105209,76.90565644813871,417.34856879584964,76.42721437470246,413.71098587272746,76.00048895006542C410.0734029496054,75.57376352542838,406.72609921803223,75.19875474959055,402.6683759922499,74.90968781330717C398.61065276646764,74.62062087702378,393.8425100464761,74.41749578029486,388.21281653251066,74.21708536179536C382.5831230185452,74.01667494329585,376.09187871060584,73.81897920302579,369.94760525635814,72.96289163245149C363.80333180211034,72.10680406187718,358.0060292015542,70.59232466099864,352.3250661209945,69.68273467848212C346.6441030404347,68.7731446959656,341.0794794798714,68.46844413181113,337.0067781958191,67.98430872399693C332.9340769117668,67.50017331618277,330.3532979042255,66.8366030647089,320.4184028430288,60.888434472699394C310.48350778183203,54.94026588068988,293.1944966669799,43.707498948144746,280.91676122621385,37.46870987359082C268.6390257854478,31.22992079903689,261.3725660187679,29.98510958247418,247.8055639294315,27.385004098942655C234.23856184009506,24.784898615411123,214.37101742810214,20.829498864910775,190.37651324638423,17.489960153790896C166.38200906466633,14.150421442671018,138.26054511322351,11.426743770931608,124.19981313750209,10.064904935061904L110.13908116178068,8.703066099192199" />
  </g>
  
  <g class="axis y" stroke="black" fill="none" stroke-dasharray="4 6">
    <path d="M 0,285 h900" /><path d="M 0,190 h900" /><path d="M 0,95 h900" />
  </g>
  <g
    class="axis x"
    stroke="black" fill="none"
    transform="translate(0, 380)">
  
  <path d="M0,0 h900" />
  <g transform="translate(82, 0)">
      <text text-anchor="middle"
      fill="black"
      stroke="none"
      transform="translate(0, 12)">Mar</text>
      <path d="M0,0 v-5" />
    </g><g transform="translate(173, 0)">
      <text text-anchor="middle"
      fill="black"
      stroke="none"
      transform="translate(0, 12)">Apr</text>
      <path d="M0,0 v-5" />
    </g><g transform="translate(261, 0)">
      <text text-anchor="middle"
      fill="black"
      stroke="none"
      transform="translate(0, 12)">May</text>
      <path d="M0,0 v-5" />
    </g><g transform="translate(352, 0)">
      <text text-anchor="middle"
      fill="black"
      stroke="none"
      transform="translate(0, 12)">Jun</text>
      <path d="M0,0 v-5" />
    </g><g transform="translate(440, 0)">
      <text text-anchor="middle"
      fill="black"
      stroke="none"
      transform="translate(0, 12)">Jul</text>
      <path d="M0,0 v-5" />
    </g><g transform="translate(530, 0)">
      <text text-anchor="middle"
      fill="black"
      stroke="none"
      transform="translate(0, 12)">Aug</text>
      <path d="M0,0 v-5" />
    </g><g transform="translate(621, 0)">
      <text text-anchor="middle"
      fill="black"
      stroke="none"
      transform="translate(0, 12)">Sep</text>
      <path d="M0,0 v-5" />
    </g><g transform="translate(709, 0)">
      <text text-anchor="middle"
      fill="black"
      stroke="none"
      transform="translate(0, 12)">Oct</text>
      <path d="M0,0 v-5" />
    </g><g transform="translate(800, 0)">
      <text text-anchor="middle"
      fill="black"
      stroke="none"
      transform="translate(0, 12)">Nov</text>
      <path d="M0,0 v-5" />
    </g><g transform="translate(888, 0)">
      <text text-anchor="middle"
      fill="black"
      stroke="none"
      transform="translate(0, 12)">Dec</text>
      <path d="M0,0 v-5" />
    </g>
  
  </g>
</svg>