<svg xmlns="http://www.w3.org/2000/svg"
  viewBox="0 0 900 400"
  width="900"
  height="400">
  <style>
    text {
      font-family: "Courier New", Courier, monospace;
      font-size: 12px;
    }
  </style>
  <g class="lines" fill="none">
    <path stroke="darkblue" d="M810.1365024429967,179.52755905511813L809.3509274536756,179.63741794432144C808.5653524643545,179.74727683352478,806.9942024857123,179.96699461193145,804.9450813253835,180.61059690477381C802.8959601650548,181.25419919761615,800.3688678230395,182.32168600489422,797.1372972191712,182.8374995838258C793.9057266153028,183.35331316275742,789.9696777495814,183.31745351334254,787.1991486992779,183.40938257783844C784.4286196489744,183.50131164233434,782.8236104140889,183.72102942074102,780.6798044682009,184.24088456178504C778.5359985223131,184.76073970282906,775.8533958654226,185.58073220651045,769.1193390034109,190.24161298858007C762.3852821413993,194.90249377064978,751.5997710742663,203.40426283110773,745.486856595986,207.76500625054004C739.3739421177057,212.12574966997235,737.9336242282783,212.34546744837903,736.8064227431214,212.56518522678564C735.6792212579645,212.78490300519232,734.8651361770784,213.00462078359897,734.0456386142886,213.22433856200564C733.2261410514985,213.44405634041232,732.401231006805,213.663774118819,731.090423330461,214.21871778245148C729.7796156541172,214.77366144608405,727.9829103461228,215.6638309949425,724.2576166039083,216.21877465857503C720.532322861694,216.7737183222076,714.8784406852595,216.99343610061428,711.1765850085536,217.55591293020692C707.4747293318478,218.1183897597996,705.7249001548704,219.0236256405783,704.4296233213604,219.586102470171C703.1343464878502,220.1485792997637,702.2936219978073,220.36829707817037,699.0257454651478,221.1928837704347C695.7578689324882,222.01747046269904,690.0628403572119,223.44692606882106,686.7333836241363,224.2715127610854C683.4039268910605,225.09609945334975,682.4400420001853,225.31581723175643,681.2026873753251,226.14040392402077C679.9653327504651,226.96499061628506,678.4545083916202,228.39444622240708,675.5739848267493,230.05912862836269C672.6934612618783,231.72381103431823,668.4432384909813,233.62372024010733,665.8982359290962,235.8798300285015C663.3532333672111,238.13593981689567,662.5134510143381,240.74825018789497,661.6864115473679,242.76241241074607C660.8593720803979,244.77657463359716,660.0450754993309,246.19258870830012,659.2308269864867,247.60860278300302C658.4165784736425,249.02461685770604,657.6023780290212,250.44063093240902,650.1139913511391,253.05294130340826C642.625604673257,255.6652516744075,628.4630317621139,259.4738583417031,618.5566644585532,262.0861687127023C608.6502971549925,264.69847908370156,603.000135459014,266.1144931584045,595.9942095348416,266.93235908495933C588.9882836106691,267.75022501151415,580.6265934583029,267.9699427899208,573.2166252793348,268.1896605683275C565.806657100367,268.4093783467342,559.3484108947977,268.62909612514085,549.817119934885,269.19990086006925C540.2858289749724,269.77070559499765,527.6814932607168,270.6925972864478,519.701479219009,272.4336918764486C511.72146517730135,274.17478646644946,508.3657728081416,276.7350839550011,504.6559906814719,278.12509158848025C500.94620855480224,279.51509922195936,496.8823366706226,279.73481700036604,492.8709985473006,281.70996956138134C488.85966042397877,283.6851221223967,484.9008560615146,287.41570946602076,482.4134969125866,289.3908620270361C479.92613776365846,291.3660145880515,478.9102238282664,291.5857323664581,474.23774575289957,292.0793477705201C469.56526767753286,292.57296317458196,461.2362254621914,293.3404762042992,455.0582987123766,293.8340916083611C448.8803719625618,294.327707012423,444.8535606782736,294.54742479082967,440.79163075030084,295.91253264015836C436.7297008223283,297.27764048948694,432.63265225067124,299.78813840973766,428.5697225036613,301.15324625906624C424.50679275665146,302.51835410839493,420.4779818342886,302.7380718868016,416.7394501034749,302.9577896652083C413.00091837266115,303.1775074436149,409.5526658333965,303.3972252220216,405.39399379992255,303.6169430004282C401.23532176644875,303.83666077883487,396.3662302387656,304.05637855724154,390.6355879171085,304.2760963356482C384.9049455954516,304.4958141140549,378.3127524798206,304.7155318924615,372.06753021788126,305.50794470632917C365.8223079559419,306.3003575201968,359.9240565476942,307.66546536952546,354.14214465944286,308.4578781833931C348.36023277119165,309.2502909972608,342.6946604029367,309.47000877566745,338.5210103111928,310.1515773891233C334.34736021944894,310.83314600257916,331.66563240421607,311.9765654510842,321.62978853532775,317.2889584372999C311.5939446664394,322.6013514235156,294.20398474389566,332.08271794744195,281.82530049543806,337.9891898319576C269.44661624698045,343.89566171647317,262.0792076726089,346.22723896157805,248.41125677558094,349.2776117480591C234.74330587855295,352.3279845345401,214.77481265886843,356.0971528623973,190.679359669459,359.4181582420916C166.5839066800495,362.73916362178585,138.36149392091508,365.61200605331715,124.2502875413479,367.0484272690828L110.13908116178068,368.4848484848485" />
    <path stroke="blue" d="M810.1365024429967,161.7556147886426L809.3509274536756,161.91842482381526C808.5653524643545,162.08123485898795,806.9942024857123,162.40685492933332,804.9450813253835,163.38465170741884C802.8959601650548,164.3624484855044,800.3688678230395,165.99242197133015,797.1372972191712,167.62337399764942C793.9057266153028,169.2543260239687,789.9696777495814,170.88625659078153,787.1991486992779,171.82086108939538C784.4286196489744,172.75546558800923,782.8236104140889,172.99274401842413,780.6798044682009,174.40453696131576C778.5359985223131,175.81632990420735,775.8533958654226,178.4026373595757,769.1193390034109,182.8410326318075C762.3852821413993,187.27942790403935,751.5997710742663,193.5699109931346,745.486856595986,196.83672541649335C739.3739421177057,200.10353983985212,737.9336242282783,200.34668559747436,736.8064227431214,200.66174208710217C735.6792212579645,200.97679857672998,734.8651361770784,201.36376579836337,734.0456386142886,201.6790757575011C733.2261410514985,201.9943857166388,732.401231006805,202.23803841328083,731.090423330461,202.60808963214535C729.7796156541172,202.9781408510098,727.9829103461228,203.47459059209677,724.2576166039083,206.12168638200646C720.532322861694,208.7687821719162,714.8784406852595,213.56652401064866,711.1765850085536,216.13987015789658C707.4747293318478,218.71321630514453,705.7249001548704,219.06216676090796,704.4296233213604,219.35846833711068C703.1343464878502,219.65476991331343,702.2936219978073,219.89842260995547,699.0257454651478,220.83888350123243C695.7578689324882,221.7793443925094,690.0628403572119,223.41661347842123,686.7333836241363,224.3824870433782C683.4039268910605,225.34836060833518,682.4400420001853,225.64283865233725,681.2026873753251,226.0749580189778C679.9653327504651,226.50707738561837,678.4545083916202,227.07683807489738,675.5739848267493,228.15568493092692C672.6934612618783,229.2345317869565,668.4432384909813,230.82246480973654,665.8982359290962,231.93043082454452C663.3532333672111,233.0383968393525,662.5134510143381,233.6663958461884,661.6864115473679,234.25091731401542C660.8593720803979,234.8354387818424,660.0450754993309,235.37648271066053,659.2308269864867,235.93669098310292C658.4165784736425,236.49689925554523,657.6023780290212,237.0762718716118,650.1139913511391,238.33812103449802C642.625604673257,239.5999701973842,628.4630317621139,241.54429590709003,618.5566644585532,243.6735567858997C608.6502971549925,245.80281766470944,603.000135459014,248.11701371262305,595.9942095348416,249.3962554903563C588.9882836106691,250.67549726808954,580.6265934583029,250.9197847756424,573.2166252793348,251.15922409283584C565.806657100367,251.39866341002926,559.3484108947977,251.6332545368632,549.817119934885,251.97344639160474C540.2858289749724,252.31363824634627,527.6814932607168,252.7594308289954,519.701479219009,254.0591969527716C511.72146517730135,255.35896307654784,508.3657728081416,257.51270274145116,504.6559906814719,258.718059057396C500.94620855480224,259.9234153733408,496.8823366706226,260.18038834032706,492.8709985473006,263.01726862756277C488.85966042397877,265.8541489147985,484.9008560615146,271.27093652228353,482.4134969125866,274.06372785260857C479.92613776365846,276.8565191829337,478.9102238282664,277.02531423609884,474.23774575289957,277.242587522431C469.56526767753286,277.45986080876315,461.2362254621914,277.7256123282623,455.0582987123766,278.19209316752716C448.8803719625618,278.658574006792,444.8535606782736,279.3257841658224,440.79163075030084,283.2069719714109C436.7297008223283,287.08815977699936,432.63265225067124,294.1833252291458,428.5697225036613,297.99039279189367C424.50679275665146,301.7974603546416,420.4779818342886,302.316430027991,416.7394501034749,302.7836830525411C413.00091837266115,303.25093607709124,409.5526658333965,303.66647245284224,405.39399379992255,303.9960669890387C401.23532176644875,304.32566152523515,396.3662302387656,304.5693142218772,390.6355879171085,304.81025224028986C384.9049455954516,305.0511902587025,378.3127524798206,305.28941359888563,372.06753021788126,306.1860287693731C365.8223079559419,307.0826439398605,359.9240565476942,308.6376509406521,354.14214465944286,309.5877685230818C348.36023277119165,310.53788610551146,342.6946604029367,310.88311426957904,338.5210103111928,311.40777727730637C334.34736021944894,311.93244028503364,331.66563240421607,312.6365381364206,321.62978853532775,318.62523432834325C311.5939446664394,324.61393052026585,294.20398474389566,335.8872250527241,281.82530049543806,342.16654172719115C269.44661624698045,348.4458584016582,262.0792076726089,349.731197218134,248.41125677558094,352.3718303015787C234.74330587855295,355.0124633850233,214.77481265886843,359.00839073543676,190.679359669459,362.38845704646974C166.5839066800495,365.7685233575028,138.36149392091508,368.5327286291553,124.2502875413479,369.91483126498156L110.13908116178068,371.2969339008078" />
    
    <path stroke="darkorange" d="M810.1365024429967,200.47244094488187L809.3509274536756,200.36258205567856C808.5653524643545,200.2527231664752,806.9942024857123,200.03300538806855,804.9450813253835,199.38940309522619C802.8959601650548,198.7458008023838,800.3688678230395,197.67831399510578,797.1372972191712,197.16250041617414C793.9057266153028,196.64668683724258,789.9696777495814,196.68254648665743,787.1991486992779,196.59061742216156C784.4286196489744,196.49868835766566,782.8236104140889,196.27897057925898,780.6798044682009,195.75911543821496C778.5359985223131,195.23926029717094,775.8533958654226,194.41926779348955,769.1193390034109,189.75838701141993C762.3852821413993,185.09750622935022,751.5997710742663,176.59573716889227,745.486856595986,172.23499374945996C739.3739421177057,167.87425033002765,737.9336242282783,167.65453255162097,736.8064227431214,167.43481477321433C735.6792212579645,167.21509699480768,734.8651361770784,166.995379216401,734.0456386142886,166.77566143799436C733.2261410514985,166.55594365958768,732.401231006805,166.33622588118104,731.090423330461,165.78128221754847C729.7796156541172,165.22633855391592,727.9829103461228,164.33616900505749,724.2576166039083,163.78122534142494C720.532322861694,163.2262816777924,714.8784406852595,163.00656389938572,711.1765850085536,162.44408706979306C707.4747293318478,161.8816102402004,705.7249001548704,160.97637435942167,704.4296233213604,160.41389752982897C703.1343464878502,159.85142070023628,702.2936219978073,159.63170292182963,699.0257454651478,158.80711622956528C695.7578689324882,157.98252953730093,690.0628403572119,156.55307393117891,686.7333836241363,155.72848723891457C683.4039268910605,154.90390054665025,682.4400420001853,154.68418276824357,681.2026873753251,153.85959607597923C679.9653327504651,153.0350093837149,678.4545083916202,151.6055537775929,675.5739848267493,149.94087137163731C672.6934612618783,148.27618896568177,668.4432384909813,146.37627975989267,665.8982359290962,144.12016997149848C663.3532333672111,141.86406018310433,662.5134510143381,139.25174981210503,661.6864115473679,137.23758758925396C660.8593720803979,135.22342536640284,660.0450754993309,133.80741129169988,659.2308269864867,132.39139721699692C658.4165784736425,130.97538314229396,657.6023780290212,129.559369067591,650.1139913511391,126.94705869659174C642.625604673257,124.33474832559249,628.4630317621139,120.52614165829694,618.5566644585532,117.91383128729768C608.6502971549925,115.30152091629844,603.000135459014,113.88550684159547,595.9942095348416,113.06764091504067C588.9882836106691,112.24977498848585,580.6265934583029,112.03005721007919,573.2166252793348,111.81033943167252C565.806657100367,111.59062165326587,559.3484108947977,111.37090387485921,549.817119934885,110.80009913993081C540.2858289749724,110.22929440500239,527.6814932607168,109.30740271355224,519.701479219009,107.56630812355138C511.72146517730135,105.8252135335505,508.3657728081416,103.26491604499893,504.6559906814719,101.8749084115198C500.94620855480224,100.48490077804065,496.8823366706226,100.265182999634,492.8709985473006,98.29003043861864C488.85966042397877,96.3148778776033,484.9008560615146,92.58429053397923,482.4134969125866,90.60913797296386C479.92613776365846,88.6339854119485,478.9102238282664,88.41426763354184,474.23774575289957,87.92065222947991C469.56526767753286,87.427036825418,461.2362254621914,86.65952379570082,455.0582987123766,86.16590839163892C448.8803719625618,85.672292987577,444.8535606782736,85.45257520917033,440.79163075030084,84.08746735984168C436.7297008223283,82.72235951051304,432.63265225067124,80.2118615902624,428.5697225036613,78.84675374093375C424.50679275665146,77.48164589160508,420.4779818342886,77.26192811319844,416.7394501034749,77.04221033479176C413.00091837266115,76.8224925563851,409.5526658333965,76.60277477797844,405.39399379992255,76.38305699957178C401.23532176644875,76.16333922116512,396.3662302387656,75.94362144275844,390.6355879171085,75.72390366435178C384.9049455954516,75.50418588594512,378.3127524798206,75.28446810753844,372.06753021788126,74.49205529367079C365.8223079559419,73.69964247980313,359.9240565476942,72.3345346304745,354.14214465944286,71.54212181660684C348.36023277119165,70.7497090027392,342.6946604029367,70.52999122433253,338.5210103111928,69.84842261087668C334.34736021944894,69.16685399742083,331.66563240421607,68.0234345489158,321.62978853532775,62.711041562700096C311.5939446664394,57.39864857648438,294.20398474389566,47.917282052558,281.82530049543806,42.01081016804239C269.44661624698045,36.104338283526786,262.0792076726089,33.77276103842195,248.41125677558094,30.722388251940917C234.74330587855295,27.672015465459893,214.77481265886843,23.90284713760268,190.679359669459,20.581841757908418C166.5839066800495,17.260836378214147,138.36149392091508,14.387993946682826,124.2502875413479,12.951572730917164L110.13908116178068,11.515151515151503" />
    <path stroke="orange" d="M810.1365024429967,218.24438521135738L809.3509274536756,218.08157517618474C808.5653524643545,217.91876514101205,806.9942024857123,217.59314507066674,804.9450813253835,216.6153482925812C802.8959601650548,215.6375515144956,800.3688678230395,214.00757802866988,797.1372972191712,212.37662600235058C793.9057266153028,210.7456739760313,789.9696777495814,209.11374340921847,787.1991486992779,208.17913891060462C784.4286196489744,207.24453441199077,782.8236104140889,207.00725598157587,780.6798044682009,205.59546303868424C778.5359985223131,204.18367009579265,775.8533958654226,201.5973626404243,769.1193390034109,197.1589673681925C762.3852821413993,192.72057209596065,751.5997710742663,186.4300890068654,745.486856595986,183.16327458350665C739.3739421177057,179.89646016014785,737.9336242282783,179.65331440252564,736.8064227431214,179.33825791289783C735.6792212579645,179.02320142327002,734.8651361770784,178.63623420163665,734.0456386142886,178.32092424249893C733.2261410514985,178.0056142833612,732.401231006805,177.76196158671917,731.090423330461,177.3919103678547C729.7796156541172,177.0218591489902,727.9829103461228,176.52540940790323,724.2576166039083,173.87831361799354C720.532322861694,171.2312178280838,714.8784406852595,166.43347598935134,711.1765850085536,163.8601298421034C707.4747293318478,161.28678369485544,705.7249001548704,160.93783323909204,704.4296233213604,160.6415316628893C703.1343464878502,160.34523008668657,702.2936219978073,160.10157739004453,699.0257454651478,159.16111649876757C695.7578689324882,158.2206556074906,690.0628403572119,156.58338652157877,686.7333836241363,155.6175129566218C683.4039268910605,154.65163939166482,682.4400420001853,154.35716134766275,681.2026873753251,153.9250419810222C679.9653327504651,153.49292261438163,678.4545083916202,152.9231619251026,675.5739848267493,151.84431506907308C672.6934612618783,150.7654682130435,668.4432384909813,149.17753519026346,665.8982359290962,148.06956917545548C663.3532333672111,146.96160316064748,662.5134510143381,146.33360415381156,661.6864115473679,145.74908268598458C660.8593720803979,145.16456121815756,660.0450754993309,144.62351728933945,659.2308269864867,144.0633090168971C658.4165784736425,143.50310074445477,657.6023780290212,142.9237281283882,650.1139913511391,141.66187896550198C642.625604673257,140.4000298026158,628.4630317621139,138.45570409290997,618.5566644585532,136.32644321410024C608.6502971549925,134.19718233529053,603.000135459014,131.88298628737695,595.9942095348416,130.6037445096437C588.9882836106691,129.32450273191046,580.6265934583029,129.08021522435757,573.2166252793348,128.84077590716416C565.806657100367,128.60133658997074,559.3484108947977,128.3667454631368,549.817119934885,128.02655360839526C540.2858289749724,127.68636175365373,527.6814932607168,127.24056917100461,519.701479219009,125.94080304722839C511.72146517730135,124.64103692345218,508.3657728081416,122.48729725854884,504.6559906814719,121.28194094260402C500.94620855480224,120.0765846266592,496.8823366706226,119.8196116596729,492.8709985473006,116.98273137243721C488.85966042397877,114.14585108520153,484.9008560615146,108.72906347771647,482.4134969125866,105.93627214739138C479.92613776365846,103.14348081706628,478.9102238282664,102.97468576390118,474.23774575289957,102.75741247756902C469.56526767753286,102.54013919123689,461.2362254621914,102.27438767173771,455.0582987123766,101.80790683247288C448.8803719625618,101.34142599320803,444.8535606782736,100.67421583417756,440.79163075030084,96.7930280285891C436.7297008223283,92.91184022300064,432.63265225067124,85.8166747708542,428.5697225036613,82.00960720810632C424.50679275665146,78.20253964535841,420.4779818342886,77.68356997200904,416.7394501034749,77.21631694745889C413.00091837266115,76.74906392290873,409.5526658333965,76.33352754715779,405.39399379992255,76.00393301096129C401.23532176644875,75.67433847476478,396.3662302387656,75.43068577812274,390.6355879171085,75.18974775971012C384.9049455954516,74.94880974129751,378.3127524798206,74.71058640111433,372.06753021788126,73.81397123062692C365.8223079559419,72.9173560601395,359.9240565476942,71.36234905934784,354.14214465944286,70.4122314769182C348.36023277119165,69.46211389448857,342.6946604029367,69.11688573042096,338.5210103111928,68.59222272269368C334.34736021944894,68.06755971496638,331.66563240421607,67.36346186357939,321.62978853532775,61.374765671656775C311.5939446664394,55.386069479734154,294.20398474389566,44.11277494727589,281.82530049543806,37.833458272808855C269.44661624698045,31.55414159834181,262.0792076726089,30.268802781865986,248.41125677558094,27.628169698421342C234.74330587855295,24.9875366149767,214.77481265886843,20.991609264563238,190.679359669459,17.611542953530243C166.5839066800495,14.231476642497249,138.36149392091508,11.467271370844722,124.2502875413479,10.085168735018462L110.13908116178068,8.703066099192199" />
  </g>
  
  <g class="axis y" stroke="black" fill="none" stroke-dasharray="4 6">
    <path d="M 0,285 h900" /><path d="M 0,190 h900" /><path d="M 0,95 h900" />
  </g>
  <g
    class="axis x"
    stroke="black" fill="none"
    transform="translate(0, 380)">
  
  <path d="M0,0 h900" />
  <g transform="translate(82, 0)">
      <text text-anchor="middle"
      fill="black"
      stroke="none"
      transform="translate(0, 12)">Mar</text>
      <path d="M0,0 v-5" />
    </g><g transform="translate(173, 0)">
      <text text-anchor="middle"
      fill="black"
      stroke="none"
      transform="translate(0, 12)">Apr</text>
      <path d="M0,0 v-5" />
    </g><g transform="translate(261, 0)">
      <text text-anchor="middle"
      fill="black"
      stroke="none"
      transform="translate(0, 12)">May</text>
      <path d="M0,0 v-5" />
    </g><g transform="translate(352, 0)">
      <text text-anchor="middle"
      fill="black"
      stroke="none"
      transform="translate(0, 12)">Jun</text>
      <path d="M0,0 v-5" />
    </g><g transform="translate(440, 0)">
      <text text-anchor="middle"
      fill="black"
      stroke="none"
      transform="translate(0, 12)">Jul</text>
      <path d="M0,0 v-5" />
    </g><g transform="translate(530, 0)">
      <text text-anchor="middle"
      fill="black"
      stroke="none"
      transform="translate(0, 12)">Aug</text>
      <path d="M0,0 v-5" />
    </g><g transform="translate(621, 0)">
      <text text-anchor="middle"
      fill="black"
      stroke="none"
      transform="translate(0, 12)">Sep</text>
      <path d="M0,0 v-5" />
    </g><g transform="translate(709, 0)">
      <text text-anchor="middle"
      fill="black"
      stroke="none"
      transform="translate(0, 12)">Oct</text>
      <path d="M0,0 v-5" />
    </g><g transform="translate(800, 0)">
      <text text-anchor="middle"
      fill="black"
      stroke="none"
      transform="translate(0, 12)">Nov</text>
      <path d="M0,0 v-5" />
    </g><g transform="translate(888, 0)">
      <text text-anchor="middle"
      fill="black"
      stroke="none"
      transform="translate(0, 12)">Dec</text>
      <path d="M0,0 v-5" />
    </g>
  
  </g>
</svg>