<svg xmlns="http://www.w3.org/2000/svg"
  viewBox="0 0 900 400"
  width="900"
  height="400">
  <style>
    text {
      font-family: "Courier New", Courier, monospace;
      font-size: 12px;
    }
  </style>
  <g class="lines" fill="none">
    <path stroke="darkblue" d="M866.8109391965255,167.55905511811022L864.307753126942,167.842224553263C861.8045670573583,168.12539398841582,856.7981949181911,168.6917328587214,853.5101896470118,169.06967861150002C850.2221843758322,169.44762436427865,848.6525459726405,169.63717699953028,846.6833693071434,170.06222103169063C844.714192641646,170.48726506385097,842.3454777138433,171.14780049292006,839.1836899824757,171.57284452508043C836.0219022511079,171.99788855724077,832.0670417161754,172.18744119249243,829.3178619969322,172.37699382774406C826.5686822776889,172.5665464629957,825.0251833741353,172.75609909824735,823.5021567267344,173.3695362479347C821.9791300793335,173.98297339762203,820.4765756880852,175.02029506174506,819.3061871378612,175.6337322114324C818.1357985876372,176.24716936111975,817.2975758784374,176.43672199637138,814.8433716161252,177.05015914605872C812.3891673538128,177.66359629574603,808.318981538388,178.7009179598691,805.8966753488227,179.73823962399214C803.4743691592575,180.77556128811514,802.6999425955519,181.81288295223817,801.5288810902066,182.4263201019255C800.3578195848613,183.03975725161285,798.7901231378765,183.22930988686448,797.2707544822418,183.41886252211614C795.751385826607,183.60841515736777,794.2803449623221,183.7979677926194,792.3313329163508,184.41140494230675C790.3823208703794,185.0248420919941,787.9553376427216,186.06216375611712,784.8238761532106,186.5478121918937C781.6924146636997,187.03346062767028,777.8564749123356,186.96743583510036,775.1860549763895,187.02919975644124C772.5156350404435,187.09096367778213,771.0107349199153,187.28051631303376,768.9670380883849,187.77020631092273C766.9233412568543,188.25989630881176,764.3408477143213,189.04972366933814,757.706899966667,193.68043930825277C751.0729522190128,198.3111549471674,740.3875502662372,206.78275886447034,734.3747449023143,211.11333714074763C728.3619395383915,215.4439154170249,727.0217307633212,215.63346805227653,725.9946383925218,215.8230206875282C724.9675460217223,216.01257332277984,724.2535700551936,216.20212595803147,723.5341816067612,216.3916785932831C722.8147931583286,216.58123122853476,722.0899922279926,216.7707838637864,720.879293666006,217.29556238426392C719.6685951040193,217.82034090474144,717.9719989103824,218.68034531044484,714.3468142825254,219.20512383092236C710.7216296546685,219.7299023513999,705.1678565925913,219.91945498665154,701.5661100302428,220.4517666730892C697.9643634678945,220.98407835952685,696.3146434052745,221.85914909715052,695.1194756861219,222.39146078358817C693.9243079669692,222.92377247002582,693.1836925912838,223.11332510527748,690.0159251729816,223.90774665438684C686.8481577546795,224.70216820349614,681.2532382937605,226.10145866646312,678.0238906750423,226.89588021557242C674.7945430563238,227.69030176468175,673.930767279806,227.87985439993338,672.7935217693033,228.67427594904268C671.6562762588006,229.468697498152,670.2455610143131,230.86798796111904,667.4651465637995,232.5025052239196C664.684732113286,234.1370224867201,660.5346184567464,236.00676654935418,658.0897250092188,238.23271119459335C655.6448315616911,240.45865583983246,654.9051583231754,243.0408010676767,654.1782279705627,245.02479814737282C653.4512976179501,247.00879522706887,652.7371101512405,248.39464415861684,652.0229707527537,249.78049309016475C651.308831354267,251.1663420217127,650.5947400240032,252.55219095326063,643.2064624604784,255.13433618110489C635.8181848969537,257.7164814089491,621.755721100168,261.49492293308964,611.9494629109646,264.0770681609339C602.1432047217613,266.65921338877814,596.5931521401402,268.04506232032605,589.6873353303253,268.8327631037258C582.7815185205102,269.6204638871256,574.5199374825012,269.8100165223773,567.2100784178907,269.9995691576289C559.9002193532801,270.18912179288054,553.5420822620682,270.3786744281322,544.1109004165131,270.9193140199056C534.6797185709579,271.45995361167894,522.1754919710596,272.351680159974,514.2955870437094,274.0626096068199C506.41568211635905,275.77353905366573,503.1600988615567,278.3036713990623,499.5504258492444,279.6635138893864C495.94075283693206,281.0233563797105,491.97699006710985,281.2129090149622,488.06576105814537,283.1578964328225C484.1545320491808,285.1028838506829,480.29583680107413,288.8033060511519,477.90858676650345,290.7482934690122C475.52133673193276,292.6932808868725,474.60553191089804,292.88283352212414,470.03316294988866,293.3462837830311C465.4607939888793,293.8097340439379,457.23186088789527,294.5470819305001,451.1540432524378,295.01053219140704C445.07622561698037,295.4739824523139,441.1495234470496,295.66353508756555,437.18770263343436,296.99847779373914C433.2258818198191,298.3334204999128,429.22894236251955,300.8137532770084,425.26612172986705,302.14869598318205C421.3033010972145,303.4836386893557,417.37459928920913,303.67319132460733,413.73617667275283,303.86274395985896C410.0977540562965,304.0522965951106,406.7496106313892,304.2418492303622,402.6910477122727,304.43140186561385C398.6324847931562,304.6209545008655,393.86350237983055,304.81050713611717,388.2329691725309,305.0000597713688C382.6024359652313,305.1896124066204,376.1103519639577,305.37916504187206,369.9652388163758,306.14141271258467C363.8201256687939,306.90366038329734,358.0219833749035,308.2386030894709,352.34018060100965,309.00085076018354C346.65837782711577,309.76309843089615,341.0929145732182,309.95265106614784,337.0193735958317,310.6040545364487C332.9458326184452,311.2554580067495,330.36421391756977,312.3687123120995,320.42847916303884,317.6509401551602C310.49274440850803,322.9331679982209,293.20289360032166,332.38436937899223,280.92431846622145,338.26067612035285C268.6457433321212,344.1369828617134,261.37844387210714,346.43839496366326,247.81060208943654,349.45860260698925C234.24276030676594,352.47881025031523,214.37437620143885,356.21781343501743,190.37903232638678,359.50865367155666C166.3836884513347,362.7994939080959,138.2613848065577,365.6421711964722,124.20023298416919,367.06350984066034L110.13908116178068,368.4848484848485" />
    <path stroke="blue" d="M866.8109391965255,159.36548097435133L864.307753126942,159.56197355401068C861.8045670573583,159.75846613367,856.7981949181911,160.15145129298867,853.5101896470118,160.46607098233184C850.2221843758322,160.78069067167507,848.6525459726405,161.0169448910428,846.6833693071434,161.34151844768405C844.714192641646,161.66609200432535,842.3454777138433,162.07898489824015,839.1836899824757,162.38589488855337C836.0219022511079,162.6928048788666,832.0670417161754,162.89373196557827,829.3178619969322,163.08403739808202C826.5686822776889,163.27434283058574,825.0251833741353,163.45402660888152,823.5021567267344,163.67398811146998C821.9791300793335,163.8939496140585,820.4765756880852,164.1541888409397,819.3061871378612,164.3810309111943C818.1357985876372,164.60787298144888,817.2975758784374,164.8013178950769,814.8433716161252,165.06108808185522C812.3891673538128,165.32085826863354,808.318981538388,165.64695372856224,805.8966753488227,165.94705137813392C803.4743691592575,166.24714902770563,802.6999425955519,166.52124886692033,801.5288810902066,166.75826645300245C800.3578195848613,166.99528403908454,798.7901231378765,167.19521937203402,797.2707544822418,167.43613839183516C795.751385826607,167.6770574116363,794.2803449623221,167.95896011828907,792.3313329163508,168.89303953268208C790.3823208703794,169.82711894707506,787.9553376427216,171.41337506920823,784.8238761532106,173.00060973183497C781.6924146636997,174.5878443944617,777.8564749123356,176.17605759758194,775.1860549763895,177.06694473250323C772.5156350404435,177.95783186742452,771.0107349199153,178.15139293414686,768.9670380883849,179.5194685133459C766.9233412568543,180.88754409254497,764.3408477143213,183.43013418422072,757.706899966667,187.82481209275997C751.0729522190128,192.2194900012992,740.3875502662372,198.46625572670192,734.3747449023143,201.6893527863681C728.3619395383915,204.9124498460343,727.0217307633212,205.11187823996397,725.9946383925218,205.3832173658992C724.9675460217223,205.65455649183446,724.2535700551936,205.9978063497753,723.5341816067612,206.26939894522044C722.8147931583286,206.54099154066557,722.0899922279926,206.74092687361508,720.879293666006,207.067260728787C719.6685951040193,207.39359458395893,717.9719989103824,207.8463269613533,714.3468142825254,210.44970538757045C710.7216296546685,213.0530838137876,705.1678565925913,217.80710828882752,701.5661100302428,220.33673707238287C697.9643634678945,222.86636585593826,696.3146434052745,223.1715989480091,695.1194756861219,223.42418316051928C693.9243079669692,223.6767673730294,693.1836925912838,223.87670270597891,690.0159251729816,224.7734462335633C686.8481577546795,225.67018976114767,681.2532382937605,227.26374148336697,678.0238906750423,228.18589768463139C674.7945430563238,229.10805388589577,673.930767279806,229.3588145662053,672.7935217693033,229.74721656915327C671.6562762588006,230.1356185721013,670.2455610143131,230.66166189768776,667.4651465637995,231.69679139002474C664.684732113286,232.73192088236172,660.5346184567464,234.2761365414492,658.0897250092188,235.34038519256464C655.6448315616911,236.40463384368005,654.9051583231754,236.9889154868234,654.1782279705627,237.52971959095782C653.4512976179501,238.07052369509225,652.7371101512405,238.5678502602178,652.0229707527537,239.0843411689676C651.308831354267,239.60083207771734,650.5947400240032,240.13648733009134,643.2064624604784,241.354619129285C635.8181848969537,242.57275092847863,621.755721100168,244.47335927449186,611.9494629109646,246.55890278960905C602.1432047217613,248.64444630472622,596.5931521401402,250.91492498894726,589.6873353303253,252.15044940298796C582.7815185205102,253.3859738170286,574.5199374825012,253.58654396088892,567.2100784178907,253.78226591438977C559.9002193532801,253.97798786789062,553.5420822620682,254.168861631032,544.1109004165131,254.4653361220809C534.6797185709579,254.7618106131299,522.1754919710596,255.1638858320865,514.2955870437094,256.41993459217014C506.41568211635905,257.6759833522538,503.1600988615567,259.78600565346454,499.5504258492444,260.9476446057168C495.94075283693206,262.1092835579691,491.97699006710985,262.3225391612628,488.06576105814537,265.11570208480595C484.1545320491808,267.90886500834904,480.29583680107413,273.2819352521415,477.90858676650345,276.0310092187741C475.52133673193276,278.7800831854066,474.60553191089804,278.9051608748792,470.03316294988866,279.0787167975188C465.4607939888793,279.2522727201583,457.23186088789527,279.47430687596494,451.1540432524378,279.8970703515372C445.07622561698037,280.31983382710945,441.1495234470496,280.94332662244733,437.18770263343436,284.78079706434323C433.2258818198191,288.61826750623914,429.22894236251955,295.669715594693,425.26612172986705,299.4330657937483C421.3033010972145,303.1964159928037,417.37459928920913,303.6716683024605,413.73617667275283,304.09520396331806C410.0977540562965,304.5187396241757,406.7496106313892,304.89055863623406,402.6910477122727,305.17643580873795C398.6324847931562,305.4623129812419,393.86350237983055,305.6622483141914,388.2329691725309,305.8594689689115C382.6024359652313,306.0566896236315,376.1103519639577,306.2511956001221,369.9652388163758,307.10409340691695C363.8201256687939,307.9569912137118,358.0219833749035,309.4682808508109,352.34018060100965,310.374681069548C346.65837782711577,311.28108128828507,341.0929145732182,311.5825920886601,337.0193735958317,312.06353773269484C332.9458326184452,312.5444833767296,330.36421391756977,313.204863864424,320.42847916303884,319.14984269265403C310.49274440850803,325.09482152088407,293.20289360032166,336.3243986896498,280.92431846622145,342.5599980004243C268.6457433321212,348.7955973111987,261.37844387210714,350.037218763982,247.81060208943654,352.63413448373404C234.24276030676594,355.2310502034861,214.37437620143885,359.183260190207,190.37903232638678,362.51960913754743C166.3836884513347,365.85595808488785,138.2613848065577,368.5764459928478,124.20023298416919,369.9366899468278L110.13908116178068,371.2969339008078" />
    
    <path stroke="darkorange" d="M866.8109391965255,212.44094488188978L864.307753126942,212.15777544673696C861.8045670573583,211.87460601158418,856.7981949181911,211.3082671412786,853.5101896470118,210.93032138849995C850.2221843758322,210.55237563572132,848.6525459726405,210.3628230004697,846.6833693071434,209.93777896830935C844.714192641646,209.51273493614897,842.3454777138433,208.85219950707992,839.1836899824757,208.42715547491954C836.0219022511079,208.0021114427592,832.0670417161754,207.81255880750754,829.3178619969322,207.6230061722559C826.5686822776889,207.43345353700428,825.0251833741353,207.24390090175265,823.5021567267344,206.6304637520653C821.9791300793335,206.01702660237797,820.4765756880852,204.97970493825494,819.3061871378612,204.36626778856763C818.1357985876372,203.75283063888028,817.2975758784374,203.56327800362862,814.8433716161252,202.94984085394128C812.3891673538128,202.33640370425397,808.318981538388,201.2990820401309,805.8966753488227,200.2617603760079C803.4743691592575,199.2244387118849,802.6999425955519,198.18711704776183,801.5288810902066,197.5736798980745C800.3578195848613,196.96024274838715,798.7901231378765,196.77069011313552,797.2707544822418,196.58113747788386C795.751385826607,196.39158484263223,794.2803449623221,196.2020322073806,792.3313329163508,195.58859505769325C790.3823208703794,194.9751579080059,787.9553376427216,193.93783624388288,784.8238761532106,193.4521878081063C781.6924146636997,192.96653937232972,777.8564749123356,193.03256416489964,775.1860549763895,192.97080024355876C772.5156350404435,192.90903632221787,771.0107349199153,192.7194836869662,768.9670380883849,192.22979368907724C766.9233412568543,191.74010369118824,764.3408477143213,190.95027633066186,757.706899966667,186.31956069174723C751.0729522190128,181.6888450528326,740.3875502662372,173.21724113552966,734.3747449023143,168.88666285925237C728.3619395383915,164.5560845829751,727.0217307633212,164.36653194772347,725.9946383925218,164.17697931247181C724.9675460217223,163.98742667722016,724.2535700551936,163.79787404196853,723.5341816067612,163.6083214067169C722.8147931583286,163.41876877146527,722.0899922279926,163.2292161362136,720.879293666006,162.70443761573608C719.6685951040193,162.17965909525856,717.9719989103824,161.31965468955516,714.3468142825254,160.79487616907764C710.7216296546685,160.2700976486001,705.1678565925913,160.08054501334846,701.5661100302428,159.5482333269108C697.9643634678945,159.01592164047315,696.3146434052745,158.14085090284945,695.1194756861219,157.6085392164118C693.9243079669692,157.07622752997415,693.1836925912838,156.88667489472252,690.0159251729816,156.0922533456132C686.8481577546795,155.29783179650386,681.2532382937605,153.89854133353688,678.0238906750423,153.10411978442758C674.7945430563238,152.30969823531825,673.930767279806,152.1201456000666,672.7935217693033,151.3257240509573C671.6562762588006,150.531302501848,670.2455610143131,149.13201203888096,667.4651465637995,147.49749477608046C664.684732113286,145.8629775132799,660.5346184567464,143.99323345064582,658.0897250092188,141.76728880540665C655.6448315616911,139.5413441601675,654.9051583231754,136.9591989323233,654.1782279705627,134.97520185262724C653.4512976179501,132.99120477293113,652.7371101512405,131.60535584138321,652.0229707527537,130.21950690983525C651.308831354267,128.83365797828733,650.5947400240032,127.44780904673938,643.2064624604784,124.86566381889513C635.8181848969537,122.28351859105089,621.755721100168,118.50507706691037,611.9494629109646,115.92293183906617C602.1432047217613,113.34078661122192,596.5931521401402,111.95493767967399,589.6873353303253,111.16723689627419C582.7815185205102,110.3795361128744,574.5199374825012,110.18998347762277,567.2100784178907,110.00043084237113C559.9002193532801,109.8108782071195,553.5420822620682,109.62132557186784,544.1109004165131,109.08068598009447C534.6797185709579,108.54004638832107,522.1754919710596,107.64831984002596,514.2955870437094,105.93739039318011C506.41568211635905,104.22646094633427,503.1600988615567,101.6963286009377,499.5504258492444,100.33648611061359C495.94075283693206,98.9766436202895,491.97699006710985,98.78709098503786,488.06576105814537,96.84210356717752C484.1545320491808,94.89711614931718,480.29583680107413,91.19669394884814,477.90858676650345,89.2517065309878C475.52133673193276,87.30671911312747,474.60553191089804,87.11716647787584,470.03316294988866,86.65371621696893C465.4607939888793,86.19026595606205,457.23186088789527,85.4529180694999,451.1540432524378,84.989467808593C445.07622561698037,84.52601754768612,441.1495234470496,84.33646491243447,437.18770263343436,83.00152220626084C433.2258818198191,81.66657950008722,429.22894236251955,79.1862467229916,425.26612172986705,77.85130401681796C421.3033010972145,76.51636131064434,417.37459928920913,76.32680867539271,413.73617667275283,76.13725604014107C410.0977540562965,75.94770340488942,406.7496106313892,75.75815076963778,402.6910477122727,75.56859813438614C398.6324847931562,75.3790454991345,393.86350237983055,75.18949286388285,388.2329691725309,74.99994022863122C382.6024359652313,74.81038759337957,376.1103519639577,74.62083495812794,369.9652388163758,73.8585872874153C363.8201256687939,73.09633961670268,358.0219833749035,71.76139691052906,352.34018060100965,70.99914923981643C346.65837782711577,70.2369015691038,341.0929145732182,70.04734893385216,337.0193735958317,69.39594546355133C332.9458326184452,68.74454199325051,330.36421391756977,67.6312876879005,320.42847916303884,62.34905984483981C310.49274440850803,57.06683200177912,293.20289360032166,47.61563062100777,280.92431846622145,41.73932387964718C268.6457433321212,35.8630171382866,261.37844387210714,33.56160503633678,247.81060208943654,30.54139739301078C234.24276030676594,27.521189749684776,214.37437620143885,23.782186564982585,190.37903232638678,20.491346328443345C166.3836884513347,17.2005060919041,138.2613848065577,14.357828803527802,124.20023298416919,12.936490159339654L110.13908116178068,11.515151515151503" />
    <path stroke="orange" d="M866.8109391965255,220.63451902564867L864.307753126942,220.43802644598932C861.8045670573583,220.24153386633,856.7981949181911,219.84854870701133,853.5101896470118,219.53392901766813C850.2221843758322,219.21930932832493,848.6525459726405,218.9830551089572,846.6833693071434,218.65848155231592C844.714192641646,218.33390799567465,842.3454777138433,217.92101510175985,839.1836899824757,217.61410511144663C836.0219022511079,217.3071951211334,832.0670417161754,217.10626803442173,829.3178619969322,216.91596260191795C826.5686822776889,216.72565716941426,825.0251833741353,216.5459733911185,823.5021567267344,216.32601188853002C821.9791300793335,216.10605038594153,820.4765756880852,215.8458111590603,819.3061871378612,215.61896908880576C818.1357985876372,215.39212701855112,817.2975758784374,215.19868210492314,814.8433716161252,214.93891191814478C812.3891673538128,214.67914173136646,808.318981538388,214.35304627143782,805.8966753488227,214.0529486218661C803.4743691592575,213.7528509722944,802.6999425955519,213.47875113307967,801.5288810902066,213.24173354699758C800.3578195848613,213.00471596091543,798.7901231378765,212.80478062796598,797.2707544822418,212.56386160816484C795.751385826607,212.3229425883637,794.2803449623221,212.04103988171093,792.3313329163508,211.10696046731792C790.3823208703794,210.17288105292494,787.9553376427216,208.58662493079177,784.8238761532106,206.99939026816503C781.6924146636997,205.4121556055383,777.8564749123356,203.82394240241806,775.1860549763895,202.93305526749677C772.5156350404435,202.04216813257548,771.0107349199153,201.84860706585314,768.9670380883849,200.48053148665414C766.9233412568543,199.1124559074551,764.3408477143213,196.56986581577928,757.706899966667,192.17518790724003C751.0729522190128,187.7805099987008,740.3875502662372,181.53374427329808,734.3747449023143,178.31064721363188C728.3619395383915,175.08755015396568,727.0217307633212,174.888121760036,725.9946383925218,174.61678263410076C724.9675460217223,174.34544350816552,724.2535700551936,174.0021936502247,723.5341816067612,173.73060105477956C722.8147931583286,173.45900845933443,722.0899922279926,173.25907312638495,720.879293666006,172.93273927121302C719.6685951040193,172.60640541604107,717.9719989103824,172.15367303864673,714.3468142825254,169.55029461242955C710.7216296546685,166.94691618621243,705.1678565925913,162.1928917111725,701.5661100302428,159.66326292761713C697.9643634678945,157.13363414406174,696.3146434052745,156.8284010519909,695.1194756861219,156.57581683948072C693.9243079669692,156.32323262697057,693.1836925912838,156.12329729402106,690.0159251729816,155.2265537664367C686.8481577546795,154.32981023885228,681.2532382937605,152.736258516633,678.0238906750423,151.8141023153686C674.7945430563238,150.89194611410417,673.930767279806,150.64118543379467,672.7935217693033,150.25278343084668C671.6562762588006,149.8643814278987,670.2455610143131,149.33833810231224,667.4651465637995,148.30320860997526C664.684732113286,147.26807911763828,660.5346184567464,145.7238634585508,658.0897250092188,144.65961480743536C655.6448315616911,143.59536615631995,654.9051583231754,143.0110845131766,654.1782279705627,142.47028040904215C653.4512976179501,141.9294763049077,652.7371101512405,141.43214973978218,652.0229707527537,140.9156588310324C651.308831354267,140.39916792228266,650.5947400240032,139.86351266990866,643.2064624604784,138.645380870715C635.8181848969537,137.42724907152137,621.755721100168,135.5266407255081,611.9494629109646,133.44109721039095C602.1432047217613,131.35555369527378,596.5931521401402,129.08507501105274,589.6873353303253,127.84955059701208C582.7815185205102,126.61402618297141,574.5199374825012,126.4134560391111,567.2100784178907,126.21773408561023C559.9002193532801,126.0220121321094,553.5420822620682,125.83113836896798,544.1109004165131,125.53466387791902C534.6797185709579,125.23818938687005,522.1754919710596,124.83611416791352,514.2955870437094,123.58006540782986C506.41568211635905,122.3240166477462,503.1600988615567,120.21399434653544,499.5504258492444,119.05235539428317C495.94075283693206,117.89071644203092,491.97699006710985,117.6774608387372,488.06576105814537,114.8842979151941C484.1545320491808,112.09113499165096,480.29583680107413,106.71806474785846,477.90858676650345,103.96899078122594C475.52133673193276,101.21991681459342,474.60553191089804,101.09483912512086,470.03316294988866,100.92128320248128C465.4607939888793,100.74772727984168,457.23186088789527,100.52569312403507,451.1540432524378,100.1029296484628C445.07622561698037,99.68016617289055,441.1495234470496,99.05667337755263,437.18770263343436,95.21920293565675C433.2258818198191,91.38173249376085,429.22894236251955,84.33028440530698,425.26612172986705,80.56693420625164C421.3033010972145,76.80358400719632,417.37459928920913,76.32833169753951,413.73617667275283,75.90479603668193C410.0977540562965,75.48126037582433,406.7496106313892,75.10944136376595,402.6910477122727,74.82356419126201C398.6324847931562,74.53768701875809,393.86350237983055,74.3377516858086,388.2329691725309,74.14053103108854C382.6024359652313,73.9433103763685,376.1103519639577,73.7488043998779,369.9652388163758,72.89590659308304C363.8201256687939,72.04300878628818,358.0219833749035,70.53171914918909,352.34018060100965,69.62531893045202C346.65837782711577,68.71891871171495,341.0929145732182,68.41740791133992,337.0193735958317,67.9364622673052C332.9458326184452,67.45551662327047,330.36421391756977,66.79513613557604,320.42847916303884,60.85015730734599C310.49274440850803,54.90517847911593,293.20289360032166,43.67560131035024,280.92431846622145,37.44000199957576C268.6457433321212,31.204402688801284,261.37844387210714,29.96278123601803,247.81060208943654,27.365865516265952C234.24276030676594,24.76894979651387,214.37437620143885,20.816739809792974,190.37903232638678,17.480390862452545C166.3836884513347,14.144041915112117,138.2613848065577,11.423554007152157,124.20023298416919,10.063310053172179L110.13908116178068,8.703066099192199" />
  </g>
  
  <g class="axis y" stroke="black" fill="none" stroke-dasharray="4 6">
    <path d="M 0,285 h900" /><path d="M 0,190 h900" /><path d="M 0,95 h900" />
  </g>
  <g
    class="axis x"
    stroke="black" fill="none"
    transform="translate(0, 380)">
  
  <path d="M0,0 h900" />
  <g transform="translate(82, 0)">
      <text text-anchor="middle"
      fill="black"
      stroke="none"
      transform="translate(0, 12)">Mar</text>
      <path d="M0,0 v-5" />
    </g><g transform="translate(173, 0)">
      <text text-anchor="middle"
      fill="black"
      stroke="none"
      transform="translate(0, 12)">Apr</text>
      <path d="M0,0 v-5" />
    </g><g transform="translate(261, 0)">
      <text text-anchor="middle"
      fill="black"
      stroke="none"
      transform="translate(0, 12)">May</text>
      <path d="M0,0 v-5" />
    </g><g transform="translate(352, 0)">
      <text text-anchor="middle"
      fill="black"
      stroke="none"
      transform="translate(0, 12)">Jun</text>
      <path d="M0,0 v-5" />
    </g><g transform="translate(440, 0)">
      <text text-anchor="middle"
      fill="black"
      stroke="none"
      transform="translate(0, 12)">Jul</text>
      <path d="M0,0 v-5" />
    </g><g transform="translate(530, 0)">
      <text text-anchor="middle"
      fill="black"
      stroke="none"
      transform="translate(0, 12)">Aug</text>
      <path d="M0,0 v-5" />
    </g><g transform="translate(621, 0)">
      <text text-anchor="middle"
      fill="black"
      stroke="none"
      transform="translate(0, 12)">Sep</text>
      <path d="M0,0 v-5" />
    </g><g transform="translate(709, 0)">
      <text text-anchor="middle"
      fill="black"
      stroke="none"
      transform="translate(0, 12)">Oct</text>
      <path d="M0,0 v-5" />
    </g><g transform="translate(800, 0)">
      <text text-anchor="middle"
      fill="black"
      stroke="none"
      transform="translate(0, 12)">Nov</text>
      <path d="M0,0 v-5" />
    </g><g transform="translate(888, 0)">
      <text text-anchor="middle"
      fill="black"
      stroke="none"
      transform="translate(0, 12)">Dec</text>
      <path d="M0,0 v-5" />
    </g>
  
  </g>
</svg>