<svg xmlns="http://www.w3.org/2000/svg"
  viewBox="0 0 900 400"
  width="900"
  height="400">
  <style>
    text {
      font-family: "Courier New", Courier, monospace;
      font-size: 12px;
    }
  </style>
  <g class="lines" fill="none">
    <path stroke="darkblue" d="M831.3607491856677,170.5511811023622L830.5779501828555,170.65216766735327C829.795151180043,170.75315423234431,828.2295531744185,170.95512736232646,826.6844274249466,171.58098500674427C825.1393016754747,172.2068426511621,823.6146481821556,173.25658481001562,822.4221605298608,173.88244245443343C821.2296728775658,174.50830009885127,820.3693510662952,174.71027322883342,817.893047701912,175.33613087325125C815.4167443375287,175.96198851766906,811.3244594200329,177.01173067652257,808.8800541283968,178.0614728353761C806.4356488367606,179.1112149942296,805.639123170984,180.16095715308313,804.4459625635678,180.78681479750094C803.2528019561518,181.41267244191877,801.663006407096,181.61464557190092,800.1215386493903,181.81661870188304C798.5800708916846,182.01859183186517,797.0869309253288,182.22056496184732,795.1158197772866,182.84642260626515C793.1447086292443,183.47228025068296,790.6956262995154,184.52202240953648,787.5420657079336,185.02009134004356C784.3885051163517,185.51816027055062,780.5304662629168,185.4645559727112,777.8379472248998,185.53874038878257C775.1454281868828,185.61292480485392,773.6184289642838,185.81489793483604,771.5526330306824,186.31700842745553C769.4868370970809,186.819118920075,766.882244452477,187.6213667753319,760.2261976027518,192.264502908977C753.5701507530266,196.90763904262215,742.86264969818,205.39166345465557,736.8277452321863,209.73466222566336C730.7928407661924,214.07766099667114,729.4305328890514,214.27963412665326,728.381341416181,214.48160725663539C727.3321499433106,214.68358038661754,726.596074874711,214.88555351659963,725.8545873242075,215.08752664658178C725.1130997737042,215.28949977656387,724.366199741297,215.49147290654602,723.1334020772397,216.02867192175404C721.9006044131821,216.56587093696203,720.1819091174743,217.43829583739594,716.5346253875464,217.97549485260393C712.8873416576184,218.51269386781198,707.3114694934706,218.7146669977941,703.6876238290511,219.25939917896224C700.0637781646318,219.80413136013036,698.3919589999409,220.69162259248455,697.1746921787172,221.2363547736527C695.9574253574938,221.78108695482084,695.1947108797373,221.983060084803,692.0048443593643,222.78990212864278C688.8149778389912,223.59674417248257,683.1979592760014,225.00845513018007,679.946512555212,225.81529717401986C676.6950658344228,226.6221392178597,675.8091909558341,226.82411234784183,674.6498463432605,227.63095439168163C673.4905017306869,228.43779643552145,672.0576873841285,229.84950739321891,669.2551738315441,231.49644515074996C666.4526602789596,233.14338290828096,662.2804475203491,235.02554746564556,659.8134549707505,237.26391260561516C657.346462421152,239.50227774558482,656.5846900805653,242.09684346815956,655.8356606258817,244.09326104258614C655.0866311711981,246.0896786170127,654.3503446024175,247.4879480432911,653.6141061018599,248.88621746956952C652.8778676013022,250.28448689584798,652.1416771689674,251.68275632212644,644.7313005033717,254.27732204470112C637.320923837776,256.87188776727584,623.2363609389195,260.6627497861469,613.4080036476452,263.2573155087216C603.579646356371,265.8518812312963,598.007494672679,267.2501506575747,591.0795787607931,268.050271935705C584.1516628489071,268.8503932138353,575.8679827088272,269.05236634381737,568.5360245421458,269.2543394737995C561.2040663754643,269.45631260378167,554.8238301821815,269.65828573376376,545.3705492345554,270.2113458202677C535.9172682869294,270.7644059067715,523.3909425849602,271.6685529497972,515.488938555539,273.3919028913735C507.5869345261178,275.1152528329498,504.3092521692445,277.6578056730769,500.67748005486123,279.0300686581315C497.04570794047805,280.4023316431861,493.0598460685848,280.60430477316817,489.1265179575494,282.561712685759C485.19318984651403,284.51912059834984,481.31239549633636,288.2319632935493,478.90304635969477,290.18937120614015C476.4936972230532,292.146779118731,475.55579329994754,292.3487522487131,470.96132523686725,292.8246230043505C466.36685717378697,293.3004937599879,458.11582497073204,294.05026214128054,452.0159082332037,294.52613289691794C445.91599149567537,295.0020036525553,441.96719022367364,295.20397678253744,437.98327030798754,296.55133998344155C433.9993503923013,297.8987031843457,429.9803118329308,300.39145645617174,425.99539209820733,301.7388196570759C422.01047236348387,303.08618285798,418.05967145340765,303.28815598796217,414.3991497348804,303.49012911794426C410.73862801635306,303.6921022479264,407.36838548937493,303.89407537790856,403.2877234681875,304.09604850789066C399.20706144700006,304.2980216378728,394.4159799316035,304.49999476785496,388.7633476222329,304.70196789783705C383.1107153128624,304.9039410278192,376.5965322095179,305.10591415780135,370.4293199598651,305.8805823232444C364.2621077102122,306.6552504886875,358.441866314251,308.00261368959167,352.73796443828616,308.77728185503474C347.03406256232137,309.5519500204778,341.44650020635294,309.75392315045997,337.3508601268955,310.4177471154913C333.2552200474381,311.0815710805226,330.6515022444917,312.2072458806031,320.6936683878899,317.5018942183943C310.73583453128805,322.79654255618544,293.4238846210308,332.2601644316873,281.1232103848597,338.1488916677784C268.8225361486886,344.0376189038695,261.5331375866036,346.3514515005498,247.94319670186204,349.38407963860635C234.35325581712053,352.41670777666286,214.4627726097225,356.1681314560955,190.4453296325995,359.4713921873652C166.42788665547653,362.77465291863496,138.2834839086286,365.6297507017418,124.21128253520465,367.0572995932951L110.13908116178068,368.4848484848485" />
    <path stroke="blue" d="M831.3607491856677,160.93013283616872L830.5779501828555,161.02733705938505C829.795151180043,161.1245412826014,828.2295531744185,161.31894972903407,826.6844274249466,161.55363589975943C825.1393016754747,161.78832207048478,823.6146481821556,162.06328596550284,822.4221605298608,162.30485270389434C821.2296728775658,162.5464194422858,820.3693510662952,162.7545890240507,817.893047701912,163.0290838789659C815.4167443375287,163.3035787338811,811.3244594200329,163.64439886194666,808.8800541283968,163.95922117965523C806.4356488367606,164.2740434973638,805.639123170984,164.5628680047154,804.4459625635678,164.81461025893438C803.2528019561518,165.06635251315336,801.663006407096,165.28101251423973,800.1215386493903,165.53665620217774C798.5800708916846,165.79229989011577,797.0869309253288,166.08892726490544,795.1158197772866,167.03773134743528C793.1447086292443,167.98653542996516,790.6956262995154,169.58751622023522,787.5420657079336,171.18947555099882C784.3885051163517,172.7914348817624,780.5304662629168,174.39437275301955,777.8379472248998,175.29998455607776C775.1454281868828,176.2055963591359,773.6184289642838,176.41388209399508,771.5526330306824,177.796682341331C769.4868370970809,179.17948258866696,766.882244452477,181.73679734847963,760.2261976027518,186.14619992515574C753.5701507530266,190.55560250183188,742.86264969818,196.81709289537147,736.8277452321863,200.05491462317454C730.7928407661924,203.2927363509776,729.4305328890514,203.50688941304415,728.381341416181,203.79295320711628C727.3321499433106,204.0790170011884,726.596074874711,204.4369915272661,725.8545873242075,204.72330879084814C725.1130997737042,205.00962605443013,724.366199741297,205.2242860555165,723.1334020772397,205.5653445788253C721.9006044131821,205.90640310213413,720.1819091174743,206.37386014766537,716.5346253875464,208.9919632420194C712.8873416576184,211.61006633637342,707.3114694934706,216.3788154795502,703.6876238290511,218.9231689312425C700.0637781646318,221.4675223829347,698.3919589999409,221.78748014314246,697.1746921787172,222.05478902378948C695.9574253574938,222.32209790443653,695.1947108797373,222.5367579055229,692.0048443593643,223.44822610124422C688.8149778389912,224.35969429696544,683.1979592760014,225.96797068732158,679.946512555212,226.90485155672286C676.6950658344228,227.84173242612417,675.8091909558341,228.10721777457056,674.6498463432605,228.51034444565542C673.4905017306869,228.9134711167403,672.0576873841285,229.45423911046365,669.2551738315441,230.50409327093755C666.4526602789596,231.5539474314114,662.2804475203491,233.11288775863576,659.8134549707505,234.19186107788803C657.346462421152,235.27083439714033,656.5846900805653,235.86984070842058,655.8356606258817,236.42536948069187C655.0866311711981,236.98089825296321,654.3503446024175,237.49294948622563,653.6141061018599,238.02416506311226C652.8778676013022,238.55538063999893,652.1416771689674,239.10576056050982,644.7313005033717,240.33861702784031C637.320923837776,241.57147349517086,623.2363609389195,243.486806509321,613.4080036476452,245.58707469257502C603.579646356371,247.68734287582905,598.007494672679,249.97254622818696,591.0795787607931,251.22279531036452C584.1516628489071,252.47304439254208,575.8679827088272,252.68833920453926,568.5360245421458,252.898785826177C561.2040663754643,253.10923244781475,554.8238301821815,253.31483087909302,545.3705492345554,253.62603003827886C535.9172682869294,253.9372291974647,523.3909425849602,254.3540290845581,515.488938555539,255.6248025127787C507.5869345261178,256.8955759409992,504.3092521692445,259.02032291034686,500.67748005486123,260.19668653073603C497.04570794047805,261.37305015112514,493.0598460685848,261.60103042255577,489.1265179575494,264.4089180142357C485.19318984651403,267.2168056059157,481.31239549633636,272.6046005178451,478.90304635969477,275.36839915261453C476.4936972230532,278.132197787384,475.55579329994754,278.2720001449934,470.96132523686725,278.4602807357698C466.36685717378697,278.6485613265463,458.11582497073204,278.8853201504898,452.0159082332037,279.32280829419886C445.91599149567537,279.76029643790804,441.96719022367364,280.39851390138284,437.98327030798754,284.2507090114156C433.9993503923013,288.1029041214484,429.9803118329308,295.1690768780391,425.99539209820733,298.94715174523134C422.01047236348387,302.72522661242357,418.05967145340765,303.21520359021724,414.3991497348804,303.65346391921173C410.73862801635306,304.09172424820616,407.36838548937493,304.47826792840146,403.2877234681875,304.7788697690423C399.20706144700006,305.079471609683,394.4159799316035,305.2941316107694,388.7633476222329,305.50607693362633C383.1107153128624,305.71802225648327,376.5965322095179,305.9272529011107,370.4293199598651,306.79487537604246C364.2621077102122,307.6624978509742,358.441866314251,309.18851215621015,352.73796443828616,310.10963704308415C347.03406256232137,311.0307619299581,341.44650020635294,311.34699739847,337.3508601268955,311.84266771064165C333.2552200474381,312.3383380228133,330.6515022444917,313.01344317864454,320.6936683878899,318.9731466750115C310.73583453128805,324.93285017137845,293.4238846210308,336.177152008281,281.1232103848597,342.42747598719234C268.8225361486886,348.6777999661037,261.5331375866036,349.93414608702386,247.94319670186204,352.5457864749128C234.35325581712053,355.15742686280174,214.4627726097225,359.1243615176595,190.4453296325995,362.47543513313684C166.42788665547653,365.8265087486141,138.2834839086286,368.561721324711,124.21128253520465,369.9293276127594L110.13908116178068,371.2969339008078" />
    
    <path stroke="darkorange" d="M831.3607491856677,209.4488188976378L830.5779501828555,209.3478323326468C829.795151180043,209.24684576765569,828.2295531744185,209.04487263767354,826.6844274249466,208.41901499325573C825.1393016754747,207.7931573488379,823.6146481821556,206.74341518998438,822.4221605298608,206.11755754556657C821.2296728775658,205.49169990114873,820.3693510662952,205.28972677116658,817.893047701912,204.66386912674875C815.4167443375287,204.03801148233094,811.3244594200329,202.98826932347743,808.8800541283968,201.9385271646239C806.4356488367606,200.8887850057704,805.639123170984,199.83904284691684,804.4459625635678,199.21318520249903C803.2528019561518,198.58732755808117,801.663006407096,198.38535442809905,800.1215386493903,198.18338129811693C798.5800708916846,197.98140816813478,797.0869309253288,197.77943503815266,795.1158197772866,197.15357739373485C793.1447086292443,196.52771974931701,790.6956262995154,195.47797759046352,787.5420657079336,194.97990865995646C784.3885051163517,194.48183972944943,780.5304662629168,194.5354440272888,777.8379472248998,194.46125961121743C775.1454281868828,194.38707519514605,773.6184289642838,194.18510206516393,771.5526330306824,193.68299157254447C769.4868370970809,193.18088107992494,766.882244452477,192.3786332246681,760.2261976027518,187.73549709102295C753.5701507530266,183.09236095737785,742.86264969818,174.60833654534443,736.8277452321863,170.26533777433664C730.7928407661924,165.9223390033289,729.4305328890514,165.72036587334676,728.381341416181,165.51839274336464C727.3321499433106,165.31641961338252,726.596074874711,165.11444648340037,725.8545873242075,164.91247335341825C725.1130997737042,164.71050022343613,724.366199741297,164.50852709345398,723.1334020772397,163.97132807824596C721.9006044131821,163.43412906303794,720.1819091174743,162.56170416260406,716.5346253875464,162.02450514739604C712.8873416576184,161.48730613218802,707.3114694934706,161.2853330022059,703.6876238290511,160.74060082103776C700.0637781646318,160.1958686398696,698.3919589999409,159.30837740751542,697.1746921787172,158.76364522634728C695.9574253574938,158.2189130451791,695.1947108797373,158.01693991519699,692.0048443593643,157.2100978713572C688.8149778389912,156.40325582751737,683.1979592760014,154.9915448698199,679.946512555212,154.1847028259801C676.6950658344228,153.3778607821403,675.8091909558341,153.17588765215817,674.6498463432605,152.36904560831837C673.4905017306869,151.56220356447855,672.0576873841285,150.15049260678109,669.2551738315441,148.50355484925004C666.4526602789596,146.85661709171902,662.2804475203491,144.97445253435447,659.8134549707505,142.73608739438484C657.346462421152,140.49772225441518,656.5846900805653,137.90315653184044,655.8356606258817,135.90673895741386C655.0866311711981,133.9103213829873,654.3503446024175,132.5120519567089,653.6141061018599,131.11378253043046C652.8778676013022,129.71551310415202,652.1416771689674,128.3172436778736,644.7313005033717,125.72267795529886C637.320923837776,123.12811223272415,623.2363609389195,119.33725021385312,613.4080036476452,116.74268449127844C603.579646356371,114.1481187687037,598.007494672679,112.74984934242526,591.0795787607931,111.949728064295C584.1516628489071,111.14960678616472,575.8679827088272,110.94763365618259,568.5360245421458,110.74566052620047C561.2040663754643,110.54368739621833,554.8238301821815,110.3417142662362,545.3705492345554,109.78865417973232C535.9172682869294,109.23559409322847,523.3909425849602,108.33144705020284,515.488938555539,106.60809710862651C507.5869345261178,104.88474716705018,504.3092521692445,102.34219432692312,500.67748005486123,100.96993134186853C497.04570794047805,99.59766835681394,493.0598460685848,99.39569522683182,489.1265179575494,97.438287314241C485.19318984651403,95.48087940165017,481.31239549633636,91.76803670645064,478.90304635969477,89.8106287938598C476.4936972230532,87.853220881269,475.55579329994754,87.65124775128686,470.96132523686725,87.17537699564947C466.36685717378697,86.6995062400121,458.11582497073204,85.94973785871946,452.0159082332037,85.47386710308207C445.91599149567537,84.9979963474447,441.96719022367364,84.79602321746256,437.98327030798754,83.44866001655845C433.9993503923013,82.10129681565434,429.9803118329308,79.60854354382822,425.99539209820733,78.2611803429241C422.01047236348387,76.91381714202,418.05967145340765,76.71184401203787,414.3991497348804,76.50987088205574C410.73862801635306,76.3078977520736,407.36838548937493,76.10592462209148,403.2877234681875,75.90395149210934C399.20706144700006,75.7019783621272,394.4159799316035,75.50000523214509,388.7633476222329,75.29803210216295C383.1107153128624,75.09605897218081,376.5965322095179,74.89408584219869,370.4293199598651,74.11941767675557C364.2621077102122,73.34474951131246,358.441866314251,71.99738631040834,352.73796443828616,71.22271814496524C347.03406256232137,70.44804997952211,341.44650020635294,70.24607684953999,337.3508601268955,69.58225288450866C333.2552200474381,68.91842891947735,330.6515022444917,67.79275411939685,320.6936683878899,62.498105781605666C310.73583453128805,57.2034574438145,293.4238846210308,47.73983556831266,281.1232103848597,41.85110833222158C268.8225361486886,35.96238109613051,261.5331375866036,33.64854849945021,247.94319670186204,30.615920361393716C234.35325581712053,27.583292223337224,214.4627726097225,23.831868543904545,190.4453296325995,20.528607812634814C166.42788665547653,17.22534708136508,138.2834839086286,14.370249298258292,124.21128253520465,12.942700406704896L110.13908116178068,11.515151515151503" />
    <path stroke="orange" d="M831.3607491856677,219.06986716383128L830.5779501828555,218.97266294061492C829.795151180043,218.87545871739863,828.2295531744185,218.68105027096598,826.6844274249466,218.44636410024063C825.1393016754747,218.21167792951522,823.6146481821556,217.93671403449716,822.4221605298608,217.6951472961057C821.2296728775658,217.4535805577142,820.3693510662952,217.24541097594934,817.893047701912,216.9709161210341C815.4167443375287,216.6964212661189,811.3244594200329,216.35560113805334,808.8800541283968,216.04077882034474C806.4356488367606,215.7259565026362,805.639123170984,215.4371319952846,804.4459625635678,215.1853897410656C803.2528019561518,214.93364748684664,801.663006407096,214.71898748576027,800.1215386493903,214.46334379782226C798.5800708916846,214.20770010988426,797.0869309253288,213.91107273509456,795.1158197772866,212.96226865256472C793.1447086292443,212.01346457003487,790.6956262995154,210.41248377976478,787.5420657079336,208.81052444900118C784.3885051163517,207.2085651182376,780.5304662629168,205.60562724698048,777.8379472248998,204.7000154439223C775.1454281868828,203.7944036408641,773.6184289642838,203.58611790600492,771.5526330306824,202.203317658669C769.4868370970809,200.82051741133304,766.882244452477,198.2632026515204,760.2261976027518,193.85380007484426C753.5701507530266,189.44439749816812,742.86264969818,183.18290710462853,736.8277452321863,179.94508537682546C730.7928407661924,176.7072636490224,729.4305328890514,176.49311058695582,728.381341416181,176.20704679288372C727.3321499433106,175.92098299881158,726.596074874711,175.5630084727339,725.8545873242075,175.27669120915186C725.1130997737042,174.99037394556987,724.366199741297,174.7757139444835,723.1334020772397,174.4346554211747C721.9006044131821,174.09359689786587,720.1819091174743,173.62613985233463,716.5346253875464,171.0080367579806C712.8873416576184,168.38993366362658,707.3114694934706,163.6211845204498,703.6876238290511,161.0768310687575C700.0637781646318,158.53247761706527,698.3919589999409,158.21251985685754,697.1746921787172,157.9452109762105C695.9574253574938,157.67790209556344,695.1947108797373,157.4632420944771,692.0048443593643,156.55177389875584C688.8149778389912,155.64030570303456,683.1979592760014,154.03202931267836,679.946512555212,153.09514844327708C676.6950658344228,152.1582675738758,675.8091909558341,151.89278222542941,674.6498463432605,151.48965555434455C673.4905017306869,151.08652888325966,672.0576873841285,150.5457608895363,669.2551738315441,149.49590672906245C666.4526602789596,148.4460525685886,662.2804475203491,146.88711224136424,659.8134549707505,145.80813892211197C657.346462421152,144.72916560285967,656.5846900805653,144.13015929157942,655.8356606258817,143.5746305193081C655.0866311711981,143.01910174703679,654.3503446024175,142.50705051377437,653.6141061018599,141.97583493688774C652.8778676013022,141.44461936000107,652.1416771689674,140.89423943949018,644.7313005033717,139.66138297215966C637.320923837776,138.42852650482914,623.2363609389195,136.51319349067901,613.4080036476452,134.41292530742498C603.579646356371,132.31265712417095,598.007494672679,130.02745377181301,591.0795787607931,128.77720468963548C584.1516628489071,127.52695560745792,575.8679827088272,127.31166079546072,568.5360245421458,127.101214173823C561.2040663754643,126.89076755218525,554.8238301821815,126.68516912090699,545.3705492345554,126.37396996172116C535.9172682869294,126.0627708025353,523.3909425849602,125.64597091544188,515.488938555539,124.37519748722134C507.5869345261178,123.1044240590008,504.3092521692445,120.97967708965315,500.67748005486123,119.80331346926403C497.04570794047805,118.62694984887487,493.0598460685848,118.39896957744428,489.1265179575494,115.59108198576428C485.19318984651403,112.78319439408428,481.31239549633636,107.3953994821549,478.90304635969477,104.63160084738549C476.4936972230532,101.86780221261608,475.55579329994754,101.72799985500666,470.96132523686725,101.5397192642302C466.36685717378697,101.35143867345374,458.11582497073204,101.11467984951025,452.0159082332037,100.67719170580112C445.91599149567537,100.23970356209196,441.96719022367364,99.60148609861717,437.98327030798754,95.74929098858439C433.9993503923013,91.89709587855162,429.9803118329308,84.83092312196088,425.99539209820733,81.05284825476866C422.01047236348387,77.27477338757645,418.05967145340765,76.78479640978277,414.3991497348804,76.34653608078828C410.73862801635306,75.90827575179382,407.36838548937493,75.52173207159856,403.2877234681875,75.22113023095775C399.20706144700006,74.92052839031693,394.4159799316035,74.70586838923059,388.7633476222329,74.49392306637365C383.1107153128624,74.28197774351673,376.5965322095179,74.07274709888924,370.4293199598651,73.2051246239575C364.2621077102122,72.33750214902578,358.441866314251,70.81148784378979,352.73796443828616,69.89036295691585C347.03406256232137,68.9692380700419,341.44650020635294,68.65300260152999,337.3508601268955,68.15733228935837C333.2552200474381,67.66166197718677,330.6515022444917,66.98655682135548,320.6936683878899,61.02685332498854C310.73583453128805,55.0671498286216,293.4238846210308,43.82284799171904,281.1232103848597,37.572524012807676C268.8225361486886,31.32220003389632,261.5331375866036,30.065853912976184,247.94319670186204,27.454213525087226C234.35325581712053,24.84257313719827,214.4627726097225,20.87563848234049,190.4453296325995,17.524564866863184C166.42788665547653,14.173491251385876,138.2834839086286,11.438278675289036,124.21128253520465,10.070672387240618L110.13908116178068,8.703066099192199" />
  </g>
  
  <g class="axis y" stroke="black" fill="none" stroke-dasharray="4 6">
    <path d="M 0,285 h900" /><path d="M 0,190 h900" /><path d="M 0,95 h900" />
  </g>
  <g
    class="axis x"
    stroke="black" fill="none"
    transform="translate(0, 380)">
  
  <path d="M0,0 h900" />
  <g transform="translate(82, 0)">
      <text text-anchor="middle"
      fill="black"
      stroke="none"
      transform="translate(0, 12)">Mar</text>
      <path d="M0,0 v-5" />
    </g><g transform="translate(173, 0)">
      <text text-anchor="middle"
      fill="black"
      stroke="none"
      transform="translate(0, 12)">Apr</text>
      <path d="M0,0 v-5" />
    </g><g transform="translate(261, 0)">
      <text text-anchor="middle"
      fill="black"
      stroke="none"
      transform="translate(0, 12)">May</text>
      <path d="M0,0 v-5" />
    </g><g transform="translate(352, 0)">
      <text text-anchor="middle"
      fill="black"
      stroke="none"
      transform="translate(0, 12)">Jun</text>
      <path d="M0,0 v-5" />
    </g><g transform="translate(440, 0)">
      <text text-anchor="middle"
      fill="black"
      stroke="none"
      transform="translate(0, 12)">Jul</text>
      <path d="M0,0 v-5" />
    </g><g transform="translate(530, 0)">
      <text text-anchor="middle"
      fill="black"
      stroke="none"
      transform="translate(0, 12)">Aug</text>
      <path d="M0,0 v-5" />
    </g><g transform="translate(621, 0)">
      <text text-anchor="middle"
      fill="black"
      stroke="none"
      transform="translate(0, 12)">Sep</text>
      <path d="M0,0 v-5" />
    </g><g transform="translate(709, 0)">
      <text text-anchor="middle"
      fill="black"
      stroke="none"
      transform="translate(0, 12)">Oct</text>
      <path d="M0,0 v-5" />
    </g><g transform="translate(800, 0)">
      <text text-anchor="middle"
      fill="black"
      stroke="none"
      transform="translate(0, 12)">Nov</text>
      <path d="M0,0 v-5" />
    </g><g transform="translate(888, 0)">
      <text text-anchor="middle"
      fill="black"
      stroke="none"
      transform="translate(0, 12)">Dec</text>
      <path d="M0,0 v-5" />
    </g>
  
  </g>
</svg>