<svg xmlns="http://www.w3.org/2000/svg"
  viewBox="0 0 600 400"
  width="600"
  height="400">
  <style>
    text {
      font-family: "Courier New", Courier, monospace;
      font-size: 12px;
    }
  </style>
  <g class="lines" fill="none">
    <path stroke="darkorange" d="M596.9321461327028,175.3846153846154L590.1826659811096,183.7362637362637L563.6154323488585,212.96703296703296L560.2929899770623,212.96703296703296L560.2929899770623,212.96703296703296L559.1793565154047,215.33333333333331L544.7882589086804,215.33333333333331L542.573297327483,217.75280898876406L542.573297327483,217.75280898876406L529.2835278402986,222.02247191011236L529.2835278402986,222.02247191011236L527.0685662591011,226.2921348314607L518.2087199343115,240.66666666666666L518.2087199343115,232.22222222222223L518.2087199343115,249.11111111111111L518.2087199343115,244.88888888888886L404.0874902386677,268.47826086956525L397.30957961955664,276.7391304347826L388.64320916343934,276.7391304347826L380.2570159656659,289.1304347826087L379.71845215897855,289.1304347826087L359.678407800189,291.06382978723406L351.1108646229551,291.06382978723406L342.356023884237,299.1489361702128L333.78314839208537,299.1489361702128L326.7584131189954,299.1489361702128L315.9448117355873,299.1489361702128L300.5363186970181,299.1489361702128L286.97831838779575,303.1914893617021L274.0407893187322,303.1914893617021L269.06009955204985,306.4516129032258L224.85784940566722,339.13978494623655L207.38213579970198,346.5934065934066L155.04731068381892,359.1208791208791L83.21536315783386,368.4848484848485" />
    <path stroke="orange" d="M596.9321461327028,174.49178089983508L590.1826659811096,180.08330840825516L563.6154323488585,201.42506273456064L560.2929899770623,201.42327353802014L560.2929899770623,201.92908950857773L559.1793565154047,202.8213143713244L544.7882589086804,218.89457016693765L542.573297327483,219.26620931677775L542.573297327483,219.26620931677775L529.2835278402986,224.36423897547127L529.2835278402986,224.18485539655353L527.0685662591011,225.51520836124885L518.2087199343115,231.6162435483025L518.2087199343115,230.25972715938298L518.2087199343115,233.85075349512803L518.2087199343115,232.665859661865L404.0874902386677,247.8446222884637L397.30957961955664,254.5861057058565L388.64320916343934,254.63311842471853L380.2570159656659,272.8912416394586L379.71845215897855,272.62703819189295L359.678407800189,272.705034037271L351.1108646229551,274.1999427280537L342.356023884237,298.3817524533633L333.78314839208537,299.35345942997736L326.7584131189954,299.9601077091852L315.9448117355873,299.9601077091852L300.5363186970181,299.9409452746244L286.97831838779575,304.56925458338776L274.0407893187322,304.927756233125L269.06009955204985,306.5528567792836L224.85784940566722,345.4810044351055L207.38213579970198,349.15754368157764L155.04731068381892,362.40086598900615L83.21536315783386,371.2969339008078" />
    
    <path stroke="darkblue" d="M596.9321461327028,204.6153846153846L590.1826659811096,196.2637362637363L563.6154323488585,167.03296703296704L560.2929899770623,167.03296703296704L560.2929899770623,167.03296703296704L559.1793565154047,164.66666666666669L544.7882589086804,164.66666666666669L542.573297327483,162.24719101123594L542.573297327483,162.24719101123594L529.2835278402986,157.97752808988764L529.2835278402986,157.97752808988764L527.0685662591011,153.7078651685393L518.2087199343115,139.33333333333334L518.2087199343115,147.77777777777777L518.2087199343115,130.88888888888889L518.2087199343115,135.11111111111114L404.0874902386677,111.52173913043477L397.30957961955664,103.26086956521739L388.64320916343934,103.26086956521739L380.2570159656659,90.86956521739128L379.71845215897855,90.86956521739128L359.678407800189,88.93617021276596L351.1108646229551,88.93617021276596L342.356023884237,80.85106382978722L333.78314839208537,80.85106382978722L326.7584131189954,80.85106382978722L315.9448117355873,80.85106382978722L300.5363186970181,80.85106382978722L286.97831838779575,76.80851063829788L274.0407893187322,76.80851063829788L269.06009955204985,73.5483870967742L224.85784940566722,40.86021505376345L207.38213579970198,33.406593406593416L155.04731068381892,20.87912087912089L83.21536315783386,11.515151515151505" />
    <path stroke="blue" d="M596.9321461327028,205.50821910016492L590.1826659811096,199.91669159174484L563.6154323488585,178.57493726543936L560.2929899770623,178.57672646197986L560.2929899770623,178.07091049142227L559.1793565154047,177.1786856286756L544.7882589086804,161.10542983306235L542.573297327483,160.73379068322225L542.573297327483,160.73379068322225L529.2835278402986,155.63576102452873L529.2835278402986,155.81514460344647L527.0685662591011,154.48479163875115L518.2087199343115,148.3837564516975L518.2087199343115,149.74027284061702L518.2087199343115,146.14924650487197L518.2087199343115,147.334140338135L404.0874902386677,132.1553777115363L397.30957961955664,125.4138942941435L388.64320916343934,125.36688157528147L380.2570159656659,107.1087583605414L379.71845215897855,107.37296180810708L359.678407800189,107.294965962729L351.1108646229551,105.80005727194629L342.356023884237,81.61824754663672L333.78314839208537,80.64654057002267L326.7584131189954,80.0398922908148L315.9448117355873,80.0398922908148L300.5363186970181,80.05905472537557L286.97831838779575,75.43074541661223L274.0407893187322,75.07224376687499L269.06009955204985,73.44714322071641L224.85784940566722,34.51899556489451L207.38213579970198,30.84245631842237L155.04731068381892,17.599134010993865L83.21536315783386,8.703066099192199" />
  </g>
  
  <g class="axis y" stroke="black" fill="none" stroke-dasharray="4 6">
    <path d="M 0,285 h600" /><path d="M 0,190 h600" /><path d="M 0,95 h600" />
  </g>
  <g
    class="axis x"
    stroke="black" fill="none"
    transform="translate(0, 380)">
  
  <path d="M0,0 h600" />
  <g transform="translate(62.018924273527574, 0)">
      <text text-anchor="middle"
      fill="black"
      stroke="none"
      transform="translate(0, 12)">Mar</text>
      <path d="M0,0 v-5" />
    </g><g transform="translate(130.59044322476416, 0)">
      <text text-anchor="middle"
      fill="black"
      stroke="none"
      transform="translate(0, 12)">Apr</text>
      <path d="M0,0 v-5" />
    </g><g transform="translate(197.03929066068656, 0)">
      <text text-anchor="middle"
      fill="black"
      stroke="none"
      transform="translate(0, 12)">May</text>
      <path d="M0,0 v-5" />
    </g><g transform="translate(265.70309967780634, 0)">
      <text text-anchor="middle"
      fill="black"
      stroke="none"
      transform="translate(0, 12)">Jun</text>
      <path d="M0,0 v-5" />
    </g><g transform="translate(332.1519471137288, 0)">
      <text text-anchor="middle"
      fill="black"
      stroke="none"
      transform="translate(0, 12)">Jul</text>
      <path d="M0,0 v-5" />
    </g><g transform="translate(400.81575613084857, 0)">
      <text text-anchor="middle"
      fill="black"
      stroke="none"
      transform="translate(0, 12)">Aug</text>
      <path d="M0,0 v-5" />
    </g><g transform="translate(469.47956514796834, 0)">
      <text text-anchor="middle"
      fill="black"
      stroke="none"
      transform="translate(0, 12)">Sep</text>
      <path d="M0,0 v-5" />
    </g><g transform="translate(535.9284125838908, 0)">
      <text text-anchor="middle"
      fill="black"
      stroke="none"
      transform="translate(0, 12)">Oct</text>
      <path d="M0,0 v-5" />
    </g>
  
  </g>
</svg>