<svg xmlns="http://www.w3.org/2000/svg"
  viewBox="0 0 900 400"
  width="900"
  height="400">
  <style>
    text {
      font-family: "Courier New", Courier, monospace;
      font-size: 12px;
    }
  </style>
  <g class="lines" fill="none">
    <path stroke="darkblue" d="M848.6403705211726,168.88888888888889L847.450923309063,169.2222214424623C846.2614760969533,169.55555399603568,843.8825816727343,170.2222191031825,840.71061444495,170.6533928134206C837.5386472171658,171.0845665236587,833.5736071858167,171.28024883698808,830.8142479701572,171.4759311503174C828.0548887544975,171.67161346364682,826.5012103545273,171.8672957769762,824.9680042107098,172.48686260474122C823.4347980668923,173.1064294325063,821.9220641792276,174.14988077470707,820.7414961325871,174.76944760247216C819.5609280859467,175.3890144302372,818.7125258803304,175.58469674356658,816.2481421216016,176.20426357133167C813.7837583628728,176.8238303990967,809.7033930510315,177.8672817412975,807.2709073650498,178.91073308349826C804.8384216790679,179.95418442569903,804.0538156189458,180.99763576789982,802.872574617184,181.61720259566485C801.6913336154224,182.23676942342993,800.113457672021,182.4324517367593,798.5839095199698,182.62813405008868C797.0543613679184,182.82381636341805,795.5731410072171,183.01949867674742,793.6139494648293,183.63906550451247C791.6547579224415,184.25863233227756,789.2175951983671,185.30208367447833,786.0759542124396,185.7938617883326C782.9343132265121,186.28563990218694,779.0881939787315,186.22574478769477,776.4075945463691,186.29363838711333C773.7269951140065,186.36153198653196,772.2119154970619,186.55721429986133,770.158039169115,187.05303397582807C768.104162841168,187.54885365179481,765.5114898022184,188.34481069039887,758.8673625581476,192.98165600739128C752.2232353140768,197.61850132438363,741.5276538648847,206.09623491976433,735.5046690045452,210.43294287411936C729.481684144206,214.76965082847437,728.1312958727194,214.96533314180374,727.0940240055035,215.1610154551331C726.0567521382874,215.35669776846248,725.3325966753422,215.55238008179185,724.6030287304933,215.74806239512122C723.8734607856444,215.9437447084506,723.1384803588917,216.13942702177997,721.9176023004885,216.67033522033523C720.6967242420856,217.20124341889047,718.9899485520322,218.06737750267158,715.3545844277586,218.59828570122684C711.7192203034851,219.1291938997821,706.1552677449916,219.32487621311148,702.5433416862265,219.86331757762687C698.9314156274617,220.40175894214227,697.2715160684252,221.28295935784368,696.0661688528561,221.82140072235907C694.8608216372868,222.35984208687447,694.1100267651849,222.55552440020384,690.9320798504664,223.35607562739094C687.7541329357476,224.15662685457792,682.1490339784123,225.56204699562264,678.9095068632773,226.36259822280974C675.6699797481425,227.16314944999678,674.7960244752081,227.35883176332615,673.648599468289,228.1593829905132C672.5011744613698,228.95993421770027,671.0802797204658,230.36535435874498,668.2896857735358,232.00600129962325C665.4990918266056,233.64664824050155,661.3387986736496,235.52252198121334,658.8837257297055,237.75459630453022C656.4286527857613,239.98667062784708,655.6788000508292,242.57494553376907,654.9416902018,244.56507229154292C654.2045803527708,246.55519904931668,653.4802133896446,247.94717765894234,652.7558944947414,249.339156268568C652.0315755998381,250.73113487819367,651.3073047731579,252.12311348781938,643.9088477132166,254.71138839374134C636.5103906532753,257.2996632996633,622.4377473600731,261.08423450188155,612.6213096744533,263.6725094078035C602.8048719888335,266.2607843137255,597.244639910796,267.6527629233512,590.3286436045645,268.44659338482865C583.4126472983329,269.2404238463062,575.1408867639075,269.4361061596356,567.8208482028805,269.63178847296496C560.5008096418534,269.8274707862943,554.1324930542249,270.0231530996237,544.6911317122534,270.5699223694748C535.2497703702817,271.1166916393259,522.7353642739669,272.01454786569883,514.8452798502002,273.73160699062237C506.95519542643336,275.4486661155459,503.6894326752145,277.9849281390202,500.06958016648576,279.3509003074221C496.4497276577569,280.7168724758239,492.4757853915182,280.91255478915326,488.55437688613716,282.8636718850914C484.6329683807562,284.8147889810294,480.764093636233,288.5213408595762,478.3666641052458,290.47245795551424C475.96923457425856,292.4235750514523,475.04325025680737,292.6192573647817,470.4607017993815,293.0888373037663C465.87815334195574,293.5584172427509,457.63904074455513,294.30189480739085,451.55104361268127,294.7714747463755C445.46304648080724,295.2410546853601,441.52616481445995,295.43673699868947,437.55416450442834,296.7778093829408C433.5821641943965,298.11888176719214,429.57504524068037,300.60534422236555,425.60204511161146,301.9464166066169C421.6290449825424,303.2874889908682,417.69016367812054,303.4831713041976,414.0415615652477,303.67885361752695C410.3929594523749,303.8745359308563,407.0346365310511,304.0702182441857,402.96589411551804,304.26590055751507C398.89715169998516,304.46158287084444,394.1179897902429,304.65726518417387,388.4772770865268,304.85294749750324C382.83656438281065,305.0486298108326,376.3343008851207,305.244312124162,370.1790082411222,306.01268947295233C364.0237155971238,306.7810668217427,358.215393806817,308.122139205994,352.52341153650656,308.89051655478437C346.8314292661962,309.6588939035747,341.25578651588216,309.8545762169041,337.1720660420792,310.5121093652827C333.0883455682762,311.16964251366124,330.4965473709843,312.28902649708897,320.5506331200368,317.5773840182274C310.6047188690895,322.8657415393658,293.30468856448664,332.3230725982149,281.0159339339699,338.20550901765324C268.72717930345317,344.08794543709155,261.4497003470226,346.3954872171191,247.87167906793556,349.4218245385229C234.29365778884844,352.4481618599266,214.41509418710484,356.1932947227065,190.40957081563627,359.4902646373235C166.4040474441677,362.78723455194046,138.27156430297418,365.63604151839445,124.20532273237745,367.0604450016215L110.13908116178068,368.4848484848485" />
    <path stroke="blue" d="M848.6403705211726,160.1750176077187L847.450923309063,160.38498752363915C846.2614760969533,160.5949574395596,843.8825816727343,161.01489727140049,840.71061444495,161.32885419963984C837.5386472171658,161.64281112787916,833.5736071858167,161.85078515251692,830.8142479701572,162.04813752294675C828.0548887544975,162.24548989337657,826.5012103545273,162.43222060959843,824.9680042107098,162.65922905011303C823.4347980668923,162.88623749062762,821.9220641792276,163.1535236554349,820.7414961325871,163.38741266361558C819.5609280859467,163.62130167179626,818.7125258803304,163.82179352335035,816.2481421216016,164.08861064805475C813.7837583628728,164.35542777275919,809.7033930510315,164.68857017061393,807.2709073650498,164.99571475811172C804.8384216790679,165.3028593456095,804.0538156189458,165.5840061227503,802.872574617184,165.8280706467585C801.6913336154224,166.0721351707667,800.113457672021,166.27911744164228,798.5839095199698,166.5270833993695C797.0543613679184,166.77504935709675,795.5731410072171,167.06399900167563,793.6139494648293,168.0051253539947C791.6547579224415,168.94625170631377,789.2175951983671,170.53955476637304,786.0759542124396,172.13383636692583C782.9343132265121,173.72811796747865,779.0881939787315,175.32337810852502,776.4075945463691,176.22131218137238C773.7269951140065,177.11924625421977,772.2119154970619,177.3198542588682,770.158039169115,178.6949767759933C768.104162841168,180.07009929311846,765.5114898022184,182.61973632272034,758.8673625581476,187.0214611691857C752.2232353140768,191.42318601565103,741.5276538648847,197.6769986789798,735.5046690045452,200.90714267657208C729.481684144206,204.13728667416436,728.1312958727194,204.34376200602014,727.0940240055035,204.6221480698815C726.0567521382874,204.9005341337428,725.3325966753422,205.25083092960972,724.6030287304933,205.52947046298095C723.8734607856444,205.8081099963522,723.1384803588917,206.01509226722774,721.9176023004885,206.34847306032577C720.6967242420856,206.68185385342383,718.9899485520322,207.14163316874428,715.3545844277586,209.75205853288753C711.7192203034851,212.36248389703076,706.1552677449916,217.12355530999673,702.5433416862265,219.66023103147822C698.9314156274617,222.19690675295965,697.2715160684252,222.5091867829566,696.0661688528561,222.76881793339285C694.8608216372868,223.0284490838291,694.1100267651849,223.23543135470467,690.9320798504664,224.1392218202151C687.7541329357476,225.04301228572567,682.1490339784123,226.64361094587102,678.9095068632773,227.5728140850615C675.6699797481425,228.502017224252,674.7960244752081,228.75982484248763,673.648599468289,229.1552737833617C672.5011744613698,229.5507227242358,671.0802797204658,230.08381298774836,668.2896857735358,231.12598941801141C665.4990918266056,232.1681658482745,661.3387986736496,233.71942844528806,658.8837257297055,234.79072403432954C656.4286527857613,235.86201962337108,655.6788000508292,236.45334820444052,654.9416902018,237.00119924650105C654.2045803527708,237.5490502885616,653.4802133896446,238.05342379161323,652.7558944947414,238.57696163828908C652.0315755998381,239.10049948496496,651.3073047731579,239.64320167526503,643.9088477132166,240.86838041238477C636.5103906532753,242.0935591495045,622.4377473600731,244.00121443344383,612.6213096744533,246.0938048864871C602.8048719888335,248.18639533953032,597.244639910796,250.46392096167747,590.3286436045645,251.7064923136442C583.4126472983329,252.949063665611,575.1408867639075,253.15668074739742,567.8208482028805,253.35944963882434C560.5008096418534,253.56221853025127,554.1324930542249,253.76013923131873,544.6911317122534,254.06366066029383C535.2497703702817,254.36718208926888,522.7353642739669,254.7763042461515,514.8452798502002,256.03939994416123C506.95519542643336,257.302495642171,503.6894326752145,259.4195648813079,500.06958016648576,260.58825077148623C496.4497276577569,261.7569366616646,492.4757853915182,261.9772392028844,488.55437688613716,264.7774490643536C484.6329683807562,267.5776589258228,480.764093636233,272.9577761075414,478.3666641052458,275.7138970121C475.96923457425856,278.4700179166586,475.04325025680737,278.60214254405724,470.4607017993815,278.782745404623C465.87815334195574,278.96334826518864,457.63904074455513,279.1924293589213,451.55104361268127,279.6222397724196C445.46304648080724,280.052050185918,441.52616481445995,280.682589919182,437.55416450442834,284.527107299004C433.5821641943965,288.371624678826,429.57504524068037,295.430119705206,425.60204511161146,299.2005168421874C421.6290449825424,302.9709139791688,417.69016367812054,303.4532132267517,414.0415615652477,303.8837958255354C410.3929594523749,304.31437842431905,407.0346365310511,304.6932443743035,402.96589411551804,304.9861684847335C398.89715169998516,305.27909259516355,394.1179897902429,305.48607486603913,388.4772770865268,305.6903424586853C382.83656438281065,305.8946100513314,376.3343008851207,306.0961629657481,370.1790082411222,306.95610771046904C364.0237155971238,307.81605245519,358.215393806817,309.33438903021516,352.52341153650656,310.2478361868784C346.8314292661962,311.1612833435415,341.25578651588216,311.4698410818426,337.1720660420792,311.95783366380346C333.0883455682762,312.4458262457643,330.4965473709843,313.1132536713848,320.5506331200368,319.06527943754094C310.6047188690895,325.01730520369705,293.30468856448664,336.25392931038886,281.0159339339699,342.4965755590894C268.72717930345317,348.73922180779,261.4497003470226,349.9878901984994,247.87167906793556,352.5918528561776C234.29365778884844,355.1958155138557,214.41509418710484,359.1550724385027,190.40957081563627,362.4984683237692C166.4040474441677,365.84186420903575,138.27156430297418,368.5693990549218,124.20532273237745,369.93316647786475L110.13908116178068,371.2969339008078" />
    
    <path stroke="darkorange" d="M848.6403705211726,211.1111111111111L847.450923309063,210.7777785575377C846.2614760969533,210.44444600396426,843.8825816727343,209.77778089681746,840.71061444495,209.3466071865794C837.5386472171658,208.9154334763413,833.5736071858167,208.71975116301192,830.8142479701572,208.52406884968255C828.0548887544975,208.32838653635318,826.5012103545273,208.1327042230238,824.9680042107098,207.51313739525872C823.4347980668923,206.8935705674937,821.9220641792276,205.85011922529293,820.7414961325871,205.23055239752784C819.5609280859467,204.6109855697628,818.7125258803304,204.41530325643342,816.2481421216016,203.79573642866833C813.7837583628728,203.1761696009033,809.7033930510315,202.13271825870254,807.2709073650498,201.08926691650174C804.8384216790679,200.04581557430097,804.0538156189458,199.00236423210023,802.872574617184,198.38279740433515C801.6913336154224,197.76323057657007,800.113457672021,197.5675482632407,798.5839095199698,197.37186594991132C797.0543613679184,197.17618363658195,795.5731410072171,196.98050132325258,793.6139494648293,196.3609344954875C791.6547579224415,195.74136766772244,789.2175951983671,194.69791632552165,786.0759542124396,194.2061382116674C782.9343132265121,193.71436009781306,779.0881939787315,193.7742552123052,776.4075945463691,193.70636161288658C773.7269951140065,193.638468013468,772.2119154970619,193.44278570013864,770.158039169115,192.94696602417193C768.104162841168,192.45114634820519,765.5114898022184,191.65518930960107,758.8673625581476,187.01834399260872C752.2232353140768,182.38149867561637,741.5276538648847,173.90376508023567,735.5046690045452,169.56705712588067C729.481684144206,165.23034917152566,728.1312958727194,165.0346668581963,727.0940240055035,164.83898454486692C726.0567521382874,164.64330223153755,725.3325966753422,164.44761991820815,724.6030287304933,164.25193760487878C723.8734607856444,164.0562552915494,723.1384803588917,163.86057297822003,721.9176023004885,163.32966477966477C720.6967242420856,162.79875658110953,718.9899485520322,161.93262249732837,715.3545844277586,161.4017142987731C711.7192203034851,160.87080610021786,706.1552677449916,160.6751237868885,702.5433416862265,160.13668242237307C698.9314156274617,159.5982410578577,697.2715160684252,158.7170406421563,696.0661688528561,158.17859927764087C694.8608216372868,157.6401579131255,694.1100267651849,157.44447559979614,690.9320798504664,156.64392437260906C687.7541329357476,155.84337314542202,682.1490339784123,154.4379530043773,678.9095068632773,153.63740177719026C675.6699797481425,152.83685055000322,674.7960244752081,152.64116823667385,673.648599468289,151.8406170094868C672.5011744613698,151.04006578229976,671.0802797204658,149.63464564125502,668.2896857735358,147.99399870037675C665.4990918266056,146.3533517594985,661.3387986736496,144.47747801878668,658.8837257297055,142.24540369546978C656.4286527857613,140.0133293721529,655.6788000508292,137.42505446623093,654.9416902018,135.43492770845714C654.2045803527708,133.44480095068332,653.4802133896446,132.05282234105763,652.7558944947414,130.66084373143198C652.0315755998381,129.2688651218063,651.3073047731579,127.87688651218063,643.9088477132166,125.28861160625866C636.5103906532753,122.7003367003367,622.4377473600731,118.91576549811845,612.6213096744533,116.3274905921965C602.8048719888335,113.73921568627452,597.244639910796,112.34723707664885,590.3286436045645,111.55340661517134C583.4126472983329,110.7595761536938,575.1408867639075,110.56389384036443,567.8208482028805,110.36821152703509C560.5008096418534,110.17252921370569,554.1324930542249,109.97684690037632,544.6911317122534,109.4300776305252C535.2497703702817,108.88330836067409,522.7353642739669,107.98545213430123,514.8452798502002,106.26839300937768C506.95519542643336,104.55133388445408,503.6894326752145,102.01507186097979,500.06958016648576,100.64909969257796C496.4497276577569,99.28312752417612,492.4757853915182,99.08744521084674,488.55437688613716,97.13632811490868C484.6329683807562,95.1852110189706,480.764093636233,91.47865914042383,478.3666641052458,89.52754204448577C475.96923457425856,87.5764249485477,475.04325025680737,87.38074263521833,470.4607017993815,86.9111626962337C465.87815334195574,86.44158275724908,457.63904074455513,85.69810519260919,451.55104361268127,85.22852525362457C445.46304648080724,84.75894531463993,441.52616481445995,84.56326300131056,437.55416450442834,83.22219061705921C433.5821641943965,81.88111823280785,429.57504524068037,79.3946557776345,425.60204511161146,78.05358339338314C421.6290449825424,76.71251100913177,417.69016367812054,76.5168286958024,414.0415615652477,76.32114638247303C410.3929594523749,76.12546406914366,407.0346365310511,75.92978175581429,402.96589411551804,75.73409944248492C398.89715169998516,75.53841712915555,394.1179897902429,75.34273481582618,388.4772770865268,75.1470525024968C382.83656438281065,74.95137018916742,376.3343008851207,74.75568787583805,370.1790082411222,73.98731052704768C364.0237155971238,73.21893317825733,358.215393806817,71.87786079400597,352.52341153650656,71.10948344521562C346.8314292661962,70.34110609642525,341.25578651588216,70.14542378309588,337.1720660420792,69.48789063471732C333.0883455682762,68.83035748633876,330.4965473709843,67.71097350291102,320.5506331200368,62.422615981772594C310.6047188690895,57.13425846063418,293.30468856448664,47.67692740178509,281.0159339339699,41.79449098234678C268.72717930345317,35.91205456290846,261.4497003470226,33.60451278288091,247.87167906793556,30.578175461477173C234.29365778884844,27.55183814007344,214.41509418710484,23.806705277293517,190.40957081563627,20.50973536267654C166.4040474441677,17.212765448059567,138.27156430297418,14.363958481605536,124.20532273237745,12.939554998378519L110.13908116178068,11.515151515151503" />
    <path stroke="orange" d="M848.6403705211726,219.8249823922813L847.450923309063,219.61501247636087C846.2614760969533,219.4050425604404,843.8825816727343,218.9851027285995,840.71061444495,218.67114580036014C837.5386472171658,218.35718887212082,833.5736071858167,218.14921484748308,830.8142479701572,217.95186247705325C828.0548887544975,217.75451010662346,826.5012103545273,217.56777939040157,824.9680042107098,217.340770949887C823.4347980668923,217.11376250937244,821.9220641792276,216.84647634456516,820.7414961325871,216.61258733638445C819.5609280859467,216.37869832820377,818.7125258803304,216.1782064766497,816.2481421216016,215.91138935194525C813.7837583628728,215.64457222724081,809.7033930510315,215.31142982938604,807.2709073650498,215.00428524188828C804.8384216790679,214.6971406543905,804.0538156189458,214.41599387724966,802.872574617184,214.17192935324147C801.6913336154224,213.92786482923327,800.113457672021,213.72088255835772,798.5839095199698,213.47291660063047C797.0543613679184,213.22495064290328,795.5731410072171,212.93600099832437,793.6139494648293,211.9948746460053C791.6547579224415,211.05374829368623,789.2175951983671,209.46044523362696,786.0759542124396,207.86616363307417C782.9343132265121,206.27188203252135,779.0881939787315,204.67662189147498,776.4075945463691,203.77868781862762C773.7269951140065,202.88075374578023,772.2119154970619,202.6801457411318,770.158039169115,201.3050232240067C768.104162841168,199.92990070688154,765.5114898022184,197.3802636772797,758.8673625581476,192.9785388308143C752.2232353140768,188.57681398434897,741.5276538648847,182.3230013210202,735.5046690045452,179.0928573234279C729.481684144206,175.86271332583559,728.1312958727194,175.65623799397986,727.0940240055035,175.3778519301185C726.0567521382874,175.0994658662572,725.3325966753422,174.74916907039028,724.6030287304933,174.47052953701905C723.8734607856444,174.1918900036478,723.1384803588917,173.98490773277226,721.9176023004885,173.65152693967423C720.6967242420856,173.3181461465762,718.9899485520322,172.85836683125572,715.3545844277586,170.2479414671125C711.7192203034851,167.63751610296927,706.1552677449916,162.87644469000327,702.5433416862265,160.33976896852178C698.9314156274617,157.80309324704032,697.2715160684252,157.49081321704338,696.0661688528561,157.23118206660715C694.8608216372868,156.97155091617086,694.1100267651849,156.7645686452953,690.9320798504664,155.86077817978483C687.7541329357476,154.95698771427433,682.1490339784123,153.35638905412895,678.9095068632773,152.42718591493846C675.6699797481425,151.49798277574797,674.7960244752081,151.24017515751237,673.648599468289,150.8447262166383C672.5011744613698,150.4492772757642,671.0802797204658,149.91618701225164,668.2896857735358,148.87401058198856C665.4990918266056,147.8318341517255,661.3387986736496,146.28057155471194,658.8837257297055,145.2092759656704C656.4286527857613,144.13798037662892,655.6788000508292,143.54665179555946,654.9416902018,142.99880075349893C654.2045803527708,142.4509497114384,653.4802133896446,141.9465762083868,652.7558944947414,141.42303836171092C652.0315755998381,140.89950051503507,651.3073047731579,140.35679832473497,643.9088477132166,139.13161958761523C636.5103906532753,137.9064408504955,622.4377473600731,135.99878556655617,612.6213096744533,133.90619511351292C602.8048719888335,131.81360466046968,597.244639910796,129.53607903832253,590.3286436045645,128.29350768635578C583.4126472983329,127.05093633438901,575.1408867639075,126.8433192526026,567.8208482028805,126.64055036117566C560.5008096418534,126.43778146974871,554.1324930542249,126.23986076868124,544.6911317122534,125.93633933970618C535.2497703702817,125.63281791073113,522.7353642739669,125.2236957538485,514.8452798502002,123.96060005583873C506.95519542643336,122.697504357829,503.6894326752145,120.58043511869214,500.06958016648576,119.41174922851377C496.4497276577569,118.24306333833545,492.4757853915182,118.02276079711562,488.55437688613716,115.2225509356464C484.6329683807562,112.42234107417721,480.764093636233,107.04222389245861,478.3666641052458,104.28610298789998C475.96923457425856,101.52998208334138,475.04325025680737,101.39785745594274,470.4607017993815,101.21725459537707C465.87815334195574,101.0366517348114,457.63904074455513,100.8075706410787,451.55104361268127,100.37776022758034C445.46304648080724,99.947949814082,441.52616481445995,99.31741008081798,437.55416450442834,95.472892700996C433.5821641943965,91.62837532117402,429.57504524068037,84.56988029479406,425.60204511161146,80.79948315781263C421.6290449825424,77.0290860208312,417.69016367812054,76.54678677324831,414.0415615652477,76.11620417446464C410.3929594523749,75.68562157568095,407.0346365310511,75.30675562569648,402.96589411551804,75.01383151526646C398.89715169998516,74.72090740483644,394.1179897902429,74.51392513396085,388.4772770865268,74.30965754131472C382.83656438281065,74.10538994866859,376.3343008851207,73.90383703425188,370.1790082411222,73.04389228953094C364.0237155971238,72.18394754481,358.215393806817,70.66561096978481,352.52341153650656,69.75216381312165C346.8314292661962,68.83871665645849,341.25578651588216,68.53015891815737,337.1720660420792,68.04216633619654C333.0883455682762,67.55417375423572,330.4965473709843,66.88674632861522,320.5506331200368,60.93472056245907C310.6047188690895,54.98269479630293,293.30468856448664,43.746070689611145,281.0159339339699,37.50342444091058C268.72717930345317,31.26077819221001,261.4497003470226,30.012109801500657,247.87167906793556,27.408147143822493C234.29365778884844,24.804184486144322,214.41509418710484,20.844927561497336,190.40957081563627,17.501531676230815C166.4040474441677,14.1581357909643,138.27156430297418,11.430600945078249,124.20532273237745,10.066833522135225L110.13908116178068,8.703066099192199" />
  </g>
  
  <g class="axis y" stroke="black" fill="none" stroke-dasharray="4 6">
    <path d="M 0,285 h900" /><path d="M 0,190 h900" /><path d="M 0,95 h900" />
  </g>
  <g
    class="axis x"
    stroke="black" fill="none"
    transform="translate(0, 380)">
  
  <path d="M0,0 h900" />
  <g transform="translate(82, 0)">
      <text text-anchor="middle"
      fill="black"
      stroke="none"
      transform="translate(0, 12)">Mar</text>
      <path d="M0,0 v-5" />
    </g><g transform="translate(173, 0)">
      <text text-anchor="middle"
      fill="black"
      stroke="none"
      transform="translate(0, 12)">Apr</text>
      <path d="M0,0 v-5" />
    </g><g transform="translate(261, 0)">
      <text text-anchor="middle"
      fill="black"
      stroke="none"
      transform="translate(0, 12)">May</text>
      <path d="M0,0 v-5" />
    </g><g transform="translate(352, 0)">
      <text text-anchor="middle"
      fill="black"
      stroke="none"
      transform="translate(0, 12)">Jun</text>
      <path d="M0,0 v-5" />
    </g><g transform="translate(440, 0)">
      <text text-anchor="middle"
      fill="black"
      stroke="none"
      transform="translate(0, 12)">Jul</text>
      <path d="M0,0 v-5" />
    </g><g transform="translate(530, 0)">
      <text text-anchor="middle"
      fill="black"
      stroke="none"
      transform="translate(0, 12)">Aug</text>
      <path d="M0,0 v-5" />
    </g><g transform="translate(621, 0)">
      <text text-anchor="middle"
      fill="black"
      stroke="none"
      transform="translate(0, 12)">Sep</text>
      <path d="M0,0 v-5" />
    </g><g transform="translate(709, 0)">
      <text text-anchor="middle"
      fill="black"
      stroke="none"
      transform="translate(0, 12)">Oct</text>
      <path d="M0,0 v-5" />
    </g><g transform="translate(800, 0)">
      <text text-anchor="middle"
      fill="black"
      stroke="none"
      transform="translate(0, 12)">Nov</text>
      <path d="M0,0 v-5" />
    </g><g transform="translate(888, 0)">
      <text text-anchor="middle"
      fill="black"
      stroke="none"
      transform="translate(0, 12)">Dec</text>
      <path d="M0,0 v-5" />
    </g>
  
  </g>
</svg>