<svg xmlns="http://www.w3.org/2000/svg"
  viewBox="0 0 900 400"
  width="900"
  height="400">
  <style>
    text {
      font-family: "Courier New", Courier, monospace;
      font-size: 12px;
    }
  </style>
  <g class="lines" fill="none">
    <path stroke="darkblue" d="M872.1493281758958,158.58267716535437L871.0402738820526,159.9515076398279C869.9312195882094,161.3203381143014,867.7131110005229,164.05799906324842,864.1050088030825,165.71239958641533C860.496906605642,167.36680010958227,855.4988107984478,167.93794020696907,852.2190818592412,168.3206871868289C848.9393529200346,168.70343416668877,847.3779908488156,168.89778802902163,845.4170905152914,169.3276332882632C843.4561901817669,169.75747854750477,841.0957515859371,170.4228152036551,837.9422401865423,170.85266046289667C834.7887287871476,171.28250572213824,830.8421445841878,171.4768595844711,828.1012411969176,171.671213446804C825.3603378096474,171.86556730913685,823.8251152380666,172.0599211714697,822.3103649226385,172.67815954823826C820.7956146072103,173.29639792500686,819.301336547935,174.33852081621112,818.139224329684,174.9567591929797C816.9771121114328,175.57499756974823,816.1471657342059,175.7693514320811,813.7012378038667,176.38758980884964C811.2553098735272,177.00582818561824,807.1934003900752,178.04795107682244,804.779370532483,179.09007396802676C802.3653406748905,180.13219685923096,801.5991904431576,181.17431975043527,800.4364052697853,181.79255812720382C799.2736200964129,182.41079650397236,797.7141999814011,182.60515036630522,796.2031076577391,182.79950422863814C794.6920153340774,182.99385809097097,793.2292508017654,183.18821195330383,791.2885150877669,183.80645033007238C789.3477793737684,184.42468870684095,786.9290724780834,185.4668115980452,783.8058873205454,185.957261260903C780.6827021630073,186.4477109237608,776.8550387436161,186.38648735827212,774.1928951396429,186.45305250669423C771.5307515356698,186.51961765511632,770.0341277471147,186.71397151744918,767.9987072475569,187.2084627424194C765.9632867479994,187.70295396738962,763.3890695374392,188.49758255499725,756.7633981217577,193.1330994209931C750.1377267060765,197.768616286989,739.4606010852737,206.24502143137315,733.4560720533237,210.58040093473164C727.4515430213737,214.91578043809014,726.1196105782765,215.11013430042303,725.1007945394499,215.3044881627559C724.0819785006233,215.49884202508875,723.3762788660674,215.69319588742164,722.6651667496079,215.88754974975447C721.9540546331483,216.08190361208733,721.237530034785,216.2762574744202,720.0351078047714,216.80583722197892C718.8326855747576,217.3354169695377,717.1443657130936,218.20022260232233,713.5274574172095,218.72980234988106C709.9105491213254,219.2593820974398,704.3650523912212,219.45373595977267,700.7715821608457,219.99084887329153C697.1781119304701,220.52796178681047,695.536668199823,221.40783375151537,694.3497768126432,221.94494666503422C693.1628854254635,222.48205957855316,692.4305463817509,222.67641344088602,689.2710552954217,223.47563621707653C686.1115642090923,224.27485899326712,680.5249210801464,225.67895068331532,677.303849793401,226.47817345950583C674.0827785066555,227.27739623569641,673.2272790621105,227.47175009802928,672.0983098835807,228.27097287421978C670.9693407050509,229.07019565041037,669.5669017925362,230.47428734045857,666.7947636739956,232.11360583034036C664.022625555455,233.7529243202221,659.8807882308884,235.6274696099374,657.4441711153336,237.85821548225775C655.0075539997788,240.08896135457815,654.276157093236,242.67590780950363,653.5575030725961,244.66470611628094C652.8388490519563,246.6535044230582,652.1329379172196,248.04415458168737,651.4270748507057,249.43480474031654C650.7212117841918,250.8254548989457,650.015396785901,252.21610505757485,642.6353955543491,254.80305151250033C635.2553943227972,257.3899979674258,621.2012068579844,261.17324071864755,611.403225000754,263.760187173573C601.6052431435236,266.34713362849845,596.0634668938754,267.7377837871276,589.1659264160332,268.53028579760866C582.268385938191,269.3227878080897,574.015081232155,269.5171416704225,566.7134984995174,269.7114955327554C559.4119157668797,269.9058493950883,553.0620550076407,270.10020325742113,543.6391494940584,270.6456440762757C534.2162439804762,271.19108489513036,521.7202937125508,272.08761267050664,513.8486651171734,273.80334334443376C505.977036521796,275.51907401836087,502.7297295989665,278.05400759083864,499.1283329186271,279.4186513082439C495.52693623828765,280.78329502564924,491.5714498004383,280.97764888798207,487.6684971234467,282.92743753292365C483.76554444645507,284.8772261778652,479.9151255303213,288.5824496054155,477.5361518277235,290.53223825035707C475.15717812512565,292.4820268952986,474.24964963606385,292.6763807576315,469.6855570070274,293.14463224561956C465.1214643779909,293.6128837336077,456.90080760897973,294.3550328472511,450.83126630549526,294.8232843352392C444.76172500201073,295.2915358232274,440.8432991640528,295.48588968556027,436.88975468241046,296.82563361881506C432.9362102007681,298.1653775520699,428.9475470754414,300.6505115562468,424.9930027747618,301.99025548950164C421.0384584740821,303.32999942275643,417.1180329980496,303.5243532850893,413.4878867135662,303.7187071474222C409.8577404290827,303.91306100975504,406.51787333614834,304.10741487208793,402.46758674900474,304.3017687344208C398.4173001618611,304.49612259675365,393.6565940805083,304.6904764590865,388.0343372051816,304.88483032141943C382.41208032985486,305.07918418375226,375.9282726605542,305.2735380460851,369.79143584494517,306.04058694387896C363.6545990293361,306.80763584167283,357.8647330674187,308.14737977492763,352.19120662549767,308.9144286727215C346.5176801835766,309.68147757051537,340.96049326165195,309.8758314328482,336.8952286162384,310.53203613023027C332.8299639708248,311.18824082761233,330.25662160192223,312.3062963600436,320.32916317936423,317.59332543018553C310.40170475680617,322.8803545003274,293.1201302805927,332.33635710818,280.84983147846543,338.2174650766218C268.5795326763381,344.09857304506363,261.3205095482969,346.4047863740946,247.7609440975992,349.4297952445019C234.2013786469015,352.45480411490917,214.34127087354727,356.19860852669257,190.3542033304681,359.494249990313C166.36713578738892,362.7898914539335,138.2531084745848,365.63736996939105,124.19609481818274,367.06110922711974L110.13908116178068,368.4848484848485" />
    <path stroke="blue" d="M872.1493281758958,143.33561746964816L871.0402738820526,145.712052445977C869.9312195882094,148.08848742230586,867.7131110005229,152.84135737496356,864.1050088030825,155.41985491097293C860.496906605642,157.9983524469823,855.4988107984478,158.4024775663433,852.2190818592412,158.72823721572883C848.9393529200346,159.05399686511433,847.3779908488156,159.3013910445244,845.4170905152914,159.63710456120802C843.4561901817669,159.9728180778916,841.0957515859371,160.39685093184872,837.9422401865423,160.7149008822043C834.7887287871476,161.03295083255986,830.8421445841878,161.24501787931385,828.1012411969176,161.4464632718599C825.3603378096474,161.64790866440597,823.8251152380666,161.83873240274409,822.3103649226385,162.0698338653749C820.7956146072103,162.30093532800572,819.301336547935,162.57231451492922,818.139224329684,162.81029654522615C816.9771121114328,163.04827857552309,816.1471657342059,163.25286344919337,813.7012378038667,163.52377359601405C811.2553098735272,163.79468374283474,807.1934003900752,164.13191916280573,804.779370532483,164.44315677241974C802.3653406748905,164.75439438203378,801.5991904431576,165.0396341812908,800.4364052697853,165.28779172741523C799.2736200964129,165.53594927353967,797.7141999814011,165.74702456653148,796.2031076577391,165.99908354637495C794.6920153340774,166.2511425262184,793.2292508017654,166.54418519291355,791.2885150877669,167.48940456734883C789.3477793737684,168.43462394178417,786.9290724780834,170.0320200239597,783.8058873205454,171.6303946466287C780.6827021630073,173.22876926929777,776.8550387436161,174.82812243246033,774.1928951396429,175.73014952742395C771.5307515356698,176.63217662238756,770.0341277471147,176.83687764915223,767.9987072475569,178.21609318839361C765.9632867479994,179.595308727635,763.3890695374392,182.14903877935308,756.7633981217577,186.55485664793468C750.1377267060765,190.9606745165162,739.4606010852737,197.21858020196126,733.4560720533237,200.4528172216698C727.4515430213737,203.6870542413783,726.1196105782765,203.8976225953503,725.1007945394499,204.18010168132787C724.0819785006233,204.46258076730544,723.3762788660674,204.81697058528857,722.6651667496079,205.09970314077603C721.9540546331483,205.38243569626354,721.237530034785,205.59351098925535,720.0351078047714,205.93098480446963C718.8326855747576,206.26845861968386,717.1443657130936,206.73233095712058,713.5274574172095,209.34684934338006C709.9105491213254,211.9613677296395,704.3650523912212,216.72653216472176,700.7715821608457,219.26730090831947C697.1781119304701,221.80806965191718,695.536668199823,222.12444270403034,694.3497768126432,222.3881668765828C693.1628854254635,222.65189104913532,692.4305463817509,222.86296634212712,689.2710552954217,223.77084982975384C686.1115642090923,224.67873331738056,680.5249210801464,226.2834249996422,677.303849793401,227.21672116094888C674.0827785066555,228.15001732225565,673.2272790621105,228.4119179626075,672.0983098835807,228.81145992559777C670.9693407050509,229.21100188858813,669.5669017925362,229.7481851742169,666.7947636739956,230.7944546265962C664.022625555455,231.8407240789755,659.8807882308884,233.39607969810535,657.4441711153336,234.47146830926306C655.0075539997788,235.54685692042085,654.276157093236,236.1422785236065,653.5575030725961,236.69422258778332C652.8388490519563,237.24616665196004,652.1329379172196,237.75463317712794,651.4270748507057,238.28226404592002C650.7212117841918,238.80989491471212,650.015396785901,239.35669012712847,642.6353955543491,240.58596188636443C635.2553943227972,241.8152336456004,621.2012068579844,243.72698195165597,611.403225000754,245.82366542681544C601.6052431435236,247.92034890197496,596.0634668938754,250.2019675462383,589.1659264160332,251.4486319203213C582.268385938191,252.6952962944043,574.015081232155,252.90700639830695,566.7134984995174,253.1138683118501C559.4119157668797,253.32073022539328,553.0620550076407,253.52274394857702,543.6391494940584,253.8303583996683C534.2162439804762,254.1379728507596,521.7202937125508,254.55118802975846,513.8486651171734,255.81837674988446C505.977036521796,257.0855654700104,502.7297295989665,259.2067277312635,499.1283329186271,260.37950664355816C495.52693623828765,261.55228555585273,491.5714498004383,261.7766811191888,487.6684971234467,264.58098400277424C483.76554444645507,267.38528688635967,479.9151255303213,272.76949709019453,477.5361518277235,275.5297110168694C475.15717812512565,278.28992494354424,474.24964963606385,278.42614259305907,469.6855570070274,278.610838475741C465.1214643779909,278.7955343584229,456.90080760897973,279.0287084742718,450.83126630549526,279.46261190988645C444.76172500201073,279.89651534550103,440.8432991640528,280.53114810088124,436.88975468241046,284.37975850281947C432.9362102007681,288.2283689047577,428.9475470754414,295.2909569532539,424.9930027747618,299.0654471123516C421.0384584740821,302.83993727144923,417.1180329980496,303.32632954114837,413.4878867135662,303.76100516204826C409.8577404290827,304.19568078294816,406.51787333614834,304.57863975504887,402.46758674900474,304.87565688759514C398.4173001618611,305.1726740201414,393.6565940805083,305.3837493131332,388.0343372051816,305.5921099278956C382.41208032985486,305.80047054265793,375.9282726605542,306.0061164791909,369.79143584494517,306.87015424602805C363.6545990293361,307.7341920128652,357.8647330674187,309.2566216100067,352.19120662549767,310.1741617887861C346.5176801835766,311.0917019675655,340.96049326165195,311.4043527279828,336.8952286162384,311.8964383320599C332.8299639708248,312.388523936137,330.25662160192223,313.06004438387373,320.32916317936423,319.0161631721461C310.40170475680617,324.97228196041846,293.1201302805927,336.2129990892265,280.84983147846543,342.45973836004333C268.5795326763381,348.7064776308601,261.3205095482969,349.9592390436857,247.7609440975992,352.5672947234801C234.2013786469015,355.1753504032745,214.34127087354727,359.1387003500377,190.3542033304681,362.48618925742045C166.36713578738892,365.8336781648032,138.2531084745848,368.5653060328055,124.19609481818274,369.93111996680665L110.13908116178068,371.2969339008078" />
    
    <path stroke="darkorange" d="M872.1493281758958,221.41732283464566L871.0402738820526,220.04849236017216C869.9312195882094,218.6796618856986,867.7131110005229,215.94200093675158,864.1050088030825,214.28760041358467C860.496906605642,212.63319989041773,855.4988107984478,212.06205979303093,852.2190818592412,211.6793128131711C848.9393529200346,211.2965658333112,847.3779908488156,211.10221197097835,845.4170905152914,210.67236671173677C843.4561901817669,210.2425214524952,841.0957515859371,209.5771847963449,837.9422401865423,209.14733953710333C834.7887287871476,208.71749427786173,830.8421445841878,208.52314041552884,828.1012411969176,208.328786553196C825.3603378096474,208.13443269086312,823.8251152380666,207.9400788285303,822.3103649226385,207.3218404517617C820.7956146072103,206.70360207499314,819.301336547935,205.66147918378888,818.139224329684,205.04324080702034C816.9771121114328,204.4250024302518,816.1471657342059,204.23064856791893,813.7012378038667,203.61241019115036C811.2553098735272,202.99417181438182,807.1934003900752,201.95204892317756,804.779370532483,200.9099260319733C802.3653406748905,199.86780314076904,801.5991904431576,198.82568024956473,800.4364052697853,198.20744187279618C799.2736200964129,197.5892034960276,797.7141999814011,197.39484963369475,796.2031076577391,197.20049577136186C794.6920153340774,197.00614190902903,793.2292508017654,196.81178804669617,791.2885150877669,196.1935496699276C789.3477793737684,195.57531129315905,786.9290724780834,194.5331884019548,783.8058873205454,194.042738739097C780.6827021630073,193.5522890762392,776.8550387436161,193.61351264172788,774.1928951396429,193.54694749330577C771.5307515356698,193.48038234488368,770.0341277471147,193.28602848255082,767.9987072475569,192.79153725758056C765.9632867479994,192.29704603261038,763.3890695374392,191.5024174450028,756.7633981217577,186.8669005790069C750.1377267060765,182.23138371301104,739.4606010852737,173.75497856862685,733.4560720533237,169.41959906526836C727.4515430213737,165.08421956190986,726.1196105782765,164.889865699577,725.1007945394499,164.69551183724414C724.0819785006233,164.50115797491128,723.3762788660674,164.30680411257842,722.6651667496079,164.11245025024553C721.9540546331483,163.91809638791267,721.237530034785,163.7237425255798,720.0351078047714,163.19416277802105C718.8326855747576,162.6645830304623,717.1443657130936,161.79977739767767,713.5274574172095,161.2701976501189C709.9105491213254,160.74061790256016,704.3650523912212,160.5462640402273,700.7715821608457,160.00915112670842C697.1781119304701,159.47203821318953,695.536668199823,158.59216624848463,694.3497768126432,158.05505333496572C693.1628854254635,157.51794042144684,692.4305463817509,157.32358655911398,689.2710552954217,156.52436378292342C686.1115642090923,155.72514100673288,680.5249210801464,154.32104931668468,677.303849793401,153.52182654049412C674.0827785066555,152.72260376430359,673.2272790621105,152.52824990197072,672.0983098835807,151.72902712578016C670.9693407050509,150.92980434958966,669.5669017925362,149.52571265954143,666.7947636739956,147.88639416965967C664.022625555455,146.2470756797779,659.8807882308884,144.37253039006262,657.4441711153336,142.14178451774225C655.0075539997788,139.91103864542185,654.276157093236,137.3240921904964,653.5575030725961,135.3352938837191C652.8388490519563,133.3464955769418,652.1329379172196,131.95584541831263,651.4270748507057,130.56519525968346C650.7212117841918,129.1745451010543,650.015396785901,127.7838949424251,642.6353955543491,125.19694848749968C635.2553943227972,122.6100020325742,621.2012068579844,118.82675928135245,611.403225000754,116.239812826427C601.6052431435236,113.65286637150155,596.0634668938754,112.26221621287239,589.1659264160332,111.46971420239136C582.268385938191,110.67721219191037,574.015081232155,110.4828583295775,566.7134984995174,110.28850446724464C559.4119157668797,110.09415060491176,553.0620550076407,109.89979674257889,543.6391494940584,109.3543559237243C534.2162439804762,108.8089151048697,521.7202937125508,107.91238732949334,513.8486651171734,106.19665665556629C505.977036521796,104.48092598163919,502.7297295989665,101.9459924091614,499.1283329186271,100.58134869175609C495.52693623828765,99.21670497435076,491.5714498004383,99.02235111201789,487.6684971234467,97.07256246707634C483.76554444645507,95.12277382213476,479.9151255303213,91.41755039458451,477.5361518277235,89.46776174964295C475.15717812512565,87.51797310470137,474.24964963606385,87.32361924236852,469.6855570070274,86.8553677543804C465.1214643779909,86.38711626639228,456.90080760897973,85.6449671527489,450.83126630549526,85.17671566476078C444.76172500201073,84.70846417677267,440.8432991640528,84.51411031443979,436.88975468241046,83.17436638118494C432.9362102007681,81.83462244793009,428.9475470754414,79.34948844375324,424.9930027747618,78.00974451049841C421.0384584740821,76.67000057724354,417.1180329980496,76.47564671491068,413.4878867135662,76.28129285257782C409.8577404290827,76.08693899024496,406.51787333614834,75.89258512791208,402.46758674900474,75.69823126557922C398.4173001618611,75.50387740324636,393.6565940805083,75.3095235409135,388.0343372051816,75.11516967858063C382.41208032985486,74.92081581624775,375.9282726605542,74.72646195391489,369.79143584494517,73.95941305612104C363.6545990293361,73.19236415832718,357.8647330674187,71.85262022507233,352.19120662549767,71.08557132727849C346.5176801835766,70.31852242948463,340.96049326165195,70.12416856715176,336.8952286162384,69.4679638697697C332.8299639708248,68.81175917238765,330.25662160192223,67.69370363995642,320.32916317936423,62.406674569814506C310.40170475680617,57.1196454996726,293.1201302805927,47.66364289182002,280.84983147846543,41.78253492337821C268.5795326763381,35.9014269549364,261.3205095482969,33.59521362590536,247.7609440975992,30.57020475549813C234.2013786469015,27.5451958850909,214.34127087354727,23.80139147330749,190.3542033304681,20.50575000968702C166.36713578738892,17.21010854606655,138.2531084745848,14.362630030609026,124.19609481818274,12.938890772880265L110.13908116178068,11.515151515151503" />
    <path stroke="orange" d="M872.1493281758958,236.66438253035184L871.0402738820526,234.28794755402296C869.9312195882094,231.9115125776941,867.7131110005229,227.15864262503644,864.1050088030825,224.58014508902704C860.496906605642,222.0016475530177,855.4988107984478,221.59752243365674,852.2190818592412,221.27176278427123C848.9393529200346,220.94600313488567,847.3779908488156,220.69860895547563,845.4170905152914,220.36289543879204C843.4561901817669,220.0271819221084,841.0957515859371,219.60314906815128,837.9422401865423,219.28509911779568C834.7887287871476,218.9670491674401,830.8421445841878,218.75498212068612,828.1012411969176,218.5535367281401C825.3603378096474,218.35209133559405,823.8251152380666,218.16126759725594,822.3103649226385,217.9301661346251C820.7956146072103,217.6990646719943,819.301336547935,217.42768548507078,818.139224329684,217.18970345477385C816.9771121114328,216.95172142447691,816.1471657342059,216.74713655080663,813.7012378038667,216.47622640398595C811.2553098735272,216.20531625716526,807.1934003900752,215.8680808371943,804.779370532483,215.5568432275803C802.3653406748905,215.24560561796625,801.5991904431576,214.9603658187092,800.4364052697853,214.71220827258472C799.2736200964129,214.4640507264603,797.7141999814011,214.2529754334685,796.2031076577391,214.00091645362502C794.6920153340774,213.74885747378156,793.2292508017654,213.45581480708645,791.2885150877669,212.51059543265117C789.3477793737684,211.56537605821586,786.9290724780834,209.96797997604037,783.8058873205454,208.3696053533713C780.6827021630073,206.77123073070229,776.8550387436161,205.17187756753967,774.1928951396429,204.26985047257605C771.5307515356698,203.36782337761244,770.0341277471147,203.16312235084777,767.9987072475569,201.78390681160639C765.9632867479994,200.40469127236506,763.3890695374392,197.85096122064692,756.7633981217577,193.44514335206534C750.1377267060765,189.0393254834838,739.4606010852737,182.78141979803874,733.4560720533237,179.5471827783302C727.4515430213737,176.31294575862168,726.1196105782765,176.10237740464967,725.1007945394499,175.8198983186721C724.0819785006233,175.53741923269453,723.3762788660674,175.1830294147114,722.6651667496079,174.90029685922391C721.9540546331483,174.61756430373646,721.237530034785,174.40648901074465,720.0351078047714,174.0690151955304C718.8326855747576,173.73154138031614,717.1443657130936,173.26766904287942,713.5274574172095,170.65315065661997C709.9105491213254,168.0386322703605,704.3650523912212,163.27346783527824,700.7715821608457,160.73269909168053C697.1781119304701,158.19193034808282,695.536668199823,157.87555729596966,694.3497768126432,157.61183312341714C693.1628854254635,157.34810895086466,692.4305463817509,157.13703365787285,689.2710552954217,156.22915017024613C686.1115642090923,155.32126668261944,680.5249210801464,153.7165750003578,677.303849793401,152.78327883905106C674.0827785066555,151.84998267774435,673.2272790621105,151.5880820373925,672.0983098835807,151.1885400744022C670.9693407050509,150.78899811141187,669.5669017925362,150.25181482578307,666.7947636739956,149.20554537340377C664.022625555455,148.15927592102446,659.8807882308884,146.60392030189465,657.4441711153336,145.5285316907369C655.0075539997788,144.45314307957915,654.276157093236,143.85772147639346,653.5575030725961,143.3057774122167C652.8388490519563,142.75383334803993,652.1329379172196,142.24536682287209,651.4270748507057,141.71773595407998C650.7212117841918,141.19010508528788,650.015396785901,140.64330987287155,642.6353955543491,139.41403811363557C635.2553943227972,138.1847663543996,621.2012068579844,136.27301804834403,611.403225000754,134.17633457318456C601.6052431435236,132.07965109802507,596.0634668938754,129.7980324537617,589.1659264160332,128.5513680796787C582.268385938191,127.30470370559568,574.015081232155,127.09299360169307,566.7134984995174,126.88613168814989C559.4119157668797,126.67926977460671,553.0620550076407,126.47725605142297,543.6391494940584,126.16964160033167C534.2162439804762,125.8620271492404,521.7202937125508,125.44881197024152,513.8486651171734,124.18162325011554C505.977036521796,122.91443452998955,502.7297295989665,120.79327226873643,499.1283329186271,119.62049335644186C495.52693623828765,118.44771444414728,491.5714498004383,118.22331888081123,487.6684971234467,115.41901599722577C483.76554444645507,112.61471311364035,479.9151255303213,107.23050290980552,477.5361518277235,104.47028898313066C475.15717812512565,101.7100750564558,474.24964963606385,101.57385740694093,469.6855570070274,101.38916152425902C465.1214643779909,101.2044656415771,456.90080760897973,100.97129152572818,450.83126630549526,100.53738809011357C444.76172500201073,100.10348465449898,440.8432991640528,99.46885189911875,436.88975468241046,95.62024149718053C432.9362102007681,91.7716310952423,428.9475470754414,84.70904304674612,424.9930027747618,80.93455288764845C421.0384584740821,77.16006272855078,417.1180329980496,76.67367045885167,413.4878867135662,76.23899483795175C409.8577404290827,75.80431921705183,406.51787333614834,75.42136024495112,402.46758674900474,75.12434311240486C398.4173001618611,74.8273259798586,393.6565940805083,74.61625068686679,388.0343372051816,74.40789007210441C382.41208032985486,74.19952945734202,375.9282726605542,73.99388352080909,369.79143584494517,73.1298457539719C363.6545990293361,72.26580798713474,357.8647330674187,70.74337838999331,352.19120662549767,69.8258382112139C346.5176801835766,68.90829803243452,340.96049326165195,68.59564727201716,336.8952286162384,68.1035616679401C332.8299639708248,67.61147606386305,330.25662160192223,66.93995561612631,320.32916317936423,60.983836827853914C310.40170475680617,55.027718039581536,293.1201302805927,43.787000910773514,280.84983147846543,37.54026163995672C268.5795326763381,31.293522369139907,261.3205095482969,30.04076095631432,247.7609440975992,27.432705276519915C234.2013786469015,24.82464959672551,214.34127087354727,20.86129964996228,190.3542033304681,17.513810742579526C166.36713578738892,14.166321835196769,138.2531084745848,11.434693967194484,124.19609481818274,10.068880033193341L110.13908116178068,8.703066099192199" />
  </g>
  
  <g class="axis y" stroke="black" fill="none" stroke-dasharray="4 6">
    <path d="M 0,285 h900" /><path d="M 0,190 h900" /><path d="M 0,95 h900" />
  </g>
  <g
    class="axis x"
    stroke="black" fill="none"
    transform="translate(0, 380)">
  
  <path d="M0,0 h900" />
  <g transform="translate(82, 0)">
      <text text-anchor="middle"
      fill="black"
      stroke="none"
      transform="translate(0, 12)">Mar</text>
      <path d="M0,0 v-5" />
    </g><g transform="translate(173, 0)">
      <text text-anchor="middle"
      fill="black"
      stroke="none"
      transform="translate(0, 12)">Apr</text>
      <path d="M0,0 v-5" />
    </g><g transform="translate(261, 0)">
      <text text-anchor="middle"
      fill="black"
      stroke="none"
      transform="translate(0, 12)">May</text>
      <path d="M0,0 v-5" />
    </g><g transform="translate(352, 0)">
      <text text-anchor="middle"
      fill="black"
      stroke="none"
      transform="translate(0, 12)">Jun</text>
      <path d="M0,0 v-5" />
    </g><g transform="translate(440, 0)">
      <text text-anchor="middle"
      fill="black"
      stroke="none"
      transform="translate(0, 12)">Jul</text>
      <path d="M0,0 v-5" />
    </g><g transform="translate(530, 0)">
      <text text-anchor="middle"
      fill="black"
      stroke="none"
      transform="translate(0, 12)">Aug</text>
      <path d="M0,0 v-5" />
    </g><g transform="translate(621, 0)">
      <text text-anchor="middle"
      fill="black"
      stroke="none"
      transform="translate(0, 12)">Sep</text>
      <path d="M0,0 v-5" />
    </g><g transform="translate(709, 0)">
      <text text-anchor="middle"
      fill="black"
      stroke="none"
      transform="translate(0, 12)">Oct</text>
      <path d="M0,0 v-5" />
    </g><g transform="translate(800, 0)">
      <text text-anchor="middle"
      fill="black"
      stroke="none"
      transform="translate(0, 12)">Nov</text>
      <path d="M0,0 v-5" />
    </g><g transform="translate(888, 0)">
      <text text-anchor="middle"
      fill="black"
      stroke="none"
      transform="translate(0, 12)">Dec</text>
      <path d="M0,0 v-5" />
    </g>
  
  </g>
</svg>