<svg xmlns="http://www.w3.org/2000/svg"
  viewBox="0 0 900 400"
  width="900"
  height="400">
  <style>
    text {
      font-family: "Courier New", Courier, monospace;
      font-size: 12px;
    }
  </style>
  <g class="lines" fill="none">
    <path stroke="darkblue" d="M813.3639386536374,176.53543307086613L812.9429655831524,177.0659561494207C812.5219925126675,177.59647922797527,811.6800463716976,178.65752538508445,810.4414652890879,179.29468702775787C809.2028842064784,179.93184867043135,807.5676681822296,180.1451257986691,805.9807799493304,180.35840292690685C804.3938917164314,180.57168005514464,802.8553312748824,180.7849571833824,800.8387996516467,181.42211882605582C798.8222680284111,182.0592804687293,796.3277652234889,183.12032662583843,793.1287841567137,183.62969955460116C789.9298030899386,184.13907248336383,786.0263437613103,184.09677218378002,783.2884042480999,184.18226059810704C780.5504647348895,184.26774901243402,778.9780450370973,184.4810261406718,776.8668286283026,184.99444063154692C774.7556122195077,185.50785512242203,772.1055990997105,186.32140697593454,765.404131774792,190.97584710783528C758.7026644498734,195.63028723973605,747.9497429198336,204.1256156500251,741.8694179786463,208.4799184192885C735.7890930374593,212.83422118855188,734.3813646851249,213.04749831678964,733.2867527370612,213.2607754450274C732.1921407889973,213.47405257326514,731.4106452452046,213.68732970150293,730.6237372195077,213.90060682974067C729.836829193811,214.11388395797846,729.0445086862106,214.3271610862162,727.7662905469598,214.87566409967985C726.488072407709,215.42416711314345,724.7239566368077,216.307896011833,721.0312524316865,216.85639902529667C717.3385482265653,217.4049020387603,711.717255587224,217.61817916699806,708.0479894476113,218.1742153464218C704.3787233079985,218.7302515258456,702.6614836681143,219.6290467564554,701.3987963716974,220.18508293587914C700.1361090752804,220.74111911530295,699.3279741223308,220.9543962435407,696.0926871267644,221.77254228563615C692.857400131198,222.59068832773156,687.1949610930147,224.0137032836847,683.8980938970323,224.83184932578013C680.6012267010497,225.64999536787556,679.6699313472676,225.86327249611335,678.4651662595006,226.68141853820876C677.2604011717336,227.4995645803042,675.7821663499818,228.92257953625733,672.9342323222041,230.580821292044C670.0862982944263,232.23906304783065,665.8686650606224,234.13253160345084,663.3562520358306,236.38220074167612C660.8438390110388,238.6318698799014,660.0366461952589,241.23773960073171,659.242196265382,243.24546117341393C658.4477463355049,245.25318274609614,657.666039291531,246.66275617063016,656.88438031578,248.0723295951642C656.102721340029,249.48190301969828,655.3211104325009,250.89147644423235,647.8653132917119,253.4973461650627C640.409516150923,256.103215885893,626.279532776873,259.9053819030197,616.4057550104054,262.51125162385C606.5319772439378,265.11712134468036,600.9144050850524,266.52669476921443,593.9410686979733,267.33812004560036C586.9677323108939,268.1495453219863,578.6386316956206,268.36282245022403,571.2612530537459,268.57609957846176C563.8838744118711,268.78937670669956,557.4582177433948,269.0026538349373,547.9595163205755,269.5670179196968C538.460814897756,270.1313820044563,525.8890687205935,271.04683304573757,517.9416442159791,272.78148698556953C509.99421971136445,274.5161409254015,506.6711168792979,277.06999776378416,502.9939242897214,278.4535647470944C499.3167317001448,279.83713173040456,495.28544935305825,280.05040885864236,491.30670076682947,282.0191207694888C487.32795218060073,283.98783268033526,483.40173735522984,287.71197937379037,480.94696774339485,289.68069128463685C478.4921981315599,291.6494031954833,477.50887373326094,291.862680323721,472.8689851949873,292.3498550776141C468.2290966567137,292.8370298315071,459.9326439784654,293.5981022110554,453.7873067657438,294.0852769649484C447.6419695530221,294.5724517188414,443.647747805827,294.78572884707916,439.61840741494757,296.1443960462389C435.5890670240681,297.50306324539866,431.52460798950415,300.00712051548044,427.49426777958735,301.3657877146402C423.46392756967066,302.7244549137999,419.46770618440104,302.9377320420377,415.76176399068044,303.1510091702755C412.05582179695983,303.36428629851315,408.64015879478825,303.57756342675094,404.5140762984075,303.7908405549886C400.3879938020268,304.0041176832264,395.5514918114368,304.2173948114642,389.853439026873,304.430671939702C384.1553862423091,304.6439490679397,377.59578266377133,304.85722619617746,371.3831499389251,305.6431983598762C365.170517214079,306.4291705235749,359.3048553429244,307.78783772273465,353.55553299176626,308.57380988643337C347.80621064060807,309.3597820501322,342.17322780944625,309.57305917836993,338.0321672547955,310.24818714165684C333.8911067001448,310.9233151049438,331.24196842200513,312.06029390327996,321.23871409020995,317.36624623932676C311.2354597584148,322.67219857537356,293.87808937296415,332.14712444913107,281.53199466159964,338.0471556834778C269.1858999502352,343.94718691782447,261.8510809129569,346.27232351276035,248.21571955302204,349.3162556490725C234.58035819308722,352.36018778538465,214.64445451049585,356.12291546307296,190.58159105817955,359.4374801925983C166.5187276058632,362.7520449221236,138.32890438382194,365.6184467034861,124.23399277280133,367.05164759416726L110.13908116178068,368.4848484848485" />
    <path stroke="blue" d="M813.3639386536374,161.49385770770647L812.9429655831524,161.6474972253908C812.5219925126675,161.80113674307515,811.6800463716976,162.10841577844383,810.4414652890879,162.3786125606799C809.2028842064784,162.64880934291594,807.5676681822296,162.88192387201937,805.9807799493304,163.1560220879745C804.3938917164314,163.43012030392958,802.8553312748824,163.74520220673634,800.8387996516467,164.71246081728327C798.8222680284111,165.67971942783024,796.3277652234889,167.29915474611735,793.1287841567137,168.91956860489805C789.9298030899386,170.5399824636787,786.0263437613103,172.16137486295293,783.2884042480999,173.08544119402822C780.5504647348895,174.00950752510343,778.9780450370973,174.2362477879797,776.8668286283026,175.63750256333273C774.7556122195077,177.03875733868574,772.1055990997105,179.6145266265155,765.404131774792,184.0423837312087C758.7026644498734,188.4702408359019,747.9497429198336,194.75018575745855,741.8694179786463,198.00646201327868C735.7890930374593,201.26273826909883,734.3813646851249,201.4953458591825,733.2867527370612,201.7998641812717C732.1921407889973,202.10438250336088,731.4106452452046,202.48081155745567,730.6237372195077,202.78558334905475C729.836829193811,203.09035514065386,729.0445086862106,203.32346966975732,727.7662905469598,203.68298272108322C726.488072407709,204.0424957724091,724.7239566368077,204.52840734595745,721.0312524316865,207.16496496832852C717.3385482265653,209.80152259069965,711.717255587224,214.5887262618935,708.0479894476113,217.15153424160283C704.3787233079985,219.7143422213122,702.6614836681143,220.05275450953695,701.3987963716974,220.3385179182011C700.1361090752804,220.62428132686523,699.3279741223308,220.85739585596866,696.0926871267644,221.78731857970698C692.857400131198,222.71724130344538,687.1949610930147,224.3439722218186,683.8980938970323,225.29930761923697C680.6012267010497,226.25464301665534,679.6699313472676,226.53858289311881,678.4651662595006,226.96016409222077C677.2604011717336,227.38174529132274,675.7821663499818,227.94096781306314,672.9342323222041,229.00927650155407C670.0862982944263,230.07758519004503,665.8686650606224,231.6549800452865,663.3562520358306,232.75240789255585C660.8438390110388,233.84983573982524,660.0366461952589,234.46729657912252,659.242196265382,235.04127987941092C658.4477463355049,235.61526317969933,657.666039291531,236.14576894097885,656.88438031578,236.69543904588258C656.102721340029,237.2451091507863,655.3211104325009,237.81394359931426,647.8653132917119,239.06525459466184C640.409516150923,240.31656559000945,626.279532776873,242.25035313217668,616.4057550104054,244.3690758434478C606.5319772439378,246.4877985547189,600.9144050850524,248.7914564350939,593.9410686979733,250.0601600452885C586.9677323108939,251.32886365548316,578.6386316956206,251.56261299549746,571.2612530537459,251.79151414515226C563.8838744118711,252.02041529480707,557.4582177433948,252.24446825410237,547.9595163205755,252.5741219413053C538.460814897756,252.90377562850824,525.8890687205935,253.33903004361875,517.9416442159791,254.62825799985637C509.99421971136445,255.91748595609397,506.6711168792979,258.06068745345874,502.9939242897214,259.2555056018649C499.3167317001448,260.45032375027114,495.28544935305825,260.6967585497188,491.30670076682947,263.5231006694159C487.32795218060073,266.34944278911297,483.40173735522984,271.75569222905943,480.94696774339485,274.5379453918459C478.4921981315599,277.32019855463244,477.50887373326094,277.478455440259,472.8689851949873,277.6851905590525C468.2290966567137,277.891925677846,459.9326439784654,278.14713902980657,453.7873067657438,278.60308170153274C447.6419695530221,279.059024373259,443.647747805827,279.71569636475084,439.61840741494757,283.5863460028007C435.5890670240681,287.4569956408506,431.52460798950415,294.5416229254584,427.49426777958735,298.3381523206677C423.46392756967066,302.134681715877,419.46770618440104,302.64311322168777,415.76176399068044,303.0998280786993C412.05582179695983,303.55654293571087,408.64015879478825,303.96154114392317,404.5140762984075,304.2805975125811C400.3879938020268,304.59965388123896,395.5514918114368,304.83276841034245,389.853439026873,305.06316826121645C384.1553862423091,305.29356811209044,377.59578266377133,305.521253284735,371.3831499389251,306.4073302876838C365.170517214079,307.2934072906326,359.3048553429244,308.8378761238857,353.55553299176626,309.7774555387767C347.80621064060807,310.71703495366773,342.17322780944625,311.05172495019673,338.0321672547955,311.5658497903854C333.8911067001448,312.0799746305741,331.24196842200513,312.7735343144225,321.23871409020995,318.75169233880644C311.2354597584148,324.7298503631905,293.87808937296415,335.99260672811016,281.53199466159964,342.26138523503863C269.1858999502352,348.53016374196704,261.8510809129569,349.8049643909042,248.21571955302204,352.4350593068103C234.58035819308722,355.06515422271633,214.64445451049585,359.0505434055912,190.58159105817955,362.4200715490856C166.5187276058632,365.78959969257994,138.32890438382194,368.54326679669384,124.23399277280133,369.92010034875085L110.13908116178068,371.2969339008078" />
    
    <path stroke="darkorange" d="M813.3639386536374,203.46456692913387L812.9429655831524,202.9340438505793C812.5219925126675,202.40352077202473,811.6800463716976,201.34247461491555,810.4414652890879,200.70531297224207C809.2028842064784,200.06815132956862,807.5676681822296,199.85487420133086,805.9807799493304,199.6415970730931C804.3938917164314,199.42831994485536,802.8553312748824,199.2150428166176,800.8387996516467,198.57788117394412C798.8222680284111,197.94071953127067,796.3277652234889,196.8796733741615,793.1287841567137,196.37030044539884C789.9298030899386,195.86092751663614,786.0263437613103,195.90322781621992,783.2884042480999,195.81773940189294C780.5504647348895,195.73225098756598,778.9780450370973,195.5189738593282,776.8668286283026,195.00555936845308C774.7556122195077,194.49214487757797,772.1055990997105,193.67859302406546,765.404131774792,189.02415289216472C758.7026644498734,184.36971276026398,747.9497429198336,175.87438434997492,741.8694179786463,171.52008158071155C735.7890930374593,167.16577881144812,734.3813646851249,166.95250168321036,733.2867527370612,166.7392245549726C732.1921407889973,166.52594742673486,731.4106452452046,166.3126702984971,730.6237372195077,166.09939317025933C729.836829193811,165.88611604202157,729.0445086862106,165.6728389137838,727.7662905469598,165.12433590032015C726.488072407709,164.57583288685652,724.7239566368077,163.692103988167,721.0312524316865,163.14360097470333C717.3385482265653,162.5950979612397,711.717255587224,162.38182083300194,708.0479894476113,161.82578465357815C704.3787233079985,161.2697484741544,702.6614836681143,160.3709532435446,701.3987963716974,159.8149170641208C700.1361090752804,159.25888088469702,699.3279741223308,159.04560375645926,696.0926871267644,158.22745771436382C692.857400131198,157.4093116722684,687.1949610930147,155.98629671631528,683.8980938970323,155.16815067421985C680.6012267010497,154.3500046321244,679.6699313472676,154.13672750388665,678.4651662595006,153.3185814617912C677.2604011717336,152.50043541969578,675.7821663499818,151.07742046374267,672.9342323222041,149.41917870795604C670.0862982944263,147.76093695216937,665.8686650606224,145.86746839654916,663.3562520358306,143.61779925832388C660.8438390110388,141.3681301200986,660.0366461952589,138.76226039926829,659.242196265382,136.75453882658607C658.4477463355049,134.74681725390388,657.666039291531,133.33724382936984,656.88438031578,131.92767040483577C656.102721340029,130.51809698030172,655.3211104325009,129.10852355576765,647.8653132917119,126.5026538349373C640.409516150923,123.89678411410694,626.279532776873,120.0946180969803,616.4057550104054,117.48874837614994C606.5319772439378,114.8828786553196,600.9144050850524,113.47330523078556,593.9410686979733,112.66187995439964C586.9677323108939,111.85045467801375,578.6386316956206,111.63717754977597,571.2612530537459,111.42390042153822C563.8838744118711,111.21062329330046,557.4582177433948,110.99734616506271,547.9595163205755,110.43298208030319C538.460814897756,109.86861799554372,525.8890687205935,108.95316695426247,517.9416442159791,107.21851301443048C509.99421971136445,105.48385907459853,506.6711168792979,102.93000223621584,502.9939242897214,101.54643525290562C499.3167317001448,100.16286826959542,495.28544935305825,99.94959114135766,491.30670076682947,97.9808792305112C487.32795218060073,96.01216731966474,483.40173735522984,92.28802062620959,480.94696774339485,90.31930871536315C478.4921981315599,88.35059680451668,477.50887373326094,88.13731967627893,472.8689851949873,87.6501449223859C468.2290966567137,87.1629701684929,459.9326439784654,86.40189778894462,453.7873067657438,85.91472303505162C447.6419695530221,85.42754828115862,443.647747805827,85.21427115292086,439.61840741494757,83.8556039537611C435.5890670240681,82.49693675460135,431.52460798950415,79.99287948451962,427.49426777958735,78.63421228535988C423.46392756967066,77.27554508620013,419.46770618440104,77.06226795796238,415.76176399068044,76.84899082972461C412.05582179695983,76.63571370148685,408.64015879478825,76.4224365732491,404.5140762984075,76.20915944501134C400.3879938020268,75.99588231677357,395.5514918114368,75.78260518853581,389.853439026873,75.56932806029806C384.1553862423091,75.35605093206031,377.59578266377133,75.14277380382255,371.3831499389251,74.3568016401238C365.170517214079,73.57082947642505,359.3048553429244,72.2121622772653,353.55553299176626,71.42619011356656C347.80621064060807,70.6402179498678,342.17322780944625,70.42694082163005,338.0321672547955,69.75181285834311C333.8911067001448,69.07668489505616,331.24196842200513,67.93970609672003,321.23871409020995,62.63375376067322C311.2354597584148,57.32780142462642,293.87808937296415,47.85287555086895,281.53199466159964,41.952844316522246C269.1858999502352,36.05281308217554,261.8510809129569,33.72767648723961,248.21571955302204,30.683744350927494C234.58035819308722,27.63981221461537,214.64445451049585,23.87708453692706,190.58159105817955,20.562519807401703C166.5187276058632,17.247955077876338,138.32890438382194,14.381553296513921,124.23399277280133,12.948352405832713L110.13908116178068,11.515151515151503" />
    <path stroke="orange" d="M813.3639386536374,218.50614229229353L812.9429655831524,218.3525027746092C812.5219925126675,218.19886325692482,811.6800463716976,217.89158422155614,810.4414652890879,217.6213874393201C809.2028842064784,217.351190657084,807.5676681822296,217.11807612798057,805.9807799493304,216.84397791202548C804.3938917164314,216.5698796960704,802.8553312748824,216.25479779326363,800.8387996516467,215.28753918271673C798.8222680284111,214.32028057216976,796.3277652234889,212.70084525388265,793.1287841567137,211.08043139510195C789.9298030899386,209.4600175363213,786.0263437613103,207.83862513704707,783.2884042480999,206.91455880597184C780.5504647348895,205.99049247489657,778.9780450370973,205.7637522120203,776.8668286283026,204.36249743666733C774.7556122195077,202.9612426613143,772.1055990997105,200.38547337348453,765.404131774792,195.95761626879133C758.7026644498734,191.52975916409812,747.9497429198336,185.24981424254145,741.8694179786463,181.9935379867213C735.7890930374593,178.73726173090117,734.3813646851249,178.5046541408175,733.2867527370612,178.2001358187283C732.1921407889973,177.89561749663912,731.4106452452046,177.51918844254433,730.6237372195077,177.21441665094525C729.836829193811,176.90964485934614,729.0445086862106,176.67653033024268,727.7662905469598,176.31701727891678C726.488072407709,175.9575042275909,724.7239566368077,175.47159265404255,721.0312524316865,172.83503503167148C717.3385482265653,170.19847740930038,711.717255587224,165.4112737381065,708.0479894476113,162.84846575839717C704.3787233079985,160.28565777868783,702.6614836681143,159.94724549046302,701.3987963716974,159.66148208179888C700.1361090752804,159.37571867313477,699.3279741223308,159.1426041440313,696.0926871267644,158.21268142029297C692.857400131198,157.28275869655462,687.1949610930147,155.65602777818137,683.8980938970323,154.700692380763C680.6012267010497,153.74535698334464,679.6699313472676,153.46141710688119,678.4651662595006,153.03983590777923C677.2604011717336,152.61825470867726,675.7821663499818,152.05903218693683,672.9342323222041,150.9907234984459C670.0862982944263,149.92241480995497,665.8686650606224,148.34501995471354,663.3562520358306,147.24759210744415C660.8438390110388,146.15016426017476,660.0366461952589,145.53270342087748,659.242196265382,144.95872012058905C658.4477463355049,144.38473682030067,657.666039291531,143.8542310590212,656.88438031578,143.30456095411748C656.102721340029,142.75489084921372,655.3211104325009,142.18605640068574,647.8653132917119,140.93474540533813C640.409516150923,139.68343440999055,626.279532776873,137.74964686782332,616.4057550104054,135.6309241565522C606.5319772439378,133.5122014452811,600.9144050850524,131.2085435649061,593.9410686979733,129.93983995471146C586.9677323108939,128.67113634451684,578.6386316956206,128.43738700450257,571.2612530537459,128.20848585484777C563.8838744118711,127.97958470519295,557.4582177433948,127.7555317458976,547.9595163205755,127.42587805869466C538.460814897756,127.09622437149176,525.8890687205935,126.66096995638124,517.9416442159791,125.37174200014363C509.99421971136445,124.08251404390602,506.6711168792979,121.93931254654127,502.9939242897214,120.74449439813507C499.3167317001448,119.54967624972886,495.28544935305825,119.30324145028116,491.30670076682947,116.47689933058409C487.32795218060073,113.65055721088702,483.40173735522984,108.24430777094057,480.94696774339485,105.46205460815406C478.4921981315599,102.6798014453676,477.50887373326094,102.52154455974107,472.8689851949873,102.31480944094754C468.2290966567137,102.108074322154,459.9326439784654,101.85286097019343,453.7873067657438,101.3969182984672C447.6419695530221,100.94097562674098,443.647747805827,100.2843036352491,439.61840741494757,96.41365399719926C435.5890670240681,92.5430043591494,431.52460798950415,85.45837707454159,427.49426777958735,81.6618476793323C423.46392756967066,77.86531828412299,419.46770618440104,77.35688677831223,415.76176399068044,76.90017192130068C412.05582179695983,76.44345706428913,408.64015879478825,76.03845885607679,404.5140762984075,75.71940248741889C400.3879938020268,75.40034611876101,395.5514918114368,75.16723158965756,389.853439026873,74.93683173878355C384.1553862423091,74.70643188790955,377.59578266377133,74.47874671526499,371.3831499389251,73.59266971231618C365.170517214079,72.70659270936737,359.3048553429244,71.16212387611431,353.55553299176626,70.22254446122328C347.80621064060807,69.28296504633225,342.17322780944625,68.94827504980326,338.0321672547955,68.43415020961457C333.8911067001448,67.92002536942589,331.24196842200513,67.22646568557751,321.23871409020995,61.2483076611935C311.2354597584148,55.270149636809485,293.87808937296415,44.00739327188983,281.53199466159964,37.73861476496139C269.1858999502352,31.46983625803296,261.8510809129569,30.195035609095743,248.21571955302204,27.56494069318971C234.58035819308722,24.93484577728367,214.64445451049585,20.94945659440881,190.58159105817955,17.579928450914423C166.5187276058632,14.210400307420036,138.32890438382194,11.456733203306117,124.23399277280133,10.079899651249159L110.13908116178068,8.703066099192199" />
  </g>
  
  <g class="axis y" stroke="black" fill="none" stroke-dasharray="4 6">
    <path d="M 0,285 h900" /><path d="M 0,190 h900" /><path d="M 0,95 h900" />
  </g>
  <g
    class="axis x"
    stroke="black" fill="none"
    transform="translate(0, 380)">
  
  <path d="M0,0 h900" />
  <g transform="translate(82, 0)">
      <text text-anchor="middle"
      fill="black"
      stroke="none"
      transform="translate(0, 12)">Mar</text>
      <path d="M0,0 v-5" />
    </g><g transform="translate(173, 0)">
      <text text-anchor="middle"
      fill="black"
      stroke="none"
      transform="translate(0, 12)">Apr</text>
      <path d="M0,0 v-5" />
    </g><g transform="translate(261, 0)">
      <text text-anchor="middle"
      fill="black"
      stroke="none"
      transform="translate(0, 12)">May</text>
      <path d="M0,0 v-5" />
    </g><g transform="translate(352, 0)">
      <text text-anchor="middle"
      fill="black"
      stroke="none"
      transform="translate(0, 12)">Jun</text>
      <path d="M0,0 v-5" />
    </g><g transform="translate(440, 0)">
      <text text-anchor="middle"
      fill="black"
      stroke="none"
      transform="translate(0, 12)">Jul</text>
      <path d="M0,0 v-5" />
    </g><g transform="translate(530, 0)">
      <text text-anchor="middle"
      fill="black"
      stroke="none"
      transform="translate(0, 12)">Aug</text>
      <path d="M0,0 v-5" />
    </g><g transform="translate(621, 0)">
      <text text-anchor="middle"
      fill="black"
      stroke="none"
      transform="translate(0, 12)">Sep</text>
      <path d="M0,0 v-5" />
    </g><g transform="translate(709, 0)">
      <text text-anchor="middle"
      fill="black"
      stroke="none"
      transform="translate(0, 12)">Oct</text>
      <path d="M0,0 v-5" />
    </g><g transform="translate(800, 0)">
      <text text-anchor="middle"
      fill="black"
      stroke="none"
      transform="translate(0, 12)">Nov</text>
      <path d="M0,0 v-5" />
    </g><g transform="translate(888, 0)">
      <text text-anchor="middle"
      fill="black"
      stroke="none"
      transform="translate(0, 12)">Dec</text>
      <path d="M0,0 v-5" />
    </g>
  
  </g>
</svg>