<svg xmlns="http://www.w3.org/2000/svg"
  viewBox="0 0 900 400"
  width="900"
  height="400">
  <style>
    text {
      font-family: "Courier New", Courier, monospace;
      font-size: 12px;
    }
  </style>
  <g class="lines" fill="none">
    <path stroke="darkblue" d="M899.7573988784318,182.4L898.8849200962956,182.50818886539818C898.0124413141594,182.61637773079633,896.2674837498871,182.83275546159268,893.9916797098958,182.05528703854284C891.7158756699046,181.27781861549303,888.9092251541944,179.50650403859706,885.320163863831,178.72903561554725C881.7311025734674,177.95156719249744,877.3596305084507,178.16794492329373,874.2826132350641,178.38432265409008C871.2055959616773,178.6007003848864,869.4230334799208,178.81707811568276,867.0420702030465,180.21660602962925C864.661106926172,181.61613394357582,861.6817428541798,184.1988120406725,854.2027347267939,189.73936559564467C846.7237265994081,195.27991915061682,834.7450744166287,203.77834816346444,827.9559222009738,208.13575153528643C821.1667699853189,212.49315490710842,819.5671177367885,212.70953263790474,818.3152202192242,212.9259103687011C817.06332270166,213.1422880994974,816.1591799150616,213.35866583029375,815.2490258937831,213.57504356109007C814.3388718725046,213.7914212918864,813.4227066165458,214.00779902268275,811.9668915758206,214.55940263870494C810.5110765350952,215.1110062547272,808.5156117096031,215.9978357559753,804.378209435486,216.54943937199747C800.240807161369,217.1010429880197,793.9614674386268,217.31742071881604,789.8500960528762,217.8765575007984C785.7387246671256,218.4356942827808,783.7953216183665,219.33759011594915,782.3567555112572,219.89672689793153C780.918189404148,220.45586367991385,779.9844602386885,220.6722414107102,776.3550766965137,221.4934880553642C772.725693154339,222.31473470001822,766.4006552354489,223.74085025852992,762.7028792177076,224.5620969031839C759.0051031999661,225.38334354783794,757.9345890833737,225.59972127863423,756.5603527967763,226.42096792328826C755.1861165101787,227.24221456794228,753.5081580535765,228.66833012645398,750.3089781841092,230.32967248479926C747.1097983146419,231.99101484314448,742.3893970323096,233.88758400132323,739.5628549886966,236.1403537421071C736.7363129450838,238.39312348289093,735.8036301401903,241.00209380627985,734.8850998958095,243.01291598152065C733.9665696514286,245.02373815676142,733.0621919675605,246.43641218385403,732.1578676694353,247.8490862109467C731.2535433713102,249.2617602380393,730.3492724589283,250.67443426513194,722.0324872026545,253.28340458852085C713.7157019463807,255.8923749119098,697.9864023462151,259.697641531595,686.9841487130215,262.30661185498394C675.981895079828,264.91558217837286,669.7066874136066,266.3282562054655,661.9257348614632,267.14278208441C654.1447823093198,267.9573079633545,644.8580848712545,268.17368569415083,636.6283931163773,268.39006342494713C628.3987013615001,268.6064411557434,621.2260152898112,268.8228188865398,610.6403306105212,269.39028357385786C600.0546459312312,269.95774826117594,586.0559626443401,270.87629990501574,577.1931640227145,272.6140544474063C568.3303654010891,274.3518089897969,564.6034514447293,276.9087664307381,560.4832767499311,278.295434016607C556.3631020551327,279.68210160247577,551.849666621896,279.89847933327206,547.3945764673625,281.87029184667705C542.939486312829,283.84210436008215,538.5427414369988,287.5693516560959,535.7802195765873,289.54116416950086C533.0176977161759,291.5129766829059,531.8893988711834,291.7293544137022,526.7000305280327,292.21962977015386C521.510662184882,292.7099051266054,512.2602243435732,293.4740781087123,505.39886791028994,293.9643534651639C498.5375114770066,294.4546288216155,494.0652364517489,294.6710065524118,489.553957802536,296.03277435413014C485.04267915332304,297.39454215584846,480.4923968801551,299.90170002848873,475.98000780748436,301.26346783020705C471.46761873481364,302.62523563192536,466.9931228626403,302.8416133627217,462.84101815485604,303.05799109351807C458.6889134470718,303.2743688243144,454.8591999036765,303.4907465551107,450.24047710777313,303.70712428590707C445.6217543118696,303.9235020167034,440.214022263458,304.1398797474997,433.8494308474581,304.3562574782961C427.4848394314584,304.5726352090924,420.16338864787053,304.7890129398888,413.22729217415855,305.57808570614606C406.2911957004466,306.3671584724034,399.7404535366106,307.7289262741217,393.31892088695275,308.51799904037904C386.89738823729493,309.3070718066363,380.6050651018154,309.52344953743267,375.96970730834227,310.2016781032782C371.3343495148691,310.8799066691237,368.35595706340246,312.01998607001843,357.20990359242415,317.3290390086238C346.0638501214459,322.6380919472292,326.7501356309559,332.11611842354523,313.00206637677076,338.0192502604505C299.25399712258564,343.92238209735586,291.07157310470535,346.25061929485037,275.89161280169037,349.2976520337211C260.71165249867545,352.3446847725918,238.5341559105259,356.1105130528386,211.7731569416218,359.42817838492255C185.01215797271774,362.7458437170065,153.66765662305912,365.6153461009275,137.9954059482298,367.05009729288804L122.32315527340047,368.4848484848485" />
    <path stroke="blue" d="M899.7573988784318,164.93251385876113L898.8849200962956,165.09510401388903C898.0124413141594,165.2576941690169,896.2674837498871,165.5828744792727,893.9916797098958,167.17706260471405C891.7158756699046,168.7712507301554,888.9092251541944,171.6344466707823,885.320163863831,173.18602395507367C881.7311025734674,174.73760123936506,877.3596305084507,174.97755986732093,874.2826132350641,175.2203206416891C871.2055959616773,175.46308141605732,869.4230334799208,175.70864433683778,867.0420702030465,176.7407360284865C864.661106926172,177.7728277201352,861.6817428541798,179.59144818265213,854.2027347267939,183.64415292411513C846.7237265994081,187.69685766557816,834.7450744166287,193.98364668598728,827.9559222009738,197.24676704065982C821.1667699853189,200.50988739533238,819.5671177367885,200.74933908426843,818.3152202192242,201.0607015052101C817.06332270166,201.3720639261517,816.1591799150616,201.7553370790989,815.2490258937831,202.06695296955044C814.3388718725046,202.378568860002,813.4227066165458,202.61852748795783,811.9668915758206,202.98488463813615C810.5110765350952,203.35124178831447,808.5156117096031,203.8439974607152,804.378209435486,206.48739918193874C800.240807161369,209.13080090316225,793.9614674386268,213.92484867320854,789.8500960528762,216.4945007517703C785.7387246671256,219.06415283033206,783.7953216183665,219.40940921740926,782.3567555112572,219.7020167249258C780.918189404148,219.99462423244236,779.9844602386885,220.23458286039826,776.3550766965137,221.17134968298902C772.725693154339,222.1081165055798,766.4006552354489,223.74169152280547,762.7028792177076,224.70387101907625C759.0051031999661,225.66605051534702,757.9345890833737,225.9568344906629,756.5603527967763,226.3852597886173C755.1861165101787,226.81368508657167,753.5081580535765,227.3797517071645,750.3089781841092,228.45490449450787C747.1097983146419,229.5300572818512,742.3893970323096,231.1142962359451,739.5628549886966,232.2185681820669C736.7363129450838,233.3228401281887,735.8036301401903,233.9471450663384,734.8850998958095,234.52797246547925C733.9665696514286,235.1087998646201,733.0621919675605,235.646149724752,732.1578676694353,236.20266392850814C731.2535433713102,236.7591781322643,730.3492724589283,237.33485667964473,722.0324872026545,238.59301177384472C713.7157019463807,239.85116686804474,697.9864023462151,241.7917985090644,686.9841487130215,243.91736531918787C675.981895079828,246.04293212931142,669.7066874136066,248.35343410853886,661.9257348614632,249.6289818175859C654.1447823093198,250.90452952663296,644.8580848712545,251.14512296549967,636.6283931163773,251.38086821400688C628.3987013615001,251.61661346251412,621.2260152898112,251.8475105206619,610.6403306105212,252.18400830671726C600.0546459312312,252.52050609277262,586.0559626443401,252.96260460673554,577.1931640227145,254.25867666182558C568.3303654010891,255.55474871691558,564.6034514447293,257.7047943131327,560.4832767499311,258.9064565603914C556.3631020551327,260.10811880765,551.849666621896,260.36139770595014,547.3945764673625,263.1945839244996C542.939486312829,266.0277701430491,538.5427414369988,271.44086368184804,535.7802195765873,274.22996094348696C533.0176977161759,277.0190582051259,531.8893988711834,277.18415918960477,526.7000305280327,277.39773840725076C521.510662184882,277.6113176248967,512.2602243435732,277.8733750757097,505.39886791028994,278.33616184628835C498.5375114770066,278.798948616867,494.0652364517489,279.46246470721127,489.553957802536,283.33995844411356C485.04267915332304,287.21745218101586,480.4923968801551,294.30892356447606,475.98000780748436,298.1122970585378C471.46761873481364,301.9156705525995,466.9931228626403,302.43094615726267,462.84101815485604,302.8945051131266C458.6889134470718,303.35806406899064,454.8591999036765,303.76990637605536,450.24047710777313,304.0958068435657C445.6217543118696,304.421707311076,440.214022263458,304.6616659390318,433.8494308474581,304.8989098887583C427.4848394314584,305.1361538384847,420.16338864787053,305.3706831099817,413.22729217415855,306.26360421178293C406.2911957004466,307.15652531358415,399.7404535366106,308.70783824568963,393.31892088695275,309.65426175943304C386.89738823729493,310.60068527317657,380.6050651018154,310.94221936855797,375.96970730834227,311.46318830759907C371.3343495148691,311.9841572466402,368.35595706340246,312.684561029341,357.20990359242415,318.66956315257744C346.0638501214459,324.65456527581387,326.7501356309559,335.92416573958593,313.00206637677076,342.1997883453668C299.25399712258564,348.4754109511477,291.07157310470535,349.75705569893734,275.89161280169037,352.3939947136958C260.71165249867545,355.0309337284543,238.5341559105259,359.02316701018157,211.7731569416218,362.3995392525283C185.01215797271774,365.7759114948751,153.66765662305912,368.5364226978415,137.9954059482298,369.9166782993246L122.32315527340047,371.2969339008078" />
    
    <path stroke="darkorange" d="M899.7573988784318,197.6L898.8849200962956,197.49181113460182C898.0124413141594,197.38362226920367,896.2674837498871,197.16724453840732,893.9916797098958,197.94471296145716C891.7158756699046,198.72218138450694,888.9092251541944,200.4934959614029,885.320163863831,201.27096438445275C881.7311025734674,202.04843280750256,877.3596305084507,201.8320550767062,874.2826132350641,201.61567734590986C871.2055959616773,201.39929961511356,869.4230334799208,201.18292188431724,867.0420702030465,199.78339397037072C864.661106926172,198.38386605642418,861.6817428541798,195.80118795932754,854.2027347267939,190.26063440435533C846.7237265994081,184.7200808493832,834.7450744166287,176.22165183653556,827.9559222009738,171.86424846471357C821.1667699853189,167.5068450928916,819.5671177367885,167.29046736209526,818.3152202192242,167.07408963129893C817.06332270166,166.8577119005026,816.1591799150616,166.64133416970625,815.2490258937831,166.42495643890993C814.3388718725046,166.2085787081136,813.4227066165458,165.99220097731725,811.9668915758206,165.44059736129506C810.5110765350952,164.8889937452728,808.5156117096031,164.00216424402473,804.378209435486,163.4505606280025C800.240807161369,162.8989570119803,793.9614674386268,162.68257928118393,789.8500960528762,162.1234424992016C785.7387246671256,161.56430571721924,783.7953216183665,160.66240988405085,782.3567555112572,160.1032731020685C780.918189404148,159.54413632008615,779.9844602386885,159.3277585892898,776.3550766965137,158.50651194463578C772.725693154339,157.68526529998175,766.4006552354489,156.25914974147008,762.7028792177076,155.43790309681606C759.0051031999661,154.61665645216206,757.9345890833737,154.4002787213657,756.5603527967763,153.5790320767117C755.1861165101787,152.75778543205772,753.5081580535765,151.33166987354602,750.3089781841092,149.6703275152008C747.1097983146419,148.00898515685554,742.3893970323096,146.11241599867677,739.5628549886966,143.85964625789293C736.7363129450838,141.60687651710907,735.8036301401903,138.99790619372015,734.8850998958095,136.98708401847938C733.9665696514286,134.9762618432386,733.0621919675605,133.56358781614597,732.1578676694353,132.15091378905333C731.2535433713102,130.7382397619607,730.3492724589283,129.32556573486806,722.0324872026545,126.7165954114791C713.7157019463807,124.10762508809019,697.9864023462151,120.30235846840498,686.9841487130215,117.69338814501604C675.981895079828,115.08441782162713,669.7066874136066,113.6717437945345,661.9257348614632,112.85721791559001C654.1447823093198,112.04269203664553,644.8580848712545,111.82631430584918,636.6283931163773,111.60993657505286C628.3987013615001,111.39355884425652,621.2260152898112,111.17718111346018,610.6403306105212,110.6097164261421C600.0546459312312,110.04225173882405,586.0559626443401,109.12370009498422,577.1931640227145,107.38594555259367C568.3303654010891,105.64819101020312,564.6034514447293,103.09123356926187,560.4832767499311,101.70456598339308C556.3631020551327,100.31789839752427,551.849666621896,100.10152066672795,547.3945764673625,98.12970815332291C542.939486312829,96.15789563991787,538.5427414369988,92.43064834390414,535.7802195765873,90.45883583049913C533.0176977161759,88.48702331709408,531.8893988711834,88.27064558629775,526.7000305280327,87.78037022984616C521.510662184882,87.29009487339458,512.2602243435732,86.52592189128772,505.39886791028994,86.03564653483613C498.5375114770066,85.54537117838454,494.0652364517489,85.32899344758822,489.553957802536,83.96722564586989C485.04267915332304,82.60545784415156,480.4923968801551,80.09829997151125,475.98000780748436,78.73653216979292C471.46761873481364,77.3747643680746,466.9931228626403,77.15838663727827,462.84101815485604,76.94200890648193C458.6889134470718,76.72563117568559,454.8591999036765,76.50925344488927,450.24047710777313,76.29287571409293C445.6217543118696,76.07649798329659,440.214022263458,75.86012025250025,433.8494308474581,75.64374252170391C427.4848394314584,75.42736479090757,420.16338864787053,75.21098706011124,413.22729217415855,74.42191429385393C406.2911957004466,73.6328415275966,399.7404535366106,72.27107372587828,393.31892088695275,71.48200095962096C386.89738823729493,70.69292819336363,380.6050651018154,70.47655046256729,375.96970730834227,69.79832189672176C371.3343495148691,69.12009333087624,368.35595706340246,67.98001392998154,357.20990359242415,62.670960991376155C346.0638501214459,57.36190805277078,326.7501356309559,47.88388157645473,313.00206637677076,41.980749739549445C299.25399712258564,36.077617902644164,291.07157310470535,33.749380705149655,275.89161280169037,30.70234796627895C260.71165249867545,27.655315227408256,238.5341559105259,23.889486947161373,211.7731569416218,20.57182161507743C185.01215797271774,17.254156282993492,153.66765662305912,14.384653899072498,137.9954059482298,12.949902707112L122.32315527340047,11.515151515151503" />
    <path stroke="orange" d="M899.7573988784318,215.06748614123887L898.8849200962956,214.904895986111C898.0124413141594,214.7423058309831,896.2674837498871,214.4171255207273,893.9916797098958,212.82293739528598C891.7158756699046,211.2287492698446,888.9092251541944,208.3655533292177,885.320163863831,206.81397604492633C881.7311025734674,205.26239876063494,877.3596305084507,205.02244013267907,874.2826132350641,204.7796793583109C871.2055959616773,204.5369185839427,869.4230334799208,204.29135566316222,867.0420702030465,203.25926397151352C864.661106926172,202.22717227986482,861.6817428541798,200.40855181734787,854.2027347267939,196.35584707588487C846.7237265994081,192.30314233442184,834.7450744166287,186.01635331401272,827.9559222009738,182.75323295934018C821.1667699853189,179.4901126046676,819.5671177367885,179.25066091573152,818.3152202192242,178.9392984947899C817.06332270166,178.6279360738483,816.1591799150616,178.2446629209011,815.2490258937831,177.93304703044956C814.3388718725046,177.62143113999807,813.4227066165458,177.38147251204217,811.9668915758206,177.01511536186388C810.5110765350952,176.64875821168553,808.5156117096031,176.1560025392848,804.378209435486,173.51260081806126C800.240807161369,170.86919909683775,793.9614674386268,166.07515132679146,789.8500960528762,163.5054992482297C785.7387246671256,160.93584716966794,783.7953216183665,160.5905907825907,782.3567555112572,160.29798327507416C780.918189404148,160.0053757675576,779.9844602386885,159.76541713960174,776.3550766965137,158.82865031701098C772.725693154339,157.8918834944202,766.4006552354489,156.25830847719453,762.7028792177076,155.29612898092375C759.0051031999661,154.33394948465298,757.9345890833737,154.04316550933706,756.5603527967763,153.6147402113827C755.1861165101787,153.18631491342833,753.5081580535765,152.6202482928355,750.3089781841092,151.54509550549213C747.1097983146419,150.46994271814876,742.3893970323096,148.8857037640549,739.5628549886966,147.7814318179331C736.7363129450838,146.6771598718113,735.8036301401903,146.05285493366156,734.8850998958095,145.47202753452072C733.9665696514286,144.8912001353799,733.0621919675605,144.353850275248,732.1578676694353,143.79733607149186C731.2535433713102,143.24082186773572,730.3492724589283,142.66514332035533,722.0324872026545,141.40698822615528C713.7157019463807,140.14883313195526,697.9864023462151,138.20820149093564,686.9841487130215,136.0826346808121C675.981895079828,133.95706787068858,669.7066874136066,131.64656589146114,661.9257348614632,130.37101818241408C654.1447823093198,129.09547047336704,644.8580848712545,128.85487703450033,636.6283931163773,128.61913178599312C628.3987013615001,128.38338653748588,621.2260152898112,128.1524894793381,610.6403306105212,127.81599169328275C600.0546459312312,127.4794939072274,586.0559626443401,127.03739539326448,577.1931640227145,125.74132333817442C568.3303654010891,124.4452512830844,564.6034514447293,122.29520568686725,560.4832767499311,121.09354343960861C556.3631020551327,119.89188119234997,551.849666621896,119.63860229404986,547.3945764673625,116.80541607550037C542.939486312829,113.97222985695088,538.5427414369988,108.55913631815197,535.7802195765873,105.77003905651306C533.0176977161759,102.98094179487417,531.8893988711834,102.81584081039524,526.7000305280327,102.60226159274929C521.510662184882,102.38868237510333,512.2602243435732,102.12662492429034,505.39886791028994,101.6638381537117C498.5375114770066,101.20105138313302,494.0652364517489,100.53753529278873,489.553957802536,96.66004155588645C485.04267915332304,92.78254781898418,480.4923968801551,85.69107643552394,475.98000780748436,81.88770294146222C471.46761873481364,78.08432944740052,466.9931228626403,77.56905384273733,462.84101815485604,77.10549488687336C458.6889134470718,76.64193593100939,454.8591999036765,76.23009362394463,450.24047710777313,75.9041931564343C445.6217543118696,75.578292688924,440.214022263458,75.33833406096812,433.8494308474581,75.1010901112417C427.4848394314584,74.86384616151527,420.16338864787053,74.62931689001827,413.22729217415855,73.73639578821705C406.2911957004466,72.8434746864158,399.7404535366106,71.29216175431033,393.31892088695275,70.34573824056689C386.89738823729493,69.39931472682343,380.6050651018154,69.05778063144201,375.96970730834227,68.5368116924009C371.3343495148691,68.01584275335979,368.35595706340246,67.315438970659,357.20990359242415,61.33043684742256C346.0638501214459,55.34543472418613,326.7501356309559,44.07583426041405,313.00206637677076,37.800211654633195C299.25399712258564,31.524589048852334,291.07157310470535,30.242944301062696,275.89161280169037,27.60600528630424C260.71165249867545,24.96906627154578,238.5341559105259,20.9768329898185,211.7731569416218,17.60046074747169C185.01215797271774,14.22408850512488,153.66765662305912,11.46357730215854,137.9954059482298,10.08332170067537L122.32315527340047,8.703066099192199" />
  </g>
  
  <g class="axis y" stroke="black" fill="none" stroke-dasharray="4 6">
    <path d="M 0,285 h900" /><path d="M 0,190 h900" /><path d="M 0,95 h900" />
  </g>
  <g
    class="axis x"
    stroke="black" fill="none"
    transform="translate(0, 380)">
  
  <path d="M0,0 h900" />
  <g transform="translate(91, 0)">
      <text text-anchor="middle"
      fill="black"
      stroke="none"
      transform="translate(0, 12)">Mar</text>
      <path d="M0,0 v-5" />
    </g><g transform="translate(192, 0)">
      <text text-anchor="middle"
      fill="black"
      stroke="none"
      transform="translate(0, 12)">Apr</text>
      <path d="M0,0 v-5" />
    </g><g transform="translate(290, 0)">
      <text text-anchor="middle"
      fill="black"
      stroke="none"
      transform="translate(0, 12)">May</text>
      <path d="M0,0 v-5" />
    </g><g transform="translate(391, 0)">
      <text text-anchor="middle"
      fill="black"
      stroke="none"
      transform="translate(0, 12)">Jun</text>
      <path d="M0,0 v-5" />
    </g><g transform="translate(488, 0)">
      <text text-anchor="middle"
      fill="black"
      stroke="none"
      transform="translate(0, 12)">Jul</text>
      <path d="M0,0 v-5" />
    </g><g transform="translate(589, 0)">
      <text text-anchor="middle"
      fill="black"
      stroke="none"
      transform="translate(0, 12)">Aug</text>
      <path d="M0,0 v-5" />
    </g><g transform="translate(690, 0)">
      <text text-anchor="middle"
      fill="black"
      stroke="none"
      transform="translate(0, 12)">Sep</text>
      <path d="M0,0 v-5" />
    </g><g transform="translate(788, 0)">
      <text text-anchor="middle"
      fill="black"
      stroke="none"
      transform="translate(0, 12)">Oct</text>
      <path d="M0,0 v-5" />
    </g><g transform="translate(889, 0)">
      <text text-anchor="middle"
      fill="black"
      stroke="none"
      transform="translate(0, 12)">Nov</text>
      <path d="M0,0 v-5" />
    </g>
  
  </g>
</svg>