<svg xmlns="http://www.w3.org/2000/svg"
  viewBox="0 0 600 400"
  width="600"
  height="400">
  <g class="lines" fill="none">
    <path stroke="orange" d="M590.4337892344398,206.59340659340663L563.855251220467,175.82417582417582L560.531395146464,175.82417582417582L560.531395146464,175.82417582417582L559.4172878327703,173.33333333333334L545.0200668011163,173.33333333333334L542.8041627517808,170.78651685393257L542.8041627517808,170.78651685393257L529.5087384557685,166.2921348314607L529.5087384557685,166.2921348314607L527.2928344064331,161.79775280898875L518.4292182090916,146.66666666666669L518.4292182090916,155.55555555555554L518.4292182090916,137.77777777777777L518.4292182090916,142.22222222222226L404.25942982793043,117.39130434782608L397.4786352017761,108.69565217391303L388.80857719726254,108.69565217391303L380.4188156667673,95.65217391304346L379.8800227006974,95.65217391304346L359.8314512850722,93.61702127659575L351.2602626105376,93.61702127659575L342.50169667923865,85.10638297872339L333.9251734208816,85.10638297872339L326.89744911663695,85.10638297872339L316.07924653614845,85.10638297872339L300.6641971699814,85.10638297872339L287.10042791947603,80.85106382978724L274.1573939201983,80.85106382978724L269.1745848655562,77.4193548387097L224.9535266221197,43.01075268817205L207.4703770843524,35.164835164835175L83.25077136943986,12.12121212121211" />
    <path stroke="darkorange" d="M590.4337892344398,210.43862272815247L563.855251220467,187.9736181741467L560.531395146464,187.97550153892618L560.531395146464,187.44306367518132L559.4172878327703,186.50387960913218L545.0200668011163,169.5846629821709L542.8041627517808,169.19346387707606L542.8041627517808,169.19346387707606L529.5087384557685,163.82711686792499L529.5087384557685,164.0159416878384L527.2928344064331,162.61557014605384L518.4292182090916,156.19342784389212L518.4292182090916,157.62133983222844L518.4292182090916,153.84131211039156L518.4292182090916,155.0885687769842L404.25942982793043,139.11092390688032L397.4786352017761,132.01462557278262L388.80857719726254,131.96513850029626L380.4188156667673,112.74606143214885L379.8800227006974,113.02417032432324L359.8314512850722,112.94206943445158L351.2602626105376,111.36848133889083L342.50169667923865,85.9139447859334L333.9251734208816,84.89109533686596L326.89744911663695,84.25251820085768L316.07924653614845,84.25251820085768L300.6641971699814,84.27268918460587L287.10042791947603,79.4007846490655L274.1573939201983,79.02341449144737L269.1745848655562,77.31278233759622L224.9535266221197,36.335784805152116L207.4703770843524,32.46574349307618L83.25077136943986,9.161122209675998" />



    <path stroke="darkblue" d="M590.4337892344398,193.40659340659337L563.855251220467,224.17582417582418L560.531395146464,224.17582417582418L560.531395146464,224.17582417582418L559.4172878327703,226.66666666666666L545.0200668011163,226.66666666666666L542.8041627517808,229.21348314606743L542.8041627517808,229.21348314606743L529.5087384557685,233.7078651685393L529.5087384557685,233.7078651685393L527.2928344064331,238.20224719101125L518.4292182090916,253.33333333333331L518.4292182090916,244.44444444444446L518.4292182090916,262.22222222222223L518.4292182090916,257.77777777777777L404.25942982793043,282.60869565217394L397.4786352017761,291.30434782608694L388.80857719726254,291.30434782608694L380.4188156667673,304.34782608695656L379.8800227006974,304.34782608695656L359.8314512850722,306.3829787234043L351.2602626105376,306.3829787234043L342.50169667923865,314.8936170212766L333.9251734208816,314.8936170212766L326.89744911663695,314.8936170212766L316.07924653614845,314.8936170212766L300.6641971699814,314.8936170212766L287.10042791947603,319.1489361702128L274.1573939201983,319.1489361702128L269.1745848655562,322.5806451612903L224.9535266221197,356.98924731182797L207.4703770843524,364.83516483516485L83.25077136943986,387.8787878787879" />
    <path stroke="blue" d="M590.4337892344398,189.56137727184753L563.855251220467,212.0263818258533L560.531395146464,212.02449846107382L560.531395146464,212.55693632481868L559.4172878327703,213.49612039086782L545.0200668011163,230.4153370178291L542.8041627517808,230.80653612292394L542.8041627517808,230.80653612292394L529.5087384557685,236.17288313207501L529.5087384557685,235.9840583121616L527.2928344064331,237.38442985394616L518.4292182090916,243.80657215610788L518.4292182090916,242.37866016777156L518.4292182090916,246.15868788960844L518.4292182090916,244.9114312230158L404.25942982793043,260.8890760931197L397.4786352017761,267.9853744272174L388.80857719726254,268.0348614997037L380.4188156667673,287.25393856785115L379.8800227006974,286.9758296756768L359.8314512850722,287.0579305655484L351.2602626105376,288.63151866110917L342.50169667923865,314.0860552140666L333.9251734208816,315.108904663134L326.89744911663695,315.7474817991423L316.07924653614845,315.7474817991423L300.6641971699814,315.72731081539416L287.10042791947603,320.5992153509345L274.1573939201983,320.97658550855266L269.1745848655562,322.6872176624038L224.9535266221197,363.6642151948479L207.4703770843524,367.53425650692384L83.25077136943986,390.838877790324" />
  </g>
</svg>