<svg xmlns="http://www.w3.org/2000/svg"
  viewBox="0 0 900 400"
  width="900"
  height="400">
  <style>
    text {
      font-family: "Courier New", Courier, monospace;
      font-size: 12px;
    }
  </style>
  <g class="lines" fill="none">
    <path stroke="darkorange" d="M899.675272173929,175.3846153846154L897.4122831464662,175.511655011655C895.1492941190036,175.63869463869466,890.623316064078,175.8927738927739,886.356877193879,177.33000333000334C882.0904383236798,178.76723276723274,878.0835386382072,181.3876123876124,869.9724803206508,186.96586746586743C861.8614220030944,192.54412254412253,849.6462050534543,201.08025308025307,842.676467292372,205.47535797535798C835.7067295312899,209.8704628704629,833.9824709587652,210.12454212454213,832.6097183532048,210.37862137862138C831.2369657476444,210.63270063270065,830.2157191090481,210.8867798867799,828.6367737723904,211.47608502608503C827.0578284357329,212.06539016539014,824.9211844010139,212.98992118992115,820.6256494274394,213.57922632922632C816.330114453865,214.16853146853146,809.875688541435,214.42261072261067,805.6126168760775,215.019449027876C801.34954521072,215.61628733314123,799.2778277924352,216.55588468959255,794.9766322453369,217.75759190871545C790.6754366982385,218.95929912783845,784.1447630223269,220.4231162096331,780.2847198749402,221.28206437757C776.4246767275536,222.14101254550692,775.2352641086919,222.3950917995862,773.7388530637862,223.25403996752314C772.2424420188805,224.11298813546009,770.4390325479304,225.57680521725467,767.097992223734,227.27584909888284C763.7569518995377,228.97489298051096,758.8782807220949,230.90916366197266,755.9138978741045,233.19963492603947C752.9495150261142,235.4901061901062,751.8994205075765,238.13677803677805,750.8636312134541,240.18530173530175C749.8278419193317,242.23382543382544,748.8063578496248,243.68420098420097,747.7849277415338,245.13457653457655C746.763497633443,246.58495208495208,745.7421214869679,248.03532763532766,737.2282720825515,250.6819994819995C728.7144226781348,253.32867132867133,712.7081000157768,257.1716394716395,701.4798140429239,259.8183113183113C690.251528070071,262.46498316498315,683.8012787867234,263.9153587153587,675.829042122623,264.7675861175861C667.8568054585227,265.61981351981353,658.3625814136695,265.87389277389275,649.9367649896807,266.127972027972C641.5109485656917,266.38205128205124,634.1535397625671,266.63613053613057,623.3463162797697,267.2412967467315C612.5390927969722,267.8464629573325,598.2820546345021,268.80271612445523,589.2163020095883,270.5781721901287C580.1505493846745,272.3536282558022,576.2760822973171,274.9482872200263,572.0041123614727,276.3726563291781C567.7321424256282,277.79702543832974,563.0626696412968,278.05110469240907,558.4521715071487,280.060618729097C553.8416733730006,282.07013276578493,549.2901498890361,285.8350815850816,546.3904778110156,287.84459562176954C543.4908057329951,289.8541096584575,542.2429850609187,290.1081889125367,536.8902880672653,290.63616579227124C531.5375910736118,291.16414267200577,522.0800177583812,291.96601717739554,515.0372969115883,292.49399405713C507.9945760647954,293.0219709368646,503.3667076864401,293.2760501909438,498.6994149513971,294.6755195159451C494.0321222163541,296.07498884094633,489.32540512462333,298.61984823686953,484.6569899879664,300.01931756187076C479.9885748513095,301.41878688687206,475.3584616697265,301.67286614095127,471.0542172913212,301.92694539503054C466.749972912916,302.1810246491098,462.77159733768843,302.43510390318903,457.9957014541788,302.6891831572683C453.21980557066905,302.9432624113476,447.6463893788773,303.1973416654268,441.1057921617735,303.45142091950606C434.56519494466966,303.70550017358534,427.0574167022539,303.95957942766455,419.93914959298786,304.7863537172048C412.8208824837218,305.61312800674506,406.09212650760554,307.01259733174624,399.4939738308204,307.8393716212865C392.89582115403533,308.66614591082674,386.4282717765814,308.92022516490596,381.63556145350987,309.6361552540344C376.84285113043825,310.35208534316286,373.72497986174903,311.5298662673405,362.3513428798979,316.87662072922876C350.97770589804685,322.2233751911171,331.3483032030338,331.7391031907161,317.3445824509592,337.6799365509043C303.34086169888457,343.6207699110925,294.9628228897483,345.98670863186993,279.51176525656746,349.0714428940235C264.06070762338663,352.1561771561772,241.53663116616121,355.95970695970703,214.37961001267175,359.3150738150739C187.22258885918225,362.6704406704407,155.43262300942868,365.5776445776446,139.5376400845519,367.03124653124655L123.64265715967512,368.4848484848485" />
    <path stroke="orange" d="M899.675272173929,174.49178089983508L897.4122831464662,174.62125797417784C895.1492941190036,174.75073504852057,890.623316064078,175.00968919720606,886.356877193879,176.0607764095844C882.0904383236798,177.11186362196273,878.0835386382072,178.9550838980339,869.9724803206508,183.02958630663883C861.8614220030944,187.10408871524382,849.6462050534543,193.4098732563825,842.676467292372,196.69198913178468C835.7067295312899,199.97410500718686,833.9824709587652,200.23255221685258,832.6097183532048,200.5629101585238C831.2369657476444,200.89326810019506,830.2157191090481,201.29553677387187,828.6367737723904,201.75254670727546C827.0578284357329,202.2095566406791,824.9211844010139,202.72130783380945,820.6256494274394,205.3837050757626C816.330114453865,208.04610231771574,809.875688541435,212.85914560849164,805.6126168760775,215.447793207783C801.34954521072,218.0364408070744,799.2778277924352,218.40069271488127,794.9766322453369,219.40910393776235C790.6754366982385,220.41751516064343,784.1447630223269,222.07008569859872,780.2847198749402,223.0512607155991C776.4246767275536,224.0324357325995,775.2352641086919,224.34221522864505,773.7388530637862,224.78963604732903C772.2424420188805,225.23705686601303,770.4390325479304,225.8221190073355,767.097992223734,226.9162673154085C763.7569518995377,228.01041562348146,758.8782807220949,229.61365009830493,755.9138978741045,230.7369175651564C752.9495150261142,231.86018503200782,751.8994205075765,232.50348549088713,750.8636312134541,233.10330841075756C749.8278419193317,233.70313133062803,748.8063578496248,234.25947671148958,747.7849277415338,234.83498643597534C746.763497633443,235.41049616046112,745.7421214869679,236.00517022857116,737.2282720825515,237.28232084350077C728.7144226781348,238.5594714584304,712.7081000157768,240.51909862017968,701.4798140429239,242.66366095103285C690.251528070071,244.80822328188597,683.8012787867234,247.13772078184306,675.829042122623,248.43226401161974C667.8568054585227,249.7268072413964,658.3625814136695,249.9863962009927,649.9367649896807,250.24113697022952C641.5109485656917,250.4958777394664,634.1535397625671,250.7457703183438,623.3463162797697,251.10126362512878C612.5390927969722,251.45675693191376,598.2820546345021,251.91785096660627,589.2163020095883,253.23291854242598C580.1505493846745,254.54798611824563,576.2760822973171,256.7170272351924,572.0041123614727,257.93768500318066C567.7321424256282,259.1583427711689,563.0626696412968,259.4306171901987,558.4521715071487,262.2827989294778C553.8416733730006,265.1349806687569,549.2901498890361,270.5670697282854,546.3904778110156,273.3751625106539C543.4908057329951,276.18325529302246,542.2429850609187,276.367351798231,536.8902880672653,276.59992653660663C531.5375910736118,276.8325012749822,522.0800177583812,277.11355424652476,515.0372969115883,277.5953365378331C507.9945760647954,278.0771188291413,503.3667076864401,278.75963044021523,498.6994149513971,282.65611969784715C494.0321222163541,286.552608955479,489.32540512462333,293.6630758596689,484.6569899879664,297.48544487446026C479.9885748513095,301.3078138892516,475.3584616697265,301.8420850146444,471.0542172913212,302.324639491238C466.749972912916,302.8071939678316,462.77159733768843,303.238031795626,457.9957014541788,303.5829277838659C453.21980557066905,303.9278237721058,447.6463893788773,304.18677792079137,441.1057921617735,304.4430173912474C434.56519494466966,304.6992568617034,427.0574167022539,304.95278165393006,419.93914959298786,305.8646982764609C412.8208824837218,306.77661489899174,406.09212650760554,308.34692335182683,399.4939738308204,309.3123423862999C392.89582115403533,310.277761420773,386.4282717765814,310.638291036884,381.63556145350987,311.1782554966548C376.84285113043825,311.7182199564255,373.72497986174903,312.4376192598559,362.3513428798979,318.44161690382197C350.97770589804685,324.445614547788,331.3483032030338,335.73421053228975,317.3445824509592,342.0288286588002C303.34086169888457,348.32344678531064,294.9628228897483,349.62408705382995,279.51176525656746,352.28002158931804C264.06070762338663,354.9359561248061,241.53663116616121,358.947184927263,214.37961001267175,362.34255269033946C187.22258885918225,365.7379204534159,155.43262300942868,368.51742717711187,139.5376400845519,369.90718053895984L123.64265715967512,371.2969339008078" />
    
    <path stroke="darkblue" d="M899.675272173929,204.6153846153846L897.4122831464662,204.488344988345C895.1492941190036,204.36130536130534,890.623316064078,204.1072261072261,886.356877193879,202.66999666999666C882.0904383236798,201.23276723276726,878.0835386382072,198.6123876123876,869.9724803206508,193.03413253413257C861.8614220030944,187.4558774558775,849.6462050534543,178.91974691974693,842.676467292372,174.52464202464205C835.7067295312899,170.1295371295371,833.9824709587652,169.87545787545787,832.6097183532048,169.62137862137862C831.2369657476444,169.36729936729935,830.2157191090481,169.1132201132201,828.6367737723904,168.52391497391497C827.0578284357329,167.93460983460986,824.9211844010139,167.0100788100788,820.6256494274394,166.42077367077368C816.330114453865,165.83146853146854,809.875688541435,165.5773892773893,805.6126168760775,164.980550972124C801.34954521072,164.38371266685874,799.2778277924352,163.44411531040745,794.9766322453369,162.2424080912845C790.6754366982385,161.04070087216152,784.1447630223269,159.5768837903669,780.2847198749402,158.71793562243C776.4246767275536,157.85898745449308,775.2352641086919,157.6049082004138,773.7388530637862,156.7459600324769C772.2424420188805,155.88701186453997,770.4390325479304,154.42319478274536,767.097992223734,152.7241509011172C763.7569518995377,151.02510701948904,758.8782807220949,149.09083633802734,755.9138978741045,146.8003650739606C752.9495150261142,144.5098938098938,751.8994205075765,141.86322196322197,750.8636312134541,139.81469826469825C749.8278419193317,137.76617456617458,748.8063578496248,136.31579901579903,747.7849277415338,134.86542346542348C746.763497633443,133.41504791504792,745.7421214869679,131.96467236467237,737.2282720825515,129.3180005180005C728.7144226781348,126.67132867132868,712.7081000157768,122.82836052836053,701.4798140429239,120.18168868168868C690.251528070071,117.53501683501685,683.8012787867234,116.0846412846413,675.829042122623,115.23241388241388C667.8568054585227,114.38018648018648,658.3625814136695,114.12610722610724,649.9367649896807,113.87202797202796C641.5109485656917,113.61794871794872,634.1535397625671,113.36386946386948,623.3463162797697,112.7587032532685C612.5390927969722,112.15353704266748,598.2820546345021,111.19728387554476,589.2163020095883,109.42182780987127C580.1505493846745,107.64637174419782,576.2760822973171,105.05171277997364,572.0041123614727,103.62734367082192C567.7321424256282,102.2029745616702,563.0626696412968,101.94889530759094,558.4521715071487,99.93938127090301C553.8416733730006,97.92986723421505,549.2901498890361,94.1649184149184,546.3904778110156,92.15540437823046C543.4908057329951,90.1458903415425,542.2429850609187,89.89181108746324,536.8902880672653,89.36383420772874C531.5375910736118,88.83585732799423,522.0800177583812,88.03398282260447,515.0372969115883,87.50600594286998C507.9945760647954,86.97802906313545,503.3667076864401,86.7239498090562,498.6994149513971,85.32448048405496C494.0321222163541,83.92501115905371,489.32540512462333,81.38015176313048,484.6569899879664,79.98068243812924C479.9885748513095,78.58121311312799,475.3584616697265,78.32713385904874,471.0542172913212,78.07305460496947C466.749972912916,77.81897535089023,462.77159733768843,77.56489609681098,457.9957014541788,77.31081684273171C453.21980557066905,77.05673758865247,447.6463893788773,76.80265833457322,441.1057921617735,76.54857908049395C434.56519494466966,76.29449982641471,427.0574167022539,76.04042057233546,419.93914959298786,75.21364628279521C412.8208824837218,74.38687199325497,406.09212650760554,72.98740266825374,399.4939738308204,72.16062837871348C392.89582115403533,71.33385408917324,386.4282717765814,71.07977483509399,381.63556145350987,70.36384474596554C376.84285113043825,69.6479146568371,373.72497986174903,68.47013373265948,362.3513428798979,63.12337927077118C350.97770589804685,57.77662480888288,331.3483032030338,48.260896809283906,317.3445824509592,42.320063449095706C303.34086169888457,36.37923008890751,294.9628228897483,34.01329136813008,279.51176525656746,30.928557105976466C264.06070762338663,27.84382284382285,241.53663116616121,24.040293040293047,214.37961001267175,20.684926184926187C187.22258885918225,17.329559329559327,155.43262300942868,14.422355422355416,139.5376400845519,12.96875346875346L123.64265715967512,11.515151515151503" />
    <path stroke="blue" d="M899.675272173929,205.50821910016492L897.4122831464662,205.37874202582216C895.1492941190036,205.24926495147943,890.623316064078,204.99031080279394,886.356877193879,203.9392235904156C882.0904383236798,202.88813637803727,878.0835386382072,201.0449161019661,869.9724803206508,196.97041369336114C861.8614220030944,192.89591128475618,849.6462050534543,186.59012674361747,842.676467292372,183.3080108682153C835.7067295312899,180.02589499281308,833.9824709587652,179.76744778314742,832.6097183532048,179.4370898414762C831.2369657476444,179.1067318998049,830.2157191090481,178.70446322612813,828.6367737723904,178.24745329272454C827.0578284357329,177.7904433593209,824.9211844010139,177.27869216619055,820.6256494274394,174.6162949242374C816.330114453865,171.95389768228426,809.875688541435,167.14085439150836,805.6126168760775,164.552206792217C801.34954521072,161.9635591929256,799.2778277924352,161.59930728511873,794.9766322453369,160.59089606223765C790.6754366982385,159.58248483935657,784.1447630223269,157.92991430140128,780.2847198749402,156.9487392844009C776.4246767275536,155.9675642674005,775.2352641086919,155.65778477135495,773.7388530637862,155.21036395267097C772.2424420188805,154.76294313398697,770.4390325479304,154.1778809926645,767.097992223734,153.08373268459152C763.7569518995377,151.98958437651854,758.8782807220949,150.38634990169507,755.9138978741045,149.26308243484365C752.9495150261142,148.1398149679922,751.8994205075765,147.49651450911284,750.8636312134541,146.89669158924238C749.8278419193317,146.29686866937195,748.8063578496248,145.74052328851042,747.7849277415338,145.16501356402466C746.763497633443,144.58950383953888,745.7421214869679,143.99482977142884,737.2282720825515,142.7176791564992C728.7144226781348,141.4405285415696,712.7081000157768,139.48090137982032,701.4798140429239,137.33633904896715C690.251528070071,135.19177671811403,683.8012787867234,132.86227921815694,675.829042122623,131.5677359883803C667.8568054585227,130.2731927586036,658.3625814136695,130.0136037990073,649.9367649896807,129.75886302977042C641.5109485656917,129.5041222605336,634.1535397625671,129.25422968165617,623.3463162797697,128.89873637487122C612.5390927969722,128.54324306808624,598.2820546345021,128.08214903339368,589.2163020095883,126.76708145757404C580.1505493846745,125.45201388175438,576.2760822973171,123.2829727648076,572.0041123614727,122.06231499681935C567.7321424256282,120.84165722883108,563.0626696412968,120.56938280980137,558.4521715071487,117.71720107052222C553.8416733730006,114.86501933124312,549.2901498890361,109.4329302717146,546.3904778110156,106.62483748934608C543.4908057329951,103.81674470697754,542.2429850609187,103.63264820176899,536.8902880672653,103.40007346339341C531.5375910736118,103.16749872501782,522.0800177583812,102.8864457534752,515.0372969115883,102.40466346216694C507.9945760647954,101.92288117085867,503.3667076864401,101.24036955978475,498.6994149513971,97.34388030215285C494.0321222163541,93.44739104452096,489.32540512462333,86.3369241403311,484.6569899879664,82.51455512553976C479.9885748513095,78.69218611074842,475.3584616697265,78.15791498535562,471.0542172913212,77.67536050876203C466.749972912916,77.19280603216843,462.77159733768843,76.76196820437404,457.9957014541788,76.41707221613412C453.21980557066905,76.07217622789416,447.6463893788773,75.81322207920867,441.1057921617735,75.55698260875262C434.56519494466966,75.30074313829657,427.0574167022539,75.04721834606995,419.93914959298786,74.1353017235391C412.8208824837218,73.22338510100825,406.09212650760554,71.65307664817315,399.4939738308204,70.68765761370008C392.89582115403533,69.72223857922701,386.4282717765814,69.36170896311597,381.63556145350987,68.82174450334524C376.84285113043825,68.28178004357451,373.72497986174903,67.56238074014409,362.3513428798979,61.558383096178034C350.97770589804685,55.55438545221197,331.3483032030338,44.26578946771028,317.3445824509592,37.9711713411998C303.34086169888457,31.676553214689317,294.9628228897483,30.375912946170057,279.51176525656746,27.71997841068197C264.06070762338663,25.06404387519389,241.53663116616121,21.052815072736987,214.37961001267175,17.657447309660554C187.22258885918225,14.262079546584124,155.43262300942868,11.48257282288816,139.5376400845519,10.09281946104018L123.64265715967512,8.703066099192199" />
  </g>
  
  <g class="axis y" stroke="black" fill="none" stroke-dasharray="4 6">
    <path d="M 0,285 h900" /><path d="M 0,190 h900" /><path d="M 0,95 h900" />
  </g>
  <g
    class="axis x"
    stroke="black" fill="none"
    transform="translate(0, 380)">
  
  <path d="M0,0 h900" />
  <g transform="translate(92, 0)">
      <text text-anchor="middle"
      fill="black"
      stroke="none"
      transform="translate(0, 12)">Mar</text>
      <path d="M0,0 v-5" />
    </g><g transform="translate(194, 0)">
      <text text-anchor="middle"
      fill="black"
      stroke="none"
      transform="translate(0, 12)">Apr</text>
      <path d="M0,0 v-5" />
    </g><g transform="translate(293, 0)">
      <text text-anchor="middle"
      fill="black"
      stroke="none"
      transform="translate(0, 12)">May</text>
      <path d="M0,0 v-5" />
    </g><g transform="translate(395, 0)">
      <text text-anchor="middle"
      fill="black"
      stroke="none"
      transform="translate(0, 12)">Jun</text>
      <path d="M0,0 v-5" />
    </g><g transform="translate(494, 0)">
      <text text-anchor="middle"
      fill="black"
      stroke="none"
      transform="translate(0, 12)">Jul</text>
      <path d="M0,0 v-5" />
    </g><g transform="translate(596, 0)">
      <text text-anchor="middle"
      fill="black"
      stroke="none"
      transform="translate(0, 12)">Aug</text>
      <path d="M0,0 v-5" />
    </g><g transform="translate(698, 0)">
      <text text-anchor="middle"
      fill="black"
      stroke="none"
      transform="translate(0, 12)">Sep</text>
      <path d="M0,0 v-5" />
    </g><g transform="translate(796, 0)">
      <text text-anchor="middle"
      fill="black"
      stroke="none"
      transform="translate(0, 12)">Oct</text>
      <path d="M0,0 v-5" />
    </g><g transform="translate(898, 0)">
      <text text-anchor="middle"
      fill="black"
      stroke="none"
      transform="translate(0, 12)">Nov</text>
      <path d="M0,0 v-5" />
    </g>
  
  </g>
</svg>