<svg xmlns="http://www.w3.org/2000/svg"
  viewBox="0 0 900 400"
  width="900"
  height="400">
  <style>
    text {
      font-family: "Courier New", Courier, monospace;
      font-size: 12px;
    }
  </style>
  <g class="lines" fill="none">
    <path stroke="darkblue" d="M820.1604826297273,66.43356643356643L819.3866207717628,66.8454941494325C818.6127589137982,67.25742186529857,817.065035197869,68.08127729703072,804.4807757336257,69.24464105993786C791.8965162693822,70.408004822845,768.2757210568246,71.91087691692712,748.9748831057004,73.54904442547135C729.6740451545764,75.18721193401558,714.6931644648859,76.96067485702189,704.3258614008918,78.25355877143501C693.9585583368975,79.5464426858481,688.2048328985996,80.35874759166802,674.879883845526,81.68527488857204C661.5549347924524,83.01180218547603,640.658762124603,84.85255187346412,621.0300396638044,86.08862739144506C601.4013172030055,87.32470290942597,583.0400449492577,87.95610425739967,558.9256279982068,90.22189157485867C534.811211047156,92.48767889231766,504.94364939880234,96.38785217926193,477.4312844028234,98.57433139874765C449.91891940684445,100.76081061823338,424.7617510632402,101.23359577026054,407.3853822010929,103.38593779744012C390.00901333894575,105.53827982461969,380.4134439582555,109.37017872695172,374.89685366177815,112.22419572099574C369.38026336530083,115.07821271503973,367.9426521530363,116.9543478007957,366.7165714212028,118.8304828865517C365.4904906893692,120.7066179723077,364.4759404379667,122.58275305806369,356.1848148604134,125.2935134668171C347.8936892828601,128.00427387557048,332.3259883791561,131.54965960732127,322.747547177519,133.2749201154585C313.1691059758818,135.00018062359572,309.57992447631153,134.90531590811938,300.28032722622817,135.78953089846686C290.98072997614486,136.6737458888144,275.9707169755485,138.5370405849858,267.63891440627725,139.41723682744805C259.307111837006,140.2974330699103,257.65351969905987,140.19453085866346,253.7053589778537,140.71846257406563C249.7571982566475,141.2423942894678,243.51446895218132,142.39315993151902,238.33530261495343,144.16417045369138C233.15613627772555,145.93518097586374,229.04053290773606,148.32643637815718,226.208756448843,150.0428189606832C223.37697998994994,151.7592015432092,221.8290304421533,152.80071130596775,218.53953172439188,153.77321661288795C215.25003300663047,154.74572191980815,210.21898511890421,155.64922277089,206.6518650565957,157.47606895961857C203.08474499428723,159.30291514834715,200.98155275739654,162.05310667472247,197.752429021312,163.72003777531768C194.52330528522748,165.38696887591288,190.1682500499492,165.970639550728,187.20511731723613,166.36591710801613C184.24198458452307,166.76119466530426,182.67077435437523,166.96807910506539,180.7759275898533,167.41045494173525C178.88108082533142,167.85283077840515,176.6625975264354,168.53069801198373,173.80170433124803,168.97307384865357C170.94081113606057,169.41544968532347,167.4375080445818,169.62233412508462,164.91083822597014,169.82921856484577C162.38416840735854,170.03610300460693,160.8341318616141,170.24298744436808,159.3006783835185,170.87375639856495C157.76722490542284,171.5045253527618,156.250354494976,172.5591788213943,155.00254718002896,173.18994777559115C153.75473986508197,173.82071672978802,152.7759956456348,174.02760116954917,150.48826373013077,174.65837012374604C148.20053181462674,175.28913907794288,144.60381220306581,176.3437925465754,142.3419185681247,177.39844601520795C140.08002493318352,178.45309948384048,139.15295727486216,179.50775295247306,137.90460484851087,180.1385219066699C136.65625242215958,180.7692908608668,135.08661522777837,180.97617530062792,133.55612481953028,181.18305974038904C132.0256344112822,181.38994418015022,130.53429078916722,181.59682861991135,128.65577789850926,182.22759757410822C126.77726500785131,182.85836652830505,124.51158284865043,183.9130199969376,121.67525470953161,184.4160002372237C118.83892657041281,184.91898047750976,115.4319524513761,184.8702874894494,112.9690801353297,184.94938321529978C110.5062078192833,185.02847894115015,108.98743730622725,185.2353633809113,107.03222724098707,185.7423851833098C105.07701717574689,186.24940698570833,102.68536755832258,187.0565661507442,97.01193313622225,191.70461359416836C91.33849871412191,196.3526610375925,82.38327948734553,204.84159675940495,77.21298678504878,209.18950684019174C72.042694082752,213.53741692097856,70.65732790493486,213.74430136073974,69.52559427622357,213.95118580050087C68.39386064751227,214.158070240262,67.51575956790681,214.36495468002317,66.63327423514978,214.57183911978436C65.75078890239274,214.77872355954548,64.86391931648414,214.9856079993066,63.58345982842075,215.52771832429366C62.303000340357336,216.06982864928068,60.62895095013916,216.9471648594936,57.39269404196435,217.48927518448065C54.15643713378955,218.03138550946767,49.35797270765813,218.2382699492288,46.14070125096382,218.787913440176C42.92342979426953,219.3375569311232,41.28735130701235,220.22995947325637,40.01947221142917,220.77960296420352C38.751593115845985,221.32924645515072,37.8519134119368,221.5361308949119,34.98617651255707,222.3478842485307C32.120439613177346,223.1596376021495,27.288645518327076,224.57625986962603,24.37302703180282,225.38801322324483C21.457408545278565,226.19976657686368,20.457965667080305,226.4066510166248,19.237005088794103,227.21840437024366C18.0160445105079,228.03015772386252,16.573566232133743,229.446779991339,14.02159545705774,231.09862905864907C11.469624681981736,232.75047812595912,7.808161410203887,234.63755399310273,5.527971500343362,236.88083044285136C3.247781590482839,239.12410689260005,2.3488650425396416,241.7235839249538,1.4602705684017774,243.7249128091594C0.5716760942639129,245.72624169336498,-0.30659630606861893,247.12942242942245,-1.1848297698722676,248.53260316547986C-2.0630632336759165,249.93578390153735,-2.9412577609506823,251.33896463759478,-9.225719237067436,253.93844166994856C-15.510180713184191,256.5379187023023,-27.200909138142933,260.3336920309523,-35.44399872002046,262.933169063306C-43.687088301897994,265.5326460956598,-48.4825390406943,266.93582683171724,-54.37619457647097,267.74085941962653C-60.26985011224766,268.5458920075358,-67.2617104450047,268.752776447297,-73.48265086791125,268.95966088705813C-79.7035912908178,269.1665453268193,-85.15361180387386,269.37342976658044,-93.0928796509229,269.9314011628633C-101.03214749797193,270.48937255914626,-111.46066267901392,271.3984309119509,-118.14335529152764,273.12669216330625C-124.82604790404133,274.8549534146616,-127.76291794802675,277.40241756456766,-130.98661003833288,278.7795918594013C-134.21030212863903,280.1567661542349,-137.72081626526588,280.36365059399606,-141.1887766694829,282.3259698163659C-144.65673707369993,284.28828903873574,-148.08214374550707,288.00604304371427,-150.31564096993813,289.9683622660841C-152.54913819436914,291.93068148845396,-153.59072597142406,292.1375659282151,-157.59422718112333,292.6183479936315C-161.59772839082262,293.0991300590479,-168.56314303316628,293.85380975011964,-173.7860973907694,294.33459181553604C-179.0090517483725,294.81537388095245,-182.4895458212351,295.0222583207136,-185.99848692209534,296.3745328313967C-189.50742802295554,297.7268073420799,-193.04481615181342,300.22447192368503,-196.5545671324743,301.57674643436815C-200.0643181131352,302.92902094505126,-203.54643194559904,303.1359053848124,-206.79341197382664,303.3427898245736C-210.0403920020542,303.5496742643347,-213.05223822604546,303.7565587040959,-216.63954298492388,303.96344314385703C-220.2268477438023,304.1703275836182,-224.38961103756785,304.37721202337934,-229.2502532066632,304.5840964631405C-234.11089537575853,304.79098090290165,-239.6694164201837,304.9978653426628,-244.94688191821487,305.77744481788494C-250.22434741624602,306.5570242931071,-255.22075736788315,307.9092988037902,-260.12292923867886,308.68887827901233C-265.02510110947463,309.46845775423446,-269.8330348994289,309.6753421939956,-273.43247228070544,310.34407746880595C-277.03190966198196,311.0128127436163,-279.4228506345807,312.14339885347584,-287.7708196506417,317.442958501046C-296.1187886667028,322.7425181486162,-310.4237857262262,332.2110513338971,-320.6695172661072,338.1046898797672C-330.91524880598826,343.9983284256373,-337.101714826227,346.31707233209664,-348.3917863690397,349.35461177993216C-359.68185791185243,352.39215122776767,-376.0755349772392,356.1484862169794,-395.8121583468623,359.4566582580281C-415.54878171648534,362.7648302990769,-438.62835139034473,365.6248393919627,-450.1681362272745,367.0548439384056L-461.70792106420413,368.4848484848485" />
    <path stroke="blue" d="M820.1604826297273,43.560206594036245L819.3866207717628,44.15987438890872C818.6127589137982,44.7595421837812,817.065035197869,45.95887777352615,804.4807757336257,48.09924922064854C791.8965162693822,50.23962066777093,768.2757210568246,53.32102797227077,748.9748831057004,56.11008816102071C729.6740451545764,58.89914834977065,714.6931644648859,61.3958614227707,704.3258614008918,62.81719675801929C693.9585583368975,64.23853209326789,688.2048328985996,64.58448969076504,674.879883845526,66.0270588415121C661.5549347924524,67.46962799225915,640.658762124603,70.0088086962561,621.0300396638044,71.53739536799972C601.4013172030055,73.06598203974335,583.0400449492577,73.58397467923363,558.9256279982068,76.86353165999364C534.811211047156,80.14308864075365,504.94364939880234,86.18420996278337,477.4312844028234,89.54562634079396C449.91891940684445,92.90704271880456,424.7617510632402,93.58875415279601,407.3853822010929,95.51840700151432C390.00901333894575,97.44805985023261,380.4134439582555,100.62565411367773,374.89685366177815,102.5799460566979C369.38026336530083,104.53423799971807,367.9426521530363,105.2652276223133,366.7165714212028,105.85513977218721C365.4904906893692,106.44505192206113,364.4759404379667,106.89388659921373,356.1848148604134,109.51319407766732C347.8936892828601,112.13250155612093,332.3259883791561,116.9222818358755,322.747547177519,119.42498780121684C313.1691059758818,121.92769376655819,309.57992447631153,122.14332541748628,300.28032722622817,123.1230706300405C290.98072997614486,124.10281584259475,275.9707169755485,125.84667461677513,267.63891440627725,126.75919618088705C259.307111837006,127.67171774499896,257.65351969905987,127.7529020990424,253.7053589778537,128.18105994381926C249.7571982566475,128.6092177885961,243.51446895218132,129.38434912410636,238.33530261495343,131.20665498292377C233.15613627772555,133.0289608417412,229.04053290773606,135.8984412238658,226.208756448843,137.4893456917454C223.37697998994994,139.08025015962497,221.8290304421533,139.39257871325952,218.53953172439188,139.79200958491103C215.25003300663047,140.19144045656256,210.21898511890421,140.67797364623104,206.6518650565957,143.30437617614027C203.08474499428723,145.9307787060495,200.98155275739654,150.69705057619947,197.752429021312,153.2889500297011C194.52330528522748,155.88084948320275,190.1682500499492,156.29837652005602,187.20511731723613,156.63753808693383C184.24198458452307,156.9766996538116,182.67077435437523,157.23749575071395,180.7759275898533,157.58661118488985C178.88108082533142,157.9357266190657,176.6625975264354,158.3731613905151,173.80170433124803,158.70461325836294C170.94081113606057,159.0360651262108,167.4375080445818,159.26153409045705,164.91083822597014,159.47638140049537C162.38416840735854,159.69122871053372,160.8341318616141,159.8954543663641,159.3006783835185,160.1399577464872C157.76722490542284,160.3844611266103,156.250354494976,160.6692422310261,155.00254718002896,160.92062617881527C153.75473986508197,161.17201012660448,152.7759956456348,161.3899969177671,150.48826373013077,161.67430898208002C148.20053181462674,161.95862104639295,144.60381220306581,162.30925838385625,142.3419185681247,162.63389791096253C140.08002493318352,162.95853743806882,139.15295727486216,163.25717915481815,137.90460484851087,163.51873861843487C136.65625242215958,163.78029808205156,135.08661522777837,164.00477529253564,133.55612481953028,164.27023618987138C132.0256344112822,164.53569708720713,130.53429078916722,164.8421416713945,128.65577789850926,165.80076296332211C126.77726500785131,166.75938425524967,124.51158284865043,168.37018225491747,121.67525470953161,169.98195879507878C118.83892657041281,171.59373533524013,115.4319524513761,173.206490415895,112.9690801353297,174.12191942835088C110.5062078192833,175.03734844080677,108.98743730622725,175.25545138506368,107.03222724098707,176.64806884179737C105.07701717574689,178.040686298531,102.68536755832258,180.6078182677414,97.01193313622225,185.02703805381523C91.33849871412191,189.44625783988909,82.38327948734553,195.7175654428264,77.21298678504878,198.9652043800272C72.042694082752,202.212843317228,70.65732790493486,202.43681358869227,69.52559427622357,202.73269459216212C68.39386064751227,203.028575595632,67.51575956790681,203.3963673311074,66.63327423514978,203.69250180408713C65.75078890239274,203.9886362770669,64.86391931648414,204.21311348755094,63.58345982842075,204.56398922025753C62.303000340357336,204.91486495296405,60.62895095013916,205.39213920789302,57.39269404196435,208.02005951164475C54.15643713378955,210.6479798153965,49.35797270765813,215.426546167971,46.14070125096382,217.98071682906098C42.92342979426953,220.53488749015096,41.28735130701235,220.86466245975643,40.01947221142917,221.1417885498012C38.751593115845985,221.41891463984598,37.8519134119368,221.64339185033006,34.98617651255707,222.56467725544906C32.120439613177346,223.48596266056802,27.288645518327076,225.10405626032193,24.37302703180282,226.05075433912097C21.457408545278565,226.99745241791993,20.457965667080305,227.27275497576406,19.237005088794103,227.68569885624666C18.0160445105079,228.09864273672926,16.573566232133743,228.64922793985033,14.02159545705774,229.70889930972191C11.469624681981736,230.7685706795935,7.808161410203887,232.33732821621558,5.527971500343362,233.4261187448656C3.247781590482839,234.51490927351563,2.3488650425396416,235.12373279419356,1.4602705684017774,235.6890787758626C0.5716760942639129,236.25442475753167,-0.30659630606861893,236.77629320019182,-1.1848297698722676,237.31732598647616C-2.0630632336759165,237.85835877276054,-2.9412577609506823,238.41855590266917,-9.225719237067436,239.66122957939743C-15.510180713184191,240.90390325612566,-27.200909138142933,242.8290534796735,-35.44399872002046,244.9391388723253C-43.687088301897994,247.04922426497703,-48.4825390406943,249.34424482673265,-54.37619457647097,250.60431111830792C-60.26985011224766,251.86437740988322,-67.2617104450047,252.08948943127814,-73.48265086791125,252.3097532623136C-79.7035912908178,252.53001709334907,-85.15361180387386,252.74543273402503,-93.0928796509229,253.06644910260857C-101.03214749797193,253.38746547119217,-111.46066267901392,253.8140825676833,-118.14335529152764,255.09467320530158C-124.82604790404133,256.3752638429198,-127.76291794802675,258.5098280216652,-130.98661003833288,259.69600885145206C-134.21030212863903,260.8821896812389,-137.72081626526588,261.1199871620673,-141.1887766694829,263.93769196314497C-144.65673707369993,266.75539676422267,-148.08214374550707,272.1530088855498,-150.31564096993813,274.92662472971693C-152.54913819436914,277.70024057388406,-153.59072597142406,277.8498601408912,-157.59422718112333,278.04795794106536C-161.59772839082262,278.2460557412396,-168.56314303316628,278.4926317745808,-173.7860973907694,278.9399371276877C-179.0090517483725,279.38724248079455,-182.4895458212351,280.03527715366704,-185.99848692209534,283.89728947309754C-189.50742802295554,287.75930179252805,-193.04481615181342,294.8352917585165,-196.5545671324743,298.62318383510643C-200.0643181131352,302.4110759116964,-203.54643194559904,302.9108700988878,-206.79341197382664,303.35894763728C-210.0403920020542,303.8070251756722,-213.05223822604546,304.2033860652652,-216.63954298492388,304.5138051153037C-220.2268477438023,304.82422416534223,-224.38961103756785,305.0487013758263,-229.2502532066632,305.27046390808096C-234.11089537575853,305.4922264403356,-239.6694164201837,305.71127429436086,-244.94688191821487,306.5887139786903C-250.22434741624602,307.4661536630197,-255.22075736788315,309.00198517765347,-260.12292923867886,309.93292727392515C-265.02510110947463,310.8638693701968,-269.8330348994289,311.18992204810644,-273.43247228070544,311.6954095696758C-277.03190966198196,312.20089709124517,-279.4228506345807,312.88581945647417,-287.7708196506417,318.8553401622388C-296.1187886667028,324.82486086800344,-310.4237857262262,336.0789799143038,-320.6695172661072,342.3391211026128C-330.91524880598826,348.5992622909219,-337.101714826227,349.8654256212397,-348.3917863690397,352.48688321852643C-359.68185791185243,355.1083408158131,-376.0755349772392,359.0850926800686,-395.8121583468623,362.4459835049436C-415.54878171648534,365.80687432981864,-438.62835139034473,368.5519041153132,-450.1681362272745,369.9244190080605L-461.70792106420413,371.2969339008078" />
    
    <path stroke="darkorange" d="M820.1604826297273,313.5664335664336L819.3866207717628,313.15450585056755C818.6127589137982,312.74257813470143,817.065035197869,311.9187227029693,804.4807757336257,310.7553589400622C791.8965162693822,309.591995177155,768.2757210568246,308.0891230830729,748.9748831057004,306.4509555745287C729.6740451545764,304.8127880659844,714.6931644648859,303.03932514297816,704.3258614008918,301.74644122856506C693.9585583368975,300.45355731415196,688.2048328985996,299.64125240833204,674.879883845526,298.314725111428C661.5549347924524,296.98819781452397,640.658762124603,295.1474481265359,621.0300396638044,293.911372608555C601.4013172030055,292.675297090574,583.0400449492577,292.04389574260034,558.9256279982068,289.7781084251413C534.811211047156,287.51232110768234,504.94364939880234,283.612147820738,477.4312844028234,281.4256686012523C449.91891940684445,279.2391893817666,424.7617510632402,278.7664042297394,407.3853822010929,276.6140622025598C390.00901333894575,274.46172017538026,380.4134439582555,270.62982127304826,374.89685366177815,267.77580427900426C369.38026336530083,264.9217872849603,367.9426521530363,263.0456521992043,366.7165714212028,261.1695171134483C365.4904906893692,259.2933820276923,364.4759404379667,257.41724694193636,356.1848148604134,254.70648653318293C347.8936892828601,251.99572612442955,332.3259883791561,248.45034039267875,322.747547177519,246.7250798845415C313.1691059758818,244.99981937640428,309.57992447631153,245.09468409188062,300.28032722622817,244.21046910153314C290.98072997614486,243.3262541111856,275.9707169755485,241.4629594150142,267.63891440627725,240.58276317255195C259.307111837006,239.7025669300897,257.65351969905987,239.8054691413366,253.7053589778537,239.2815374259344C249.7571982566475,238.7576057105322,243.51446895218132,237.606840068481,238.33530261495343,235.83582954630864C233.15613627772555,234.0648190241363,229.04053290773606,231.67356362184285,226.208756448843,229.95718103931685C223.37697998994994,228.2407984567908,221.8290304421533,227.19928869403225,218.53953172439188,226.22678338711205C215.25003300663047,225.25427808019185,210.21898511890421,224.35077722911,206.6518650565957,222.52393104038143C203.08474499428723,220.69708485165287,200.98155275739654,217.94689332527756,197.752429021312,216.27996222468235C194.52330528522748,214.61303112408712,190.1682500499492,214.029360449272,187.20511731723613,213.63408289198387C184.24198458452307,213.23880533469574,182.67077435437523,213.0319208949346,180.7759275898533,212.5895450582647C178.88108082533142,212.14716922159482,176.6625975264354,211.46930198801624,173.80170433124803,211.02692615134637C170.94081113606057,210.58455031467648,167.4375080445818,210.37766587491535,164.91083822597014,210.17078143515423C162.38416840735854,209.96389699539304,160.8341318616141,209.75701255563192,159.3006783835185,209.12624360143505C157.76722490542284,208.4954746472382,156.250354494976,207.4408211786057,155.00254718002896,206.81005222440885C153.75473986508197,206.17928327021198,152.7759956456348,205.97239883045083,150.48826373013077,205.34162987625396C148.20053181462674,204.71086092205715,144.60381220306581,203.6562074534246,142.3419185681247,202.60155398479205C140.08002493318352,201.54690051615952,139.15295727486216,200.49224704752694,137.90460484851087,199.8614780933301C136.65625242215958,199.2307091391332,135.08661522777837,199.02382469937208,133.55612481953028,198.81694025961096C132.0256344112822,198.61005581984978,130.53429078916722,198.4031713800886,128.65577789850926,197.77240242589176C126.77726500785131,197.14163347169492,124.51158284865043,196.0869800030624,121.67525470953161,195.5839997627763C118.83892657041281,195.0810195224902,115.4319524513761,195.1297125105506,112.9690801353297,195.0506167847002C110.5062078192833,194.97152105884982,108.98743730622725,194.7646366190887,107.03222724098707,194.25761481669016C105.07701717574689,193.75059301429167,102.68536755832258,192.9434338492558,97.01193313622225,188.29538640583164C91.33849871412191,183.6473389624075,82.38327948734553,175.15840324059505,77.21298678504878,170.81049315980826C72.042694082752,166.46258307902144,70.65732790493486,166.2556986392603,69.52559427622357,166.04881419949913C68.39386064751227,165.841929759738,67.51575956790681,165.63504531997685,66.63327423514978,165.4281608802157C65.75078890239274,165.22127644045455,64.86391931648414,165.0143920006934,63.58345982842075,164.47228167570634C62.303000340357336,163.93017135071932,60.62895095013916,163.0528351405064,57.39269404196435,162.51072481551935C54.15643713378955,161.9686144905323,49.35797270765813,161.76173005077115,46.14070125096382,161.21208655982397C42.92342979426953,160.6624430688768,41.28735130701235,159.7700405267436,40.01947221142917,159.22039703579642C38.751593115845985,158.67075354484925,37.8519134119368,158.4638691050881,34.98617651255707,157.65211575146927C32.120439613177346,156.84036239785044,27.288645518327076,155.42374013037394,24.37302703180282,154.61198677675512C21.457408545278565,153.8002334231363,20.457965667080305,153.59334898337514,19.237005088794103,152.7815956297563C18.0160445105079,151.96984227613748,16.573566232133743,150.553220008661,14.02159545705774,148.90137094135093C11.469624681981736,147.24952187404088,7.808161410203887,145.36244600689727,5.527971500343362,143.11916955714864C3.247781590482839,140.87589310739995,2.3488650425396416,138.27641607504623,1.4602705684017774,136.27508719084065C0.5716760942639129,134.27375830663505,-0.30659630606861893,132.87057757057758,-1.1848297698722676,131.46739683452014C-2.0630632336759165,130.06421609846268,-2.9412577609506823,128.66103536240522,-9.225719237067436,126.06155833005147C-15.510180713184191,123.46208129769774,-27.200909138142933,119.6663079690477,-35.44399872002046,117.06683093669396C-43.687088301897994,114.46735390434021,-48.4825390406943,113.06417316828276,-54.37619457647097,112.25914058037347C-60.26985011224766,111.45410799246417,-67.2617104450047,111.24722355270302,-73.48265086791125,111.04033911294187C-79.7035912908178,110.83345467318071,-85.15361180387386,110.62657023341956,-93.0928796509229,110.06859883713666C-101.03214749797193,109.51062744085375,-111.46066267901392,108.60156908804913,-118.14335529152764,106.87330783669377C-124.82604790404133,105.14504658533842,-127.76291794802675,102.59758243543234,-130.98661003833288,101.22040814059874C-134.21030212863903,99.84323384576511,-137.72081626526588,99.63634940600396,-141.1887766694829,97.6740301836341C-144.65673707369993,95.71171096126426,-148.08214374550707,91.99395695628571,-150.31564096993813,90.03163773391587C-152.54913819436914,88.069318511546,-153.59072597142406,87.86243407178488,-157.59422718112333,87.38165200636844C-161.59772839082262,86.90086994095206,-168.56314303316628,86.14619024988038,-173.7860973907694,85.665408184464C-179.0090517483725,85.18462611904758,-182.4895458212351,84.97774167928642,-185.99848692209534,83.62546716860328C-189.50742802295554,82.27319265792015,-193.04481615181342,79.77552807631501,-196.5545671324743,78.42325356563188C-200.0643181131352,77.07097905494874,-203.54643194559904,76.86409461518758,-206.79341197382664,76.65721017542643C-210.0403920020542,76.45032573566527,-213.05223822604546,76.24344129590413,-216.63954298492388,76.03655685614298C-220.2268477438023,75.82967241638183,-224.38961103756785,75.62278797662067,-229.2502532066632,75.41590353685952C-234.11089537575853,75.20901909709836,-239.6694164201837,75.00213465733721,-244.94688191821487,74.22255518211506C-250.22434741624602,73.44297570689292,-255.22075736788315,72.09070119620979,-260.12292923867886,71.31112172098766C-265.02510110947463,70.53154224576552,-269.8330348994289,70.32465780600437,-273.43247228070544,69.65592253119404C-277.03190966198196,68.98718725638368,-279.4228506345807,67.85660114652416,-287.7708196506417,62.55704149895396C-296.1187886667028,57.25748185138375,-310.4237857262262,47.78894866610289,-320.6695172661072,41.89531012023279C-330.91524880598826,36.001671574362696,-337.101714826227,33.682927667903364,-348.3917863690397,30.645388220067854C-359.68185791185243,27.607848772232344,-376.0755349772392,23.851513783020646,-395.8121583468623,20.543341741971886C-415.54878171648534,17.23516970092313,-438.62835139034473,14.375160608037318,-450.1681362272745,12.94515606159441L-461.70792106420413,11.515151515151503" />
    <path stroke="orange" d="M820.1604826297273,336.43979340596377L819.3866207717628,335.8401256110913C818.6127589137982,335.24045781621885,817.065035197869,334.0411222264739,804.4807757336257,331.9007507793515C791.8965162693822,329.7603793322291,768.2757210568246,326.6789720277293,748.9748831057004,323.88991183897934C729.6740451545764,321.10085165022934,714.6931644648859,318.6041385772293,704.3258614008918,317.1828032419807C693.9585583368975,315.7614679067321,688.2048328985996,315.41551030923495,674.879883845526,313.9729411584879C661.5549347924524,312.5303720077409,640.658762124603,309.99119130374396,621.0300396638044,308.46260463200025C601.4013172030055,306.93401796025665,583.0400449492577,306.4160253207663,558.9256279982068,303.13646834000633C534.811211047156,299.85691135924634,504.94364939880234,293.81579003721663,477.4312844028234,290.45437365920606C449.91891940684445,287.0929572811954,424.7617510632402,286.41124584720393,407.3853822010929,284.48159299848567C390.00901333894575,282.5519401497674,380.4134439582555,279.37434588632226,374.89685366177815,277.42005394330204C369.38026336530083,275.4657620002819,367.9426521530363,274.73477237768674,366.7165714212028,274.1448602278128C365.4904906893692,273.5549480779389,364.4759404379667,273.1061134007863,356.1848148604134,270.4868059223327C347.8936892828601,267.86749844387913,332.3259883791561,263.0777181641245,322.747547177519,260.57501219878316C313.1691059758818,258.0723062334418,309.57992447631153,257.85667458251373,300.28032722622817,256.8769293699595C290.98072997614486,255.89718415740526,275.9707169755485,254.15332538322488,267.63891440627725,253.24080381911298C259.307111837006,252.32828225500103,257.65351969905987,252.24709790095758,253.7053589778537,251.81894005618074C249.7571982566475,251.39078221140392,243.51446895218132,250.6156508758937,238.33530261495343,248.79334501707626C233.15613627772555,246.97103915825883,229.04053290773606,244.1015587761342,226.208756448843,242.51065430825463C223.37697998994994,240.91974984037503,221.8290304421533,240.6074212867405,218.53953172439188,240.20799041508894C215.25003300663047,239.80855954343747,210.21898511890421,239.32202635376896,206.6518650565957,236.6956238238598C203.08474499428723,234.0692212939505,200.98155275739654,229.30294942380053,197.752429021312,226.7110499702989C194.52330528522748,224.11915051679725,190.1682500499492,223.701623479944,187.20511731723613,223.36246191306623C184.24198458452307,223.0233003461884,182.67077435437523,222.76250424928608,180.7759275898533,222.4133888151102C178.88108082533142,222.0642733809343,176.6625975264354,221.6268386094849,173.80170433124803,221.29538674163703C170.94081113606057,220.96393487378919,167.4375080445818,220.73846590954292,164.91083822597014,220.52361859950463C162.38416840735854,220.3087712894663,160.8341318616141,220.1045456336359,159.3006783835185,219.8600422535128C157.76722490542284,219.6155388733897,156.250354494976,219.33075776897394,155.00254718002896,219.07937382118473C153.75473986508197,218.82798987339552,152.7759956456348,218.6100030822329,150.48826373013077,218.32569101791998C148.20053181462674,218.04137895360705,144.60381220306581,217.69074161614378,142.3419185681247,217.36610208903747C140.08002493318352,217.04146256193118,139.15295727486216,216.74282084518185,137.90460484851087,216.48126138156513C136.65625242215958,216.21970191794844,135.08661522777837,215.99522470746433,133.55612481953028,215.7297638101286C132.0256344112822,215.46430291279285,130.53429078916722,215.15785832860547,128.65577789850926,214.19923703667789C126.77726500785131,213.24061574475033,124.51158284865043,211.62981774508253,121.67525470953161,210.01804120492122C118.83892657041281,208.40626466475987,115.4319524513761,206.793509584105,112.9690801353297,205.8780805716491C110.5062078192833,204.96265155919323,108.98743730622725,204.74454861493632,107.03222724098707,203.35193115820266C105.07701717574689,201.959313701469,102.68536755832258,199.3921817322586,97.01193313622225,194.97296194618477C91.33849871412191,190.55374216011091,82.38327948734553,184.28243455717362,77.21298678504878,181.0347956199728C72.042694082752,177.787156682772,70.65732790493486,177.56318641130773,69.52559427622357,177.26730540783788C68.39386064751227,176.97142440436804,67.51575956790681,176.60363266889263,66.63327423514978,176.30749819591287C65.75078890239274,176.0113637229331,64.86391931648414,175.78688651244906,63.58345982842075,175.43601077974247C62.303000340357336,175.08513504703595,60.62895095013916,174.60786079210698,57.39269404196435,171.97994048835525C54.15643713378955,169.3520201846035,49.35797270765813,164.573453832029,46.14070125096382,162.01928317093902C42.92342979426953,159.46511250984904,41.28735130701235,159.13533754024357,40.01947221142917,158.8582114501988C38.751593115845985,158.58108536015405,37.8519134119368,158.35660814966994,34.98617651255707,157.43532274455094C32.120439613177346,156.51403733943195,27.288645518327076,154.89594373967807,24.37302703180282,153.94924566087903C21.457408545278565,153.00254758208004,20.457965667080305,152.72724502423594,19.237005088794103,152.31430114375334C18.0160445105079,151.90135726327074,16.573566232133743,151.35077206014967,14.02159545705774,150.29110069027809C11.469624681981736,149.2314293204065,7.808161410203887,147.66267178378442,5.527971500343362,146.5738812551344C3.247781590482839,145.48509072648437,2.3488650425396416,144.8762672058064,1.4602705684017774,144.31092122413736C0.5716760942639129,143.74557524246833,-0.30659630606861893,143.22370679980818,-1.1848297698722676,142.68267401352384C-2.0630632336759165,142.14164122723946,-2.9412577609506823,141.58144409733083,-9.225719237067436,140.3387704206026C-15.510180713184191,139.09609674387437,-27.200909138142933,137.1709465203265,-35.44399872002046,135.06086112767474C-43.687088301897994,132.95077573502297,-48.4825390406943,130.65575517326735,-54.37619457647097,129.39568888169205C-60.26985011224766,128.13562259011678,-67.2617104450047,127.91051056872186,-73.48265086791125,127.69024673768642C-79.7035912908178,127.46998290665096,-85.15361180387386,127.25456726597497,-93.0928796509229,126.9335508973914C-101.03214749797193,126.61253452880783,-111.46066267901392,126.18591743231669,-118.14335529152764,124.90532679469841C-124.82604790404133,123.62473615708016,-127.76291794802675,121.49017197833479,-130.98661003833288,120.30399114854794C-134.21030212863903,119.11781031876107,-137.72081626526588,118.88001283793274,-141.1887766694829,116.06230803685503C-144.65673707369993,113.24460323577729,-148.08214374550707,107.84699111445019,-150.31564096993813,105.07337527028307C-152.54913819436914,102.29975942611593,-153.59072597142406,102.15013985910878,-157.59422718112333,101.95204205893462C-161.59772839082262,101.75394425876043,-168.56314303316628,101.50736822541921,-173.7860973907694,101.06006287231234C-179.0090517483725,100.61275751920546,-182.4895458212351,99.96472284633295,-185.99848692209534,96.10271052690246C-189.50742802295554,92.24069820747195,-193.04481615181342,85.1647082414835,-196.5545671324743,81.37681616489355C-200.0643181131352,77.58892408830361,-203.54643194559904,77.0891299011122,-206.79341197382664,76.64105236272002C-210.0403920020542,76.19297482432782,-213.05223822604546,75.79661393473484,-216.63954298492388,75.4861948846963C-220.2268477438023,75.17577583465776,-224.38961103756785,74.95129862417367,-229.2502532066632,74.72953609191903C-234.11089537575853,74.50777355966437,-239.6694164201837,74.28872570563915,-244.94688191821487,73.4112860213097C-250.22434741624602,72.53384633698025,-255.22075736788315,70.99801482234655,-260.12292923867886,70.06707272607488C-265.02510110947463,69.13613062980322,-269.8330348994289,68.81007795189358,-273.43247228070544,68.30459043032424C-277.03190966198196,67.7991029087549,-279.4228506345807,67.11418054352589,-287.7708196506417,61.14465983776123C-296.1187886667028,55.175139131996566,-310.4237857262262,43.92102008569628,-320.6695172661072,37.6608788973872C-330.91524880598826,31.40073770907812,-337.101714826227,30.134574378760252,-348.3917863690397,27.51311678147357C-359.68185791185243,24.89165918418689,-376.0755349772392,20.914907319931388,-395.8121583468623,17.554016495056356C-415.54878171648534,14.193125670181324,-438.62835139034473,11.44809588468676,-450.1681362272745,10.07558099193948L-461.70792106420413,8.703066099192199" />
  </g>
  
  <g class="axis y" stroke="black" fill="none" stroke-dasharray="4 6">
    <path d="M 0,285 h900" /><path d="M 0,190 h900" /><path d="M 0,95 h900" />
  </g>
  <g
    class="axis x"
    stroke="black" fill="none"
    transform="translate(0, 380)">
  
  <path d="M0,0 h900" />
  <g transform="translate(829, 0)">
      <text text-anchor="middle"
      fill="black"
      stroke="none"
      transform="translate(0, 12)">Sep</text>
      <path d="M0,0 v-5" />
    </g><g transform="translate(755, 0)">
      <text text-anchor="middle"
      fill="black"
      stroke="none"
      transform="translate(0, 12)">Aug</text>
      <path d="M0,0 v-5" />
    </g><g transform="translate(682, 0)">
      <text text-anchor="middle"
      fill="black"
      stroke="none"
      transform="translate(0, 12)">Jul</text>
      <path d="M0,0 v-5" />
    </g><g transform="translate(610, 0)">
      <text text-anchor="middle"
      fill="black"
      stroke="none"
      transform="translate(0, 12)">Jun</text>
      <path d="M0,0 v-5" />
    </g><g transform="translate(537, 0)">
      <text text-anchor="middle"
      fill="black"
      stroke="none"
      transform="translate(0, 12)">May</text>
      <path d="M0,0 v-5" />
    </g><g transform="translate(465, 0)">
      <text text-anchor="middle"
      fill="black"
      stroke="none"
      transform="translate(0, 12)">Apr</text>
      <path d="M0,0 v-5" />
    </g><g transform="translate(392, 0)">
      <text text-anchor="middle"
      fill="black"
      stroke="none"
      transform="translate(0, 12)">Mar</text>
      <path d="M0,0 v-5" />
    </g><g transform="translate(325, 0)">
      <text text-anchor="middle"
      fill="black"
      stroke="none"
      transform="translate(0, 12)">Feb</text>
      <path d="M0,0 v-5" />
    </g><g transform="translate(252, 0)">
      <text text-anchor="middle"
      fill="black"
      stroke="none"
      transform="translate(0, 12)">Jan ’22</text>
      <path d="M0,0 v-5" />
    </g><g transform="translate(178, 0)">
      <text text-anchor="middle"
      fill="black"
      stroke="none"
      transform="translate(0, 12)">Dec</text>
      <path d="M0,0 v-5" />
    </g><g transform="translate(107, 0)">
      <text text-anchor="middle"
      fill="black"
      stroke="none"
      transform="translate(0, 12)">Nov</text>
      <path d="M0,0 v-5" />
    </g><g transform="translate(33, 0)">
      <text text-anchor="middle"
      fill="black"
      stroke="none"
      transform="translate(0, 12)">Oct</text>
      <path d="M0,0 v-5" />
    </g><g transform="translate(-38, 0)">
      <text text-anchor="middle"
      fill="black"
      stroke="none"
      transform="translate(0, 12)">Sep</text>
      <path d="M0,0 v-5" />
    </g>
  
  </g>
</svg>