<svg xmlns="http://www.w3.org/2000/svg"
  viewBox="0 0 900 400"
  width="900"
  height="400">
  <style>
    text {
      font-family: "Courier New", Courier, monospace;
      font-size: 12px;
    }
  </style>
  <g class="lines" fill="none">
    <path stroke="darkblue" d="M839.9368146929825,138.44961240310076L838.2876957693712,138.39301456158108C836.6385768457602,138.3364167200614,833.340338998538,138.22322103702206,824.3467128106726,139.08910505980657C815.353086622807,139.95498908259108,800.6640720942983,141.7999528111995,792.6356937591376,142.66181808609875C784.6073154239766,143.523683360998,783.2395732821637,143.40245018218812,779.5833008954678,143.90805093002731C775.927028508772,144.41365167786648,769.982225877193,145.5460863523547,765.0981873629386,147.29876590696406C760.2141488486842,149.05144546157342,756.3908744517544,151.4243698963039,753.8480484740497,153.12242151126688C751.305222496345,154.8204731262299,750.0428449378655,155.84365192142545,747.0435012335525,156.79782626078267C744.0441575292398,157.75200060013987,739.3078476790937,158.6371704836587,736.0316132127194,160.44568570482429C732.755378746345,162.25420092598986,730.9392196637427,164.98606148480218,728.0000920595761,166.63466161783438C725.0609644554094,168.2832617508666,720.9988683296783,168.84860145811868,718.3250317525585,169.22554804784383C715.6511951754386,169.60249463756895,714.3656181469299,169.7910481097671,712.7572562591373,170.215092978874C711.1488943713451,170.6391378479809,709.217747624269,171.29867411399644,706.6458815332602,171.72271898310336C704.0740154422515,172.14676385221023,700.8614300073099,172.33531732440835,698.6229077576754,172.5238707966065C696.3843855080409,172.71242426880465,695.1199264437133,172.90097774100283,693.8720068073831,173.51341572763667C692.6240871710526,174.12585371427053,691.3927069627193,175.16217621534008,690.4296817891081,175.77461420197392C689.4666566154971,176.38705218860778,688.7719864766082,176.57560566080596,686.7717733461258,177.1880436474398C684.7715602156433,177.80048163407363,681.4658040935673,178.83680413514318,679.4913612481726,179.87312663621273C677.5169184027778,180.90944913728222,676.8737888340643,181.94577163835183,675.9102199835526,182.55820962498566C674.9466511330409,183.1706476116195,673.6626430007309,183.35920108381765,672.4176786366958,183.54775455601586C671.1727142726608,183.73630802821398,669.9667936769006,183.92486150041213,668.3747226790937,184.53729948704597C666.7826516812866,185.14973747367983,664.8044302814328,186.18605997474938,662.2570646016082,186.67070924747247C659.7096989217836,187.15535852019556,656.5931889619883,187.08833456457216,654.4182963267544,187.14909932285957C652.2434036915205,187.20986408114695,651.010128380848,187.3984175533451,649.3415620431286,187.88710838818062C647.6729957054093,188.37579922301612,645.5691383406432,189.16462742048898,640.1921324470029,193.79434389635017C634.8151265533626,198.42406037221133,626.164972130848,206.8946651264608,621.2897838998538,211.2242442396846C616.4145956688596,215.55382335290838,615.314373629386,215.74237682510656,614.4671166849415,215.93093029730468C613.6198597404971,216.11948376950284,613.0255678910819,216.308037241701,612.4269033260234,216.49659071389917C611.828238760965,216.6851441860973,611.2252014802632,216.87369765829544,610.2296100603071,217.39747701571946C609.2340186403509,217.9212563731435,607.8458730811403,218.78026161579342,604.8996310763888,219.3040409732175C601.9533890716374,219.82782033064152,597.449050621345,220.01637380283964,594.5217441063597,220.5476863262238C591.5944375913742,221.07899884960798,590.244163011696,221.9530704241782,589.2611188779241,222.48438294756238C588.2780747441521,223.01569547094655,587.6622610562866,223.20424894314473,585.0855640076755,223.99767132920053C582.5088669590643,224.79109371525638,577.9712865497077,226.1893850151699,575.3448391812866,226.98280740122573C572.7183918128655,227.77622978728155,572.0030774853801,227.96478325947973,571.0668283991228,228.75820564553553C570.1305793128654,229.55162803159138,568.9733954678362,230.9499193315049,566.7096388432016,232.58343743125192C564.4458822185671,234.216955530999,561.0755528143274,236.08570043057958,559.0828618421052,238.31064591276527C557.090170869883,240.53559139495096,556.4751183296784,243.11673745974167,555.8703606999269,245.09973537638427C555.2656030701754,247.08273329302688,554.6711403508772,248.46758306152128,554.0767164656432,249.85243283001577C553.4822925804093,251.2372825985102,552.8879075292398,252.62213236700464,546.9014825475147,255.2032784317954C540.9150575657895,257.78442449658615,529.5365926535087,261.5618668576732,521.5966938505117,264.1430129224639C513.6567950475145,266.72415898725467,509.1554623538011,268.10900875574913,503.558814875731,268.89571037609545C497.9621673976608,269.6824119964417,491.27020513523394,269.8709654686399,485.34713404605264,270.059518940838C479.4240629568714,270.2480724130362,474.26988304093567,270.4366258852344,466.633006441886,270.9762663139542C458.9961298428363,271.51590674267413,448.8765565606725,272.4066341279158,442.4929484192251,274.11656441170817C436.1093402777777,275.8264946955005,433.46169727704677,278.3556278778436,430.52798702485387,279.7144712051142C427.5942767726608,281.0733145323848,424.3744992690058,281.26186800458294,421.1971635142543,283.2058562593898C418.0198277595029,285.1498445141967,414.88493375365493,288.8492675516122,412.9388125913743,290.79325580641904C410.9926914290936,292.7372440612259,410.23534311038014,292.92579753342403,406.52387586805554,293.38824863127746C402.812408625731,293.8506997291309,396.1468224597954,294.5870484526395,391.2191111567983,295.04949955049295C386.2913998538011,295.5119506483464,383.10156341374267,295.7005041205445,379.8833548062865,297.0344476636647C376.66514619883037,298.3683912067848,373.4185654239766,300.84772482082695,370.19954906798245,302.18166836394704C366.98053271198825,303.51561190706724,363.78908077485374,303.70416537926536,360.8321438687865,303.89271885146354C357.87520696271923,304.0812723236617,355.1527850877192,304.26982579585984,351.85641904239765,304.45837926805797C348.56005299707596,304.6469327402561,344.6897427814327,304.83548621245427,340.12339021381575,305.02403968465245C335.5570376461988,305.2125931568506,330.2946427266082,305.40114662904875,325.3125637335526,306.1623951367079C320.33048474049707,306.9236436443671,315.6287216739766,308.25758718748716,311.0209486933479,309.0188356951463C306.4131757127193,309.7800842028054,301.89939281798246,309.96863767500355,298.59092607821634,310.6190419822509C295.2824593384503,311.26944628949826,293.17930875365494,312.3817014317948,285.13480651498537,317.66293011180204C277.09030427631575,322.94415879180923,263.1044503837719,332.3943610095271,253.16717973318714,338.2696685878342C243.22990908260235,344.1449761661413,237.34122167397663,346.4453891050377,226.36235928362575,349.4645975853102C215.38349689327484,352.48380606558266,199.31445952119884,356.2218100872314,179.91127307200293,359.5116511607171C160.508086622807,362.8014922342029,137.77075109649124,365.64317035952564,126.40208333333332,367.0640094221871L115.03341557017544,368.4848484848485" />
    <path stroke="blue" d="M839.9368146929825,125.9962959401146L838.2876957693712,126.09240620868115C836.6385768457602,126.18851647724769,833.340338998538,126.38073701438081,824.3467128106726,127.33707111314004C815.353086622807,128.29340521189928,800.6640720942983,130.01385287228467,792.6356937591376,130.90296332260158C784.6073154239766,131.79207377291849,783.2395732821637,131.84984701316694,779.5833008954678,132.2545937441488C775.927028508772,132.65934047513062,769.982225877193,133.41106069684588,765.0981873629386,135.2099554418683C760.2141488486842,137.00885018689073,756.3908744517544,139.85491945522034,753.8480484740497,141.42241280930492C751.305222496345,142.98990616338952,750.0428449378655,143.27882360322909,747.0435012335525,143.6548433610856C744.0441575292398,144.0308631189421,739.3078476790937,144.49398519481562,736.0316132127194,147.09697661092983C732.755378746345,149.69996802704406,730.9392196637427,154.44282878339905,728.0000920595761,157.01131712310573C725.0609644554094,159.57980546281235,720.9988683296783,159.97392138587063,718.3250317525585,160.2896718389534C715.6511951754386,160.6054222920362,714.3656181469299,160.84280727514354,712.7572562591373,161.16851159552442C711.1488943713451,161.4942159159053,709.217747624269,161.9082395735597,706.6458815332602,162.21628032761254C704.0740154422515,162.52432108166542,700.8614300073099,162.72637893211666,698.6229077576754,162.91781512836002C696.3843855080409,163.10925132460332,695.1199264437133,163.29006586663874,693.8720068073831,163.5111581329668C692.6240871710526,163.7322503992949,691.3927069627193,163.99362038991572,690.4296817891081,164.22159322390993C689.4666566154971,164.44956605790412,688.7719864766082,164.64414173527172,686.7717733461258,164.90504268578965C684.7715602156433,165.1659436363076,681.4658040935673,165.49316985997586,679.4913612481726,165.79439827328716C677.5169184027778,166.09562668659848,676.8737888340643,166.3708572895528,675.9102199835526,166.6090056393745C674.9466511330409,166.84715398919622,673.6626430007309,167.0482200858853,672.4176786366958,167.29026986942606C671.1727142726608,167.53231965296678,669.9667936769006,167.8153531233592,668.3747226790937,168.75056330149178C666.7826516812866,169.68577347962437,664.8044302814328,171.27316036549715,662.2570646016082,172.8615257918635C659.7096989217836,174.44989121822982,656.5931889619883,176.03923518508967,654.4182963267544,176.93125308375056C652.2434036915205,177.82327098241146,651.010128380848,178.01796281287338,649.3415620431286,179.38716915581202C647.6729957054093,180.75637549875069,645.5691383406432,183.30009635416607,640.1921324470029,187.69590502644493C634.8151265533626,192.09171369872377,626.164972130848,198.3396101878661,621.2897838998538,201.56383801127188C616.4145956688596,204.7880658346777,615.314373629386,204.98862499234698,614.4671166849415,205.2610948820218C613.6198597404971,205.53356477169666,613.0255678910819,205.8779453933771,612.4269033260234,206.15066875256187C611.828238760965,206.4233921117466,611.2252014802632,206.6244582084357,610.2296100603071,206.95192282734726C609.2340186403509,207.27938744625877,607.8458730811403,207.73325058739275,604.8996310763888,210.33775977734953C601.9533890716374,212.94226896730626,597.449050621345,217.69742420608577,594.5217441063597,220.22818375338076C591.5944375913742,222.75894330067572,590.244163011696,223.06530715648617,589.2611188779241,223.31902213273597C588.2780747441521,223.5727371089857,587.6622610562866,223.7738032056748,585.0855640076755,224.6716774969988C582.5088669590643,225.56955178832277,577.9712865497077,227.1642342742817,575.3448391812866,228.0875212392857C572.7183918128655,229.0108082042897,572.0030774853801,229.26269964833884,571.0668283991228,229.65223241502642C570.1305793128654,230.04176518171403,568.9733954678362,230.5689392710401,566.7096388432016,231.6051995271167C564.4458822185671,232.64145978319326,561.0755528143274,234.18680620602038,559.0828618421052,235.2521856208754C557.090170869883,236.31756503573044,556.4751183296784,236.90297744261338,555.8703606999269,237.4449123104874C555.2656030701754,237.98684717836144,554.6711403508772,238.4853045072266,554.0767164656432,239.00292617971596C553.4822925804093,239.52054785220537,552.8879075292398,240.05733386831898,546.9014825475147,241.27659643125222C540.9150575657895,242.49585899418548,529.5365926535087,244.39759810393832,521.5966938505117,246.4842723827951C513.6567950475145,248.57094666165185,509.1554623538011,250.84255610961247,503.558814875731,252.07921128739278C497.9621673976608,253.31586646517303,491.27020513523394,253.51756737277296,485.34713404605264,253.71442009001342C479.4240629568714,253.91127280725388,474.26988304093567,254.10327733413487,466.633006441886,254.40088258892342C458.9961298428363,254.698487843712,448.8765565606725,255.10169382640814,442.4929484192251,256.3588733502314C436.1093402777777,257.6160528740547,433.46169727704677,259.72720593900505,430.52798702485387,260.88997565499693C427.5942767726608,262.0527453709888,424.3744992690058,262.26713173802216,421.1971635142543,265.0614254253049C418.0198277595029,267.8557191125876,414.88493375365493,273.2299201201197,412.9388125913743,275.98012485049185C410.9926914290936,278.73032958086395,410.23534311038014,278.8565380340761,406.52387586805554,279.0312247204553C402.812408625731,279.2059114068345,396.1468224597954,279.4290763263807,391.2191111567983,279.8529705656926C386.2913998538011,280.27686480500444,383.10156341374267,280.90148836408196,379.8833548062865,284.74008956971744C376.66514619883037,288.5786907753529,373.4185654239766,295.6312696275464,370.19954906798245,299.3957505903414C366.98053271198825,303.1602315531363,363.78908077485374,303.6366146265327,360.8321438687865,304.0612810511299C357.87520696271923,304.48594747572713,355.1527850877192,304.8588972515251,351.85641904239765,305.1459051877686C348.56005299707596,305.43291312401215,344.6897427814327,305.63397922070124,340.12339021381575,305.8323306391609C335.5570376461988,306.03068205762054,330.2946427266082,306.22631879785075,325.3125637335526,307.0803473683852C320.33048474049707,307.9343759389197,315.6287216739766,309.44679633975835,311.0209486933479,310.35432732223506C306.4131757127193,311.2618583047117,301.89939281798246,311.5644998688264,298.59092607821634,312.0465762766007C295.2824593384503,312.52865268437506,293.17930875365494,313.1901639358091,285.13480651498537,319.13627352777877C277.09030427631575,325.0823831197484,263.1044503837719,336.3130910522537,253.16717973318714,342.54982112676777C243.22990908260235,348.78655120128184,237.34122167397663,350.0293034178048,226.36235928362575,352.6273499012964C215.38349689327484,355.2253963847881,199.31445952119884,359.17873713524864,179.91127307200293,362.5162168463287C160.508086622807,365.8536965574087,137.77075109649124,368.5753152291083,126.40208333333332,369.936124564958L115.03341557017544,371.2969339008078" />
    
    <path stroke="darkorange" d="M839.9368146929825,241.55038759689924L838.2876957693712,241.60698543841895C836.6385768457602,241.66358327993862,833.340338998538,241.77677896297794,824.3467128106726,240.91089494019346C815.353086622807,240.04501091740894,800.6640720942983,238.20004718880054,792.6356937591376,237.33818191390125C784.6073154239766,236.47631663900202,783.2395732821637,236.59754981781188,779.5833008954678,236.09194906997274C775.927028508772,235.58634832213352,769.982225877193,234.4539136476453,765.0981873629386,232.70123409303596C760.2141488486842,230.9485545384266,756.3908744517544,228.5756301036961,753.8480484740497,226.87757848873312C751.305222496345,225.1795268737701,750.0428449378655,224.15634807857455,747.0435012335525,223.20217373921733C744.0441575292398,222.24799939986016,739.3078476790937,221.3628295163413,736.0316132127194,219.55431429517571C732.755378746345,217.74579907401014,730.9392196637427,215.0139385151978,728.0000920595761,213.36533838216556C725.0609644554094,211.7167382491334,720.9988683296783,211.15139854188126,718.3250317525585,210.77445195215614C715.6511951754386,210.39750536243102,714.3656181469299,210.20895189023284,712.7572562591373,209.78490702112595C711.1488943713451,209.36086215201908,709.217747624269,208.7013258860035,706.6458815332602,208.2772810168966C704.0740154422515,207.85323614778977,700.8614300073099,207.66468267559162,698.6229077576754,207.47612920339347C696.3843855080409,207.2875757311953,695.1199264437133,207.09902225899717,693.8720068073831,206.4865842723633C692.6240871710526,205.87414628572947,691.3927069627193,204.83782378465992,690.4296817891081,204.22538579802608C689.4666566154971,203.61294781139222,688.7719864766082,203.42439433919404,686.7717733461258,202.8119563525602C684.7715602156433,202.19951836592637,681.4658040935673,201.16319586485682,679.4913612481726,200.12687336378727C677.5169184027778,199.09055086271772,676.8737888340643,198.05422836164817,675.9102199835526,197.4417903750143C674.9466511330409,196.82935238838047,673.6626430007309,196.64079891618232,672.4176786366958,196.45224544398414C671.1727142726608,196.263691971786,669.9667936769006,196.07513849958784,668.3747226790937,195.462700512954C666.7826516812866,194.85026252632017,664.8044302814328,193.81394002525062,662.2570646016082,193.32929075252753C659.7096989217836,192.84464147980444,656.5931889619883,192.91166543542784,654.4182963267544,192.85090067714043C652.2434036915205,192.79013591885305,651.010128380848,192.6015824466549,649.3415620431286,192.11289161181935C647.6729957054093,191.62420077698388,645.5691383406432,190.83537257951102,640.1921324470029,186.20565610364983C634.8151265533626,181.57593962778867,626.164972130848,173.10533487353925,621.2897838998538,168.77575576031543C616.4145956688596,164.44617664709165,615.314373629386,164.2576231748935,614.4671166849415,164.06906970269532C613.6198597404971,163.8805162304972,613.0255678910819,163.691962758299,612.4269033260234,163.50340928610086C611.828238760965,163.3148558139027,611.2252014802632,163.12630234170456,610.2296100603071,162.60252298428054C609.2340186403509,162.0787436268565,607.8458730811403,161.21973838420658,604.8996310763888,160.69595902678253C601.9533890716374,160.17217966935848,597.449050621345,159.98362619716033,594.5217441063597,159.45231367377616C591.5944375913742,158.92100115039196,590.244163011696,158.04692957582176,589.2611188779241,157.5156170524376C588.2780747441521,156.98430452905342,587.6622610562866,156.79575105685527,585.0855640076755,156.00232867079944C582.5088669590643,155.20890628474362,577.9712865497077,153.8106149848301,575.3448391812866,153.01719259877427C572.7183918128655,152.22377021271845,572.0030774853801,152.03521674052027,571.0668283991228,151.24179435446445C570.1305793128654,150.44837196840862,568.9733954678362,149.0500806684951,566.7096388432016,147.41656256874805C564.4458822185671,145.783044469001,561.0755528143274,143.91429956942042,559.0828618421052,141.68935408723476C557.090170869883,139.4644086050491,556.4751183296784,136.88326254025836,555.8703606999269,134.90026462361575C555.2656030701754,132.91726670697315,554.6711403508772,131.53241693847872,554.0767164656432,130.14756716998426C553.4822925804093,128.7627174014898,552.8879075292398,127.37786763299535,546.9014825475147,124.79672156820459C540.9150575657895,122.21557550341385,529.5365926535087,118.43813314232682,521.5966938505117,115.85698707753608C513.6567950475145,113.27584101274533,509.1554623538011,111.89099124425088,503.558814875731,111.10428962390456C497.9621673976608,110.31758800355828,491.27020513523394,110.12903453136012,485.34713404605264,109.94048105916197C479.4240629568714,109.7519275869638,474.26988304093567,109.56337411476567,466.633006441886,109.02373368604576C458.9961298428363,108.48409325732587,448.8765565606725,107.59336587208422,442.4929484192251,105.88343558829187C436.1093402777777,104.1735053044995,433.46169727704677,101.64437212215643,430.52798702485387,100.28552879488582C427.5942767726608,98.9266854676152,424.3744992690058,98.73813199541705,421.1971635142543,96.7941437406102C418.0198277595029,94.85015548580334,414.88493375365493,91.15073244838779,412.9388125913743,89.20674419358095C410.9926914290936,87.26275593877409,410.23534311038014,87.07420246657595,406.52387586805554,86.61175136872254C402.812408625731,86.14930027086912,396.1468224597954,85.41295154736046,391.2191111567983,84.95050044950705C386.2913998538011,84.48804935165364,383.10156341374267,84.29949587945549,379.8833548062865,82.96555233633535C376.66514619883037,81.63160879321521,373.4185654239766,79.15227517917307,370.19954906798245,77.81833163605292C366.98053271198825,76.48438809293279,363.78908077485374,76.29583462073464,360.8321438687865,76.10728114853649C357.87520696271923,75.91872767633834,355.1527850877192,75.73017420414017,351.85641904239765,75.54162073194202C348.56005299707596,75.35306725974387,344.6897427814327,75.16451378754572,340.12339021381575,74.97596031534756C335.5570376461988,74.78740684314941,330.2946427266082,74.59885337095125,325.3125637335526,73.8376048632921C320.33048474049707,73.07635635563297,315.6287216739766,71.74241281251282,311.0209486933479,70.98116430485366C306.4131757127193,70.21991579719453,301.89939281798246,70.03136232499638,298.59092607821634,69.38095801774904C295.2824593384503,68.7305537105017,293.17930875365494,67.61829856820516,285.13480651498537,62.337069888197966C277.09030427631575,57.05584120819077,263.1044503837719,47.605638990472904,253.16717973318714,41.73033141216581C243.22990908260235,35.85502383385871,237.34122167397663,33.55461089496238,226.36235928362575,30.53540241468986C215.38349689327484,27.51619393441735,199.31445952119884,23.778189912768642,179.91127307200293,20.48834883928289C160.508086622807,17.198507765797128,137.77075109649124,14.356829640474317,126.40208333333332,12.935990577812909L115.03341557017544,11.515151515151503" />
    <path stroke="orange" d="M839.9368146929825,254.00370405988542L838.2876957693712,253.90759379131887C836.6385768457602,253.8114835227523,833.340338998538,253.6192629856192,824.3467128106726,252.66292888685996C815.353086622807,251.70659478810072,800.6640720942983,249.98614712771538,792.6356937591376,249.09703667739845C784.6073154239766,248.20792622708154,783.2395732821637,248.15015298683306,779.5833008954678,247.7454062558512C775.927028508772,247.34065952486935,769.982225877193,246.58893930315412,765.0981873629386,244.7900445581317C760.2141488486842,242.99114981310927,756.3908744517544,240.1450805447797,753.8480484740497,238.5775871906951C751.305222496345,237.01009383661048,750.0428449378655,236.72117639677094,747.0435012335525,236.34515663891443C744.0441575292398,235.9691368810579,739.3078476790937,235.50601480518444,736.0316132127194,232.90302338907017C732.755378746345,230.30003197295594,730.9392196637427,225.55717121660095,728.0000920595761,222.98868287689433C725.0609644554094,220.4201945371877,720.9988683296783,220.02607861412943,718.3250317525585,219.7103281610466C715.6511951754386,219.3945777079638,714.3656181469299,219.1571927248565,712.7572562591373,218.8314884044756C711.1488943713451,218.5057840840947,709.217747624269,218.0917604264403,706.6458815332602,217.78371967238743C704.0740154422515,217.47567891833458,700.8614300073099,217.27362106788334,698.6229077576754,217.08218487164C696.3843855080409,216.89074867539668,695.1199264437133,216.70993413336126,693.8720068073831,216.4888418670332C692.6240871710526,216.2677496007051,691.3927069627193,216.0063796100843,690.4296817891081,215.77840677609007C689.4666566154971,215.55043394209588,688.7719864766082,215.3558582647283,686.7717733461258,215.09495731421035C684.7715602156433,214.8340563636924,681.4658040935673,214.50683014002414,679.4913612481726,214.20560172671284C677.5169184027778,213.90437331340152,676.8737888340643,213.6291427104472,675.9102199835526,213.3909943606255C674.9466511330409,213.15284601080376,673.6626430007309,212.9517799141147,672.4176786366958,212.70973013057392C671.1727142726608,212.46768034703322,669.9667936769006,212.1846468766408,668.3747226790937,211.24943669850822C666.7826516812866,210.31422652037566,664.8044302814328,208.72683963450285,662.2570646016082,207.13847420813656C659.7096989217836,205.5501087817702,656.5931889619883,203.96076481491033,654.4182963267544,203.06874691624944C652.2434036915205,202.17672901758854,651.010128380848,201.98203718712662,649.3415620431286,200.61283084418798C647.6729957054093,199.24362450124931,645.5691383406432,196.69990364583393,640.1921324470029,192.30409497355507C634.8151265533626,187.9082863012762,626.164972130848,181.66038981213387,621.2897838998538,178.43616198872812C616.4145956688596,175.21193416532228,615.314373629386,175.011375007653,614.4671166849415,174.7389051179782C613.6198597404971,174.4664352283033,613.0255678910819,174.1220546066229,612.4269033260234,173.84933124743816C611.828238760965,173.57660788825342,611.2252014802632,173.3755417915643,610.2296100603071,173.04807717265274C609.2340186403509,172.72061255374123,607.8458730811403,172.26674941260725,604.8996310763888,169.66224022265052C601.9533890716374,167.05773103269377,597.449050621345,162.30257579391426,594.5217441063597,159.7718162466193C591.5944375913742,157.24105669932428,590.244163011696,156.93469284351383,589.2611188779241,156.68097786726403C588.2780747441521,156.42726289101427,587.6622610562866,156.22619679432518,585.0855640076755,155.32832250300117C582.5088669590643,154.4304482116772,577.9712865497077,152.8357657257183,575.3448391812866,151.9124787607143C572.7183918128655,150.9891917957103,572.0030774853801,150.73730035166116,571.0668283991228,150.34776758497355C570.1305793128654,149.95823481828594,568.9733954678362,149.4310607289599,566.7096388432016,148.3948004728833C564.4458822185671,147.35854021680674,561.0755528143274,145.81319379397965,559.0828618421052,144.7478143791246C557.090170869883,143.6824349642696,556.4751183296784,143.09702255738662,555.8703606999269,142.5550876895126C555.2656030701754,142.01315282163853,554.6711403508772,141.5146954927734,554.0767164656432,140.99707382028402C553.4822925804093,140.47945214779463,552.8879075292398,139.94266613168102,546.9014825475147,138.72340356874778C540.9150575657895,137.50414100581452,529.5365926535087,135.60240189606168,521.5966938505117,133.5157276172049C513.6567950475145,131.42905333834815,509.1554623538011,129.15744389038753,503.558814875731,127.92078871260723C497.9621673976608,126.68413353482696,491.27020513523394,126.48243262722703,485.34713404605264,126.28557990998657C479.4240629568714,126.0887271927461,474.26988304093567,125.89672266586513,466.633006441886,125.59911741107653C458.9961298428363,125.30151215628797,448.8765565606725,124.89830617359182,442.4929484192251,123.64112664976857C436.1093402777777,122.38394712594528,433.46169727704677,120.27279406099491,430.52798702485387,119.11002434500307C427.5942767726608,117.9472546290112,424.3744992690058,117.73286826197786,421.1971635142543,114.93857457469515C418.0198277595029,112.14428088741242,414.88493375365493,106.77007987988031,412.9388125913743,104.01987514950817C410.9926914290936,101.26967041913605,410.23534311038014,101.1434619659239,406.52387586805554,100.96877527954472C402.812408625731,100.79408859316554,396.1468224597954,100.5709236736193,391.2191111567983,100.14702943430744C386.2913998538011,99.72313519499556,383.10156341374267,99.09851163591804,379.8833548062865,95.25991043028255C376.66514619883037,91.42130922464706,373.4185654239766,84.36873037245358,370.19954906798245,80.60424940965864C366.98053271198825,76.83976844686369,363.78908077485374,76.36338537346728,360.8321438687865,75.93871894887009C357.87520696271923,75.51405252427288,355.1527850877192,75.1411027484749,351.85641904239765,74.85409481223138C348.56005299707596,74.56708687598784,344.6897427814327,74.36602077929875,340.12339021381575,74.1676693608391C335.5570376461988,73.96931794237943,330.2946427266082,73.77368120214922,325.3125637335526,72.91965263161475C320.33048474049707,72.0656240610803,315.6287216739766,70.55320366024159,311.0209486933479,69.64567267776492C306.4131757127193,68.73814169528823,301.89939281798246,68.43550013117361,298.59092607821634,67.95342372339927C295.2824593384503,67.47134731562494,293.17930875365494,66.80983606419092,285.13480651498537,60.86372647222126C277.09030427631575,54.91761688025159,263.1044503837719,43.6869089477463,253.16717973318714,37.45017887323222C243.22990908260235,31.213448798718133,237.34122167397663,29.970696582195274,226.36235928362575,27.372650098703588C215.38349689327484,24.774603615211902,199.31445952119884,20.821262864751397,179.91127307200293,17.483783153671364C160.508086622807,14.146303442591327,137.77075109649124,11.424684770891764,126.40208333333332,10.06387543504198L115.03341557017544,8.703066099192199" />
  </g>
  
  <g class="axis y" stroke="black" fill="none" stroke-dasharray="4 6">
    <path d="M 0,285 h900" /><path d="M 0,190 h900" /><path d="M 0,95 h900" />
  </g>
  <g
    class="axis x"
    stroke="black" fill="none"
    transform="translate(0, 380)">
  
  <path d="M0,0 h900" />
  <g transform="translate(843, 0)">
      <text text-anchor="middle"
      fill="black"
      stroke="none"
      transform="translate(0, 12)">Jan ’22</text>
      <path d="M0,0 v-5" />
    </g><g transform="translate(769, 0)">
      <text text-anchor="middle"
      fill="black"
      stroke="none"
      transform="translate(0, 12)">Dec</text>
      <path d="M0,0 v-5" />
    </g><g transform="translate(698, 0)">
      <text text-anchor="middle"
      fill="black"
      stroke="none"
      transform="translate(0, 12)">Nov</text>
      <path d="M0,0 v-5" />
    </g><g transform="translate(625, 0)">
      <text text-anchor="middle"
      fill="black"
      stroke="none"
      transform="translate(0, 12)">Oct</text>
      <path d="M0,0 v-5" />
    </g><g transform="translate(554, 0)">
      <text text-anchor="middle"
      fill="black"
      stroke="none"
      transform="translate(0, 12)">Sep</text>
      <path d="M0,0 v-5" />
    </g><g transform="translate(480, 0)">
      <text text-anchor="middle"
      fill="black"
      stroke="none"
      transform="translate(0, 12)">Aug</text>
      <path d="M0,0 v-5" />
    </g><g transform="translate(407, 0)">
      <text text-anchor="middle"
      fill="black"
      stroke="none"
      transform="translate(0, 12)">Jul</text>
      <path d="M0,0 v-5" />
    </g><g transform="translate(336, 0)">
      <text text-anchor="middle"
      fill="black"
      stroke="none"
      transform="translate(0, 12)">Jun</text>
      <path d="M0,0 v-5" />
    </g><g transform="translate(262, 0)">
      <text text-anchor="middle"
      fill="black"
      stroke="none"
      transform="translate(0, 12)">May</text>
      <path d="M0,0 v-5" />
    </g><g transform="translate(191, 0)">
      <text text-anchor="middle"
      fill="black"
      stroke="none"
      transform="translate(0, 12)">Apr</text>
      <path d="M0,0 v-5" />
    </g><g transform="translate(118, 0)">
      <text text-anchor="middle"
      fill="black"
      stroke="none"
      transform="translate(0, 12)">Mar</text>
      <path d="M0,0 v-5" />
    </g><g transform="translate(52, 0)">
      <text text-anchor="middle"
      fill="black"
      stroke="none"
      transform="translate(0, 12)">Feb</text>
      <path d="M0,0 v-5" />
    </g><g transform="translate(-22, 0)">
      <text text-anchor="middle"
      fill="black"
      stroke="none"
      transform="translate(0, 12)">Jan ’21</text>
      <path d="M0,0 v-5" />
    </g>
  
  </g>
</svg>