<svg xmlns="http://www.w3.org/2000/svg"
  viewBox="0 0 900 460"
  width="900"
  height="460">
  <style>
    text {
      font-family: "Courier New", Courier, monospace;
    }
    .legend {
      font-size: 12px;
    }
  </style>
  <g class="lines" fill="none" transform="translate(20, 80)">>
    <path stroke="darkblue" d="M820.1604826297273,62.937062937062926L819.3866207717628,63.327310246830784C818.6127589137982,63.71755755659865,817.065035197869,64.49805217613438,804.4807757336257,65.60018626730955C791.8965162693822,66.70232035848476,768.2757210568246,68.1260939212994,748.9748831057004,69.67804208728866C729.6740451545764,71.22999025327792,714.6931644648859,72.91011302244179,704.3258614008918,74.13495041504369C693.9585583368975,75.35978780764557,688.2048328985996,76.12933982368548,674.879883845526,77.38604989443665C661.5549347924524,78.6427599651878,640.658762124603,80.38662809065023,621.0300396638044,81.55764700242162C601.4013172030055,82.72866591419302,583.0400449492577,83.32683561227338,558.9256279982068,85.47337096565559C534.811211047156,87.6199063190378,504.94364939880234,91.31480732772184,477.4312844028234,93.38620869355042C449.91891940684445,95.45761005937898,424.7617510632402,95.9055117823521,407.3853822010929,97.94457265020644C390.00901333894575,99.98363351806078,380.4134439582555,103.61385353079636,374.89685366177815,106.31765910410121C369.38026336530083,109.02146467740606,367.9426521530363,110.79885581128015,366.7165714212028,112.57624694515425C365.4904906893692,114.35363807902833,364.4759404379667,116.13102921290243,356.1848148604134,118.69911802119513C347.8936892828601,121.2672068294878,332.3259883791561,124.6259933121991,322.747547177519,126.26045063569752C313.1691059758818,127.89490795919595,309.57992447631153,127.8050361234815,300.28032722622817,128.6427134827581C290.98072997614486,129.4803908420347,275.9707169755485,131.24561739630232,267.63891440627725,132.07948752074026C259.307111837006,132.9133576451782,257.65351969905987,132.8158713397864,253.7053589778537,133.31222770174637C249.7571982566475,133.80858406370632,243.51446895218132,134.898783093018,238.33530261495343,136.57658253507603C233.15613627772555,138.25438197713405,229.04053290773606,140.5197818319384,226.208756448843,142.1458284890683C223.37697998994994,143.7718751461982,221.8290304421533,144.75856860565366,218.53953172439188,145.67988942273595C215.25003300663047,146.60121023981824,210.21898511890421,147.45715841452736,206.6518650565957,149.18785480384915C203.08474499428723,150.91855119317097,200.98155275739654,153.52399579710547,197.752429021312,155.1031936818799C194.52330528522748,156.68239156665433,190.1682500499492,157.2353427322686,187.20511731723613,157.60981620759424C184.24198458452307,157.9842896829198,182.67077435437523,158.18028546795668,180.7759275898533,158.59937836585445C178.88108082533142,159.01847126375222,176.6625975264354,159.6606612745109,173.80170433124803,160.07975417240868C170.94081113606057,160.49884707030643,167.4375080445818,160.6948428553433,164.91083822597014,160.8908386403802C162.38416840735854,161.0868344254171,160.8341318616141,161.28283021045397,159.3006783835185,161.88040079864044C157.76722490542284,162.47797138682694,156.250354494976,163.47711677816304,155.00254718002896,164.07468736634954C153.75473986508197,164.67225795453604,152.7759956456348,164.8682537395729,150.48826373013077,165.4658243277594C148.20053181462674,166.06339491594588,144.60381220306581,167.06254030728195,142.3419185681247,168.06168569861805C140.08002493318352,169.06083108995415,139.15295727486216,170.05997648129025,137.90460484851087,170.65754706947675C136.65625242215958,171.25511765766328,135.08661522777837,171.45111344270015,133.55612481953028,171.64710922773702C132.0256344112822,171.8431050127739,130.53429078916722,172.03910079781076,128.65577789850926,172.63667138599726C126.77726500785131,173.23424197418376,124.51158284865043,174.23338736551986,121.67525470953161,174.70989496158032C118.83892657041281,175.18640255764083,115.4319524513761,175.14027235842573,112.9690801353297,175.21520515133662C110.5062078192833,175.2901379442475,108.98743730622725,175.48613372928438,107.03222724098707,175.96647017366195C105.07701717574689,176.44680661803946,102.68536755832258,177.21148372175767,97.01193313622225,181.61489708921215C91.33849871412191,186.01831045666663,82.38327948734553,194.06046008785734,77.21298678504878,198.17953279597114C72.042694082752,202.29860550408497,70.65732790493486,202.49460128912185,69.52559427622357,202.69059707415872C68.39386064751227,202.88659285919562,67.51575956790681,203.0825886442325,66.63327423514978,203.27858442926936C65.75078890239274,203.47458021430623,64.86391931648414,203.6705759993431,63.58345982842075,204.18415420196243C62.303000340357336,204.69773240458173,60.62895095013916,205.52889302478343,57.39269404196435,206.04247122740276C54.15643713378955,206.55604943002206,49.35797270765813,206.75204521505893,46.14070125096382,207.2727601012194C42.92342979426953,207.79347498737988,41.28735130701235,208.63890897466396,40.01947221142917,209.15962386082444C38.751593115845985,209.68033874698492,37.8519134119368,209.8763345320218,34.98617651255707,210.64536402492385C32.120439613177346,211.4143935178259,27.288645518327076,212.75645671859309,24.37302703180282,213.52548621149512C21.457408545278565,214.29451570439718,20.457965667080305,214.49051148943408,19.237005088794103,215.25954098233615C18.0160445105079,216.02857047523818,16.573566232133743,217.37063367600538,14.02159545705774,218.93554331872016C11.469624681981736,220.50045296143495,7.808161410203887,222.28820904609734,5.527971500343362,224.4134183142803C3.247781590482839,226.5386275824632,2.3488650425396416,229.00129003416677,1.4602705684017774,230.8972858192036C0.5716760942639129,232.7932816042405,-0.30659630606861893,234.12261072261072,-1.1848297698722676,235.4519398409809C-2.0630632336759165,236.78126895935114,-2.9412577609506823,238.1105980777214,-9.225719237067436,240.5732605294249C-15.510180713184191,243.03592298112846,-27.200909138142933,246.63191876616534,-35.44399872002046,249.09458121786886C-43.687088301897994,251.55724366957244,-48.4825390406943,252.88657278794264,-54.37619457647097,253.64923523964617C-60.26985011224766,254.4118976913497,-67.2617104450047,254.6078934763866,-73.48265086791125,254.80388926142348C-79.7035912908178,254.99988504646035,-85.15361180387386,255.19588083149725,-93.0928796509229,255.7244853121863C-101.03214749797193,256.25308979287536,-111.46066267901392,257.11430296921657,-118.14335529152764,258.75160310207957C-124.82604790404133,260.3889032349425,-127.76291794802675,262.80229032432726,-130.98661003833288,264.106981761538C-134.21030212863903,265.4116731987488,-137.72081626526588,265.60766898378574,-141.1887766694829,267.4667082470835C-144.65673707369993,269.32574751038123,-148.08214374550707,272.84783025193985,-150.31564096993813,274.70686951523766C-152.54913819436914,276.5659087785354,-153.59072597142406,276.7619045635723,-157.59422718112333,277.2173823097562C-161.59772839082262,277.6728600559402,-168.56314303316628,278.38781976327124,-173.7860973907694,278.8432975094552C-179.0090517483725,279.29877525563916,-182.4895458212351,279.494771040676,-185.99848692209534,280.7758732086916C-189.50742802295554,282.0569753767072,-193.04481615181342,284.4231839277016,-196.5545671324743,285.7042860957172C-200.0643181131352,286.9853882637328,-203.54643194559904,287.18138404876964,-206.79341197382664,287.3773798338065C-210.0403920020542,287.5733756188434,-213.05223822604546,287.7693714038803,-216.63954298492388,287.9653671889172C-220.2268477438023,288.16136297395406,-224.38961103756785,288.3573587589909,-229.2502532066632,288.55335454402785C-234.11089537575853,288.7493503290647,-239.6694164201837,288.9453461141016,-244.94688191821487,289.6838950906278C-250.22434741624602,290.4224440671541,-255.22075736788315,291.70354623516965,-260.12292923867886,292.44209521169597C-265.02510110947463,293.1806441882222,-269.8330348994289,293.37663997325905,-273.43247228070544,294.0101786546583C-277.03190966198196,294.6437173360576,-279.4228506345807,295.71479891381927,-287.7708196506417,300.7354343694121C-296.1187886667028,305.7560698250049,-310.4237857262262,314.72625915842883,-320.6695172661072,320.3097062018847C-330.91524880598826,325.8931532453406,-337.101714826227,328.0898579988284,-348.3917863690397,330.9675269494094C-359.68185791185243,333.8451958999904,-376.0755349772392,337.4038290476646,-395.8121583468623,340.5378867707634C-415.54878171648534,343.6719444938623,-438.62835139034473,346.38142679238564,-450.1681362272745,347.7361679416474L-461.70792106420413,349.0909090909091" />
    <path stroke="blue" d="M820.1604826297273,41.267564141718545L819.3866207717628,41.835670473703C818.6127589137982,42.40377680568744,817.065035197869,43.53998946965635,804.4807757336257,45.56770978798283C791.8965162693822,47.5954301063093,768.2757210568246,50.51465807899336,748.9748831057004,53.15692562623014C729.6740451545764,55.79919317346693,714.6931644648859,58.16450029525645,704.3258614008918,59.511028507597224C693.9585583368975,60.85755671993801,688.2048328985996,61.18530602283005,674.879883845526,62.55195048143252C661.5549347924524,63.918594940034986,640.658762124603,66.32413455434788,621.0300396638044,67.77226929599972C601.4013172030055,69.22040403765159,583.0400449492577,69.71113390664239,558.9256279982068,72.81808262525713C534.811211047156,75.92503134387188,504.94364939880234,81.64819891211056,477.4312844028234,84.8326986386469C449.91891940684445,88.01719836518326,424.7617510632402,88.66303025001729,407.3853822010929,90.49112242248725C390.00901333894575,92.3192145949572,380.4134439582555,95.32956705506312,374.89685366177815,97.18100152739801C369.38026336530083,99.03243599973291,367.9426521530363,99.7249524842968,366.7165714212028,100.2838166262826C365.4904906893692,100.84268076826841,364.4759404379667,101.26789256767616,356.1848148604134,103.74934175779009C347.8936892828601,106.23079094790403,332.3259883791561,110.76847752872418,322.747547177519,113.13946212746858C313.1691059758818,115.51044672621303,309.57992447631153,115.71472934288174,300.28032722622817,116.6429090179331C290.98072997614486,117.5710886929845,275.9707169755485,119.22316542641852,267.63891440627725,120.08765953978771C259.307111837006,120.95215365315688,257.65351969905987,121.02906514646122,253.7053589778537,121.43468836782876C249.7571982566475,121.84031158919629,243.51446895218132,122.57464653862705,238.33530261495343,124.30104156276987C233.15613627772555,126.0274365869127,229.04053290773606,128.7458916857676,226.208756448843,130.25306433954825C223.37697998994994,131.7602369933289,221.8290304421533,132.05612720203536,218.53953172439188,132.4345353962315C215.25003300663047,132.8129435904277,210.21898511890421,133.2738697701136,206.6518650565957,135.76204058792234C203.08474499428723,138.25021140573108,200.98155275739654,142.76562686166267,197.752429021312,145.22111055445367C194.52330528522748,147.6765942472447,190.1682500499492,148.0721461768952,187.20511731723613,148.39345713498994C184.24198458452307,148.7147680930847,182.67077435437523,148.96183807962373,180.7759275898533,149.29257901726405C178.88108082533142,149.62331995490436,176.6625975264354,150.0377318436459,173.80170433124803,150.3517388763439C170.94081113606057,150.66574590904182,167.4375080445818,150.8793480856962,164.91083822597014,151.0828876425746C162.38416840735854,151.28642719945302,160.8341318616141,151.47990413655546,159.3006783835185,151.7115389177247C157.76722490542284,151.94317369889396,156.250354494976,152.21296632412998,155.00254718002896,152.451119537825C153.75473986508197,152.68927275152006,152.7759956456348,152.89578655367407,150.48826373013077,153.16513482512846C148.20053181462674,153.4344830965828,144.60381220306581,153.76666583733746,142.3419185681247,154.07421907354345C140.08002493318352,154.3817723097494,139.15295727486216,154.66469604140667,137.90460484851087,154.91248921746464C136.65625242215958,155.16028239352255,135.08661522777837,155.37294501398117,133.55612481953028,155.62443428514135C132.0256344112822,155.8759235563015,130.53429078916722,156.16623947816325,128.65577789850926,157.0744070178841C126.77726500785131,157.98257455760498,124.51158284865043,159.508593715185,121.67525470953161,161.0355399111273C118.83892657041281,162.5624861070696,115.4319524513761,164.0903593413742,112.9690801353297,164.95760787949033C110.5062078192833,165.8248564176064,108.98743730622725,166.03148025953405,107.03222724098707,167.35080206065012C105.07701717574689,168.67012386176623,102.68536755832258,171.1021436220708,97.01193313622225,175.28877289308812C91.33849871412191,179.47540216410547,82.38327948734553,185.41664094583552,77.21298678504878,188.49335151792047C72.042694082752,191.57006209000545,70.65732790493486,191.78224445244533,69.52559427622357,192.06255277152204C68.39386064751227,192.34286109059872,67.51575956790681,192.69129536631226,66.63327423514978,192.97184381439834C65.75078890239274,193.25239226248445,64.86391931648414,193.46505488294304,63.58345982842075,193.7974634718229C62.303000340357336,194.12987206070275,60.62895095013916,194.58202661800388,57.39269404196435,197.07163532682137C54.15643713378955,199.56124403563877,49.35797270765813,204.08830689597252,46.14070125096382,206.5080475222683C42.92342979426953,208.92778814856408,41.28735130701235,209.24020654082187,40.01947221142917,209.50274704718007C38.751593115845985,209.7652875535383,37.8519134119368,209.9779501739969,34.98617651255707,210.85074687358335C32.120439613177346,211.72354357316974,27.288645518327076,213.25647435188395,24.37302703180282,214.15334621600928C21.457408545278565,215.05021808013467,20.457965667080305,215.31103102967123,19.237005088794103,215.70224102170735C18.0160445105079,216.09345101374348,16.573566232133743,216.61505804827925,14.02159545705774,217.6189572407892C11.469624681981736,218.62285643329906,7.808161410203887,220.1090477837832,5.527971500343362,221.1405335477674C3.247781590482839,222.17201931175165,2.3488650425396416,222.74879948923603,1.4602705684017774,223.2843904192383C0.5716760942639129,223.81998134924052,-0.30659630606861893,224.31438303176068,-1.1848297698722676,224.8269404082406C-2.0630632336759165,225.33949778472052,-2.9412577609506823,225.87021085516028,-9.225719237067436,227.04748065416598C-15.510180713184191,228.22475045317165,-27.200909138142933,230.04857698074332,-35.44399872002046,232.04760524746607C-43.687088301897994,234.04663351418876,-48.4825390406943,236.22086352006252,-54.37619457647097,237.41461053313387C-60.26985011224766,238.60835754620516,-67.2617104450047,238.82162156647405,-73.48265086791125,239.03029256429713C-79.7035912908178,239.23896356212018,-85.15361180387386,239.4430415374974,-93.0928796509229,239.7471623077345C-101.03214749797193,240.05128307797153,-111.46066267901392,240.4554466430684,-118.14335529152764,241.6686377734436C-124.82604790404133,242.8818289038188,-127.76291794802675,244.90404759947236,-130.98661003833288,246.0277978592704C-134.21030212863903,247.15154811906848,-137.72081626526588,247.3768299430111,-141.1887766694829,250.04623449140055C-144.65673707369993,252.71563903978995,-148.08214374550707,257.82916631262617,-150.31564096993813,260.45680237552136C-152.54913819436914,263.0844384384165,-153.59072597142406,263.22618329137066,-157.59422718112333,263.41385489153566C-161.59772839082262,263.60152649170067,-168.56314303316628,263.8351248390765,-173.7860973907694,264.2588878051777C-179.0090517483725,264.68265077127904,-182.4895458212351,265.2965783561056,-185.99848692209534,268.9553268692503C-189.50742802295554,272.614075382395,-193.04481615181342,279.31764482385773,-196.5545671324743,282.9061741595745C-200.0643181131352,286.49470349529133,-203.54643194559904,286.96819272526216,-206.79341197382664,287.3926872353179C-210.0403920020542,287.8171817453737,-213.05223822604546,288.1926815355144,-216.63954298492388,288.4867627408141C-220.2268477438023,288.78084394611375,-224.38961103756785,288.9935065665723,-229.2502532066632,289.203597386603C-234.11089537575853,289.41368820663376,-239.6694164201837,289.6212072262366,-244.94688191821487,290.45246587454875C-250.22434741624602,291.28372452286084,-255.22075736788315,292.7387227998823,-260.12292923867886,293.62066794371856C-265.02510110947463,294.5026130875549,-269.8330348994289,294.8115050982061,-273.43247228070544,295.290388013377C-277.03190966198196,295.769270928548,-279.4228506345807,296.4181447482386,-287.7708196506417,302.0734801536999C-296.1187886667028,307.72881555916115,-310.4237857262262,318.390612550393,-320.6695172661072,324.32127262352793C-330.91524880598826,330.25193269666283,-337.101714826227,331.4514558517008,-348.3917863690397,333.9349419964987C-359.68185791185243,336.4184281412966,-376.0755349772392,340.18587727585447,-395.8121583468623,343.3698791099466C-415.54878171648534,346.5538809440388,-438.62835139034473,349.1544354776652,-450.1681362272745,350.4547127444784L-461.70792106420413,351.7549900112916" />
    
    <path stroke="darkorange" d="M820.1604826297273,297.06293706293707L819.3866207717628,296.6726897531692C818.6127589137982,296.28244244340135,817.065035197869,295.50194782386563,804.4807757336257,294.39981373269046C791.8965162693822,293.2976796415153,768.2757210568246,291.8739060787006,748.9748831057004,290.32195791271135C729.6740451545764,288.7700097467221,714.6931644648859,287.08988697755825,704.3258614008918,285.86504958495635C693.9585583368975,284.64021219235445,688.2048328985996,283.8706601763145,674.879883845526,282.61395010556333C661.5549347924524,281.35724003481215,640.658762124603,279.6133719093498,621.0300396638044,278.4423529975784C601.4013172030055,277.271334085807,583.0400449492577,276.6731643877266,558.9256279982068,274.52662903434447C534.811211047156,272.3800936809622,504.94364939880234,268.68519267227816,477.4312844028234,266.6137913064496C449.91891940684445,264.54238994062104,424.7617510632402,264.0944882176479,407.3853822010929,262.05542734979355C390.00901333894575,260.0163664819392,380.4134439582555,256.38614646920365,374.89685366177815,253.68234089589882C369.38026336530083,250.97853532259396,367.9426521530363,249.2011441887199,366.7165714212028,247.42375305484578C365.4904906893692,245.64636192097169,364.4759404379667,243.8689707870976,356.1848148604134,241.3008819788049C347.8936892828601,238.7327931705122,332.3259883791561,235.37400668780091,322.747547177519,233.73954936430246C313.1691059758818,232.10509204080404,309.57992447631153,232.1949638765185,300.28032722622817,231.35728651724187C290.98072997614486,230.5196091579653,275.9707169755485,228.75438260369768,267.63891440627725,227.92051247925974C259.307111837006,227.08664235482183,257.65351969905987,227.1841286602136,253.7053589778537,226.68777229825363C249.7571982566475,226.19141593629365,243.51446895218132,225.10121690698193,238.33530261495343,223.42341746492392C233.15613627772555,221.74561802286595,229.04053290773606,219.48021816806158,226.208756448843,217.8541715109317C223.37697998994994,216.22812485380177,221.8290304421533,215.24143139434634,218.53953172439188,214.32011057726402C215.25003300663047,213.39878976018176,210.21898511890421,212.54284158547262,206.6518650565957,210.81214519615082C203.08474499428723,209.08144880682903,200.98155275739654,206.4760042028945,197.752429021312,204.89680631812007C194.52330528522748,203.31760843334567,190.1682500499492,202.7646572677314,187.20511731723613,202.39018379240576C184.24198458452307,202.0157103170802,182.67077435437523,201.81971453204332,180.7759275898533,201.40062163414552C178.88108082533142,200.98152873624778,176.6625975264354,200.3393387254891,173.80170433124803,199.92024582759132C170.94081113606057,199.50115292969357,167.4375080445818,199.3051571446567,164.91083822597014,199.10916135961983C162.38416840735854,198.9131655745829,160.8341318616141,198.71716978954603,159.3006783835185,198.1195992013596C157.76722490542284,197.5220286131731,156.250354494976,196.52288322183696,155.00254718002896,195.92531263365046C153.75473986508197,195.327742045464,152.7759956456348,195.1317462604271,150.48826373013077,194.53417567224062C148.20053181462674,193.93660508405412,144.60381220306581,192.93745969271802,142.3419185681247,191.93831430138195C140.08002493318352,190.93916891004585,139.15295727486216,189.94002351870975,137.90460484851087,189.34245293052325C136.65625242215958,188.74488234233675,135.08661522777837,188.54888655729988,133.55612481953028,188.35289077226298C132.0256344112822,188.15689498722614,130.53429078916722,187.96089920218924,128.65577789850926,187.36332861400274C126.77726500785131,186.76575802581624,124.51158284865043,185.76661263448014,121.67525470953161,185.29010503841968C118.83892657041281,184.81359744235917,115.4319524513761,184.85972764157427,112.9690801353297,184.78479484866338C110.5062078192833,184.7098620557525,108.98743730622725,184.51386627071562,107.03222724098707,184.03352982633805C105.07701717574689,183.55319338196054,102.68536755832258,182.78851627824233,97.01193313622225,178.38510291078785C91.33849871412191,173.98168954333337,82.38327948734553,165.93953991214266,77.21298678504878,161.82046720402886C72.042694082752,157.70139449591503,70.65732790493486,157.50539871087815,69.52559427622357,157.30940292584128C68.39386064751227,157.1134071408044,67.51575956790681,156.9174113557675,66.63327423514978,156.72141557073064C65.75078890239274,156.52541978569377,64.86391931648414,156.32942400065687,63.58345982842075,155.81584579803757C62.303000340357336,155.30226759541827,60.62895095013916,154.47110697521657,57.39269404196435,153.95752877259727C54.15643713378955,153.44395056997794,49.35797270765813,153.24795478494107,46.14070125096382,152.7272398987806C42.92342979426953,152.20652501262012,41.28735130701235,151.36109102533604,40.01947221142917,150.84037613917556C38.751593115845985,150.31966125301508,37.8519134119368,150.1236654679782,34.98617651255707,149.35463597507615C32.120439613177346,148.58560648217414,27.288645518327076,147.24354328140691,24.37302703180282,146.47451378850488C21.457408545278565,145.70548429560282,20.457965667080305,145.50948851056594,19.237005088794103,144.7404590176639C18.0160445105079,143.97142952476185,16.573566232133743,142.62936632399462,14.02159545705774,141.06445668127984C11.469624681981736,139.49954703856505,7.808161410203887,137.7117909539027,5.527971500343362,135.58658168571972C3.247781590482839,133.4613724175368,2.3488650425396416,130.99870996583323,1.4602705684017774,129.10271418079637C0.5716760942639129,127.2067183957595,-0.30659630606861893,125.87738927738928,-1.1848297698722676,124.54806015901907C-2.0630632336759165,123.21873104064885,-2.9412577609506823,121.88940192227864,-9.225719237067436,119.4267394705751C-15.510180713184191,116.96407701887154,-27.200909138142933,113.36808123383464,-35.44399872002046,110.90541878213111C-43.687088301897994,108.44275633042757,-48.4825390406943,107.11342721205737,-54.37619457647097,106.35076476035381C-60.26985011224766,105.58810230865026,-67.2617104450047,105.39210652361338,-73.48265086791125,105.19611073857651C-79.7035912908178,105.00011495353961,-85.15361180387386,104.80411916850274,-93.0928796509229,104.27551468781367C-101.03214749797193,103.74691020712463,-111.46066267901392,102.88569703078339,-118.14335529152764,101.24839689792041C-124.82604790404133,99.61109676505744,-127.76291794802675,97.19770967567274,-130.98661003833288,95.89301823846195C-134.21030212863903,94.58832680125114,-137.72081626526588,94.39233101621426,-141.1887766694829,92.53329175291651C-144.65673707369993,90.67425248961877,-148.08214374550707,87.15216974806015,-150.31564096993813,85.29313048476239C-152.54913819436914,83.43409122146464,-153.59072597142406,83.23809543642774,-157.59422718112333,82.78261769024378C-161.59772839082262,82.32713994405982,-168.56314303316628,81.61218023672878,-173.7860973907694,81.15670249054482C-179.0090517483725,80.70122474436084,-182.4895458212351,80.50522895932397,-185.99848692209534,79.22412679130836C-189.50742802295554,77.94302462329276,-193.04481615181342,75.57681607229843,-196.5545671324743,74.29571390428282C-200.0643181131352,73.01461173626721,-203.54643194559904,72.81861595123034,-206.79341197382664,72.62262016619346C-210.0403920020542,72.42662438115657,-213.05223822604546,72.2306285961197,-216.63954298492388,72.0346328110828C-220.2268477438023,71.83863702604593,-224.38961103756785,71.64264124100904,-229.2502532066632,71.44664545597216C-234.11089537575853,71.25064967093527,-239.6694164201837,71.0546538858984,-244.94688191821487,70.31610490937216C-250.22434741624602,69.57755593284593,-255.22075736788315,68.29645376483033,-260.12292923867886,67.55790478830409C-265.02510110947463,66.81935581177784,-269.8330348994289,66.62336002674097,-273.43247228070544,65.9898213453417C-277.03190966198196,65.35628266394242,-279.4228506345807,64.28520108618078,-287.7708196506417,59.26456563058796C-296.1187886667028,54.24393017499514,-310.4237857262262,45.27374084157116,-320.6695172661072,39.69029379811528C-330.91524880598826,34.106846754659394,-337.101714826227,31.91014200117161,-348.3917863690397,29.032473050590596C-359.68185791185243,26.154804100009585,-376.0755349772392,22.596170952335342,-395.8121583468623,19.462113229236518C-415.54878171648534,16.328055506137698,-438.62835139034473,13.618573207614297,-450.1681362272745,12.263832058352596L-461.70792106420413,10.909090909090896" />
    <path stroke="orange" d="M820.1604826297273,318.73243585828146L819.3866207717628,318.16432952629697C818.6127589137982,317.5962231943126,817.065035197869,316.46001053034365,804.4807757336257,314.4322902120171C791.8965162693822,312.4045698936907,768.2757210568246,309.48534192100664,748.9748831057004,306.84307437376987C729.6740451545764,304.2008068265331,714.6931644648859,301.83549970474354,704.3258614008918,300.4889714924028C693.9585583368975,299.142443280062,688.2048328985996,298.81469397716995,674.879883845526,297.44804951856753C661.5549347924524,296.081405059965,640.658762124603,293.6758654456521,621.0300396638044,292.2277307040003C601.4013172030055,290.7795959623484,583.0400449492577,290.2888660933576,558.9256279982068,287.18191737474285C534.811211047156,284.0749686561281,504.94364939880234,278.35180108788944,477.4312844028234,275.1673013613531C449.91891940684445,271.9828016348168,424.7617510632402,271.3369697499827,407.3853822010929,269.50887757751275C390.00901333894575,267.6807854050428,380.4134439582555,264.67043294493686,374.89685366177815,262.818998472602C369.38026336530083,260.9675640002671,367.9426521530363,260.2750475157032,366.7165714212028,259.7161833737174C365.4904906893692,259.1573192317316,364.4759404379667,258.73210743232386,356.1848148604134,256.2506582422099C347.8936892828601,253.769209052096,332.3259883791561,249.23152247127587,322.747547177519,246.8605378725314C313.1691059758818,244.48955327378698,309.57992447631153,244.28527065711828,300.28032722622817,243.35709098206686C290.98072997614486,242.4289113070155,275.9707169755485,240.77683457358148,267.63891440627725,239.91234046021228C259.307111837006,239.0478463468431,257.65351969905987,238.97093485353878,253.7053589778537,238.56531163217127C249.7571982566475,238.1596884108037,243.51446895218132,237.42535346137296,238.33530261495343,235.69895843723017C233.15613627772555,233.9725634130873,229.04053290773606,231.2541083142324,226.208756448843,229.74693566045175C223.37697998994994,228.2397630066711,221.8290304421533,227.94387279796464,218.53953172439188,227.5654646037685C215.25003300663047,227.1870564095723,210.21898511890421,226.7261302298864,206.6518650565957,224.23795941207766C203.08474499428723,221.74978859426892,200.98155275739654,217.23437313833733,197.752429021312,214.7788894455463C194.52330528522748,212.3234057527553,190.1682500499492,211.9278538231048,187.20511731723613,211.60654286501006C184.24198458452307,211.2852319069153,182.67077435437523,211.03816192037627,180.7759275898533,210.70742098273595C178.88108082533142,210.37668004509564,176.6625975264354,209.9622681563541,173.80170433124803,209.6482611236561C170.94081113606057,209.33425409095818,167.4375080445818,209.12065191430383,164.91083822597014,208.9171123574254C162.38416840735854,208.71357280054698,160.8341318616141,208.52009586344454,159.3006783835185,208.2884610822753C157.76722490542284,208.05682630110604,156.250354494976,207.78703367587002,155.00254718002896,207.548880462175C153.75473986508197,207.31072724847994,152.7759956456348,207.10421344632593,150.48826373013077,206.83486517487154C148.20053181462674,206.5655169034172,144.60381220306581,206.2333341626625,142.3419185681247,205.92578092645655C140.08002493318352,205.61822769025056,139.15295727486216,205.3353039585933,137.90460484851087,205.08751078253536C136.65625242215958,204.83971760647748,135.08661522777837,204.62705498601886,133.55612481953028,204.37556571485868C132.0256344112822,204.1240764436985,130.53429078916722,203.83376052183678,128.65577789850926,202.9255929821159C126.77726500785131,202.01742544239502,124.51158284865043,200.49140628481504,121.67525470953161,198.9644600888727C118.83892657041281,197.43751389293038,115.4319524513761,195.9096406586258,112.9690801353297,195.04239212050967C110.5062078192833,194.1751435823936,108.98743730622725,193.96851974046595,107.03222724098707,192.64919793934988C105.07701717574689,191.32987613823377,102.68536755832258,188.8978563779292,97.01193313622225,184.71122710691188C91.33849871412191,180.52459783589453,82.38327948734553,174.58335905416448,77.21298678504878,171.5066484820795C72.042694082752,168.42993790999455,70.65732790493486,168.2177555475547,69.52559427622357,167.937447228478C68.39386064751227,167.6571389094013,67.51575956790681,167.30870463368774,66.63327423514978,167.02815618560166C65.75078890239274,166.7476077375156,64.86391931648414,166.534945117057,63.58345982842075,166.2025365281771C62.303000340357336,165.87012793929725,60.62895095013916,165.41797338199606,57.39269404196435,162.92836467317863C54.15643713378955,160.4387559643612,49.35797270765813,155.91169310402745,46.14070125096382,153.4919524777317C42.92342979426953,151.07221185143592,41.28735130701235,150.75979345917813,40.01947221142917,150.49725295281993C38.751593115845985,150.2347124464617,37.8519134119368,150.0220498260031,34.98617651255707,149.1492531264167C32.120439613177346,148.27645642683026,27.288645518327076,146.74352564811605,24.37302703180282,145.8466537839907C21.457408545278565,144.94978191986533,20.457965667080305,144.68896897032877,19.237005088794103,144.29775897829265C18.0160445105079,143.9065489862565,16.573566232133743,143.38494195172075,14.02159545705774,142.38104275921083C11.469624681981736,141.3771435667009,7.808161410203887,139.89095221621682,5.527971500343362,138.8594664522326C3.247781590482839,137.82798068824835,2.3488650425396416,137.251200510764,1.4602705684017774,136.7156095807617C0.5716760942639129,136.18001865075948,-0.30659630606861893,135.68561696823934,-1.1848297698722676,135.17305959175943C-2.0630632336759165,134.66050221527948,-2.9412577609506823,134.12978914483975,-9.225719237067436,132.95251934583405C-15.510180713184191,131.77524954682835,-27.200909138142933,129.95142301925668,-35.44399872002046,127.95239475253396C-43.687088301897994,125.95336648581126,-48.4825390406943,123.77913647993746,-54.37619457647097,122.58538946686616C-60.26985011224766,121.39164245379486,-67.2617104450047,121.17837843352599,-73.48265086791125,120.96970743570294C-79.7035912908178,120.76103643787987,-85.15361180387386,120.5569584625026,-93.0928796509229,120.25283769226553C-101.03214749797193,119.94871692202848,-111.46066267901392,119.54455335693159,-118.14335529152764,118.3313622265564C-124.82604790404133,117.11817109618119,-127.76291794802675,115.09595240052768,-130.98661003833288,113.97220214072962C-134.21030212863903,112.84845188093153,-137.72081626526588,112.6231700569889,-141.1887766694829,109.95376550859949C-144.65673707369993,107.28436096021005,-148.08214374550707,102.17083368737387,-150.31564096993813,99.5431976244787C-152.54913819436914,96.91556156158352,-153.59072597142406,96.77381670862935,-157.59422718112333,96.58614510846435C-161.59772839082262,96.39847350829933,-168.56314303316628,96.16487516092344,-173.7860973907694,95.74111219482222C-179.0090517483725,95.31734922872097,-182.4895458212351,94.70342164389437,-185.99848692209534,91.0446731307497C-189.50742802295554,87.385924617605,-193.04481615181342,80.68235517614225,-196.5545671324743,77.09382584042547C-200.0643181131352,73.50529650470868,-203.54643194559904,73.03180727473789,-206.79341197382664,72.60731276468212C-210.0403920020542,72.18281825462635,-213.05223822604546,71.80731846448563,-216.63954298492388,71.51323725918597C-220.2268477438023,71.2191560538863,-224.38961103756785,71.00649343342768,-229.2502532066632,70.79640261339696C-234.11089537575853,70.58631179336624,-239.6694164201837,70.37879277376341,-244.94688191821487,69.5475341254513C-250.22434741624602,68.71627547713918,-255.22075736788315,67.26127720011777,-260.12292923867886,66.37933205628146C-265.02510110947463,65.49738691244514,-269.8330348994289,65.1884949017939,-273.43247228070544,64.70961198662296C-277.03190966198196,64.23072907145202,-279.4228506345807,63.58185525176136,-287.7708196506417,57.9265198463001C-296.1187886667028,52.271184440838844,-310.4237857262262,41.60938744960699,-320.6695172661072,35.678727376472075C-330.91524880598826,29.748067303337155,-337.101714826227,28.548544148299182,-348.3917863690397,26.065058003501274C-359.68185791185243,23.581571858703366,-376.0755349772392,19.814122724145523,-395.8121583468623,16.630120890053387C-415.54878171648534,13.446119055961255,-438.62835139034473,10.845564522334826,-450.1681362272745,9.54528725552161L-461.70792106420413,8.245009988708395" />
  </g>
  
  <g class="axis y" stroke="black" fill="none" stroke-dasharray="4 6" transform="translate(20, 80)">
    <path d="M 20,270 h900" />
      <g transform="translate(0, 270)">
      <text text-anchor="middle"
      fill="black"
      stroke="none"
      transform="translate(0, 3)">25%</text>
      <path d="M0,v-5 0" />
      </g><path d="M 20,180 h900" />
      <g transform="translate(0, 180)">
      <text text-anchor="middle"
      fill="black"
      stroke="none"
      transform="translate(0, 3)">50%</text>
      <path d="M0,v-5 0" />
      </g><path d="M 20,90 h900" />
      <g transform="translate(0, 90)">
      <text text-anchor="middle"
      fill="black"
      stroke="none"
      transform="translate(0, 3)">75%</text>
      <path d="M0,v-5 0" />
      </g><path d="M 20,0 h900" />
    <g transform="translate(0, 0)">
    <text text-anchor="middle"
    fill="black"
    stroke="none"
    transform="translate(0, 3)">100%</text>
    <path d="M0,v-5 0" />
    </g>
  </g>
  <g
    class="axis x"
    stroke="black" fill="none"
    transform="translate(20, 440)">
  
  <path d="M0,0 h900" />
  <g transform="translate(829, 0)">
      <text text-anchor="middle"
      fill="black"
      stroke="none"
      transform="translate(0, 12)">Sep</text>
      <path d="M0,0 v-5" />
    </g><g transform="translate(755, 0)">
      <text text-anchor="middle"
      fill="black"
      stroke="none"
      transform="translate(0, 12)">Aug</text>
      <path d="M0,0 v-5" />
    </g><g transform="translate(682, 0)">
      <text text-anchor="middle"
      fill="black"
      stroke="none"
      transform="translate(0, 12)">Jul</text>
      <path d="M0,0 v-5" />
    </g><g transform="translate(610, 0)">
      <text text-anchor="middle"
      fill="black"
      stroke="none"
      transform="translate(0, 12)">Jun</text>
      <path d="M0,0 v-5" />
    </g><g transform="translate(537, 0)">
      <text text-anchor="middle"
      fill="black"
      stroke="none"
      transform="translate(0, 12)">May</text>
      <path d="M0,0 v-5" />
    </g><g transform="translate(465, 0)">
      <text text-anchor="middle"
      fill="black"
      stroke="none"
      transform="translate(0, 12)">Apr</text>
      <path d="M0,0 v-5" />
    </g><g transform="translate(392, 0)">
      <text text-anchor="middle"
      fill="black"
      stroke="none"
      transform="translate(0, 12)">Mar</text>
      <path d="M0,0 v-5" />
    </g><g transform="translate(325, 0)">
      <text text-anchor="middle"
      fill="black"
      stroke="none"
      transform="translate(0, 12)">Feb</text>
      <path d="M0,0 v-5" />
    </g><g transform="translate(252, 0)">
      <text text-anchor="middle"
      fill="black"
      stroke="none"
      transform="translate(0, 12)">Jan ’22</text>
      <path d="M0,0 v-5" />
    </g><g transform="translate(178, 0)">
      <text text-anchor="middle"
      fill="black"
      stroke="none"
      transform="translate(0, 12)">Dec</text>
      <path d="M0,0 v-5" />
    </g><g transform="translate(107, 0)">
      <text text-anchor="middle"
      fill="black"
      stroke="none"
      transform="translate(0, 12)">Nov</text>
      <path d="M0,0 v-5" />
    </g><g transform="translate(33, 0)">
      <text text-anchor="middle"
      fill="black"
      stroke="none"
      transform="translate(0, 12)">Oct</text>
      <path d="M0,0 v-5" />
    </g><g transform="translate(-38, 0)">
      <text text-anchor="middle"
      fill="black"
      stroke="none"
      transform="translate(0, 12)">Sep</text>
      <path d="M0,0 v-5" />
    </g>
  
  </g>
  <g class="legend" transform="translate(20,10)">
    <rect width="18" height="18" style="fill: darkblue; stroke: darkblue;"></rect>
    <text x="22" y="14">TypeScript (by file number)</text>
  </g>
  <g class="legend" transform="translate(20,30)">
    <rect width="18" height="18" style="fill: blue; stroke: blue;"></rect>
    <text x="22" y="14">TypeScript (by file size)</text>
  </g>
  <g class="legend" transform="translate(260,10)">
    <rect width="18" height="18" style="fill: darkorange; stroke: darkorange;"></rect>
    <text x="22" y="14">JavaScript (by file number)</text>
  </g>
  <g class="legend" transform="translate(260,30)">
    <rect width="18" height="18" style="fill: orange; stroke: orange;"></rect>
    <text x="22" y="14">JavaScript (by file size)</text>
  </g>
  <g class="total" transform="translate(570,30)">
    <text x="22" y="14" font-size="35px">82.5% complete</text>
  </g>
</svg>