<svg xmlns="http://www.w3.org/2000/svg"
  viewBox="0 0 900 400"
  width="900"
  height="400">
  <style>
    text {
      font-family: "Courier New", Courier, monospace;
      font-size: 12px;
    }
  </style>
  <g class="lines" fill="none">
    <path stroke="darkblue" d="M858.1377099911583,102.08955223880596L853.4418769305868,104.00451919941679C848.7460438700151,105.91948616002765,839.3543777488721,109.74942008124931,834.0633298582771,112.60147209418295C828.7722819676824,115.45352410711662,827.5818523076356,117.32769421176226,826.604075305635,119.20186431640788C825.6262983036341,121.07603442105354,824.8611739596795,122.95020452569918,816.78087176795,125.65899995334222C808.7005695762203,128.36779538098526,793.305089536716,131.9112161316257,783.9306424602973,133.63451165865257C774.5561953838786,135.35780718567943,771.2027812705456,135.26097748909274,762.1086574239384,136.1432274983299C753.014533577331,137.02547750756708,738.1796999974495,138.8868072226281,730.0585050209424,139.76503848398002C721.9373100444354,140.64326974533193,720.529753671303,140.53840255297473,716.8154559372803,141.06036928726655C713.1011582032579,141.58233602155838,707.0801191083452,142.73113668249925,702.128285224529,144.50018222356127C697.1764513407128,146.26922776462325,693.2938226679929,148.65851818580634,690.7018316592136,150.37293578722202C688.1098406504342,152.08735338863767,686.8084873055951,153.12689817028587,683.7563458031524,154.09743849609572C680.7042043007096,155.06797882190557,675.9012746406629,155.96951469187707,672.5700390013943,157.7943958994953C669.2388033621256,159.61927710711353,667.3792617436351,162.3675036523785,664.3878155145493,164.03246977186336C661.3963692854633,165.69743589134822,657.273018445782,166.27914158505297,654.5489743129236,166.67245416123072C651.8249301800653,167.06576673740852,650.5001927540299,167.27068619605933,648.8501018889285,167.71109705161885C647.2000110238273,168.15150790717837,645.2245667196604,168.8274101596466,642.603304509142,169.26782101520612C639.9820422986239,169.70823187076564,636.7149621817543,169.91315132941645,634.4296964161225,170.11807078806726C632.1444306504909,170.32299024671806,630.840979236097,170.52790970536884,629.5541988631854,171.15671367845536C628.267418490274,171.78551765154188,626.997309158845,172.83820613906406,625.997690313343,173.46701011215055C624.998071467841,174.09581408523707,624.268943108266,174.30073354388787,622.2238828208247,174.92953751697436C620.1788225333833,175.55834149006083,616.8178303180757,176.61102997758303,614.7987453843037,177.66371846510523C612.7796604505317,178.7164069526274,612.1024827982951,179.7690954401496,611.1023159495511,180.39789941323613C610.1021491008071,181.02670338632262,608.7789930555556,181.23162284497343,607.4951914716952,181.43654230362424C606.2113898878347,181.64146176227504,604.9669427653654,181.84638122092585,603.3332724259789,182.4751851940123C601.6996020865923,183.10398916709883,599.6767085302886,184.15667765462103,597.0801416944388,184.65769291379675C594.4835748585889,185.1587081729725,591.313334743193,185.10805020380175,589.092204928416,185.18518094854178C586.871075113639,185.26231169328182,585.5990555994808,185.46723115193262,583.8882812039493,185.97228797322077C582.1775068084178,186.47734479450892,580.0279775315129,187.28253897843447,574.5792534509682,191.9286214407483C569.1305293704233,196.57470390306207,560.3826104862387,205.06167464376418,555.43969731234,209.40761974344062C550.4967841384412,213.75356484311706,549.3588766748283,213.95848430176787,548.4759472910856,214.16340376041867C547.5930179073431,214.36832321906948,546.965066603471,214.5732426777203,546.3327077878098,214.77816213637107C545.7003489721486,214.9830815950219,545.0635826446984,215.18800105367268,544.0311384050024,215.72814639754938C542.9986941653063,216.26829174142605,541.5705720133647,217.14366297052865,538.5719547704267,217.6838083144053C535.5733375274887,218.22395365828197,531.0042251935546,218.42887311693278,528.0246941206727,218.9765516267696C525.0451630477907,219.52423013660643,523.6552132359608,220.41466769762928,522.6354161282278,220.9623462074661C521.6156190204946,221.51002471730294,520.9659746168583,221.71494417595375,518.3398430061043,222.52473254846223C515.7137113953502,223.3345209209707,511.11109257747853,224.74917820733685,508.43481475577545,225.55896657984533C505.7585369340724,226.3687549523538,505.008600108538,226.57367441100462,504.03597042270286,227.38346278351312C503.06334073686776,228.19325115602157,501.8680181907321,229.60790844238772,499.5573172460552,231.25779252858743C497.2466163013784,232.90767661478716,493.8205369581605,234.79278750082037,491.78305868700267,237.03409896945868C489.74558041584487,239.275410438097,489.09670321674713,241.87292248934037,488.4582028504671,243.87228639243563C487.81970248418685,245.87165029553088,487.19157895072436,247.272866050478,486.56349456035053,248.6740818054251C485.93541016997665,250.0752975603722,485.30736492269153,251.4765133153193,479.2443722652973,254.07402536656272C473.1813796079031,256.67153741780606,461.6834395403999,260.4653457653458,453.6514281772143,263.06285781658914C445.61941681402885,265.6603698678325,441.05333415516105,267.06158562277966,435.3832206791698,267.8646532295786C429.7131072031785,268.66772083637755,422.9389629100637,268.87264029502836,416.93982828759437,269.07755975367917C410.940693665125,269.28247921233,405.7165687133011,269.4873986709808,397.98999087133575,270.0434050861533C390.26341302937044,270.59941150132585,380.0343822972636,271.5065048730201,373.5710458714491,273.23280114326514C367.1077094456346,274.95909741351016,364.41006732611254,277.50459658230585,361.42408155790196,278.87980589602915C358.43809578969143,280.2550152097524,355.1637663727924,280.4599346684032,351.93221643754674,282.4202889096627C348.7006665023011,284.3806431509222,345.5118960487089,288.0964321747904,343.52135816953455,290.0567864160499C341.5308202903602,292.01714065730937,340.73851498560384,292.2220601159602,336.9685831795949,292.70087720026623C333.19865137358585,293.17969428457235,326.4510930663243,293.93240899453366,321.4552388649425,294.4112260788397C316.4593846635607,294.8900431631458,313.21523456805863,295.0949626217966,309.94248653194353,296.44527215136935C306.66973849582854,297.7955816809421,303.3683925191004,300.2912812814369,300.09483030674016,301.64159081100973C296.82126809437983,302.9919003405825,293.57548964638744,303.19681979923325,290.56609239681814,303.40173925788406C287.5566951472489,303.60665871653487,284.78367909610284,303.8115781751857,281.43215167964587,304.0164976338365C278.0806242631889,304.2214170924873,274.15058548142105,304.4263365511381,269.51896554912264,304.6312560097889C264.88734561682423,304.8361754684397,259.55414453399527,305.0410949270905,254.50349000841663,305.8187094212023C249.45283548283794,306.5963239153141,244.68472751450952,307.94663344488686,240.01135756379085,308.72424793899864C235.33798761307216,309.50186243311043,230.75935567996328,309.70678189176124,227.39563127706364,310.3735521854612C224.03190687416398,311.0403224791612,221.88309000147365,312.1689436079104,213.7456428145333,317.4665382743703C205.608195627593,322.7641329408301,191.4821181264028,332.23070114500064,181.4368407099458,338.1223747097604C171.39156329348884,344.0140482745201,165.4270859617652,346.33082719986913,154.33192827710897,349.3664016665943C143.23677059245279,352.40197613331947,127.01093255486408,356.1563461414208,107.42441374988664,359.46255320135924C87.8378949449092,362.7687602612976,64.89069537254302,365.62680437307307,53.41709558635993,367.05582642896076L41.943495800176834,368.4848484848485" />
    <path stroke="blue" d="M858.1377099911583,96.88115476007518L853.4418769305868,98.46325781699443C848.7460438700151,100.04536087391368,839.3543777488721,103.20956698775218,834.0633298582771,105.15047078116577C828.7722819676824,107.09137457457932,827.5818523076356,107.80897604756795,826.604075305635,108.38550004783527C825.6262983036341,108.96202404810258,824.8611739596795,109.39747057564858,816.78087176795,112.00338990449558C808.7005695762203,114.60930923334257,793.305089536716,119.38570136349055,783.9306424602973,121.87501917922528C774.5561953838786,124.36433699496001,771.2027812705456,124.56658049628152,762.1086574239384,125.53293755922914C753.014533577331,126.49929462217676,738.1796999974495,128.22976524675053,730.0585050209424,129.12889866125585C721.9373100444354,130.02803207576116,720.529753671303,130.09582828019802,716.8154559372803,130.51059797536826C713.1011582032579,130.92536767053852,707.0801191083452,131.68711085644213,702.128285224529,133.49602856565295C697.1764513407128,135.3049462748638,693.2938226679929,138.1610385073818,690.7018316592136,139.73855482565475C688.1098406504342,141.31607114392773,686.8084873055951,141.61501154795567,683.7563458031524,142.00105427000062C680.7042043007096,142.3870969920455,675.9012746406629,142.8602420321074,672.5700390013943,145.47325641241002C669.2388033621256,148.08627079271267,667.3792617436351,152.83915451325603,664.3878155145493,155.41766581715106C661.3963692854633,157.9961771210461,657.273018445782,158.40031600829278,654.5489743129236,158.72608942556397C651.8249301800653,159.05186284283516,650.5001927540299,159.2992707901309,648.8501018889285,159.63499807470015C647.2000110238273,159.9707253592694,645.2245667196604,160.3947719811122,642.603304509142,160.71283569935346C639.9820422986239,161.0308994175947,636.7149621817543,161.24298023223437,634.4296964161225,161.4444393926661C632.1444306504909,161.64589855309782,630.840979236097,161.83673605932162,629.5541988631854,162.0678512898381C628.267418490274,162.29896652035458,626.997309158845,162.57035947516377,625.997690313343,162.8083552733464C624.998071467841,163.046351071529,624.268943108266,163.25094971308496,622.2238828208247,163.5218736277913C620.1788225333833,163.79279754249765,616.8178303180757,164.13004673035434,614.7987453843037,164.441298107854C612.7796604505317,164.7525494853537,612.1024827982951,165.0378030524964,611.1023159495511,165.2859743665065C610.1021491008071,165.53414568051662,608.7789930555556,165.7452347413941,607.4951914716952,165.99730748912324C606.2113898878347,166.24938023685237,604.9669427653654,166.54243667143317,603.3332724259789,167.48766981375417C601.6996020865923,168.43290295607514,599.6767085302886,170.03031280613632,597.0801416944388,171.62870119669105C594.4835748585889,173.22708958724579,591.313334743193,174.826456518294,589.092204928416,175.72849738114328C586.871075113639,176.63053824399256,585.5990555994808,176.8352530386429,583.8882812039493,178.21448234576997C582.1775068084178,179.593711652897,580.0279775315129,182.1474554725008,574.5792534509682,186.55328710896802C569.1305293704233,190.95911874543526,560.3826104862387,197.21703819876598,555.43969731234,200.45128898636017C550.4967841384412,203.68553977395436,549.3588766748283,203.89612189581203,548.4759472910856,204.1786147496753C547.5930179073431,204.46110760353852,546.965066603471,204.81551118940732,546.3327077878098,205.0982575127805C545.7003489721486,205.3810038361536,545.0635826446984,205.5920928970311,544.0311384050024,205.92958048013108C542.9986941653063,206.267068063231,541.5705720133647,206.73095416855335,538.5719547704267,209.34548632269852C535.5733375274887,211.96001847684366,531.0042251935546,216.72519667981155,528.0246941206727,219.26597919129495C525.0451630477907,221.80676170277832,523.6552132359608,222.12314852277714,522.6354161282278,222.38688646321532C521.6156190204946,222.6506244036535,520.9659746168583,222.861713464531,518.3398430061043,223.76961072004337C515.7137113953502,224.67750797555573,511.11109257747853,226.28221342570305,508.43481475577545,227.2155233548954C505.7585369340724,228.14883328408783,505.008600108538,228.41074769232534,504.03597042270286,228.8103034232013C503.06334073686776,229.20985915407732,501.8680181907321,229.74705620759178,499.5573172460552,230.7933394278568C497.2466163013784,231.83962264812178,493.8205369581605,233.39499203513728,491.78305868700267,234.47039441418065C489.74558041584487,235.5457967932241,489.09670321674713,236.14123216429547,488.4582028504671,236.6931899963579C487.81970248418685,237.2451478284203,487.19157895072436,237.75362812147387,486.56349456035053,238.28127275815163C485.93541016997665,238.80891739482936,485.30736492269153,239.3557263751314,479.2443722652973,240.58501190225306C473.1813796079031,241.8142974293747,461.6834395403999,243.72605950331595,453.6514281772143,245.82275674636114C445.61941681402885,247.91945398940626,441.05333415516105,250.20108640155527,435.3832206791698,251.44776454352396C429.7131072031785,252.69444268549265,422.9389629100637,252.90616655728093,416.93982828759437,253.1130422387098C410.940693665125,253.31991792013864,405.7165687133011,253.521945411208,397.98999087133575,253.82957363018497C390.26341302937044,254.13720184916193,380.0343822972636,254.5504307960465,373.5710458714491,255.81763328405816C367.1077094456346,257.0848357720698,364.41006732611254,259.2060118012086,361.42408155790196,260.37880448138884C358.43809578969143,261.55159716156913,355.1637663727924,261.7760064927908,351.93221643754674,264.58032314426197C348.7006665023011,267.3846397957331,345.5118960487089,272.7688637674535,343.52135816953455,275.5290914620141C341.5308202903602,278.28931915657466,340.73851498560384,278.4255505739752,336.9685831795949,278.61026022454274C333.19865137358585,278.7949698751104,326.4510930663243,279.028157758845,321.4552388649425,279.4620749623452C316.4593846635607,279.8959921658455,313.21523456805863,280.53063868911136,309.94248653194353,284.37926285893525C306.66973849582854,288.22788702875914,303.3683925191004,295.29048884514106,300.09483030674016,299.0649927721244C296.82126809437983,302.8394966991077,293.57548964638744,303.3259027366925,290.56609239681814,303.76059212547807C287.5566951472489,304.1952815142637,284.78367909610284,304.57825425425006,281.43215167964587,304.875285154682C278.0806242631889,305.1723160551139,274.15058548142105,305.3834051159914,269.51896554912264,305.5917794986394C264.88734561682423,305.8001538812875,259.55414453399527,306.0058135857061,254.50349000841663,306.8698651204289C249.45283548283794,307.73391665515175,244.68472751450952,309.2563600201789,240.01135756379085,310.173913966844C235.33798761307216,311.091467913509,230.75935567996328,311.4041324418121,227.39563127706364,311.8962318137748C224.03190687416398,312.38833118573757,221.88309000147365,313.05986540135996,213.7456428145333,319.01599795751804C205.608195627593,324.97213051367606,191.4821181264028,336.2128614103697,181.4368407099458,342.4596144490722C171.39156329348884,348.7063674877747,165.4270859617652,349.959142668486,154.33192827710897,352.56721211616605C143.23677059245279,355.1752815638461,127.01093255486408,359.138645278495,107.42441374988664,362.48614795376346C87.8378949449092,365.83365062903187,64.89069537254302,368.56529226491983,53.41709558635993,369.9311130828639L41.943495800176834,371.2969339008078" />
    
    <path stroke="darkorange" d="M858.1377099911583,277.910447761194L853.4418769305868,275.9954808005832C848.7460438700151,274.08051383997235,839.3543777488721,270.2505799187507,834.0633298582771,267.39852790581705C828.7722819676824,264.5464758928834,827.5818523076356,262.6723057882378,826.604075305635,260.79813568359214C825.6262983036341,258.9239655789465,824.8611739596795,257.0497954743009,816.78087176795,254.3410000466578C808.7005695762203,251.63220461901474,793.305089536716,248.08878386837432,783.9306424602973,246.3654883413474C774.5561953838786,244.64219281432054,771.2027812705456,244.73902251090726,762.1086574239384,243.8567725016701C753.014533577331,242.97452249243292,738.1796999974495,241.11319277737186,730.0585050209424,240.23496151601998C721.9373100444354,239.35673025466804,720.529753671303,239.46159744702527,716.8154559372803,238.93963071273345C713.1011582032579,238.41766397844162,707.0801191083452,237.26886331750075,702.128285224529,235.49981777643873C697.1764513407128,233.73077223537675,693.2938226679929,231.34148181419366,690.7018316592136,229.62706421277798C688.1098406504342,227.91264661136233,686.8084873055951,226.8731018297141,683.7563458031524,225.90256150390428C680.7042043007096,224.93202117809446,675.9012746406629,224.03048530812293,672.5700390013943,222.20560410050473C669.2388033621256,220.3807228928865,667.3792617436351,217.63249634762153,664.3878155145493,215.96753022813664C661.3963692854633,214.3025641086518,657.273018445782,213.720858414947,654.5489743129236,213.32754583876923C651.8249301800653,212.93423326259145,650.5001927540299,212.72931380394064,648.8501018889285,212.28890294838115C647.2000110238273,211.84849209282163,645.2245667196604,211.17258984035337,642.603304509142,210.73217898479388C639.9820422986239,210.29176812923433,636.7149621817543,210.08684867058355,634.4296964161225,209.88192921193274C632.1444306504909,209.67700975328194,630.840979236097,209.47209029463113,629.5541988631854,208.84328632154464C628.267418490274,208.21448234845812,626.997309158845,207.16179386093594,625.997690313343,206.53298988784945C624.998071467841,205.90418591476293,624.268943108266,205.69926645611213,622.2238828208247,205.0704624830257C620.1788225333833,204.44165850993917,616.8178303180757,203.38897002241697,614.7987453843037,202.33628153489477C612.7796604505317,201.2835930473726,612.1024827982951,200.2309045598504,611.1023159495511,199.60210058676387C610.1021491008071,198.97329661367735,608.7789930555556,198.76837715502654,607.4951914716952,198.56345769637574C606.2113898878347,198.35853823772493,604.9669427653654,198.15361877907412,603.3332724259789,197.52481480598763C601.6996020865923,196.89601083290117,599.6767085302886,195.84332234537897,597.0801416944388,195.34230708620325C594.4835748585889,194.8412918270275,591.313334743193,194.89194979619825,589.092204928416,194.81481905145822C586.871075113639,194.73768830671816,585.5990555994808,194.53276884806735,583.8882812039493,194.0277120267792C582.1775068084178,193.52265520549102,580.0279775315129,192.71746102156553,574.5792534509682,188.0713785592517C569.1305293704233,183.42529609693793,560.3826104862387,174.93832535623582,555.43969731234,170.59238025655938C550.4967841384412,166.24643515688294,549.3588766748283,166.04151569823213,548.4759472910856,165.83659623958133C547.5930179073431,165.63167678093052,546.965066603471,165.4267573222797,546.3327077878098,165.2218378636289C545.7003489721486,165.0169184049781,545.0635826446984,164.81199894632732,544.0311384050024,164.27185360245062C542.9986941653063,163.73170825857395,541.5705720133647,162.85633702947135,538.5719547704267,162.31619168559467C535.5733375274887,161.776046341718,531.0042251935546,161.5711268830672,528.0246941206727,161.02344837323037C525.0451630477907,160.47576986339354,523.6552132359608,159.5853323023707,522.6354161282278,159.03765379253386C521.6156190204946,158.48997528269703,520.9659746168583,158.28505582404625,518.3398430061043,157.47526745153777C515.7137113953502,156.6654790790293,511.11109257747853,155.25082179266312,508.43481475577545,154.44103342015464C505.7585369340724,153.63124504764616,505.008600108538,153.42632558899538,504.03597042270286,152.6165372164869C503.06334073686776,151.80674884397843,501.8680181907321,150.39209155761225,499.5573172460552,148.74220747141257C497.2466163013784,147.09232338521284,493.8205369581605,145.2072124991796,491.78305868700267,142.9659010305413C489.74558041584487,140.724589561903,489.09670321674713,138.12707751065957,488.4582028504671,136.12771360756435C487.81970248418685,134.12834970446912,487.19157895072436,132.72713394952203,486.56349456035053,131.32591819457494C485.93541016997665,129.92470243962782,485.30736492269153,128.5234866846807,479.2443722652973,125.92597463343732C473.1813796079031,123.32846258219392,461.6834395403999,119.53465423465423,453.6514281772143,116.93714218341086C445.61941681402885,114.33963013216744,441.05333415516105,112.93841437722035,435.3832206791698,112.1353467704214C429.7131072031785,111.33227916362245,422.9389629100637,111.12735970497165,416.93982828759437,110.92244024632085C410.940693665125,110.71752078767004,405.7165687133011,110.51260132901923,397.98999087133575,109.9565949138467C390.26341302937044,109.40058849867415,380.0343822972636,108.49349512697988,373.5710458714491,106.76719885673486C367.1077094456346,105.04090258648985,364.41006732611254,102.49540341769413,361.42408155790196,101.12019410397086C358.43809578969143,99.7449847902476,355.1637663727924,99.5400653315968,351.93221643754674,97.5797110903373C348.7006665023011,95.6193568490778,345.5118960487089,91.9035678252096,343.52135816953455,89.94321358395011C341.5308202903602,87.98285934269062,340.73851498560384,87.77793988403981,336.9685831795949,87.29912279973375C333.19865137358585,86.8203057154277,326.4510930663243,86.06759100546638,321.4552388649425,85.58877392116032C316.4593846635607,85.10995683685427,313.21523456805863,84.90503737820347,309.94248653194353,83.55472784863069C306.66973849582854,82.2044183190579,303.3683925191004,79.7087187185631,300.09483030674016,78.35840918899032C296.82126809437983,77.00809965941754,293.57548964638744,76.80318020076673,290.56609239681814,76.59826074211593C287.5566951472489,76.39334128346512,284.78367909610284,76.18842182481433,281.43215167964587,75.98350236616352C278.0806242631889,75.77858290751271,274.15058548142105,75.57366344886192,269.51896554912264,75.36874399021112C264.88734561682423,75.16382453156031,259.55414453399527,74.9589050729095,254.50349000841663,74.18129057879771C249.45283548283794,73.40367608468593,244.68472751450952,72.05336655511314,240.01135756379085,71.27575206100136C235.33798761307216,70.49813756688955,230.75935567996328,70.29321810823875,227.39563127706364,69.62644781453876C224.03190687416398,68.95967752083877,221.88309000147365,67.8310563920896,213.7456428145333,62.533461725629756C205.608195627593,57.2358670591699,191.4821181264028,47.769298854999384,181.4368407099458,41.87762529023964C171.39156329348884,35.98595172547989,165.4270859617652,33.669172800130916,154.33192827710897,30.633598333405747C143.23677059245279,27.598023866680588,127.01093255486408,23.843653858579234,107.42441374988664,20.53744679864083C87.8378949449092,17.231239738702424,64.89069537254302,14.373195626926963,53.41709558635993,12.944173571039235L41.943495800176834,11.515151515151503" />
    <path stroke="orange" d="M858.1377099911583,283.11884523992484L853.4418769305868,281.5367421830056C848.7460438700151,279.9546391260863,839.3543777488721,276.79043301224783,834.0633298582771,274.8495292188343C828.7722819676824,272.90862542542067,827.5818523076356,272.1910239524321,826.604075305635,271.61449995216475C825.6262983036341,271.0379759518974,824.8611739596795,270.6025294243514,816.78087176795,267.9966100955044C808.7005695762203,265.3906907666574,793.305089536716,260.61429863650943,783.9306424602973,258.12498082077474C774.5561953838786,255.63566300504,771.2027812705456,255.4334195037185,762.1086574239384,254.46706244077086C753.014533577331,253.50070537782324,738.1796999974495,251.77023475324947,730.0585050209424,250.87110133874413C721.9373100444354,249.97196792423884,720.529753671303,249.90417171980198,716.8154559372803,249.48940202463174C713.1011582032579,249.07463232946148,707.0801191083452,248.31288914355787,702.128285224529,246.50397143434702C697.1764513407128,244.6950537251362,693.2938226679929,241.8389614926182,690.7018316592136,240.26144517434525C688.1098406504342,238.68392885607227,686.8084873055951,238.38498845204433,683.7563458031524,237.9989457299994C680.7042043007096,237.6129030079545,675.9012746406629,237.1397579678926,672.5700390013943,234.52674358758998C669.2388033621256,231.91372920728736,667.3792617436351,227.16084548674394,664.3878155145493,224.58233418284894C661.3963692854633,222.0038228789539,657.273018445782,221.59968399170725,654.5489743129236,221.27391057443603C651.8249301800653,220.94813715716487,650.5001927540299,220.70072920986914,648.8501018889285,220.36500192529988C647.2000110238273,220.0292746407306,645.2245667196604,219.60522801888774,642.603304509142,219.2871643006465C639.9820422986239,218.96910058240528,636.7149621817543,218.75701976776563,634.4296964161225,218.5555606073339C632.1444306504909,218.35410144690218,630.840979236097,218.16326394067838,629.5541988631854,217.9321487101619C628.267418490274,217.70103347964542,626.997309158845,217.42964052483623,625.997690313343,217.1916447266536C624.998071467841,216.953648928471,624.268943108266,216.74905028691504,622.2238828208247,216.47812637220872C620.1788225333833,216.20720245750238,616.8178303180757,215.86995326964572,614.7987453843037,215.55870189214602C612.7796604505317,215.2474505146463,612.1024827982951,214.96219694750357,611.1023159495511,214.7140256334935C610.1021491008071,214.46585431948336,608.7789930555556,214.25476525860586,607.4951914716952,214.00269251087676C606.2113898878347,213.7506197631476,604.9669427653654,213.45756332856683,603.3332724259789,212.5123301862459C601.6996020865923,211.56709704392492,599.6767085302886,209.9696871938637,597.0801416944388,208.37129880330897C594.4835748585889,206.77291041275427,591.313334743193,205.17354348170602,589.092204928416,204.27150261885672C586.871075113639,203.36946175600744,585.5990555994808,203.1647469613571,583.8882812039493,201.78551765423003C582.1775068084178,200.406288347103,580.0279775315129,197.8525445274992,574.5792534509682,193.44671289103198C569.1305293704233,189.0408812545647,560.3826104862387,182.782961801234,555.43969731234,179.5487110136398C550.4967841384412,176.3144602260456,549.3588766748283,176.10387810418794,548.4759472910856,175.8213852503247C547.5930179073431,175.53889239646148,546.965066603471,175.18448881059268,546.3327077878098,174.9017424872195C545.7003489721486,174.6189961638464,545.0635826446984,174.4079071029689,544.0311384050024,174.07041951986892C542.9986941653063,173.732931936769,541.5705720133647,173.26904583144665,538.5719547704267,170.65451367730148C535.5733375274887,168.03998152315634,531.0042251935546,163.27480332018845,528.0246941206727,160.73402080870505C525.0451630477907,158.19323829722168,523.6552132359608,157.87685147722286,522.6354161282278,157.61311353678468C521.6156190204946,157.3493755963465,520.9659746168583,157.138286535469,518.3398430061043,156.23038927995663C515.7137113953502,155.32249202444424,511.11109257747853,153.71778657429695,508.43481475577545,152.78447664510455C505.7585369340724,151.85116671591214,505.008600108538,151.58925230767463,504.03597042270286,151.18969657679864C503.06334073686776,150.79014084592265,501.8680181907321,150.25294379240816,499.5573172460552,149.2066605721432C497.2466163013784,148.16037735187822,493.8205369581605,146.60500796486275,491.78305868700267,145.52960558581933C489.74558041584487,144.45420320677593,489.09670321674713,143.85876783570458,488.4582028504671,143.30681000364214C487.81970248418685,142.7548521715797,487.19157895072436,142.24637187852616,486.56349456035053,141.71872724184837C485.93541016997665,141.1910826051706,485.30736492269153,140.6442736248686,479.2443722652973,139.41498809774694C473.1813796079031,138.1857025706253,461.6834395403999,136.27394049668405,453.6514281772143,134.17724325363892C445.61941681402885,132.08054601059376,441.05333415516105,129.79891359844473,435.3832206791698,128.55223545647604C429.7131072031785,127.30555731450737,422.9389629100637,127.09383344271906,416.93982828759437,126.8869577612902C410.940693665125,126.68008207986135,405.7165687133011,126.47805458879196,397.98999087133575,126.17042636981499C390.26341302937044,125.86279815083803,380.0343822972636,125.44956920395349,373.5710458714491,124.18236671594182C367.1077094456346,122.91516422793018,364.41006732611254,120.7939881987914,361.42408155790196,119.62119551861116C358.43809578969143,118.44840283843091,355.1637663727924,118.22399350720917,351.93221643754674,115.41967685573805C348.7006665023011,112.61536020426693,345.5118960487089,107.23113623254642,343.52135816953455,104.4709085379859C341.5308202903602,101.71068084342538,340.73851498560384,101.57444942602483,336.9685831795949,101.38973977545724C333.19865137358585,101.20503012488967,326.4510930663243,100.97184224115506,321.4552388649425,100.5379250376548C316.4593846635607,100.10400783415453,313.21523456805863,99.4693613108886,309.94248653194353,95.62073714106474C306.66973849582854,91.77211297124084,303.3683925191004,84.70951115485896,300.09483030674016,80.93500722787563C296.82126809437983,77.1605033008923,293.57548964638744,76.67409726330749,290.56609239681814,76.2394078745219C287.5566951472489,75.80471848573632,284.78367909610284,75.42174574574993,281.43215167964587,75.124714845318C278.0806242631889,74.82768394488608,274.15058548142105,74.61659488400858,269.51896554912264,74.40822050136053C264.88734561682423,74.1998461187125,259.55414453399527,73.99418641429389,254.50349000841663,73.13013487957103C249.45283548283794,72.26608334484818,244.68472751450952,70.74363997982108,240.01135756379085,69.82608603315602C235.33798761307216,68.90853208649095,230.75935567996328,68.59586755818792,227.39563127706364,68.10376818622518C224.03190687416398,67.61166881426244,221.88309000147365,66.94013459864003,213.7456428145333,60.98400204248198C205.608195627593,55.027869486323915,191.4821181264028,43.78713858963024,181.4368407099458,37.54038555092776C171.39156329348884,31.293632512225283,165.4270859617652,30.040857331514022,154.33192827710897,27.43278788383395C143.23677059245279,24.82471843615387,127.01093255486408,20.86135472150497,107.42441374988664,17.513852046236543C87.8378949449092,14.166349370968115,64.89069537254302,11.434707735080158,53.41709558635993,10.068886917136178L41.943495800176834,8.703066099192199" />
  </g>
  
  <g class="axis y" stroke="black" fill="none" stroke-dasharray="4 6">
    <path d="M 0,285 h900" /><path d="M 0,190 h900" /><path d="M 0,95 h900" />
  </g>
  <g
    class="axis x"
    stroke="black" fill="none"
    transform="translate(0, 380)">
  
  <path d="M0,0 h900" />
  <g transform="translate(833, 0)">
      <text text-anchor="middle"
      fill="black"
      stroke="none"
      transform="translate(0, 12)">Feb</text>
      <path d="M0,0 v-5" />
    </g><g transform="translate(759, 0)">
      <text text-anchor="middle"
      fill="black"
      stroke="none"
      transform="translate(0, 12)">Jan ’22</text>
      <path d="M0,0 v-5" />
    </g><g transform="translate(685, 0)">
      <text text-anchor="middle"
      fill="black"
      stroke="none"
      transform="translate(0, 12)">Dec</text>
      <path d="M0,0 v-5" />
    </g><g transform="translate(614, 0)">
      <text text-anchor="middle"
      fill="black"
      stroke="none"
      transform="translate(0, 12)">Nov</text>
      <path d="M0,0 v-5" />
    </g><g transform="translate(540, 0)">
      <text text-anchor="middle"
      fill="black"
      stroke="none"
      transform="translate(0, 12)">Oct</text>
      <path d="M0,0 v-5" />
    </g><g transform="translate(468, 0)">
      <text text-anchor="middle"
      fill="black"
      stroke="none"
      transform="translate(0, 12)">Sep</text>
      <path d="M0,0 v-5" />
    </g><g transform="translate(394, 0)">
      <text text-anchor="middle"
      fill="black"
      stroke="none"
      transform="translate(0, 12)">Aug</text>
      <path d="M0,0 v-5" />
    </g><g transform="translate(320, 0)">
      <text text-anchor="middle"
      fill="black"
      stroke="none"
      transform="translate(0, 12)">Jul</text>
      <path d="M0,0 v-5" />
    </g><g transform="translate(248, 0)">
      <text text-anchor="middle"
      fill="black"
      stroke="none"
      transform="translate(0, 12)">Jun</text>
      <path d="M0,0 v-5" />
    </g><g transform="translate(174, 0)">
      <text text-anchor="middle"
      fill="black"
      stroke="none"
      transform="translate(0, 12)">May</text>
      <path d="M0,0 v-5" />
    </g><g transform="translate(103, 0)">
      <text text-anchor="middle"
      fill="black"
      stroke="none"
      transform="translate(0, 12)">Apr</text>
      <path d="M0,0 v-5" />
    </g><g transform="translate(29, 0)">
      <text text-anchor="middle"
      fill="black"
      stroke="none"
      transform="translate(0, 12)">Mar</text>
      <path d="M0,0 v-5" />
    </g><g transform="translate(-38, 0)">
      <text text-anchor="middle"
      fill="black"
      stroke="none"
      transform="translate(0, 12)">Feb</text>
      <path d="M0,0 v-5" />
    </g>
  
  </g>
</svg>