<svg xmlns="http://www.w3.org/2000/svg"
  viewBox="0 0 900 400"
  width="900"
  height="400">
  <style>
    text {
      font-family: "Courier New", Courier, monospace;
      font-size: 12px;
    }
  </style>
  <g class="lines" fill="none">
    <path stroke="darkblue" d="M870.5128563596492,101.15107913669065L858.0661174242426,101.38529228424342C845.6193784888359,101.61950543179618,820.7259006180224,102.08793172690169,803.5927464405569,104.23591489715965C786.4595922630915,106.38389806741759,777.0867617789739,110.21143811282798,771.7821762235845,113.06109624995035C766.4775906681951,115.9107543870727,765.2412500415338,117.78253061590705,764.2158832361444,119.65430684474141C763.1905164307549,121.52608307357575,762.3761234466374,123.3978593024101,754.3043040188064,126.10426085424184C746.2324845909756,128.81066240607362,730.9032387194311,132.35168928090278,721.5474913402112,134.07259093211837C712.1917439609914,135.79349258333397,708.8094950740962,135.69426901093595,699.7318578465575,136.57412514436183C690.6542206190192,137.4539812777877,675.8811950508374,139.31291711703747,667.7688056760035,140.1887545025781C659.6564163011695,141.0645918881187,658.2046631196837,140.95733081995022,654.4643796933148,141.47690367843074C650.7240962669458,141.99647653691127,644.6952825956938,143.1428833220409,639.7272330417663,144.90953498729158C634.759183487839,146.67618665254227,630.8518980512362,149.0630831979141,628.2250610338583,150.77510692351848C625.5982240164807,152.48713064912283,624.251835418328,153.52428155495977,621.168480674342,154.49242800495833C618.0851259303562,155.46057445495688,613.264805040537,156.3597164491171,609.9045595344896,158.18220378092403C606.5443140284423,160.00469111273097,604.644143906167,162.75052378218464,601.6210052623272,164.4130960258582C598.5978666184875,166.07566826953177,594.4517594530835,166.65498008742523,591.6939118362906,167.04589878779174C588.9360642194976,167.43681748815823,587.5664761513158,167.63934307099774,585.8741032238504,168.07736005074597C584.1817302963849,168.5153770304942,582.1665725096359,169.18888540715116,579.5106953789541,169.6269023868994C576.8548182482722,170.06491936664762,573.5582217736577,170.26744494948713,571.2356884843501,170.46997053232664C568.9131551950426,170.67249611516615,567.564685091042,170.87502169800567,566.2327544150385,171.50143179528087C564.900823739035,172.12784189255612,563.5854324910287,173.17813650426697,562.5383962777445,173.80454660154223C561.4913600644604,174.43095669881743,560.7126788858985,174.63348228165694,558.6284547157429,175.25989237893214C556.5442305455874,175.88630247620736,553.1544633838383,176.93659708791824,551.0960094987705,177.98689169962915C549.0375556137028,179.03718631134007,548.3104150053164,180.08748092305098,547.2628351151317,180.71389102032617C546.2152552249469,181.3403011176014,544.8472360529639,181.54282670044094,543.5182606492557,181.74535228328045C542.1892852455476,181.94787786611997,540.8993536101143,182.15040344895945,539.2232715726342,182.77681354623465C537.5471895351542,183.4032236435099,535.4849570956272,184.45351825522076,532.8535803761297,184.95213963858524C530.2222036566321,185.45076102194966,527.0216826571638,185.39770917696765,524.7627789822568,185.4724460458964C522.5038753073499,185.54718291482513,521.1865889570043,185.74970849766464,519.4340115796119,186.25237144314156C517.6814342022195,186.75503438861838,515.4935657977804,187.5578346967326,510.0325488644671,192.20152328323516C504.5715319311537,196.84521186973768,495.83736646896597,205.32978873462852,490.8781671982988,209.67333995849367C485.9189679276316,214.01689118235882,484.73473484848483,214.2194167651983,483.8034668643674,214.42194234803785C482.8721988802499,214.62446793087733,482.1938959911616,214.82699351371684,481.51122038643007,215.0295190965564C480.82854478169855,215.2320446793959,480.1414964613238,215.4345702622354,479.06189400169455,215.9723217303008C477.9822915420654,216.5100731983662,476.5101349431818,217.38305055165748,473.47988189875736,217.92080201972286C470.4496288543328,218.45855348778824,465.86127936436736,218.66107907062778,462.84996180970893,219.2063637046533C459.83864425505044,219.75164833867885,458.40435863569905,220.63969202389043,457.3373034622541,221.18497665791594C456.2702482888091,221.73026129194147,455.5704235612706,221.932786874781,452.9097154729864,222.7401813714782C450.2490073847023,223.54757586817536,445.62741593567245,224.95983927873021,442.9169575275784,225.76723377542746C440.2064991194843,226.5746282721246,439.4071737523259,226.77715385496413,438.3869136263955,227.5845483516613C437.36665350046513,228.39194284835852,436.12545861576285,229.80420625891338,433.77769095145527,231.45169646930182C431.4299232871477,233.0991866796902,427.9755828432349,234.98190368991217,425.89888083133974,237.22082128273917C423.82217881944445,239.45973887556622,423.1231152395667,242.05485705099832,422.4343465701422,244.0518270782823C421.7455779007177,246.04879710556622,421.06710414174637,247.44761898470202,420.38866921683945,248.84644086383787C419.71023429193247,250.24526274297364,419.03183820108984,251.6440846221095,412.96140217969156,254.23920279754157C406.89096615829345,256.83432097297367,395.42849020633975,260.6257354447021,387.40458036366954,263.2208536201342C379.38067052099944,265.8159717955663,374.79532678761296,267.2147936747021,369.11466826986975,268.0154674056898C363.43400975212654,268.81614113667746,356.6580364500266,269.01866671951694,350.65095432117226,269.2211923023565C344.64387219231793,269.423717885196,339.4056812367092,269.6262434680355,331.68479359798647,270.1798560073967C323.9639059592637,270.73346854675805,313.7603216374269,271.638168042641,307.2927024563065,273.36207043707475C300.82508327518605,275.08597283150846,298.09342923478204,277.6290781244929,295.07570794291604,279.00189356240486C292.05798665105,280.37470900031684,288.75419810772195,280.5772345831563,285.4928513132974,282.53519494860456C282.2315045188729,284.4931553140528,279.01259947335194,288.20655046210965,276.98246727139815,290.1645108275579C274.9523350694444,292.12247119300605,274.11097571105796,292.3249967758456,270.3154974290604,292.8014199843404C266.5200191470627,293.2778431928351,259.770421941454,294.02816402698517,254.75869959878386,294.50458723547996C249.74697725611375,294.98101044397475,246.47312977638225,295.18353602681424,243.17091012925303,296.5314516805757C239.86869048212384,297.87936733433725,236.53809866759698,300.37267305902066,233.23507127192977,301.7205887127822C229.93204387626258,303.0685043665437,226.65658089945507,303.27102994938326,223.6156329537148,303.47355553222275C220.5746850079745,303.67608111506223,217.7682520933014,303.8786066979017,214.38787500830674,304.08113228074126C211.00749792331206,304.2836578635808,207.0531766679957,304.4861834464203,202.40281306070574,304.6887090292598C197.7524494534157,304.89123461209937,192.40604349415204,305.09376019493885,187.33995346142342,305.8689808132393C182.27386342869485,306.64420143153984,177.48808932250134,307.9921170853013,172.79630530219967,308.7673377036018C168.10452128189795,309.54255832190233,163.50672734748807,309.7450839047419,160.1142495680489,310.40946032263054C156.7217717886098,311.07383674051925,154.5346101641414,312.20006399345715,146.40609688579877,317.4952647841057C138.27758360745614,322.79046557475425,124.20771867523922,332.2546399031135,114.1864369849814,338.143919592062C104.16515529472355,344.0331992810104,98.19245684642476,346.34758433054805,87.12958341640085,349.380764921462C76.06670998637692,352.4139455123759,59.913661574627845,356.16592164466596,40.4264640857589,359.46973482879304C20.939266596889947,362.7735480129202,-1.8820799690988845,365.6291982488844,-13.2927532520933,367.0570233668664L-24.703426535087715,368.4848484848485" />
    <path stroke="blue" d="M870.5128563596492,95.26738691240206L858.0661174242426,95.60056067074227C845.6193784888359,95.93373442908246,820.7259006180224,96.6000819457629,803.5927464405569,98.51437087717012C786.4595922630915,100.42865980857736,777.0867617789739,103.59089015471143,771.7821762235845,105.52981818042053C766.4775906681951,107.46874620612965,765.2412500415338,108.18437191141383,764.2158832361444,108.75892014397668C763.1905164307549,109.33346837653956,762.3761234466374,109.7669391363811,754.3043040188064,112.37088269752364C746.2324845909756,114.97482625866617,730.9032387194311,119.74924262110972,721.5474913402112,122.23658466913999C712.1917439609914,124.72392671717029,708.8094950740962,124.92419445078731,699.7318578465575,125.8885757460305C690.6542206190192,126.85295704127368,675.8811950508374,128.581451898143,667.7688056760035,129.47860954494385C659.6564163011695,130.3757671917447,658.2046631196837,130.44158762847712,654.4643796933148,130.85438155594292C650.7240962669458,131.2671754834087,644.6952825956938,132.0269429016079,639.7272330417663,133.83388484311425C634.759183487839,135.6408267846206,630.8518980512362,138.49494324943416,628.2250610338583,140.07048380000268C625.5982240164807,141.64602435057122,624.251835418328,141.94298898689473,621.168480674342,142.3270559412352C618.0851259303562,142.71112289557564,613.264805040537,143.18229216793307,609.9045595344896,145.79333078053125C606.5443140284423,148.40436939312943,604.644143906167,153.15527734596836,601.6210052623272,155.73181288215892C598.5978666184875,158.3083484183495,594.4517594530835,158.71051153789173,591.6939118362906,159.0343091874585C588.9360642194976,159.35810683702525,587.5664761513158,159.6035390166165,585.8741032238504,159.93729053348133C584.1817302963849,160.27104205034613,582.1665725096359,160.69311290448448,579.5106953789541,161.00920085502128C576.8548182482722,161.32528880555807,573.5582217736577,161.53539385249329,571.2356884843501,161.73487724522056C568.9131551950426,161.93436063794783,567.564685091042,162.12322237646717,566.2327544150385,162.35236183927918C564.900823739035,162.5815013020912,563.5854324910287,162.85091848919595,562.5383962777445,163.0869385196741C561.4913600644604,163.32295855015226,560.7126788858985,163.5255814240038,558.6284547157429,163.79452957100568C556.5442305455874,164.06347771800756,553.1544633838383,164.39875113815978,551.0960094987705,164.70802674795502C549.0375556137028,165.01730235775025,548.3104150053164,165.30058015718853,547.2628351151317,165.54677570349418C546.2152552249469,165.79297124979982,544.8472360529639,166.00208454297285,543.5182606492557,166.25218152299752C542.1892852455476,166.5022785030222,540.8993536101143,166.79335916989854,539.2232715726342,167.7366165445151C537.5471895351542,168.67987391913164,535.4849570956272,170.27530800148836,532.8535803761297,171.87172062433865C530.2222036566321,173.46813324718892,527.0216826571638,175.0655244105327,524.7627789822568,175.96558950567757C522.5038753073499,176.86565460082238,521.1865889570043,177.06839362776824,519.4340115796119,178.44564716719083C517.6814342022195,179.82290070661347,515.4935657977804,182.37466875851274,510.0325488644671,186.77852462727557C504.5715319311537,191.18238049603838,495.83736646896597,197.43832418166463,490.8781671982988,200.67059920155432C485.9189679276316,203.9028742214441,484.73473484848483,204.1114805755973,483.8034668643674,204.3919976617561C482.8721988802499,204.67251474791487,482.1938959911616,205.02494256607926,481.51122038643007,205.30571312174797C480.82854478169855,205.58648367741662,480.1414964613238,205.79559697058968,479.06189400169455,206.13110878598516C477.9822915420654,206.46662060138064,476.5101349431818,206.92853093899853,473.47988189875736,209.54108732543924C470.4496288543328,212.15364371187994,465.86127936436736,216.9168461471434,462.84996180970893,219.45565289092232C459.83864425505044,221.99445963470123,458.40435863569905,222.30887068699562,457.3373034622541,222.57063285972936C456.2702482888091,222.83239503246304,455.5704235612706,223.0415083256361,452.9097154729864,223.94742981344402C450.2490073847023,224.853351301252,445.62741593567245,226.45608098369482,442.9169575275784,227.38741514518276C440.2064991194843,228.31874930667072,439.4071737523259,228.57868794720378,438.3869136263955,228.9762679103753C437.36665350046513,229.37384787354685,436.12545861576285,229.90906915935685,433.77769095145527,230.95337661191738C431.4299232871477,231.9976840644779,427.9755828432349,233.55107768378898,425.89888083133974,234.62450429512793C423.82217881944445,235.6979309064669,423.1231152395667,236.2913905098338,422.4343465701422,236.84137257419175C421.7455779007177,237.39135463854976,421.06710414174637,237.89785916389883,420.38866921683945,238.42352803287216C419.71023429193247,238.9491969018455,419.03183820108984,239.49403011444306,412.96140217969156,240.72133987386027C406.89096615829345,241.94864963327743,395.42849020633975,243.85843593951424,387.40458036366954,245.95315741485493C379.38067052099944,248.04787889019562,374.79532678761296,250.32753553464022,369.11466826986975,251.57223790890444C363.43400975212654,252.81694028316863,356.6580364500266,253.0266883872525,350.65095432117226,253.2315883009769C344.64387219231793,253.43648821470128,339.4056812367092,253.63653993806625,331.68479359798647,253.94219238933874C323.9639059592637,254.24784484061126,313.7603216374269,254.65909801979137,307.2927024563065,255.92432474009857C300.82508327518605,257.18955146040577,298.09342923478204,259.3087517218401,295.07570794291604,260.4795686343159C292.05798665105,261.6503855467917,288.75419810772195,261.87281911030897,285.4928513132974,264.6751599940756C282.2315045188729,267.4775008778423,279.01259947335194,272.85974908185835,276.98246727139815,275.61800100871443C274.9523350694444,278.3762529355705,274.11097571105796,278.5105085852666,270.3154974290604,278.6932424681297C266.5200191470627,278.87597635099286,259.770421941454,279.10718846702304,254.75869959878386,279.5391299028188C249.74697725611375,279.97107133861465,246.47312977638225,280.6037420941761,243.17091012925303,284.45039049629554C239.86869048212384,288.297038898415,236.53809866759698,295.3576649470924,233.23507127192977,299.13019310637134C229.93204387626258,302.9027212656502,226.65658089945507,303.38715153553056,223.6156329537148,303.8198651566117C220.5746850079745,304.2525787776928,217.7682520933014,304.6335757499747,214.38787500830674,304.9286308827022C211.00749792331206,305.2236860154297,207.0531766679957,305.4327993086027,202.40281306070574,305.6391979235463C197.7524494534157,305.8455965384899,192.40604349415204,306.04928047520406,187.33995346142342,306.91135624222244C182.27386342869485,307.7734320092408,177.48808932250134,309.29389960656346,172.79630530219967,310.2094777855241C168.10452128189795,311.1250559644847,163.50672734748807,311.43574472508334,160.1142495680489,311.9258683293416C156.7217717886098,312.41599193359986,154.5346101641414,313.08555038151786,146.40609688579877,319.03970716997145C138.27758360745614,324.99386395842504,124.20771867523922,336.2326190874143,114.1864369849814,342.4773963584123C104.16515529472355,348.7221736294103,98.19245684642476,349.97297304241715,87.12958341640085,352.5790667223928C76.06670998637692,355.1851604023684,59.913661574627845,359.1465483493128,40.4264640857589,362.49207525687683C20.939266596889947,365.8376021644408,-1.8820799690988845,368.56726803262427,-13.2927532520933,369.93210096671606L-24.703426535087715,371.2969339008078" />
    
    <path stroke="darkorange" d="M870.5128563596492,278.84892086330933L858.0661174242426,278.61470771575654C845.6193784888359,278.3804945682038,820.7259006180224,277.91206827309827,803.5927464405569,275.7640851028403C786.4595922630915,273.61610193258235,777.0867617789739,269.78856188717197,771.7821762235845,266.93890375004963C766.4775906681951,264.0892456129273,765.2412500415338,262.21746938409296,764.2158832361444,260.34569315525863C763.1905164307549,258.47391692642424,762.3761234466374,256.6021406975899,754.3043040188064,253.89573914575817C746.2324845909756,251.1893375939264,730.9032387194311,247.64831071909725,721.5474913402112,245.92740906788165C712.1917439609914,244.20650741666608,708.8094950740962,244.30573098906405,699.7318578465575,243.42587485563817C690.6542206190192,242.54601872221227,675.8811950508374,240.68708288296253,667.7688056760035,239.81124549742194C659.6564163011695,238.9354081118813,658.2046631196837,239.04266918004978,654.4643796933148,238.52309632156926C650.7240962669458,238.00352346308873,644.6952825956938,236.8571166779591,639.7272330417663,235.09046501270845C634.759183487839,233.32381334745773,630.8518980512362,230.9369168020859,628.2250610338583,229.22489307648155C625.5982240164807,227.5128693508772,624.251835418328,226.47571844504026,621.168480674342,225.50757199504173C618.0851259303562,224.53942554504314,613.264805040537,223.64028355088294,609.9045595344896,221.81779621907597C606.5443140284423,219.99530888726903,604.644143906167,217.24947621781538,601.6210052623272,215.5869039741418C598.5978666184875,213.9243317304682,594.4517594530835,213.3450199125747,591.6939118362906,212.95410121220823C588.9360642194976,212.56318251184175,587.5664761513158,212.3606569290022,585.8741032238504,211.92263994925403C584.1817302963849,211.48462296950575,582.1665725096359,210.81111459284884,579.5106953789541,210.3730976131006C576.8548182482722,209.93508063335238,573.5582217736577,209.73255505051284,571.2356884843501,209.53002946767333C568.9131551950426,209.32750388483382,567.564685091042,209.12497830199428,566.2327544150385,208.49856820471913C564.900823739035,207.87215810744388,563.5854324910287,206.82186349573297,562.5383962777445,206.19545339845777C561.4913600644604,205.56904330118257,560.7126788858985,205.36651771834306,558.6284547157429,204.74010762106786C556.5442305455874,204.11369752379264,553.1544633838383,203.06340291208176,551.0960094987705,202.01310830037085C549.0375556137028,200.96281368865993,548.3104150053164,199.912519076949,547.2628351151317,199.2861089796738C546.2152552249469,198.6596988823986,544.8472360529639,198.45717329955906,543.5182606492557,198.25464771671955C542.1892852455476,198.05212213388003,540.8993536101143,197.8495965510405,539.2232715726342,197.2231864537653C537.5471895351542,196.5967763564901,535.4849570956272,195.5464817447792,532.8535803761297,195.04786036141476C530.2222036566321,194.5492389780503,527.0216826571638,194.60229082303235,524.7627789822568,194.52755395410358C522.5038753073499,194.45281708517484,521.1865889570043,194.25029150233533,519.4340115796119,193.74762855685844C517.6814342022195,193.24496561138162,515.4935657977804,192.4421653032674,510.0325488644671,187.79847671676484C504.5715319311537,183.15478813026232,495.83736646896597,174.67021126537153,490.8781671982988,170.32666004150636C485.9189679276316,165.9831088176412,484.73473484848483,165.7805832348017,483.8034668643674,165.57805765196215C482.8721988802499,165.37553206912267,482.1938959911616,165.17300648628313,481.51122038643007,164.97048090344362C480.82854478169855,164.7679553206041,480.1414964613238,164.56542973776462,479.06189400169455,164.0276782696992C477.9822915420654,163.4899268016338,476.5101349431818,162.61694944834252,473.47988189875736,162.07919798027712C470.4496288543328,161.5414465122117,465.86127936436736,161.33892092937222,462.84996180970893,160.7936362953467C459.83864425505044,160.24835166132115,458.40435863569905,159.36030797610957,457.3373034622541,158.81502334208403C456.2702482888091,158.2697387080585,455.5704235612706,158.067213125219,452.9097154729864,157.2598186285218C450.2490073847023,156.45242413182464,445.62741593567245,155.04016072126976,442.9169575275784,154.23276622457254C440.2064991194843,153.4253717278754,439.4071737523259,153.22284614503585,438.3869136263955,152.41545164833863C437.36665350046513,151.60805715164148,436.12545861576285,150.1957937410866,433.77769095145527,148.54830353069818C431.4299232871477,146.9008133203098,427.9755828432349,145.01809631008783,425.89888083133974,142.7791787172608C423.82217881944445,140.54026112443378,423.1231152395667,137.94514294900168,422.4343465701422,135.9481729217177C421.7455779007177,133.95120289443378,421.06710414174637,132.55238101529798,420.38866921683945,131.15355913616216C419.71023429193247,129.75473725702633,419.03183820108984,128.3559153778905,412.96140217969156,125.76079720245842C406.89096615829345,123.16567902702631,395.42849020633975,119.3742645552979,387.40458036366954,116.7791463798658C379.38067052099944,114.18402820443369,374.79532678761296,112.78520632529789,369.11466826986975,111.98453259431022C363.43400975212654,111.18385886332256,356.6580364500266,110.98133328048306,350.65095432117226,110.77880769764356C344.64387219231793,110.57628211480403,339.4056812367092,110.3737565319645,331.68479359798647,109.82014399260326C323.9639059592637,109.26653145324201,313.7603216374269,108.361831957359,307.2927024563065,106.6379295629253C300.82508327518605,104.91402716849159,298.09342923478204,102.37092187550714,295.07570794291604,100.99810643759515C292.05798665105,99.62529099968317,288.75419810772195,99.42276541684367,285.4928513132974,97.46480505139546C282.2315045188729,95.50684468594726,279.01259947335194,91.79344953789034,276.98246727139815,89.83548917244212C274.9523350694444,87.87752880699391,274.11097571105796,87.67500322415441,270.3154974290604,87.19858001565963C266.5200191470627,86.72215680716488,259.770421941454,85.97183597301485,254.75869959878386,85.4954127645201C249.74697725611375,85.01898955602532,246.47312977638225,84.8164639731858,243.17091012925303,83.4685483194243C239.86869048212384,82.1206326656628,236.53809866759698,79.6273269409793,233.23507127192977,78.2794112872178C229.93204387626258,76.9314956334563,226.65658089945507,76.72897005061678,223.6156329537148,76.52644446777727C220.5746850079745,76.32391888493775,217.7682520933014,76.12139330209824,214.38787500830674,75.91886771925873C211.00749792331206,75.71634213641921,207.0531766679957,75.5138165535797,202.40281306070574,75.31129097074019C197.7524494534157,75.10876538790068,192.40604349415204,74.90623980506116,187.33995346142342,74.13101918676065C182.27386342869485,73.35579856846016,177.48808932250134,72.00788291469865,172.79630530219967,71.23266229639816C168.10452128189795,70.45744167809765,163.50672734748807,70.25491609525814,160.1142495680489,69.59053967736943C156.7217717886098,68.92616325948073,154.5346101641414,67.79993600654285,146.40609688579877,62.50473521589429C138.27758360745614,57.20953442524573,124.20771867523922,47.74536009688651,114.1864369849814,41.856080407938045C104.16515529472355,35.96680071898958,98.19245684642476,33.6524156694519,87.12958341640085,30.619235078538022C76.06670998637692,27.586054487624143,59.913661574627845,23.834078355334082,40.4264640857589,20.530265171206967C20.939266596889947,17.226451987079848,-1.8820799690988845,14.370801751115676,-13.2927532520933,12.94297663313359L-24.703426535087715,11.515151515151503" />
    <path stroke="orange" d="M870.5128563596492,284.73261308759794L858.0661174242426,284.39943932925775C845.6193784888359,284.06626557091755,820.7259006180224,283.3999180542371,803.5927464405569,281.48562912282983C786.4595922630915,279.5713401914226,777.0867617789739,276.4091098452886,771.7821762235845,274.47018181957947C766.4775906681951,272.53125379387035,765.2412500415338,271.81562808858615,764.2158832361444,271.2410798560233C763.1905164307549,270.66653162346046,762.3761234466374,270.2330608636189,754.3043040188064,267.62911730247635C746.2324845909756,265.02517374133384,730.9032387194311,260.2507573788903,721.5474913402112,257.76341533086C712.1917439609914,255.27607328282974,708.8094950740962,255.07580554921267,699.7318578465575,254.11142425396952C690.6542206190192,253.1470429587263,675.8811950508374,251.418548101857,667.7688056760035,250.52139045505612C659.6564163011695,249.6242328082553,658.2046631196837,249.55841237152288,654.4643796933148,249.14561844405708C650.7240962669458,248.7328245165913,644.6952825956938,247.97305709839213,639.7272330417663,246.16611515688578C634.759183487839,244.3591732153794,630.8518980512362,241.5050567505658,628.2250610338583,239.92951619999727C625.5982240164807,238.35397564942878,624.251835418328,238.05701101310524,621.168480674342,237.67294405876478C618.0851259303562,237.28887710442436,613.264805040537,236.81770783206693,609.9045595344896,234.20666921946875C606.5443140284423,231.59563060687057,604.644143906167,226.84472265403164,601.6210052623272,224.26818711784108C598.5978666184875,221.6916515816505,594.4517594530835,221.28948846210827,591.6939118362906,220.96569081254154C588.9360642194976,220.6418931629748,587.5664761513158,220.39646098338355,585.8741032238504,220.06270946651873C584.1817302963849,219.7289579496539,582.1665725096359,219.30688709551555,579.5106953789541,218.99079914497875C576.8548182482722,218.67471119444193,573.5582217736577,218.46460614750671,571.2356884843501,218.26512275477947C568.9131551950426,218.06563936205217,567.564685091042,217.87677762353283,566.2327544150385,217.64763816072082C564.900823739035,217.4184986979088,563.5854324910287,217.14908151080405,562.5383962777445,216.91306148032587C561.4913600644604,216.67704144984774,560.7126788858985,216.47441857599622,558.6284547157429,216.20547042899432C556.5442305455874,215.93652228199244,553.1544633838383,215.60124886184022,551.0960094987705,215.29197325204498C549.0375556137028,214.98269764224972,548.3104150053164,214.69941984281147,547.2628351151317,214.45322429650582C546.2152552249469,214.20702875020015,544.8472360529639,213.99791545702712,543.5182606492557,213.74781847700243C542.1892852455476,213.49772149697776,540.8993536101143,213.20664083010146,539.2232715726342,212.26338345548493C537.5471895351542,211.3201260808684,535.4849570956272,209.72469199851164,532.8535803761297,208.12827937566138C530.2222036566321,206.5318667528111,527.0216826571638,204.93447558946733,524.7627789822568,204.0344104943225C522.5038753073499,203.13434539917762,521.1865889570043,202.93160637223176,519.4340115796119,201.55435283280917C517.6814342022195,200.17709929338653,515.4935657977804,197.62533124148726,510.0325488644671,193.22147537272443C504.5715319311537,188.81761950396162,495.83736646896597,182.56167581833537,490.8781671982988,179.32940079844568C485.9189679276316,176.0971257785559,484.73473484848483,175.8885194244027,483.8034668643674,175.60800233824386C482.8721988802499,175.3274852520851,482.1938959911616,174.97505743392074,481.51122038643007,174.69428687825203C480.82854478169855,174.41351632258338,480.1414964613238,174.20440302941032,479.06189400169455,173.86889121401484C477.9822915420654,173.53337939861936,476.5101349431818,173.07146906100147,473.47988189875736,170.45891267456076C470.4496288543328,167.84635628812006,465.86127936436736,163.0831538528566,462.84996180970893,160.54434710907768C459.83864425505044,158.00554036529877,458.40435863569905,157.69112931300435,457.3373034622541,157.42936714027064C456.2702482888091,157.16760496753693,455.5704235612706,156.9584916743639,452.9097154729864,156.05257018655595C450.2490073847023,155.146648698748,445.62741593567245,153.54391901630518,442.9169575275784,152.61258485481721C440.2064991194843,151.68125069332928,439.4071737523259,151.4213120527962,438.3869136263955,151.02373208962467C437.36665350046513,150.62615212645312,436.12545861576285,150.0909308406431,433.77769095145527,149.0466233880826C431.4299232871477,148.0023159355221,427.9755828432349,146.44892231621102,425.89888083133974,145.37549570487207C423.82217881944445,144.3020690935331,423.1231152395667,143.7086094901662,422.4343465701422,143.15862742580822C421.7455779007177,142.60864536145024,421.06710414174637,142.10214083610114,420.38866921683945,141.57647196712784C419.71023429193247,141.0508030981545,419.03183820108984,140.50596988555694,412.96140217969156,139.27866012613978C406.89096615829345,138.05135036672257,395.42849020633975,136.14156406048576,387.40458036366954,134.04684258514507C379.38067052099944,131.95212110980438,374.79532678761296,129.6724644653598,369.11466826986975,128.42776209109556C363.43400975212654,127.18305971683135,356.6580364500266,126.97331161274748,350.65095432117226,126.76841169902309C344.64387219231793,126.56351178529867,339.4056812367092,126.36346006193374,331.68479359798647,126.05780761066124C323.9639059592637,125.75215515938872,313.7603216374269,125.34090198020863,307.2927024563065,124.07567525990142C300.82508327518605,122.81044853959422,298.09342923478204,120.69124827815989,295.07570794291604,119.52043136568409C292.05798665105,118.3496144532083,288.75419810772195,118.12718088969102,285.4928513132974,115.32484000592437C282.2315045188729,112.52249912215768,279.01259947335194,107.14025091814165,276.98246727139815,104.38199899128556C274.9523350694444,101.6237470644295,274.11097571105796,101.4894914147334,270.3154974290604,101.30675753187028C266.5200191470627,101.12402364900714,259.770421941454,100.89281153297698,254.75869959878386,100.46087009718117C249.74697725611375,100.02892866138536,246.47312977638225,99.3962579058239,243.17091012925303,95.54960950370446C239.86869048212384,91.70296110158502,236.53809866759698,84.6423350529076,233.23507127192977,80.86980689362872C229.93204387626258,77.09727873434984,226.65658089945507,76.61284846446948,223.6156329537148,76.18013484338836C220.5746850079745,75.74742122230721,217.7682520933014,75.36642425002528,214.38787500830674,75.0713691172978C211.00749792331206,74.77631398457032,207.0531766679957,74.56720069139728,202.40281306070574,74.36080207645368C197.7524494534157,74.15440346151009,192.40604349415204,73.95071952479594,187.33995346142342,73.08864375777755C182.27386342869485,72.22656799075914,177.48808932250134,70.7061003934365,172.79630530219967,69.79052221447587C168.10452128189795,68.87494403551527,163.50672734748807,68.56425527491668,160.1142495680489,68.0741316706584C156.7217717886098,67.58400806640013,154.5346101641414,66.91444961848215,146.40609688579877,60.96029283002855C138.27758360745614,55.006136041574955,124.20771867523922,43.767380912585715,114.1864369849814,37.522603641587686C104.16515529472355,31.27782637058967,98.19245684642476,30.02702695758286,87.12958341640085,27.420933277607237C76.06670998637692,24.814839597631607,59.913661574627845,20.853451650687166,40.4264640857589,17.507924743123187C20.939266596889947,14.162397835559213,-1.8820799690988845,11.432731967375707,-13.2927532520933,10.067899033283952L-24.703426535087715,8.703066099192199" />
  </g>
  
  <g class="axis y" stroke="black" fill="none" stroke-dasharray="4 6">
    <path d="M 0,285 h900" /><path d="M 0,190 h900" /><path d="M 0,95 h900" />
  </g>
  <g
    class="axis x"
    stroke="black" fill="none"
    transform="translate(0, 380)">
  
  <path d="M0,0 h900" />
  <g transform="translate(827, 0)">
      <text text-anchor="middle"
      fill="black"
      stroke="none"
      transform="translate(0, 12)">Mar</text>
      <path d="M0,0 v-5" />
    </g><g transform="translate(760, 0)">
      <text text-anchor="middle"
      fill="black"
      stroke="none"
      transform="translate(0, 12)">Feb</text>
      <path d="M0,0 v-5" />
    </g><g transform="translate(687, 0)">
      <text text-anchor="middle"
      fill="black"
      stroke="none"
      transform="translate(0, 12)">Jan ’22</text>
      <path d="M0,0 v-5" />
    </g><g transform="translate(613, 0)">
      <text text-anchor="middle"
      fill="black"
      stroke="none"
      transform="translate(0, 12)">Dec</text>
      <path d="M0,0 v-5" />
    </g><g transform="translate(542, 0)">
      <text text-anchor="middle"
      fill="black"
      stroke="none"
      transform="translate(0, 12)">Nov</text>
      <path d="M0,0 v-5" />
    </g><g transform="translate(469, 0)">
      <text text-anchor="middle"
      fill="black"
      stroke="none"
      transform="translate(0, 12)">Oct</text>
      <path d="M0,0 v-5" />
    </g><g transform="translate(398, 0)">
      <text text-anchor="middle"
      fill="black"
      stroke="none"
      transform="translate(0, 12)">Sep</text>
      <path d="M0,0 v-5" />
    </g><g transform="translate(324, 0)">
      <text text-anchor="middle"
      fill="black"
      stroke="none"
      transform="translate(0, 12)">Aug</text>
      <path d="M0,0 v-5" />
    </g><g transform="translate(251, 0)">
      <text text-anchor="middle"
      fill="black"
      stroke="none"
      transform="translate(0, 12)">Jul</text>
      <path d="M0,0 v-5" />
    </g><g transform="translate(180, 0)">
      <text text-anchor="middle"
      fill="black"
      stroke="none"
      transform="translate(0, 12)">Jun</text>
      <path d="M0,0 v-5" />
    </g><g transform="translate(107, 0)">
      <text text-anchor="middle"
      fill="black"
      stroke="none"
      transform="translate(0, 12)">May</text>
      <path d="M0,0 v-5" />
    </g><g transform="translate(36, 0)">
      <text text-anchor="middle"
      fill="black"
      stroke="none"
      transform="translate(0, 12)">Apr</text>
      <path d="M0,0 v-5" />
    </g><g transform="translate(-38, 0)">
      <text text-anchor="middle"
      fill="black"
      stroke="none"
      transform="translate(0, 12)">Mar</text>
      <path d="M0,0 v-5" />
    </g>
  
  </g>
</svg>