<svg xmlns="http://www.w3.org/2000/svg"
  viewBox="0 0 900 460"
  width="900"
  height="460">
  <style>
    text {
      font-family: "Courier New", Courier, monospace;
    }
    .legend {
      font-size: 12px;
    }
  </style>
  <g class="lines" fill="none" transform="translate(20, 80)">>
    <path stroke="darkblue" d="M822.6535910087719,49.999999999999986L819.9087640807747,51.34289424860852C817.1639371527777,52.68578849721706,811.6742832967835,55.37157699443412,800.0467424707603,57.40372151657865C788.4192016447369,59.43586603872317,770.6537738486842,60.81436658579514,760.9856756396199,61.895563246277526C751.3175774305555,62.9767599067599,749.7468088084794,63.760652680652676,737.1685479532163,64.86618492618491C724.5902870979531,65.97171717171717,701.004534009503,67.39888888888889,681.7273698739035,68.95423520923521C662.4502057383041,70.50958152958152,647.4816305555555,72.19310245310245,637.1144920047515,73.4213380000614C626.7473534539473,74.64957354702035,620.9816515350877,75.42252371741733,607.6646502741228,76.68263194252556C594.3476490131578,77.94274016763377,573.4793484100877,79.69000644745324,553.8751626187865,80.8644235135817C534.2709768274854,82.03884057971014,515.9309058479531,82.64040843214757,491.8528300255848,84.79034193988683C467.7747542032164,86.94027544762609,437.9586735380117,90.6385746106672,410.4915916392544,92.71337413085284C383.0245097404971,94.78817365103846,357.90642660818713,95.2394735283686,340.54866716922515,97.28193255058004C323.1909077302632,99.32439157279144,313.5934719846491,102.95800973988408,308.06428116776317,105.66521346754598C302.5350903508772,108.37241719520789,301.0741444627193,110.15320648343904,299.82417239583333,111.9339957716702C298.57420032894737,113.71478505990136,297.53520208333333,115.49557434813251,289.23877739400587,118.06706131078226C280.94235270467834,120.638548273432,265.3885015716374,124.00073291050035,255.80814893092102,125.63858838835581C246.22779629020465,127.2764438662113,242.62094214181286,127.1899701848539,233.3186996527778,128.03104569848756C224.01645716374273,128.87212121212121,209.01882633406433,130.6407459207459,200.68183169773388,131.47801419954092C192.3448370614035,132.3152824783359,190.66847861842106,132.2211943273012,186.70358993055552,132.7209488436182C182.73870124269004,133.22070335993521,176.48528230994148,134.314300543604,171.29262749451755,135.99549814001907C166.09997267909355,137.6766957364341,161.96808198099416,139.9454937455955,159.1166397021199,141.57493855708245C156.2651974232456,143.2043833685694,154.6942035635965,144.19447498238196,151.38624355811402,145.1191939538213C148.07828355263158,146.04391292526066,143.03335740131578,146.90325925432683,139.4485066337719,148.6373537980057C135.86365586622804,150.37144834168456,133.73888048245612,152.98029109997614,130.49113657711987,154.5628871391076C127.24339267178362,156.14548317823906,122.87268024488304,156.70183249821045,119.89022736659355,157.0797041278931C116.9077744883041,157.45757575757577,115.31358115862572,157.6569696969697,113.39660296966376,158.07946074922452C111.47962478070177,158.50195180147935,109.23986173245613,159.14753996659508,106.35937934027778,159.5700310188499C103.47889694809942,159.99252207110473,99.95769521198831,160.19191601049866,97.41055666118422,160.39130994989262C94.86341811038012,160.59070388928657,93.29034274488303,160.7900978286805,91.73380680738303,161.39106657122406C90.17727086988305,161.9920353137676,88.63727436038012,162.99457885946074,87.3656328855994,163.5955476020043C86.09399141081872,164.19651634454783,85.09070497076024,164.3959102839418,82.78187553910819,164.99687902648532C80.47304610745614,165.59784776902885,76.85867368421053,166.60039131472197,74.5756145376462,167.60293486041516C72.29255539108188,168.6054784061083,71.34080952119884,169.60802195180148,70.06862436951754,170.20899069434503C68.79643921783627,170.8099594368886,67.20381478435672,171.00935337628252,65.65023411915205,171.2087473156765C64.09665345394735,171.4081412550704,62.58211655701755,171.60753519446436,60.68142925804094,172.2085039370079C58.780741959064336,172.80947267955142,56.49390425804095,173.8120162252446,53.63792227704679,174.29192197566215C50.781940296052646,174.7718277260797,47.35681403508772,174.72909568122165,44.87330509868422,174.8074266284896C42.38979616228071,174.88575757575754,40.84790455043861,175.08515151515147,38.870721911549715,175.56888611388607C36.893539272660824,176.05262071262072,34.481065606725146,176.82069597069597,28.795443411915205,181.2275074925075C23.109821217105264,185.634319014319,14.151050493421048,193.6798667998668,8.967245961257307,197.80233766233766C3.7834414290935654,201.92480852480853,2.3746030884502933,202.12420246420245,1.2187298428362592,202.3235964035964C0.06285659722222488,202.52299034299037,-0.840051553362572,202.7223842823843,-1.7473324195906412,202.92177822177823C-2.6546132858187104,203.12117216117215,-3.566266867690052,203.3205661005661,-4.870474588815786,203.83754245754247C-6.174682309941519,204.3545188145188,-7.871444170321645,205.18907758907758,-11.1263024762427,205.7060539460539C-14.381160782163752,206.22303030303033,-19.194115533625734,206.42242424242423,-22.430038349780702,206.9465372829418C-25.66596116593567,207.47065032345935,-27.32485204678362,208.31948246510046,-28.616512481725135,208.84359550561803C-29.908172916666654,209.36770854613553,-30.832602905701744,209.5671024855295,-33.71791625548244,210.33953013278858C-36.603229605263145,211.11195778004767,-41.44942631578946,212.45741913517193,-44.3844899853801,213.22984678243105C-47.31955365497075,214.00227442969015,-48.34348428362572,214.2016683690841,-49.58834967105263,214.9740960163432C-50.83321505847953,215.7465236636023,-52.29901520467836,217.0919850187266,-54.87138813048245,218.66029281579844C-57.44376105628655,220.22860061287028,-61.122706761695916,222.0197548518897,-63.424014035087716,224.1483622744297C-65.72532130847954,226.2769696969697,-66.64899014985379,228.7430303030303,-67.56236408077484,230.64242424242423C-68.4757380116959,232.54181818181814,-69.37881703216375,233.87454545454543,-70.28185721856727,235.20727272727274C-71.18489740497077,236.53999999999996,-72.08789875730994,237.87272727272725,-78.38294004020467,240.33878787878788C-84.6779813230994,242.80484848484846,-96.3650625365497,246.40424242424243,-104.61357764071636,248.87030303030303C-112.86209274488301,251.33636363636364,-117.67204173976607,252.6690909090909,-123.57730551900583,253.4351515151515C-129.4825692982456,254.20121212121208,-136.48314786184207,254.40060606060604,-142.71483525219296,254.6C-148.94652264254384,254.7993939393939,-154.40931885964912,254.99878787878785,-162.35481175986843,255.53079051383398C-170.30030466008773,256.0627931488801,-180.72849424342107,256.92740447957834,-187.420718686038,258.5681027667984C-194.11294312865493,260.20880105401847,-197.06920243055552,262.6255862977602,-200.31152898391812,263.9336758893281C-203.55385553728067,265.24176548089594,-207.08224934210523,265.4411594202898,-210.5682013980263,267.30359683794467C-214.05415345394735,269.16603425559947,-217.49766376096488,272.69151515151515,-219.7524012244152,274.55395256916995C-222.00713868786548,276.41638998682475,-223.07310330774854,276.61578392621874,-227.09318685124268,277.0746598267597C-231.11327039473682,277.5335357273008,-238.08747286184212,278.2518935889889,-243.3238004660088,278.7107694895299C-248.56012807017544,279.1696453900709,-252.05858081140352,279.3690393294649,-255.58540572002926,280.65353965183755C-259.11223062865497,281.9380399742102,-262.66742770467835,284.30764667956157,-266.1950603618421,285.5921470019342C-269.7226930190059,286.87664732430693,-273.2227612573099,287.0760412637008,-276.4883144645468,287.2754352030948C-279.7538676717836,287.4748291424887,-282.7849058479532,287.67422308188264,-286.38988819444444,287.8736170212766C-289.99487054093566,288.0730109606705,-294.1737970577485,288.2724049000645,-299.04876592653505,288.4717988394584C-303.92373479532165,288.67119277885234,-309.4947460160818,288.87058671824633,-314.785441310307,289.61253384912965C-320.07613660453217,290.35448098001297,-325.0865159722223,291.6389813023856,-330.0029052540205,292.3809284332689C-334.9192945358188,293.1228755641522,-339.7416937317251,293.3222695035461,-343.3587767726608,293.95920633930245C-346.9758598135965,294.5961431750588,-349.38762669956145,295.67062290717746,-357.7407452394006,300.6946565171274C-366.0938637792398,305.71869012707725,-380.3883339729532,314.69227761485826,-390.63422092470756,320.27912281267123C-400.880107876462,325.86596801048415,-407.0774115862573,328.066070918329,-418.36489027777776,330.9471380232671C-429.65236896929827,333.8282051282051,-446.0300226425439,337.39023643023637,-465.74182539290933,340.52769230769223C-485.4536281432749,343.66514818514815,-508.4995799707603,346.37802863802864,-520.0225558845029,347.7344688644689L-531.5455317982456,349.0909090909091" />
    <path stroke="blue" d="M822.6535910087719,32.83148356947824L819.9087640807747,33.6811286385763C817.1639371527777,34.53077370767436,811.6742832967835,36.23006384587048,800.0467424707603,37.6377909312324C788.4192016447369,39.045518016594315,770.6537738486842,40.16168204912203,760.9856756396199,41.28784692262164C751.3175774305555,42.41401179612125,749.7468088084794,43.55017751059275,737.1685479532163,45.577850879421824C724.5902870979531,47.6055242482509,701.004534009503,50.52470527143756,681.7273698739035,53.16692586917694C662.4502057383041,55.809146466916324,647.4816305555555,58.174406639208435,637.1144920047515,59.52088790205182C626.7473534539473,60.86736916489519,620.9816515350877,61.19507151828983,607.6646502741228,62.561669027394885C594.3476490131578,63.928266536499954,573.4793484100877,66.33375920131544,553.8751626187865,67.7818469934699C534.2709768274854,69.22993478562435,515.9309058479531,69.72061770511776,491.8528300255848,72.8275194742351C467.7747542032164,75.93442124335245,437.9586735380117,81.65754186209371,410.4915916392544,84.84199463913266C383.0245097404971,88.0264474161716,357.90642660818713,88.67223235150823,340.54866716922515,90.50027757448079C323.1909077302632,92.32832279745334,313.5934719846491,95.33862830806186,308.06428116776317,97.19001583089933C302.5350903508772,99.04140335373684,301.0741444627193,99.73387288880332,299.82417239583333,100.29269008129172C298.57420032894737,100.85150727378014,297.53520208333333,101.27667212369049,289.23877739400587,103.758074364307C280.94235270467834,106.23947660492354,265.3885015716374,110.77711623624627,255.80814893092102,113.14805388549331C246.22779629020465,115.51899153474032,242.62094214181286,115.72322720191164,233.3186996527778,116.65135992746563C224.01645716374273,117.5794926530196,209.01882633406433,119.23152243695624,200.68183169773388,120.09596960082801C192.3448370614035,120.96041676469979,190.66847861842106,121.0372813085067,186.70358993055552,121.44285758037684C182.73870124269004,121.84843385224697,176.48528230994148,122.58272185218033,171.29262749451755,124.30906992682576C166.09997267909355,126.03541800147116,161.96808198099416,128.75382615082867,159.1166397021199,130.26095185511193C156.2651974232456,131.76807755939518,154.6942035635965,132.0639208186042,151.38624355811402,132.44228206330297C148.07828355263158,132.82064330800173,143.03335740131578,133.28152253819027,139.4485066337719,135.7696464065016C135.86365586622804,138.25777027481294,133.73888048245612,142.77313878124713,130.49113657711987,145.22857552454073C127.24339267178362,147.68401226783433,122.87268024488304,148.0795172479874,119.89022736659355,148.40078125658476C116.9077744883041,148.72204526518215,115.31358115862572,148.9690683022238,113.39660296966376,149.29976229036666C111.47962478070177,149.63045627850957,109.23986173245613,150.0448212177537,106.35937934027778,150.3587813009543C103.47889694809942,150.67274138415485,99.95769521198831,150.8862966113118,97.41055666118422,151.0897892186928C94.86341811038012,151.2932818260738,93.29034274488303,151.48671181367888,91.73380680738303,151.71829964535073C90.17727086988305,151.94988747702254,88.63727436038012,152.2196331527612,87.3656328855994,152.45773941695882C86.09399141081872,152.69584568115644,85.09070497076024,152.90231253381307,82.78187553910819,153.17161385577C80.47304610745614,153.440915177727,76.85867368421053,153.77305096898428,74.5756145376462,154.0805572556928C72.29255539108188,154.3880635424014,71.34080952119884,154.67094032456123,70.06862436951754,154.91868655112177C68.79643921783627,155.1664327776823,67.20381478435672,155.37904844864352,65.65023411915205,155.6304907703063C64.09665345394735,155.88193309196905,62.58211655701755,156.1722020643334,60.68142925804094,157.08032265455685C58.780741959064336,157.9884432447803,56.49390425804095,159.51441545286292,53.63792227704679,161.04131469930783C50.781940296052646,162.56821394575275,47.35681403508772,164.09604023055996,44.87330509868422,164.96324181917865C42.38979616228071,165.83044340779736,40.84790455043861,166.03702030022757,38.870721911549715,167.35629515184624C36.893539272660824,168.67557000346494,34.481065606725146,171.10754281427214,28.795443411915205,175.2941251357921C23.109821217105264,179.48070745731198,14.151050493421048,185.42189928954463,8.967245961257307,188.4985629121322C3.7834414290935654,191.57522653471975,2.3746030884502933,191.78736194766222,1.2187298428362592,192.06762331724153C0.06285659722222488,192.34788468682078,-0.840051553362572,192.69627201303695,-1.7473324195906412,192.97677351162562C-2.6546132858187104,193.25727501021433,-3.566266867690052,193.46989068117554,-4.870474588815786,193.80225232055798C-6.174682309941519,194.13461395994045,-7.871444170321645,194.5867215677442,-11.1263024762427,197.07628332706426C-14.381160782163752,199.56584508638426,-19.194115533625734,204.09286099722058,-22.430038349780702,206.51255467401901C-25.66596116593567,208.93224835081733,-27.32485204678362,209.24461979357775,-28.616512481725135,209.50711335043854C-29.908172916666654,209.76960690729936,-30.832602905701744,209.98222257826055,-33.71791625548244,210.8549723283496C-36.603229605263145,211.72772207843855,-41.44942631578946,213.2606059076554,-44.3844899853801,214.15743082228332C-47.31955365497075,215.0542557369113,-48.34348428362572,215.31502173695046,-49.58834967105263,215.70618477948923C-50.83321505847953,216.09734782202793,-52.29901520467836,216.6189079070663,-54.87138813048245,217.6227601500788C-57.44376105628655,218.62661239309134,-61.122706761695916,220.112756794078,-63.424014035087716,221.14419560856484C-65.72532130847954,222.17563442305163,-66.64899014985379,222.75236765103864,-67.56236408077484,223.28791163154347C-68.4757380116959,223.82345561204832,-69.37881703216375,224.31781034507108,-70.28185721856727,224.83032077205362C-71.18489740497077,225.34283119903614,-72.08789875730994,225.87349731997847,-78.38294004020467,227.05072016948677C-84.6779813230994,228.22794301899503,-96.3650625365497,230.05172259706933,-104.61357764071636,232.05070391429464C-112.86209274488301,234.04968523151993,-117.67204173976607,236.2238682878963,-123.57730551900583,237.4175683514702C-129.4825692982456,238.61126841504415,-136.48314786184207,238.8244854858156,-142.71483525219296,239.0331095341413C-148.94652264254384,239.24173358246694,-154.40931885964912,239.44576460834676,-162.35481175986843,239.74983842908645C-170.30030466008773,240.05391224982608,-180.72849424342107,240.45802886542558,-187.420718686038,241.67117304630335C-194.11294312865493,242.88431722718119,-197.06920243055552,244.9064889733373,-200.31152898391812,246.03019228363792C-203.55385553728067,247.1538955939386,-207.08224934210523,247.3791304683838,-210.5682013980263,250.04848806727583C-214.05415345394735,252.71784566616785,-217.49766376096488,257.8313259895067,-219.7524012244152,260.4589151029044C-222.00713868786548,263.0865042163022,-223.07310330774854,263.2282021197589,-227.09318685124268,263.4158267704266C-231.11327039473682,263.6034514210942,-238.08747286184212,263.8370028189726,-243.3238004660088,264.2607188355765C-248.56012807017544,264.68443485218035,-252.05858081140352,265.29831548750957,-255.58540572002926,268.9570170511568C-259.11223062865497,272.6157186148041,-262.66742770467835,279.3192411067694,-266.1950603618421,282.90772349298885C-269.7226930190059,286.4962058792082,-273.2227612573099,286.96964815968164,-276.4883144645468,287.39409572024005C-279.7538676717836,287.8185432807984,-282.7849058479532,288.19399612144167,-286.38988819444444,288.4880303772439C-289.99487054093566,288.7820646330462,-294.1737970577485,288.99468030400743,-299.04876592653505,289.20472417454073C-303.92373479532165,289.414768045074,-309.4947460160818,289.62224011517947,-314.785441310307,290.4534518139942C-320.07613660453217,291.2846635128089,-325.0865159722223,292.73961484033293,-330.0029052540205,293.62151303467186C-334.9192945358188,294.50341122901074,-339.7416937317251,294.81225629016456,-343.3587767726608,295.29109225583807C-346.9758598135965,295.76992822151163,-349.38762669956145,296.4187550917049,-357.7407452394006,302.07404354766874C-366.0938637792398,307.7293320036326,-380.3883339729532,318.391082045367,-390.63422092470756,324.32169516900456C-400.880107876462,330.25230829264206,-407.0774115862573,331.45178449818263,-418.36489027777776,333.9352236934831C-429.65236896929827,336.4186628887837,-446.0300226425439,340.1860650738441,-465.74182539290933,343.37001995843883C-485.4536281432749,346.5539748430336,-508.4995799707603,349.1544824271626,-520.0225558845029,350.4547362192271L-531.5455317982456,351.7549900112916" />
    
    <path stroke="darkorange" d="M822.6535910087719,310L819.9087640807747,308.6571057513915C817.1639371527777,307.31421150278294,811.6742832967835,304.6284230055658,800.0467424707603,302.5962784834213C788.4192016447369,300.5641339612768,770.6537738486842,299.1856334142048,760.9856756396199,298.1044367537225C751.3175774305555,297.0232400932401,749.7468088084794,296.23934731934736,737.1685479532163,295.13381507381513C724.5902870979531,294.0282828282829,701.004534009503,292.60111111111115,681.7273698739035,291.0457647907648C662.4502057383041,289.4904184704185,647.4816305555555,287.8068975468975,637.1144920047515,286.57866199993856C626.7473534539473,285.35042645297966,620.9816515350877,284.57747628258267,607.6646502741228,283.3173680574744C594.3476490131578,282.05725983236624,573.4793484100877,280.30999355254676,553.8751626187865,279.1355764864183C534.2709768274854,277.96115942028985,515.9309058479531,277.3595915678524,491.8528300255848,275.20965806011316C467.7747542032164,273.0597245523739,437.9586735380117,269.3614253893328,410.4915916392544,267.28662586914714C383.0245097404971,265.21182634896155,357.90642660818713,264.7605264716314,340.54866716922515,262.71806744941995C323.1909077302632,260.67560842720854,313.5934719846491,257.04199026011594,308.06428116776317,254.33478653245402C302.5350903508772,251.62758280479213,301.0741444627193,249.84679351656095,299.82417239583333,248.0660042283298C298.57420032894737,246.28521494009865,297.53520208333333,244.50442565186754,289.23877739400587,241.93293868921776C280.94235270467834,239.36145172656802,265.3885015716374,235.99926708949965,255.80814893092102,234.36141161164417C246.22779629020465,232.72355613378872,242.62094214181286,232.8100298151461,233.3186996527778,231.96895430151244C224.01645716374273,231.12787878787879,209.01882633406433,229.3592540792541,200.68183169773388,228.5219858004591C192.3448370614035,227.6847175216641,190.66847861842106,227.7788056726988,186.70358993055552,227.2790511563818C182.73870124269004,226.77929664006479,176.48528230994148,225.68569945639604,171.29262749451755,224.004501859981C166.09997267909355,222.3233042635659,161.96808198099416,220.0545062544045,159.1166397021199,218.42506144291755C156.2651974232456,216.79561663143056,154.6942035635965,215.80552501761804,151.38624355811402,214.8808060461787C148.07828355263158,213.95608707473934,143.03335740131578,213.09674074567317,139.4485066337719,211.36264620199427C135.86365586622804,209.62855165831544,133.73888048245612,207.01970890002386,130.49113657711987,205.4371128608924C127.24339267178362,203.85451682176094,122.87268024488304,203.29816750178955,119.89022736659355,202.9202958721069C116.9077744883041,202.54242424242423,115.31358115862572,202.3430303030303,113.39660296966376,201.92053925077548C111.47962478070177,201.49804819852065,109.23986173245613,200.85246003340492,106.35937934027778,200.4299689811501C103.47889694809942,200.00747792889527,99.95769521198831,199.80808398950134,97.41055666118422,199.60869005010738C94.86341811038012,199.40929611071343,93.29034274488303,199.20990217131953,91.73380680738303,198.60893342877594C90.17727086988305,198.0079646862324,88.63727436038012,197.00542114053926,87.3656328855994,196.4044523979957C86.09399141081872,195.80348365545217,85.09070497076024,195.6040897160582,82.78187553910819,195.00312097351468C80.47304610745614,194.40215223097115,76.85867368421053,193.39960868527797,74.5756145376462,192.39706513958484C72.29255539108188,191.39452159389168,71.34080952119884,190.39197804819852,70.06862436951754,189.79100930565497C68.79643921783627,189.1900405631114,67.20381478435672,188.99064662371748,65.65023411915205,188.7912526843235C64.09665345394735,188.5918587449296,62.58211655701755,188.39246480553564,60.68142925804094,187.7914960629921C58.780741959064336,187.19052732044852,56.49390425804095,186.1879837747554,53.63792227704679,185.70807802433785C50.781940296052646,185.2281722739203,47.35681403508772,185.27090431877832,44.87330509868422,185.1925733715104C42.38979616228071,185.11424242424246,40.84790455043861,184.91484848484853,38.870721911549715,184.43111388611393C36.893539272660824,183.94737928737933,34.481065606725146,183.17930402930406,28.795443411915205,178.77249250749253C23.109821217105264,174.365680985681,14.151050493421048,166.32013320013323,8.967245961257307,162.19766233766236C3.7834414290935654,158.07519147519147,2.3746030884502933,157.87579753579755,1.2187298428362592,157.6764035964036C0.06285659722222488,157.47700965700963,-0.840051553362572,157.2776157176157,-1.7473324195906412,157.07822177822177C-2.6546132858187104,156.87882783882785,-3.566266867690052,156.6794338994339,-4.870474588815786,156.16245754245753C-6.174682309941519,155.6454811854812,-7.871444170321645,154.81092241092242,-11.1263024762427,154.29394605394606C-14.381160782163752,153.7769696969697,-19.194115533625734,153.57757575757577,-22.430038349780702,153.05346271705824C-25.66596116593567,152.5293496765407,-27.32485204678362,151.68051753489956,-28.616512481725135,151.15640449438203C-29.908172916666654,150.6322914538645,-30.832602905701744,150.43289751447057,-33.71791625548244,149.66046986721145C-36.603229605263145,148.88804221995235,-41.44942631578946,147.54258086482807,-44.3844899853801,146.77015321756897C-47.31955365497075,145.99772557030985,-48.34348428362572,145.7983316309159,-49.58834967105263,145.0259039836568C-50.83321505847953,144.25347633639768,-52.29901520467836,142.9080149812734,-54.87138813048245,141.33970718420156C-57.44376105628655,139.7713993871297,-61.122706761695916,137.9802451481103,-63.424014035087716,135.85163772557027C-65.72532130847954,133.7230303030303,-66.64899014985379,131.2569696969697,-67.56236408077484,129.35757575757575C-68.4757380116959,127.45818181818181,-69.37881703216375,126.12545454545455,-70.28185721856727,124.79272727272728C-71.18489740497077,123.46,-72.08789875730994,122.12727272727273,-78.38294004020467,119.66121212121213C-84.6779813230994,117.19515151515151,-96.3650625365497,113.59575757575756,-104.61357764071636,111.12969696969697C-112.86209274488301,108.66363636363637,-117.67204173976607,107.33090909090909,-123.57730551900583,106.56484848484848C-129.4825692982456,105.79878787878788,-136.48314786184207,105.59939393939395,-142.71483525219296,105.40000000000002C-148.94652264254384,105.20060606060606,-154.40931885964912,105.00121212121212,-162.35481175986843,104.46920948616601C-170.30030466008773,103.93720685111991,-180.72849424342107,103.0725955204216,-187.420718686038,101.43189723320158C-194.11294312865493,99.79119894598155,-197.06920243055552,97.37441370223979,-200.31152898391812,96.06632411067193C-203.55385553728067,94.75823451910408,-207.08224934210523,94.55884057971014,-210.5682013980263,92.69640316205533C-214.05415345394735,90.83396574440052,-217.49766376096488,87.30848484848484,-219.7524012244152,85.44604743083C-222.00713868786548,83.5836100131752,-223.07310330774854,83.38421607378127,-227.09318685124268,82.92534017324026C-231.11327039473682,82.46646427269923,-238.08747286184212,81.74810641101111,-243.3238004660088,81.28923051047009C-248.56012807017544,80.83035460992907,-252.05858081140352,80.63096067053512,-255.58540572002926,79.34646034816247C-259.11223062865497,78.0619600257898,-262.66742770467835,75.69235332043841,-266.1950603618421,74.40785299806574C-269.7226930190059,73.12335267569307,-273.2227612573099,72.92395873629914,-276.4883144645468,72.7245647969052C-279.7538676717836,72.52517085751127,-282.7849058479532,72.32577691811731,-286.38988819444444,72.12638297872338C-289.99487054093566,71.92698903932944,-294.1737970577485,71.72759509993551,-299.04876592653505,71.52820116054157C-303.92373479532165,71.32880722114764,-309.4947460160818,71.12941328175368,-314.785441310307,70.3874661508704C-320.07613660453217,69.64551901998709,-325.0865159722223,68.36101869761444,-330.0029052540205,67.61907156673114C-334.9192945358188,66.87712443584785,-339.7416937317251,66.67773049645389,-343.3587767726608,66.04079366069757C-346.9758598135965,65.40385682494126,-349.38762669956145,64.32937709282254,-357.7407452394006,59.30534348287265C-366.0938637792398,54.28130987292278,-380.3883339729532,45.307722385141744,-390.63422092470756,39.7208771873288C-400.880107876462,34.13403198951586,-407.0774115862573,31.93392908167102,-418.36489027777776,29.052861976732945C-429.65236896929827,26.171794871794873,-446.0300226425439,22.609763569763572,-465.74182539290933,19.47230769230769C-485.4536281432749,16.334851814851813,-508.4995799707603,13.621971361971354,-520.0225558845029,12.265531135531125L-531.5455317982456,10.909090909090896" />
    <path stroke="orange" d="M822.6535910087719,327.1685164305218L819.9087640807747,326.3188713614237C817.1639371527777,325.46922629232563,811.6742832967835,323.76993615412954,800.0467424707603,322.3622090687676C788.4192016447369,320.9544819834057,770.6537738486842,319.838317950878,760.9856756396199,318.71215307737833C751.3175774305555,317.58598820387874,749.7468088084794,316.44982248940727,737.1685479532163,314.4221491205781C724.5902870979531,312.3944757517491,701.004534009503,309.47529472856246,681.7273698739035,306.83307413082304C662.4502057383041,304.1908535330837,647.4816305555555,301.8255933607916,637.1144920047515,300.4791120979482C626.7473534539473,299.13263083510486,620.9816515350877,298.8049284817102,607.6646502741228,297.4383309726052C594.3476490131578,296.0717334635001,573.4793484100877,293.66624079868456,553.8751626187865,292.21815300653014C534.2709768274854,290.7700652143756,515.9309058479531,290.2793822948822,491.8528300255848,287.1724805257649C467.7747542032164,284.06557875664754,437.9586735380117,278.3424581379063,410.4915916392544,275.1580053608673C383.0245097404971,271.9735525838284,357.90642660818713,271.3277676484918,340.54866716922515,269.4997224255192C323.1909077302632,267.6716772025466,313.5934719846491,264.6613716919382,308.06428116776317,262.8099841691007C302.5350903508772,260.9585966462632,301.0741444627193,260.2661271111967,299.82417239583333,259.7073099187083C298.57420032894737,259.1484927262199,297.53520208333333,258.7233278763095,289.23877739400587,256.241925635693C280.94235270467834,253.76052339507646,265.3885015716374,249.22288376375374,255.80814893092102,246.85194611450672C246.22779629020465,244.4810084652597,242.62094214181286,244.27677279808836,233.3186996527778,243.3486400725344C224.01645716374273,242.42050734698043,209.01882633406433,240.76847756304377,200.68183169773388,239.904030399172C192.3448370614035,239.03958323530023,190.66847861842106,238.96271869149328,186.70358993055552,238.55714241962315C182.73870124269004,238.15156614775302,176.48528230994148,237.4172781478197,171.29262749451755,235.69093007317426C166.09997267909355,233.96458199852884,161.96808198099416,231.24617384917136,159.1166397021199,229.7390481448881C156.2651974232456,228.23192244060485,154.6942035635965,227.93607918139583,151.38624355811402,227.55771793669703C148.07828355263158,227.17935669199824,143.03335740131578,226.71847746180973,139.4485066337719,224.2303535934984C135.86365586622804,221.74222972518706,133.73888048245612,217.2268612187529,130.49113657711987,214.7714244754593C127.24339267178362,212.31598773216567,122.87268024488304,211.9204827520126,119.89022736659355,211.59921874341524C116.9077744883041,211.27795473481788,115.31358115862572,211.03093169777625,113.39660296966376,210.70023770963334C111.47962478070177,210.36954372149043,109.23986173245613,209.9551787822463,106.35937934027778,209.6412186990457C103.47889694809942,209.32725861584518,99.95769521198831,209.11370338868824,97.41055666118422,208.9102107813072C94.86341811038012,208.7067181739262,93.29034274488303,208.51328818632112,91.73380680738303,208.28170035464927C90.17727086988305,208.05011252297743,88.63727436038012,207.7803668472388,87.3656328855994,207.54226058304118C86.09399141081872,207.30415431884356,85.09070497076024,207.09768746618693,82.78187553910819,206.82838614422997C80.47304610745614,206.559084822273,76.85867368421053,206.22694903101572,74.5756145376462,205.91944274430716C72.29255539108188,205.6119364575986,71.34080952119884,205.32905967543874,70.06862436951754,205.0813134488782C68.79643921783627,204.8335672223177,67.20381478435672,204.62095155135648,65.65023411915205,204.3695092296937C64.09665345394735,204.11806690803095,62.58211655701755,203.8277979356666,60.68142925804094,202.91967734544315C58.780741959064336,202.0115567552197,56.49390425804095,200.48558454713705,53.63792227704679,198.95868530069217C50.781940296052646,197.43178605424725,47.35681403508772,195.90395976944004,44.87330509868422,195.03675818082135C42.38979616228071,194.16955659220264,40.84790455043861,193.96297969977243,38.870721911549715,192.64370484815376C36.893539272660824,191.32442999653506,34.481065606725146,188.89245718572792,28.795443411915205,184.70587486420797C23.109821217105264,180.51929254268805,14.151050493421048,174.57810071045537,8.967245961257307,171.50143708786777C3.7834414290935654,168.42477346528023,2.3746030884502933,168.21263805233778,1.2187298428362592,167.93237668275847C0.06285659722222488,167.6521153131792,-0.840051553362572,167.30372798696305,-1.7473324195906412,167.02322648837438C-2.6546132858187104,166.7427249897857,-3.566266867690052,166.5301093188245,-4.870474588815786,166.19774767944202C-6.174682309941519,165.86538604005955,-7.871444170321645,165.4132784322558,-11.1263024762427,162.92371667293574C-14.381160782163752,160.43415491361574,-19.194115533625734,155.90713900277942,-22.430038349780702,153.48744532598104C-25.66596116593567,151.06775164918267,-27.32485204678362,150.75538020642227,-28.616512481725135,150.49288664956148C-29.908172916666654,150.23039309270067,-30.832602905701744,150.01777742173945,-33.71791625548244,149.14502767165044C-36.603229605263145,148.27227792156143,-41.44942631578946,146.7393940923446,-44.3844899853801,145.84256917771663C-47.31955365497075,144.94574426308867,-48.34348428362572,144.68497826304954,-49.58834967105263,144.29381522051082C-50.83321505847953,143.90265217797207,-52.29901520467836,143.38109209293373,-54.87138813048245,142.3772398499212C-57.44376105628655,141.3733876069087,-61.122706761695916,139.887243205922,-63.424014035087716,138.85580439143519C-65.72532130847954,137.82436557694834,-66.64899014985379,137.2476323489614,-67.56236408077484,136.71208836845653C-68.4757380116959,136.17654438795168,-69.37881703216375,135.68218965492892,-70.28185721856727,135.16967922794638C-71.18489740497077,134.65716880096386,-72.08789875730994,134.12650268002153,-78.38294004020467,132.94927983051323C-84.6779813230994,131.77205698100497,-96.3650625365497,129.9482774029307,-104.61357764071636,127.94929608570538C-112.86209274488301,125.95031476848006,-117.67204173976607,123.77613171210369,-123.57730551900583,122.58243164852979C-129.4825692982456,121.38873158495589,-136.48314786184207,121.17551451418443,-142.71483525219296,120.96689046585875C-148.94652264254384,120.75826641753311,-154.40931885964912,120.55423539165325,-162.35481175986843,120.25016157091356C-170.30030466008773,119.9460877501739,-180.72849424342107,119.54197113457444,-187.420718686038,118.32882695369665C-194.11294312865493,117.11568277281884,-197.06920243055552,115.09351102666274,-200.31152898391812,113.96980771636207C-203.55385553728067,112.84610440606139,-207.08224934210523,112.62086953161617,-210.5682013980263,109.95151193272415C-214.05415345394735,107.28215433383212,-217.49766376096488,102.16867401049332,-219.7524012244152,99.54108489709556C-222.00713868786548,96.91349578369778,-223.07310330774854,96.77179788024104,-227.09318685124268,96.58417322957344C-231.11327039473682,96.39654857890582,-238.08747286184212,96.16299718102734,-243.3238004660088,95.73928116442352C-248.56012807017544,95.31556514781967,-252.05858081140352,94.70168451249047,-255.58540572002926,91.0429829488432C-259.11223062865497,87.38428138519593,-262.66742770467835,80.68075889323056,-266.1950603618421,77.09227650701118C-269.7226930190059,73.5037941207918,-273.2227612573099,73.0303518403184,-276.4883144645468,72.60590427976003C-279.7538676717836,72.18145671920168,-282.7849058479532,71.80600387855834,-286.38988819444444,71.51196962275608C-289.99487054093566,71.21793536695382,-294.1737970577485,71.00531969599261,-299.04876592653505,70.79527582545929C-303.92373479532165,70.58523195492597,-309.4947460160818,70.37775988482055,-314.785441310307,69.54654818600585C-320.07613660453217,68.71533648719112,-325.0865159722223,67.26038515966712,-330.0029052540205,66.37848696532821C-334.9192945358188,65.49658877098928,-339.7416937317251,65.18774370983544,-343.3587767726608,64.7089077441619C-346.9758598135965,64.23007177848837,-349.38762669956145,63.58124490829511,-357.7407452394006,57.92595645233126C-366.0938637792398,52.270667996367415,-380.3883339729532,41.608917954632965,-390.63422092470756,35.67830483099545C-400.880107876462,29.747691707357934,-407.0774115862573,28.548215501817364,-418.36489027777776,26.06477630651686C-429.65236896929827,23.581337111216346,-446.0300226425439,19.813934926155905,-465.74182539290933,16.629980041561172C-485.4536281432749,13.446025156966442,-508.4995799707603,10.845517572837418,-520.0225558845029,9.545263780772908L-531.5455317982456,8.245009988708395" />
  </g>
  
  <g class="axis y" stroke="black" fill="none" stroke-dasharray="4 6" transform="translate(20, 80)">
    <path d="M 20,270 h900" />
      <g transform="translate(0, 270)">
      <text text-anchor="middle"
      fill="black"
      stroke="none"
      transform="translate(0, 3)">25%</text>
      <path d="M0,v-5 0" />
      </g><path d="M 20,180 h900" />
      <g transform="translate(0, 180)">
      <text text-anchor="middle"
      fill="black"
      stroke="none"
      transform="translate(0, 3)">50%</text>
      <path d="M0,v-5 0" />
      </g><path d="M 20,90 h900" />
      <g transform="translate(0, 90)">
      <text text-anchor="middle"
      fill="black"
      stroke="none"
      transform="translate(0, 3)">75%</text>
      <path d="M0,v-5 0" />
      </g><path d="M 20,0 h900" />
    <g transform="translate(0, 0)">
    <text text-anchor="middle"
    fill="black"
    stroke="none"
    transform="translate(0, 3)">100%</text>
    <path d="M0,v-5 0" />
    </g>
  </g>
  <g
    class="axis x"
    stroke="black" fill="none"
    transform="translate(20, 440)">
  
  <path d="M0,0 h900" />
  <g transform="translate(827, 0)">
      <text text-anchor="middle"
      fill="black"
      stroke="none"
      transform="translate(0, 12)">Oct</text>
      <path d="M0,0 v-5" />
    </g><g transform="translate(756, 0)">
      <text text-anchor="middle"
      fill="black"
      stroke="none"
      transform="translate(0, 12)">Sep</text>
      <path d="M0,0 v-5" />
    </g><g transform="translate(682, 0)">
      <text text-anchor="middle"
      fill="black"
      stroke="none"
      transform="translate(0, 12)">Aug</text>
      <path d="M0,0 v-5" />
    </g><g transform="translate(609, 0)">
      <text text-anchor="middle"
      fill="black"
      stroke="none"
      transform="translate(0, 12)">Jul</text>
      <path d="M0,0 v-5" />
    </g><g transform="translate(538, 0)">
      <text text-anchor="middle"
      fill="black"
      stroke="none"
      transform="translate(0, 12)">Jun</text>
      <path d="M0,0 v-5" />
    </g><g transform="translate(464, 0)">
      <text text-anchor="middle"
      fill="black"
      stroke="none"
      transform="translate(0, 12)">May</text>
      <path d="M0,0 v-5" />
    </g><g transform="translate(393, 0)">
      <text text-anchor="middle"
      fill="black"
      stroke="none"
      transform="translate(0, 12)">Apr</text>
      <path d="M0,0 v-5" />
    </g><g transform="translate(320, 0)">
      <text text-anchor="middle"
      fill="black"
      stroke="none"
      transform="translate(0, 12)">Mar</text>
      <path d="M0,0 v-5" />
    </g><g transform="translate(253, 0)">
      <text text-anchor="middle"
      fill="black"
      stroke="none"
      transform="translate(0, 12)">Feb</text>
      <path d="M0,0 v-5" />
    </g><g transform="translate(180, 0)">
      <text text-anchor="middle"
      fill="black"
      stroke="none"
      transform="translate(0, 12)">Jan ’22</text>
      <path d="M0,0 v-5" />
    </g><g transform="translate(107, 0)">
      <text text-anchor="middle"
      fill="black"
      stroke="none"
      transform="translate(0, 12)">Dec</text>
      <path d="M0,0 v-5" />
    </g><g transform="translate(36, 0)">
      <text text-anchor="middle"
      fill="black"
      stroke="none"
      transform="translate(0, 12)">Nov</text>
      <path d="M0,0 v-5" />
    </g><g transform="translate(-38, 0)">
      <text text-anchor="middle"
      fill="black"
      stroke="none"
      transform="translate(0, 12)">Oct</text>
      <path d="M0,0 v-5" />
    </g>
  
  </g>
  <g class="legend" transform="translate(20,10)">
    <rect width="18" height="18" style="fill: darkblue; stroke: darkblue;"></rect>
    <text x="22" y="14">TypeScript (by file number)</text>
  </g>
  <g class="legend" transform="translate(20,30)">
    <rect width="18" height="18" style="fill: blue; stroke: blue;"></rect>
    <text x="22" y="14">TypeScript (by file size)</text>
  </g>
  <g class="legend" transform="translate(260,10)">
    <rect width="18" height="18" style="fill: darkorange; stroke: darkorange;"></rect>
    <text x="22" y="14">JavaScript (by file number)</text>
  </g>
  <g class="legend" transform="translate(260,30)">
    <rect width="18" height="18" style="fill: orange; stroke: orange;"></rect>
    <text x="22" y="14">JavaScript (by file size)</text>
  </g>
  <g class="total" transform="translate(570,30)">
    <text x="22" y="14" font-size="35px">86.1% complete</text>
  </g>
</svg>