<svg xmlns="http://www.w3.org/2000/svg"
  viewBox="0 0 900 400"
  width="900"
  height="400">
  <style>
    text {
      font-family: "Courier New", Courier, monospace;
      font-size: 12px;
    }
  </style>
  <g class="lines" fill="none">
    <path stroke="darkblue" d="M827.2065649867375,114.88372093023256L826.618527621925,115.817409193681C826.0304902571125,116.75109745712943,824.8544155274876,118.61847398402631,823.8909934559088,120.48585051092321C822.9275713843299,122.35322703782008,822.176801970797,124.22060356471695,814.1108547094892,126.92260541461125C806.0449074481816,129.62460726450556,790.6637823390989,133.1612344373972,781.3036901931022,134.87773638667534C771.9435980471053,136.59423833595346,768.6045388641942,136.49061506161797,759.5247699480087,137.36607149310638C750.4450010318233,138.2415279245948,735.6245223823635,140.0960640619071,727.5176823362782,140.96750174551025C719.410842290193,141.83893942911342,718.0176408474823,141.72727865900742,714.3176980438817,142.24245181555048C710.6177552402811,142.75762497209357,704.6110710757903,143.89963205528568,699.6735921223959,145.66188401859893C694.7361131690014,147.42413598191217,690.8678394267035,149.8066328253465,688.2902033483459,151.51425684901338C685.7125672699882,153.22188087268032,684.4255688555712,154.25463207657972,681.3877822835502,155.21837882464084C678.3499957115292,156.18212557270192,673.5614209819045,157.07686786492468,670.2445402730576,158.89495549479412C666.9276595642108,160.7130431246636,665.0824728761421,163.45447609217982,662.1053815774779,165.1126486339159C659.1282902788139,166.770821175652,655.0192943695546,167.345733291608,652.3096051671181,167.73225229003705C649.5999159646815,168.11877128846604,648.2895334690678,168.3168971693681,646.6537975343884,168.75051444717886C645.018061599709,169.1841317249896,643.0569722259638,169.8532403997091,640.4500649458674,170.28685767751986C637.843157665771,170.72047495533062,634.5904324793233,170.91860083623268,632.3195216441135,171.1167267171347C630.0486108089035,171.31485259803674,628.7595143249315,171.51297847893878,627.4870888824419,172.13498887427656C626.2146634399522,172.75699926961428,624.9589090389451,173.80289417938772,623.9736451238649,174.42490457472547C622.9883812087846,175.0469149700632,622.2736077796313,175.24504085096524,620.2429024226118,175.86705124630296C618.2121970655924,176.4890616416407,614.8655597807067,177.53495655141418,612.8608297773565,178.58085146118756C610.8560997740063,179.62674637096106,610.1932770521915,180.67264128073444,609.2074651338694,181.29465167607222C608.2216532155472,181.91666207140997,606.9128521007175,182.114787952312,605.643405447279,182.31291383321403C604.3739587938403,182.5110397141161,603.1438666017928,182.70916559501813,601.524551192828,183.3311759903559C599.9052357838633,183.9531863856936,597.8966971579815,184.99908129546705,595.3144852525535,185.49330297689403C592.7322733471256,185.987524658321,589.5763881621514,185.9300731114015,587.3696132777962,186.0004102783928C585.162838393441,186.07074744538406,583.9051738097047,186.2688733262861,582.208754344595,186.7671365698255C580.5123348794854,187.2653998133649,578.3771605330022,188.06380041954165,572.9427913828794,192.7030893041067C567.5084222327564,197.34237818867177,558.7748582789935,205.82255535162508,553.8463000355166,210.1617068735528C548.9177417920397,214.5008583954805,547.7941892588486,214.6989842763825,546.925614805528,214.89711015728457C546.0570403522072,215.0952360381866,545.4434439787568,215.29336191908865,544.8254400935174,215.49148779999067C544.2074362082781,215.68961368089276,543.5850248112497,215.8877395617948,542.5669355019755,216.4210913279227C541.5488461927014,216.95444309405062,540.1350789711814,217.82302074540448,537.1508166586653,218.35637251153238C534.1665543461492,218.8897242776603,529.6117969426369,219.08785015856233,526.646620800177,219.62873509065045C523.6814446577167,220.16962002273848,522.3058497763087,221.05326400601257,521.3004075989974,221.59414893810063C520.2949654216861,222.13503387018872,519.6596759484715,222.33315975109073,517.0478992681393,223.13615454585047C514.4361225878072,223.93914934061016,509.8478587003574,225.3470130492276,507.18593580907606,226.1500078439873C504.5240129177949,226.95300263874705,503.7884310226823,227.15112851964906,502.8301562672691,227.9541233144088C501.87188151185575,228.75711810916854,500.6909138961419,230.16498181778593,498.39456788188687,231.80807232623684C496.09822186763193,233.4511628346878,492.6864974548358,235.3294801429723,490.6633741140998,237.56399803386182C488.6402507733638,239.7985159247514,488.00572850468797,242.38923439824603,487.3815830688297,244.38180472359252C486.7574376329714,246.37437504893902,486.14366902993066,247.76879722613737,485.5299395699786,249.1632194033357C484.91621011002667,250.557641580534,484.30251979316336,251.95206375773236,478.253882066191,254.54278223122697C472.20524433921855,257.1335007047216,460.72165920213723,260.92051547451257,452.7040027693735,263.51123394800715C444.68634633660986,266.10195242150184,440.13461860816386,267.4963745987002,434.4788600625943,268.29264862775034C428.82310151702495,269.08892265680055,422.0633121543319,269.28704853770256,416.0785324622845,269.48517441860463C410.09375277023696,269.6833002995067,404.88398274883485,269.8814261804087,397.17175983729135,270.43063901783256C389.45953692574784,270.9798518552563,379.2448611240629,271.8801516492019,372.79587962867026,273.5996543416981C366.3468981332776,275.31915703419435,363.66361094417726,277.85786262524135,360.6919801063886,279.2262783612158C357.7203492685999,280.5946940971903,354.46037478212264,280.7928199780924,351.24317977729885,282.7463806416031C348.02598477247506,284.6999413051138,344.85156924930465,288.4089367512333,342.8753863005522,290.362497414744C340.8992033517996,292.3160580782547,340.1212529774651,292.51418395915675,336.3656761018779,292.98620746571413C332.6100992262908,293.4582309722714,325.87689584945105,294.20415210448397,320.89539657849105,294.6761756110413C315.91389730753104,295.14819911759855,312.68410214245085,295.3463249985006,309.4257090367576,296.68984095032465C306.1673159310644,298.0333569021487,302.8803248847582,300.5222629248947,299.62111760281965,301.8657788767187C296.36191032088124,303.2092948285428,293.1304868033106,303.4074207094448,290.1354444841632,303.6055465903468C287.14040216501576,303.80367247124883,284.3817410442916,304.0017983521509,281.04456855825646,304.19992423305297C277.7073960722213,304.398050113955,273.79171222087524,304.59617599485705,269.17444721899864,304.7943018757591C264.5571822171221,304.99242775666113,259.23833606471504,305.19055363756314,254.20203646955818,305.9613745539262C249.16573687440132,306.73219547028924,244.41198383649473,308.0757114221132,239.75296881619786,308.84653233847627C235.09395379590103,309.6173532548393,230.52967679321395,309.8154791357413,227.18030732073615,310.4754558516926C223.83093784825834,311.1354325676438,221.6964759059898,312.25726011864424,213.5733836494713,317.5480612073554C205.45029139295286,322.83886229606645,191.33856882218447,332.2986369224882,181.30764633614933,338.1835169094992C171.2767238501142,344.0683968965102,165.32660144881234,346.37838224411036,154.24579869457799,349.40716313308684C143.16499594034363,352.43594402206327,126.95351283317677,356.18352045241585,107.38134895862116,359.48293393460546C87.80918508406553,362.7823474167951,64.87634044212119,365.63359795082187,53.40991812114901,367.05922321783515L41.943495800176834,368.4848484848485" />
    <path stroke="blue" d="M827.2065649867375,107.30392082934938L826.618527621925,107.66029930613598C826.0304902571125,108.0166777829226,824.8544155274876,108.7294347364958,823.8909934559088,109.30111421734769C822.9275713843299,109.8727936981996,822.176801970797,110.3033957063302,814.1108547094892,112.90447051576177C806.0449074481816,115.50554532519338,790.6637823390989,120.27709293592595,781.3036901931022,122.76156623224524C771.9435980471053,125.2460395285646,768.6045388641942,125.44343851047067,759.5247699480087,126.4049510540029C750.4450010318233,127.36646359753513,735.6245223823635,129.09208970269347,727.5176823362782,129.98637859778339C719.410842290193,130.88066749287327,718.0176408474823,130.9436191778947,714.3176980438817,131.35354435364957C710.6177552402811,131.76346952940438,704.6110710757903,132.52036819589262,699.6735921223959,134.32444138568803C694.7361131690014,136.12851457548342,690.8678394267035,138.97976228858604,688.2902033483459,140.55243408744363C685.7125672699882,142.12510588630118,684.4255688555712,142.41920177091373,681.3877822835502,142.80039997354322C678.3499957115292,143.18159817617274,673.5614209819045,143.64989869681918,670.2445402730576,146.25806855770642C666.9276595642108,148.8662384185936,665.0824728761421,153.6142776197216,662.1053815774779,156.1879444042012C659.1282902788139,158.76161118868083,655.0192943695546,159.1609055565121,652.3096051671181,159.48183445436788C649.5999159646815,159.80276335222368,648.2895334690678,160.04532678010398,646.6537975343884,160.37620954525786C645.018061599709,160.7070923104117,643.0569722259638,161.12629441283912,640.4500649458674,161.43951361166492C637.843157665771,161.75273281049076,634.5904324793233,161.95996910571503,632.3195216441135,162.15658374673134C630.0486108089035,162.35319838774765,628.7595143249315,162.53919137455603,627.4870888824419,162.7654620856571C626.2146634399522,162.99173279675819,624.9589090389451,163.25828123215197,623.9736451238649,163.49143251091917C622.9883812087846,163.72458378968633,622.2736077796313,163.92433791182694,620.2429024226118,164.19041730711785C618.2121970655924,164.45649670240877,614.8655597807067,164.78890137085003,612.8608297773565,165.0953082289343C610.8560997740063,165.4017150870186,610.1932770521915,165.6821241347459,609.2074651338694,165.9254509293406C608.2216532155472,166.16877772393528,606.9128521007175,166.37502226539735,605.643405447279,166.6222504937111C604.3739587938403,166.86947872202484,603.1438666017928,167.1576906371902,601.524551192828,168.09807926009577C599.9052357838633,169.03846788300135,597.8966971579815,170.63103321364713,595.3144852525535,172.22457708478643C592.7322733471256,173.81812095592576,589.5763881621514,175.41264336755862,587.3696132777962,176.30983971099246C585.162838393441,177.20703605442634,583.9051738097047,177.40690632966127,582.208754344595,178.78129111737292C580.5123348794854,180.15567590508454,578.3771605330022,182.70457520527293,572.9427913828794,187.10556232232474C567.5084222327564,191.5065494393766,558.7748582789935,197.7596243732919,553.8463000355166,200.98903064147066C548.9177417920397,204.21843690964943,547.7941892588486,204.4241745120917,546.925614805528,204.70182284653956C546.0570403522072,204.97947118098736,545.4434439787568,205.32903024744078,544.8254400935174,205.6069320513985C544.2074362082781,205.88483385535628,543.5850248112497,206.09107839681835,542.5669355019755,206.42372146050286C541.5488461927014,206.75636452418738,540.1350789711814,207.21540611009436,537.1508166586653,209.82509374482404C534.1665543461492,212.4347813795538,529.6117969426369,217.1951150631063,526.646620800177,219.73105305517424C523.6814446577167,222.26699104724221,522.3058497763087,222.57853334782567,521.3004075989974,222.83742676884842C520.2949654216861,223.0963201898712,519.6596759484715,223.30256473133326,517.0478992681393,224.20561746743024C514.4361225878072,225.10867020352723,509.8478587003574,226.70853113425912,507.18593580907606,227.63699654403612C504.5240129177949,228.56546195381307,503.7884310226823,228.8225318426352,502.8301562672691,229.21724305409577C501.87188151185575,229.61195426555636,500.6909138961419,230.1443067996554,498.39456788188687,231.18574550050494C496.09822186763193,232.22718420135456,492.6864974548358,233.77770906895464,490.6633741140998,234.8482669285826C488.6402507733638,235.91882478821063,488.00572850468797,236.50941563986657,487.3815830688297,237.05652895251356C486.7574376329714,237.60364226516063,486.14366902993066,238.10727803879877,485.5299395699786,238.6300781560611C484.91621011002667,239.1528782733235,484.30251979316336,239.69484273421008,478.253882066191,240.9192837419163C472.20524433921855,242.14372474962258,460.72165920213723,244.0506423041484,452.7040027693735,246.14249502777815C444.68634633660986,248.23434775140788,440.13461860816386,250.51113564414152,434.4788600625943,251.7529692666948C428.82310151702495,252.99480288924806,422.0633121543319,253.20168224162094,416.0785324622845,253.40371340363444C410.09375277023696,253.60574456564783,404.88398274883485,253.80292753730183,397.17175983729135,254.10571123686339C389.45953692574784,254.40849493642494,379.2448611240629,254.81687936389403,372.79587962867026,256.0792373324903C366.3468981332776,257.34159530108656,363.66361094417726,259.4579268108099,360.6919801063886,260.6258749715748C357.7203492685999,261.7938231323396,354.46037478212264,262.0133879441459,351.24317977729885,264.8128600762016C348.02598477247506,267.6123322082573,344.85156924930465,272.99171166056243,342.8753863005522,275.74709483570757C340.8992033517996,278.50247801085266,340.1212529774651,278.6338649088378,336.3656761018779,278.81373003999C332.6100992262908,278.99359517114215,325.87689584945105,279.22193853546133,320.89539657849105,279.6510112195462C315.91389730753104,280.080083903631,312.68410214245085,280.7098859074816,309.4257090367576,284.55366555789004C306.1673159310644,288.3974452082985,302.8803248847582,295.45520250526494,299.62111760281965,299.22486191283286C296.36191032088124,302.9945213204008,293.1304868033106,303.4760828385702,290.1354444841632,303.90592770794035C287.14040216501576,304.33577257731054,284.3817410442916,304.71390079788154,281.04456855825646,305.00608717889804C277.7073960722213,305.29827355991455,273.79171222087524,305.5045181013766,269.17444721899864,305.7080479646093C264.5571822171221,305.91157782784194,259.23833606471504,306.11239301284513,254.20203646955818,306.9716000281526C249.16573687440132,307.83080704346,244.41198383649473,309.34840588907167,239.75296881619786,310.26111531632137C235.09395379590103,311.173824743571,230.52967679321395,311.48164475245864,227.18030732073615,311.96889960500596C223.83093784825834,312.4561544575533,221.6964759059898,313.1228441537603,213.5733836494713,319.07413219050295C205.45029139295286,325.0254202272456,191.33856882218447,336.2613066045239,181.30764633614933,342.5032151238109C171.2767238501142,348.74512364309794,165.32660144881234,349.9930543043938,154.24579869457799,352.59627923265845C143.16499594034363,355.1995041609232,126.95351283317677,359.1580233561567,107.38134895862116,362.50068151200975C87.80918508406553,365.8433396678627,64.87634044212119,368.5701367843353,53.40991812114901,369.9335353425716L41.943495800176834,371.29693390080786" />
    
    <path stroke="darkorange" d="M827.2065649867375,265.1162790697675L826.618527621925,264.182590806319C826.0304902571125,263.2489025428706,824.8544155274876,261.38152601597375,823.8909934559088,259.51414948907683C822.9275713843299,257.64677296217997,822.176801970797,255.77939643528308,814.1108547094892,253.07739458538876C806.0449074481816,250.3753927354945,790.6637823390989,246.8387655626028,781.3036901931022,245.12226361332466C771.9435980471053,243.40576166404654,768.6045388641942,243.50938493838203,759.5247699480087,242.63392850689357C750.4450010318233,241.7584720754052,735.6245223823635,239.9039359380929,727.5176823362782,239.03249825448975C719.410842290193,238.16106057088663,718.0176408474823,238.2727213409926,714.3176980438817,237.75754818444952C710.6177552402811,237.2423750279065,704.6110710757903,236.10036794471435,699.6735921223959,234.3381159814011C694.7361131690014,232.57586401808786,690.8678394267035,230.19336717465353,688.2902033483459,228.48574315098662C685.7125672699882,226.77811912731974,684.4255688555712,225.74536792342028,681.3877822835502,224.7816211753592C678.3499957115292,223.81787442729808,673.5614209819045,222.92313213507535,670.2445402730576,221.10504450520588C666.9276595642108,219.28695687533641,665.0824728761421,216.54552390782018,662.1053815774779,214.8873513660841C659.1282902788139,213.22917882434797,655.0192943695546,212.654266708392,652.3096051671181,212.26774770996295C649.5999159646815,211.88122871153394,648.2895334690678,211.6831028306319,646.6537975343884,211.24948555282114C645.018061599709,210.8158682750104,643.0569722259638,210.1467596002909,640.4500649458674,209.71314232248014C637.843157665771,209.27952504466938,634.5904324793233,209.08139916376732,632.3195216441135,208.88327328286528C630.0486108089035,208.68514740196323,628.7595143249315,208.48702152106117,627.4870888824419,207.8650111257235C626.2146634399522,207.24300073038572,624.9589090389451,206.19710582061228,623.9736451238649,205.57509542527455C622.9883812087846,204.9530850299368,622.2736077796313,204.75495914903476,620.2429024226118,204.13294875369704C618.2121970655924,203.5109383583593,614.8655597807067,202.46504344858582,612.8608297773565,201.41914853881244C610.8560997740063,200.37325362903894,610.1932770521915,199.3273587192655,609.2074651338694,198.70534832392778C608.2216532155472,198.08333792859003,606.9128521007175,197.885212047688,605.643405447279,197.68708616678592C604.3739587938403,197.48896028588388,603.1438666017928,197.29083440498184,601.524551192828,196.6688240096441C599.9052357838633,196.0468136143064,597.8966971579815,195.00091870453295,595.3144852525535,194.50669702310597C592.7322733471256,194.012475341679,589.5763881621514,194.0699268885985,587.3696132777962,193.9995897216072C585.162838393441,193.9292525546159,583.9051738097047,193.73112667371387,582.208754344595,193.2328634301745C580.5123348794854,192.73460018663505,578.3771605330022,191.9361995804583,572.9427913828794,187.2969106958933C567.5084222327564,182.65762181132823,558.7748582789935,174.17744464837492,553.8463000355166,169.8382931264472C548.9177417920397,165.49914160451954,547.7941892588486,165.3010157236175,546.925614805528,165.10288984271543C546.0570403522072,164.9047639618134,545.4434439787568,164.70663808091135,544.8254400935174,164.5085122000093C544.2074362082781,164.31038631910727,543.5850248112497,164.11226043820523,542.5669355019755,163.5789086720773C541.5488461927014,163.04555690594938,540.1350789711814,162.17697925459552,537.1508166586653,161.64362748846762C534.1665543461492,161.11027572233968,529.6117969426369,160.91214984143764,526.646620800177,160.37126490934955C523.6814446577167,159.83037997726152,522.3058497763087,158.9467359939874,521.3004075989974,158.40585106189934C520.2949654216861,157.86496612981128,519.6596759484715,157.66684024890924,517.0478992681393,156.86384545414953C514.4361225878072,156.06085065938979,509.8478587003574,154.6529869507724,507.18593580907606,153.8499921560127C504.5240129177949,153.04699736125295,503.7884310226823,152.8488714803509,502.8301562672691,152.0458766855912C501.87188151185575,151.24288189083146,500.6909138961419,149.83501818221407,498.39456788188687,148.19192767376316C496.09822186763193,146.5488371653122,492.6864974548358,144.6705198570277,490.6633741140998,142.43600196613815C488.6402507733638,140.2014840752486,488.00572850468797,137.61076560175397,487.3815830688297,135.61819527640748C486.7574376329714,133.625624951061,486.14366902993066,132.2312027738627,485.5299395699786,130.83678059666434C484.91621011002667,129.442358419466,484.30251979316336,128.04793624226764,478.253882066191,125.45721776877299C472.20524433921855,122.86649929527836,460.72165920213723,119.07948452548744,452.7040027693735,116.48876605199281C444.68634633660986,113.89804757849818,440.13461860816386,112.50362540129983,434.4788600625943,111.70735137224965C428.82310151702495,110.91107734319945,422.0633121543319,110.7129514622974,416.0785324622845,110.51482558139536C410.09375277023696,110.31669970049332,404.88398274883485,110.11857381959128,397.17175983729135,109.56936098216748C389.45953692574784,109.02014814474369,379.2448611240629,108.11984835079816,372.79587962867026,106.4003456583019C366.3468981332776,104.68084296580567,363.66361094417726,102.1421373747587,360.6919801063886,100.7737216387842C357.7203492685999,99.40530590280969,354.46037478212264,99.20718002190766,351.24317977729885,97.25361935839692C348.02598477247506,95.30005869488616,344.85156924930465,91.59106324876673,342.8753863005522,89.63750258525597C340.8992033517996,87.68394192174524,340.1212529774651,87.4858160408432,336.3656761018779,87.01379253428591C332.6100992262908,86.5417690277286,325.87689584945105,85.79584789551605,320.89539657849105,85.32382438895876C315.91389730753104,84.85180088240146,312.68410214245085,84.65367500149942,309.4257090367576,83.31015904967539C306.1673159310644,81.96664309785135,302.8803248847582,79.47773707510532,299.62111760281965,78.13422112328129C296.36191032088124,76.79070517145726,293.1304868033106,76.59257929055522,290.1354444841632,76.39445340965317C287.14040216501576,76.19632752875113,284.3817410442916,75.99820164784909,281.04456855825646,75.80007576694705C277.7073960722213,75.601949886045,273.79171222087524,75.40382400514295,269.17444721899864,75.20569812424091C264.5571822171221,75.00757224333887,259.23833606471504,74.80944636243683,254.20203646955818,74.0386254460738C249.16573687440132,73.26780452971076,244.41198383649473,71.92428857788674,239.75296881619786,71.15346766152369C235.09395379590103,70.38264674516067,230.52967679321395,70.18452086425862,227.18030732073615,69.52454414830738C223.83093784825834,68.86456743235617,221.6964759059898,67.74273988135575,213.5733836494713,62.45193879264465C205.45029139295286,57.16113770393357,191.33856882218447,47.70136307751181,181.30764633614933,41.81648309050082C171.2767238501142,35.93160310348983,165.32660144881234,33.62161775588961,154.24579869457799,30.592836866913203C143.16499594034363,27.5640559779368,126.95351283317677,23.816479547584205,107.38134895862116,20.517066065394555C87.80918508406553,17.217652583204906,64.87634044212119,14.366402049178205,53.40991812114901,12.940776782164853L41.943495800176834,11.515151515151503" />
    <path stroke="orange" d="M827.2065649867375,272.6960791706506L826.618527621925,272.339700693864C826.0304902571125,271.9833222170774,824.8544155274876,271.2705652635042,823.8909934559088,270.69888578265227C822.9275713843299,270.1272063018004,822.176801970797,269.69660429366974,814.1108547094892,267.09552948423817C806.0449074481816,264.4944546748066,790.6637823390989,259.72290706407404,781.3036901931022,257.23843376775477C771.9435980471053,254.75396047143542,768.6045388641942,254.55656148952934,759.5247699480087,253.5950489459971C750.4450010318233,252.63353640246487,735.6245223823635,250.90791029730653,727.5176823362782,250.01362140221667C719.410842290193,249.11933250712673,718.0176408474823,249.0563808221053,714.3176980438817,248.64645564635043C710.6177552402811,248.23653047059562,704.6110710757903,247.47963180410738,699.6735921223959,245.675558614312C694.7361131690014,243.87148542451655,690.8678394267035,241.02023771141398,688.2902033483459,239.44756591255637C685.7125672699882,237.87489411369882,684.4255688555712,237.5807982290863,681.3877822835502,237.19960002645678C678.3499957115292,236.81840182382726,673.5614209819045,236.35010130318082,670.2445402730576,233.74193144229358C666.9276595642108,231.13376158140636,665.0824728761421,226.3857223802784,662.1053815774779,223.8120555957988C659.1282902788139,221.23838881131917,655.0192943695546,220.83909444348788,652.3096051671181,220.51816554563212C649.5999159646815,220.19723664777632,648.2895334690678,219.954673219896,646.6537975343884,219.6237904547422C645.018061599709,219.2929076895883,643.0569722259638,218.87370558716088,640.4500649458674,218.56048638833508C637.843157665771,218.24726718950924,634.5904324793233,218.04003089428497,632.3195216441135,217.84341625326866C630.0486108089035,217.64680161225235,628.7595143249315,217.46080862544397,627.4870888824419,217.2345379143429C626.2146634399522,217.00826720324184,624.9589090389451,216.74171876784803,623.9736451238649,216.50856748908086C622.9883812087846,216.27541621031367,622.2736077796313,216.0756620881731,620.2429024226118,215.80958269288215C618.2121970655924,215.54350329759123,614.8655597807067,215.21109862915,612.8608297773565,214.9046917710657C610.8560997740063,214.5982849129814,610.1932770521915,214.31787586525408,609.2074651338694,214.07454907065937C608.2216532155472,213.83122227606466,606.9128521007175,213.6249777346026,605.643405447279,213.37774950628886C604.3739587938403,213.13052127797516,603.1438666017928,212.8423093628098,601.524551192828,211.90192073990423C599.9052357838633,210.96153211699865,597.8966971579815,209.3689667863529,595.3144852525535,207.77542291521357C592.7322733471256,206.18187904407424,589.5763881621514,204.58735663244138,587.3696132777962,203.69016028900754C585.162838393441,202.79296394557366,583.9051738097047,202.59309367033873,582.208754344595,201.21870888262708C580.5123348794854,199.84432409491546,578.3771605330022,197.2954247947271,572.9427913828794,192.89443767767526C567.5084222327564,188.49345056062342,558.7748582789935,182.2403756267081,553.8463000355166,179.01096935852934C548.9177417920397,175.78156309035055,547.7941892588486,175.57582548790825,546.925614805528,175.29817715346044C546.0570403522072,175.0205288190126,545.4434439787568,174.67096975255922,544.8254400935174,174.39306794860147C544.2074362082781,174.11516614464372,543.5850248112497,173.9089216031817,542.5669355019755,173.57627853949714C541.5488461927014,173.24363547581265,540.1350789711814,172.78459388990566,537.1508166586653,170.17490625517593C534.1665543461492,167.56521862044622,529.6117969426369,162.8048849368937,526.646620800177,160.26894694482573C523.6814446577167,157.73300895275779,522.3058497763087,157.42146665217433,521.3004075989974,157.16257323115155C520.2949654216861,156.9036798101288,519.6596759484715,156.6974352686667,517.0478992681393,155.79438253256976C514.4361225878072,154.89132979647277,509.8478587003574,153.29146886574088,507.18593580907606,152.3630034559639C504.5240129177949,151.43453804618693,503.7884310226823,151.1774681573648,502.8301562672691,150.78275694590423C501.87188151185575,150.38804573444364,500.6909138961419,149.85569320034458,498.39456788188687,148.81425449949504C496.09822186763193,147.77281579864544,492.6864974548358,146.22229093104536,490.6633741140998,145.15173307141737C488.6402507733638,144.08117521178937,488.00572850468797,143.49058436013343,487.3815830688297,142.94347104748638C486.7574376329714,142.39635773483937,486.14366902993066,141.89272196120123,485.5299395699786,141.36992184393887C484.91621011002667,140.8471217266765,484.30251979316336,140.30515726578992,478.253882066191,139.08071625808367C472.20524433921855,137.85627525037745,460.72165920213723,135.9493576958516,452.7040027693735,133.85750497222185C444.68634633660986,131.76565224859212,440.13461860816386,129.48886435585848,434.4788600625943,128.24703073330525C428.82310151702495,127.00519711075196,422.0633121543319,126.79831775837907,416.0785324622845,126.59628659636563C410.09375277023696,126.39425543435219,404.88398274883485,126.1970724626982,397.17175983729135,125.89428876313663C389.45953692574784,125.59150506357508,379.2448611240629,125.18312063610595,372.79587962867026,123.92076266750969C366.3468981332776,122.65840469891346,363.66361094417726,120.54207318919009,360.6919801063886,119.37412502842524C357.7203492685999,118.2061768676604,354.46037478212264,117.9866120558541,351.24317977729885,115.18713992379838C348.02598477247506,112.38766779174267,344.85156924930465,107.00828833943758,342.8753863005522,104.25290516429247C340.8992033517996,101.49752198914734,340.1212529774651,101.3661350911622,336.3656761018779,101.18626996001002C332.6100992262908,101.00640482885787,325.87689584945105,100.77806146453867,320.89539657849105,100.34898878045381C315.91389730753104,99.91991609636896,312.68410214245085,99.29011409251846,309.4257090367576,95.44633444210997C306.1673159310644,91.6025547917015,302.8803248847582,84.54479749473504,299.62111760281965,80.77513808716712C296.36191032088124,77.0054786795992,293.1304868033106,76.5239171614298,290.1354444841632,76.09407229205961C287.14040216501576,75.66422742268944,284.3817410442916,75.28609920211846,281.04456855825646,74.99391282110194C277.7073960722213,74.70172644008541,273.79171222087524,74.49548189862334,269.17444721899864,74.2919520353907C264.5571822171221,74.08842217215806,259.23833606471504,73.88760698715487,254.20203646955818,73.02839997184742C249.16573687440132,72.16919295653999,244.41198383649473,70.65159411092829,239.75296881619786,69.73888468367863C235.09395379590103,68.82617525642898,230.52967679321395,68.51835524754135,227.18030732073615,68.03110039499403C223.83093784825834,67.54384554244672,221.6964759059898,66.8771558462397,213.5733836494713,60.92586780949707C205.45029139295286,54.97457977275442,191.33856882218447,43.73869339547614,181.30764633614933,37.496784876189075C171.2767238501142,31.254876356902006,165.32660144881234,30.00694569560616,154.24579869457799,27.403720767341493C143.16499594034363,24.80049583907682,126.95351283317677,20.841976643843335,107.38134895862116,17.49931848799032C87.80918508406553,14.1566603321373,64.87634044212119,11.429863215664747,53.40991812114901,10.066464657428474L41.943495800176834,8.703066099192199" />
  </g>
  
  <g class="axis y" stroke="black" fill="none" stroke-dasharray="4 6">
    <path d="M 0,285 h900" /><path d="M 0,190 h900" /><path d="M 0,95 h900" />
  </g>
  <g
    class="axis x"
    stroke="black" fill="none"
    transform="translate(0, 380)">
  
  <path d="M0,0 h900" />
  <g transform="translate(833, 0)">
      <text text-anchor="middle"
      fill="black"
      stroke="none"
      transform="translate(0, 12)">Feb</text>
      <path d="M0,0 v-5" />
    </g><g transform="translate(759, 0)">
      <text text-anchor="middle"
      fill="black"
      stroke="none"
      transform="translate(0, 12)">Jan ’22</text>
      <path d="M0,0 v-5" />
    </g><g transform="translate(685, 0)">
      <text text-anchor="middle"
      fill="black"
      stroke="none"
      transform="translate(0, 12)">Dec</text>
      <path d="M0,0 v-5" />
    </g><g transform="translate(614, 0)">
      <text text-anchor="middle"
      fill="black"
      stroke="none"
      transform="translate(0, 12)">Nov</text>
      <path d="M0,0 v-5" />
    </g><g transform="translate(540, 0)">
      <text text-anchor="middle"
      fill="black"
      stroke="none"
      transform="translate(0, 12)">Oct</text>
      <path d="M0,0 v-5" />
    </g><g transform="translate(468, 0)">
      <text text-anchor="middle"
      fill="black"
      stroke="none"
      transform="translate(0, 12)">Sep</text>
      <path d="M0,0 v-5" />
    </g><g transform="translate(394, 0)">
      <text text-anchor="middle"
      fill="black"
      stroke="none"
      transform="translate(0, 12)">Aug</text>
      <path d="M0,0 v-5" />
    </g><g transform="translate(320, 0)">
      <text text-anchor="middle"
      fill="black"
      stroke="none"
      transform="translate(0, 12)">Jul</text>
      <path d="M0,0 v-5" />
    </g><g transform="translate(248, 0)">
      <text text-anchor="middle"
      fill="black"
      stroke="none"
      transform="translate(0, 12)">Jun</text>
      <path d="M0,0 v-5" />
    </g><g transform="translate(174, 0)">
      <text text-anchor="middle"
      fill="black"
      stroke="none"
      transform="translate(0, 12)">May</text>
      <path d="M0,0 v-5" />
    </g><g transform="translate(103, 0)">
      <text text-anchor="middle"
      fill="black"
      stroke="none"
      transform="translate(0, 12)">Apr</text>
      <path d="M0,0 v-5" />
    </g><g transform="translate(29, 0)">
      <text text-anchor="middle"
      fill="black"
      stroke="none"
      transform="translate(0, 12)">Mar</text>
      <path d="M0,0 v-5" />
    </g><g transform="translate(-38, 0)">
      <text text-anchor="middle"
      fill="black"
      stroke="none"
      transform="translate(0, 12)">Feb</text>
      <path d="M0,0 v-5" />
    </g>
  
  </g>
</svg>