<svg xmlns="http://www.w3.org/2000/svg"
  viewBox="0 0 900 400"
  width="900"
  height="400">
  <style>
    text {
      font-family: "Courier New", Courier, monospace;
      font-size: 12px;
    }
  </style>
  <g class="lines" fill="none">
    <path stroke="darkblue" d="M828.0860471491228,88.11594202898551L813.2572934055055,90.06720171618001C798.428539661888,92.0184614033745,768.771032174653,95.92098077776349,741.4625234538656,98.10980608469394C714.1540147330779,100.29863139162437,689.194504778738,100.77376263109625,671.9953185177457,102.92845074572055C654.7961322567535,105.08313886034485,645.3572696891093,108.91738385012157,639.9866520501931,111.77374693161029C634.6160344112769,114.63011001309901,633.313661701089,116.50859118629971,632.2222628121727,118.38707235950044C631.1308639232566,120.26555353270112,630.2504388556123,122.14403470590184,622.1125873442546,124.85714120209995C613.9747358328968,127.57024769829805,598.5794578778258,131.11797951749358,589.1576784150792,132.84558611307554C579.7358989523326,134.57319270865744,576.2876179819106,134.48067408062582,567.1439486708452,135.36723515841803C558.0002793597799,136.25379623621026,543.1612217080715,138.1194370198264,534.9828002497109,139.00197934973338C526.8043787913502,139.88452167964033,525.2865935263376,139.7839655558382,521.480278016442,140.31024335868509C517.6739625065462,140.83652116153198,511.57911675176746,141.98963289102792,506.5450351143133,143.76298950064498C501.51095347685913,145.53634611026203,497.5376359567295,147.92994760000022,494.8447668558251,149.64867626997093C492.1518977549206,151.36740493994165,490.73947707324123,152.41126079014492,487.59009024572856,153.38611218450987C484.4407034182159,154.36096357887476,479.55435044486995,155.26681051740132,476.1280728552959,157.09600279357463C472.70179526572184,158.92519506974793,470.73559305991967,161.67773268356794,467.6464223325532,163.34700987160787C464.55725160518676,165.0162870596478,460.34511235625604,165.6023038219076,457.52123265593633,165.99992746664046C454.6973529556167,166.3975511113733,453.26173280390816,166.60678163857915,451.50332779291597,167.05150356269374C449.7449227819238,167.49622548680836,447.6637329116479,168.17643880783166,444.94182369743936,168.62116073194625C442.21991448323075,169.06588265606084,438.85728592508946,169.2751131832667,436.4687205522552,169.48434371047256C434.0801551794209,169.6935742376784,432.66565299189364,169.90280476488428,431.26769023236346,170.53591980652587C429.8697274728332,171.1690348481674,428.48830414130015,172.2260344042447,427.3752358444892,172.85914944588626C426.2621675476783,173.4922644875278,425.41745428558966,173.7014950147337,423.26719803190736,174.33461005637525C421.1169417782251,174.9677250980168,417.66114253294927,176.02472465409406,415.5366565643547,177.0817242101713C413.4121705957602,178.1387237662486,412.618997903847,179.19572332232588,411.50538593013545,179.82883836396744C410.391773956424,180.46195340560897,408.9577227009143,180.67118393281484,407.56271521367944,180.88041446002072C406.1677077264446,181.0896449872266,404.8117440074845,181.29887551443244,403.0696298864777,181.931990556074C401.3275157654709,182.5651055977156,399.19925124241723,183.62210515379286,396.50184243939293,184.12743148152367C393.8044336363685,184.63275780925446,390.53788055337344,184.58641090863878,388.2129447949398,184.66785272193388C385.88800903650605,184.74929453522896,384.50469060263373,184.95852506243486,382.6860811417146,185.46789295227805C380.8674716807955,185.9772608421213,378.61357119282974,186.78676609460186,373.08652217598956,191.43715962547074C367.5594731591494,196.08755315633962,358.75927561343497,204.5788349655968,353.73404425924105,208.92909113382828C348.7088129050471,213.27934730205982,347.45854774237364,213.48857782926567,346.46124767472946,213.69780835647157C345.4639476070852,213.90703888367742,344.7196126344702,214.1162694108833,343.9709049462119,214.32549993808917C343.22219725795367,214.53473046529504,342.4691168540521,214.7439609925009,341.32348231089617,215.28841740493263C340.1778477677403,215.8328738173644,338.6396590853299,216.712556115022,335.5433739573787,217.25701252745375C332.44708882942746,217.8014689398855,327.7927072559353,218.0106994670914,324.71535761775016,218.56268904548327C321.638007979565,219.1146786238752,320.1376902766868,220.00942725345308,319.00460301971503,220.561416831845C317.8715157627433,221.11340641023685,317.105658951678,221.32263693744275,314.3789187798671,222.13673637850627C311.6521786080562,222.9508358195698,306.9645550754997,224.36980417449104,304.1880645838789,225.18390361555456C301.41157409225804,225.99800305661813,300.5462166415728,226.20723358382398,299.4599244321157,227.02133302488755C298.3736322226586,227.83543246595113,297.06640525442964,229.25440082087235,294.6526055065953,230.9085959756271C292.2388057587611,232.5627911303819,288.7184332313215,234.45221308497017,286.57569913589947,236.69783562216355C284.4329650404774,238.94345815935694,283.667869377073,241.54528127915538,282.9130686241217,243.54895625080567C282.15826787117044,245.55263122245597,281.4137620286724,246.95815804595816,280.66929502023874,248.36368486946034C279.924828011805,249.76921169296247,279.1803998374357,251.17473851646469,273.0439317325107,253.77656163626315C266.9074636275858,256.3783847560616,255.37895559210529,260.1765041721564,247.28901366590836,262.77832729195484C239.1990717397115,265.3801504117533,234.54769592279828,266.78567723525543,228.80100532152827,267.5930559106094C223.0543147202583,268.40043458596347,216.21230933463164,268.60966511316934,210.13919512225058,268.8188956403752C204.06608090986947,269.0281261675811,198.76185787073405,269.2373566947869,190.9749381484845,269.7976741785145C183.18801842623506,270.3579916622421,172.91840202087153,271.2693961024915,166.38475075622435,273.0000034412916C159.8510994915772,274.7306107800917,157.05341336764639,277.28042101744245,153.9696599922536,278.65994139972076C150.88590661686086,280.03946178199914,147.5160859900061,280.24869230920496,144.18870711205486,282.2133576190195C140.86132823410358,284.1780229288341,137.57639110505588,287.89812302125733,135.48022681957536,289.8627883310719C133.38406253409485,291.82745364088646,132.47667109218162,292.03668416809234,128.61516072665728,292.51981232095346C124.75365036113293,293.0029404738146,117.93802107199747,293.759966252331,112.86026664580059,294.24309440519215C107.7825122196037,294.7262225580533,104.44263265634544,294.9354530852591,101.07438092568951,296.290073683387C97.7061291950336,297.64469428151483,94.30950529698002,300.14470495056463,90.94044581778606,301.49932554869247C87.57138633859215,302.85394614682036,84.22989127825784,303.06317667402624,81.12291124899079,303.2724072012321C78.01593121972375,303.481637728438,75.14346622152397,303.6908682556438,71.69705705300254,303.9000987828497C68.2506478844811,304.10932931005556,64.23029454563803,304.31855983726143,59.513898854821285,304.5277903644673C54.797503164004524,304.7370208916732,49.3850651212141,304.94625141887906,44.25294300495875,305.7281769815459C39.120820888703406,306.51010254421277,34.26901469898315,307.8647231423406,29.511198595154706,308.64664870500746C24.75338249132626,309.4285742676743,20.089556473389624,309.6378047948802,16.631046610423752,310.30888615713525C13.172536747457876,310.9799675193903,10.91934303946276,312.1128997166945,2.7247976775933793,317.41480545170947C-5.469747684276001,322.71671118672435,-19.605644700019646,332.18759045944995,-29.69295847380423,338.08357509276476C-39.78027224758881,343.9795597260796,-45.81900277941434,346.3006497199836,-56.947908292965,349.34053525526383C-68.07681380651567,352.3804207905441,-84.29589430179148,356.1391018672005,-103.84912387418719,359.44961999569404C-123.40235344658288,362.7601381241875,-146.28973209609845,365.622493304518,-157.73342142085627,367.0536708946832L-169.17711074561404,368.4848484848485" />
    <path stroke="blue" d="M828.0860471491228,74.73805475400574L813.2572934055055,77.75703310796767C798.428539661888,80.77601146192957,768.771032174653,86.81396816985341,741.4625234538656,90.17221993375813C714.1540147330779,93.53047169766283,689.194504778738,94.20901851754843,671.9953185177457,96.13550675216084C654.7961322567535,98.06199498677326,645.3572696891093,101.23642463611249,639.9866520501931,103.18755196502678C634.6160344112769,105.13867929394108,633.313661701089,105.86650430243041,632.2222628121727,106.45325183819845C631.1308639232566,107.0399993739665,630.2504388556123,107.48566943701321,622.1125873442546,110.10181230136094C613.9747358328968,112.71795516570864,598.5794578778258,117.50457083135736,589.1576784150792,120.0041121825928C579.7358989523326,122.50365353382828,576.2876179819106,122.71612057065049,567.1439486708452,123.69270116909884C558.0002793597799,124.6692817675472,543.1612217080715,126.4099759276217,534.9828002497109,127.31933287762774C526.8043787913502,128.22868982763376,525.2865935263376,128.30670956757135,521.480278016442,128.7317027982423C517.6739625065462,129.15669602891327,511.57911675176746,129.9286627503176,506.5450351143133,131.74780399502916C501.51095347685913,133.5669452397407,497.5376359567295,136.43326100775946,494.8447668558251,138.02100086153317C492.1518977549206,139.60874071530688,490.73947707324123,139.91790465483555,487.59009024572856,140.31417091238117C484.4407034182159,140.71043716992682,479.55435044486995,141.1938057454894,476.1280728552959,143.8170436612928C472.70179526572184,146.44028157709613,470.73559305991967,151.20338883314022,467.6464223325532,153.79212367253598C464.55725160518676,156.38085851193173,460.34511235625604,156.79522093467912,457.52123265593633,157.13121788745104C454.6973529556167,157.46721484022297,453.26173280390816,157.7248463230194,451.50332779291597,158.07079714308938C449.7449227819238,158.4167479631594,447.6637329116479,158.8510181205029,444.94182369743936,159.17930537424488C442.21991448323075,159.50759262798684,438.85728592508946,159.72989697812724,436.4687205522552,159.94157967405968C434.0801551794209,160.15326236999215,432.66565299189364,160.35432341171665,431.26769023236346,160.59566217773386C429.8697274728332,160.83700094375106,428.48830414130015,161.118617434061,427.3752358444892,161.3668367677443C426.2621675476783,161.61505610142763,425.41745428558966,161.82987827848436,423.26719803190736,162.1110257286914C421.1169417782251,162.39217317889845,417.66114253294927,162.73964590225583,415.5366565643547,163.06112081525626C413.4121705957602,163.3825957282567,412.618997903847,163.67807283090013,411.50538593013545,163.93646768041097C410.391773956424,164.19486252992178,408.9577227009143,164.4161751263,407.56271521367944,164.67847140952986C406.1677077264446,164.94076769275972,404.8117440074845,165.24404766284124,403.0696298864777,166.19950434066297C401.3275157654709,167.15496101848467,399.19925124241723,168.76259440404655,396.50184243939293,170.371206330102C393.8044336363685,171.97981825615747,390.53788055337344,173.58940872270645,388.2129447949398,174.50167312105643C385.88800903650605,175.41393751940646,384.50469060263373,175.62887584955752,382.6860811417146,177.01832869218526C380.8674716807955,178.40778153481304,378.61357119282974,180.97174888991754,373.08652217598956,185.3878040618855C367.5594731591494,189.80385923385347,358.75927561343497,196.0720022226849,353.73404425924105,199.3164765457798C348.7088129050471,202.56095086887476,347.45854774237364,202.78175652623315,346.46124767472946,203.0744729155971C345.4639476070852,203.3671893049611,344.7196126344702,203.73181642633062,343.9709049462119,204.0247862852045C343.22219725795367,204.31775614407834,342.4691168540521,204.53906874045654,341.32348231089617,204.8867798590572C340.1778477677403,205.23449097765788,338.6396590853299,205.70860061848097,335.5433739573787,208.33335630812687C332.44708882942746,210.9581119977727,327.7927072559353,215.73351373624132,324.71535761775016,218.28451978322542C321.638007979565,220.83552583020955,320.1376902766868,221.1621361857091,319.00460301971503,221.436097661648C317.8715157627433,221.71005913758688,317.105658951678,221.93137173396508,314.3789187798671,222.84949252497822C311.6521786080562,223.76761331599133,306.9645550754997,225.38254230163932,304.1880645838789,226.32607576633245C301.41157409225804,227.26960923102558,300.5462166415728,227.54174717476383,299.4599244321157,227.95152644114054C298.3736322226586,228.3613057075173,297.06640525442964,228.90872629653245,294.6526055065953,229.96523305229812C292.2388057587611,231.02173980806387,288.7184332313215,232.5873327305801,286.57569913589947,233.67295864512425C284.4329650404774,234.75858455966838,283.667869377073,235.36424346624042,282.9130686241217,235.9264248338036C282.15826787117044,236.48860620136676,281.4137620286724,237.007310029921,280.66929502023874,237.54517820209955C279.924828011805,238.08304637427798,279.1803998374357,238.64007889008076,273.0439317325107,239.8795879527031C266.9074636275858,241.11909701532545,255.37895559210529,243.04108262476745,247.28901366590836,245.1480034033133C239.1990717397115,247.2549241818592,234.54769592279828,249.54678012950896,228.80100532152827,250.80368180697835C223.0543147202583,252.06058348444776,216.21230933463164,252.2825308917368,210.13919512225058,252.49963010866637C204.06608090986947,252.71672932559594,198.76185787073405,252.92898035216604,190.9749381484845,253.24683210664375C183.18801842623506,253.56468386112144,172.91840202087153,253.98813634350668,166.38475075622435,255.26556236701904C159.8510994915772,256.54298839053143,157.05341336764639,258.67438795517097,153.9696599922536,259.8574041708519C150.88590661686086,261.0404203865329,147.5160859900061,261.27505325325535,144.18870711205486,264.0895934402272C140.86132823410358,266.90413362719903,137.57639110505588,272.29858113442026,135.48022681957536,275.06903236448153C133.38406253409485,277.8394835945428,132.47667109218162,277.98593854744405,128.61516072665728,278.1808717335124C124.75365036113293,278.3758049195807,117.93802107199747,278.619216338816,112.86026664580059,279.063357077817C107.7825122196037,279.50749781681793,104.44263265634544,280.1523678755846,101.07438092568951,284.0112155809092C97.7061291950336,287.8700632862338,94.30950529698002,294.9428886381165,90.94044581778606,298.72761610060047C87.57138633859215,302.5123435630846,84.22989127825784,303.00897313617014,81.12291124899079,303.45388606045645C78.01593121972375,303.89879898474277,75.14346622152397,304.29199526022984,71.69705705300254,304.5992496961625C68.2506478844811,304.9065041320951,64.23029454563803,305.1278167284733,59.513898854821285,305.3464146466221C54.797503164004524,305.5650125647708,49.3850651212141,305.78089580469015,44.25294300495875,306.6551708749137C39.120820888703406,307.5294459451373,34.26901469898315,309.0621128456651,29.511198595154706,309.98989032783095C24.75338249132626,310.9176678099968,20.089556473389624,311.24055587380053,16.631046610423752,311.742878781264C13.172536747457876,312.24520168872743,10.91934303946276,312.9269594398506,2.7247976775933793,318.89331553150936C-5.469747684276001,324.85967162316814,-19.605644700019646,336.1106260553625,-29.69295847380423,342.3676026295657C-39.78027224758881,348.6245792037689,-45.81900277941434,349.8875779199809,-56.947908292965,352.5058709031617C-68.07681380651567,355.12416388634256,-84.29589430179148,359.09775113649215,-103.84912387418719,362.45547734726125C-123.40235344658288,365.8132035580304,-146.28973209609845,368.55506872941913,-157.73342142085627,369.9260013151134L-169.17711074561404,371.2969339008078" />
    
    <path stroke="darkorange" d="M828.0860471491228,291.8840579710145L813.2572934055055,289.93279828382C798.428539661888,287.9815385966255,768.771032174653,284.07901922223647,741.4625234538656,281.89019391530604C714.1540147330779,279.7013686083756,689.194504778738,279.22623736890375,671.9953185177457,277.07154925427943C654.7961322567535,274.91686113965517,645.3572696891093,271.08261614987845,639.9866520501931,268.2262530683897C634.6160344112769,265.369889986901,633.313661701089,263.4914088137003,632.2222628121727,261.6129276404996C631.1308639232566,259.73444646729894,630.2504388556123,257.8559652940982,622.1125873442546,255.1428587979001C613.9747358328968,252.42975230170194,598.5794578778258,248.88202048250642,589.1576784150792,247.15441388692446C579.7358989523326,245.42680729134256,576.2876179819106,245.51932591937418,567.1439486708452,244.63276484158197C558.0002793597799,243.7462037637897,543.1612217080715,241.88056298017364,534.9828002497109,240.99802065026665C526.8043787913502,240.11547832035967,525.2865935263376,240.21603444416186,521.480278016442,239.68975664131494C517.6739625065462,239.16347883846802,511.57911675176746,238.0103671089721,506.5450351143133,236.23701049935505C501.51095347685913,234.463653889738,497.5376359567295,232.0700523999998,494.8447668558251,230.35132373002907C492.1518977549206,228.63259506005838,490.73947707324123,227.5887392098551,487.59009024572856,226.61388781549013C484.4407034182159,225.63903642112527,479.55435044486995,224.7331894825987,476.1280728552959,222.9039972064254C472.70179526572184,221.0748049302521,470.73559305991967,218.3222673164321,467.6464223325532,216.65299012839213C464.55725160518676,214.98371294035223,460.34511235625604,214.3976961780924,457.52123265593633,214.00007253335954C454.6973529556167,213.60244888862667,453.26173280390816,213.39321836142082,451.50332779291597,212.94849643730626C449.7449227819238,212.50377451319164,447.6637329116479,211.82356119216834,444.94182369743936,211.37883926805375C442.21991448323075,210.93411734393916,438.85728592508946,210.7248868167333,436.4687205522552,210.51565628952744C434.0801551794209,210.30642576232154,432.66565299189364,210.0971952351157,431.26769023236346,209.46408019347413C429.8697274728332,208.83096515183254,428.48830414130015,207.7739655957553,427.3752358444892,207.14085055411374C426.2621675476783,206.5077355124722,425.41745428558966,206.2985049852663,423.26719803190736,205.66538994362475C421.1169417782251,205.03227490198321,417.66114253294927,203.97527534590594,415.5366565643547,202.9182757898287C413.4121705957602,201.86127623375145,412.618997903847,200.80427667767415,411.50538593013545,200.1711616360326C410.391773956424,199.53804659439098,408.9577227009143,199.32881606718513,407.56271521367944,199.11958553997928C406.1677077264446,198.91035501277338,404.8117440074845,198.70112448556753,403.0696298864777,198.06800944392594C401.3275157654709,197.4348944022844,399.19925124241723,196.37789484620714,396.50184243939293,195.87256851847633C393.8044336363685,195.36724219074554,390.53788055337344,195.41358909136122,388.2129447949398,195.33214727806612C385.88800903650605,195.25070546477102,384.50469060263373,195.04147493756514,382.6860811417146,194.5321070477219C380.8674716807955,194.0227391578787,378.61357119282974,193.21323390539808,373.08652217598956,188.56284037452926C367.5594731591494,183.91244684366038,358.75927561343497,175.4211650344032,353.73404425924105,171.07090886617172C348.7088129050471,166.72065269794018,347.45854774237364,166.51142217073433,346.46124767472946,166.30219164352846C345.4639476070852,166.09296111632258,344.7196126344702,165.8837305891167,343.9709049462119,165.67450006191083C343.22219725795367,165.46526953470496,342.4691168540521,165.2560390074991,341.32348231089617,164.71158259506737C340.1778477677403,164.1671261826356,338.6396590853299,163.28744388497796,335.5433739573787,162.74298747254622C332.44708882942746,162.19853106011445,327.7927072559353,161.9893005329086,324.71535761775016,161.4373109545167C321.638007979565,160.8853213761248,320.1376902766868,159.9905727465469,319.00460301971503,159.43858316815502C317.8715157627433,158.88659358976312,317.105658951678,158.67736306255725,314.3789187798671,157.8632636214937C311.6521786080562,157.04916418043015,306.9645550754997,155.63019582550893,304.1880645838789,154.8160963844454C301.41157409225804,154.00199694338184,300.5462166415728,153.79276641617597,299.4599244321157,152.97866697511245C298.3736322226586,152.1645675340489,297.06640525442964,150.74559917912768,294.6526055065953,149.0914040243729C292.2388057587611,147.43720886961816,288.7184332313215,145.54778691502983,286.57569913589947,143.30216437783645C284.4329650404774,141.05654184064306,283.667869377073,138.45471872084462,282.9130686241217,136.45104374919433C282.15826787117044,134.447368777544,281.4137620286724,133.04184195404184,280.66929502023874,131.63631513053966C279.924828011805,130.2307883070375,279.1803998374357,128.82526148353534,273.0439317325107,126.22343836373688C266.9074636275858,123.6216152439384,255.37895559210529,119.82349582784366,247.28901366590836,117.2216727080452C239.1990717397115,114.61984958824674,234.54769592279828,113.21432276474457,228.80100532152827,112.40694408939055C223.0543147202583,111.59956541403653,216.21230933463164,111.39033488683067,210.13919512225058,111.18110435962483C204.06608090986947,110.97187383241895,198.76185787073405,110.76264330521307,190.9749381484845,110.20232582148547C183.18801842623506,109.64200833775787,172.91840202087153,108.7306038975085,166.38475075622435,106.99999655870842C159.8510994915772,105.26938921990836,157.05341336764639,102.71957898255755,153.9696599922536,101.34005860027924C150.88590661686086,99.9605382180009,147.5160859900061,99.75130769079503,144.18870711205486,97.78664238098047C140.86132823410358,95.8219770711659,137.57639110505588,92.10187697874262,135.48022681957536,90.13721166892806C133.38406253409485,88.1725463591135,132.47667109218162,87.96331583190765,128.61516072665728,87.48018767904652C124.75365036113293,86.9970595261854,117.93802107199747,86.24003374766902,112.86026664580059,85.7569055948079C107.7825122196037,85.27377744194678,104.44263265634544,85.0645469147409,101.07438092568951,83.70992631661305C97.7061291950336,82.3553057184852,94.30950529698002,79.85529504943536,90.94044581778606,78.50067445130749C87.57138633859215,77.14605385317964,84.22989127825784,76.93682332597378,81.12291124899079,76.7275927987679C78.01593121972375,76.51836227156203,75.14346622152397,76.30913174435618,71.69705705300254,76.0999012171503C68.2506478844811,75.89067068994443,64.23029454563803,75.68144016273857,59.513898854821285,75.47220963553269C54.797503164004524,75.26297910832683,49.3850651212141,75.05374858112096,44.25294300495875,74.2718230184541C39.120820888703406,73.48989745578724,34.26901469898315,72.13527685765939,29.511198595154706,71.35335129499254C24.75338249132626,70.57142573232568,20.089556473389624,70.3621952051198,16.631046610423752,69.69111384286475C13.172536747457876,69.0200324806097,10.91934303946276,67.88710028330546,2.7247976775933793,62.58519454829053C-5.469747684276001,57.28328881327562,-19.605644700019646,47.81240954055004,-29.69295847380423,41.91642490723523C-39.78027224758881,36.02044027392042,-45.81900277941434,33.699350280016375,-56.947908292965,30.65946474473615C-68.07681380651567,27.61957920945592,-84.29589430179148,23.860898132799505,-103.84912387418719,20.55038000430603C-123.40235344658288,17.23986187581256,-146.28973209609845,14.377506695482031,-157.73342142085627,12.946329105316769L-169.17711074561404,11.515151515151503" />
    <path stroke="orange" d="M828.0860471491228,305.26194524599424L813.2572934055055,302.2429668920323C798.428539661888,299.2239885380704,768.771032174653,293.18603183014653,741.4625234538656,289.8277800662418C714.1540147330779,286.46952830233715,689.194504778738,285.79098148245157,671.9953185177457,283.86449324783916C654.7961322567535,281.93800501322676,645.3572696891093,278.76357536388747,639.9866520501931,276.81244803497316C634.6160344112769,274.8613207060589,633.313661701089,274.1334956975696,632.2222628121727,273.54674816180153C631.1308639232566,272.9600006260335,630.2504388556123,272.5143305629868,622.1125873442546,269.89818769863905C613.9747358328968,267.28204483429136,598.5794578778258,262.49542916864266,589.1576784150792,259.9958878174072C579.7358989523326,257.4963464661717,576.2876179819106,257.2838794293495,567.1439486708452,256.3072988309012C558.0002793597799,255.3307182324528,543.1612217080715,253.59002407237833,534.9828002497109,252.68066712237228C526.8043787913502,251.77131017236624,525.2865935263376,251.69329043242865,521.480278016442,251.2682972017577C517.6739625065462,250.8433039710867,511.57911675176746,250.0713372496824,506.5450351143133,248.25219600497084C501.51095347685913,246.4330547602593,497.5376359567295,243.56673899224054,494.8447668558251,241.97899913846683C492.1518977549206,240.39125928469312,490.73947707324123,240.08209534516445,487.59009024572856,239.68582908761883C484.4407034182159,239.28956283007315,479.55435044486995,238.8061942545106,476.1280728552959,236.1829563387072C472.70179526572184,233.55971842290387,470.73559305991967,228.79661116685978,467.6464223325532,226.20787632746405C464.55725160518676,223.6191414880683,460.34511235625604,223.20477906532088,457.52123265593633,222.86878211254898C454.6973529556167,222.53278515977703,453.26173280390816,222.2751536769806,451.50332779291597,221.92920285691062C449.7449227819238,221.5832520368406,447.6637329116479,221.1489818794971,444.94182369743936,220.8206946257551C442.21991448323075,220.49240737201316,438.85728592508946,220.27010302187273,436.4687205522552,220.05842032594032C434.0801551794209,219.84673763000785,432.66565299189364,219.64567658828335,431.26769023236346,219.40433782226614C429.8697274728332,219.16299905624894,428.48830414130015,218.88138256593902,427.3752358444892,218.6331632322557C426.2621675476783,218.38494389857237,425.41745428558966,218.17012172151567,423.26719803190736,217.8889742713086C421.1169417782251,217.60782682110153,417.66114253294927,217.26035409774417,415.5366565643547,216.93887918474374C413.4121705957602,216.6174042717433,412.618997903847,216.32192716909984,411.50538593013545,216.06353231958903C410.391773956424,215.8051374700782,408.9577227009143,215.5838248737,407.56271521367944,215.32152859047008C406.1677077264446,215.05923230724025,404.8117440074845,214.75595233715876,403.0696298864777,213.80049565933703C401.3275157654709,212.84503898151533,399.19925124241723,211.23740559595345,396.50184243939293,209.628793669898C393.8044336363685,208.02018174384253,390.53788055337344,206.41059127729355,388.2129447949398,205.49832687894357C385.88800903650605,204.58606248059357,384.50469060263373,204.3711241504425,382.6860811417146,202.98167130781474C380.8674716807955,201.592218465187,378.61357119282974,199.02825111008246,373.08652217598956,194.6121959381145C367.5594731591494,190.19614076614653,358.75927561343497,183.92799777731508,353.73404425924105,180.68352345422014C348.7088129050471,177.43904913112524,347.45854774237364,177.21824347376685,346.46124767472946,176.9255270844029C345.4639476070852,176.6328106950389,344.7196126344702,176.26818357366938,343.9709049462119,175.9752137147955C343.22219725795367,175.68224385592166,342.4691168540521,175.46093125954346,341.32348231089617,175.1132201409428C340.1778477677403,174.76550902234212,338.6396590853299,174.29139938151903,335.5433739573787,171.66664369187313C332.44708882942746,169.0418880022273,327.7927072559353,164.26648626375865,324.71535761775016,161.71548021677458C321.638007979565,159.16447416979045,320.1376902766868,158.8378638142909,319.00460301971503,158.563902338352C317.8715157627433,158.2899408624131,317.105658951678,158.0686282660349,314.3789187798671,157.15050747502178C311.6521786080562,156.23238668400867,306.9645550754997,154.61745769836065,304.1880645838789,153.67392423366752C301.41157409225804,152.7303907689744,300.5462166415728,152.45825282523617,299.4599244321157,152.04847355885946C298.3736322226586,151.6386942924827,297.06640525442964,151.09127370346752,294.6526055065953,150.03476694770183C292.2388057587611,148.97826019193613,288.7184332313215,147.41266726941993,286.57569913589947,146.32704135487577C284.4329650404774,145.24141544033165,283.667869377073,144.63575653375958,282.9130686241217,144.0735751661964C282.15826787117044,143.51139379863324,281.4137620286724,142.992689970079,280.66929502023874,142.4548217979005C279.924828011805,141.91695362572202,279.1803998374357,141.35992110991927,273.0439317325107,140.1204120472969C266.9074636275858,138.88090298467455,255.37895559210529,136.95891737523255,247.28901366590836,134.8519965966867C239.1990717397115,132.7450758181408,234.54769592279828,130.45321987049104,228.80100532152827,129.19631819302163C223.0543147202583,127.93941651555224,216.21230933463164,127.71746910826319,210.13919512225058,127.50036989133362C204.06608090986947,127.28327067440405,198.76185787073405,127.07101964783395,190.9749381484845,126.75316789335626C183.18801842623506,126.43531613887858,172.91840202087153,126.0118636564933,166.38475075622435,124.73443763298093C159.8510994915772,123.45701160946852,157.05341336764639,121.32561204482903,153.9696599922536,120.14259582914805C150.88590661686086,118.95957961346708,147.5160859900061,118.72494674674464,144.18870711205486,115.9104065597728C140.86132823410358,113.09586637280096,137.57639110505588,107.70141886557973,135.48022681957536,104.93096763551847C133.38406253409485,102.16051640545724,132.47667109218162,102.01406145255596,128.61516072665728,101.81912826648767C124.75365036113293,101.62419508041937,117.93802107199747,101.38078366118403,112.86026664580059,100.93664292218303C107.7825122196037,100.49250218318203,104.44263265634544,99.8476321244154,101.07438092568951,95.98878441909079C97.7061291950336,92.12993671376616,94.30950529698002,85.05711136188357,90.94044581778606,81.27238389939951C87.57138633859215,77.48765643691546,84.22989127825784,76.99102686382993,81.12291124899079,76.54611393954362C78.01593121972375,76.1012010152573,75.14346622152397,75.7080047397702,71.69705705300254,75.40075030383754C68.2506478844811,75.09349586790489,64.23029454563803,74.87218327152668,59.513898854821285,74.6535853533779C54.797503164004524,74.43498743522913,49.3850651212141,74.21910419530981,44.25294300495875,73.34482912508622C39.120820888703406,72.47055405486266,34.26901469898315,70.93788715433483,29.511198595154706,70.01010967216905C24.75338249132626,69.08233219000326,20.089556473389624,68.7594441261995,16.631046610423752,68.25712121873603C13.172536747457876,67.7547983112726,10.91934303946276,67.07304056014945,2.7247976775933793,61.10668446849068C-5.469747684276001,55.140328376831896,-19.605644700019646,43.88937394463748,-29.69295847380423,37.63239737043428C-39.78027224758881,31.37542079623108,-45.81900277941434,30.112422080019098,-56.947908292965,27.494129096838293C-68.07681380651567,24.87583611365749,-84.29589430179148,20.902248863507868,-103.84912387418719,17.544522652738717C-123.40235344658288,14.186796441969568,-146.28973209609845,11.444931270580883,-157.73342142085627,10.073998684886542L-169.17711074561404,8.703066099192199" />
  </g>
  
  <g class="axis y" stroke="black" fill="none" stroke-dasharray="4 6">
    <path d="M 0,285 h900" /><path d="M 0,190 h900" /><path d="M 0,95 h900" />
  </g>
  <g
    class="axis x"
    stroke="black" fill="none"
    transform="translate(0, 380)">
  
  <path d="M0,0 h900" />
  <g transform="translate(827, 0)">
      <text text-anchor="middle"
      fill="black"
      stroke="none"
      transform="translate(0, 12)">May</text>
      <path d="M0,0 v-5" />
    </g><g transform="translate(756, 0)">
      <text text-anchor="middle"
      fill="black"
      stroke="none"
      transform="translate(0, 12)">Apr</text>
      <path d="M0,0 v-5" />
    </g><g transform="translate(682, 0)">
      <text text-anchor="middle"
      fill="black"
      stroke="none"
      transform="translate(0, 12)">Mar</text>
      <path d="M0,0 v-5" />
    </g><g transform="translate(616, 0)">
      <text text-anchor="middle"
      fill="black"
      stroke="none"
      transform="translate(0, 12)">Feb</text>
      <path d="M0,0 v-5" />
    </g><g transform="translate(542, 0)">
      <text text-anchor="middle"
      fill="black"
      stroke="none"
      transform="translate(0, 12)">Jan ’22</text>
      <path d="M0,0 v-5" />
    </g><g transform="translate(469, 0)">
      <text text-anchor="middle"
      fill="black"
      stroke="none"
      transform="translate(0, 12)">Dec</text>
      <path d="M0,0 v-5" />
    </g><g transform="translate(398, 0)">
      <text text-anchor="middle"
      fill="black"
      stroke="none"
      transform="translate(0, 12)">Nov</text>
      <path d="M0,0 v-5" />
    </g><g transform="translate(324, 0)">
      <text text-anchor="middle"
      fill="black"
      stroke="none"
      transform="translate(0, 12)">Oct</text>
      <path d="M0,0 v-5" />
    </g><g transform="translate(253, 0)">
      <text text-anchor="middle"
      fill="black"
      stroke="none"
      transform="translate(0, 12)">Sep</text>
      <path d="M0,0 v-5" />
    </g><g transform="translate(180, 0)">
      <text text-anchor="middle"
      fill="black"
      stroke="none"
      transform="translate(0, 12)">Aug</text>
      <path d="M0,0 v-5" />
    </g><g transform="translate(107, 0)">
      <text text-anchor="middle"
      fill="black"
      stroke="none"
      transform="translate(0, 12)">Jul</text>
      <path d="M0,0 v-5" />
    </g><g transform="translate(36, 0)">
      <text text-anchor="middle"
      fill="black"
      stroke="none"
      transform="translate(0, 12)">Jun</text>
      <path d="M0,0 v-5" />
    </g><g transform="translate(-38, 0)">
      <text text-anchor="middle"
      fill="black"
      stroke="none"
      transform="translate(0, 12)">May</text>
      <path d="M0,0 v-5" />
    </g>
  
  </g>
</svg>