<svg xmlns="http://www.w3.org/2000/svg"
  viewBox="0 0 900 460"
  width="900"
  height="460">
  <style>
    text {
      font-family: "Courier New", Courier, monospace;
    }
    .legend {
      font-size: 12px;
    }
  </style>
  <g class="lines" fill="none" transform="translate(20, 80)">>
    <path stroke="darkblue" d="M847.1361842105264,34.83870967741937L843.9421725300467,36.336290224084756C840.7481608495672,37.83387077075014,834.3601374886078,40.82903186408092,829.9965222508212,43.180941196195526C825.6329070130345,45.53285052831013,823.2936998984202,47.241508099208566,819.3830451869493,49.44106409844386C815.4723904754784,51.640620097679154,809.9902881671509,54.3310745252513,798.370298888794,56.36788497775092C786.7503096104371,58.40469543025051,768.992433362051,59.78786190767757,759.3318867006532,60.873724498515024C749.6713400392554,61.95958708935249,748.1081229648458,62.748145793600344,735.5374136572492,63.85834396948767C722.9667043496526,64.968542145375,699.3885028088688,66.40037979290177,680.1188902209359,67.96039204360318C660.849277633003,69.52040429430458,645.888253997921,71.20859114818059,635.5286669947833,72.44149262549463C625.1690799916458,73.67439410280866,619.4109296204527,74.4520102035607,606.1014799071543,75.716784359024C592.7920301938558,76.9815585144873,571.9312811384522,78.73349072466186,552.3346468948175,79.91257372114539C532.7380126511829,81.09165671762891,514.4054932193172,81.69789050042142,490.33496894461535,83.85248993851577C466.2644446699134,86.00708937661011,436.45591555237525,89.7100544700063,408.9963852012845,91.78951992054702C381.5368548501937,93.86898537108772,356.4263232655503,94.32495117877295,339.0761153742548,96.37207613133944C321.7259074829593,98.41920108390593,312.1360232850118,102.05748518135367,306.6143840157923,104.76935483937065C301.09274474657286,107.48122449738764,299.6393504060815,109.26667971597385,298.3969298868621,111.0521349345601C297.15450936764256,112.83759015314632,296.1230626696951,114.62304537173254,287.8341895280341,117.19919826473739C279.54531638637314,119.77535115774224,263.99901680099873,123.14220172516565,254.42621570794884,124.7847231333762C244.85341461489898,126.42724454158675,241.25411201417367,126.34543679058443,231.9594210728051,127.19117823457317C222.66473013143653,128.03691967856193,207.6746508494247,129.81021031754167,199.3452077607608,130.65214452669179C191.01576467209688,131.49407873584184,189.34695777678095,131.4046565151622,185.38962063658198,131.9090769618343C181.43228349638298,132.4134974085064,175.186416111301,133.51176052253024,170.00131284354353,135.1976240493004C164.81620957578608,136.88348757607054,160.6918704253532,139.156951515587,157.84797969414544,140.79106225742905C155.00408896293766,142.4251729992711,153.44064665095505,143.4199305434387,150.1402381931391,144.34931544523315C146.83982973532315,145.27870034702755,141.8024551316739,146.14271260644878,138.22515591179652,147.88147308048275C134.6478566919192,149.62023355451672,132.53063285581376,152.23374224316333,129.29044049814402,153.8210042126499C126.0502481404743,155.40826618213646,121.68708726124022,155.9692814324629,118.71218593061725,156.35181899250063C115.73728459999431,156.73435655253837,114.15064281798247,156.9384164222874,112.24121617668698,157.3655734048973C110.33178953539152,157.7927303875072,108.09957803481241,158.442984482978,105.22664719030057,158.87014146558792C102.35371634578871,159.29729844819784,98.84006615734411,159.50135831794685,96.30047915420653,159.70541818769587C93.76089215106894,159.9094780574449,92.19536833323839,160.1135379271939,90.6463839434049,160.71917260009252C89.0973995535714,161.32480727299117,87.564954591735,162.3320167490394,86.30086466462085,162.937651421938C85.03677473750665,163.54328609483665,84.04103984511468,163.74734596458566,81.73976196112915,164.3529806374843C79.43848407714361,164.95861531038292,75.83166320156451,165.96582478643114,73.5561556026667,166.9730342624794C71.28064800376889,167.9802437385276,70.33645368155237,168.98745321457585,69.07182007753761,169.59308788747447C67.80718647352283,170.1987225603731,66.22211358770981,170.40278243012213,64.67608447017165,170.60684229987115C63.130055352633484,170.81090216962016,61.623070003370174,171.01496203936918,59.729934252060076,171.62059671226783C57.83679850075,172.22623138516644,55.55751234739311,173.2334408612147,52.70908191406548,173.7180125419873C49.860651480737836,174.20258422275992,46.443076767439436,174.16451810825697,43.96711937870244,174.24751498588C41.49116198996544,174.33051186350303,39.95682192578985,174.53457173325205,37.98719083456748,175.0229722623417C36.0175597433451,175.51137279143143,33.61263762507595,176.2841139798618,27.934566977932523,180.69559143202835C22.2564963307891,185.10706888419497,13.305277154771412,193.15728260009783,8.129024170274185,197.2844193929238C2.952771185776958,201.41155618574973,1.5514843928001951,201.61561605549875,0.4031626948526723,201.8196759252478C-0.7451590030948504,202.0237357949968,-1.640515606013133,202.22779566474583,-2.5402449245746905,202.43185553449484C-3.4399742431362483,202.63591540424386,-4.344076277341081,202.83997527399288,-5.640732450800297,203.36161756132432C-6.937388624259513,203.88325984865574,-8.626598936973112,204.72248455356961,-11.873905695227648,205.24412684090103C-15.121212453482187,205.76576912823248,-19.92661565727766,205.9698289979815,-23.154986925766114,206.49860796885412C-26.383358194254573,207.02738693972674,-28.03469752743602,207.88088501172294,-29.31880641471103,208.40966398259556C-30.60291530198603,208.93844295346818,-31.519793743354608,209.1425028232172,-34.39755554546879,209.91959640083135C-37.27531734758298,210.69668997844556,-42.113962510442775,212.0468172639249,-45.041474632366906,212.82391084153906C-47.96898675429103,213.60100441915327,-48.98536583527948,213.8050642889023,-50.22267967503987,214.5821578665165C-51.45999351480026,215.35925144413068,-52.91824211333258,216.70937872961005,-55.48306349147017,218.28235245703698C-58.04788486960774,219.8553261844639,-61.71927902735058,221.65114635383839,-64.01303475307587,223.7844197067335C-66.30679047880118,225.91769305962853,-67.22290777250893,228.3884195960442,-68.12873015576348,230.29247946579324C-69.03455253901801,232.19653933554227,-69.93008001181933,233.53393253862455,-70.82556865055632,234.87132574170695C-71.72105728929333,236.2087189447893,-72.61650709396599,237.54611214787167,-78.90399682919421,240.01683868428736C-85.19148656442242,242.48756522070303,-96.8710162302062,246.09162509045208,-105.11197978670634,248.56235162686775C-113.3529433432065,251.03307816328342,-118.15534079042304,252.37047136636576,-124.05305302199629,253.1411979027814C-129.95076525356956,253.91192443919712,-136.94379226949954,254.11598430894617,-143.1679281121839,254.32004417869516C-149.39206395486826,254.5241040484442,-154.84730862430703,254.72816391819322,-162.78524997685977,255.26483248359443C-170.72319132941257,255.80150104899562,-181.14382936507937,256.670778310049,-187.82850226002984,258.3161425276241C-194.51317515498025,259.9615067451992,-197.46188290921432,262.3829579192961,-200.6966579149104,263.69571344121897C-203.93143292060645,265.0084689631419,-207.4522751777645,265.21252883289094,-210.93067568601907,267.07963218090083C-214.40907619427358,268.9467355289107,-217.8450349536246,272.4768823551815,-220.09222086940838,274.3439857031914C-222.33940678519215,276.21108905120127,-223.39781985740868,276.4151489209503,-227.41035185323634,276.87869075184636C-231.42288384906396,277.3422325827425,-238.38953476850273,278.0652563747857,-243.6183108250029,278.52879820568177C-248.84708688150303,278.9923400365779,-252.3379880750646,279.1963999063269,-255.8572614360238,280.48556615905466C-259.376534796983,281.7747324117824,-262.9241803253399,284.14900504748886,-266.44426143483713,285.4381713002166C-269.96434254433433,286.72733755294433,-273.4568592349719,286.93139742269335,-276.7148608945422,287.13545729244237C-279.9728625541125,287.3395171621914,-282.99634918261563,287.5435770319404,-286.5937799814403,287.7476369016894C-290.19121078026507,287.95169677143844,-294.3625857494114,288.1557566411875,-299.23000307053144,288.3598165109365C-304.0974203916515,288.56387638068554,-309.6608800647452,288.76793625043456,-314.94402381130385,289.51454931167297C-320.2271675578625,290.2611623729113,-325.22999537788604,291.55032862563905,-330.1388331120178,292.29694168687746C-335.0476708461495,293.0435547481158,-339.8625184943894,293.2476146178648,-343.47204998765864,293.88921738397624C-347.0815814809277,294.53082015008766,-349.48579681922615,295.60996581256137,-357.83136381139883,300.6386653528664C-366.17693080357145,305.66736489317134,-380.4638494496184,314.6456183113075,-390.7021848537062,320.2371294394755C-400.9405202577941,325.82864056764356,-407.1302724199229,328.03340940584343,-418.4101995637768,330.91914244113656C-429.6901267076308,333.80487547642974,-446.0602288332099,337.3715727088161,-465.7644800359089,340.5136945166271C-485.4687312386079,343.65581632443804,-508.5071315184268,346.37336270767355,-520.0263316583362,347.73213589929134L-531.5455317982456,349.0909090909091" />
    <path stroke="blue" d="M847.1361842105264,22.90791094552776L843.9421725300467,23.833047618372678C840.7481608495672,24.758184291217592,834.3601374886078,26.608457636907428,829.9965222508212,28.227834156295497C825.6329070130345,29.847210675683566,823.2936998984202,31.23569036876987,819.3830451869493,32.78003598109469C815.4723904754784,34.32438159341951,809.9902881671509,36.024593124982836,798.370298888794,37.43324160371197C786.7503096104371,38.8418900824411,768.992433362051,39.95897550833602,759.3318867006532,41.086061775202836C749.6713400392554,42.213148042069655,748.1081229648458,43.350235149908364,735.5374136572492,45.37882991210464C722.9667043496526,47.40742467430093,699.3885028088688,50.327527090854794,680.1188902209359,52.97066908196138C660.849277633003,55.61381107306798,645.888253997921,57.9799926387273,635.5286669947833,59.32739529493788C625.1690799916458,60.67479795114847,619.4109296204527,61.00342169791031,606.1014799071543,62.37094060038259C592.7920301938558,63.73845950285486,571.9312811384522,66.14487356103756,552.3346468948175,67.59388274655923C532.7380126511829,69.04289193208088,514.4054932193172,69.53449624494151,490.33496894461535,72.64231940742606C466.2644446699134,75.75014256991061,436.45591555237525,81.47418458201908,408.9963852012845,84.65955875242524C381.5368548501937,87.84493292283139,356.4263232655503,88.49163925153523,339.0761153742548,90.32060586787499C321.7259074829593,92.14957248421477,312.1360232850118,95.16079938819047,306.6143840157923,97.01310830439517C301.09274474657286,98.8654172205999,299.6393504060815,99.5588081490336,298.3969298868621,100.1185467348892C297.15450936764256,100.67828532074482,296.1230626696951,101.10437156402236,287.8341895280341,103.58669519800611C279.54531638637314,106.06901883198985,263.99901680099873,110.60757985667978,254.42621570794884,112.97943889929404C244.85341461489898,115.35129794190827,241.25411201417367,115.55645500244678,231.9594210728051,116.48550912136797C222.66473013143653,117.41456324028916,207.6746508494247,119.06751441759299,199.3452077607608,119.93288297483197C191.01576467209688,120.79825153207098,189.34695777678095,120.8760374692451,185.38962063658198,121.28253513448244C181.43228349638298,121.68903279971981,175.186416111301,122.42424219302036,170.00131284354353,124.15151166103298C164.81620957578608,125.8787811290456,160.6918704253532,128.5981106717703,157.84797969414544,130.10615776942078C155.00408896293766,131.61420486707127,153.44064665095505,131.91096951964747,150.1402381931391,132.29025215771347C146.83982973532315,132.66953479577944,141.8024551316739,133.13133541933516,138.22515591179652,135.6203806810137C134.6478566919192,138.10942594269224,132.53063285581376,142.62571584249363,129.29044049814402,145.08207397915444C126.0502481404743,147.53843211581528,121.68708726124022,147.93485848933557,118.71218593061725,148.25704389130013C115.73728459999431,148.57922929326472,114.15064281798247,148.82717372367355,112.24121617668698,149.15878910518367C110.33178953539152,149.4904044866938,108.09957803481241,149.90569081930514,105.22664719030057,150.22057229587293C102.35371634578871,150.53545377244066,98.84006615734411,150.74993039296484,96.30047915420653,150.95434439371306C93.76089215106894,151.15875839446127,92.19536833323839,151.35310977543352,90.6463839434049,151.58561900047258C89.0973995535714,151.81812822551163,87.564954591735,152.08879529461748,86.30086466462085,152.32782295218232C85.03677473750665,152.56685060974715,84.04103984511468,152.77423885577102,81.73976196112915,153.04446157109518C79.43848407714361,153.31468428641935,75.83166320156451,153.64774147104382,73.5561556026667,153.9561691511196C71.28064800376889,154.26459683119538,70.33645368155237,154.54839500672242,69.07182007753761,154.79706262665016C67.80718647352283,155.0457302465779,66.22211358770981,155.25926731090632,64.67608447017165,155.5116310259363C63.130055352633484,155.7639947409663,61.623070003370174,156.05518510669785,59.729934252060076,156.96422709028852C57.83679850075,157.8732690738792,55.55751234739311,159.40016267532897,52.70908191406548,160.9279833151411C49.860651480737836,162.4558039549532,46.443076767439436,163.9845516331276,43.96711937870244,164.85267461511353C41.49116198996544,165.72079759709945,39.95682192578985,165.9282958828969,37.98719083456748,167.24849212788277C36.0175597433451,168.56868837286868,33.61263762507595,171.00158257704308,27.934566977932523,175.18908629193024C22.2564963307891,179.37659000681734,13.305277154771412,185.3187032324172,8.129024170274185,188.39628824837197C2.952771185776958,191.47387326432673,1.5514843928001951,191.6869300706364,0.4031626948526723,191.96811283358292C-0.7451590030948504,192.24929559652944,-1.640515606013133,192.59860431611278,-2.5402449245746905,192.88002720806867C-3.4399742431362483,193.16145010002455,-4.344076277341081,193.37498716435297,-5.640732450800297,193.70827019710268C-6.937388624259513,194.04155322985233,-8.626598936973112,194.4945822310233,-11.873905695227648,196.98506538371052C-15.121212453482187,199.47554853639778,-19.92661565727766,204.00348584060131,-23.154986925766114,206.4241009107669C-26.383358194254573,208.84471598093248,-28.03469752743602,209.15800881706005,-29.31880641471103,209.42142376728808C-30.60291530198603,209.6848387175161,-31.519793743354608,209.89837578184452,-34.39755554546879,210.77204692530074C-37.27531734758298,211.64571806875696,-42.113962510442775,213.17952329134096,-45.041474632366906,214.07726959933618C-47.96898675429103,214.9750159073313,-48.98536583527948,215.23670330073764,-50.22267967503987,215.62878773664363C-51.45999351480026,216.0208721725496,-52.91824211333258,216.54335365095514,-55.48306349147017,217.54812728733486C-58.04788486960774,218.5529009237146,-61.71927902735058,220.03996671806848,-64.01303475307587,221.0723269259225C-66.30679047880118,222.10468713377657,-67.22290777250893,222.68234175513075,-68.12873015576348,223.21880712900278C-69.03455253901801,223.75527250287485,-69.93008001181933,224.25054862926478,-70.82556865055632,224.76398044961454C-71.72105728929333,225.2774122699643,-72.61650709396599,225.80899978427382,-78.90399682919421,226.98714402714936C-85.19148656442242,228.16528827002483,-96.8710162302062,229.9899892414663,-105.11197978670634,231.9898919520588C-113.3529433432065,233.98979466265135,-118.15534079042304,236.16489911239492,-124.05305302199629,237.35952056933604C-129.95076525356956,238.55414202627716,-136.94379226949954,238.76828049041583,-143.1679281121839,238.9778259321087C-149.39206395486826,239.1873713738016,-154.84730862430703,239.39232379304863,-162.78524997685977,239.69731900715553C-170.72319132941257,240.0023142212624,-181.14382936507937,240.40735223022907,-187.82850226002984,241.62141780447408C-194.51317515498025,242.83548337871903,-197.46188290921432,244.85857651824236,-200.6966579149104,245.98320122191026C-203.93143292060645,247.10782592557817,-207.4522751777645,247.3339821933906,-210.93067568601907,250.00426118564985C-214.40907619427358,252.67454017790905,-217.8450349536246,257.7889418946151,-220.09222086940838,260.41745240138C-222.33940678519215,263.045962908145,-223.39781985740868,263.18858220496895,-227.41035185323634,263.37712824900376C-231.42288384906396,263.56567429303857,-238.38953476850273,263.8001470842843,-243.6183108250029,264.2247844942553C-248.84708688150303,264.64942190422636,-252.3379880750646,265.2642239329228,-255.8572614360238,268.9238468899373C-259.376534796983,272.5834698469518,-262.9241803253399,279.2879137322843,-266.44426143483713,282.8773175118709C-269.96434254433433,286.46672129145753,-273.4568592349719,286.9410849652981,-276.7148608945422,287.3664539192237C-279.9728625541125,287.7918228731493,-282.99634918261563,288.1681971071598,-286.5937799814403,288.4631527563293C-290.19121078026507,288.7581084054988,-294.3625857494114,288.9716454698272,-299.23000307053144,289.1826107337277C-304.0974203916515,289.39357599762826,-309.6608800647452,289.60196946110085,-314.94402381130385,290.4341025532828C-320.2271675578625,291.26623564546475,-325.22999537788604,292.72210836635594,-330.1388331120178,293.6049279540621C-335.0476708461495,294.48774754176816,-339.8625184943894,294.7975139962892,-343.47204998765864,295.27727135532996C-347.0815814809277,295.75702871437073,-349.48579681922615,296.4067769779312,-357.83136381139883,302.06298682726225C-366.17693080357145,307.7191966765933,-380.4638494496184,318.3818681116949,-390.7021848537062,324.3134026286997C-400.9405202577941,330.2449371457044,-407.1302724199229,331.4453347446122,-418.4101995637768,333.9296953332799C-429.6901267076308,336.41405592194764,-446.0602288332099,340.18237950037525,-465.7644800359089,343.3672557783372C-485.4687312386079,346.5521320562991,-508.5071315184268,349.15356103379537,-520.0263316583362,350.45427552254347L-531.5455317982456,351.7549900112916" />
    
    <path stroke="darkorange" d="M847.1361842105264,325.1612903225806L843.9421725300467,323.6637097759152C840.7481608495672,322.16612922924986,834.3601374886078,319.17096813591905,829.9965222508212,316.81905880380447C825.6329070130345,314.4671494716899,823.2936998984202,312.7584919007914,819.3830451869493,310.55893590155614C815.4723904754784,308.3593799023208,809.9902881671509,305.6689254747487,798.370298888794,303.6321150222491C786.7503096104371,301.5953045697495,768.992433362051,300.2121380923224,759.3318867006532,299.12627550148494C749.6713400392554,298.0404129106475,748.1081229648458,297.2518542063997,735.5374136572492,296.14165603051237C722.9667043496526,295.031457854625,699.3885028088688,293.5996202070982,680.1188902209359,292.0396079563968C660.849277633003,290.47959570569543,645.888253997921,288.79140885181937,635.5286669947833,287.5585073745053C625.1690799916458,286.32560589719134,619.4109296204527,285.54798979643925,606.1014799071543,284.283215640976C592.7920301938558,283.0184414855127,571.9312811384522,281.26650927533814,552.3346468948175,280.0874262788546C532.7380126511829,278.90834328237105,514.4054932193172,278.3021094995786,490.33496894461535,276.14751006148424C466.2644446699134,273.9929106233899,436.45591555237525,270.2899455299937,408.9963852012845,268.21048007945296C381.5368548501937,266.1310146289123,356.4263232655503,265.675048821227,339.0761153742548,263.6279238686605C321.7259074829593,261.580798916094,312.1360232850118,257.9425148186463,306.6143840157923,255.23064516062934C301.09274474657286,252.51877550261236,299.6393504060815,250.73332028402615,298.3969298868621,248.94786506543994C297.15450936764256,247.1624098468537,296.1230626696951,245.37695462826744,287.8341895280341,242.80080173526264C279.54531638637314,240.22464884225778,263.99901680099873,236.85779827483432,254.42621570794884,235.21527686662378C244.85341461489898,233.5727554584132,241.25411201417367,233.65456320941553,231.9594210728051,232.80882176542684C222.66473013143653,231.96308032143807,207.6746508494247,230.18978968245833,199.3452077607608,229.34785547330827C191.01576467209688,228.50592126415816,189.34695777678095,228.5953434848378,185.38962063658198,228.0909230381657C181.43228349638298,227.58650259149363,175.186416111301,226.48823947746976,170.00131284354353,224.80237595069966C164.81620957578608,223.1165124239295,160.6918704253532,220.84304848441298,157.84797969414544,219.20893774257095C155.00408896293766,217.5748270007289,153.44064665095505,216.5800694565613,150.1402381931391,215.65068455476685C146.83982973532315,214.72129965297245,141.8024551316739,213.85728739355122,138.22515591179652,212.11852691951722C134.6478566919192,210.37976644548328,132.53063285581376,207.7662577568366,129.29044049814402,206.1789957873501C126.0502481404743,204.59173381786354,121.68708726124022,204.0307185675371,118.71218593061725,203.64818100749935C115.73728459999431,203.26564344746166,114.15064281798247,203.06158357771264,112.24121617668698,202.6344265951027C110.33178953539152,202.2072696124928,108.09957803481241,201.557015517022,105.22664719030057,201.12985853441208C102.35371634578871,200.7027015518022,98.84006615734411,200.49864168205318,96.30047915420653,200.29458181230413C93.76089215106894,200.0905219425551,92.19536833323839,199.8864620728061,90.6463839434049,199.28082739990748C89.0973995535714,198.67519272700883,87.564954591735,197.6679832509606,86.30086466462085,197.062348578062C85.03677473750665,196.45671390516335,84.04103984511468,196.25265403541434,81.73976196112915,195.6470193625157C79.43848407714361,195.04138468961708,75.83166320156451,194.03417521356883,73.5561556026667,193.0269657375206C71.28064800376889,192.01975626147237,70.33645368155237,191.01254678542412,69.07182007753761,190.40691211252553C67.80718647352283,189.8012774396269,66.22211358770981,189.59721756987787,64.67608447017165,189.39315770012885C63.130055352633484,189.18909783037984,61.623070003370174,188.98503796063082,59.729934252060076,188.37940328773217C57.83679850075,187.77376861483353,55.55751234739311,186.7665591387853,52.70908191406548,186.28198745801265C49.860651480737836,185.79741577724005,46.443076767439436,185.83548189174303,43.96711937870244,185.75248501412C41.49116198996544,185.66948813649697,39.95682192578985,185.46542826674795,37.98719083456748,184.9770277376583C36.0175597433451,184.4886272085686,33.61263762507595,183.71588602013824,27.934566977932523,179.30440856797165C22.2564963307891,174.89293111580503,13.305277154771412,166.84271739990217,8.129024170274185,162.7155806070762C2.952771185776958,158.58844381425027,1.5514843928001951,158.38438394450125,0.4031626948526723,158.18032407475224C-0.7451590030948504,157.97626420500322,-1.640515606013133,157.7722043352542,-2.5402449245746905,157.56814446550518C-3.4399742431362483,157.36408459575617,-4.344076277341081,157.16002472600712,-5.640732450800297,156.63838243867568C-6.937388624259513,156.11674015134426,-8.626598936973112,155.27751544643039,-11.873905695227648,154.75587315909897C-15.121212453482187,154.23423087176752,-19.92661565727766,154.0301710020185,-23.154986925766114,153.50139203114588C-26.383358194254573,152.9726130602733,-28.03469752743602,152.11911498827706,-29.31880641471103,151.59033601740444C-30.60291530198603,151.06155704653182,-31.519793743354608,150.8574971767828,-34.39755554546879,150.08040359916865C-37.27531734758298,149.30331002155444,-42.113962510442775,147.9531827360751,-45.041474632366906,147.1760891584609C-47.96898675429103,146.39899558084673,-48.98536583527948,146.1949357110977,-50.22267967503987,145.41784213348353C-51.45999351480026,144.64074855586932,-52.91824211333258,143.29062127038995,-55.48306349147017,141.71764754296302C-58.04788486960774,140.1446738155361,-61.71927902735058,138.3488536461616,-64.01303475307587,136.2155802932665C-66.30679047880118,134.0823069403714,-67.22290777250893,131.61158040395574,-68.12873015576348,129.70752053420674C-69.03455253901801,127.80346066445775,-69.93008001181933,126.4660674613754,-70.82556865055632,125.12867425829303C-71.72105728929333,123.79128105521067,-72.61650709396599,122.45388785212833,-78.90399682919421,119.98316131571262C-85.19148656442242,117.51243477929694,-96.8710162302062,113.90837490954793,-105.11197978670634,111.43764837313223C-113.3529433432065,108.96692183671655,-118.15534079042304,107.62952863363421,-124.05305302199629,106.85880209721853C-129.95076525356956,106.08807556080285,-136.94379226949954,105.88401569105383,-143.1679281121839,105.6799558213048C-149.39206395486826,105.47589595155578,-154.84730862430703,105.27183608180677,-162.78524997685977,104.73516751640557C-170.72319132941257,104.19849895100437,-181.14382936507937,103.329221689951,-187.82850226002984,101.68385747237589C-194.51317515498025,100.0384932548008,-197.46188290921432,97.61704208070394,-200.6966579149104,96.30428655878102C-203.93143292060645,94.99153103685808,-207.4522751777645,94.78747116710906,-210.93067568601907,92.92036781909916C-214.40907619427358,91.05326447108926,-217.8450349536246,87.5231176448185,-220.09222086940838,85.6560142968086C-222.33940678519215,83.78891094879872,-223.39781985740868,83.5848510790497,-227.41035185323634,83.1213092481536C-231.42288384906396,82.65776741725749,-238.38953476850273,81.93474362521431,-243.6183108250029,81.4712017943182C-248.84708688150303,81.0076599634221,-252.3379880750646,80.80360009367308,-255.8572614360238,79.51443384094534C-259.376534796983,78.22526758821759,-262.9241803253399,75.85099495251113,-266.44426143483713,74.56182869978339C-269.96434254433433,73.27266244705564,-273.4568592349719,73.06860257730662,-276.7148608945422,72.86454270755759C-279.9728625541125,72.66048283780857,-282.99634918261563,72.45642296805956,-286.5937799814403,72.25236309831054C-290.19121078026507,72.04830322856152,-294.3625857494114,71.8442433588125,-299.23000307053144,71.64018348906349C-304.0974203916515,71.43612361931447,-309.6608800647452,71.23206374956544,-314.94402381130385,70.48545068832706C-320.2271675578625,69.73883762708869,-325.22999537788604,68.44967137436095,-330.1388331120178,67.70305831312257C-335.0476708461495,66.95644525188419,-339.8625184943894,66.75238538213517,-343.47204998765864,66.11078261602377C-347.0815814809277,65.46917984991236,-349.48579681922615,64.39003418743857,-357.83136381139883,59.361334647133624C-366.17693080357145,54.33263510682866,-380.4638494496184,45.35438168869254,-390.7021848537062,39.762870560524526C-400.9405202577941,34.1713594323565,-407.1302724199229,31.96659059415658,-418.4101995637768,29.08085755886343C-429.6901267076308,26.195124523570275,-446.0602288332099,22.628427291183897,-465.7644800359089,19.486305483372934C-485.4687312386079,16.344183675561975,-508.5071315184268,13.626637292326436,-520.0263316583362,12.267864100708664L-531.5455317982456,10.909090909090896" />
    <path stroke="orange" d="M847.1361842105264,337.09208905447224L843.9421725300467,336.1669523816273C840.7481608495672,335.24181570878244,834.3601374886078,333.3915423630926,829.9965222508212,331.7721658437045C825.6329070130345,330.1527893243165,823.2936998984202,328.76430963123016,819.3830451869493,327.21996401890533C815.4723904754784,325.6756184065805,809.9902881671509,323.9754068750172,798.370298888794,322.56675839628804C786.7503096104371,321.15810991755893,768.992433362051,320.041024491664,759.3318867006532,318.91393822479716C749.6713400392554,317.7868519579303,748.1081229648458,316.6497648500916,735.5374136572492,314.62117008789534C722.9667043496526,312.59257532569904,699.3885028088688,309.6724729091452,680.1188902209359,307.0293309180386C660.849277633003,304.386188926932,645.888253997921,302.0200073612727,635.5286669947833,300.67260470506216C625.1690799916458,299.3252020488515,619.4109296204527,298.99657830208974,606.1014799071543,297.62905939961746C592.7920301938558,296.2615404971452,571.9312811384522,293.8551264389625,552.3346468948175,292.40611725344075C532.7380126511829,290.95710806791914,514.4054932193172,290.4655037550585,490.33496894461535,287.35768059257396C466.2644446699134,284.2498574300894,436.45591555237525,278.52581541798094,408.9963852012845,275.3404412475748C381.5368548501937,272.15506707716855,356.4263232655503,271.5083607484648,339.0761153742548,269.67939413212497C321.7259074829593,267.8504275157852,312.1360232850118,264.83920061180953,306.6143840157923,262.9868916956048C301.09274474657286,261.1345827794001,299.6393504060815,260.4411918509664,298.3969298868621,259.8814532651108C297.15450936764256,259.32171467925514,296.1230626696951,258.89562843597764,287.8341895280341,256.4133048019939C279.54531638637314,253.93098116801016,263.99901680099873,249.3924201433202,254.42621570794884,247.020561100706C244.85341461489898,244.64870205809174,241.25411201417367,244.44354499755323,231.9594210728051,243.51449087863202C222.66473013143653,242.58543675971086,207.6746508494247,240.93248558240703,199.3452077607608,240.06711702516805C191.01576467209688,239.20174846792904,189.34695777678095,239.12396253075488,185.38962063658198,238.71746486551754C181.43228349638298,238.3109672002802,175.186416111301,237.57575780697962,170.00131284354353,235.84848833896703C164.81620957578608,234.1212188709544,160.6918704253532,231.4018893282297,157.84797969414544,229.89384223057922C155.00408896293766,228.38579513292873,153.44064665095505,228.08903048035253,150.1402381931391,227.70974784228656C146.83982973532315,227.33046520422056,141.8024551316739,226.86866458066484,138.22515591179652,224.3796193189863C134.6478566919192,221.89057405730773,132.53063285581376,217.37428415750637,129.29044049814402,214.91792602084556C126.0502481404743,212.46156788418475,121.68708726124022,212.0651415106644,118.71218593061725,211.74295610869987C115.73728459999431,211.4207707067353,114.15064281798247,211.17282627632645,112.24121617668698,210.84121089481633C110.33178953539152,210.5095955133062,108.09957803481241,210.09430918069484,105.22664719030057,209.7794277041271C102.35371634578871,209.46454622755934,98.84006615734411,209.25006960703516,96.30047915420653,209.04565560628694C93.76089215106894,208.84124160553873,92.19536833323839,208.64689022456642,90.6463839434049,208.41438099952742C89.0973995535714,208.18187177448831,87.564954591735,207.91120470538252,86.30086466462085,207.67217704781766C85.03677473750665,207.43314939025285,84.04103984511468,207.22576114422898,81.73976196112915,206.95553842890482C79.43848407714361,206.68531571358065,75.83166320156451,206.35225852895618,73.5561556026667,206.0438308488804C71.28064800376889,205.73540316880462,70.33645368155237,205.45160499327758,69.07182007753761,205.20293737334984C67.80718647352283,204.9542697534221,66.22211358770981,204.74073268909368,64.67608447017165,204.48836897406372C63.130055352633484,204.2360052590337,61.623070003370174,203.94481489330215,59.729934252060076,203.03577290971148C57.83679850075,202.1267309261208,55.55751234739311,200.59983732467103,52.70908191406548,199.07201668485888C49.860651480737836,197.54419604504676,46.443076767439436,196.01544836687233,43.96711937870244,195.14732538488644C41.49116198996544,194.27920240290052,39.95682192578985,194.0717041171031,37.98719083456748,192.75150787211723C36.0175597433451,191.43131162713132,33.61263762507595,188.99841742295698,27.934566977932523,184.81091370806982C22.2564963307891,180.6234099931827,13.305277154771412,174.6812967675828,8.129024170274185,171.603711751628C2.952771185776958,168.52612673567324,1.5514843928001951,168.3130699293636,0.4031626948526723,168.03188716641708C-0.7451590030948504,167.75070440347056,-1.640515606013133,167.40139568388722,-2.5402449245746905,167.11997279193133C-3.4399742431362483,166.83854989997545,-4.344076277341081,166.62501283564703,-5.640732450800297,166.29172980289738C-6.937388624259513,165.95844677014767,-8.626598936973112,165.50541776897674,-11.873905695227648,163.01493461628948C-15.121212453482187,160.52445146360222,-19.92661565727766,155.99651415939869,-23.154986925766114,153.57589908923313C-26.383358194254573,151.15528401906752,-28.03469752743602,150.84199118293995,-29.31880641471103,150.57857623271192C-30.60291530198603,150.3151612824839,-31.519793743354608,150.10162421815548,-34.39755554546879,149.22795307469926C-37.27531734758298,148.35428193124304,-42.113962510442775,146.82047670865902,-45.041474632366906,145.92273040066382C-47.96898675429103,145.02498409266866,-48.98536583527948,144.76329669926233,-50.22267967503987,144.37121226335637C-51.45999351480026,143.9791278274504,-52.91824211333258,143.45664634904486,-55.48306349147017,142.45187271266516C-58.04788486960774,141.4470990762854,-61.71927902735058,139.96003328193152,-64.01303475307587,138.9276730740775C-66.30679047880118,137.89531286622346,-67.22290777250893,137.31765824486928,-68.12873015576348,136.78119287099722C-69.03455253901801,136.24472749712515,-69.93008001181933,135.7494513707352,-70.82556865055632,135.23601955038546C-71.72105728929333,134.7225877300357,-72.61650709396599,134.19100021572618,-78.90399682919421,133.01285597285067C-85.19148656442242,131.83471172997517,-96.8710162302062,130.0100107585337,-105.11197978670634,128.01010804794117C-113.3529433432065,126.01020533734864,-118.15534079042304,123.83510088760507,-124.05305302199629,122.64047943066396C-129.95076525356956,121.44585797372285,-136.94379226949954,121.23171950958415,-143.1679281121839,121.0221740678913C-149.39206395486826,120.81262862619843,-154.84730862430703,120.60767620695135,-162.78524997685977,120.30268099284449C-170.72319132941257,119.99768577873762,-181.14382936507937,119.59264776977095,-187.82850226002984,118.37858219552595C-194.51317515498025,117.16451662128094,-197.46188290921432,115.14142348175761,-200.6966579149104,114.01679877808972C-203.93143292060645,112.89217407442185,-207.4522751777645,112.66601780660942,-210.93067568601907,109.99573881435019C-214.40907619427358,107.32545982209096,-217.8450349536246,102.21105810538495,-220.09222086940838,99.58254759861995C-222.33940678519215,96.954037091855,-223.39781985740868,96.81141779503103,-227.41035185323634,96.62287175099623C-231.42288384906396,96.43432570696139,-238.38953476850273,96.19985291571571,-243.6183108250029,95.77521550574465C-248.84708688150303,95.35057809577363,-252.3379880750646,94.73577606707721,-255.8572614360238,91.07615311006272C-259.376534796983,87.41653015304824,-262.9241803253399,80.71208626771566,-266.44426143483713,77.12268248812909C-269.96434254433433,73.53327870854248,-273.4568592349719,73.05891503470188,-276.7148608945422,72.6335460807763C-279.9728625541125,72.20817712685074,-282.99634918261563,71.8318028928402,-286.5937799814403,71.53684724367073C-290.19121078026507,71.24189159450127,-294.3625857494114,71.02835453017285,-299.23000307053144,70.81738926627231C-304.0974203916515,70.6064240023718,-309.6608800647452,70.39803053889915,-314.94402381130385,69.56589744671724C-320.2271675578625,68.73376435453531,-325.22999537788604,67.2778916336441,-330.1388331120178,66.39507204593798C-335.0476708461495,65.51225245823186,-339.8625184943894,65.2024860037108,-343.47204998765864,64.72272864467006C-347.0815814809277,64.24297128562931,-349.48579681922615,63.593223022068834,-357.83136381139883,57.93701317273778C-366.17693080357145,52.28080332340672,-380.4638494496184,41.61813188830505,-390.7021848537062,35.68659737130033C-400.9405202577941,29.755062854295613,-407.1302724199229,28.554665255387828,-418.4101995637768,26.07030466672011C-429.6901267076308,23.585944078052393,-446.0602288332099,19.81762049962475,-465.7644800359089,16.632744221662804C-485.4687312386079,13.447867943700864,-508.5071315184268,10.84643896620463,-520.0263316583362,9.545724477456512L-531.5455317982456,8.245009988708395" />
  </g>
  
  <g class="axis y" stroke="black" fill="none" stroke-dasharray="4 6" transform="translate(20, 80)">
    <path d="M 20,270 h900" />
      <g transform="translate(0, 270)">
      <text text-anchor="middle"
      fill="black"
      stroke="none"
      transform="translate(0, 3)">25%</text>
      <path d="M0,v-5 0" />
      </g><path d="M 20,180 h900" />
      <g transform="translate(0, 180)">
      <text text-anchor="middle"
      fill="black"
      stroke="none"
      transform="translate(0, 3)">50%</text>
      <path d="M0,v-5 0" />
      </g><path d="M 20,90 h900" />
      <g transform="translate(0, 90)">
      <text text-anchor="middle"
      fill="black"
      stroke="none"
      transform="translate(0, 3)">75%</text>
      <path d="M0,v-5 0" />
      </g><path d="M 20,0 h900" />
    <g transform="translate(0, 0)">
    <text text-anchor="middle"
    fill="black"
    stroke="none"
    transform="translate(0, 3)">100%</text>
    <path d="M0,v-5 0" />
    </g>
  </g>
  <g
    class="axis x"
    stroke="black" fill="none"
    transform="translate(20, 440)">
  
  <path d="M0,0 h900" />
  <g transform="translate(827, 0)">
      <text text-anchor="middle"
      fill="black"
      stroke="none"
      transform="translate(0, 12)">Oct</text>
      <path d="M0,0 v-5" />
    </g><g transform="translate(756, 0)">
      <text text-anchor="middle"
      fill="black"
      stroke="none"
      transform="translate(0, 12)">Sep</text>
      <path d="M0,0 v-5" />
    </g><g transform="translate(682, 0)">
      <text text-anchor="middle"
      fill="black"
      stroke="none"
      transform="translate(0, 12)">Aug</text>
      <path d="M0,0 v-5" />
    </g><g transform="translate(609, 0)">
      <text text-anchor="middle"
      fill="black"
      stroke="none"
      transform="translate(0, 12)">Jul</text>
      <path d="M0,0 v-5" />
    </g><g transform="translate(538, 0)">
      <text text-anchor="middle"
      fill="black"
      stroke="none"
      transform="translate(0, 12)">Jun</text>
      <path d="M0,0 v-5" />
    </g><g transform="translate(464, 0)">
      <text text-anchor="middle"
      fill="black"
      stroke="none"
      transform="translate(0, 12)">May</text>
      <path d="M0,0 v-5" />
    </g><g transform="translate(393, 0)">
      <text text-anchor="middle"
      fill="black"
      stroke="none"
      transform="translate(0, 12)">Apr</text>
      <path d="M0,0 v-5" />
    </g><g transform="translate(320, 0)">
      <text text-anchor="middle"
      fill="black"
      stroke="none"
      transform="translate(0, 12)">Mar</text>
      <path d="M0,0 v-5" />
    </g><g transform="translate(253, 0)">
      <text text-anchor="middle"
      fill="black"
      stroke="none"
      transform="translate(0, 12)">Feb</text>
      <path d="M0,0 v-5" />
    </g><g transform="translate(180, 0)">
      <text text-anchor="middle"
      fill="black"
      stroke="none"
      transform="translate(0, 12)">Jan ’22</text>
      <path d="M0,0 v-5" />
    </g><g transform="translate(107, 0)">
      <text text-anchor="middle"
      fill="black"
      stroke="none"
      transform="translate(0, 12)">Dec</text>
      <path d="M0,0 v-5" />
    </g><g transform="translate(36, 0)">
      <text text-anchor="middle"
      fill="black"
      stroke="none"
      transform="translate(0, 12)">Nov</text>
      <path d="M0,0 v-5" />
    </g><g transform="translate(-38, 0)">
      <text text-anchor="middle"
      fill="black"
      stroke="none"
      transform="translate(0, 12)">Oct</text>
      <path d="M0,0 v-5" />
    </g>
  
  </g>
  <g class="legend" transform="translate(20,10)">
    <rect width="18" height="18" style="fill: darkblue; stroke: darkblue;"></rect>
    <text x="22" y="14">TypeScript (by file number)</text>
  </g>
  <g class="legend" transform="translate(20,30)">
    <rect width="18" height="18" style="fill: blue; stroke: blue;"></rect>
    <text x="22" y="14">TypeScript (by file size)</text>
  </g>
  <g class="legend" transform="translate(260,10)">
    <rect width="18" height="18" style="fill: darkorange; stroke: darkorange;"></rect>
    <text x="22" y="14">JavaScript (by file number)</text>
  </g>
  <g class="legend" transform="translate(260,30)">
    <rect width="18" height="18" style="fill: orange; stroke: orange;"></rect>
    <text x="22" y="14">JavaScript (by file size)</text>
  </g>
  <g class="total" transform="translate(570,30)">
    <text x="22" y="14" font-size="35px">90.3% complete</text>
  </g>
</svg>