<svg xmlns="http://www.w3.org/2000/svg"
  viewBox="0 0 900 460"
  width="900"
  height="460">
  <style>
    text {
      font-family: "Courier New", Courier, monospace;
    }
    .legend {
      font-size: 12px;
    }
  </style>
  <g class="lines" fill="none" transform="translate(20, 80)">>
    <path stroke="darkblue" d="M827.7499177631579,44.6896551724138L826.5808014785798,45.54208601440907C825.411685194002,46.39451685640433,823.0734526248461,48.099378540394866,819.1637724588336,50.295138652722265C815.2540922928209,52.49089876504965,809.7729645299515,55.17755730571389,798.153949797053,57.21057187130558C786.5349350641544,59.24358643689729,768.7780333612264,60.62295702741644,759.118461245287,61.705023731345996C749.4588891293474,62.78709043527555,747.8966466003963,63.571853252615504,735.3269118382578,64.67825554159492C722.7571770761197,65.78465783057435,699.1799500807941,67.21269959119324,679.9113120383195,68.76891595498672C660.6426739958448,70.32513231878023,645.6826249062211,72.00952328574833,635.3240124485418,73.23862887615446C624.9653999908626,74.46773446656059,619.2082241651277,75.24155468040473,605.8997489972876,76.50253294896014C592.5912738294475,77.76351121751553,571.7314993195022,79.51164754078218,552.1358396213258,80.6869346503578C532.5401799231494,81.86222175993343,514.2086350367421,82.46465965581802,490.13908530749853,84.61546320700447C466.06953557825483,86.76626675819091,436.26198100617495,90.4654359646792,408.8034252005425,92.541105528312C381.34486939490995,94.61677509194482,356.23531235572483,95.06894501272215,338.8860790098876,97.11227407838072C321.5368456640505,99.15560314403929,311.94793601156124,102.79009135457913,306.42727128780007,105.4981651256882C300.9066065640389,108.20623889679729,299.45418676900584,109.98789822847561,298.21274079524466,111.76955756015394C296.9712948214835,113.55121689183227,295.9408226689943,115.3328762235106,287.6529240727917,117.90523322960753C279.365025476589,120.47759023570445,263.8197004366728,123.84064491621997,254.24787388908126,125.47937043752263C244.67604734148972,127.11809595882528,241.07771928622267,127.03249232091507,231.78400289031242,127.87443787799589C222.4902864944021,128.71638343507672,207.50118175784857,130.4858781871486,199.17271321464295,131.32401650939076C190.84424467143734,132.16215483163293,189.1764123215797,132.06893672404541,185.220049726839,132.5695612838096C181.2636871320983,133.0701858435738,175.0187942924746,134.16465307068972,169.83466557017542,135.84672071055195C164.65053684787628,137.5287883504142,160.52717224290166,139.79845640302278,157.6842560571522,141.42877125795692C154.84133987140274,143.05908611289104,153.27887210487842,144.05004777015077,149.97943819252075,144.97563678503727C146.6800042801631,145.90122579992382,141.64360422197214,146.76144217243714,138.06727954755308,148.4964067595632C134.49095487313403,150.23137134668923,132.3747055824869,152.841084148428,129.13548777027546,154.42455023100663C125.89626995806402,156.00801631358527,121.53408362428824,156.5652356770038,118.56015683912358,156.94397735013365C115.58623005395891,157.3227190232635,114.00056281740535,157.52298300610462,112.09211072156818,157.94634410180663C110.18365862573098,158.36970519750864,107.95242167061019,159.0161634060715,105.08046537155663,159.43952450177352C102.20850907250308,159.86288559747553,98.69583342951678,160.06314958031663,96.15722097183749,160.26341356315774C93.61860851415821,160.46367754599885,92.05405924178594,160.66394152883996,90.50604939741073,161.26578031483072C88.95803955303556,161.86761910082143,87.42656913665745,162.87103268996177,86.16345375500156,163.4728714759525C84.90033837334565,164.0747102619432,83.90557802641197,164.27497424478432,81.60527468788473,164.87681303077505C79.3049713493575,165.4786518167658,75.69912501923669,166.48206540590607,73.42459196579718,167.4854789950464C71.15005891235766,168.48889258418674,70.20683913559942,169.49230617332708,68.94318007704294,170.0941449593178C67.67952101848645,170.69598374530855,66.09542267813174,170.89624772814966,64.55036810605186,171.09651171099077C63.00531353397199,171.2967756938319,61.49930273016697,171.497039676673,59.60714152431516,172.09887846266372C57.71498031846337,172.70071724865443,55.43666871056479,173.70413083779476,52.58921282269544,174.1849066316595C49.7417569348261,174.66568242552424,46.325156766986,174.6238204241134,43.850173923707295,174.7030214148285C41.3751910804286,174.78222240554362,39.841825561711296,174.98248638838473,37.87316901594721,175.4670910305665C35.90451247018313,175.9516956727483,33.50056489737227,176.72064097427074,27.823468795687134,181.12832253952942C22.146372694002,185.53600410478813,13.196128063442595,193.58242193378308,8.020849624403661,197.70576283970112C2.845571185364728,201.82910374561916,1.4452589378462684,202.0293677284603,0.2979117853570428,202.2296317113014C-0.8494353671321827,202.42989569414252,-1.743817424592174,202.63015967698365,-2.6425721976954404,202.83042365982476C-3.541326970798707,203.03068764266587,-4.444454459545248,203.230951625507,-5.7401360875461735,203.74879802593054C-7.035817715547098,204.26664442635408,-8.724053482802406,205.10207324436,-11.97038569559865,205.61991964478355C-15.216717908394891,206.1377660452071,-20.021146566732067,206.33803002804817,-23.248543289762228,206.8630131120129C-26.475940012792393,207.38799619597762,-28.126304800515538,208.2376983810659,-29.409439142332246,208.76268146503062C-30.692573484148966,209.28766454899537,-31.60847738005924,209.48792853183647,-34.485264636715144,210.26122622254275C-37.36205189337104,211.03452391324902,-42.19972251077255,212.38085531182048,-45.126260087238386,213.15415300252675C-48.05279766370422,213.92745069323303,-49.06820219923437,214.12771467607413,-50.30454149353647,214.9010123667804C-51.54088078783855,215.67431005748668,-52.99815484091258,217.02064145605814,-55.56200167359187,218.58981929657716C-58.125848506271176,220.1589971370962,-61.79626811855572,221.9510214195628,-64.08904929882273,224.08049888555C-66.38183047908973,226.20997635153716,-67.2969732273392,228.67690700104495,-68.20182106513543,230.57717098388605C-69.10666890293167,232.47743496672715,-70.0012218302747,233.81103228290158,-70.8957359235534,235.14462959907607C-71.7902500168321,236.4782269152505,-72.68472527604648,237.811824231425,-78.9712404658164,240.27875488093275C-85.25775565558632,242.7456855304405,-96.9363107759118,246.34594951328162,-105.17629978695368,248.8128801627894C-113.41628879799553,251.2798108122972,-118.21771169975379,252.61340812847163,-124.11444938586874,253.38033877797943C-130.0111870719837,254.1472694274872,-137.00323954245536,254.3475334103283,-143.22640083968142,254.54779739316942C-149.4495621369075,254.74806137601055,-154.90383226088795,254.94832535885166,-162.84079906798246,255.48119803734494C-170.77776587507697,256.0140707158382,-181.1974293652855,256.8795520899837,-187.88112771477765,258.5211204206509C-194.5648260642698,260.1626887513181,-197.51255927304555,262.58034403850706,-200.7463597332833,263.8893036735221C-203.9801601935211,265.19826330853715,-207.50002790522083,265.39852729137823,-210.97745386801708,267.2618347524803C-214.45487983081333,269.12514221358225,-217.8898640447061,272.6514931529451,-220.13607541503157,274.5148006140471C-222.38228678535702,276.3781080751491,-223.43972531211526,276.5783720579902,-227.45128276248462,277.0381180019783C-231.46284021285396,277.49786394596657,-238.42851658683443,278.2170918511019,-243.65631809787632,278.6768377950901C-248.88411960891816,279.1365837390783,-252.3740462570214,279.33684772191936,-255.89234507252232,280.6222180877392C-259.41064388802323,281.9075884535591,-262.95731487092183,284.2780652023576,-266.47642143496074,285.56343556817745C-269.9955279989997,286.8488059339973,-273.487070144179,287.0490699168384,-276.744097258291,287.2493338996795C-280.001124372403,287.44959788252066,-283.02363645544784,287.64986186536174,-286.6200927088143,287.8501258482028C-290.2165489621807,288.05038983104396,-294.3869493858687,288.25065381388504,-299.2533921615305,288.4509177967262C-304.11983493719225,288.65118177956725,-309.6823200648277,288.85144576240845,-314.964489265928,289.59426293673886C-320.24665846702834,290.3370801110694,-325.24851174159363,291.62245047688924,-330.156374930267,292.36526765121977C-335.06423811894047,293.1080848255502,-339.87811122172207,293.3083488083914,-343.48666816953295,293.94615568759485C-347.0952251173438,294.58396256679833,-349.49846591018394,295.6593123423642,-357.8430583568983,300.68421599576124C-366.1876508036127,305.70911964915825,-380.4735949042013,314.6835771803865,-390.7109557628309,320.2712924216466C-400.94831662146044,325.8590076629068,-407.13709423813094,328.05998061419876,-418.4160468365266,330.941917762584C-429.6949994349223,333.8238549109692,-446.06412701504314,337.38675625644765,-465.76740367228376,340.5250821773507C-485.47068032952455,343.6634080982538,-508.5081060638851,346.3771585945815,-520.0268189310653,347.7340338427453L-531.5455317982456,349.0909090909091" />
    <path stroke="blue" d="M827.7499177631579,28.6846272326857L826.5808014785798,29.3783716927155C825.411685194002,30.0721161527453,823.0734526248461,31.4596050728049,819.1637724588336,33.002959912103016C815.2540922928209,34.54631475140113,809.7729645299515,36.24553550993775,798.153949797053,37.65319321564018C786.5349350641544,39.0608509213426,768.7780333612264,40.176945574210826,759.118461245287,41.30304106805094C749.4588891293474,42.42913656189105,747.8966466003963,43.56523289670306,735.3269118382578,45.592836885872636C722.7571770761197,47.62044087504222,699.1799500807941,50.53955251856937,679.9113120383195,53.18170373664927C660.6426739958448,55.82385495472915,645.6826249062211,58.189045747361774,635.3240124485418,59.53545763054566C624.9653999908626,60.881869513729534,619.2082241651277,61.209502487464675,605.8997489972876,62.57603061691024C592.5912738294475,63.942558746355814,571.7314993195022,66.34798203151182,552.1358396213258,67.79600044400678C532.5401799231494,69.24401885650174,514.2086350367421,69.73463239633564,490.13908530749853,72.84146478579349C466.06953557825483,75.94829717525134,436.26198100617495,81.67134841433311,408.8034252005425,84.85573181171257C381.34486939490995,88.04011520909201,356.23531235572483,88.68583076476915,338.8860790098876,90.51380660808222C321.5368456640505,92.34178245139528,311.94793601156124,95.35201858234427,306.42727128780007,97.20333672552228C300.9066065640389,99.05465486870027,299.45418676900584,99.74705502410727,298.21274079524466,100.3058028369362C296.9712948214835,100.86455064976512,295.9408226689943,101.28964612001595,287.6529240727917,103.77097898097298C279.365025476589,106.25231184193002,263.8197004366728,110.78988209359325,254.24787388908126,113.1607503631808C244.67604734148972,115.53161863276834,241.07771928622267,115.73578492028015,231.78400289031242,116.66384826617463C222.4902864944021,117.59191161206911,207.50118175784857,119.24387201634624,199.17271321464295,120.10824980055854C190.84424467143734,120.9726275847708,189.1764123215797,121.04942274891823,185.220049726839,121.4549296411289C181.2636871320983,121.86043653333952,175.0187942924746,122.59465515361337,169.83466557017542,124.32093384859932C164.65053684787628,126.04721254358525,160.52717224290166,128.76555131328325,157.6842560571522,130.27260763790702C154.84133987140274,131.77966396253078,153.27887210487842,132.0754378420803,149.97943819252075,132.45372970711958C146.6800042801631,132.83202157215885,141.64360422197214,133.29283142268787,138.06727954755308,135.7808859113397C134.49095487313403,138.26894039999158,132.3747055824869,142.78423952676624,129.13548777027546,145.23960689040035C125.89626995806402,147.6949742540345,121.53408362428824,148.09040985452805,118.56015683912358,148.41160448346594C115.58623005395891,148.7327991124038,114.00056281740535,148.97975276978593,112.09211072156818,149.31037737826935C110.18365862573098,149.64100198675274,107.95242167061019,150.0552975463374,105.08046537155663,150.36918824987848C102.20850907250308,150.68307895341954,98.69583342951678,150.896564800917,96.15722097183749,151.09998802863848C93.61860851415821,151.30341125636002,92.05405924178594,151.4967718643056,90.50604939741073,151.72829031631792C88.95803955303556,151.95980876833028,87.42656913665745,152.2294850644094,86.16345375500156,152.46752194894756C84.90033837334565,152.70555883348567,83.90557802641197,152.9119563064828,81.60527468788473,153.18118824878027C79.3049713493575,153.4504201910777,75.69912501923669,153.7824866026755,73.42459196579718,154.08992350972457C71.15005891235766,154.39736041677364,70.20683913559942,154.68016781927403,68.94318007704294,154.92784466617505C67.67952101848645,155.1755215130761,66.09542267813174,155.3880678043778,64.55036810605186,155.6394407463811C63.00531353397199,155.89081368838436,61.49930273016697,156.1810132810892,59.60714152431516,157.08906449165318C57.71498031846337,157.99711570221714,55.43666871056479,159.52301853064023,52.58921282269544,161.04984839742565C49.7417569348261,162.57667826421107,46.325156766986,164.10443516935877,43.850173923707295,164.97156737831799C41.3751910804286,165.8386995872772,39.841825561711296,166.04520710004792,37.87316901594721,167.36441257200713C35.90451247018313,168.68361804396633,33.50056489737227,171.11552147511398,27.823468795687134,175.3020344169744C22.146372694002,179.48854735883484,13.196128063442595,185.42966981140805,8.020849624403661,188.50626405433607C2.845571185364728,191.58285829726415,1.4452589378462684,191.7949243305471,0.2979117853570428,192.07511632046692C-0.8494353671321827,192.3553083103867,-1.743817424592174,192.70362625694338,-2.6425721976954404,192.98405837587256C-3.541326970798707,193.26449049480175,-4.444454459545248,193.47703678610344,-5.7401360875461735,193.80932904582642C-7.035817715547098,194.1416213055494,-8.724053482802406,194.59365953369365,-11.97038569559865,197.0831519133542C-15.216717908394891,199.57264429301472,-20.021146566732067,204.09959082419155,-23.248543289762228,206.51921512133046C-26.475940012792393,208.9388394184693,-28.126304800515538,209.25114148157022,-29.409439142332246,209.51356565877154C-30.692573484148966,209.77598983597284,-31.60847738005924,209.98853612727456,-34.485264636715144,210.86121649770408C-37.36205189337104,211.73389686813357,-42.19972251077255,213.2667113176909,-45.126260087238386,214.16346685265935C-48.05279766370422,215.06022238762785,-49.06820219923437,215.3209190080075,-50.30454149353647,215.71201267088676C-51.54088078783855,216.10310633376596,-52.99815484091258,216.62459703914485,-55.56200167359187,217.62837990249787C-58.125848506271176,218.6321627658509,-61.79626811855572,220.11823778717806,-64.08904929882273,221.14960722200541C-66.38183047908973,222.18097665683274,-67.2969732273392,222.75764050516023,-68.20182106513543,223.29311510600556C-69.10666890293167,223.82858970685092,-70.0012218302747,224.32287506021416,-70.8957359235534,224.8353161075372C-71.7902500168321,225.34775715486023,-72.68472527604648,225.87835389614307,-78.9712404658164,227.05550736599184C-85.25775565558632,228.23266083584068,-96.9363107759118,230.05637103425545,-105.17629978695368,232.05528297182127C-113.41628879799553,234.0541949093871,-118.21771169975379,236.22830858610394,-124.11444938586874,237.42193927001836C-130.0111870719837,238.61556995393278,-137.00323954245536,238.82871764504478,-143.22640083968142,239.03727231371093C-149.4495621369075,239.2458269823771,-154.90383226088795,239.44978862859747,-162.84079906798246,239.7537930696776C-170.77776587507697,240.05779751075775,-181.1974293652855,240.46184474669772,-187.88112771477765,241.67491954791606C-194.5648260642698,242.88799434913435,-197.51255927304555,244.91009671563097,-200.7463597332833,246.03373064627218C-203.9801601935211,247.15736457691335,-207.50002790522083,247.38253007169908,-210.97745386801708,250.05181829093158C-214.45487983081333,252.7211065101641,-217.8898640447061,257.83451745384343,-220.13607541503157,260.4620371875817C-222.38228678535702,263.08955692131997,-223.43972531211526,263.2311854451172,-227.45128276248462,263.41874071612534C-231.46284021285396,263.6062959871335,-238.42851658683443,263.83977800535246,-243.65631809787632,264.2634246422968C-248.88411960891816,264.68707127924114,-252.3740462570214,265.30088253491084,-255.89234507252232,268.9595147188986C-259.41064388802323,272.6181469028864,-262.95731487092183,279.32160001519225,-266.47642143496074,282.91001302175215C-269.9955279989997,286.498426028312,-273.487070144179,286.97179892912595,-276.744097258291,287.3961771100248C-280.001124372403,287.82055529092366,-283.02363645544784,288.19593875190753,-286.6200927088143,288.4899036280503C-290.2165489621807,288.7838685041931,-294.3869493858687,288.9964147954948,-299.2533921615305,289.2063892863686C-304.11983493719225,289.4163637772424,-309.6823200648277,289.6237664676883,-314.964489265928,290.4549087868436C-320.24665846702834,291.28605110599875,-325.24851174159363,292.7409330538633,-330.156374930267,293.62276186854274C-335.06423811894047,294.50459068322215,-339.87811122172207,294.8133663647165,-343.48666816953295,295.2921329507305C-347.0952251173438,295.77089953674454,-349.49846591018394,296.4196570272783,-357.8430583568983,302.07487610358265C-366.1876508036127,307.730095179887,-380.4735949042013,318.391775841962,-390.7109557628309,324.32231958593997C-400.94831662146044,330.252863329918,-407.13709423813094,331.4522701557991,-418.4160468365266,333.9356399714401C-429.6949994349223,336.4190097870811,-446.06412701504314,340.18634259248205,-465.76740367228376,343.3702280974173C-485.47068032952455,346.5541136023526,-508.5081060638851,349.1545518068221,-520.0268189310653,350.45477090905683L-531.5455317982456,351.7549900112916" />
    
    <path stroke="darkorange" d="M827.7499177631579,315.3103448275862L826.5808014785798,314.45791398559095C825.411685194002,313.6054831435957,823.0734526248461,311.90062145960513,819.1637724588336,309.70486134727776C815.2540922928209,307.5091012349503,809.7729645299515,304.8224426942861,798.153949797053,302.7894281286944C786.5349350641544,300.75641356310274,768.7780333612264,299.3770429725835,759.118461245287,298.294976268654C749.4588891293474,297.21290956472444,747.8966466003963,296.4281467473845,735.3269118382578,295.321744458405C722.7571770761197,294.21534216942564,699.1799500807941,292.78730040880674,679.9113120383195,291.23108404501323C660.6426739958448,289.6748676812197,645.6826249062211,287.99047671425166,635.3240124485418,286.7613711238455C624.9653999908626,285.5322655334394,619.2082241651277,284.75844531959524,605.8997489972876,283.49746705103985C592.5912738294475,282.23648878248446,571.7314993195022,280.4883524592178,552.1358396213258,279.31306534964216C532.5401799231494,278.13777824006655,514.2086350367421,277.535340344182,490.13908530749853,275.3845367929955C466.06953557825483,273.23373324180903,436.26198100617495,269.5345640353208,408.8034252005425,267.458894471688C381.34486939490995,265.3832249080552,356.23531235572483,264.93105498727783,338.8860790098876,262.8877259216193C321.5368456640505,260.8443968559607,311.94793601156124,257.20990864542085,306.42727128780007,254.50183487431175C300.9066065640389,251.79376110320268,299.45418676900584,250.01210177152439,298.21274079524466,248.2304424398461C296.9712948214835,246.44878310816773,295.9408226689943,244.66712377648938,287.6529240727917,242.09476677039245C279.365025476589,239.52240976429553,263.8197004366728,236.15935508378,254.24787388908126,234.52062956247735C244.67604734148972,232.88190404117472,241.07771928622267,232.96750767908495,231.78400289031242,232.1255621220041C222.4902864944021,231.28361656492328,207.50118175784857,229.5141218128514,199.17271321464295,228.67598349060924C190.84424467143734,227.83784516836704,189.1764123215797,227.93106327595459,185.220049726839,227.43043871619042C181.2636871320983,226.9298141564262,175.0187942924746,225.8353469293103,169.83466557017542,224.15327928944805C164.65053684787628,222.4712116495858,160.52717224290166,220.20154359697722,157.6842560571522,218.5712287420431C154.84133987140274,216.94091388710896,153.27887210487842,215.94995222984926,149.97943819252075,215.0243632149627C146.6800042801631,214.09877420007618,141.64360422197214,213.23855782756286,138.06727954755308,211.5035932404368C134.49095487313403,209.76862865331077,132.3747055824869,207.158915851572,129.13548777027546,205.57544976899337C125.89626995806402,203.99198368641473,121.53408362428824,203.43476432299613,118.56015683912358,203.05602264986635C115.58623005395891,202.67728097673648,114.00056281740535,202.4770169938954,112.09211072156818,202.05365589819337C110.18365862573098,201.63029480249136,107.95242167061019,200.9838365939285,105.08046537155663,200.5604754982265C102.20850907250308,200.1371144025245,98.69583342951678,199.9368504196834,96.15722097183749,199.73658643684226C93.61860851415821,199.53632245400115,92.05405924178594,199.33605847116004,90.50604939741073,198.73421968516928C88.95803955303556,198.13238089917857,87.42656913665745,197.12896731003823,86.16345375500156,196.52712852404753C84.90033837334565,195.9252897380568,83.90557802641197,195.7250257552157,81.60527468788473,195.12318696922497C79.3049713493575,194.52134818323427,75.69912501923669,193.51793459409393,73.42459196579718,192.5145210049536C71.15005891235766,191.51110741581326,70.20683913559942,190.50769382667292,68.94318007704294,189.9058550406822C67.67952101848645,189.30401625469145,66.09542267813174,189.10375227185034,64.55036810605186,188.90348828900923C63.00531353397199,188.7032243061681,61.49930273016697,188.502960323327,59.60714152431516,187.90112153733628C57.71498031846337,187.29928275134557,55.43666871056479,186.29586916220524,52.58921282269544,185.8150933683405C49.7417569348261,185.3343175744758,46.325156766986,185.37617957588665,43.850173923707295,185.2969785851715C41.3751910804286,185.2177775944564,39.841825561711296,185.01751361161527,37.87316901594721,184.5329089694335C35.90451247018313,184.0483043272517,33.50056489737227,183.27935902572926,27.823468795687134,178.87167746047058C22.146372694002,174.46399589521187,13.196128063442595,166.41757806621692,8.020849624403661,162.29423716029888C2.845571185364728,158.17089625438084,1.4452589378462684,157.97063227153973,0.2979117853570428,157.77036828869862C-0.8494353671321827,157.5701043058575,-1.743817424592174,157.3698403230164,-2.6425721976954404,157.16957634017527C-3.541326970798707,156.96931235733416,-4.444454459545248,156.76904837449305,-5.7401360875461735,156.2512019740695C-7.035817715547098,155.73335557364598,-8.724053482802406,154.89792675564001,-11.97038569559865,154.38008035521645C-15.216717908394891,153.86223395479294,-20.021146566732067,153.66196997195183,-23.248543289762228,153.1369868879871C-26.475940012792393,152.6120038040224,-28.126304800515538,151.7623016189341,-29.409439142332246,151.23731853496938C-30.692573484148966,150.7123354510047,-31.60847738005924,150.51207146816355,-34.485264636715144,149.73877377745728C-37.36205189337104,148.965476086751,-42.19972251077255,147.61914468817955,-45.126260087238386,146.84584699747327C-48.05279766370422,146.072549306767,-49.06820219923437,145.87228532392587,-50.30454149353647,145.0989876332196C-51.54088078783855,144.3256899425133,-52.99815484091258,142.97935854394183,-55.56200167359187,141.4101807034228C-58.125848506271176,139.84100286290376,-61.79626811855572,138.0489785804372,-64.08904929882273,135.91950111445C-66.38183047908973,133.79002364846284,-67.2969732273392,131.32309299895505,-68.20182106513543,129.42282901611395C-69.10666890293167,127.52256503327284,-70.0012218302747,126.18896771709841,-70.8957359235534,124.85537040092395C-71.7902500168321,123.5217730847495,-72.68472527604648,122.18817576857505,-78.9712404658164,119.72124511906726C-85.25775565558632,117.25431446955947,-96.9363107759118,113.65405048671836,-105.17629978695368,111.18711983721057C-113.41628879799553,108.72018918770281,-118.21771169975379,107.38659187152835,-124.11444938586874,106.61966122202058C-130.0111870719837,105.85273057251278,-137.00323954245536,105.65246658967169,-143.22640083968142,105.45220260683057C-149.4495621369075,105.25193862398946,-154.90383226088795,105.05167464114834,-162.84079906798246,104.51880196265505C-170.77776587507697,103.98592928416174,-181.1974293652855,103.1204479100163,-187.88112771477765,101.47887957934908C-194.5648260642698,99.83731124868189,-197.51255927304555,97.41965596149294,-200.7463597332833,96.1106963264779C-203.9801601935211,94.80173669146286,-207.50002790522083,94.60147270862176,-210.97745386801708,92.73816524751976C-214.45487983081333,90.87485778641776,-217.8898640447061,87.34850684705492,-220.13607541503157,85.48519938595292C-222.38228678535702,83.62189192485094,-223.43972531211526,83.42162794200983,-227.45128276248462,82.96188199802162C-231.46284021285396,82.50213605403343,-238.42851658683443,81.78290814889814,-243.65631809787632,81.32316220490993C-248.88411960891816,80.86341626092174,-252.3740462570214,80.66315227808063,-255.89234507252232,79.3777819122608C-259.41064388802323,78.09241154644096,-262.95731487092183,75.72193479764239,-266.47642143496074,74.43656443182255C-269.9955279989997,73.1511940660027,-273.487070144179,72.9509300831616,-276.744097258291,72.75066610032049C-280.001124372403,72.55040211747938,-283.02363645544784,72.35013813463826,-286.6200927088143,72.14987415179714C-290.2165489621807,71.94961016895603,-294.3869493858687,71.7493461861149,-299.2533921615305,71.54908220327378C-304.11983493719225,71.34881822043268,-309.6823200648277,71.14855423759157,-314.964489265928,70.40573706326109C-320.24665846702834,69.66291988893062,-325.24851174159363,68.37754952311077,-330.156374930267,67.6347323487803C-335.06423811894047,66.89191517444982,-339.87811122172207,66.6916511916087,-343.48666816953295,66.05384431240522C-347.0952251173438,65.41603743320171,-349.49846591018394,64.34068765763583,-357.8430583568983,59.315784004238765C-366.1876508036127,54.29088035084172,-380.4735949042013,45.3164228196135,-390.7109557628309,39.72870757835338C-400.94831662146044,34.140992337093266,-407.13709423813094,31.940019385801246,-418.4160468365266,29.058082237416002C-429.6949994349223,26.176145089030754,-446.06412701504314,22.613243743552278,-465.76740367228376,19.47491782264922C-485.47068032952455,16.336591901746164,-508.5081060638851,13.622841405418532,-520.0268189310653,12.265966157254715L-531.5455317982456,10.909090909090896" />
    <path stroke="orange" d="M827.7499177631579,331.31537276731433L826.5808014785798,330.62162830728454C825.411685194002,329.9278838472547,823.0734526248461,328.5403949271951,819.1637724588336,326.997040087897C815.2540922928209,325.4536852485989,809.7729645299515,323.7544644900622,798.153949797053,322.3468067843598C786.5349350641544,320.9391490786574,768.7780333612264,319.82305442578917,759.118461245287,318.69695893194904C749.4588891293474,317.5708634381089,747.8966466003963,316.4347671032969,735.3269118382578,314.40716311412734C722.7571770761197,312.3795591249578,699.1799500807941,309.46044748143066,679.9113120383195,306.81829626335076C660.6426739958448,304.17614504527086,645.6826249062211,301.8109542526382,635.3240124485418,300.46454236945436C624.9653999908626,299.11813048627045,619.2082241651277,298.7904975125353,605.8997489972876,297.42396938308974C592.5912738294475,296.0574412536442,571.7314993195022,293.6520179684882,552.1358396213258,292.2039995559932C532.5401799231494,290.7559811434983,514.2086350367421,290.26536760366434,490.13908530749853,287.1585352142065C466.06953557825483,284.05170282474865,436.26198100617495,278.3286515856669,408.8034252005425,275.1442681882874C381.34486939490995,271.959884790908,356.23531235572483,271.31416923523085,338.8860790098876,269.48619339191777C321.5368456640505,267.6582175486047,311.94793601156124,264.6479814176557,306.42727128780007,262.7966632744777C300.9066065640389,260.9453451312997,299.45418676900584,260.2529449758927,298.21274079524466,259.6941971630638C296.9712948214835,259.13544935023486,295.9408226689943,258.71035387998404,287.6529240727917,256.229021019027C279.365025476589,253.74768815807,263.8197004366728,249.21011790640674,254.24787388908126,246.8392496368192C244.67604734148972,244.46838136723167,241.07771928622267,244.26421507971986,231.78400289031242,243.3361517338254C222.4902864944021,242.4080883879309,207.50118175784857,240.75612798365376,199.17271321464295,239.89175019944147C190.84424467143734,239.02737241522922,189.1764123215797,238.95057725108177,185.220049726839,238.54507035887113C181.2636871320983,238.13956346666046,175.0187942924746,237.4053448463866,169.83466557017542,235.6790661514007C164.65053684787628,233.95278745641477,160.52717224290166,231.23444868671677,157.6842560571522,229.727392362093C154.84133987140274,228.22033603746922,153.27887210487842,227.9245621579197,149.97943819252075,227.54627029288045C146.6800042801631,227.16797842784115,141.64360422197214,226.70716857731213,138.06727954755308,224.2191140886603C134.49095487313403,221.73105960000848,132.3747055824869,217.2157604732338,129.13548777027546,214.76039310959968C125.89626995806402,212.30502574596554,121.53408362428824,211.90959014547198,118.56015683912358,211.58839551653412C115.58623005395891,211.26720088759623,114.00056281740535,211.0202472302141,112.09211072156818,210.68962262173068C110.18365862573098,210.3589980132473,107.95242167061019,209.94470245366264,105.08046537155663,209.63081175012155C102.20850907250308,209.31692104658052,98.69583342951678,209.10343519908304,96.15722097183749,208.90001197136152C93.61860851415821,208.69658874363998,92.05405924178594,208.5032281356944,90.50604939741073,208.27170968368205C88.95803955303556,208.04019123166972,87.42656913665745,207.77051493559057,86.16345375500156,207.53247805105244C84.90033837334565,207.2944411665143,83.90557802641197,207.0880436935172,81.60527468788473,206.81881175121973C79.3049713493575,206.5495798089223,75.69912501923669,206.2175133973245,73.42459196579718,205.91007649027543C71.15005891235766,205.60263958322636,70.20683913559942,205.31983218072597,68.94318007704294,205.07215533382495C67.67952101848645,204.8244784869239,66.09542267813174,204.61193219562222,64.55036810605186,204.36055925361893C63.00531353397199,204.10918631161567,61.49930273016697,203.81898671891085,59.60714152431516,202.91093550834685C57.71498031846337,202.00288429778288,55.43666871056479,200.47698146935977,52.58921282269544,198.95015160257435C49.7417569348261,197.42332173578893,46.325156766986,195.8955648306412,43.850173923707295,195.02843262168201C41.3751910804286,194.1613004127228,39.841825561711296,193.95479289995208,37.87316901594721,192.63558742799287C35.90451247018313,191.31638195603372,33.50056489737227,188.88447852488602,27.823468795687134,184.6979655830256C22.146372694002,180.51145264116516,13.196128063442595,174.57033018859195,8.020849624403661,171.49373594566387C2.845571185364728,168.41714170273585,1.4452589378462684,168.2050756694529,0.2979117853570428,167.92488367953308C-0.8494353671321827,167.6446916896133,-1.743817424592174,167.29637374305665,-2.6425721976954404,167.01594162412746C-3.541326970798707,166.73550950519828,-4.444454459545248,166.52296321389656,-5.7401360875461735,166.19067095417356C-7.035817715547098,165.8583786944506,-8.724053482802406,165.40634046630635,-11.97038569559865,162.9168480866458C-15.216717908394891,160.42735570698528,-20.021146566732067,155.90040917580845,-23.248543289762228,153.48078487866954C-26.475940012792393,151.0611605815307,-28.126304800515538,150.74885851842978,-29.409439142332246,150.4864343412285C-30.692573484148966,150.22401016402716,-31.60847738005924,150.01146387272547,-34.485264636715144,149.13878350229595C-37.36205189337104,148.26610313186643,-42.19972251077255,146.7332886823091,-45.126260087238386,145.83653314734065C-48.05279766370422,144.93977761237215,-49.06820219923437,144.67908099199252,-50.30454149353647,144.28798732911326C-51.54088078783855,143.89689366623404,-52.99815484091258,143.37540296085515,-55.56200167359187,142.37162009750213C-58.125848506271176,141.3678372341491,-61.79626811855572,139.88176221282194,-64.08904929882273,138.85039277799459C-66.38183047908973,137.81902334316726,-67.2969732273392,137.2423594948398,-68.20182106513543,136.70688489399444C-69.10666890293167,136.17141029314908,-70.0012218302747,135.67712493978584,-70.8957359235534,135.1646838924628C-71.7902500168321,134.65224284513977,-72.68472527604648,134.12164610385693,-78.9712404658164,132.94449263400813C-85.25775565558632,131.76733916415932,-96.9363107759118,129.94362896574458,-105.17629978695368,127.94471702817874C-113.41628879799553,125.94580509061292,-118.21771169975379,123.77169141389606,-124.11444938586874,122.57806072998164C-130.0111870719837,121.38443004606722,-137.00323954245536,121.17128235495524,-143.22640083968142,120.9627276862891C-149.4495621369075,120.75417301762292,-154.90383226088795,120.55021137140257,-162.84079906798246,120.24620693032239C-170.77776587507697,119.94220248924222,-181.1974293652855,119.53815525330225,-187.88112771477765,118.32508045208395C-194.5648260642698,117.11200565086564,-197.51255927304555,115.08990328436903,-200.7463597332833,113.96626935372784C-203.9801601935211,112.84263542308668,-207.50002790522083,112.61746992830092,-210.97745386801708,109.94818170906842C-214.45487983081333,107.27889348983588,-217.8898640447061,102.16548254615657,-220.13607541503157,99.5379628124183C-222.38228678535702,96.91044307868003,-223.43972531211526,96.76881455488278,-227.45128276248462,96.58125928387467C-231.46284021285396,96.39370401286656,-238.42851658683443,96.16022199464756,-243.65631809787632,95.73657535770322C-248.88411960891816,95.31292872075888,-252.3740462570214,94.69911746508917,-255.89234507252232,91.04048528110138C-259.41064388802323,87.3818530971136,-262.95731487092183,80.67839998480774,-266.47642143496074,77.08998697824785C-269.9955279989997,73.50157397168796,-273.487070144179,73.02820107087406,-276.744097258291,72.6038228899752C-280.001124372403,72.17944470907634,-283.02363645544784,71.80406124809251,-286.6200927088143,71.51009637194973C-290.2165489621807,71.21613149580696,-294.3869493858687,71.00358520450526,-299.2533921615305,70.79361071363144C-304.11983493719225,70.5836362227576,-309.6823200648277,70.37623353231167,-314.964489265928,69.54509121315645C-320.24665846702834,68.71394889400123,-325.24851174159363,67.25906694613673,-330.156374930267,66.3772381314573C-335.06423811894047,65.49540931677788,-339.87811122172207,65.18663363528354,-343.48666816953295,64.7078670492695C-347.0952251173438,64.22910046325545,-349.49846591018394,63.58034297272169,-357.8430583568983,57.925123896417325C-366.1876508036127,52.26990482011297,-380.4735949042013,41.60822415803801,-390.7109557628309,35.67768041406C-400.94831662146044,29.747136670081982,-407.13709423813094,28.5477298442009,-418.4160468365266,26.06436002855989C-429.6949994349223,23.580990212918877,-446.06412701504314,19.813657407517933,-465.76740367228376,16.629771902582693C-485.47068032952455,13.445886397647456,-508.5081060638851,10.845448193177925,-520.0268189310653,9.545229090943161L-531.5455317982456,8.245009988708395" />
  </g>
  
  <g class="axis y" stroke="black" fill="none" stroke-dasharray="4 6" transform="translate(20, 80)">
    <path d="M 20,270 h900" />
      <g transform="translate(0, 270)">
      <text text-anchor="middle"
      fill="black"
      stroke="none"
      transform="translate(0, 3)">25%</text>
      <path d="M0,v-5 0" />
      </g><path d="M 20,180 h900" />
      <g transform="translate(0, 180)">
      <text text-anchor="middle"
      fill="black"
      stroke="none"
      transform="translate(0, 3)">50%</text>
      <path d="M0,v-5 0" />
      </g><path d="M 20,90 h900" />
      <g transform="translate(0, 90)">
      <text text-anchor="middle"
      fill="black"
      stroke="none"
      transform="translate(0, 3)">75%</text>
      <path d="M0,v-5 0" />
      </g><path d="M 20,0 h900" />
    <g transform="translate(0, 0)">
    <text text-anchor="middle"
    fill="black"
    stroke="none"
    transform="translate(0, 3)">100%</text>
    <path d="M0,v-5 0" />
    </g>
  </g>
  <g
    class="axis x"
    stroke="black" fill="none"
    transform="translate(20, 440)">
  
  <path d="M0,0 h900" />
  <g transform="translate(827, 0)">
      <text text-anchor="middle"
      fill="black"
      stroke="none"
      transform="translate(0, 12)">Oct</text>
      <path d="M0,0 v-5" />
    </g><g transform="translate(756, 0)">
      <text text-anchor="middle"
      fill="black"
      stroke="none"
      transform="translate(0, 12)">Sep</text>
      <path d="M0,0 v-5" />
    </g><g transform="translate(682, 0)">
      <text text-anchor="middle"
      fill="black"
      stroke="none"
      transform="translate(0, 12)">Aug</text>
      <path d="M0,0 v-5" />
    </g><g transform="translate(609, 0)">
      <text text-anchor="middle"
      fill="black"
      stroke="none"
      transform="translate(0, 12)">Jul</text>
      <path d="M0,0 v-5" />
    </g><g transform="translate(538, 0)">
      <text text-anchor="middle"
      fill="black"
      stroke="none"
      transform="translate(0, 12)">Jun</text>
      <path d="M0,0 v-5" />
    </g><g transform="translate(464, 0)">
      <text text-anchor="middle"
      fill="black"
      stroke="none"
      transform="translate(0, 12)">May</text>
      <path d="M0,0 v-5" />
    </g><g transform="translate(393, 0)">
      <text text-anchor="middle"
      fill="black"
      stroke="none"
      transform="translate(0, 12)">Apr</text>
      <path d="M0,0 v-5" />
    </g><g transform="translate(320, 0)">
      <text text-anchor="middle"
      fill="black"
      stroke="none"
      transform="translate(0, 12)">Mar</text>
      <path d="M0,0 v-5" />
    </g><g transform="translate(253, 0)">
      <text text-anchor="middle"
      fill="black"
      stroke="none"
      transform="translate(0, 12)">Feb</text>
      <path d="M0,0 v-5" />
    </g><g transform="translate(180, 0)">
      <text text-anchor="middle"
      fill="black"
      stroke="none"
      transform="translate(0, 12)">Jan ’22</text>
      <path d="M0,0 v-5" />
    </g><g transform="translate(107, 0)">
      <text text-anchor="middle"
      fill="black"
      stroke="none"
      transform="translate(0, 12)">Dec</text>
      <path d="M0,0 v-5" />
    </g><g transform="translate(36, 0)">
      <text text-anchor="middle"
      fill="black"
      stroke="none"
      transform="translate(0, 12)">Nov</text>
      <path d="M0,0 v-5" />
    </g><g transform="translate(-38, 0)">
      <text text-anchor="middle"
      fill="black"
      stroke="none"
      transform="translate(0, 12)">Oct</text>
      <path d="M0,0 v-5" />
    </g>
  
  </g>
  <g class="legend" transform="translate(20,10)">
    <rect width="18" height="18" style="fill: darkblue; stroke: darkblue;"></rect>
    <text x="22" y="14">TypeScript (by file number)</text>
  </g>
  <g class="legend" transform="translate(20,30)">
    <rect width="18" height="18" style="fill: blue; stroke: blue;"></rect>
    <text x="22" y="14">TypeScript (by file size)</text>
  </g>
  <g class="legend" transform="translate(260,10)">
    <rect width="18" height="18" style="fill: darkorange; stroke: darkorange;"></rect>
    <text x="22" y="14">JavaScript (by file number)</text>
  </g>
  <g class="legend" transform="translate(260,30)">
    <rect width="18" height="18" style="fill: orange; stroke: orange;"></rect>
    <text x="22" y="14">JavaScript (by file size)</text>
  </g>
  <g class="total" transform="translate(570,30)">
    <text x="22" y="14" font-size="35px">87.5% complete</text>
  </g>
</svg>