<svg xmlns="http://www.w3.org/2000/svg"
  viewBox="0 0 900 400"
  width="900"
  height="400">
  <style>
    text {
      font-family: "Courier New", Courier, monospace;
      font-size: 12px;
    }
  </style>
  <g class="lines" fill="none">
    <path stroke="darkblue" d="M811.2465483234714,153.17829457364343L810.5534320526396,153.69172623242392C809.8603157818076,154.2051578912044,808.474083240144,155.2320212087654,805.1350485226912,156.189880070488C801.7960138052385,157.14773893221061,796.504176911997,158.0365933380949,792.8538448880848,159.8487930816259C789.2035128641725,161.6609928251569,787.1946857095895,164.39653790633463,783.9233495662656,166.04882256173227C780.6520134229419,167.7011072171299,776.1181682908772,168.27013144674746,773.1450883318071,168.650762558838C770.172008372737,169.03139367092857,768.7596935866617,169.22363166549212,766.98448458009,169.65136105696442C765.2092755735184,170.07909044843672,763.0711723464502,170.74231123681773,760.2127337622982,171.17004062829002C757.3542951781459,171.5977700197623,753.7755212369094,171.79000801432588,751.2918479182076,171.98224600888946C748.8081745995056,172.17448400345302,747.4196019033384,172.3667219980166,746.0496238303631,172.9828445070159C744.6796457573877,173.59896701601517,743.3282623076042,174.63897403945012,742.2785797844316,175.25509654844942C741.228897261259,175.87121905744868,740.4809156646971,176.06345705201227,738.2651638409001,176.67957956101154C736.0494120171028,177.29570207001083,732.3658899660703,178.33570909344576,730.179110652135,179.37571611688074C727.9923313381997,180.4157231403157,727.3022947613617,181.45573016375067,726.2520010038039,182.07185267274997C725.2017072462462,182.68797518174924,723.7911563079683,182.88021317631282,722.4245007304729,183.0724511708764C721.0578451529776,183.26468916543993,719.7350849362643,183.45692716000352,717.9781911314516,184.0730496690028C716.2212973266384,184.68917217800208,714.0302699337257,185.72917920143706,711.1993761905496,186.21751299652556C708.3684824473738,186.7058467916141,704.8977223539349,186.64250735835608,702.4855852881093,186.70695663900892C700.0734482222839,186.7714059196617,698.7199341840719,186.9636439142253,696.877039701251,187.45601927142624C695.0341452184302,187.94839462862717,692.7018702910005,188.74090734846547,686.689724236434,193.37430834669203C680.6775781818677,198.00770934491865,670.9855610001645,206.4819986215335,665.5375886491647,210.81526225712273C660.089616298165,215.14852589271194,658.8856887778688,215.34076388727553,657.9661598851202,215.53300188183906C657.0466309923717,215.7252398764027,656.4115007271707,215.91747787096628,655.7714543911284,216.1097158655298C655.1314080550859,216.3019538600934,654.4864456482019,216.49419185465695,653.4001501853514,217.02165573444643C652.3138547225011,217.54911961423588,650.7862262036841,218.4118093792512,647.506891621833,218.93927325904065C644.2275570399819,219.46673713883015,639.1965163950966,219.6589751333937,635.9384702336926,220.19397217914332C632.6804240722885,220.72896922489292,631.1953723943658,221.60672532182852,630.1231833479354,222.14172236757813C629.050994301505,222.67671941332773,628.3916678865672,222.86895740789132,625.5277980483057,223.66606431631251C622.6639282100444,224.46317122473383,617.5955149484597,225.86514704701275,614.675712797986,226.66225395543395C611.7559106475122,227.45936086385527,610.9847196081496,227.65159885841885,609.9651403784517,228.44870576684005C608.9455611487538,229.24581267526136,607.6775937287206,230.6477884975403,605.1655504026222,232.28499111965277C602.6535070765239,233.92219374176523,598.8973878443604,235.79462316371124,596.6900928848795,238.0232531682623C594.4827979253986,240.25188317281342,593.8243272386001,242.8367137599696,593.1774307114827,244.82339619897758C592.5305341843654,246.8100786379856,591.8952118169291,248.19861292884548,591.2599331090918,249.58714721970534C590.6246544012545,250.9756815105652,589.9894193530162,252.3642158014251,583.2921275781177,254.94904638858125C576.5948358032193,257.5338769757374,563.8354873016607,261.31500385918986,554.9419823549181,263.89983444634606C546.0484774081755,266.48466503350227,541.0208160162488,267.87319932436213,534.7617356359921,268.6635854670738C528.5026552557352,269.4539716097856,521.0121558871484,269.64620960434917,514.3860903819738,269.83844759891275C507.76002487679926,270.0306855934763,501.99839323503693,270.22292358803986,493.4455641388859,270.76624853912523C484.89273504273507,271.30957349021054,473.5487084921956,272.2039853978176,466.404879437136,273.9176002039754C459.2610503820765,275.6312150101332,456.3174188224969,278.16403271484165,453.05217319322634,279.5265605644777C449.78692756395577,280.8890884141137,446.2000678649942,281.0813264086773,442.660923741723,283.02899918584956C439.12177961845174,284.97667196302183,435.63035107087086,288.6797795228028,433.47541270244847,290.62745229997506C431.3204743340261,292.57512507714733,430.50202614476206,292.76736307171086,426.36237916563937,293.2334986919297C422.2227321865168,293.6996343121486,414.76188641753544,294.4396675580227,409.2548644589585,294.9058031782415C403.7478425003815,295.37193879846035,400.19464435220897,295.56417679302393,396.6095485010449,296.9018048585095C393.02445264988086,298.2394329239951,389.4074590957253,300.7224510604026,385.82145512490314,302.0600791258882C382.235451154081,303.39770719137374,378.6804367665921,303.58994518593727,375.38907833119066,303.78218318050085C372.09771989578934,303.97442117506444,369.0700174124754,304.166659169628,365.3970522524685,304.3588971641916C361.7240870924615,304.5511351587552,357.4058592557615,304.7433731533187,352.30509859731615,304.9356111478823C347.20433793887065,305.1278491424459,341.32104445867964,305.32008713700947,335.7528990615754,306.08502016703403C330.1847536644712,306.8499531970586,324.9317563504538,308.18758126254414,319.7844283637703,308.9525142925687C314.6371003770868,309.7174473225933,309.5954417177374,309.90968531715686,305.90887222669824,310.5637741467696C302.22230273565907,311.2178629763824,299.8908224129303,312.3338026410443,290.8797159704612,317.61871584341696C281.868609527992,322.90362904578956,266.1778769657826,332.35751578587286,255.0388060365449,338.2365078865454C243.89973510730724,344.1154999872179,237.31232581104123,346.41959744847964,225.00223458265825,349.44249045111764C212.69214335427523,352.4653834537556,194.65937019377523,356.2070719977697,172.87814540811087,359.50059759362085C151.09692062244648,362.79412318947203,125.5672442116177,365.6394858371603,112.80240600620333,367.0621671610044L100.03756780078895,368.4848484848485" />
    <path stroke="blue" d="M811.2465483234714,142.10065044964279L810.5534320526396,142.24689589061586C809.8603157818076,142.39314133158894,808.474083240144,142.68563221353511,805.1350485226912,143.0652254134982C801.7960138052385,143.4448186134613,796.504176911997,143.9115141314414,792.8538448880848,146.5180789896622C789.2035128641725,149.12464384788302,787.1946857095895,153.8710780463446,783.9233495662656,156.44313982815785C780.6520134229419,159.01520160997106,776.1181682908772,159.41289097513592,773.1450883318071,159.73221487032532C770.172008372737,160.05153876551472,768.7596935866617,160.29249719072865,766.98448458009,160.6217749532161C765.2092755735184,160.95105271570355,763.0711723464502,161.36864981546458,760.2127337622982,161.68026401162402C757.3542951781459,161.99187820778346,753.7755212369094,162.1975095003413,751.2918479182076,162.39251913869123C748.8081745995056,162.58752877704117,747.4196019033384,162.77191676118312,746.0496238303631,162.9965824696178C744.6796457573877,163.2212481780525,743.3282623076042,163.48619161077988,742.2785797844316,163.71773788688068C741.228897261259,163.94928416298146,740.4809156646971,164.14743328245564,738.2651638409001,164.4119076750802C736.0494120171028,164.6763820677047,732.3658899660703,165.0071817334796,730.179110652135,165.31198358889748C727.9923313381997,165.61678544431538,727.3022947613617,165.8955894893763,726.2520010038039,166.1373112813046C725.2017072462462,166.37903307323288,723.7911563079683,166.58367261202855,722.4245007304729,166.82929583767591C721.0578451529776,167.07491906332325,719.7350849362643,167.36152597582222,717.9781911314516,168.3003095960614C716.2212973266384,169.23909321630057,714.0302699337257,170.83005354427996,711.1993761905496,172.42199241275287C708.3684824473738,174.0139312812258,704.8977223539349,175.60684869019224,702.4855852881093,176.50244003095972C700.0734482222839,177.39803137172723,698.7199341840719,177.59629664429573,696.877039701251,178.96907642934096C695.0341452184302,180.3418562143862,692.7018702910005,182.88915051190818,686.689724236434,187.28853262629366C680.6775781818677,191.68791474067908,670.9855610001645,197.939384671928,665.5375886491647,201.1671859374404C660.089616298165,204.39498720295276,658.8856887778688,204.59911980272864,657.9661598851202,204.8751631345101C657.0466309923717,205.15120646629154,656.4115007271707,205.4991605300785,655.7714543911284,205.7754573313699C655.1314080550859,206.05175413266124,654.4864456482019,206.2563936714569,653.4001501853514,206.58743173247504C652.3138547225011,206.91846979349316,650.7862262036841,207.37590637673372,647.506891621833,209.98398900879704C644.2275570399819,212.59207164086038,639.1965163950966,217.3508003217465,635.9384702336926,219.88513331114805C632.6804240722885,222.41946630054963,631.1953723943658,222.72940359846666,630.1231833479354,222.98669201682307C629.050994301505,223.2439804351794,628.3916678865672,223.44861997397507,625.5277980483057,224.35006770740566C622.6639282100444,225.25151544083624,617.5955149484597,226.84977136890174,614.675712797986,227.77663177601235C611.7559106475122,228.70349218312296,610.9847196081496,228.95895706927865,609.9651403784517,229.35206327807285C608.9455611487538,229.745169486867,607.6775937287206,230.27591701829974,605.1655504026222,231.31575071648285C602.6535070765239,232.35558441466605,598.8973878443604,233.90450427959976,596.6900928848795,234.97345713656136C594.4827979253986,236.04240999352297,593.8243272386001,236.6313958425125,593.1774307114827,237.1769041524931C592.5305341843654,237.72241246247378,591.8952118169291,238.22444323344553,591.2599331090918,238.74563834804147C590.6246544012545,239.26683346263746,589.9894193530162,239.8071929208577,583.2921275781177,241.03002892589748C576.5948358032193,242.25286493093733,563.8354873016607,244.1581774827968,554.9419823549181,246.24842520376012C546.0484774081755,248.33867292472348,541.0208160162488,250.61385581479075,534.7617356359921,251.8540844346776C528.5026552557352,253.09431305456448,521.0121558871484,253.29958740427097,514.3860903819738,253.500013563618C507.76002487679926,253.70043972296506,501.99839323503693,253.8960176919526,493.4455641388859,254.1971963888478C484.89273504273507,254.49837508574296,473.5487084921956,254.90515451054569,466.404879437136,256.1659074764755C459.2610503820765,257.4266604424054,456.3174188224969,259.5413869494624,453.05217319322634,260.7077301075608C449.78692756395577,261.87407326565926,446.2000678649942,262.0920330747992,442.660923741723,264.8899002041885C439.12177961845174,267.6877673335778,435.63035107087086,273.06554178321653,433.47541270244847,275.8193199556952C431.3204743340261,278.57309812817397,430.50202614476206,278.70288002349275,426.36237916563937,278.8811401519785C422.2227321865168,279.0594002804643,414.76188641753544,279.28613864211707,409.2548644589585,279.71360632353554C403.7478425003815,280.14107400495396,400.19464435220897,280.7692710061381,396.6095485010449,284.61144565388025C393.02445264988086,288.4536203016223,389.4074590957253,295.50977259592236,385.82145512490314,299.2778270008239C382.235451154081,303.0458814057254,378.6804367665921,303.52583792122846,375.38907833119066,303.95407778793225C372.09771989578934,304.382317654636,369.0700174124754,304.7588408725406,365.3970522524685,305.0494222508907C361.7240870924615,305.3400036292408,357.4058592557615,305.5446431680365,352.30509859731615,305.7465680286027C347.20433793887065,305.94849288916896,341.32104445867964,306.14770307150576,335.7528990615754,307.0053050841468C330.1847536644712,307.86290709678786,324.9317563504538,309.37890093973317,319.7844283637703,310.2900053643164C314.6371003770868,311.2011097888997,309.5954417177374,311.50732479512095,305.90887222669824,311.9929746450019C302.22230273565907,312.4786244948828,299.8908224129303,313.14370918842343,290.8797159704612,319.0933922224997C281.868609527992,325.04307525657595,266.1778769657826,336.2773566311878,255.0388060365449,342.5176601478085C243.89973510730724,348.7579636644291,237.31232581104123,350.0042893230586,225.00223458265825,352.60590924865687C212.69214335427523,355.20752917425517,194.65937019377523,359.16444336682224,172.87814540811087,362.5054965200089C151.09692062244648,365.8465496731955,125.5672442116177,368.57174178700166,112.80240600620333,369.93433784390476L100.03756780078895,371.2969339008078" />
    
    <path stroke="darkorange" d="M811.2465483234714,226.82170542635657L810.5534320526396,226.3082737675761C809.8603157818076,225.7948421087956,808.474083240144,224.76797879123464,805.1350485226912,223.81011992951198C801.7960138052385,222.85226106778939,796.504176911997,221.96340666190508,792.8538448880848,220.1512069183741C789.2035128641725,218.33900717484312,787.1946857095895,215.60346209366537,783.9233495662656,213.9511774382677C780.6520134229419,212.2988927828701,776.1181682908772,211.72986855325257,773.1450883318071,211.349237441162C770.172008372737,210.96860632907146,768.7596935866617,210.77636833450788,766.98448458009,210.34863894303558C765.2092755735184,209.92090955156326,763.0711723464502,209.25768876318224,760.2127337622982,208.82995937170995C757.3542951781459,208.40222998023765,753.7755212369094,208.20999198567407,751.2918479182076,208.01775399111054C748.8081745995056,207.82551599654695,747.4196019033384,207.63327800198337,746.0496238303631,207.0171554929841C744.6796457573877,206.4010329839848,743.3282623076042,205.36102596054988,742.2785797844316,204.7449034515506C741.228897261259,204.12878094255132,740.4809156646971,203.93654294798776,738.2651638409001,203.32042043898846C736.0494120171028,202.70429792998922,732.3658899660703,201.66429090655424,730.179110652135,200.62428388311926C727.9923313381997,199.5842768596843,727.3022947613617,198.5442698362493,726.2520010038039,197.92814732725003C725.2017072462462,197.31202481825073,723.7911563079683,197.11978682368718,722.4245007304729,196.9275488291236C721.0578451529776,196.73531083456,719.7350849362643,196.54307283999643,717.9781911314516,195.9269503309972C716.2212973266384,195.31082782199792,714.0302699337257,194.27082079856294,711.1993761905496,193.78248700347444C708.3684824473738,193.29415320838595,704.8977223539349,193.35749264164392,702.4855852881093,193.29304336099108C700.0734482222839,193.2285940803383,698.7199341840719,193.0363560857747,696.877039701251,192.54398072857376C695.0341452184302,192.05160537137283,692.7018702910005,191.25909265153453,686.689724236434,186.62569165330797C680.6775781818677,181.99229065508135,670.9855610001645,173.5180013784665,665.5375886491647,169.18473774287727C660.089616298165,164.85147410728806,658.8856887778688,164.65923611272447,657.9661598851202,164.46699811816092C657.0466309923717,164.27476012359736,656.4115007271707,164.08252212903378,655.7714543911284,163.8902841344702C655.1314080550859,163.6980461399066,654.4864456482019,163.50580814534305,653.4001501853514,162.97834426555357C652.3138547225011,162.45088038576412,650.7862262036841,161.58819062074875,647.506891621833,161.0607267409593C644.2275570399819,160.53326286116985,639.1965163950966,160.34102486660626,635.9384702336926,159.80602782085666C632.6804240722885,159.27103077510708,631.1953723943658,158.39327467817145,630.1231833479354,157.85827763242185C629.050994301505,157.32328058667224,628.3916678865672,157.13104259210868,625.5277980483057,156.33393568368743C622.6639282100444,155.53682877526617,617.5955149484597,154.13485295298725,614.675712797986,153.337746044566C611.7559106475122,152.54063913614473,610.9847196081496,152.34840114158115,609.9651403784517,151.5512942331599C608.9455611487538,150.75418732473867,607.6775937287206,149.35221150245974,605.1655504026222,147.71500888034726C602.6535070765239,146.0778062582348,598.8973878443604,144.20537683628876,596.6900928848795,141.9767468317377C594.4827979253986,139.74811682718658,593.8243272386001,137.16328624003043,593.1774307114827,135.1766038010224C592.5305341843654,133.1899213620144,591.8952118169291,131.80138707115452,591.2599331090918,130.41285278029466C590.6246544012545,129.02431848943476,589.9894193530162,127.63578419857488,583.2921275781177,125.05095361141873C576.5948358032193,122.46612302426256,563.8354873016607,118.6849961408101,554.9419823549181,116.10016555365394C546.0484774081755,113.51533496649778,541.0208160162488,112.12680067563788,534.7617356359921,111.33641453292616C528.5026552557352,110.54602839021443,521.0121558871484,110.35379039565088,514.3860903819738,110.16155240108729C507.76002487679926,109.96931440652372,501.99839323503693,109.77707641196014,493.4455641388859,109.23375146087481C484.89273504273507,108.6904265097895,473.5487084921956,107.79601460218244,466.404879437136,106.08239979602467C459.2610503820765,104.36878498986687,456.3174188224969,101.83596728515839,453.05217319322634,100.47343943552234C449.78692756395577,99.11091158588631,446.2000678649942,98.91867359132273,442.660923741723,96.97100081415046C439.12177961845174,95.02332803697819,435.63035107087086,91.32022047719721,433.47541270244847,89.37254770002494C431.3204743340261,87.42487492285267,430.50202614476206,87.23263692828908,426.36237916563937,86.76650130807026C422.2227321865168,86.30036568785142,414.76188641753544,85.56033244197734,409.2548644589585,85.09419682175852C403.7478425003815,84.6280612015397,400.19464435220897,84.43582320697611,396.6095485010449,83.09819514149054C393.02445264988086,81.76056707600497,389.4074590957253,79.27754893959742,385.82145512490314,77.93992087411186C382.235451154081,76.6022928086263,378.6804367665921,76.41005481406272,375.38907833119066,76.21781681949915C372.09771989578934,76.02557882493556,369.0700174124754,75.833340830372,365.3970522524685,75.64110283580841C361.7240870924615,75.44886484124483,357.4058592557615,75.25662684668127,352.30509859731615,75.06438885211769C347.20433793887065,74.87215085755412,341.32104445867964,74.67991286299053,335.7528990615754,73.91497983296597C330.1847536644712,73.1500468029414,324.9317563504538,71.81241873745584,319.7844283637703,71.04748570743128C314.6371003770868,70.28255267740671,309.5954417177374,70.09031468284313,305.90887222669824,69.43622585323037C302.22230273565907,68.78213702361761,299.8908224129303,67.66619735895566,290.8797159704612,62.381284156583035C281.868609527992,57.096370954210414,266.1778769657826,47.64248421412713,255.0388060365449,41.76349211345461C243.89973510730724,35.88450001278209,237.31232581104123,33.580402551520336,225.00223458265825,30.557509548882393C212.69214335427523,27.53461654624446,194.65937019377523,23.792928002230337,172.87814540811087,20.499402406379158C151.09692062244648,17.205876810527975,125.5672442116177,14.36051416283974,112.80240600620333,12.93783283899562L100.03756780078895,11.515151515151503" />
    <path stroke="orange" d="M811.2465483234714,237.89934955035721L810.5534320526396,237.75310410938414C809.8603157818076,237.60685866841106,808.474083240144,237.3143677864649,805.1350485226912,236.93477458650182C801.7960138052385,236.5551813865387,796.504176911997,236.08848586855865,792.8538448880848,233.4819210103378C789.2035128641725,230.87535615211698,787.1946857095895,226.1289219536554,783.9233495662656,223.5568601718422C780.6520134229419,220.98479839002894,776.1181682908772,220.58710902486408,773.1450883318071,220.2677851296747C770.172008372737,219.94846123448528,768.7596935866617,219.70750280927135,766.98448458009,219.3782250467839C765.2092755735184,219.04894728429645,763.0711723464502,218.63135018453542,760.2127337622982,218.31973598837598C757.3542951781459,218.00812179221654,753.7755212369094,217.8024904996587,751.2918479182076,217.60748086130877C748.8081745995056,217.41247122295886,747.4196019033384,217.22808323881688,746.0496238303631,217.0034175303822C744.6796457573877,216.7787518219475,743.3282623076042,216.51380838922012,742.2785797844316,216.28226211311934C741.228897261259,216.05071583701852,740.4809156646971,215.85256671754436,738.2651638409001,215.5880923249198C736.0494120171028,215.3236179322953,732.3658899660703,214.9928182665204,730.179110652135,214.6880164111025C727.9923313381997,214.38321455568462,727.3022947613617,214.1044105106237,726.2520010038039,213.86268871869538C725.2017072462462,213.6209669267671,723.7911563079683,213.4163273879714,722.4245007304729,213.17070416232409C721.0578451529776,212.92508093667675,719.7350849362643,212.63847402417778,717.9781911314516,211.69969040393866C716.2212973266384,210.76090678369943,714.0302699337257,209.16994645572004,711.1993761905496,207.57800758724713C708.3684824473738,205.9860687187742,704.8977223539349,204.39315130980776,702.4855852881093,203.49755996904028C700.0734482222839,202.60196862827277,698.7199341840719,202.40370335570427,696.877039701251,201.03092357065904C695.0341452184302,199.6581437856138,692.7018702910005,197.11084948809182,686.689724236434,192.71146737370634C680.6775781818677,188.31208525932092,670.9855610001645,182.060615328072,665.5375886491647,178.8328140625596C660.089616298165,175.60501279704718,658.8856887778688,175.40088019727133,657.9661598851202,175.1248368654899C657.0466309923717,174.84879353370846,656.4115007271707,174.5008394699215,655.7714543911284,174.22454266863016C655.1314080550859,173.94824586733878,654.4864456482019,173.74360632854314,653.4001501853514,173.412568267525C652.3138547225011,173.08153020650684,650.7862262036841,172.62409362326628,647.506891621833,170.01601099120293C644.2275570399819,167.40792835913962,639.1965163950966,162.6491996782535,635.9384702336926,160.11486668885195C632.6804240722885,157.58053369945034,631.1953723943658,157.2705964015333,630.1231833479354,157.01330798317693C629.050994301505,156.75601956482058,628.3916678865672,156.55138002602487,625.5277980483057,155.6499322925943C622.6639282100444,154.7484845591637,617.5955149484597,153.15022863109823,614.675712797986,152.22336822398765C611.7559106475122,151.29650781687704,610.9847196081496,151.04104293072132,609.9651403784517,150.64793672192715C608.9455611487538,150.25483051313296,607.6775937287206,149.7240829817003,605.1655504026222,148.68424928351712C602.6535070765239,147.64441558533395,598.8973878443604,146.09549572040027,596.6900928848795,145.02654286343864C594.4827979253986,143.95759000647703,593.8243272386001,143.36860415748748,593.1774307114827,142.82309584750683C592.5305341843654,142.27758753752622,591.8952118169291,141.77555676655447,591.2599331090918,141.2543616519585C590.6246544012545,140.73316653736254,589.9894193530162,140.19280707914234,583.2921275781177,138.96997107410252C576.5948358032193,137.74713506906267,563.8354873016607,135.8418225172032,554.9419823549181,133.75157479623985C546.0484774081755,131.66132707527652,541.0208160162488,129.3861441852093,534.7617356359921,128.1459155653224C528.5026552557352,126.90568694543553,521.0121558871484,126.70041259572902,514.3860903819738,126.49998643638197C507.76002487679926,126.29956027703493,501.99839323503693,126.10398230804735,493.4455641388859,125.80280361115221C484.89273504273507,125.50162491425704,473.5487084921956,125.0948454894543,466.404879437136,123.83409252352443C459.2610503820765,122.57333955759458,456.3174188224969,120.45861305053762,453.05217319322634,119.29226989243917C449.78692756395577,118.12592673434072,446.2000678649942,117.9079669252008,442.660923741723,115.1100997958115C439.12177961845174,112.31223266642216,435.63035107087086,106.93445821678347,433.47541270244847,104.18068004430474C431.3204743340261,101.42690187182602,430.50202614476206,101.29711997650729,426.36237916563937,101.1188598480215C422.2227321865168,100.94059971953573,414.76188641753544,100.71386135788292,409.2548644589585,100.28639367646446C403.7478425003815,99.85892599504598,400.19464435220897,99.23072899386187,396.6095485010449,95.38855434611979C393.02445264988086,91.54637969837772,389.4074590957253,84.49022740407764,385.82145512490314,80.72217299917611C382.235451154081,76.95411859427459,378.6804367665921,76.47416207877158,375.38907833119066,76.04592221206781C372.09771989578934,75.61768234536402,369.0700174124754,75.24115912745944,365.3970522524685,74.9505777491093C361.7240870924615,74.65999637075917,357.4058592557615,74.4553568319635,352.30509859731615,74.25343197139725C347.20433793887065,74.051507110831,341.32104445867964,73.8522969284942,335.7528990615754,72.99469491585316C330.1847536644712,72.1370929032121,324.9317563504538,70.62109906026681,319.7844283637703,69.70999463568354C314.6371003770868,68.79889021110029,309.5954417177374,68.49267520487906,305.90887222669824,68.00702535499813C302.22230273565907,67.5213755051172,299.8908224129303,66.85629081157659,290.8797159704612,60.90660777750034C281.868609527992,54.95692474342409,266.1778769657826,43.72264336881219,255.0388060365449,37.48233985219153C243.89973510730724,31.242036335570855,237.31232581104123,29.9957106769414,225.00223458265825,27.394090751343125C212.69214335427523,24.792470825744854,194.65937019377523,20.83555663317776,172.87814540811087,17.494503479991135C151.09692062244648,14.15345032680451,125.5672442116177,11.428258212998353,112.80240600620333,10.065662156095277L100.03756780078895,8.703066099192199" />
  </g>
  
  <g class="axis y" stroke="black" fill="none" stroke-dasharray="4 6">
    <path d="M 0,285 h900" /><path d="M 0,190 h900" /><path d="M 0,95 h900" />
  </g>
  <g
    class="axis x"
    stroke="black" fill="none"
    transform="translate(0, 380)">
  
  <path d="M0,0 h900" />
  <g transform="translate(75, 0)">
      <text text-anchor="middle"
      fill="black"
      stroke="none"
      transform="translate(0, 12)">Mar</text>
      <path d="M0,0 v-5" />
    </g><g transform="translate(157, 0)">
      <text text-anchor="middle"
      fill="black"
      stroke="none"
      transform="translate(0, 12)">Apr</text>
      <path d="M0,0 v-5" />
    </g><g transform="translate(237, 0)">
      <text text-anchor="middle"
      fill="black"
      stroke="none"
      transform="translate(0, 12)">May</text>
      <path d="M0,0 v-5" />
    </g><g transform="translate(320, 0)">
      <text text-anchor="middle"
      fill="black"
      stroke="none"
      transform="translate(0, 12)">Jun</text>
      <path d="M0,0 v-5" />
    </g><g transform="translate(399, 0)">
      <text text-anchor="middle"
      fill="black"
      stroke="none"
      transform="translate(0, 12)">Jul</text>
      <path d="M0,0 v-5" />
    </g><g transform="translate(482, 0)">
      <text text-anchor="middle"
      fill="black"
      stroke="none"
      transform="translate(0, 12)">Aug</text>
      <path d="M0,0 v-5" />
    </g><g transform="translate(564, 0)">
      <text text-anchor="middle"
      fill="black"
      stroke="none"
      transform="translate(0, 12)">Sep</text>
      <path d="M0,0 v-5" />
    </g><g transform="translate(644, 0)">
      <text text-anchor="middle"
      fill="black"
      stroke="none"
      transform="translate(0, 12)">Oct</text>
      <path d="M0,0 v-5" />
    </g><g transform="translate(727, 0)">
      <text text-anchor="middle"
      fill="black"
      stroke="none"
      transform="translate(0, 12)">Nov</text>
      <path d="M0,0 v-5" />
    </g><g transform="translate(807, 0)">
      <text text-anchor="middle"
      fill="black"
      stroke="none"
      transform="translate(0, 12)">Dec</text>
      <path d="M0,0 v-5" />
    </g>
  
  </g>
</svg>