<svg xmlns="http://www.w3.org/2000/svg"
  viewBox="0 0 900 460"
  width="900"
  height="460">
  <style>
    text {
      font-family: "Courier New", Courier, monospace;
    }
    .legend {
      font-size: 12px;
    }
  </style>
  <g class="lines" fill="none" transform="translate(20, 80)">>
    <path stroke="darkblue" d="M882.1152960526315,0L881.069929182086,1.8090909090909086C880.0245623115405,3.6181818181818173,877.9338285704495,7.2363636363636346,873.4326411561129,11.978739002932551C868.9314537417763,16.721114369501468,862.0198126541941,22.587683284457484,856.784498320998,26.041348973607047C851.5491839878017,29.495014662756606,847.9901964089913,30.535777126099717,843.0225458641722,32.56079987865306C838.0548953193532,34.5858226312064,831.6785818085251,37.59510567296997,827.3266764208698,39.961136953517375C822.9747710332144,42.32716823406478,820.6472737687317,44.04994775339602,816.7483289073922,46.263625701064115C812.8493840460527,48.47730364873221,807.3789915878564,51.181880024737154,795.7707121596309,53.23281242566956C784.1624327314054,55.28374482660197,766.4162663331505,56.681033252461816,756.767429521884,57.781017791732076C747.1185927106176,58.88100233100233,745.5670854863396,59.68368298368299,733.0080860288743,60.80800310800311C720.4490865714089,61.932323232323235,696.8825948807565,63.37828282828283,677.624692142955,64.95241702741703C658.3667894051536,66.52655122655122,643.4174756202028,68.22886002886003,633.0695984671967,69.47588345460686C622.7217213141904,70.72290688035368,616.9752807931286,71.51464492953853,603.6775409299615,72.79354103343464C590.3798010667946,74.07243713733074,569.5307618615221,75.83849129593808,549.945837468019,77.03169624085443C530.3609130745157,78.22490118577075,512.0401034927814,78.84525691699606,487.98128906821086,81.01397830352322C463.9224746436403,83.18269969005036,434.1256553762335,86.89978673187933,406.67783487527413,88.99337413085284C379.23001437431475,91.08696152982635,354.1311926398027,91.55704928594439,336.7926945986385,93.61829618694367C319.4541965574744,95.67954308794295,309.8760222096583,99.33194913382347,304.3660927905701,102.05794074027325C298.85616337148207,104.78393234672303,297.4144788811221,106.58350951374207,296.18376821203395,108.3830866807611C294.9530575429459,110.18266384778013,293.93332069512974,111.98224101479916,285.6561574036001,114.57251585623679C277.37899411207053,117.16279069767442,261.84440437682747,120.54376321353065,252.283313133909,122.20040657017402C242.72222189099048,123.85704992681735,239.13462914039658,123.78936412424785,229.85164804915937,124.64922751666937C220.56866695792215,125.5090909090909,205.59029752604167,127.29650349650349,197.2725642875091,128.15255965408636C188.95483104897662,129.00861581166922,187.29773400379202,128.9333155394224,183.35210671372442,129.45185793452728C179.4064794236568,129.97040032963218,173.17232188870616,131.08278539208882,167.99892847108006,132.7827708672918C162.82553505345396,134.48275634249472,158.71290575315243,136.770342230444,155.88072487207603,138.4185749207188C153.04854399099963,140.06680761099366,151.4968115291484,141.07568710359408,148.2081129214638,142.01919395382131C144.91941431377924,142.96270080404852,139.8937495602613,143.84083501190256,136.32816019051532,145.59371743436932C132.76257082076935,147.34659985683606,130.65705683479533,149.97423049391554,127.42857432725692,151.5756144118349C124.20009181971857,153.17699832975424,119.84864079061587,153.7521355285135,116.88544931012427,154.148795036984C113.92225782963267,154.54545454545456,112.34732589775221,154.76363636363638,110.44960910658808,155.2049152946791C108.55189231542397,155.6461942257218,106.33139066497624,156.3105702696254,103.47016967059578,156.7518492006681C100.60894867621528,157.1931281317108,97.10700833790206,157.41130994989263,94.57913118489584,157.62949176807444C92.05125403188963,157.84767358625626,90.49744006419041,158.06585540443805,88.96016552448829,158.68561202576947C87.42289098478618,159.3053686471009,85.90215587308114,160.32670007158194,84.64977579609833,160.94645669291336C83.3973957191155,161.5662133142448,82.41337067685491,161.78439513242662,80.12380264300073,162.40415175375804C77.83423460914656,163.02390837508946,74.23912358369883,164.04523979957048,71.97532583493239,165.0665712240515C69.71152808616594,166.08790264853255,68.77904361408078,167.1092340730136,67.52611986019737,167.72899069434501C66.27319610631396,168.34874731567646,64.6998330706323,168.56692913385828,63.1655138032255,168.7851109520401C61.6311945358187,169.00329277022192,60.135919036686765,169.22147458840374,58.254493135508035,169.84123120973516C56.37306723432931,170.4609878310666,54.105490931103816,171.48231925554762,51.26877034790754,171.98101288475303C48.43204976471127,172.4797065139585,45.026184901544234,172.45576234788834,42.5619373629386,172.55288117394414C40.097689824332974,172.64999999999998,38.575059610288754,172.8681818181818,36.61713836919775,173.3707042957043C34.65921712810674,173.87322677322675,32.26600485996894,174.6600899100899,26.599644062956873,179.0856893106893C20.93328326594482,183.5112887112887,11.993773940058494,191.57562437562436,6.829230805692628,195.7168831168831C1.6646876713267638,199.85814185814186,0.2751107284813603,200.07632367632368,-0.8615011193347973,200.29450549450553C-1.998112967150955,200.5126873126873,-2.881759719937867,200.73086913086914,-3.769779188368054,200.94905094905096C-4.657798656798241,201.16723276723278,-5.550190840871703,201.38541458541462,-6.835137164199554,201.92117882117884C-8.120083487527404,202.45694305694306,-9.797583950109646,203.3102897102897,-13.033180858232818,203.84605394605396C-16.268777766355992,204.3818181818182,-21.062471120020092,204.60000000000002,-24.279132538377183,205.14290091930545C-27.49579395673428,205.68580183861084,-29.13542343978436,206.55342185903987,-30.407822476928004,207.09632277834524C-31.680221514071647,207.6392236976507,-32.58539010530885,207.85740551583248,-35.451442057291665,208.64862104187947C-38.317494009274476,209.43983656792648,-43.14442932200291,210.80408580183862,-46.06023159379567,211.5953013278856C-48.97603386558844,212.38651685393256,-49.98070309644553,212.6046986721144,-51.20630708607456,213.39591419816136C-52.431911075703574,214.18712972420835,-53.87844982410453,215.5513789581205,-56.43156135211074,217.13847463398028C-58.98467288011695,218.72557030983998,-62.64435718772844,220.5355124276473,-64.92640306332237,222.68290772897515C-67.2084489389163,224.83030303030304,-68.11285638249268,227.31515151515154,-69.00696891561586,229.23333333333332C-69.90108144873902,231.15151515151513,-70.78489907140899,232.50303030303027,-71.66867786001461,233.85454545454544C-72.55245664862024,235.20606060606056,-73.43619660316155,236.55757575757573,-79.7119764882584,239.04242424242423C-85.98775637335525,241.5272727272727,-97.65557618900766,245.14545454545453,-105.88482989537646,247.63030303030303C-114.11408360174524,250.1151515151515,-118.90477119883042,251.4666666666666,-124.79077358027229,252.25151515151515C-130.67677596171418,253.0363636363636,-137.65809312751276,253.25454545454542,-143.87051912006575,253.4727272727272C-150.08294511261875,253.69090909090906,-155.52647993192613,253.90909090909088,-163.45271143434755,254.4598814229249C-171.378942936769,255.01067193675885,-181.78787112230444,255.89407114624507,-188.46083416712352,257.55355731225296C-195.1337972119426,259.2130434782609,-198.07079511604533,261.6486166007905,-201.29386027161001,262.9754940711462C-204.5169254271747,264.30237154150194,-208.0260578342014,264.5205533596838,-211.49274849232458,266.40177865612645C-214.9594391504477,268.2830039525691,-218.38368805966738,271.8272727272727,-220.61916412531977,273.70849802371544C-222.85464019097222,275.5897233201581,-223.90134341305736,275.80790513833995,-227.90216555875364,276.2855689176688C-231.90298770444994,276.7632326969977,-238.85792877375732,277.5003784374737,-244.07499498012612,277.97804221680263C-249.29206118649492,278.4557059961315,-252.77125252992508,278.67388781431333,-256.27881604075293,279.9771760154739C-259.78637955158075,281.28046421663447,-263.3223152298063,283.6688588007737,-266.83068648917214,284.9721470019342C-270.339057748538,286.2754352030948,-273.8198645890442,286.4936170212766,-277.06615639848314,286.7117988394584C-280.3124482079221,286.9299806576402,-283.3242249862938,287.14816247582206,-286.9099459349872,287.36634429400385C-290.49566688368054,287.58452611218564,-294.6553320026955,287.8027079303675,-299.5110394736842,288.02088974854934C-304.3667469446729,288.2390715667311,-309.9184967676352,288.457253384913,-315.1899306640625,289.2179883945841C-320.4613645604898,289.97872340425533,-325.452482530382,291.28201160541585,-330.34961041438237,292.0427466150871C-335.24673829838275,292.80348162475826,-340.04987609649123,293.02166344294005,-343.647697739629,293.67738815748424C-347.2455193827668,294.3331128720285,-349.63802487093386,295.42638048293503,-357.9718820129752,300.4692019716728C-366.30573915501645,305.51202346041055,-380.58094795093206,314.5043988269795,-390.8075735048885,320.11003190358036C-401.034199058845,325.71566498018115,-407.2122413708425,327.93455576681384,-418.48045866456505,330.83441075053975C-429.7486759582876,333.7342657342657,-446.1070682337354,337.31508491508487,-465.79960958630295,340.4713286713286C-485.4921509388707,343.62757242757243,-508.51884136855807,346.3592407592408,-520.0321865834019,347.7250749250749L-531.5455317982456,349.0909090909091" />
    <path stroke="blue" d="M882.1152960526315,0L881.069929182086,0.8170011153324211C880.0245623115405,1.6340022306648423,877.9338285704495,3.2680044613296846,873.4326411561129,6.357347915963004C868.9314537417763,9.446691370596321,862.0198126541941,13.991376049198118,856.784498320998,16.74943262095105C851.5491839878017,19.507489192703982,847.9901964089913,20.478917657608047,843.0225458641722,21.892923465119313C838.0548953193532,23.306929272630583,831.6785818085251,25.163512422749054,827.3266764208698,26.789198746565763C822.9747710332144,28.41488507038247,820.6472737687317,29.809674567897417,816.7483289073922,31.36032998465087C812.8493840460527,32.91098540140433,807.3789915878564,34.6175067373963,795.7707121596309,36.03246502055407C784.1624327314054,37.44742330371184,766.4162663331505,38.570818534035396,756.767429521884,39.704214605330854C747.1185927106176,40.837610676626305,745.5670854863396,41.981007588893654,733.0080860288743,44.015912155518585C720.4490865714089,46.05081672214351,696.8825948807565,48.977228943126,677.624692142955,51.626680738661236C658.3667894051536,54.27613253419647,643.4174756202028,56.64862390428444,633.0695984671967,58.00233636492366C622.7217213141904,59.35604882556288,616.9752807931286,59.69098237675337,603.6775409299615,61.064811083654284C590.3798010667946,62.43863979055519,569.5307618615221,64.85136365316653,549.945837468019,66.30668264311684C530.3609130745157,67.76200163306713,512.0401034927814,68.2599157503564,487.98128906821086,71.37404871726959C463.9224746436403,74.48818168418278,434.1256553762335,80.21853350071989,406.67783487527413,83.41021747555469C379.23001437431475,86.60190145038949,354.1311926398027,87.25491758352196,336.7926945986385,89.09019400429037C319.4541965574744,90.92547042505878,309.8760222096583,93.94300713346313,304.3660927905701,95.80162585409646C298.85616337148207,97.6602445747298,297.4144788811221,98.35994530759213,296.18376821203395,98.9259936978764C294.9530575429459,99.49204208816066,293.93332069512974,99.92443813586685,285.6561574036001,102.41307157427921C277.37899411207053,104.9017050126916,261.84440437682747,109.44657584181017,252.283313133909,111.82474468885304C242.72222189099048,114.20291353589592,239.13462914039658,114.4143804008631,229.85164804915937,115.34974432421292C220.56866695792215,116.28510824756275,205.59029752604167,117.94436922929522,197.2725642875091,118.81604759096284C188.95483104897662,119.68772595263049,187.29773400379202,119.77182169423325,183.35210671372442,120.18462916389923C179.4064794236568,120.59743663356522,173.17232188870616,121.33895583129441,167.99892847108006,123.07253510373569C162.82553505345396,124.80611437617695,158.71290575315243,127.53175372333028,155.88072487207603,129.0461106254094C153.04854399099963,130.5604675274885,151.4968115291484,130.8635419844934,148.2081129214638,131.249134426988C144.91941431377924,131.63472686948262,139.8937495602613,132.10283729746698,136.32816019051532,134.59819236357416C132.76257082076935,137.09354742968137,130.65705683479533,141.61614713391137,127.42857432725692,144.07881507500085C124.20009181971857,146.5414830160903,119.84864079061587,146.94421919403922,116.88544931012427,147.27271440043242C113.92225782963267,147.60120960682562,112.34732589775221,147.85546384166312,110.44960910658808,148.1933890276019C108.55189231542397,148.53131421354064,106.33139066497624,148.95291035058062,103.47016967059578,149.27410163157705C100.60894867621528,149.59529291257346,97.10700833790206,149.81607933752625,94.57913118489584,150.02680314270313C92.05125403188963,150.23752694787996,90.49744006419041,150.43818813328087,88.96016552448829,150.67700716274854C87.42289098478618,150.91582619221626,85.90215587308114,151.19280306575072,84.64977579609833,151.4381405277442C83.3973957191155,151.68347798973767,82.41337067685491,151.89717604019017,80.12380264300073,152.17370855994298C77.83423460914656,152.45024107969576,74.23912358369883,152.7896080687489,71.97532583493239,153.1043455532533C69.71152808616594,153.4190830377577,68.77904361408078,153.7091910177134,67.52611986019737,153.9641684420698C66.27319610631396,154.21914586642617,64.6998330706323,154.43899273518323,63.1655138032255,154.69766625464186C61.6311945358187,154.95633977410048,60.135919036686765,155.25383994426065,58.254493135508035,156.16919173227998C56.37306723432931,157.0845435202993,54.105490931103816,158.61774692617774,51.26877034790754,160.15187737041848C48.43204976471127,161.68600781465923,45.026184901544234,163.2210652972623,42.5619373629386,164.09549808367686C40.097689824332974,164.9699308700914,38.575059610288754,165.18373896031747,36.61713836919775,166.51024500973202C34.65921712810674,167.83675105914654,32.26600485996894,170.27595506774958,26.599644062956873,174.46976858706535C20.93328326594482,178.6635821063811,11.993773940058494,184.61200513640964,6.829230805692628,187.69589995679303C1.6646876713267638,190.77979477717645,0.2751107284813603,190.99916138791477,-0.8615011193347973,191.2866539552899C-1.998112967150955,191.57414652266502,-2.881759719937867,191.92976504667703,-3.769779188368054,192.21749774306156C-4.657798656798241,192.50523043944608,-5.550190840871703,192.72507730820314,-6.835137164199554,193.06467014538146C-8.120083487527404,193.40426298255977,-9.797583950109646,193.86360178815937,-13.033180858232818,196.36039474527524C-16.268777766355992,198.85718770239112,-21.062471120020092,203.3914348110233,-24.279132538377183,205.81835968561754C-27.49579395673428,208.24528456021176,-29.13542343978436,208.564887200768,-30.407822476928004,208.83461195542463C-31.680221514071647,209.1043367100813,-32.58539010530885,209.3241835788384,-35.451442057291665,210.2041645267232C-38.317494009274476,211.0841454746081,-43.14442932200291,212.62426050162074,-46.06023159379567,213.52831661404454C-48.97603386558844,214.43237272646834,-49.98070309644553,214.70036992430335,-51.20630708607456,215.09876416463794C-52.431911075703574,215.4971584049725,-53.87844982410453,216.02594968780673,-56.43156135211074,217.0370331286151C-58.98467288011695,218.04811656942346,-62.64435718772844,219.541492168206,-64.92640306332237,220.58016218048866C-67.2084489389163,221.61883219277135,-68.11285638249268,222.20279661855417,-69.00696891561586,222.74557179685485C-69.90108144873902,223.28834697515558,-70.78489907140899,223.7899329059741,-71.66867786001461,224.30967453075252C-72.55245664862024,224.8294161555309,-73.43619660316155,225.36731347426908,-79.7119764882584,226.5517675215732C-85.98775637335525,227.73622156887737,-97.65557618900766,229.56723234474748,-105.88482989537646,231.57344485976864C-114.11408360174524,233.5796573747898,-118.90477119883042,235.76107162896201,-124.79077358027229,236.96200289033175C-130.67677596171418,238.16293415170153,-137.65809312751276,238.38338242026884,-143.87051912006575,238.59923766639034C-150.08294511261875,238.81509291251186,-155.52647993192613,239.02635513618756,-163.45271143434755,239.33766015472307C-171.378942936769,239.6489651732586,-181.78787112230444,240.0603129866539,-188.46083416712352,241.28068836532756C-195.1337972119426,242.5010637440012,-198.07079511604533,244.53046668795318,-201.29386027161001,245.6614011960497C-204.5169254271747,246.7923357041462,-208.0260578342014,247.0248017763873,-211.49274849232458,249.70139057307514C-214.9594391504477,252.37797936976298,-218.38368805966738,257.49869089089765,-220.61916412531977,260.13351120209126C-222.85464019097222,262.76833151328486,-223.90134341305736,262.91726061453744,-227.90216555875364,263.11211646300086C-231.90298770444994,263.30697231146434,-238.85792877375732,263.54775490713865,-244.07499498012612,263.9787021215384C-249.29206118649492,264.4096493359381,-252.77125252992508,265.03076116906317,-256.27881604075293,268.6966939305062C-259.78637955158075,272.3626266919494,-263.3223152298063,279.0733803817106,-266.83068648917214,282.66909396572584C-270.339057748538,286.2648075497411,-273.8198645890442,286.7454810280103,-277.06615639848314,287.1771597863645C-280.3124482079221,287.6088385447187,-283.3242249862938,287.99152258315786,-286.9099459349872,288.292788036756C-290.49566688368054,288.59405349035416,-294.6553320026955,288.8139003591112,-299.5110394736842,289.03117542744036C-304.3667469446729,289.24845049576953,-309.9184967676352,289.46315376367085,-315.1899306640625,290.3015966602814C-320.4613645604898,291.14003955689196,-325.452482530382,292.60222208221177,-330.34961041438237,293.4913514743466C-335.24673829838275,294.3804808664813,-340.04987609649123,294.69655712543096,-343.647697739629,295.18262428890034C-347.2455193827668,295.6686914523697,-349.63802487093386,296.32474952035886,-357.9718820129752,301.9872691741186C-366.30573915501645,307.64978882787824,-380.58094795093206,318.31877006740854,-390.8075735048885,324.2566143888419C-401.034199058845,330.1944587102752,-407.2122413708425,331.4011661136117,-418.48045866456505,333.891836506708C-429.7486759582876,336.38250689980435,-446.1070682337354,340.1571402826607,-465.79960958630295,343.34832636505126C-485.4921509388707,346.53951244744184,-508.51884136855807,349.1472512293667,-520.0321865834019,350.4511206203292L-531.5455317982456,351.7549900112916" />
    
    <path stroke="darkorange" d="M882.1152960526315,360L881.069929182086,358.1909090909091C880.0245623115405,356.38181818181823,877.9338285704495,352.7636363636364,873.4326411561129,348.0212609970675C868.9314537417763,343.27888563049856,862.0198126541941,337.41231671554254,856.784498320998,333.958651026393C851.5491839878017,330.5049853372434,847.9901964089913,329.4642228739003,843.0225458641722,327.4392001213469C838.0548953193532,325.4141773687936,831.6785818085251,322.40489432703004,827.3266764208698,320.0388630464826C822.9747710332144,317.6728317659352,820.6472737687317,315.950052246604,816.7483289073922,313.7363742989359C812.8493840460527,311.52269635126777,807.3789915878564,308.81811997526285,795.7707121596309,306.7671875743304C784.1624327314054,304.716255173398,766.4162663331505,303.3189667475381,756.767429521884,302.2189822082679C747.1185927106176,301.1189976689977,745.5670854863396,300.316317016317,733.0080860288743,299.1919968919969C720.4490865714089,298.0676767676768,696.8825948807565,296.6217171717172,677.624692142955,295.047582972583C658.3667894051536,293.47344877344875,643.4174756202028,291.77113997114,633.0695984671967,290.52411654539316C622.7217213141904,289.2770931196463,616.9752807931286,288.4853550704614,603.6775409299615,287.2064589665653C590.3798010667946,285.9275628626692,569.5307618615221,284.1615087040619,549.945837468019,282.96830375914556C530.3609130745157,281.77509881422924,512.0401034927814,281.1547430830039,487.98128906821086,278.9860216964767C463.9224746436403,276.81730030994964,434.1256553762335,273.1002132681206,406.67783487527413,271.0066258691472C379.23001437431475,268.9130384701736,354.1311926398027,268.4429507140556,336.7926945986385,266.3817038130563C319.4541965574744,264.32045691205707,309.8760222096583,260.66805086617654,304.3660927905701,257.9420592597267C298.85616337148207,255.216067653277,297.4144788811221,253.4164904862579,296.18376821203395,251.61691331923893C294.9530575429459,249.8173361522199,293.93332069512974,248.01775898520086,285.6561574036001,245.42748414376322C277.37899411207053,242.8372093023256,261.84440437682747,239.45623678646936,252.283313133909,237.799593429826C242.72222189099048,236.14295007318265,239.13462914039658,236.21063587575213,229.85164804915937,235.35077248333064C220.56866695792215,234.4909090909091,205.59029752604167,232.7034965034965,197.2725642875091,231.84744034591367C188.95483104897662,230.99138418833078,187.29773400379202,231.0666844605776,183.35210671372442,230.54814206547272C179.4064794236568,230.02959967036782,173.17232188870616,228.91721460791118,167.99892847108006,227.21722913270824C162.82553505345396,225.51724365750525,158.71290575315243,223.22965776955598,155.88072487207603,221.5814250792812C153.04854399099963,219.9331923890063,151.4968115291484,218.9243128964059,148.2081129214638,217.98080604617869C144.91941431377924,217.03729919595148,139.8937495602613,216.1591649880974,136.32816019051532,214.40628256563068C132.76257082076935,212.65340014316394,130.65705683479533,210.02576950608446,127.42857432725692,208.4243855881651C124.20009181971857,206.82300167024573,119.84864079061587,206.24786447148654,116.88544931012427,205.851204963016C113.92225782963267,205.45454545454547,112.34732589775221,205.23636363636365,110.44960910658808,204.79508470532093C108.55189231542397,204.35380577427824,106.33139066497624,203.68942973037463,103.47016967059578,203.24815079933194C100.60894867621528,202.80687186828922,97.10700833790206,202.5886900501074,94.57913118489584,202.37050823192558C92.05125403188963,202.15232641374374,90.49744006419041,201.93414459556195,88.96016552448829,201.3143879742305C87.42289098478618,200.6946313528991,85.90215587308114,199.67329992841806,84.64977579609833,199.05354330708664C83.3973957191155,198.4337866857552,82.41337067685491,198.21560486757338,80.12380264300073,197.59584824624196C77.83423460914656,196.97609162491054,74.23912358369883,195.95476020042952,71.97532583493239,194.93342877594844C69.71152808616594,193.91209735146742,68.77904361408078,192.8907659269864,67.52611986019737,192.27100930565499C66.27319610631396,191.65125268432357,64.6998330706323,191.43307086614172,63.1655138032255,191.2148890479599C61.6311945358187,190.99670722977808,60.135919036686765,190.77852541159623,58.254493135508035,190.15876879026484C56.37306723432931,189.5390121689334,54.105490931103816,188.51768074445238,51.26877034790754,188.01898711524692C48.43204976471127,187.5202934860415,45.026184901544234,187.54423765211166,42.5619373629386,187.44711882605586C40.097689824332974,187.35000000000002,38.575059610288754,187.1318181818182,36.61713836919775,186.6292957042957C34.65921712810674,186.12677322677325,32.26600485996894,185.3399100899101,26.599644062956873,180.9143106893107C20.93328326594482,176.4887112887113,11.993773940058494,168.42437562437564,6.829230805692628,164.2831168831169C1.6646876713267638,160.14185814185814,0.2751107284813603,159.92367632367632,-0.8615011193347973,159.7054945054945C-1.998112967150955,159.48731268731268,-2.881759719937867,159.26913086913086,-3.769779188368054,159.05094905094904C-4.657798656798241,158.83276723276722,-5.550190840871703,158.61458541458543,-6.835137164199554,158.0788211788212C-8.120083487527404,157.54305694305694,-9.797583950109646,156.6897102897103,-13.033180858232818,156.15394605394604C-16.268777766355992,155.6181818181818,-21.062471120020092,155.4,-24.279132538377183,154.85709908069458C-27.49579395673428,154.31419816138919,-29.13542343978436,153.44657814096016,-30.407822476928004,152.90367722165476C-31.680221514071647,152.36077630234934,-32.58539010530885,152.14259448416752,-35.451442057291665,151.35137895812053C-38.317494009274476,150.56016343207355,-43.14442932200291,149.1959141981614,-46.06023159379567,148.4046986721144C-48.97603386558844,147.61348314606744,-49.98070309644553,147.39530132788562,-51.20630708607456,146.60408580183864C-52.431911075703574,145.81287027579162,-53.87844982410453,144.44862104187948,-56.43156135211074,142.86152536601975C-58.98467288011695,141.27442969016002,-62.64435718772844,139.4644875723527,-64.92640306332237,137.31709227102485C-67.2084489389163,135.16969696969696,-68.11285638249268,132.68484848484846,-69.00696891561586,130.76666666666665C-69.90108144873902,128.84848484848484,-70.78489907140899,127.4969696969697,-71.66867786001461,126.14545454545457C-72.55245664862024,124.79393939393941,-73.43619660316155,123.44242424242424,-79.7119764882584,120.95757575757575C-85.98775637335525,118.47272727272725,-97.65557618900766,114.85454545454546,-105.88482989537646,112.36969696969697C-114.11408360174524,109.88484848484849,-118.90477119883042,108.53333333333335,-124.79077358027229,107.74848484848485C-130.67677596171418,106.96363636363635,-137.65809312751276,106.74545454545455,-143.87051912006575,106.52727272727272C-150.08294511261875,106.30909090909091,-155.52647993192613,106.09090909090911,-163.45271143434755,105.54011857707512C-171.378942936769,104.9893280632411,-181.78787112230444,104.10592885375495,-188.46083416712352,102.44644268774704C-195.1337972119426,100.78695652173913,-198.07079511604533,98.3513833992095,-201.29386027161001,97.02450592885374C-204.5169254271747,95.69762845849802,-208.0260578342014,95.4794466403162,-211.49274849232458,93.5982213438735C-214.9594391504477,91.71699604743083,-218.38368805966738,88.17272727272724,-220.61916412531977,86.29150197628456C-222.85464019097222,84.41027667984187,-223.90134341305736,84.19209486166005,-227.90216555875364,83.71443108233115C-231.90298770444994,83.23676730300225,-238.85792877375732,82.49962156252626,-244.07499498012612,82.02195778319735C-249.29206118649492,81.54429400386846,-252.77125252992508,81.32611218568664,-256.27881604075293,80.0228239845261C-259.78637955158075,78.71953578336554,-263.3223152298063,76.33114119922628,-266.83068648917214,75.02785299806574C-270.339057748538,73.7245647969052,-273.8198645890442,73.50638297872338,-277.06615639848314,73.28820116054156C-280.3124482079221,73.07001934235974,-283.3242249862938,72.85183752417794,-286.9099459349872,72.63365570599612C-290.49566688368054,72.4154738878143,-294.6553320026955,72.19729206963247,-299.5110394736842,71.97911025145065C-304.3667469446729,71.76092843326883,-309.9184967676352,71.54274661508703,-315.1899306640625,70.78201160541585C-320.4613645604898,70.02127659574467,-325.452482530382,68.71798839458414,-330.34961041438237,67.95725338491296C-335.24673829838275,67.19651837524178,-340.04987609649123,66.97833655705996,-343.647697739629,66.32261184251576C-347.2455193827668,65.66688712797155,-349.63802487093386,64.57361951706497,-357.9718820129752,59.53079802832721C-366.30573915501645,54.487976539589454,-380.58094795093206,45.49560117302053,-390.8075735048885,39.889968096419715C-401.034199058845,34.28433501981889,-407.2122413708425,32.06544423318618,-418.48045866456505,29.165589249460226C-429.7486759582876,26.26573426573427,-446.1070682337354,22.68491508491509,-465.79960958630295,19.528671328671333C-485.4921509388707,16.372427572427572,-508.51884136855807,13.640759240759232,-520.0321865834019,12.274925074925065L-531.5455317982456,10.909090909090896" />
    <path stroke="orange" d="M882.1152960526315,360L881.069929182086,359.18299888466754C880.0245623115405,358.36599776933514,877.9338285704495,356.73199553867033,873.4326411561129,353.642652084037C868.9314537417763,350.5533086294037,862.0198126541941,346.00862395080185,856.784498320998,343.25056737904896C851.5491839878017,340.492510807296,847.9901964089913,339.521082342392,843.0225458641722,338.1070765348807C838.0548953193532,336.69307072736945,831.6785818085251,334.836487577251,827.3266764208698,333.2108012534342C822.9747710332144,331.58511492961753,820.6472737687317,330.1903254321026,816.7483289073922,328.63967001534917C812.8493840460527,327.08901459859567,807.3789915878564,325.3824932626037,795.7707121596309,323.96753497944593C784.1624327314054,322.55257669628816,766.4162663331505,321.4291814659646,756.767429521884,320.2957853946691C747.1185927106176,319.16238932337365,745.5670854863396,318.0189924111063,733.0080860288743,315.9840878444814C720.4490865714089,313.9491832778565,696.8825948807565,311.022771056874,677.624692142955,308.3733192613388C658.3667894051536,305.72386746580355,643.4174756202028,303.3513760957156,633.0695984671967,301.9976636350764C622.7217213141904,300.6439511744371,616.9752807931286,300.30901762324663,603.6775409299615,298.93518891634574C590.3798010667946,297.5613602094448,569.5307618615221,295.1486363468335,549.945837468019,293.69331735688314C530.3609130745157,292.23799836693286,512.0401034927814,291.7400842496436,487.98128906821086,288.6259512827304C463.9224746436403,285.5118183158172,434.1256553762335,279.7814664992801,406.67783487527413,276.5897825244453C379.23001437431475,273.3980985496105,354.1311926398027,272.74508241647806,336.7926945986385,270.90980599570963C319.4541965574744,269.0745295749412,309.8760222096583,266.05699286653686,304.3660927905701,264.19837414590353C298.85616337148207,262.3397554252702,297.4144788811221,261.6400546924079,296.18376821203395,261.07400630212356C294.9530575429459,260.50795791183936,293.93332069512974,260.07556186413314,285.6561574036001,257.58692842572077C277.37899411207053,255.09829498730838,261.84440437682747,250.5534241581898,252.283313133909,248.1752553111469C242.72222189099048,245.79708646410407,239.13462914039658,245.5856195991369,229.85164804915937,244.6502556757871C220.56866695792215,243.71489175243724,205.59029752604167,242.05563077070477,197.2725642875091,241.18395240903715C188.95483104897662,240.31227404736953,187.29773400379202,240.22817830576673,183.35210671372442,239.81537083610078C179.4064794236568,239.40256336643475,173.17232188870616,238.66104416870562,167.99892847108006,236.9274648962643C162.82553505345396,235.19388562382304,158.71290575315243,232.4682462766697,155.88072487207603,230.9538893745906C153.04854399099963,229.43953247251147,151.4968115291484,229.1364580155066,148.2081129214638,228.750865573012C144.91941431377924,228.36527313051738,139.8937495602613,227.89716270253302,136.32816019051532,225.40180763642584C132.76257082076935,222.90645257031863,130.65705683479533,218.38385286608863,127.42857432725692,215.92118492499915C124.20009181971857,213.4585169839097,119.84864079061587,213.05578080596078,116.88544931012427,212.72728559956758C113.92225782963267,212.39879039317438,112.34732589775221,212.1445361583369,110.44960910658808,211.80661097239815C108.55189231542397,211.46868578645942,106.33139066497624,211.04708964941938,103.47016967059578,210.725898368423C100.60894867621528,210.40470708742657,97.10700833790206,210.18392066247375,94.57913118489584,209.9731968572969C92.05125403188963,209.76247305212004,90.49744006419041,209.56181186671913,88.96016552448829,209.3229928372514C87.42289098478618,209.08417380778374,85.90215587308114,208.8071969342493,84.64977579609833,208.5618594722558C83.3973957191155,208.31652201026236,82.41337067685491,208.10282395980985,80.12380264300073,207.82629144005705C77.83423460914656,207.54975892030424,74.23912358369883,207.2103919312511,71.97532583493239,206.8956544467467C69.71152808616594,206.5809169622423,68.77904361408078,206.29080898228656,67.52611986019737,206.0358315579302C66.27319610631396,205.78085413357383,64.6998330706323,205.56100726481677,63.1655138032255,205.30233374535817C61.6311945358187,205.04366022589954,60.135919036686765,204.74616005573935,58.254493135508035,203.83080826772004C56.37306723432931,202.91545647970074,54.105490931103816,201.38225307382228,51.26877034790754,199.84812262958152C48.43204976471127,198.31399218534077,45.026184901544234,196.7789347027377,42.5619373629386,195.90450191632314C40.097689824332974,195.03006912990858,38.575059610288754,194.81626103968253,36.61713836919775,193.489754990268C34.65921712810674,192.16324894085346,32.26600485996894,189.72404493225045,26.599644062956873,185.53023141293468C20.93328326594482,181.33641789361891,11.993773940058494,175.3879948635904,6.829230805692628,172.30410004320697C1.6646876713267638,169.22020522282355,0.2751107284813603,169.00083861208526,-0.8615011193347973,168.7133460447101C-1.998112967150955,168.42585347733498,-2.881759719937867,168.07023495332297,-3.769779188368054,167.78250225693844C-4.657798656798241,167.49476956055392,-5.550190840871703,167.2749226917969,-6.835137164199554,166.93532985461857C-8.120083487527404,166.59573701744023,-9.797583950109646,166.13639821184066,-13.033180858232818,163.63960525472476C-16.268777766355992,161.14281229760888,-21.062471120020092,156.6085651889767,-24.279132538377183,154.18164031438246C-27.49579395673428,151.75471543978827,-29.13542343978436,151.435112799232,-30.407822476928004,151.16538804457534C-31.680221514071647,150.8956632899187,-32.58539010530885,150.67581642116164,-35.451442057291665,149.79583547327678C-38.317494009274476,148.91585452539192,-43.14442932200291,147.37573949837926,-46.06023159379567,146.47168338595543C-48.97603386558844,145.56762727353163,-49.98070309644553,145.29963007569665,-51.20630708607456,144.90123583536206C-52.431911075703574,144.5028415950275,-53.87844982410453,143.97405031219327,-56.43156135211074,142.9629668713849C-58.98467288011695,141.95188343057654,-62.64435718772844,140.45850783179404,-64.92640306332237,139.41983781951134C-67.2084489389163,138.38116780722868,-68.11285638249268,137.79720338144585,-69.00696891561586,137.25442820314515C-69.90108144873902,136.71165302484445,-70.78489907140899,136.21006709402587,-71.66867786001461,135.69032546924748C-72.55245664862024,135.17058384446912,-73.43619660316155,134.63268652573092,-79.7119764882584,133.4482324784268C-85.98775637335525,132.26377843112263,-97.65557618900766,130.43276765525255,-105.88482989537646,128.4265551402314C-114.11408360174524,126.42034262521021,-118.90477119883042,124.238928371038,-124.79077358027229,123.03799710966824C-130.67677596171418,121.83706584829848,-137.65809312751276,121.61661757973116,-143.87051912006575,121.40076233360965C-150.08294511261875,121.18490708748816,-155.52647993192613,120.97364486381245,-163.45271143434755,120.66233984527695C-171.378942936769,120.35103482674144,-181.78787112230444,119.9396870133461,-188.46083416712352,118.71931163467245C-195.1337972119426,117.4989362559988,-198.07079511604533,115.46953331204685,-201.29386027161001,114.33859880395033C-204.5169254271747,113.2076642958538,-208.0260578342014,112.97519822361274,-211.49274849232458,110.29860942692487C-214.9594391504477,107.622020630237,-218.38368805966738,102.50130910910237,-220.61916412531977,99.86648879790874C-222.85464019097222,97.23166848671512,-223.90134341305736,97.08273938546252,-227.90216555875364,96.88788353699907C-231.90298770444994,96.69302768853561,-238.85792877375732,96.45224509286128,-244.07499498012612,96.0212978784616C-249.29206118649492,95.59035066406189,-252.77125252992508,94.96923883093685,-256.27881604075293,91.30330606949373C-259.78637955158075,87.63737330805061,-263.3223152298063,80.9266196182894,-266.83068648917214,77.33090603427418C-270.339057748538,73.73519245025894,-273.8198645890442,73.2545189719897,-277.06615639848314,72.82284021363547C-280.3124482079221,72.39116145528128,-283.3242249862938,72.0084774168421,-286.9099459349872,71.70721196324399C-290.49566688368054,71.40594650964587,-294.6553320026955,71.18609964088881,-299.5110394736842,70.96882457255965C-304.3667469446729,70.75154950423048,-309.9184967676352,70.53684623632921,-315.1899306640625,69.69840333971865C-320.4613645604898,68.8599604431081,-325.452482530382,67.39777791778825,-330.34961041438237,66.50864852565348C-335.24673829838275,65.61951913351872,-340.04987609649123,65.30344287456903,-343.647697739629,64.81737571109964C-347.2455193827668,64.33130854763026,-349.63802487093386,63.67525047964116,-357.9718820129752,58.01273082588144C-366.30573915501645,52.35021117212174,-380.58094795093206,41.68122993259144,-390.8075735048885,35.743385611158075C-401.034199058845,29.805541289724715,-407.2122413708425,28.598833886388295,-418.48045866456505,26.108163493291944C-429.7486759582876,23.61749310019559,-446.1070682337354,19.842859717339305,-465.79960958630295,16.65167363494872C-485.4921509388707,13.460487552558142,-508.51884136855807,10.85274877063327,-520.0321865834019,9.548879379670831L-531.5455317982456,8.245009988708395" />
  </g>
  
  <g class="axis y" stroke="black" fill="none" stroke-dasharray="4 6" transform="translate(20, 80)">
    <path d="M 20,270 h900" />
      <g transform="translate(0, 270)">
      <text text-anchor="middle"
      fill="black"
      stroke="none"
      transform="translate(0, 3)">25%</text>
      <path d="M0,v-5 0" />
      </g><path d="M 20,180 h900" />
      <g transform="translate(0, 180)">
      <text text-anchor="middle"
      fill="black"
      stroke="none"
      transform="translate(0, 3)">50%</text>
      <path d="M0,v-5 0" />
      </g><path d="M 20,90 h900" />
      <g transform="translate(0, 90)">
      <text text-anchor="middle"
      fill="black"
      stroke="none"
      transform="translate(0, 3)">75%</text>
      <path d="M0,v-5 0" />
      </g><path d="M 20,0 h900" />
    <g transform="translate(0, 0)">
    <text text-anchor="middle"
    fill="black"
    stroke="none"
    transform="translate(0, 3)">100%</text>
    <path d="M0,v-5 0" />
    </g>
  </g>
  <g
    class="axis x"
    stroke="black" fill="none"
    transform="translate(20, 440)">
  
  <path d="M0,0 h900" />
  <g transform="translate(827, 0)">
      <text text-anchor="middle"
      fill="black"
      stroke="none"
      transform="translate(0, 12)">Oct</text>
      <path d="M0,0 v-5" />
    </g><g transform="translate(756, 0)">
      <text text-anchor="middle"
      fill="black"
      stroke="none"
      transform="translate(0, 12)">Sep</text>
      <path d="M0,0 v-5" />
    </g><g transform="translate(682, 0)">
      <text text-anchor="middle"
      fill="black"
      stroke="none"
      transform="translate(0, 12)">Aug</text>
      <path d="M0,0 v-5" />
    </g><g transform="translate(609, 0)">
      <text text-anchor="middle"
      fill="black"
      stroke="none"
      transform="translate(0, 12)">Jul</text>
      <path d="M0,0 v-5" />
    </g><g transform="translate(538, 0)">
      <text text-anchor="middle"
      fill="black"
      stroke="none"
      transform="translate(0, 12)">Jun</text>
      <path d="M0,0 v-5" />
    </g><g transform="translate(464, 0)">
      <text text-anchor="middle"
      fill="black"
      stroke="none"
      transform="translate(0, 12)">May</text>
      <path d="M0,0 v-5" />
    </g><g transform="translate(393, 0)">
      <text text-anchor="middle"
      fill="black"
      stroke="none"
      transform="translate(0, 12)">Apr</text>
      <path d="M0,0 v-5" />
    </g><g transform="translate(320, 0)">
      <text text-anchor="middle"
      fill="black"
      stroke="none"
      transform="translate(0, 12)">Mar</text>
      <path d="M0,0 v-5" />
    </g><g transform="translate(253, 0)">
      <text text-anchor="middle"
      fill="black"
      stroke="none"
      transform="translate(0, 12)">Feb</text>
      <path d="M0,0 v-5" />
    </g><g transform="translate(180, 0)">
      <text text-anchor="middle"
      fill="black"
      stroke="none"
      transform="translate(0, 12)">Jan ’22</text>
      <path d="M0,0 v-5" />
    </g><g transform="translate(107, 0)">
      <text text-anchor="middle"
      fill="black"
      stroke="none"
      transform="translate(0, 12)">Dec</text>
      <path d="M0,0 v-5" />
    </g><g transform="translate(36, 0)">
      <text text-anchor="middle"
      fill="black"
      stroke="none"
      transform="translate(0, 12)">Nov</text>
      <path d="M0,0 v-5" />
    </g><g transform="translate(-38, 0)">
      <text text-anchor="middle"
      fill="black"
      stroke="none"
      transform="translate(0, 12)">Oct</text>
      <path d="M0,0 v-5" />
    </g>
  
  </g>
  <g class="legend" transform="translate(20,10)">
    <rect width="18" height="18" style="fill: darkblue; stroke: darkblue;"></rect>
    <text x="22" y="14">TypeScript (by file number)</text>
  </g>
  <g class="legend" transform="translate(20,30)">
    <rect width="18" height="18" style="fill: blue; stroke: blue;"></rect>
    <text x="22" y="14">TypeScript (by file size)</text>
  </g>
  <g class="legend" transform="translate(260,10)">
    <rect width="18" height="18" style="fill: darkorange; stroke: darkorange;"></rect>
    <text x="22" y="14">JavaScript (by file number)</text>
  </g>
  <g class="legend" transform="translate(260,30)">
    <rect width="18" height="18" style="fill: orange; stroke: orange;"></rect>
    <text x="22" y="14">JavaScript (by file size)</text>
  </g>
  <g class="total" transform="translate(570,30)">
    <text x="22" y="14" font-size="35px">100% complete</text>
  </g>
</svg>