<svg xmlns="http://www.w3.org/2000/svg"
  viewBox="0 0 900 400"
  width="900"
  height="400">
  <style>
    text {
      font-family: "Courier New", Courier, monospace;
      font-size: 12px;
    }
  </style>
  <g class="lines" fill="none">
    <path stroke="darkblue" d="M832.7853344298245,78.71428571428574L829.9444417032163,79.12048543401887C827.1035489766082,79.52668515375204,821.4217635233917,80.33908459321833,808.1886787280702,81.66570642376873C794.9555939327485,82.99232825431913,774.1712097953217,84.83317247595362,754.6509404696639,86.06934252758093C735.130671144006,87.30551257920824,716.874516630117,87.93700846082834,692.8803572733918,90.20289031193373C668.8861979166667,92.4687721630391,639.1540337171053,96.36903998362978,611.7708682839913,98.55561373676188C584.3877028508772,100.742187489894,559.3535361842106,101.21506717556754,542.0796932108918,103.36750373639353C524.805850237573,105.51994029721952,515.2923309576023,109.35193373319794,509.84705660635956,112.20604526088833C504.401782255117,115.06015678857871,503.02475283260236,116.9363864079811,501.85869723135966,118.8126160273835C500.69264163011695,120.68884564678586,499.7375598501462,122.56507526618823,491.525051626462,125.27593020858804C483.31254340277775,127.98678515098783,467.84260873538005,131.53226541638503,458.34617256030697,133.25762045816865C448.8497363852339,134.98297549995226,445.32679870248535,134.8882053181223,436.1084726790935,135.7725148421162C426.89014665570176,136.6568243661101,411.9764322916667,138.5202135959279,403.72335412097954,139.40050437203658C395.47027595029243,140.28079514814522,393.87783397295317,140.1779874705447,389.99686175073094,140.70201371959328C386.1158895285087,141.22603996864186,379.9463870614035,142.3769001443395,374.8376487116229,144.14800520015822C369.7289103618421,145.91911025597696,365.680936129386,148.3104601919168,362.913410316155,150.0269373080892C360.14588450292405,151.7434144242616,358.65880710891815,152.78501872066656,355.434763569079,153.75761856123316C352.21072002923984,154.73021840179976,347.2497103435673,155.63381378652798,343.74877604166664,157.46075450890297C340.2478417397661,159.28769523127792,338.2069828216374,162.03798129129964,335.0431553819444,163.70500692554126C331.87932794225145,165.37203255978284,327.5925319809941,165.95579776824434,324.69399556834793,166.35116985917887C321.79545915570174,166.74654195011337,320.2851822916667,166.95352092352093,318.45212056834794,167.39599129383717C316.6190588450292,167.83846166415344,314.4632122624269,168.51642343137843,311.6666463358918,168.9588938016947C308.8700804093567,169.40136417201094,305.43279513888893,169.6083431454185,302.9695730537281,169.81532211882603C300.50635096856723,170.02230109223356,299.0171920687134,170.22928006564112,297.5445725968567,170.86014355348436C296.071953125,171.4910070413276,294.61587308114036,172.54575504360653,293.4281480720029,173.17661853144978C292.24042306286555,173.80748201929305,291.3210530884503,174.0144609927006,289.0961401224415,174.64532448054385C286.8712271564328,175.27618796838706,283.3407711988304,176.33093597066602,281.1416285179094,177.38568397294497C278.9424858369883,178.44043197522387,278.07465643274855,179.49517997750283,276.88638774671057,180.12604346534604C275.6981190606725,180.75690695318931,274.1894110928363,180.96388592659684,272.7197468932749,181.1708649000044C271.25008269371347,181.37784387341193,269.8194622624269,181.5848228468195,268.00269142909355,182.2156863346627C266.18592059576025,182.84654982250595,263.9829993603801,183.90129782478493,261.2109338450292,184.40437259871737C258.43886832967837,184.90744737264984,255.09765853435673,184.85884891823585,252.69806606359649,184.93803917773263C250.2984735928363,185.0172294372294,248.84049844663744,185.22420841063695,246.94723227339182,185.73132474668185C245.05396610014623,186.23844108272678,242.72540889985382,187.04569478140903,237.12370317068712,191.69383675847962C231.52199744152048,196.34197873555016,222.64714318347956,204.83100899100899,217.54725511695906,209.17901360544218C212.4473670504386,213.52701821987534,211.12244517543863,213.7339971932829,210.05048839546782,213.94097616669046C208.9785316154971,214.14795514009802,208.15953993055555,214.35493411350555,207.33617552997075,214.5619130869131C206.51281112938594,214.7688920603206,205.6850740131579,214.97587103372817,204.4647827576755,215.5180758923616C203.24449150219303,216.06028075099502,201.63164610745616,216.9377114948543,198.4607042671784,217.47991635348777C195.28976242690064,218.0221212121212,190.5607241410819,218.22910018552875,187.4087177905702,218.77883821012233C184.25671144005852,219.32857623471588,182.68173702485385,220.22107331049548,181.47399305555555,220.770811335089C180.26624908625732,221.3205493596826,179.42573556286553,221.52752833309015,176.6243386787281,222.33937622035538C173.82294179459066,223.15122410762058,169.06066154970765,224.56794090874348,166.20951434576025,225.37978879600868C163.3583671418129,226.1916366832739,162.4183529788012,226.39861565668147,161.25740405701757,227.21046354394664C160.09645513523392,228.02231143121193,158.71457145467835,229.43902823233483,156.22611499451753,231.0909718332913C153.7376585343567,232.74291543424772,150.14262929459065,234.6300858350377,147.92523848684212,236.87345681843274C145.70784767909356,239.11682780182784,144.86809530336257,241.71639936782796,144.03863783808478,243.7178227856799C143.20918037280703,245.71924620353192,142.39001781798245,247.12252147323576,141.57089409722224,248.5257967429396C140.751770376462,249.92907201264345,139.9326854897661,251.33234728234729,133.72156067251464,253.93191884834744C127.51043585526317,256.53149041434756,115.90727110745615,260.327358276644,107.74267246893277,262.92692984264414C99.57807383040938,265.52650140864426,94.8520413011696,266.9297766783481,89.03069398757312,267.7349037999038C83.20934667397664,268.5400309214595,76.29268457602342,268.747009894867,70.1449136513158,268.95398886827456C63.99714272660821,269.1609678416821,58.618262975146216,269.3679468150897,50.75668654057019,269.92601274501897C42.89511010599417,270.48407867494825,32.550836988304106,271.3932315613993,25.94252901133042,273.12158734640104C19.334221034356737,274.84994313140277,16.461878198099434,277.3975018149552,13.303468110380138,278.77477064343526C10.145058022660841,280.15203947191526,6.70058068347955,280.3590184453228,3.2985450932017706,282.32143220133906C-0.10349049707600837,284.28384595735525,-3.4630843384502756,288.0016944959802,-5.6339053362572935,289.96410825199644C-7.804726334064313,291.9265220080127,-8.786774488304083,292.13350098142024,-12.72294156615496,292.61437758048305C-16.659108644005837,293.09525417954586,-23.549394645467824,293.8500284042639,-28.701805783991215,294.33090500332673C-33.85421692251461,294.81178160238954,-37.26875319809941,295.0187605757971,-40.71166164108187,296.3711296201266C-44.154570084064325,297.72349866445614,-47.625850694444445,300.2212577797076,-51.06956688596491,301.5736268240372C-54.51328307748537,302.9259958683667,-57.92943485014617,303.1329748417742,-61.111071591739744,303.3399538151818C-64.2927083333333,303.54693278858934,-67.23983004385963,303.7539117619969,-70.76089592470758,303.96089073540446C-74.28196180555553,304.16786970881196,-78.37697185672512,304.3748486822195,-83.1680242598684,304.5818276556271C-87.95907666301169,304.7888066290346,-93.44617141812864,304.99578560244214,-98.65295024671052,305.77545961131074C-103.85972907529238,306.5551336201792,-108.78619197733917,307.90750266450874,-113.61866479349415,308.6871766733773C-118.45113760964911,309.4668506822458,-123.18962033991227,309.6738296556534,-126.72278691520467,310.34265946411006C-130.25595349049706,311.0114892725668,-132.5838039108187,312.1421699160727,-140.8530059850146,317.4418240972893C-149.1222080592105,322.7414782785059,-163.33276178728067,332.2101059974332,-173.4947322733918,338.10383907694967C-183.6567027595029,343.9975721564662,-189.77009000365499,346.31641059657187,-200.97365222953218,349.35404457805384C-212.17721445540937,352.3916785595357,-228.47095166301173,356.1481080823938,-248.09883794773393,359.45637465708893C-267.7267242324561,362.7646412317841,-290.6887595942982,365.62474485831626,-302.16977727521925,367.0547966715824L-313.65079495614026,368.4848484848485" />
    <path stroke="blue" d="M832.7853344298245,65.10382189683352L829.9444417032163,65.27391677319862C827.1035489766082,65.4440116495637,821.4217635233917,65.7842014022939,808.1886787280702,67.22100270827399C794.9555939327485,68.65780401425407,774.1712097953217,71.19121687348404,754.6509404696639,72.71403570046071C735.130671144006,74.23685452743736,716.874516630117,74.7490793221607,692.8803572733918,78.02286845815375C668.8861979166667,81.29665759414678,639.1540337171053,87.33201107140953,611.7708682839913,90.68765960465316C584.3877028508772,94.04330813789677,559.3535361842106,94.71925172712129,542.0796932108918,96.64313673107262C524.805850237573,98.56702173502394,515.2923309576023,101.73884815370211,509.84705660635956,103.6873722519553C504.401782255117,105.6358963502085,503.02475283260236,106.36111812803676,501.85869723135966,106.94526243314372C500.69264163011695,107.52940673825066,499.7375598501462,107.9724735706363,491.525051626462,110.58601320432292C483.31254340277775,113.19955283800955,467.84260873538005,117.98356527299718,458.34617256030697,120.48050339357155C448.8497363852339,122.97744151414592,445.32679870248535,123.18730532030706,436.1084726790935,124.16128268809432C426.89014665570176,125.13526005588159,411.9764322916667,126.87335098529498,403.72335412097954,127.78010470463994C395.47027595029243,128.6868584239849,393.87783397295317,128.76227493326138,389.99686175073094,129.18466493327125C386.1158895285087,129.60705493328115,379.9463870614035,130.37641842402442,374.8376487116229,132.1929564380749C369.7289103618421,134.00949445212532,365.680936129386,136.873206989483,362.913410316155,138.4583436125956C360.14588450292405,140.04348023570822,358.65880710891815,140.3500409445758,355.434763569079,140.74370397146038C352.21072002923984,141.1373669983449,347.2497103435673,141.61813234324643,343.74877604166664,144.2387670283887C340.2478417397661,146.85940171353096,338.2069828216374,151.61990573891399,335.0431553819444,154.20603734764867C331.87932794225145,156.7921689563833,327.5925319809941,157.2039281484696,324.69399556834793,157.53732187058046C321.79545915570174,157.87071559269128,320.2851822916667,158.12574384482664,318.45212056834794,158.46909143423557C316.6190588450292,158.81243902364446,314.4632122624269,159.2441059503269,311.6666463358918,159.56978997340778C308.8700804093567,159.89547399648868,305.43279513888893,160.115175115968,302.9695730537281,160.32425458123933C300.50635096856723,160.5333340465107,299.0171920687134,160.7317918575741,297.5445725968567,160.97052739293025C296.071953125,161.2092629282864,294.61587308114036,161.4882761879352,293.4281480720029,161.73389229095744C292.24042306286555,161.97950839397967,291.3210530884503,162.1917273403753,289.0961401224415,162.4702715599213C286.8712271564328,162.74881577946726,283.3407711988304,163.09368527216358,281.1416285179094,163.4125569545029C278.9424858369883,163.73142863684222,278.07465643274855,164.02430250882458,276.88638774671057,164.28009412767432C275.6981190606725,164.53588574652406,274.1894110928363,164.7545951122412,272.7197468932749,165.01428816480998C271.25008269371347,165.27398121737875,269.8194622624269,165.57465795679917,268.00269142909355,166.52751140395978C266.18592059576025,167.4803648511204,263.9829993603801,169.08539500602123,261.2109338450292,170.69140370141557C258.43886832967837,172.29741239680993,255.09765853435673,173.90439963269785,252.69806606359649,174.81406080038676C250.2984735928363,175.7237219680757,248.84049844663744,175.93605706756566,246.94723227339182,177.32290667953234C245.05396610014623,178.70975629149902,242.72540889985382,181.27112041594242,237.12370317068712,185.68457235724932C231.52199744152048,190.0980242985562,222.64714318347956,196.36356405672655,217.54725511695906,199.60543514916037C212.4473670504386,202.8473062415942,211.12244517543863,203.06550866829153,210.05048839546782,203.3556218269944C208.9785316154971,203.64573498569726,208.15953993055555,204.00775887640575,207.33617552997075,204.2981255046185C206.51281112938594,204.5884921328313,205.6850740131579,204.80720149854844,204.4647827576755,205.152309386488C203.24449150219303,205.49741727442756,201.63164610745616,205.9689236845896,198.4607042671784,208.59107614357436C195.28976242690064,211.21322860255916,190.5607241410819,215.98602711036668,187.4087177905702,218.53442992668974C184.25671144005852,221.0828327430127,182.68173702485385,221.4068398678512,181.47399305555555,221.678198113129C180.26624908625732,221.9495563584068,179.42573556286553,222.1682657241239,176.6243386787281,223.08378328447597C173.82294179459066,223.99930084482799,169.06066154970765,225.6116265998149,166.20951434576025,226.55255683384692C163.3583671418129,227.493487067879,162.4183529788012,227.76302178095614,161.25740405701757,228.17019781667173C160.09645513523392,228.57737385238738,158.71457145467835,229.12219121074148,156.22611499451753,230.17609473584608C153.7376585343567,231.22999826095074,150.14262929459065,232.79298795280587,147.92523848684212,233.8760106366889C145.70784767909356,234.95903332057196,144.86809530336257,235.56208899648297,144.03863783808478,236.12166713338505C143.20918037280703,236.68124527028712,142.39001781798245,237.1973458681803,141.57089409722224,237.7326108096977C140.751770376462,238.26787575121512,139.9326854897661,238.82230503635677,133.72156067251464,240.05921086831805C127.51043585526317,241.2961167002793,115.90727110745615,243.21549907906024,107.74267246893277,245.319816626945C99.57807383040938,247.4241341748298,94.8520413011696,249.7133868918185,89.03069398757312,250.96768533862678C83.20934667397664,252.2219837854351,76.29268457602342,252.44132796206304,70.1449136513158,252.65582394833154C63.99714272660821,252.87031993460002,58.618262975146216,253.07996773050903,50.75668654057019,253.39521625432565C42.89511010599417,253.71046477814227,32.550836988304106,254.13131402986642,25.94252901133042,255.40613682271774C19.334221034356737,256.680959615569,16.461878198099434,258.8097559495474,13.303468110380138,259.9901689345673C10.145058022660841,261.1705819195872,6.70058068347955,261.40261155564855,3.2985450932017706,264.2145485119593C-0.10349049707600837,267.0264854682701,-3.4630843384502756,272.41832974483026,-5.6339053362572935,275.1861777442304C-7.804726334064313,277.95402574363055,-8.786774488304083,278.0978774658708,-12.72294156615496,278.290207421278C-16.659108644005837,278.48253737668523,-23.549394645467824,278.7233455652594,-28.701805783991215,279.16488307359936C-33.85421692251461,279.60642058193923,-37.26875319809941,280.2486874100448,-40.71166164108187,284.1049318847083C-44.154570084064325,287.96117635937185,-47.625850694444445,295.0313984805934,-51.06956688596491,298.8135227124164C-54.51328307748537,302.5956469442393,-57.92943485014617,303.08967328666375,-61.111071591739744,303.531982980289C-64.2927083333333,303.9742926739142,-67.23983004385963,304.3648857187402,-70.76089592470758,304.66953692401177C-74.28196180555553,304.97418812928333,-78.37697185672512,305.19289749500047,-83.1680242598684,305.40889218248816C-87.95907666301169,305.62488686997585,-93.44617141812864,305.83816687923405,-98.65295024671052,306.70983871879656C-103.85972907529238,307.58151055835907,-108.78619197733917,309.11157422822583,-113.61866479349415,310.03674847973053C-118.45113760964911,310.96192273123523,-123.18962033991227,311.28220756437787,-126.72278691520467,311.78192724118026C-130.25595349049706,312.28164691798264,-132.5838039108187,312.96080143844466,-140.8530059850146,318.9245542994424C-149.1222080592105,324.8883071604401,-163.33276178728067,336.1366583619734,-173.4947322733918,342.39103170551556C-183.6567027595029,348.6454050490576,-189.77009000365499,349.90580053460855,-200.97365222953218,352.52149028712824C-212.17721445540937,355.13718003964794,-228.47095166301173,359.10816405913647,-248.09883794773393,362.46328703924456C-267.7267242324561,365.8184100193527,-290.6887595942982,368.5576719600802,-302.16977727521925,369.92730293044406L-313.65079495614026,371.29693390080786" />
    
    <path stroke="darkorange" d="M832.7853344298245,301.28571428571433L829.9444417032163,300.8795145659812C827.1035489766082,300.473314846248,821.4217635233917,299.6609154067817,808.1886787280702,298.3342935762313C794.9555939327485,297.0076717456809,774.1712097953217,295.16682752404637,754.6509404696639,293.93065747241906C735.130671144006,292.6944874207918,716.874516630117,292.06299153917166,692.8803572733918,289.7971096880663C668.8861979166667,287.5312278369609,639.1540337171053,283.6309600163702,611.7708682839913,281.4443862632381C584.3877028508772,279.25781251010596,559.3535361842106,278.7849328244324,542.0796932108918,276.63249626360647C524.805850237573,274.48005970278047,515.2923309576023,270.64806626680206,509.84705660635956,267.79395473911165C504.401782255117,264.9398432114213,503.02475283260236,263.06361359201895,501.85869723135966,261.18738397261654C500.69264163011695,259.31115435321414,499.7375598501462,257.4349247338118,491.525051626462,254.72406979141195C483.31254340277775,252.0132148490122,467.84260873538005,248.467734583615,458.34617256030697,246.74237954183135C448.8497363852339,245.01702450004777,445.32679870248535,245.11179468187774,436.1084726790935,244.22748515788382C426.89014665570176,243.3431756338899,411.9764322916667,241.47978640407212,403.72335412097954,240.59949562796348C395.47027595029243,239.7192048518548,393.87783397295317,239.8220125294553,389.99686175073094,239.29798628040672C386.1158895285087,238.77396003135814,379.9463870614035,237.6230998556605,374.8376487116229,235.8519947998418C369.7289103618421,234.08088974402304,365.680936129386,231.6895398080832,362.913410316155,229.97306269191077C360.14588450292405,228.25658557573843,358.65880710891815,227.21498127933344,355.434763569079,226.24238143876687C352.21072002923984,225.2697815982003,347.2497103435673,224.36618621347202,343.74877604166664,222.53924549109706C340.2478417397661,220.7123047687221,338.2069828216374,217.96201870870038,335.0431553819444,216.29499307445874C331.87932794225145,214.62796744021716,327.5925319809941,214.04420223175566,324.69399556834793,213.64883014082113C321.79545915570174,213.2534580498866,320.2851822916667,213.04647907647905,318.45212056834794,212.60400870616277C316.6190588450292,212.16153833584653,314.4632122624269,211.48357656862154,311.6666463358918,211.0411061983053C308.8700804093567,210.59863582798903,305.43279513888893,210.39165685458147,302.9695730537281,210.1846778811739C300.50635096856723,209.97769890776638,299.0171920687134,209.77071993435882,297.5445725968567,209.1398564465156C296.071953125,208.50899295867237,294.61587308114036,207.4542449563934,293.4281480720029,206.8233814685502C292.24042306286555,206.19251798070695,291.3210530884503,205.9855390072994,289.0961401224415,205.35467551945615C286.8712271564328,204.72381203161294,283.3407711988304,203.669064029334,281.1416285179094,202.61431602705508C278.9424858369883,201.55956802477613,278.07465643274855,200.50482002249717,276.88638774671057,199.87395653465396C275.6981190606725,199.24309304681069,274.1894110928363,199.03611407340313,272.7197468932749,198.8291350999956C271.25008269371347,198.62215612658804,269.8194622624269,198.4151771531805,268.00269142909355,197.78431366533724C266.18592059576025,197.15345017749402,263.9829993603801,196.09870217521507,261.2109338450292,195.5956274012826C258.43886832967837,195.0925526273501,255.09765853435673,195.14115108176415,252.69806606359649,195.06196082226734C250.2984735928363,194.98277056277058,248.84049844663744,194.77579158936302,246.94723227339182,194.2686752533181C245.05396610014623,193.76155891727322,242.72540889985382,192.95430521859097,237.12370317068712,188.3061632415204C231.52199744152048,183.65802126444987,222.64714318347956,175.16899100899104,217.54725511695906,170.82098639455785C212.4473670504386,166.47298178012466,211.12244517543863,166.2660028067171,210.05048839546782,166.05902383330957C208.9785316154971,165.852044859902,208.15953993055555,165.64506588649445,207.33617552997075,165.43808691308692C206.51281112938594,165.2311079396794,205.6850740131579,165.02412896627183,204.4647827576755,164.4819241076384C203.24449150219303,163.93971924900498,201.63164610745616,163.06228850514566,198.4607042671784,162.52008364651223C195.28976242690064,161.97787878787878,190.5607241410819,161.77089981447125,187.4087177905702,161.22116178987767C184.25671144005852,160.67142376528412,182.68173702485385,159.77892668950452,181.47399305555555,159.22918866491096C180.26624908625732,158.6794506403174,179.42573556286553,158.47247166690985,176.6243386787281,157.66062377964462C173.82294179459066,156.8487758923794,169.06066154970765,155.43205909125652,166.20951434576025,154.6202112039913C163.3583671418129,153.80836331672606,162.4183529788012,153.60138434331853,161.25740405701757,152.7895364560533C160.09645513523392,151.97768856878807,158.71457145467835,150.56097176766517,156.22611499451753,148.90902816670874C153.7376585343567,147.2570845657523,150.14262929459065,145.3699141649623,147.92523848684212,143.12654318156726C145.70784767909356,140.88317219817216,144.86809530336257,138.28360063217204,144.03863783808478,136.2821772143201C143.20918037280703,134.28075379646808,142.39001781798245,132.87747852676424,141.57089409722224,131.4742032570604C140.751770376462,130.07092798735655,139.9326854897661,128.66765271765271,133.72156067251464,126.06808115165256C127.51043585526317,123.46850958565244,115.90727110745615,119.672641723356,107.74267246893277,117.07307015735587C99.57807383040938,114.47349859135574,94.8520413011696,113.0702233216519,89.03069398757312,112.2650962000962C83.20934667397664,111.45996907854051,76.29268457602342,111.25299010513295,70.1449136513158,111.04601113172542C63.99714272660821,110.83903215831788,58.618262975146216,110.63205318491033,50.75668654057019,110.07398725498105C42.89511010599417,109.51592132505175,32.550836988304106,108.60676843860074,25.94252901133042,106.87841265359897C19.334221034356737,105.15005686859723,16.461878198099434,102.60249818504478,13.303468110380138,101.22522935656475C10.145058022660841,99.84796052808476,6.70058068347955,99.64098155467723,3.2985450932017706,97.67856779866098C-0.10349049707600837,95.71615404264473,-3.4630843384502756,91.9983055040198,-5.6339053362572935,90.03589174800355C-7.804726334064313,88.0734779919873,-8.786774488304083,87.86649901857974,-12.72294156615496,87.38562241951695C-16.659108644005837,86.90474582045415,-23.549394645467824,86.14997159573609,-28.701805783991215,85.66909499667331C-33.85421692251461,85.1882183976105,-37.26875319809941,84.98123942420295,-40.71166164108187,83.62887037987342C-44.154570084064325,82.2765013355439,-47.625850694444445,79.77874222029237,-51.06956688596491,78.42637317596284C-54.51328307748537,77.0740041316333,-57.92943485014617,76.86702515822576,-61.111071591739744,76.66004618481821C-64.2927083333333,76.45306721141067,-67.23983004385963,76.24608823800313,-70.76089592470758,76.03910926459558C-74.28196180555553,75.83213029118804,-78.37697185672512,75.62515131778049,-83.1680242598684,75.41817234437295C-87.95907666301169,75.2111933709654,-93.44617141812864,75.00421439755785,-98.65295024671052,74.2245403886893C-103.85972907529238,73.44486637982078,-108.78619197733917,72.09249733549125,-113.61866479349415,71.31282332662272C-118.45113760964911,70.53314931775418,-123.18962033991227,70.32617034434664,-126.72278691520467,69.6573405358899C-130.25595349049706,68.98851072743317,-132.5838039108187,67.85783008392725,-140.8530059850146,62.558175902710666C-149.1222080592105,57.25852172149408,-163.33276178728067,47.78989400256682,-173.4947322733918,41.896160923050324C-183.6567027595029,36.00242784353383,-189.77009000365499,33.68358940342811,-200.97365222953218,30.64595542194621C-212.17721445540937,27.608321440464298,-228.47095166301173,23.851891917606206,-248.09883794773393,20.54362534291106C-267.7267242324561,17.23535876821591,-290.6887595942982,14.375255141683708,-302.16977727521925,12.945203328417605L-313.65079495614026,11.515151515151503" />
    <path stroke="orange" d="M832.7853344298245,314.89617810316645L829.9444417032163,314.72608322680134C827.1035489766082,314.5559883504363,821.4217635233917,314.2157985977061,808.1886787280702,312.77899729172606C794.9555939327485,311.34219598574595,774.1712097953217,308.80878312651595,754.6509404696639,307.28596429953933C735.130671144006,305.76314547256266,716.874516630117,305.2509206778393,692.8803572733918,301.9771315418463C668.8861979166667,298.7033424058532,639.1540337171053,292.66798892859043,611.7708682839913,289.31234039534684C584.3877028508772,285.95669186210324,559.3535361842106,285.2807482728787,542.0796932108918,283.3568632689274C524.805850237573,281.43297826497604,515.2923309576023,278.2611518462979,509.84705660635956,276.3126277480447C504.401782255117,274.3641036497915,503.02475283260236,273.6388818719632,501.85869723135966,273.0547375668563C500.69264163011695,272.47059326174934,499.7375598501462,272.02752642936366,491.525051626462,269.41398679567703C483.31254340277775,266.8004471619904,467.84260873538005,262.01643472700283,458.34617256030697,259.51949660642845C448.8497363852339,257.02255848585406,445.32679870248535,256.8126946796929,436.1084726790935,255.8387173119057C426.89014665570176,254.86473994411844,411.9764322916667,253.126649014705,403.72335412097954,252.21989529536003C395.47027595029243,251.3131415760151,393.87783397295317,251.2377250667386,389.99686175073094,250.81533506672872C386.1158895285087,250.39294506671885,379.9463870614035,249.62358157597555,374.8376487116229,247.8070435619251C369.7289103618421,245.99050554787468,365.680936129386,243.126793010517,362.913410316155,241.54165638740437C360.14588450292405,239.95651976429178,358.65880710891815,239.6499590554242,355.434763569079,239.25629602853965C352.21072002923984,238.8626330016551,347.2497103435673,238.38186765675357,343.74877604166664,235.76123297161132C340.2478417397661,233.14059828646904,338.2069828216374,228.38009426108601,335.0431553819444,225.79396265235133C331.87932794225145,223.2078310436167,327.5925319809941,222.7960718515304,324.69399556834793,222.46267812941952C321.79545915570174,222.12928440730875,320.2851822916667,221.87425615517336,318.45212056834794,221.53090856576443C316.6190588450292,221.1875609763555,314.4632122624269,220.7558940496731,311.6666463358918,220.43021002659222C308.8700804093567,220.10452600351132,305.43279513888893,219.884824884032,302.9695730537281,219.67574541876067C300.50635096856723,219.4666659534893,299.0171920687134,219.2682081424259,297.5445725968567,219.02947260706972C296.071953125,218.7907370717136,294.61587308114036,218.5117238120648,293.4281480720029,218.2661077090426C292.24042306286555,218.02049160602033,291.3210530884503,217.8082726596247,289.0961401224415,217.52972844007874C286.8712271564328,217.25118422053276,283.3407711988304,216.90631472783647,281.1416285179094,216.5874430454971C278.9424858369883,216.26857136315778,278.07465643274855,215.97569749117542,276.88638774671057,215.7199058723257C275.6981190606725,215.4641142534759,274.1894110928363,215.2454048877588,272.7197468932749,214.98571183519002C271.25008269371347,214.72601878262125,269.8194622624269,214.42534204320086,268.00269142909355,213.4724885960402C266.18592059576025,212.51963514887962,263.9829993603801,210.91460499397877,261.2109338450292,209.30859629858443C258.43886832967837,207.70258760319007,255.09765853435673,206.09560036730215,252.69806606359649,205.18593919961324C250.2984735928363,204.2762780319243,248.84049844663744,204.06394293243434,246.94723227339182,202.67709332046766C245.05396610014623,201.29024370850098,242.72540889985382,198.72887958405758,237.12370317068712,194.31542764275068C231.52199744152048,189.9019757014438,222.64714318347956,183.63643594327345,217.54725511695906,180.39456485083963C212.4473670504386,177.1526937584058,211.12244517543863,176.93449133170847,210.05048839546782,176.6443781730056C208.9785316154971,176.35426501430268,208.15953993055555,175.99224112359425,207.33617552997075,175.70187449538147C206.51281112938594,175.4115078671687,205.6850740131579,175.19279850145156,204.4647827576755,174.847690613512C203.24449150219303,174.50258272557244,201.63164610745616,174.0310763154104,198.4607042671784,171.40892385642564C195.28976242690064,168.78677139744084,190.5607241410819,164.01397288963332,187.4087177905702,161.46557007331032C184.25671144005852,158.91716725698728,182.68173702485385,158.5931601321488,181.47399305555555,158.321801886871C180.26624908625732,158.0504436415932,179.42573556286553,157.83173427587607,176.6243386787281,156.91621671552403C173.82294179459066,156.00069915517201,169.06066154970765,154.3883734001851,166.20951434576025,153.44744316615305C163.3583671418129,152.506512932121,162.4183529788012,152.23697821904383,161.25740405701757,151.8298021833282C160.09645513523392,151.4226261476126,158.71457145467835,150.87780878925847,156.22611499451753,149.82390526415386C153.7376585343567,148.77000173904926,150.14262929459065,147.20701204719413,147.92523848684212,146.1239893633111C145.70784767909356,145.04096667942804,144.86809530336257,144.43791100351703,144.03863783808478,143.87833286661495C143.20918037280703,143.31875472971288,142.39001781798245,142.8026541318197,141.57089409722224,142.2673891903023C140.751770376462,141.73212424878488,139.9326854897661,141.17769496364323,133.72156067251464,139.94078913168195C127.51043585526317,138.70388329972067,115.90727110745615,136.7845009209398,107.74267246893277,134.680183373055C99.57807383040938,132.5758658251702,94.8520413011696,130.28661310818154,89.03069398757312,129.03231466137325C83.20934667397664,127.77801621456491,76.29268457602342,127.55867203793696,70.1449136513158,127.34417605166847C63.99714272660821,127.1296800654,58.618262975146216,126.92003226949096,50.75668654057019,126.60478374567435C42.89511010599417,126.28953522185776,32.550836988304106,125.86868597013358,25.94252901133042,124.59386317728227C19.334221034356737,123.31904038443098,16.461878198099434,121.19024405045256,13.303468110380138,120.00983106543266C10.145058022660841,118.82941808041278,6.70058068347955,118.59738844435141,3.2985450932017706,115.78545148804066C-0.10349049707600837,112.9735145317299,-3.4630843384502756,107.58167025516975,-5.6339053362572935,104.81382225576961C-7.804726334064313,102.04597425636943,-8.786774488304083,101.90212253412926,-12.72294156615496,101.70979257872204C-16.659108644005837,101.51746262331483,-23.549394645467824,101.27665443474058,-28.701805783991215,100.83511692640069C-33.85421692251461,100.39357941806077,-37.26875319809941,99.7513125899552,-40.71166164108187,95.89506811529168C-44.154570084064325,92.03882364062815,-47.625850694444445,84.96860151940666,-51.06956688596491,81.18647728758368C-54.51328307748537,77.40435305576072,-57.92943485014617,76.91032671333629,-61.111071591739744,76.46801701971106C-64.2927083333333,76.02570732608582,-67.23983004385963,75.6351142812598,-70.76089592470758,75.33046307598823C-74.28196180555553,75.02581187071665,-78.37697185672512,74.80710250499953,-83.1680242598684,74.59110781751185C-87.95907666301169,74.37511313002416,-93.44617141812864,74.16183312076592,-98.65295024671052,73.29016128120342C-103.85972907529238,72.41848944164094,-108.78619197733917,70.88842577177421,-113.61866479349415,69.9632515202695C-118.45113760964911,69.03807726876478,-123.18962033991227,68.71779243562212,-126.72278691520467,68.21807275881974C-130.25595349049706,67.71835308201737,-132.5838039108187,67.03919856155532,-140.8530059850146,61.07544570055763C-149.1222080592105,55.11169283955994,-163.33276178728067,43.86334163802661,-173.4947322733918,37.6089682944845C-183.6567027595029,31.354594950942385,-189.77009000365499,30.094199465391494,-200.97365222953218,27.478509712871773C-212.17721445540937,24.862819960352056,-228.47095166301173,20.89183594086352,-248.09883794773393,17.536712960755455C-267.7267242324561,14.181589980647388,-290.6887595942982,11.442328039919794,-302.16977727521925,10.072697069555996L-313.65079495614026,8.703066099192199" />
  </g>
  
  <g class="axis y" stroke="black" fill="none" stroke-dasharray="4 6">
    <path d="M 0,285 h900" /><path d="M 0,190 h900" /><path d="M 0,95 h900" />
  </g>
  <g
    class="axis x"
    stroke="black" fill="none"
    transform="translate(0, 380)">
  
  <path d="M0,0 h900" />
  <g transform="translate(827, 0)">
      <text text-anchor="middle"
      fill="black"
      stroke="none"
      transform="translate(0, 12)">Jul</text>
      <path d="M0,0 v-5" />
    </g><g transform="translate(756, 0)">
      <text text-anchor="middle"
      fill="black"
      stroke="none"
      transform="translate(0, 12)">Jun</text>
      <path d="M0,0 v-5" />
    </g><g transform="translate(682, 0)">
      <text text-anchor="middle"
      fill="black"
      stroke="none"
      transform="translate(0, 12)">May</text>
      <path d="M0,0 v-5" />
    </g><g transform="translate(611, 0)">
      <text text-anchor="middle"
      fill="black"
      stroke="none"
      transform="translate(0, 12)">Apr</text>
      <path d="M0,0 v-5" />
    </g><g transform="translate(538, 0)">
      <text text-anchor="middle"
      fill="black"
      stroke="none"
      transform="translate(0, 12)">Mar</text>
      <path d="M0,0 v-5" />
    </g><g transform="translate(471, 0)">
      <text text-anchor="middle"
      fill="black"
      stroke="none"
      transform="translate(0, 12)">Feb</text>
      <path d="M0,0 v-5" />
    </g><g transform="translate(398, 0)">
      <text text-anchor="middle"
      fill="black"
      stroke="none"
      transform="translate(0, 12)">Jan ’22</text>
      <path d="M0,0 v-5" />
    </g><g transform="translate(324, 0)">
      <text text-anchor="middle"
      fill="black"
      stroke="none"
      transform="translate(0, 12)">Dec</text>
      <path d="M0,0 v-5" />
    </g><g transform="translate(253, 0)">
      <text text-anchor="middle"
      fill="black"
      stroke="none"
      transform="translate(0, 12)">Nov</text>
      <path d="M0,0 v-5" />
    </g><g transform="translate(180, 0)">
      <text text-anchor="middle"
      fill="black"
      stroke="none"
      transform="translate(0, 12)">Oct</text>
      <path d="M0,0 v-5" />
    </g><g transform="translate(109, 0)">
      <text text-anchor="middle"
      fill="black"
      stroke="none"
      transform="translate(0, 12)">Sep</text>
      <path d="M0,0 v-5" />
    </g><g transform="translate(36, 0)">
      <text text-anchor="middle"
      fill="black"
      stroke="none"
      transform="translate(0, 12)">Aug</text>
      <path d="M0,0 v-5" />
    </g><g transform="translate(-38, 0)">
      <text text-anchor="middle"
      fill="black"
      stroke="none"
      transform="translate(0, 12)">Jul</text>
      <path d="M0,0 v-5" />
    </g>
  
  </g>
</svg>