<svg xmlns="http://www.w3.org/2000/svg"
  viewBox="0 0 900 460"
  width="900"
  height="460">
  <style>
    text {
      font-family: "Courier New", Courier, monospace;
    }
    .legend {
      font-size: 12px;
    }
  </style>
  <g class="lines" fill="none" transform="translate(20, 80)">>
    <path stroke="darkblue" d="M877.8546052631579,11.999999999999996L874.3945410264683,14.930867886707004C870.9344767897791,17.86173577341401,864.0143483164002,23.723471546828023,858.7705465974074,27.172304094435578C853.5267448784144,30.621136642043144,849.9592699138075,31.657065963844246,844.9831319831918,33.677255574855586C840.006994052576,35.697445185866925,833.6221931559515,38.7018950860885,829.2618003824996,41.0630932250939C824.9014076090476,43.424291364099304,822.5654229587682,45.14223774188854,818.657990711632,47.35108254801463C814.750558464496,49.55992735414072,809.2716786205029,52.25967058860366,797.6549118064809,54.30576984799407C786.0381449924588,56.351869107384466,768.2834912084072,57.74432439170232,758.6261670113441,58.83947578943057C748.9688428142812,59.93462718715883,747.4088482042065,60.73247469829749,734.8413613609446,61.8519616810756C722.2738745176827,62.97144866385372,698.6988954412336,64.4125751182713,679.4325053176354,65.98187617586349C660.1661151940374,67.5511772334557,645.20831402329,69.2486528942225,634.8519494844872,70.49084317842734C624.4955849456843,71.73303346263216,618.740657038826,72.51993837027501,605.4344297898623,73.79400133262911C592.1282025408987,75.06806429498322,571.2706759498296,76.82928531204855,551.6772641705298,78.01765711542289C532.0838523912298,79.2060289187972,513.754555423699,79.82155150848051,489.68725361333185,81.98543975346566C465.61995180296464,84.1493279984508,435.81464514976125,87.86158189873778,408.35833726300524,89.95033615616929C380.9020293762492,92.03909041360079,355.7947202559405,92.50434502817683,338.4477348289798,94.56075878763413C321.10074940201906,96.6171725470914,311.51408766840626,100.26474545142993,305.9956708635215,102.9859039163377C300.47725405863685,105.70706238124548,299.02708218248017,107.50180640672251,297.78788412759553,109.29655043219954C296.5486860727108,111.09129445767657,295.520461839098,112.8860384831536,287.2348111617718,115.47148018304922C278.94916048444554,118.05692188294485,263.4060833634059,121.43306125725907,253.83650473469075,123.08487147236042C244.2669261059756,124.73668168746178,240.6708459695851,124.66416274335025,231.37937749255127,125.5191929942298C222.08790901551743,126.37422324510932,207.10105219784032,128.1568026909799,198.77483157351116,129.00802570702078C190.448610949182,129.85924872306165,188.7830265182008,129.7791153092728,184.82891184233657,130.2928245628357C180.87479716647235,130.8065338163986,174.63215224572505,131.91408573731323,169.45027144230235,133.60923807097416C164.26839063887962,135.30439040463511,160.1472739527815,137.5871431510424,157.30660568590847,139.2305426997752C154.46593741903544,140.87394224850806,152.9057175713876,141.87798859956646,149.6085315779064,142.8166623082517C146.3113455844252,143.75533601693692,141.27719344511067,144.62863708324895,137.70311668956805,146.3766863641737C134.12903993402543,148.12473564509844,132.01503856225477,150.7475331406359,128.7780686689198,152.34408391701325C125.54109877558479,153.9406346933906,121.18116036068547,154.51093875060783,118.20948149439727,154.90276511753638C115.23780262810904,155.29459148446492,113.65438331043195,155.50794016110473,111.7481791334712,155.94438595060544C109.84197495651047,156.38083174010615,107.61298592026613,157.04037464246775,104.74327754008903,157.47682043196843C101.87356915991192,157.91326622146914,98.36314143580205,158.12661489810895,95.8267768969992,158.33996357474877C93.29041235819638,158.55331225138858,91.72811100470057,158.76666092802841,90.18234907920181,159.38158440781783C88.63658715370309,159.99650788760724,87.10736465620143,161.01300617054628,85.846497193422,161.62792965033572C84.58562973064254,162.24285313012513,83.59311730258531,162.45620180676497,81.29506188293453,163.07112528655435C78.99700646328374,163.6860487663438,75.39340805203938,164.7025470492828,73.12112291747631,165.71904533222184C70.84883778291324,166.73554361516085,69.90786592503146,167.75204189809992,68.64645478535142,168.36696537788933C67.38504364567142,168.98188885767877,65.80319322419314,169.19523753431858,64.26038657098971,169.4085862109584C62.71757991778629,169.6219348875982,61.21381703285772,169.83528356423804,59.32390374588237,170.45020704402745C57.433990458907026,171.06513052381686,55.15792676988489,172.0816288067559,52.312718800891986,172.57548929441933C49.4675108318991,173.06934978208278,46.05315858293545,173.04057247447062,43.5804236585332,173.13285815898442C41.10768873413095,173.22514384349824,39.5765711342901,173.43849252013808,37.61016250740247,173.93618185611854C35.64375388051484,174.43387119209902,33.24205422658043,175.21590118742017,27.56720604377175,179.63666744647756C21.892357860963074,184.05743370553498,12.944361149280121,192.11693622832863,7.771330629117636,196.25336182804537C2.5983001089551494,200.38978742776212,1.2002357803131247,200.6031361044019,0.05513654670034551,200.81648478104174C-1.0899626869124337,201.02983345768155,-1.9820968254959677,201.2431821343214,-2.8786036797227794,201.4565308109612C-3.7751105339495905,201.66987948760098,-4.67599010381968,201.88322816424082,-5.969423812944153,202.41415925846306C-7.262857522068625,202.9450903526853,-8.948845370447481,203.79360386448994,-12.192929664367272,204.32453495871218C-15.437013958287062,204.85546605293442,-20.239194697747788,205.06881472957423,-23.4643435019015,205.60688250733764C-26.689492306055214,206.14495028510103,-28.337609174901917,207.00773716398805,-29.618495597842184,207.54580494175147C-30.89938202078245,208.08387271951491,-31.81303799781627,208.2972213961547,-34.68757733559571,209.08360378065967C-37.56211667337516,209.86998616516465,-42.397539371900216,211.22940225753482,-45.32182902948961,212.0157846420398C-48.24611868707899,212.8021670265448,-49.25927530373269,213.0155157031846,-50.49336667915833,213.80189808768955C-51.72745805458396,214.58828047219458,-53.18248418878154,215.9476965645647,-55.744083102584376,217.52995909888247C-58.305682016387216,219.11222163320016,-61.97385370979532,220.91733060946547,-64.26438697118589,223.05989276925138C-66.55492023257644,225.20245492903723,-67.46781506194945,227.6824702723437,-68.37041498086924,229.59581894898352C-69.27301489978903,231.5091676256233,-70.16531990825563,232.85584963559646,-71.05758608265786,234.20253164556962C-71.94985225706012,235.54921365554276,-72.84207959739804,236.89589566551592,-79.1263468682915,239.3759110088224C-85.41061413918499,241.8559263521289,-97.08692134063399,245.4692750287687,-105.32466243279941,247.94929037207518C-113.56240352496481,250.42930571538167,-118.36157850784662,251.77598772535478,-124.25606827508511,252.55600306866123C-130.15055804232364,253.33601841196773,-137.14036259391887,253.54936708860757,-143.3612759722685,253.7627157652474C-149.5821893506181,253.9760644418872,-155.03421155572212,254.189413118527,-162.96893044394017,254.735370490819C-170.9036493321582,255.281327863111,-181.32106490349028,256.15989393105514,-188.00251533410596,257.81454695552105C-194.68396576472165,259.46919997998697,-197.629451054621,261.8999399609746,-200.8610035959823,263.2219842897884C-204.09255613734362,264.5440286186021,-207.61017593016695,264.7573772952419,-211.08535397408673,266.6337694501426C-214.5605320180065,268.51016160504327,-217.99326831302278,272.04959723820485,-220.23723176447183,273.9259893931055C-222.48119521592085,275.8023815480062,-223.53638582380268,276.015730224646,-227.54569535529558,276.48856086243296C-231.55500488678845,276.9613915002198,-238.51843334189246,277.6937040991538,-243.74398693405786,278.1665347369407C-248.9695405262233,278.63936537472756,-252.45721925545004,278.8527140513674,-255.97327015207455,280.15116911098596C-259.48932104869897,281.4496241706045,-263.0337441127212,283.83318561320175,-266.5506027578836,285.1316406728203C-270.06746140304614,286.4300957324388,-273.55675562934897,286.64344440907865,-276.8115348245845,286.8567930857185C-280.0663140198201,287.07014176235833,-283.0865781839884,287.2834904389981,-286.68078651847844,287.4968391156379C-290.2749948529684,287.71018779227774,-294.44314735778,287.9235364689176,-299.3073422145653,288.1368851455574C-304.1715370713506,288.3502338221972,-309.73177428010956,288.563582498837,-315.0116955623335,289.3194843669662C-320.2916168445574,290.0753862350953,-325.2912222002462,291.3738412947139,-330.1968374700432,292.1297431628431C-335.10245273984015,292.8856450309723,-339.9140779237453,293.0989937076121,-343.52038695267976,293.7498852806143C-347.12669598161415,294.4007768536165,-349.5276888555779,295.4892113229811,-357.8700333834158,300.5271996701768C-366.21237791125367,305.5651880173726,-380.4960740929658,314.55273024239955,-390.73118703271894,320.1535301774583C-400.9662999724721,325.75433011251715,-407.1528296702661,327.96838775760784,-418.42953434978534,330.8634095997918C-429.7062390293045,333.7584314419757,-446.07311869054894,337.33441748125284,-465.7741474289132,340.4858280959547C-485.47517616727737,343.6372387106564,-508.5103539827615,346.3640739007828,-520.0279428905036,347.7274914958459L-531.5455317982456,349.0909090909091" />
    <path stroke="blue" d="M877.8546052631579,4.991136571439241L874.3945410264683,7.263290873019791C870.9344767897791,9.53544517460034,864.0143483164002,14.079753777761441,858.7705465974074,16.837434274073676C853.5267448784144,19.595114770385916,849.9592699138075,20.566167159849286,844.9831319831918,21.979796891919857C840.006994052576,23.393426623990432,833.6221931559515,25.24963369866821,829.2618003824996,26.874943947044226C824.9014076090476,28.50025419542024,822.5654229587682,29.894667617494488,818.657990711632,31.444946958807247C814.750558464496,32.99522630012001,809.2716786205029,34.701371560671284,797.6549118064809,36.11595376838836C786.0381449924588,37.530535976105426,768.2834912084072,38.6535551309883,758.6261670113441,39.78657512684306C748.9688428142812,40.91959512269782,747.4088482042065,42.06261595952447,734.8413613609446,44.0971444507087C722.2738745176827,46.13167294189293,698.6988954412336,49.05770908743474,679.4325053176354,51.70678480752927C660.1661151940374,54.35586052762381,645.20831402329,56.727975822271084,634.8519494844872,58.081312207469615C624.4955849456843,59.43464859266814,618.740657038826,59.76920606841793,605.4344297898623,61.14265869987815C592.1282025408987,62.51611133133836,571.2706759498296,64.92845911850901,551.6772641705298,66.38340203301861C532.0838523912298,67.83834494752823,513.754555423699,68.33588298937678,489.68725361333185,71.44963988084926C465.61995180296464,74.56339677232177,435.81464514976125,80.29337251341819,408.35833726300524,83.4846804128123C380.9020293762492,86.6759883122064,355.7947202559405,87.32862836989818,338.4477348289798,89.1635287152259C321.10074940201906,90.99842906055362,311.51408766840626,94.01558969351726,305.9956708635215,95.8738323387099C300.47725405863685,97.73207498390256,299.02708218248017,98.43139964132418,297.78788412759553,98.99707195616776C296.5486860727108,99.56274427101131,295.520461839098,99.99476424327679,287.2348111617718,102.48302160624849C278.94916048444554,104.97127896922018,263.4060833634059,109.51577372289806,253.83650473469075,111.89356649450023C244.2669261059756,114.27135926610242,240.6708459695851,114.48245005562887,231.37937749255127,115.41743790353802C222.08790901551743,116.35242575144714,207.10105219784032,118.01131065773893,198.77483157351116,118.88261294396587C190.448610949182,119.75391523019279,188.7830265182008,119.83763489635487,184.82891184233657,120.25006629058016C180.87479716647235,120.66249768480544,174.63215224572505,121.40364080709395,169.45027144230235,123.13684400409453C164.26839063887962,124.87004720109512,160.1472739527815,127.59531047280775,157.30660568590847,129.10929129944617C154.46593741903544,130.62327212608457,152.9057175713876,130.92597050764877,149.6085315779064,131.31118687470268C146.3113455844252,131.6964032417566,141.27719344511067,132.16413759430026,137.70311668956805,134.65911658496677C134.12903993402543,137.15409557563325,132.01503856225477,141.67631920442258,128.7780686689198,144.13861107007133C125.54109877558479,146.60090293572011,121.18116036068547,147.00326303822834,118.20948149439727,147.33138216918084C115.23780262810904,147.65950130013337,113.65438331043195,147.91337945953015,111.7481791334712,148.2509285700282C109.84197495651047,148.58847768052627,107.61298592026613,149.00969774212555,104.74327754008903,149.33051294768126C101.87356915991192,149.65132815323696,98.36314143580205,149.87173850274908,95.8267768969992,150.08208623248524C93.29041235819638,150.2924339622214,91.72811100470057,150.49271907218164,90.18234907920181,150.7311620262086C88.63658715370309,150.96960498023563,87.10736465620143,151.24620577832943,85.846497193422,151.4911671648822C84.58562973064254,151.73612855143497,83.59311730258531,151.94945052644678,81.29506188293453,152.2256069707589C78.99700646328374,152.501763415071,75.39340805203938,152.8407543286834,73.12112291747631,153.15511573774714C70.84883778291324,153.46947714681085,69.90786592503146,153.75920905132585,68.64645478535142,154.01381040024157C67.38504364567142,154.26841174915722,65.80319322419314,154.48788254247359,64.26038657098971,154.7461799864915C62.71757991778629,155.0044774305094,61.21381703285772,155.3016015252289,59.32390374588237,156.2165772378075C57.433990458907026,157.13155295038615,55.15792676988489,158.6643802808239,52.312718800891986,160.19813464962397C49.4675108318991,161.73188901842403,46.05315858293545,163.26657042558637,43.5804236585332,164.14062713656025C41.10768873413095,165.0146838475341,39.5765711342901,165.22811586231947,37.61016250740247,166.5542458362933C35.64375388051484,167.88037581026717,33.24205422658043,170.31920374342948,27.56720604377175,174.51264118730455C21.892357860963074,178.70607863117962,12.944361149280121,184.65412558576747,7.771330629117636,187.7376443307102C2.5983001089551494,190.8211630756529,1.2002357803131247,191.04015361095048,0.05513654670034551,191.32727010288497C-1.0899626869124337,191.6143865948194,-1.9820968254959677,191.9696290433907,-2.8786036797227794,192.2569856643345C-3.7751105339495905,192.54434228527836,-4.67599010381968,192.76381307859472,-5.969423812944153,193.10302984033237C-7.262857522068625,193.44224660206996,-8.948845370447481,193.90120933222886,-12.192929664367272,196.39762621390403C-15.437013958287062,198.89404309557924,-20.239194697747788,203.4279141287707,-23.4643435019015,205.85446292792426C-26.689492306055214,208.28101172707775,-28.337609174901917,208.60023829219332,-29.618495597842184,208.8695869714093C-30.89938202078245,209.13893565062526,-31.81303799781627,209.3584064439416,-34.68757733559571,210.23801131638575C-37.56211667337516,211.11761618882989,-42.397539371900216,212.65735514040185,-45.32182902948961,213.56103517738498C-48.24611868707899,214.4647152143681,-49.25927530373269,214.73233633676242,-50.49336667915833,215.13035450165634C-51.72745805458396,215.5283726665502,-53.18248418878154,216.0567878739437,-55.744083102584376,217.06749523931137C-58.305682016387216,218.07820260467906,-61.97385370979532,219.5712021280209,-64.26438697118589,220.60949606486284C-66.55492023257644,221.64779000170483,-67.46781506194945,222.23137835204696,-68.37041498086924,222.77377745490696C-69.27301489978903,223.316176557767,-70.16531990825563,223.81738641314487,-71.05758608265786,224.33675196248257C-71.94985225706012,224.85611751182023,-72.84207959739804,225.39363875511773,-79.1263468682915,226.57771672698118C-85.41061413918499,227.76179469884462,-97.08692134063399,229.59242939927404,-105.32466243279941,231.59826583885447C-113.56240352496481,233.60410227843497,-118.36157850784662,235.78514045716648,-124.25606827508511,236.98569564309557C-130.15055804232364,238.18625082902463,-137.14036259391887,238.40632302215124,-143.3612759722685,238.621802192832C-149.5821893506181,238.83728136351286,-155.03421155572212,239.0481675117479,-162.96893044394017,239.35909645484267C-170.9036493321582,239.6700253979375,-181.32106490349028,240.08099713589215,-188.00251533410596,241.30099643912504C-194.68396576472165,242.520995742358,-197.629451054621,244.5500226108693,-200.8610035959823,245.68058104352508C-204.09255613734362,246.81113947618095,-207.61017593016695,247.04322947298132,-211.08535397408673,249.7194421942285C-214.5605320180065,252.3956549154757,-217.99326831302278,257.51599036116966,-220.23723176447183,260.1504345969226C-222.48119521592085,262.7848788326755,-223.53638582380268,262.9334318584874,-227.54569535529558,263.12791163151013C-231.55500488678845,263.3223914045329,-238.51843334189246,263.5627979247665,-243.74398693405786,263.99336906372554C-248.9695405262233,264.4239402026845,-252.45721925545004,265.0446759603689,-255.97327015207455,268.7102326463713C-259.48932104869897,272.3757893323737,-263.0337441127212,279.0861669466942,-266.5506027578836,282.6815044552688C-270.06746140304614,286.2768419638433,-273.55675562934897,286.7571393666719,-276.8115348245845,287.1884420495854C-280.0663140198201,287.61974473249893,-283.0865781839884,288.0020526954974,-286.68078651847844,288.3029420736548C-290.2749948529684,288.6038314518122,-294.44314735778,288.82330224512856,-299.3073422145653,289.040201238017C-304.1715370713506,289.2571002309055,-309.73177428010956,289.4714274233661,-315.0116955623335,290.309494244536C-320.2916168445574,291.1475610657058,-325.2912222002462,292.609367515585,-330.1968374700432,293.4981208322791C-335.10245273984015,294.38687414897316,-339.9140779237453,294.70257433248213,-343.52038695267976,295.1882654205108C-347.12669598161415,295.6739565085395,-349.5276888555779,296.32963850108786,-357.8700333834158,301.9917820794069C-366.21237791125367,307.6539256577259,-380.4960740929658,318.32253082181546,-390.73118703271894,324.2599990678081C-400.9662999724721,330.1974673138008,-407.1528296702661,331.40379864169654,-418.42953434978534,333.8940929593522C-429.7062390293045,336.3843872770079,-446.07311869054894,340.1586445844234,-465.7741474289132,343.34945459137333C-485.47517616727737,346.5402645983233,-508.5103539827615,349.14762730480743,-520.0279428905036,350.4513086580495L-531.5455317982456,351.7549900112916" />
    
    <path stroke="darkorange" d="M877.8546052631579,348L874.3945410264683,345.06913211329294C870.9344767897791,342.138264226586,864.0143483164002,336.276528453172,858.7705465974074,332.82769590556444C853.5267448784144,329.37886335795685,849.9592699138075,328.3429340361558,844.9831319831918,326.32274442514444C840.006994052576,324.3025548141331,833.6221931559515,321.2981049139115,829.2618003824996,318.9369067749061C824.9014076090476,316.5757086359007,822.5654229587682,314.85776225811145,818.657990711632,312.64891745198537C814.750558464496,310.4400726458593,809.2716786205029,307.7403294113963,797.6549118064809,305.69423015200596C786.0381449924588,303.64813089261554,768.2834912084072,302.2556756082977,758.6261670113441,301.16052421056946C748.9688428142812,300.0653728128412,747.4088482042065,299.2675253017025,734.8413613609446,298.1480383189244C722.2738745176827,297.0285513361463,698.6988954412336,295.5874248817287,679.4325053176354,294.01812382413647C660.1661151940374,292.44882276654425,645.20831402329,290.7513471057775,634.8519494844872,289.5091568215726C624.4955849456843,288.2669665373678,618.740657038826,287.48006162972496,605.4344297898623,286.20599866737086C592.1282025408987,284.93193570501677,571.2706759498296,283.17071468795143,551.6772641705298,281.98234288457706C532.0838523912298,280.79397108120276,513.754555423699,280.1784484915195,489.68725361333185,278.0145602465343C465.61995180296464,275.8506720015492,435.81464514976125,272.1384181012622,408.35833726300524,270.0496638438307C380.9020293762492,267.96090958639917,355.7947202559405,267.49565497182317,338.4477348289798,265.43924121236586C321.10074940201906,263.3828274529086,311.51408766840626,259.7352545485701,305.9956708635215,257.0140960836623C300.47725405863685,254.29293761875454,299.02708218248017,252.4981935932775,297.78788412759553,250.70344956780045C296.5486860727108,248.90870554232345,295.520461839098,247.11396151684642,287.2348111617718,244.52851981695076C278.94916048444554,241.94307811705517,263.4060833634059,238.56693874274092,253.83650473469075,236.91512852763958C244.2669261059756,235.26331831253822,240.6708459695851,235.33583725664974,231.37937749255127,234.4808070057702C222.08790901551743,233.6257767548907,207.10105219784032,231.8431973090201,198.77483157351116,230.99197429297922C190.448610949182,230.14075127693835,188.7830265182008,230.2208846907272,184.82891184233657,229.70717543716432C180.87479716647235,229.19346618360137,174.63215224572505,228.08591426268677,169.45027144230235,226.39076192902584C164.26839063887962,224.69560959536489,160.1472739527815,222.4128568489576,157.30660568590847,220.76945730022476C154.46593741903544,219.1260577514919,152.9057175713876,218.12201140043354,149.6085315779064,217.1833376917483C146.3113455844252,216.24466398306308,141.27719344511067,215.37136291675105,137.70311668956805,213.62331363582632C134.12903993402543,211.87526435490153,132.01503856225477,209.2524668593641,128.7780686689198,207.65591608298675C125.54109877558479,206.05936530660938,121.18116036068547,205.48906124939217,118.20948149439727,205.0972348824636C115.23780262810904,204.70540851553508,113.65438331043195,204.4920598388953,111.7481791334712,204.05561404939456C109.84197495651047,203.61916825989388,107.61298592026613,202.9596253575323,104.74327754008903,202.52317956803157C101.87356915991192,202.08673377853088,98.36314143580205,201.87338510189105,95.8267768969992,201.6600364252512C93.29041235819638,201.44668774861142,91.72811100470057,201.2333390719716,90.18234907920181,200.61841559218217C88.63658715370309,200.00349211239276,87.10736465620143,198.9869938294537,85.846497193422,198.3720703496643C84.58562973064254,197.75714686987487,83.59311730258531,197.54379819323506,81.29506188293453,196.92887471344565C78.99700646328374,196.3139512336562,75.39340805203938,195.2974529507172,73.12112291747631,194.28095466777813C70.84883778291324,193.26445638483915,69.90786592503146,192.24795810190008,68.64645478535142,191.63303462211067C67.38504364567142,191.01811114232123,65.80319322419314,190.80476246568142,64.26038657098971,190.59141378904164C62.71757991778629,190.3780651124018,61.21381703285772,190.16471643576196,59.32390374588237,189.54979295597252C57.433990458907026,188.93486947618314,55.15792676988489,187.9183711932441,52.312718800891986,187.42451070558067C49.4675108318991,186.93065021791722,46.05315858293545,186.95942752552938,43.5804236585332,186.86714184101558C41.10768873413095,186.77485615650176,39.5765711342901,186.56150747986194,37.61016250740247,186.06381814388146C35.64375388051484,185.56612880790098,33.24205422658043,184.78409881257986,27.56720604377175,180.36333255352244C21.892357860963074,175.94256629446502,12.944361149280121,167.88306377167137,7.771330629117636,163.74663817195463C2.5983001089551494,159.61021257223788,1.2002357803131247,159.3968638955981,0.05513654670034551,159.18351521895826C-1.0899626869124337,158.97016654231845,-1.9820968254959677,158.75681786567864,-2.8786036797227794,158.54346918903883C-3.7751105339495905,158.33012051239902,-4.67599010381968,158.11677183575918,-5.969423812944153,157.58584074153694C-7.262857522068625,157.0549096473147,-8.948845370447481,156.20639613551006,-12.192929664367272,155.67546504128782C-15.437013958287062,155.14453394706558,-20.239194697747788,154.93118527042577,-23.4643435019015,154.39311749266236C-26.689492306055214,153.85504971489897,-28.337609174901917,152.99226283601195,-29.618495597842184,152.45419505824853C-30.89938202078245,151.9161272804851,-31.81303799781627,151.7027786038453,-34.68757733559571,150.91639621934033C-37.56211667337516,150.13001383483535,-42.397539371900216,148.77059774246518,-45.32182902948961,147.9842153579602C-48.24611868707899,147.19783297345523,-49.25927530373269,146.98448429681542,-50.49336667915833,146.19810191231042C-51.72745805458396,145.41171952780545,-53.18248418878154,144.05230343543528,-55.744083102584376,142.47004090111756C-58.305682016387216,140.88777836679984,-61.97385370979532,139.08266939053453,-64.26438697118589,136.94010723074868C-66.55492023257644,134.7975450709628,-67.46781506194945,132.3175297276563,-68.37041498086924,130.4041810510165C-69.27301489978903,128.4908323743767,-70.16531990825563,127.14415036440356,-71.05758608265786,125.79746835443039C-71.94985225706012,124.45078634445724,-72.84207959739804,123.10410433448408,-79.1263468682915,120.6240889911776C-85.41061413918499,118.14407364787111,-97.08692134063399,114.5307249712313,-105.32466243279941,112.05070962792483C-113.56240352496481,109.57069428461834,-118.36157850784662,108.22401227464519,-124.25606827508511,107.4439969313387C-130.15055804232364,106.66398158803223,-137.14036259391887,106.4506329113924,-143.3612759722685,106.23728423475261C-149.5821893506181,106.02393555811278,-155.03421155572212,105.81058688147296,-162.96893044394017,105.26462950918098C-170.9036493321582,104.71867213688898,-181.32106490349028,103.8401060689448,-188.00251533410596,102.18545304447889C-194.68396576472165,100.53080002001299,-197.629451054621,98.10006003902537,-200.8610035959823,96.77801571021162C-204.09255613734362,95.4559713813979,-207.61017593016695,95.24262270475809,-211.08535397408673,93.36623054985739C-214.5605320180065,91.48983839495672,-217.99326831302278,87.95040276179515,-220.23723176447183,86.07401060689445C-222.48119521592085,84.19761845199376,-223.53638582380268,83.98426977535395,-227.54569535529558,83.51143913756705C-231.55500488678845,83.03860849978015,-238.51843334189246,82.30629590084617,-243.74398693405786,81.83346526305927C-248.9695405262233,81.36063462527238,-252.45721925545004,81.14728594863256,-255.97327015207455,79.84883088901402C-259.48932104869897,78.55037582939548,-263.0337441127212,76.16681438679821,-266.5506027578836,74.86835932717968C-270.06746140304614,73.56990426756113,-273.55675562934897,73.3565555909213,-276.8115348245845,73.14320691428149C-280.0663140198201,72.92985823764168,-283.0865781839884,72.71650956100187,-286.68078651847844,72.50316088436206C-290.2749948529684,72.28981220772225,-294.44314735778,72.07646353108242,-299.3073422145653,71.8631148544426C-304.1715370713506,71.64976617780279,-309.73177428010956,71.43641750116296,-315.0116955623335,70.68051563303379C-320.2916168445574,69.92461376490462,-325.2912222002462,68.62615870528609,-330.1968374700432,67.8702568371569C-335.10245273984015,67.11435496902773,-339.9140779237453,66.90100629238792,-343.52038695267976,66.25011471938572C-347.12669598161415,65.59922314638352,-349.5276888555779,64.51078867701894,-357.8700333834158,59.47280032982318C-366.21237791125367,54.43481198262743,-380.4960740929658,45.44726975760051,-390.73118703271894,39.84646982254169C-400.9662999724721,34.24566988748287,-407.1528296702661,32.03161224239216,-418.42953434978534,29.136590400208206C-429.7062390293045,26.24156855802426,-446.07311869054894,22.665582518747083,-465.7741474289132,19.514171904045323C-485.47517616727737,16.362761289343567,-508.5103539827615,13.635926099217231,-520.0279428905036,12.272508504154063L-531.5455317982456,10.909090909090896" />
    <path stroke="orange" d="M877.8546052631579,355.00886342856074L874.3945410264683,352.7367091269802C870.9344767897791,350.4645548253996,864.0143483164002,345.9202462222386,858.7705465974074,343.1625657259263C853.5267448784144,340.40488522961414,849.9592699138075,339.4338328401507,844.9831319831918,338.0202031080802C840.006994052576,336.60657337600964,833.6221931559515,334.7503663013318,829.2618003824996,333.1250560529558C824.9014076090476,331.4997458045798,822.5654229587682,330.10533238250554,818.657990711632,328.55505304119276C814.750558464496,327.00477369988,809.2716786205029,325.29862843932875,797.6549118064809,323.88404623161165C786.0381449924588,322.46946402389455,768.2834912084072,321.3464448690117,758.6261670113441,320.21342487315695C748.9688428142812,319.0804048773022,747.4088482042065,317.93738404047554,734.8413613609446,315.90285554929125C722.2738745176827,313.86832705810707,698.6988954412336,310.9422909125653,679.4325053176354,308.29321519247077C660.1661151940374,305.64413947237625,645.20831402329,303.27202417772895,634.8519494844872,301.9186877925304C624.4955849456843,300.5653514073319,618.740657038826,300.2307939315821,605.4344297898623,298.85734130012185C592.1282025408987,297.4838886686617,571.2706759498296,295.071540881491,551.6772641705298,293.6165979669814C532.0838523912298,292.16165505247176,513.754555423699,291.6641170106232,489.68725361333185,288.55036011915075C465.61995180296464,285.43660322767823,435.81464514976125,279.7066274865818,408.35833726300524,276.5153195871878C380.9020293762492,273.32401168779364,355.7947202559405,272.6713716301019,338.4477348289798,270.8364712847741C321.10074940201906,269.00157093944637,311.51408766840626,265.98441030648274,305.9956708635215,264.1261676612901C300.47725405863685,262.2679250160975,299.02708218248017,261.56860035867584,297.78788412759553,261.00292804383224C296.5486860727108,260.43725572898865,295.520461839098,260.00523575672315,287.2348111617718,257.5169783937515C278.94916048444554,255.02872103077982,263.4060833634059,250.48422627710193,253.83650473469075,248.10643350549972C244.2669261059756,245.72864073389758,240.6708459695851,245.51754994437113,231.37937749255127,244.58256209646197C222.08790901551743,243.64757424855284,207.10105219784032,241.98868934226107,198.77483157351116,241.11738705603418C190.448610949182,240.24608476980723,188.7830265182008,240.16236510364513,184.82891184233657,239.74993370941988C180.87479716647235,239.33750231519457,174.63215224572505,238.59635919290608,169.45027144230235,236.8631559959055C164.26839063887962,235.12995279890492,160.1472739527815,232.40468952719223,157.30660568590847,230.89070870055386C154.46593741903544,229.37672787391543,152.9057175713876,229.07402949235123,149.6085315779064,228.6888131252973C146.3113455844252,228.3035967582434,141.27719344511067,227.83586240569971,137.70311668956805,225.34088341503323C134.12903993402543,222.84590442436675,132.01503856225477,218.32368079557742,128.7780686689198,215.86138892992867C125.54109877558479,213.39909706427989,121.18116036068547,212.9967369617717,118.20948149439727,212.66861783081916C115.23780262810904,212.34049869986666,113.65438331043195,212.08662054046985,111.7481791334712,211.7490714299718C109.84197495651047,211.41152231947376,107.61298592026613,210.99030225787442,104.74327754008903,210.66948705231871C101.87356915991192,210.34867184676304,98.36314143580205,210.12826149725092,95.8267768969992,209.91791376751476C93.29041235819638,209.70756603777855,91.72811100470057,209.50728092781836,90.18234907920181,209.26883797379136C88.63658715370309,209.03039501976437,87.10736465620143,208.75379422167057,85.846497193422,208.5088328351178C84.58562973064254,208.26387144856503,83.59311730258531,208.05054947355325,81.29506188293453,207.7743930292411C78.99700646328374,207.498236584929,75.39340805203938,207.1592456713166,73.12112291747631,206.84488426225286C70.84883778291324,206.53052285318913,69.90786592503146,206.24079094867412,68.64645478535142,205.98618959975843C67.38504364567142,205.73158825084275,65.80319322419314,205.51211745752641,64.26038657098971,205.2538200135085C62.71757991778629,204.9955225694906,61.21381703285772,204.6983984747711,59.32390374588237,203.78342276219246C57.433990458907026,202.86844704961382,55.15792676988489,201.33561971917607,52.312718800891986,199.80186535037603C49.4675108318991,198.26811098157597,46.05315858293545,196.73342957441358,43.5804236585332,195.85937286343975C41.10768873413095,194.98531615246588,39.5765711342901,194.77188413768053,37.61016250740247,193.4457541637067C35.64375388051484,192.11962418973283,33.24205422658043,189.68079625657052,27.56720604377175,185.48735881269545C21.892357860963074,181.29392136882038,12.944361149280121,175.34587441423253,7.771330629117636,172.2623556692898C2.5983001089551494,169.1788369243471,1.2002357803131247,168.9598463890495,0.05513654670034551,168.67272989711506C-1.0899626869124337,168.3856134051806,-1.9820968254959677,168.0303709566093,-2.8786036797227794,167.74301433566546C-3.7751105339495905,167.45565771472164,-4.67599010381968,167.23618692140528,-5.969423812944153,166.89697015966766C-7.262857522068625,166.55775339793001,-8.948845370447481,166.09879066777114,-12.192929664367272,163.60237378609594C-15.437013958287062,161.10595690442076,-20.239194697747788,156.5720858712293,-23.4643435019015,154.14553707207577C-26.689492306055214,151.71898827292225,-28.337609174901917,151.39976170780668,-29.618495597842184,151.13041302859074C-30.89938202078245,150.86106434937477,-31.81303799781627,150.6415935560584,-34.68757733559571,149.76198868361425C-37.56211667337516,148.88238381117006,-42.397539371900216,147.3426448595981,-45.32182902948961,146.438964822615C-48.24611868707899,145.53528478563186,-49.25927530373269,145.26766366323758,-50.49336667915833,144.8696454983437C-51.72745805458396,144.4716273334498,-53.18248418878154,143.9432121260563,-55.744083102584376,142.93250476068863C-58.305682016387216,141.92179739532097,-61.97385370979532,140.4287978719791,-64.26438697118589,139.3905039351371C-66.55492023257644,138.35220999829514,-67.46781506194945,137.76862164795304,-68.37041498086924,137.22622254509304C-69.27301489978903,136.68382344223303,-70.16531990825563,136.18261358685513,-71.05758608265786,135.66324803751746C-71.94985225706012,135.14388248817977,-72.84207959739804,134.60636124488227,-79.1263468682915,133.42228327301882C-85.41061413918499,132.23820530115538,-97.08692134063399,130.40757060072596,-105.32466243279941,128.4017341611455C-113.56240352496481,126.39589772156502,-118.36157850784662,124.21485954283351,-124.25606827508511,123.01430435690445C-130.15055804232364,121.81374917097538,-137.14036259391887,121.59367697784877,-143.3612759722685,121.37819780716796C-149.5821893506181,121.16271863648716,-155.03421155572212,120.95183248825214,-162.96893044394017,120.64090354515731C-170.9036493321582,120.32997460206248,-181.32106490349028,119.91900286410787,-188.00251533410596,118.69900356087491C-194.68396576472165,117.47900425764198,-197.629451054621,115.44997738913071,-200.8610035959823,114.31941895647488C-204.09255613734362,113.18886052381906,-207.61017593016695,112.95677052701869,-211.08535397408673,110.2805578057715C-214.5605320180065,107.60434508452435,-217.99326831302278,102.48400963883039,-220.23723176447183,99.84956540307746C-222.48119521592085,97.21512116732454,-223.53638582380268,97.06656814151263,-227.54569535529558,96.87208836848987C-231.55500488678845,96.6776085954671,-238.51843334189246,96.43720207523347,-243.74398693405786,96.00663093627448C-248.9695405262233,95.5760597973155,-252.45721925545004,94.95532403963114,-255.97327015207455,91.2897673536287C-259.48932104869897,87.62421066762629,-263.0337441127212,80.91383305330577,-266.5506027578836,77.31849554473125C-270.06746140304614,73.7231580361567,-273.55675562934897,73.24286063332814,-276.8115348245845,72.81155795041462C-280.0663140198201,72.38025526750111,-283.0865781839884,71.99794730450263,-286.68078651847844,71.69705792634522C-290.2749948529684,71.3961685481878,-294.44314735778,71.17669775487144,-299.3073422145653,70.95979876198298C-304.1715370713506,70.7428997690945,-309.73177428010956,70.52857257663392,-315.0116955623335,69.69050575546406C-320.2916168445574,68.8524389342942,-325.2912222002462,67.39063248441504,-330.1968374700432,66.50187916772096C-335.10245273984015,65.6131258510269,-339.9140779237453,65.29742566751791,-343.52038695267976,64.81173457948923C-347.12669598161415,64.32604349146051,-349.5276888555779,63.670361498912115,-357.8700333834158,58.00821792059312C-366.21237791125367,52.34607434227411,-380.4960740929658,41.677469178184495,-390.73118703271894,35.740000932191826C-400.9662999724721,29.80253268619916,-407.1528296702661,28.596201358303436,-418.42953434978534,26.10590704064778C-429.7062390293045,23.615612722992115,-446.07311869054894,19.841355415576523,-465.7741474289132,16.650545408626634C-485.47517616727737,13.45973540167675,-508.5103539827615,10.852372695192571,-520.0279428905036,9.548691341950484L-531.5455317982456,8.245009988708395" />
  </g>
  
  <g class="axis y" stroke="black" fill="none" stroke-dasharray="4 6" transform="translate(20, 80)">
    <path d="M 20,270 h900" />
      <g transform="translate(0, 270)">
      <text text-anchor="middle"
      fill="black"
      stroke="none"
      transform="translate(0, 3)">25%</text>
      <path d="M0,v-5 0" />
      </g><path d="M 20,180 h900" />
      <g transform="translate(0, 180)">
      <text text-anchor="middle"
      fill="black"
      stroke="none"
      transform="translate(0, 3)">50%</text>
      <path d="M0,v-5 0" />
      </g><path d="M 20,90 h900" />
      <g transform="translate(0, 90)">
      <text text-anchor="middle"
      fill="black"
      stroke="none"
      transform="translate(0, 3)">75%</text>
      <path d="M0,v-5 0" />
      </g><path d="M 20,0 h900" />
    <g transform="translate(0, 0)">
    <text text-anchor="middle"
    fill="black"
    stroke="none"
    transform="translate(0, 3)">100%</text>
    <path d="M0,v-5 0" />
    </g>
  </g>
  <g
    class="axis x"
    stroke="black" fill="none"
    transform="translate(20, 440)">
  
  <path d="M0,0 h900" />
  <g transform="translate(827, 0)">
      <text text-anchor="middle"
      fill="black"
      stroke="none"
      transform="translate(0, 12)">Oct</text>
      <path d="M0,0 v-5" />
    </g><g transform="translate(756, 0)">
      <text text-anchor="middle"
      fill="black"
      stroke="none"
      transform="translate(0, 12)">Sep</text>
      <path d="M0,0 v-5" />
    </g><g transform="translate(682, 0)">
      <text text-anchor="middle"
      fill="black"
      stroke="none"
      transform="translate(0, 12)">Aug</text>
      <path d="M0,0 v-5" />
    </g><g transform="translate(609, 0)">
      <text text-anchor="middle"
      fill="black"
      stroke="none"
      transform="translate(0, 12)">Jul</text>
      <path d="M0,0 v-5" />
    </g><g transform="translate(538, 0)">
      <text text-anchor="middle"
      fill="black"
      stroke="none"
      transform="translate(0, 12)">Jun</text>
      <path d="M0,0 v-5" />
    </g><g transform="translate(464, 0)">
      <text text-anchor="middle"
      fill="black"
      stroke="none"
      transform="translate(0, 12)">May</text>
      <path d="M0,0 v-5" />
    </g><g transform="translate(393, 0)">
      <text text-anchor="middle"
      fill="black"
      stroke="none"
      transform="translate(0, 12)">Apr</text>
      <path d="M0,0 v-5" />
    </g><g transform="translate(320, 0)">
      <text text-anchor="middle"
      fill="black"
      stroke="none"
      transform="translate(0, 12)">Mar</text>
      <path d="M0,0 v-5" />
    </g><g transform="translate(253, 0)">
      <text text-anchor="middle"
      fill="black"
      stroke="none"
      transform="translate(0, 12)">Feb</text>
      <path d="M0,0 v-5" />
    </g><g transform="translate(180, 0)">
      <text text-anchor="middle"
      fill="black"
      stroke="none"
      transform="translate(0, 12)">Jan ’22</text>
      <path d="M0,0 v-5" />
    </g><g transform="translate(107, 0)">
      <text text-anchor="middle"
      fill="black"
      stroke="none"
      transform="translate(0, 12)">Dec</text>
      <path d="M0,0 v-5" />
    </g><g transform="translate(36, 0)">
      <text text-anchor="middle"
      fill="black"
      stroke="none"
      transform="translate(0, 12)">Nov</text>
      <path d="M0,0 v-5" />
    </g><g transform="translate(-38, 0)">
      <text text-anchor="middle"
      fill="black"
      stroke="none"
      transform="translate(0, 12)">Oct</text>
      <path d="M0,0 v-5" />
    </g>
  
  </g>
  <g class="legend" transform="translate(20,10)">
    <rect width="18" height="18" style="fill: darkblue; stroke: darkblue;"></rect>
    <text x="22" y="14">TypeScript (by file number)</text>
  </g>
  <g class="legend" transform="translate(20,30)">
    <rect width="18" height="18" style="fill: blue; stroke: blue;"></rect>
    <text x="22" y="14">TypeScript (by file size)</text>
  </g>
  <g class="legend" transform="translate(260,10)">
    <rect width="18" height="18" style="fill: darkorange; stroke: darkorange;"></rect>
    <text x="22" y="14">JavaScript (by file number)</text>
  </g>
  <g class="legend" transform="translate(260,30)">
    <rect width="18" height="18" style="fill: orange; stroke: orange;"></rect>
    <text x="22" y="14">JavaScript (by file size)</text>
  </g>
  <g class="total" transform="translate(570,30)">
    <text x="22" y="14" font-size="35px">96.6% complete</text>
  </g>
</svg>