<svg xmlns="http://www.w3.org/2000/svg"
  viewBox="0 0 900 460"
  width="900"
  height="460">
  <style>
    text {
      font-family: "Courier New", Courier, monospace;
    }
    .legend {
      font-size: 12px;
    }
  </style>
  <g class="lines" fill="none" transform="translate(20, 80)">>
    <path stroke="darkblue" d="M856.578947368421,31.935483870967754L854.7963108956786,32.44842657342659C853.0136744229363,32.96136927588542,849.4484014774516,33.98725468080308,844.4744655659582,35.997400374930976C839.5005296544647,38.00754606905887,833.1179307769626,41.001952052397,828.7597400226327,43.35310627451896C824.4015492683029,45.70426049664092,822.0677666371457,47.41216295754671,818.1625364091318,49.61096384678936C814.2573061811178,51.80976473603201,808.7806283562472,54.49946405361151,797.1660635613474,56.53551939611847C785.5514987664474,58.57157473862542,767.7990470015183,59.95398610605983,758.1439248235774,61.03909358690464C748.4888026456365,62.12420106774945,746.931010054684,62.91200466200467,734.3657252305443,64.02144772789934C721.8004404064046,65.13089079379402,698.2276633490778,66.56197333132816,678.9634752446019,68.12123047203691C659.699287140126,69.68048761274567,644.7436879885009,71.36791935662903,634.3895254688204,72.60006572395042C624.0353629491397,73.8322120912718,618.2826370614035,74.60907308203122,604.978611831562,75.87309212750186C591.6745866017205,77.13711117297252,570.819262029774,78.88828827315443,551.2280522695962,80.06661615964532C531.6368425094186,81.2449440461362,513.3097475610099,81.85042271893606,489.244647769765,84.00426704703777C465.17954797852,86.15811137513947,435.37644334443877,89.860321358543,407.922337476805,91.93903169909106C380.4682316091712,94.01774203963912,355.36312450798465,94.47295273733171,338.0183411001462,96.51932257990553C320.67355769230767,98.56569242247939,311.0890979778171,102.20322140993447,305.57288319205463,104.91433595795881C300.05666840629215,107.62545050598312,298.6086985492578,109.41015061457672,297.3717025134953,111.1948507231703C296.1347064777328,112.97955083176389,295.1086842632422,114.76425094035748,286.82523560503824,117.33964872336968C278.54178694683424,119.91504650638184,263.00091184491674,123.28114196381263,253.4335352353239,124.92290826203055C243.866158625731,126.56467456024846,240.27228050846267,126.4821116992535,230.98301405055108,127.32709803324958C221.69374759263943,128.17208436724567,206.70909279408457,129.9446198962328,198.38507418887764,130.78579899539022C190.0610555836707,131.62697809454767,188.3976731718117,131.53680076387536,184.44576051506968,132.04046610055482C180.4938478583277,132.54413143723426,174.25340495670264,133.64163944126548,169.07372617240216,135.32674785804298C163.89404738810165,137.01185627482047,159.77513272112574,139.2845651043443,156.93666647337497,140.91792073619368C154.09820022562417,142.5512763680431,152.5401823970985,143.54527880221804,149.24519842273955,144.47390859401983C145.95021444838056,145.4025383858216,140.91826432818826,146.2657955352502,137.3463895917679,148.00380089929152C133.77451485534752,149.74180626333282,131.66271550269906,152.35455984198683,128.42794762848627,153.9410667014807C125.1931797542735,155.52757356097462,120.83544335849639,156.08783370130843,117.8659665113304,156.4696161513535C114.8964896641644,156.8513986013986,113.31527236560953,157.054703361155,111.41127020777104,157.48110523377224C109.50726804993252,157.9075071063895,107.28048103281039,158.55700609186763,104.41297467175549,158.9834079644849C101.54546831070063,159.4098098371022,98.03724260571299,159.61311459685854,95.50308008603237,159.81641935661492C92.96891756635176,160.0197241163713,91.40881823197817,160.22302887612767,89.86525832560166,160.82790843903365C88.32169841922514,161.43278800193966,86.7946779408457,162.43924236799523,85.53601249718848,163.04412193090118C84.27734705353126,163.6490014938072,83.28703664459626,163.85230625356357,80.9911832440677,164.45718581646955C78.69532984353913,165.06206537937553,75.093933451417,166.06851974543108,72.82385033597616,167.07497411148668C70.5537672205353,168.08142847754226,69.61499738177575,169.08788284359787,68.35578826121794,169.69276240650387C67.09657914066014,170.29764196940985,65.51693073830408,170.5009467291662,63.97632610422289,170.7042514889226C62.435721470141694,170.90755624867893,60.934160604335354,171.1108610084353,59.046449336482226,171.71574057134129C57.1587380686291,172.3206201342473,54.88487639872918,173.32707450030284,52.04187044885851,173.81089107108286C49.19886449898785,174.29470764186283,45.78671426914642,174.25588641736724,43.3161813638664,174.3381281849976C40.84564845858637,174.420369952628,39.31673287786774,174.62367471238437,37.35252627010234,175.1113201314814C35.388319662336926,175.59896555057844,32.98882202752474,176.3709516290161,27.316175863838282,180.7816739711901C21.643529700151817,185.19239631336404,12.697735007591087,193.2418549192743,7.526906506550827,197.36823660210757C2.356078005510567,201.49461828494088,0.9602156959907754,201.69792304469726,-0.18268151849977876,201.9012278044536C-1.3255787329903328,202.10453256421,-2.2155108524516494,202.30783732396637,-3.109815687556239,202.51114208372272C-4.004120522660828,202.71444684347912,-4.902798073408689,202.9177516032355,-6.194029763410936,203.43863878057425C-7.485261453413184,203.9595259579131,-9.169047282669817,204.7979955528343,-12.410929557467389,205.31888273017304C-15.652811832264959,205.83976990751185,-20.452790552603467,206.04307466726823,-23.675737337634956,206.5710985281482C-26.89868412266644,207.09912238902817,-28.544598972390915,207.95186535103173,-29.82328337620896,208.47988921191168C-31.101967780026996,209.00791307279167,-32.013421737938614,209.21121783254804,-34.88575905659583,209.9875563001696C-37.758096375253054,210.76389476779113,-42.59131705465588,212.1132669432778,-45.51340469312304,212.88960541089935C-48.435492331590204,213.6659438785209,-49.44644692912169,213.8692486382773,-50.678336285425125,214.6455871058988C-51.910225641728545,215.42192557352033,-53.36304975680389,216.77129774900706,-55.9224466514845,218.34351636644135C-58.481843546165116,219.9157349838756,-62.147813220450985,221.71080004325748,-64.43614446271933,223.84331828615993C-66.72447570498765,225.97583652906238,-67.63516851523843,228.4458079554854,-68.535566415036,230.34911271524174C-69.43596431483358,232.25241747499808,-70.32606730417794,233.58905556808782,-71.21613145945797,234.92569366117752C-72.106195614738,236.2623317542672,-72.9962209359537,237.59896984735693,-79.27828618772493,240.06894127377996C-85.56035143949619,242.538912700203,-97.23445662182299,246.1422174599594,-105.46999569486617,248.61218888638243C-113.70553476790936,251.08216031280548,-118.50250773166893,252.41879840589516,-124.39479547978522,253.18876983231817C-130.2870832279015,253.95874125874124,-137.27468576037452,254.1620460184976,-143.4933971196019,254.36535077825397C-149.71210847882932,254.56865553801035,-155.1619286648111,254.7719602977667,-163.0944455339069,255.30787375317527C-171.0269624030027,255.84378720858385,-181.44217595521255,256.71230935964456,-188.12142436670604,258.356918467227C-194.80067277819953,260.0015275748095,-197.74395604897663,262.4222236389137,-200.97330657121572,263.734224050844C-204.2026570934548,265.0462244627742,-207.71807486715588,265.2495292225306,-211.19105089195344,267.11587746054784C-214.66402691675103,268.9822256985651,-218.0945611926451,272.5116174148432,-220.3363226249719,274.3779656528605C-222.57808405729872,276.2443138908777,-223.6310726460583,276.44761865063407,-227.63818015842898,276.9104053715376C-231.6452876707996,277.373192092441,-238.60651410678142,278.0954607744916,-243.8298656798246,278.55824749539505C-249.05321725286777,279.02103421629846,-252.53869396297236,279.22433897605487,-256.0525428404746,280.51275011878994C-259.56639171797684,281.801161261525,-263.10861276287676,284.17467878723886,-266.623269388917,285.46308992997393C-270.13792601495726,286.751501072709,-273.6250182221379,286.9548058324654,-276.87759539825123,287.1581105922218C-280.1301725743646,287.36141535197817,-283.1482347194107,287.5647201117345,-286.7402410347784,287.7680248714909C-290.33224735014625,287.9713296312473,-294.4981978358356,288.1746343910036,-299.36019067349866,288.37793915076C-304.22218351116175,288.5812439105164,-309.78021870079846,288.7845486702727,-315.05793796390014,289.5304066215185C-320.33565722700183,290.2762645727642,-325.33306056356844,291.56467571549933,-330.2364738142432,292.31053366674513C-335.13988706491796,293.0563916179908,-339.94931022970087,293.25969637774716,-343.55341723951307,293.90054403386597C-347.15752424932526,294.5413916899847,-349.5563151041667,295.6197822424658,-357.89645761288244,300.64772667277816C-366.2366001215981,305.67567110309045,-380.51809428418807,314.65316941123393,-390.751005204819,320.24392542940933C-400.9839161254499,325.83468144758467,-407.1682438041217,328.03869517579193,-418.44274646451873,330.92367310109245C-429.7172491249157,333.80865102639297,-446.0819267670378,337.3745931487867,-465.78075348627976,340.515959846605C-485.47958020552187,343.6573265444233,-508.5125560018837,346.3741178176662,-520.0290439000647,347.7325134542877L-531.5455317982456,349.0909090909091" />
    <path stroke="blue" d="M856.578947368421,20.25527001795008L854.7963108956786,20.73731072627786C853.0136744229363,21.21935143460564,849.4484014774516,22.183432851261205,844.4744655659582,23.59009161052397C839.5005296544647,24.996750369786735,833.1179307769626,26.8459864716567,828.7597400226327,28.464325747224905C824.4015492683029,30.08266502279311,822.0677666371457,31.47010747205955,818.1625364091318,33.0134158405645C814.2573061811178,34.55672420906945,808.7806283562472,36.25589849681291,797.1660635613474,37.66350973172218C785.5514987664474,39.07112096663144,767.7990470015183,40.187169148706495,758.1439248235774,41.31321817175345C748.4888026456365,42.4392671948004,746.931010054684,43.575317058819245,734.3657252305443,45.60287457719566C721.8004404064046,47.630432095572075,698.2276633490778,50.54949726830608,678.9634752446019,53.1916020155928C659.699287140126,55.83370676287953,644.7436879885009,58.19885108471899,634.3895254688204,59.54521649710971C624.0353629491397,60.891581909500424,618.2826370614035,61.2191684124424,604.978611831562,62.58565007109481C591.6745866017205,63.952131729747215,570.819262029774,66.35750854411006,551.2280522695962,67.80548048581186C531.6368425094186,69.25345242751365,513.3097475610099,69.7440194965544,489.244647769765,72.85080541521909C465.17954797852,75.95759133388377,435.37644334443877,81.68059610217239,407.922337476805,84.86493302875868C380.4682316091712,88.04926995534497,355.36312450798465,88.69493904022893,338.0183411001462,90.52286841274883C320.67355769230767,92.35079778526874,311.0890979778171,95.36098744542458,305.57288319205463,97.21225911780942C300.05666840629215,99.06353079019425,298.6086985492578,99.7558844748081,297.3717025134953,100.31458581684383C296.1347064777328,100.87328715887959,295.1086842632422,101.29833615833728,286.82523560503824,103.77962254850115C278.54178694683424,106.26090893866503,263.00091184491674,110.79843271953511,253.4335352353239,113.16925451832947C243.866158625731,115.54007631712385,240.27228050846267,115.7441961338425,230.98301405055108,116.67221300894381C221.69374759263943,117.60022988404513,206.70909279408457,119.2521438175291,198.38507418887764,120.11647513094825C190.0610555836707,120.98080644436736,188.3976731718117,121.05755513772162,184.44576051506968,121.4630155591391C180.4938478583277,121.86847598055658,174.25340495670264,122.60264813003728,169.07372617240216,124.32888035423004C163.89404738810165,126.0551125784228,159.77513272112574,128.77340487732764,156.93666647337497,130.28041473115823C154.09820022562417,131.78742458498883,152.5401823970985,132.08315199374522,149.24519842273955,132.46139738799133C145.95021444838056,132.83964278223743,140.91826432818826,133.30040616197329,137.3463895917679,135.78841417983196C133.77451485534752,138.27642219769066,131.66271550269906,142.79167485367216,128.42794762848627,145.24699574651314C125.1931797542735,147.7023166393541,120.83544335849639,148.0977057690545,117.8659665113304,148.4188539271992C114.8964896641644,148.74000208534392,113.31527236560953,148.9869092719329,111.41127020777104,149.31748740962314C109.50726804993252,149.6480655473134,107.28048103281039,150.0623146361049,104.41297467175549,150.3761588688528C101.54546831070063,150.6900031016007,98.03724260571299,150.90344247830498,95.50308008603237,151.10681923523333C92.96891756635176,151.31019599216168,91.40881823197817,151.5035101293141,89.86525832560166,151.73498211053325C88.32169841922514,151.96645409175244,86.7946779408457,152.23608391703843,85.53601249718848,152.4740743307834C84.27734705353126,152.71206474452836,83.28703664459626,152.91841574673234,80.9911832440677,153.18760121823667C78.69532984353913,153.45678668974097,75.093933451417,153.78880663054557,72.82385033597616,154.0961970668015C70.5537672205353,154.40358750305737,69.61499738177575,154.68634843476457,68.35578826121794,154.93397881087245C67.09657914066014,155.18160918698032,65.51693073830408,155.39410900748888,63.97632610422289,155.645435478699C62.435721470141694,155.89676194990912,60.934160604335354,156.18691507182078,59.046449336482226,157.0949198115916C57.1587380686291,158.0029245513624,54.88487639872918,159.52878090899236,52.04187044885851,161.0555643049846C49.19886449898785,162.58234770097684,45.78671426914642,164.1100581353314,43.3161813638664,164.97714387349745C40.84564845858637,165.8442296116635,39.31673287786774,166.05069065364106,37.35252627010234,167.3698496548071C35.388319662336926,168.6890086559731,32.98882202752474,171.12086561632762,27.316175863838282,175.3073320873949C21.643529700151817,179.49379855846215,12.697735007591087,185.4348745402422,7.526906506550827,188.5114223123771C2.356078005510567,191.587970084512,0.9602156959907754,191.79998964700178,-0.18268151849977876,192.08013516612843C-1.3255787329903328,192.36028068525505,-2.2155108524516494,192.70855216101856,-3.109815687556239,192.98893780915458C-4.004120522660828,193.2693234572906,-4.902798073408689,193.48182327779918,-6.194029763410936,193.81406906672896C-7.485261453413184,194.14631485565874,-9.169047282669817,194.59830661300984,-12.410929557467389,197.0877525218772C-15.652811832264959,199.5771984307446,-20.452790552603467,204.1040984911283,-23.675737337634956,206.523676317474C-26.89868412266644,208.9432541438197,-28.544598972390915,209.25550973612746,-29.82328337620896,209.51788744253562C-31.101967780026996,209.78026514894376,-32.013421737938614,209.9927649694523,-34.88575905659583,210.8653988690887C-37.758096375253054,211.73803276872502,-42.59131705465588,213.27080074748918,-45.51340469312304,214.16750981166447C-48.435492331590204,215.06421887583983,-49.44644692912169,215.32486902542624,-50.678336285425125,215.71591621751236C-51.910225641728545,216.10696340959842,-53.36304975680389,216.6284076441841,-55.9224466514845,217.63214403674397C-58.481843546165116,218.63588042930385,-62.147813220450985,220.1219089798379,-64.43614446271933,221.1532319438721C-66.72447570498765,222.1845549079062,-67.63516851523843,222.76117228544055,-68.535566415036,223.2966004154927C-69.43596431483358,223.8320285455449,-70.32606730417794,224.326267428115,-71.21613145945797,224.83866200464482C-72.106195614738,225.35105658117473,-72.9962209359537,225.8816068516644,-79.27828618772493,227.05871385072007C-85.56035143949619,228.2358208497757,-97.23445662182299,230.05948457739728,-105.46999569486617,232.05835004416997C-113.70553476790936,234.05721551094265,-118.50250773166893,236.23128271686633,-124.39479547978522,237.4248669299876C-130.2870832279015,238.61845114310884,-137.27468576037452,238.83155236342768,-143.4933971196019,239.0400605613007C-149.71210847882932,239.24856875917365,-155.1619286648111,239.45248393460088,-163.0944455339069,239.75644190488788C-171.0269624030027,240.06039987517488,-181.44217595521255,240.46440064032166,-188.12142436670604,241.67742897074683C-194.80067277819953,242.89045730117195,-197.74395604897663,244.91251319687544,-200.97330657121572,246.03610065672345C-204.2026570934548,247.15968811657146,-207.71807486715588,247.38480714056402,-211.19105089195344,250.05404888900338C-214.66402691675103,252.72329063744277,-218.0945611926451,257.8366551103289,-220.3363226249719,260.46412837327404C-222.57808405729872,263.09160163621914,-223.6310726460583,263.2331836892232,-227.63818015842898,263.4206924894382C-231.6452876707996,263.6082012896531,-238.60651410678142,263.8416368370789,-243.8298656798246,264.2652370032301C-249.05321725286777,264.68883716938126,-252.53869396297236,265.30260195425785,-256.0525428404746,268.9611876674524C-259.56639171797684,272.6197733806471,-263.10861276287676,279.32318002215976,-266.623269388917,282.9115465579265C-270.13792601495726,286.49991309369324,-273.6250182221379,286.97323952371397,-276.87759539825123,287.3975712338197C-280.1301725743646,287.82190294392535,-283.1482347194107,288.197239934116,-286.7402410347784,288.4911583394657C-290.33224735014625,288.7850767448153,-294.4981978358356,288.99757656532387,-299.36019067349866,289.2075045854045C-304.22218351116175,289.41743260548515,-309.78021870079846,289.62478882513795,-315.05793796390014,290.45588467349995C-320.33565722700183,291.28698052186206,-325.33306056356844,292.74181599893336,-330.2364738142432,293.6235983428196C-335.13988706491796,294.5053806867059,-339.94931022970087,294.81410989740704,-343.55341723951307,295.2928300126279C-347.15752424932526,295.7715501278488,-349.5563151041667,296.42026114758943,-357.89645761288244,302.0754337531006C-366.2366001215981,307.7306063586118,-380.51809428418807,318.3922405498936,-390.751005204819,324.3227378230784C-400.9839161254499,330.25323509626327,-407.1682438041217,331.4525954513512,-418.44274646451873,333.935918796199C-429.7172491249157,336.4192421410469,-446.0819267670378,340.1865284756547,-465.78075348627976,343.3703675097968C-485.47958020552187,346.55420654393885,-508.5125560018837,349.1545982776152,-520.0290439000647,350.45479414445344L-531.5455317982456,351.7549900112916" />
    
    <path stroke="darkorange" d="M856.578947368421,328.0645161290323L854.7963108956786,327.55157342657344C853.0136744229363,327.0386307241146,849.4484014774516,326.01274531919694,844.4744655659582,324.0025996250691C839.5005296544647,321.9924539309411,833.1179307769626,318.998047947603,828.7597400226327,316.64689372548105C824.4015492683029,314.2957395033591,822.0677666371457,312.58783704245326,818.1625364091318,310.3890361532106C814.2573061811178,308.19023526396796,808.7806283562472,305.5005359463885,797.1660635613474,303.46448060388155C785.5514987664474,301.42842526137457,767.7990470015183,300.04601389394014,758.1439248235774,298.9609064130953C748.4888026456365,297.8757989322506,746.931010054684,297.0879953379953,734.3657252305443,295.97855227210067C721.8004404064046,294.869109206206,698.2276633490778,293.43802666867185,678.9634752446019,291.87876952796313C659.699287140126,290.3195123872543,644.7436879885009,288.63208064337095,634.3895254688204,287.3999342760496C624.0353629491397,286.16778790872814,618.2826370614035,285.3909269179688,604.978611831562,284.1269078724981C591.6745866017205,282.86288882702746,570.819262029774,281.11171172684556,551.2280522695962,279.9333838403547C531.6368425094186,278.7550559538638,513.3097475610099,278.14957728106396,489.244647769765,275.99573295296227C465.17954797852,273.8418886248606,435.37644334443877,270.139678641457,407.922337476805,268.06096830090894C380.4682316091712,265.98225796036087,355.36312450798465,265.5270472626683,338.0183411001462,263.4806774200945C320.67355769230767,261.4343075775206,311.0890979778171,257.7967785900655,305.57288319205463,255.08566404204123C300.05666840629215,252.37454949401686,298.6086985492578,250.58984938542326,297.3717025134953,248.80514927682972C296.1347064777328,247.02044916823613,295.1086842632422,245.23574905964256,286.82523560503824,242.66035127663034C278.54178694683424,240.08495349361817,263.00091184491674,236.71885803618738,253.4335352353239,235.07709173796948C243.866158625731,233.43532543975152,240.27228050846267,233.51788830074653,230.98301405055108,232.6729019667504C221.69374759263943,231.82791563275433,206.70909279408457,230.05538010376722,198.38507418887764,229.21420100460978C190.0610555836707,228.37302190545236,188.3976731718117,228.46319923612464,184.44576051506968,227.9595338994452C180.4938478583277,227.45586856276574,174.25340495670264,226.35836055873457,169.07372617240216,224.67325214195705C163.89404738810165,222.98814372517953,159.77513272112574,220.7154348956557,156.93666647337497,219.08207926380632C154.09820022562417,217.4487236319569,152.5401823970985,216.45472119778196,149.24519842273955,215.5260914059802C145.95021444838056,214.5974616141784,140.91826432818826,213.7342044647498,137.3463895917679,211.9961991007085C133.77451485534752,210.25819373666718,131.66271550269906,207.6454401580132,128.42794762848627,206.0589332985193C125.1931797542735,204.47242643902538,120.83544335849639,203.91216629869157,117.8659665113304,203.5303838486465C114.8964896641644,203.14860139860141,113.31527236560953,202.945296638845,111.41127020777104,202.51889476622776C109.50726804993252,202.0924928936105,107.28048103281039,201.44299390813237,104.41297467175549,201.01659203551512C101.54546831070063,200.5901901628978,98.03724260571299,200.38688540314146,95.50308008603237,200.18358064338508C92.96891756635176,199.9802758836287,91.40881823197817,199.77697112387236,89.86525832560166,199.17209156096635C88.32169841922514,198.5672119980604,86.7946779408457,197.5607576320048,85.53601249718848,196.95587806909882C84.27734705353126,196.3509985061928,83.28703664459626,196.14769374643643,80.9911832440677,195.54281418353048C78.69532984353913,194.93793462062447,75.093933451417,193.9314802545689,72.82385033597616,192.92502588851332C70.5537672205353,191.9185715224577,69.61499738177575,190.91211715640213,68.35578826121794,190.30723759349618C67.09657914066014,189.70235803059018,65.51693073830408,189.4990532708338,63.97632610422289,189.29574851107745C62.435721470141694,189.09244375132107,60.934160604335354,188.8891389915647,59.046449336482226,188.28425942865871C57.1587380686291,187.6793798657527,54.88487639872918,186.67292549969716,52.04187044885851,186.18910892891714C49.19886449898785,185.70529235813717,45.78671426914642,185.74411358263276,43.3161813638664,185.6618718150024C40.84564845858637,185.579630047372,39.31673287786774,185.37632528761563,37.35252627010234,184.8886798685186C35.388319662336926,184.40103444942156,32.98882202752474,183.6290483709839,27.316175863838282,179.2183260288099C21.643529700151817,174.80760368663596,12.697735007591087,166.75814508072574,7.526906506550827,162.63176339789246C2.356078005510567,158.50538171505914,0.9602156959907754,158.30207695530277,-0.18268151849977876,158.0987721955464C-1.3255787329903328,157.89546743579,-2.2155108524516494,157.69216267603363,-3.109815687556239,157.48885791627728C-4.004120522660828,157.2855531565209,-4.902798073408689,157.08224839676453,-6.194029763410936,156.56136121942575C-7.485261453413184,156.04047404208694,-9.169047282669817,155.20200444716573,-12.410929557467389,154.68111726982696C-15.652811832264959,154.16023009248815,-20.452790552603467,153.9569253327318,-23.675737337634956,153.42890147185184C-26.89868412266644,152.90087761097186,-28.544598972390915,152.04813464896827,-29.82328337620896,151.52011078808832C-31.101967780026996,150.99208692720833,-32.013421737938614,150.78878216745196,-34.88575905659583,150.0124436998304C-37.758096375253054,149.23610523220887,-42.59131705465588,147.8867330567222,-45.51340469312304,147.11039458910065C-48.435492331590204,146.3340561214791,-49.44644692912169,146.13075136172276,-50.678336285425125,145.35441289410122C-51.910225641728545,144.57807442647967,-53.36304975680389,143.22870225099294,-55.9224466514845,141.65648363355865C-58.481843546165116,140.08426501612436,-62.147813220450985,138.28919995674252,-64.43614446271933,136.15668171384007C-66.72447570498765,134.02416347093765,-67.63516851523843,131.55419204451462,-68.535566415036,129.65088728475826C-69.43596431483358,127.7475825250019,-70.32606730417794,126.41094443191218,-71.21613145945797,125.0743063388225C-72.106195614738,123.73766824573278,-72.9962209359537,122.40103015264306,-79.27828618772493,119.93105872622C-85.56035143949619,117.46108729979697,-97.23445662182299,113.8577825400406,-105.46999569486617,111.38781111361756C-113.70553476790936,108.91783968719453,-118.50250773166893,107.58120159410483,-124.39479547978522,106.8112301676818C-130.2870832279015,106.04125874125874,-137.27468576037452,105.83795398150238,-143.4933971196019,105.63464922174602C-149.71210847882932,105.43134446198962,-155.1619286648111,105.22803970223326,-163.0944455339069,104.69212624682473C-171.0269624030027,104.15621279141617,-181.44217595521255,103.28769064035544,-188.12142436670604,101.64308153277297C-194.80067277819953,99.99847242519051,-197.74395604897663,97.57777636108631,-200.97330657121572,96.26577594915602C-204.2026570934548,94.95377553722574,-207.71807486715588,94.75047077746937,-211.19105089195344,92.88412253945212C-214.66402691675103,91.01777430143488,-218.0945611926451,87.48838258515677,-220.3363226249719,85.62203434713952C-222.57808405729872,83.75568610912227,-223.6310726460583,83.55238134936589,-227.63818015842898,83.08959462846244C-231.6452876707996,82.62680790755898,-238.60651410678142,81.90453922550844,-243.8298656798246,81.44175250460499C-249.05321725286777,80.97896578370153,-252.53869396297236,80.77566102394515,-256.0525428404746,79.48724988121006C-259.56639171797684,78.19883873847496,-263.10861276287676,75.82532121276114,-266.623269388917,74.53691007002604C-270.13792601495726,73.24849892729094,-273.6250182221379,73.04519416753458,-276.87759539825123,72.8418894077782C-280.1301725743646,72.63858464802182,-283.1482347194107,72.43527988826544,-286.7402410347784,72.23197512850908C-290.33224735014625,72.02867036875271,-294.4981978358356,71.82536560899634,-299.36019067349866,71.62206084923996C-304.22218351116175,71.41875608948358,-309.78021870079846,71.21545132972722,-315.05793796390014,70.46959337848149C-320.33565722700183,69.72373542723575,-325.33306056356844,68.43532428450067,-330.2364738142432,67.68946633325494C-335.13988706491796,66.9436083820092,-339.94931022970087,66.74030362225284,-343.55341723951307,66.09945596613407C-347.15752424932526,65.45860831001532,-349.5563151041667,64.38021775753417,-357.89645761288244,59.352273327221866C-366.2366001215981,54.32432889690955,-380.51809428418807,45.346830588766075,-390.751005204819,39.756074570590705C-400.9839161254499,34.16531855241532,-407.1682438041217,31.961304824208053,-418.44274646451873,29.076326898907542C-429.7172491249157,26.191348973607038,-446.0819267670378,22.625406851213302,-465.78075348627976,19.48404015339499C-485.47958020552187,16.342673455576676,-508.5125560018837,13.625882182333788,-520.0290439000647,12.267486545712343L-531.5455317982456,10.909090909090896" />
    <path stroke="orange" d="M856.578947368421,339.74472998204993L854.7963108956786,339.2626892737222C853.0136744229363,338.78064856539436,849.4484014774516,337.81656714873884,844.4744655659582,336.409908389476C839.5005296544647,335.0032496302133,833.1179307769626,333.15401352834334,828.7597400226327,331.53567425277515C824.4015492683029,329.91733497720696,822.0677666371457,328.5298925279405,818.1625364091318,326.98658415943555C814.2573061811178,325.44327579093056,808.7806283562472,323.7441015031871,797.1660635613474,322.3364902682778C785.5514987664474,320.92887903336856,767.7990470015183,319.8128308512935,758.1439248235774,318.6867818282465C748.4888026456365,317.56073280519956,746.931010054684,316.4246829411807,734.3657252305443,314.3971254228043C721.8004404064046,312.3695679044279,698.2276633490778,309.4505027316939,678.9634752446019,306.80839798440724C659.699287140126,304.1662932371205,644.7436879885009,301.80114891528103,634.3895254688204,300.45478350289034C624.0353629491397,299.1084180904996,618.2826370614035,298.7808315875576,604.978611831562,297.4143499289052C591.6745866017205,296.04786827025276,570.819262029774,293.64249145588997,551.2280522695962,292.19451951418813C531.6368425094186,290.74654757248635,513.3097475610099,290.2559805034456,489.244647769765,287.1491945847809C465.17954797852,284.0424086661162,435.37644334443877,278.3194038978276,407.922337476805,275.1350669712413C380.4682316091712,271.950730044655,355.36312450798465,271.3050609597711,338.0183411001462,269.4771315872511C320.67355769230767,267.64920221473125,311.0890979778171,264.63901255457546,305.57288319205463,262.78774088219063C300.05666840629215,260.9364692098058,298.6086985492578,260.24411552519194,297.3717025134953,259.6854141831562C296.1347064777328,259.1267128411204,295.1086842632422,258.70166384166276,286.82523560503824,256.22037745149885C278.54178694683424,253.739091061335,263.00091184491674,249.2015672804649,253.4335352353239,246.83074548167053C243.866158625731,244.45992368287617,240.27228050846267,244.25580386615752,230.98301405055108,243.32778699105617C221.69374759263943,242.39977011595488,206.70909279408457,240.74785618247088,198.38507418887764,239.8835248690518C190.0610555836707,239.01919355563265,188.3976731718117,238.9424448622784,184.44576051506968,238.5369844408609C180.4938478583277,238.13152401944342,174.25340495670264,237.39735186996276,169.07372617240216,235.67111964576998C163.89404738810165,233.9448874215772,159.77513272112574,231.22659512267236,156.93666647337497,229.7195852688418C154.09820022562417,228.21257541501117,152.5401823970985,227.91684800625478,149.24519842273955,227.5386026120087C145.95021444838056,227.16035721776257,140.91826432818826,226.69959383802674,137.3463895917679,224.21158582016804C133.77451485534752,221.72357780230936,131.66271550269906,217.20832514632784,128.42794762848627,214.7530042534869C125.1931797542735,212.29768336064592,120.83544335849639,211.9022942309455,117.8659665113304,211.5811460728008C114.8964896641644,211.25999791465608,113.31527236560953,211.0130907280671,111.41127020777104,210.68251259037686C109.50726804993252,210.3519344526866,107.28048103281039,209.9376853638951,104.41297467175549,209.6238411311472C101.54546831070063,209.3099968983993,98.03724260571299,209.09655752169502,95.50308008603237,208.89318076476664C92.96891756635176,208.68980400783832,91.40881823197817,208.4964898706859,89.86525832560166,208.26501788946675C88.32169841922514,208.03354590824753,86.7946779408457,207.76391608296157,85.53601249718848,207.5259256692166C84.27734705353126,207.28793525547164,83.28703664459626,207.08158425326766,80.9911832440677,206.81239878176336C78.69532984353913,206.54321331025903,75.093933451417,206.21119336945443,72.82385033597616,205.90380293319853C70.5537672205353,205.59641249694263,69.61499738177575,205.31365156523543,68.35578826121794,205.06602118912755C67.09657914066014,204.81839081301965,65.51693073830408,204.60589099251112,63.97632610422289,204.354564521301C62.435721470141694,204.10323805009088,60.934160604335354,203.81308492817922,59.046449336482226,202.90508018840842C57.1587380686291,201.9970754486376,54.88487639872918,200.4712190910076,52.04187044885851,198.9444356950154C49.19886449898785,197.41765229902316,45.78671426914642,195.88994186466857,43.3161813638664,195.02285612650255C40.84564845858637,194.1557703883365,39.31673287786774,193.94930934635894,37.35252627010234,192.6301503451929C35.388319662336926,191.3109913440269,32.98882202752474,188.87913438367238,27.316175863838282,184.69266791260512C21.643529700151817,180.50620144153785,12.697735007591087,174.56512545975784,7.526906506550827,171.48857768762295C2.356078005510567,168.412029915488,0.9602156959907754,168.20001035299822,-0.18268151849977876,167.91986483387157C-1.3255787329903328,167.63971931474495,-2.2155108524516494,167.29144783898144,-3.109815687556239,167.01106219084542C-4.004120522660828,166.7306765427094,-4.902798073408689,166.51817672220085,-6.194029763410936,166.18593093327104C-7.485261453413184,165.8536851443412,-9.169047282669817,165.40169338699013,-12.410929557467389,162.91224747812277C-15.652811832264959,160.4228015692554,-20.452790552603467,155.8959015088717,-23.675737337634956,153.476323682526C-26.89868412266644,151.0567458561803,-28.544598972390915,150.74449026387254,-29.82328337620896,150.48211255746438C-31.101967780026996,150.21973485105624,-32.013421737938614,150.0072350305477,-34.88575905659583,149.1346011309113C-37.758096375253054,148.26196723127498,-42.59131705465588,146.72919925251082,-45.51340469312304,145.83249018833553C-48.435492331590204,144.9357811241602,-49.44644692912169,144.67513097457373,-50.678336285425125,144.28408378248764C-51.910225641728545,143.89303659040158,-53.36304975680389,143.37159235581586,-55.9224466514845,142.36785596325603C-58.481843546165116,141.36411957069615,-62.147813220450985,139.87809102016215,-64.43614446271933,138.84676805612796C-66.72447570498765,137.8154450920938,-67.63516851523843,137.23882771455948,-68.535566415036,136.70339958450728C-69.43596431483358,136.16797145445506,-70.32606730417794,135.67373257188498,-71.21613145945797,135.16133799535513C-72.106195614738,134.64894341882524,-72.9962209359537,134.11839314833557,-79.27828618772493,132.94128614927993C-85.56035143949619,131.7641791502243,-97.23445662182299,129.9405154226027,-105.46999569486617,127.94164995583003C-113.70553476790936,125.94278448905737,-118.50250773166893,123.76871728313365,-124.39479547978522,122.5751330700124C-130.2870832279015,121.38154885689114,-137.27468576037452,121.16844763657235,-143.4933971196019,120.95993943869935C-149.71210847882932,120.75143124082634,-155.1619286648111,120.54751606539917,-163.0944455339069,120.24355809511214C-171.0269624030027,119.93960012482513,-181.44217595521255,119.53559935967833,-188.12142436670604,118.3225710292532C-194.80067277819953,117.10954269882806,-197.74395604897663,115.08748680312459,-200.97330657121572,113.96389934327658C-204.2026570934548,112.84031188342856,-207.71807486715588,112.61519285943598,-211.19105089195344,109.94595111099663C-214.66402691675103,107.27670936255727,-218.0945611926451,102.16334488967112,-220.3363226249719,99.535871626726C-222.57808405729872,96.9083983637809,-223.6310726460583,96.7668163107768,-227.63818015842898,96.57930751056186C-231.6452876707996,96.39179871034689,-238.60651410678142,96.15836316292108,-243.8298656798246,95.7347629967699C-249.05321725286777,95.3111628306187,-252.53869396297236,94.69739804574219,-256.0525428404746,91.03881233254755C-259.56639171797684,87.38022661935292,-263.10861276287676,80.67681997784022,-266.623269388917,77.08845344207352C-270.13792601495726,73.50008690630678,-273.6250182221379,73.02676047628604,-276.87759539825123,72.60242876618034C-280.1301725743646,72.17809705607463,-283.1482347194107,71.80276006588396,-286.7402410347784,71.50884166053436C-290.33224735014625,71.21492325518474,-294.4981978358356,71.00242343467619,-299.36019067349866,70.79249541459554C-304.22218351116175,70.58256739451487,-309.78021870079846,70.3752111748621,-315.05793796390014,69.54411532650005C-320.33565722700183,68.713019478138,-325.33306056356844,67.25818400106665,-330.2364738142432,66.3764016571804C-335.13988706491796,65.49461931329414,-339.94931022970087,65.18589010259295,-343.55341723951307,64.70716998737207C-347.15752424932526,64.22844987215119,-349.5563151041667,63.57973885241059,-357.89645761288244,57.92456624689939C-366.2366001215981,52.269393641388184,-380.51809428418807,41.60775945010639,-390.751005204819,35.67726217692153C-400.9839161254499,29.746764903736675,-407.1682438041217,28.54740454864876,-418.44274646451873,26.064081203800914C-429.7172491249157,23.580757858953064,-446.0819267670378,19.813471524345285,-465.78075348627976,16.629632490203207C-485.47958020552187,13.445793456061132,-508.5125560018837,10.845401722384764,-520.0290439000647,9.545205855546579L-531.5455317982456,8.245009988708395" />
  </g>
  
  <g class="axis y" stroke="black" fill="none" stroke-dasharray="4 6" transform="translate(20, 80)">
    <path d="M 20,270 h900" />
      <g transform="translate(0, 270)">
      <text text-anchor="middle"
      fill="black"
      stroke="none"
      transform="translate(0, 3)">25%</text>
      <path d="M0,v-5 0" />
      </g><path d="M 20,180 h900" />
      <g transform="translate(0, 180)">
      <text text-anchor="middle"
      fill="black"
      stroke="none"
      transform="translate(0, 3)">50%</text>
      <path d="M0,v-5 0" />
      </g><path d="M 20,90 h900" />
      <g transform="translate(0, 90)">
      <text text-anchor="middle"
      fill="black"
      stroke="none"
      transform="translate(0, 3)">75%</text>
      <path d="M0,v-5 0" />
      </g><path d="M 20,0 h900" />
    <g transform="translate(0, 0)">
    <text text-anchor="middle"
    fill="black"
    stroke="none"
    transform="translate(0, 3)">100%</text>
    <path d="M0,v-5 0" />
    </g>
  </g>
  <g
    class="axis x"
    stroke="black" fill="none"
    transform="translate(20, 440)">
  
  <path d="M0,0 h900" />
  <g transform="translate(827, 0)">
      <text text-anchor="middle"
      fill="black"
      stroke="none"
      transform="translate(0, 12)">Oct</text>
      <path d="M0,0 v-5" />
    </g><g transform="translate(756, 0)">
      <text text-anchor="middle"
      fill="black"
      stroke="none"
      transform="translate(0, 12)">Sep</text>
      <path d="M0,0 v-5" />
    </g><g transform="translate(682, 0)">
      <text text-anchor="middle"
      fill="black"
      stroke="none"
      transform="translate(0, 12)">Aug</text>
      <path d="M0,0 v-5" />
    </g><g transform="translate(609, 0)">
      <text text-anchor="middle"
      fill="black"
      stroke="none"
      transform="translate(0, 12)">Jul</text>
      <path d="M0,0 v-5" />
    </g><g transform="translate(538, 0)">
      <text text-anchor="middle"
      fill="black"
      stroke="none"
      transform="translate(0, 12)">Jun</text>
      <path d="M0,0 v-5" />
    </g><g transform="translate(464, 0)">
      <text text-anchor="middle"
      fill="black"
      stroke="none"
      transform="translate(0, 12)">May</text>
      <path d="M0,0 v-5" />
    </g><g transform="translate(393, 0)">
      <text text-anchor="middle"
      fill="black"
      stroke="none"
      transform="translate(0, 12)">Apr</text>
      <path d="M0,0 v-5" />
    </g><g transform="translate(320, 0)">
      <text text-anchor="middle"
      fill="black"
      stroke="none"
      transform="translate(0, 12)">Mar</text>
      <path d="M0,0 v-5" />
    </g><g transform="translate(253, 0)">
      <text text-anchor="middle"
      fill="black"
      stroke="none"
      transform="translate(0, 12)">Feb</text>
      <path d="M0,0 v-5" />
    </g><g transform="translate(180, 0)">
      <text text-anchor="middle"
      fill="black"
      stroke="none"
      transform="translate(0, 12)">Jan ’22</text>
      <path d="M0,0 v-5" />
    </g><g transform="translate(107, 0)">
      <text text-anchor="middle"
      fill="black"
      stroke="none"
      transform="translate(0, 12)">Dec</text>
      <path d="M0,0 v-5" />
    </g><g transform="translate(36, 0)">
      <text text-anchor="middle"
      fill="black"
      stroke="none"
      transform="translate(0, 12)">Nov</text>
      <path d="M0,0 v-5" />
    </g><g transform="translate(-38, 0)">
      <text text-anchor="middle"
      fill="black"
      stroke="none"
      transform="translate(0, 12)">Oct</text>
      <path d="M0,0 v-5" />
    </g>
  
  </g>
  <g class="legend" transform="translate(20,10)">
    <rect width="18" height="18" style="fill: darkblue; stroke: darkblue;"></rect>
    <text x="22" y="14">TypeScript (by file number)</text>
  </g>
  <g class="legend" transform="translate(20,30)">
    <rect width="18" height="18" style="fill: blue; stroke: blue;"></rect>
    <text x="22" y="14">TypeScript (by file size)</text>
  </g>
  <g class="legend" transform="translate(260,10)">
    <rect width="18" height="18" style="fill: darkorange; stroke: darkorange;"></rect>
    <text x="22" y="14">JavaScript (by file number)</text>
  </g>
  <g class="legend" transform="translate(260,30)">
    <rect width="18" height="18" style="fill: orange; stroke: orange;"></rect>
    <text x="22" y="14">JavaScript (by file size)</text>
  </g>
  <g class="total" transform="translate(570,30)">
    <text x="22" y="14" font-size="35px">91.1% complete</text>
  </g>
</svg>