<svg xmlns="http://www.w3.org/2000/svg"
  viewBox="0 0 900 400"
  width="900"
  height="400">
  <style>
    text {
      font-family: "Courier New", Courier, monospace;
      font-size: 12px;
    }
  </style>
  <g class="lines" fill="none">
    <path stroke="darkblue" d="M830.3930921052631,137.38461538461542L823.0476098661367,138.3091122766123C815.7021276270102,139.2336091686092,801.0111631487574,141.08260295260297,792.9808348638525,141.9484982828876C784.9505065789473,142.81439361317226,783.5808144873903,142.69719048974773,779.9225921509502,143.20682129297228C776.2643698145102,143.71645209619683,770.3176172331872,144.85291682607044,765.4316287691886,146.60962643606516C760.54564030519,148.3663360460599,756.7204159585161,150.74329053617575,754.1756400310672,152.44537220652413C751.6308641036185,154.1474538768725,750.3665365953948,155.17466272745344,747.3652429413378,156.13286712219602C744.3639492872808,157.09107151693857,739.6256894873904,157.98027145584282,736.3475050712719,159.79281673239373C733.0693206551535,161.6053620089447,731.2512116228071,164.3412526231424,728.3101340688962,165.99388281155998C725.3690565149855,167.64651299997755,721.3050104395103,168.21588276261505,718.6292239126461,168.59685940772556C715.9534373857822,168.97783605283607,714.6659104075292,169.17041958041958,713.0555985699926,169.59849450491183C711.4452867324561,170.02656942940408,709.5121900356359,170.69013575080507,706.938373994883,171.1182106752973C704.36455795413,171.5462855997895,701.1500225694444,171.73886912737305,698.9095503700656,171.9314526549566C696.669078170687,172.1240361825401,695.4026691566155,172.31661971012363,694.1527995705409,172.93308775214288C692.9029299844664,173.5495557941621,691.6695998263889,174.58990835061704,690.7046247030336,175.20637639263623C689.7396495796784,175.82284443465548,689.0430294910453,176.015427962239,687.0408664108187,176.6318960042582C685.038703330592,177.24836404627743,681.7309972587719,178.28871660273236,679.754604463633,179.32906915918727C677.778211668494,180.36942171564218,677.1331321500364,181.40977427209714,676.1676133497806,182.02624231411633C675.2020945495248,182.64271035613558,673.9161364674707,182.83529388371912,672.6692221536914,183.02787741130263C671.4223078399123,183.22046093888616,670.214437294408,183.4130444664697,668.6204163468567,184.0295125084889C667.0263953993057,184.64598055050814,665.0462240497077,185.68633310696305,662.4969084201389,186.1750124350715C659.9475927905702,186.66369176317997,656.8291328810307,186.60069786294196,654.6522902960527,186.6654926766147C652.4754477110746,186.73028749028745,651.2402224506578,186.922871017871,649.5697061631944,187.4155919080919C647.8991898757309,187.90831279831278,645.7933825612207,188.70117105117103,640.4144267178362,193.33491758241757C635.0354708744517,197.9686641136641,626.383366502193,206.44329892329893,621.5062283214546,210.7769080919081C616.6290901407164,215.11051726051724,615.5269181514985,215.30310078810078,614.6777112573099,215.49568431568431C613.8285043631213,215.68826784326782,613.232262563962,215.88085137085136,612.6316480491595,216.0734348984349C612.0310335343568,216.2660184260184,611.4260463039109,216.45860195360194,610.4285049342105,216.98641136641132C609.4309635645103,217.51422077922075,608.0408680555555,218.37725607725608,605.09267610106,218.90506549006545C602.1444841465643,219.4328749028749,597.6381957465278,219.6254584304584,594.7089392817983,220.16080100922795C591.7796828170688,220.6961435879975,590.4274582876462,221.57424521795306,589.44246420413,222.10958779672262C588.457470120614,222.64493037549218,587.8397064830043,222.8375139030757,585.2610594846491,223.63496634451693C582.6824124862939,224.4324187859581,578.1428821271929,225.83474014125696,575.5144848090277,226.63219258269817C572.8860874908626,227.4296450241394,572.168823213633,227.62222855172294,571.2306241776315,228.41968099316412C570.2924251416301,229.21713343460533,569.1332913468567,230.61945478990424,566.8675847724779,232.25700294503667C564.6018781980994,233.8945511001691,561.2295988441155,235.76732605513507,559.2349579221491,237.99630159270612C557.2403170001827,240.22527713027714,556.6233145102339,242.81045325045326,556.0166069307382,244.79748122248122C555.4098993512426,246.78450919450918,554.8134866822003,248.17338901838903,554.2171128472223,249.56226884226885C553.6207390122441,250.95114866614867,553.0244040113304,252.34002849002852,547.0360290798611,254.92520461020464C541.0476541483919,257.51038073038075,529.6672392863669,261.29185314685316,521.7253905336257,263.8770292670293C513.7835417808844,266.4622053872054,509.28025913742687,267.85108521108526,503.68166170961257,268.6418168868169C498.0830642817982,269.43254856254856,491.3891520696272,269.6251320901321,485.46413103070176,269.81771561771563C479.53910999177634,270.01029914529914,474.38298012609647,270.2028826728827,466.7441535773026,270.746553156988C459.1053270285088,271.29022364109323,448.98380379660085,272.18498108172025,442.5982457054093,273.898941420898C436.2126876142178,275.6129017600757,433.5630946637427,278.14606499780416,430.62743446180554,279.50893838046017C427.69177425986845,280.8718117631161,424.4700468064693,281.0643952906997,421.2907611019737,283.0124136008919C418.11147539747805,284.9604319110841,414.97463144188595,288.663885003885,413.0265603298612,290.6119033140772C411.07848921783625,292.5599216242694,410.31919094937865,292.752505151853,406.6057737573099,293.21898630509173C402.89235656524124,293.68546745833055,396.2248204495614,294.42584623722456,391.2951591968201,294.8923273904633C386.3654979440789,295.3588085437022,383.1737115542763,295.55139207128565,379.95355299707603,296.88936566979123C376.73339443987567,298.2273392682967,373.48486371527775,300.7107029377242,370.26389740953954,302.0486765362297C367.0429311038012,303.38665013473525,363.8495292169225,303.5792336623188,360.8906423611111,303.7718171899023C357.9317555052997,303.96440071748583,355.20738368055555,304.1569842450694,351.9090676854898,304.3495677726529C348.61075169042397,304.5421513002364,344.7384915250365,304.73473482782,340.1701890076754,304.9273183554035C335.60188649031426,305.119901882987,330.3375416209795,305.31248541057056,325.3535126781798,306.07776397361505C320.36948373538013,306.84304253665954,315.66577071911547,308.18101613516507,311.05604778874266,308.94629469820956C306.4463248583699,309.71157326125405,301.9305920138889,309.9041567888376,298.62017532437864,310.5585911514703C295.3097586348684,311.21302551410304,293.2046581003289,312.32931071178496,285.1582059119152,317.61456944717753C277.1117537235014,322.8998281825701,263.12394988121343,332.35406045567333,253.1847292808845,338.23339808936583C243.24550868055556,344.1127357230583,237.3548713221857,346.41717871734,226.37405898209067,349.44041725299786C215.39324664199566,352.46365578865584,199.32225932017545,356.2056898656899,179.9171229212354,359.499560994561C160.5119865222953,362.7934321234322,137.77270104623537,365.6391403041403,126.4030583082054,367.0619943944944L115.03341557017544,368.4848484848485" />
    <path stroke="blue" d="M830.3930921052631,125.96507631815227L823.0476098661367,126.82698870732652C815.7021276270102,127.68890109650077,801.0111631487574,129.41272587484926,792.9808348638525,130.3052134431293C784.9505065789473,131.19770101140935,783.5808144873903,131.25885136962094,779.9225921509502,131.6669752185659C776.2643698145102,132.07509906751088,770.3176172331872,132.83019640718922,765.4316287691886,134.63246827017477C760.54564030519,136.4347401331603,756.7204159585161,139.28418651945302,754.1756400310672,140.85505699150076C751.6308641036185,142.42592746354845,750.3665365953948,142.71822202135115,747.3652429413378,143.0976188971708C744.3639492872808,143.47701577299043,739.6256894873904,143.943514966827,736.3475050712719,146.54988350090434C733.0693206551535,149.1562520349817,731.2512116228071,153.90248990929982,728.3101340688962,156.47435536696958C725.3690565149855,159.04622082463933,721.3050104395103,159.44371386566073,718.6292239126461,159.76284143670665C715.9534373857822,160.08196900775258,714.6659104075292,160.32273110882304,713.0555985699926,160.65181254716705C711.4452867324561,160.98089398551102,709.5121900356359,161.39829476112857,706.938373994883,161.70971263314453C704.36455795413,162.0211305051605,701.1500225694444,162.22656547357488,698.9095503700656,162.42137878778135C696.669078170687,162.6161921019878,695.4026691566155,162.8003837619863,694.1527995705409,163.02485314627754C692.9029299844664,163.24932253056872,691.6695998263889,163.51406963915267,690.7046247030336,163.74541959111C689.7396495796784,163.97676954306732,689.0430294910453,164.17472233839803,687.0408664108187,164.4390004068791C685.038703330592,164.70327847536012,681.7309972587719,165.03388181699154,679.754604463633,165.33848734826594C677.778211668494,165.64309287954038,677.1331321500364,165.9217006004578,676.1676133497806,166.16322606824266C675.2020945495248,166.40475153602748,673.9161364674707,166.60919475067968,672.6692221536914,166.85462165218357C671.4223078399123,167.10004855368743,670.214437294408,167.38645914204292,668.6204163468567,168.32504643813863C667.0263953993057,169.26363373423433,665.0462240497077,170.85439773807025,662.4969084201389,172.4461402823997C659.9475927905702,174.03788282672915,656.8291328810307,175.63060391155213,654.6522902960527,176.52599892817614C652.4754477110746,177.42139394480014,651.2402224506578,177.6194628932252,649.5697061631944,178.99204635412698C647.8991898757309,180.36462981502874,645.7933825612207,182.91172778840726,640.4144267178362,187.31091357864923C635.0354708744517,191.7100993688912,626.383366502193,197.96137297599662,621.5062283214546,201.18897791736558C616.6290901407164,204.41658285873447,615.5269181514985,204.62051913436687,614.6777112573099,204.89636614200484C613.8285043631213,205.17221314964283,613.232262563962,205.51997088928636,612.6316480491595,205.79607136643423C612.0310335343568,206.07217184358208,611.4260463039109,206.27661505823434,610.4285049342105,206.607456795109C609.4309635645103,206.93829853198363,608.0408680555555,207.39553879108075,605.09267610106,210.00342509900057C602.1444841465643,212.61131140692046,597.6381957465278,217.36984376366308,594.7089392817983,219.9039804289212C591.7796828170688,222.43811709417932,590.4274582876462,222.74785806795288,589.44246420413,223.00495016216578C588.457470120614,223.26204225637866,587.8397064830043,223.46648547103086,585.2610594846491,224.36773688031795C582.6824124862939,225.2689882896051,578.1428821271929,226.86704789352711,575.5144848090277,227.79371197649425C572.8860874908626,228.7203760594614,572.168823213633,228.9756446214736,571.2306241776315,229.36855450612435C570.2924251416301,229.76146439077505,569.1332913468567,230.29201559806424,566.8675847724779,231.33165297210394C564.6018781980994,232.37129034614364,561.2295988441155,233.92001388693384,559.2349579221491,234.988770419752C557.2403170001827,236.05752695257016,556.6233145102339,236.6463164774162,556.0166069307382,237.1916284632534C555.4098993512426,237.73694044909055,554.8134866822003,238.23877489591882,554.2171128472223,238.75977368637132C553.6207390122441,239.2807724768238,553.0244040113304,239.8209356109006,547.0360290798611,241.04357529179694C541.0476541483919,242.2662149726933,529.6672392863669,244.1713312004093,521.7253905336257,246.26138259722916C513.7835417808844,248.35143399404902,509.28025913742687,250.6264205599728,503.68166170961257,251.86645285571618C498.0830642817982,253.10648515145962,491.3891520696272,253.31156317702266,485.46413103070176,253.51179301222624C479.53910999177634,253.7120228474298,474.38298012609647,253.9074044922739,466.7441535773026,254.20838686502563C459.1053270285088,254.50936923777726,448.98380379660085,254.91595233843654,442.5982457054093,256.17650898022293C436.2126876142178,257.43706562200936,433.5630946637427,259.5515958049228,430.62743446180554,260.71774263887784C427.69177425986845,261.8838894728328,424.4700468064693,262.10165295782923,421.2907611019737,264.8993237630751C418.11147539747805,267.6969945683209,414.97463144188595,273.07457269381615,413.0265603298612,275.8281545421514C411.07848921783625,278.5817363904867,410.31919094937865,278.71132196166195,406.6057737573099,278.8893857660043C402.89235656524124,279.0674495703466,396.2248204495614,279.2939916078559,391.2951591968201,279.72126296513085C386.3654979440789,280.14853432240585,383.1737115542763,280.77653499944654,379.95355299707603,284.61851332304514C376.73339443987567,288.4604916466438,373.48486371527775,295.51644761680035,370.26389740953954,299.28430569755847C367.0429311038012,303.05216377831647,363.8495292169225,303.53192396967603,360.8906423611111,303.95996751223635C357.9317555052997,304.3880110547966,355.20738368055555,304.76433794855774,351.9090676854898,305.0547230027644C348.61075169042397,305.345108056971,344.7384915250365,305.5495512716232,340.1701890076754,305.75127980804604C335.60188649031426,305.9530083444688,330.3375416209795,306.1520222026621,325.3535126781798,307.0094278911597C320.36948373538013,307.8668335796573,315.66577071911547,309.3826310984591,311.05604778874266,310.29353919889894C306.4463248583699,311.2044472993387,301.9305920138889,311.5104659814165,298.62017532437864,311.9959195071539C295.3097586348684,312.4813730328914,293.2046581003289,313.14626140228853,285.1582059119152,319.0957481122213C277.1117537235014,325.0452348221541,263.12394988121343,336.27931987262247,253.1847292808845,342.5194270650997C243.24550868055556,348.7595342575769,237.3548713221857,350.00566359206294,226.37405898209067,352.60708719351777C215.39324664199566,355.2085107949725,199.32225932017545,359.16522866339614,179.9171229212354,362.5060854924393C160.5119865222953,365.8469423214824,137.77270104623537,368.57193811114513,126.4030583082054,369.93443600597647L115.03341557017544,371.2969339008078" />
    
    <path stroke="darkorange" d="M830.3930921052631,242.61538461538458L823.0476098661367,241.6908877233877C815.7021276270102,240.76639083139082,801.0111631487574,238.91739704739703,792.9808348638525,238.05150171711242C784.9505065789473,237.18560638682777,783.5808144873903,237.30280951025227,779.9225921509502,236.79317870702775C776.2643698145102,236.28354790380317,770.3176172331872,235.14708317392956,765.4316287691886,233.39037356393484C760.54564030519,231.6336639539401,756.7204159585161,229.2567094638243,754.1756400310672,227.5546277934759C751.6308641036185,225.85254612312755,750.3665365953948,224.8253372725466,747.3652429413378,223.867132877804C744.3639492872808,222.90892848306143,739.6256894873904,222.01972854415723,736.3475050712719,220.20718326760627C733.0693206551535,218.39463799105533,731.2512116228071,215.65874737685763,728.3101340688962,214.00611718844002C725.3690565149855,212.35348700002245,721.3050104395103,211.78411723738495,718.6292239126461,211.40314059227444C715.9534373857822,211.02216394716393,714.6659104075292,210.82958041958042,713.0555985699926,210.40150549508817C711.4452867324561,209.97343057059592,709.5121900356359,209.30986424919493,706.938373994883,208.88178932470274C704.36455795413,208.4537144002105,701.1500225694444,208.26113087262695,698.9095503700656,208.0685473450434C696.669078170687,207.87596381745985,695.4026691566155,207.68338028987634,694.1527995705409,207.06691224785712C692.9029299844664,206.4504442058379,691.6695998263889,205.41009164938296,690.7046247030336,204.79362360736377C689.7396495796784,204.17715556534452,689.0430294910453,203.984572037761,687.0408664108187,203.3681039957418C685.038703330592,202.75163595372257,681.7309972587719,201.71128339726764,679.754604463633,200.67093084081273C677.778211668494,199.63057828435777,677.1331321500364,198.59022572790286,676.1676133497806,197.9737576858836C675.2020945495248,197.3572896438644,673.9161364674707,197.16470611628088,672.6692221536914,196.97212258869732C671.4223078399123,196.77953906111384,670.214437294408,196.58695553353027,668.6204163468567,195.97048749151108C667.0263953993057,195.35401944949186,665.0462240497077,194.31366689303695,662.4969084201389,193.82498756492848C659.9475927905702,193.33630823682003,656.8291328810307,193.39930213705802,654.6522902960527,193.33450732338528C652.4754477110746,193.2697125097125,651.2402224506578,193.07712898212898,649.5697061631944,192.5844080919081C647.8991898757309,192.09168720168722,645.7933825612207,191.29882894882894,640.4144267178362,186.66508241758243C635.0354708744517,182.0313358863359,626.383366502193,173.55670107670107,621.5062283214546,169.2230919080919C616.6290901407164,164.88948273948276,615.5269181514985,164.69689921189922,614.6777112573099,164.50431568431569C613.8285043631213,164.31173215673218,613.232262563962,164.11914862914864,612.6316480491595,163.9265651015651C612.0310335343568,163.7339815739816,611.4260463039109,163.54139804639806,610.4285049342105,163.01358863358863C609.4309635645103,162.48577922077922,608.0408680555555,161.62274392274392,605.09267610106,161.09493450993452C602.1444841465643,160.56712509712509,597.6381957465278,160.37454156954155,594.7089392817983,159.83919899077202C591.7796828170688,159.30385641200246,590.4274582876462,158.42575478204688,589.44246420413,157.89041220327735C588.457470120614,157.3550696245078,587.8397064830043,157.16248609692425,585.2610594846491,156.36503365548307C582.6824124862939,155.56758121404187,578.1428821271929,154.16525985874298,575.5144848090277,153.3678074173018C572.8860874908626,152.57035497586057,572.168823213633,152.37777144827706,571.2306241776315,151.58031900683582C570.2924251416301,150.78286656539464,569.1332913468567,149.38054521009576,566.8675847724779,147.74299705496333C564.6018781980994,146.10544889983092,561.2295988441155,144.23267394486493,559.2349579221491,142.00369840729388C557.2403170001827,139.77472286972286,556.6233145102339,137.18954674954674,556.0166069307382,135.20251877751878C555.4098993512426,133.21549080549082,554.8134866822003,131.826610981611,554.2171128472223,130.43773115773118C553.6207390122441,129.04885133385133,553.0244040113304,127.6599715099715,547.0360290798611,125.07479538979538C541.0476541483919,122.48961926961925,529.6672392863669,118.70814685314686,521.7253905336257,116.12297073297073C513.7835417808844,113.53779461279463,509.28025913742687,112.1489147889148,503.68166170961257,111.35818311318313C498.0830642817982,110.56745143745145,491.3891520696272,110.37486790986793,485.46413103070176,110.18228438228438C479.53910999177634,109.98970085470086,474.38298012609647,109.79711732711733,466.7441535773026,109.25344684301206C459.1053270285088,108.70977635890678,448.98380379660085,107.81501891827976,442.5982457054093,106.10105857910203C436.2126876142178,104.3870982399243,433.5630946637427,101.85393500219585,430.62743446180554,100.49106161953988C427.69177425986845,99.12818823688389,424.4700468064693,98.93560470930036,421.2907611019737,96.98758639910812C418.11147539747805,95.03956808891591,414.97463144188595,91.33611499611499,413.0265603298612,89.38809668592275C411.07848921783625,87.44007837573054,410.31919094937865,87.24749484814701,406.6057737573099,86.78101369490821C402.89235656524124,86.31453254166945,396.2248204495614,85.5741537627754,391.2951591968201,85.10767260953662C386.3654979440789,84.64119145629785,383.1737115542763,84.44860792871431,379.95355299707603,83.1106343302088C376.73339443987567,81.77266073170328,373.48486371527775,79.28929706227578,370.26389740953954,77.95132346377027C367.0429311038012,76.61334986526475,363.8495292169225,76.42076633768123,360.8906423611111,76.22818281009769C357.9317555052997,76.03559928251417,355.20738368055555,75.84301575493065,351.9090676854898,75.65043222734711C348.61075169042397,75.45784869976359,344.7384915250365,75.26526517218007,340.1701890076754,75.07268164459653C335.60188649031426,74.880098117013,330.3375416209795,74.68751458942948,325.3535126781798,73.92223602638495C320.36948373538013,73.15695746334045,315.66577071911547,71.81898386483493,311.05604778874266,71.0537053017904C306.4463248583699,70.2884267387459,301.9305920138889,70.09584321116238,298.62017532437864,69.44140884852965C295.3097586348684,68.78697448589693,293.2046581003289,67.67068928821503,285.1582059119152,62.38543055282245C277.1117537235014,57.10017181742989,263.12394988121343,47.645939544326644,253.1847292808845,41.76660191063417C243.24550868055556,35.8872642769417,237.3548713221857,33.58282128266,226.37405898209067,30.559582747002107C215.39324664199566,27.536344211344215,199.32225932017545,23.79431013431014,179.9171229212354,20.50043900543901C160.5119865222953,17.206567876567878,137.77270104623537,14.360859695859693,126.4030583082054,12.938005605505596L115.03341557017544,11.515151515151503" />
    <path stroke="orange" d="M830.3930921052631,254.03492368184774L823.0476098661367,253.17301129267352C815.7021276270102,252.31109890349924,801.0111631487574,250.58727412515077,792.9808348638525,249.6947865568707C784.9505065789473,248.80229898859068,783.5808144873903,248.74114863037912,779.9225921509502,248.33302478143412C776.2643698145102,247.92490093248912,770.3176172331872,247.16980359281078,765.4316287691886,245.36753172982526C760.54564030519,243.5652598668397,756.7204159585161,240.71581348054698,754.1756400310672,239.14494300849927C751.6308641036185,237.57407253645155,750.3665365953948,237.28177797864888,747.3652429413378,236.90238110282925C744.3639492872808,236.5229842270096,739.6256894873904,236.056485033173,736.3475050712719,233.45011649909566C733.0693206551535,230.8437479650183,731.2512116228071,226.09751009070018,728.3101340688962,223.52564463303042C725.3690565149855,220.95377917536067,721.3050104395103,220.55628613433927,718.6292239126461,220.23715856329332C715.9534373857822,219.91803099224742,714.6659104075292,219.67726889117696,713.0555985699926,219.348187452833C711.4452867324561,219.01910601448898,709.5121900356359,218.60170523887146,706.938373994883,218.2902873668555C704.36455795413,217.9788694948395,701.1500225694444,217.77343452642512,698.9095503700656,217.57862121221865C696.669078170687,217.38380789801218,695.4026691566155,217.1996162380137,694.1527995705409,216.97514685372252C692.9029299844664,216.75067746943128,691.6695998263889,216.4859303608474,690.7046247030336,216.25458040889C689.7396495796784,216.02323045693274,689.0430294910453,215.82527766160203,687.0408664108187,215.56099959312095C685.038703330592,215.2967215246399,681.7309972587719,214.9661181830085,679.754604463633,214.66151265173403C677.778211668494,214.35690712045962,677.1331321500364,214.07829939954217,676.1676133497806,213.83677393175734C675.2020945495248,213.59524846397252,673.9161364674707,213.39080524932032,672.6692221536914,213.14537834781643C671.4223078399123,212.89995144631257,670.214437294408,212.6135408579571,668.6204163468567,211.67495356186137C667.0263953993057,210.73636626576567,665.0462240497077,209.14560226192975,662.4969084201389,207.5538597176003C659.9475927905702,205.96211717327085,656.8291328810307,204.36939608844787,654.6522902960527,203.47400107182386C652.4754477110746,202.57860605519986,651.2402224506578,202.3805371067748,649.5697061631944,201.00795364587302C647.8991898757309,199.63537018497126,645.7933825612207,197.08827221159277,640.4144267178362,192.6890864213508C635.0354708744517,188.2899006311088,626.383366502193,182.03862702400338,621.5062283214546,178.81102208263442C616.6290901407164,175.5834171412655,615.5269181514985,175.3794808656331,614.6777112573099,175.1036338579951C613.8285043631213,174.82778685035717,613.232262563962,174.48002911071364,612.6316480491595,174.20392863356577C612.0310335343568,173.92782815641792,611.4260463039109,173.72338494176572,610.4285049342105,173.39254320489104C609.4309635645103,173.06170146801637,608.0408680555555,172.60446120891925,605.09267610106,169.9965749009994C602.1444841465643,167.38868859307954,597.6381957465278,162.6301562363369,594.7089392817983,160.0960195710788C591.7796828170688,157.56188290582068,590.4274582876462,157.25214193204712,589.44246420413,156.99504983783422C588.457470120614,156.73795774362134,587.8397064830043,156.5335145289691,585.2610594846491,155.632263119682C582.6824124862939,154.73101171039488,578.1428821271929,153.13295210647289,575.5144848090277,152.20628802350575C572.8860874908626,151.2796239405386,572.168823213633,151.02435537852637,571.2306241776315,150.63144549387565C570.2924251416301,150.23853560922493,569.1332913468567,149.70798440193573,566.8675847724779,148.66834702789603C564.6018781980994,147.62870965385633,561.2295988441155,146.07998611306613,559.2349579221491,145.01122958024797C557.2403170001827,143.94247304742984,556.6233145102339,143.35368352258374,556.0166069307382,142.80837153674656C555.4098993512426,142.2630595509094,554.8134866822003,141.76122510408115,554.2171128472223,141.24022631362865C553.6207390122441,140.71922752317616,553.0244040113304,140.1790643890994,547.0360290798611,138.95642470820306C541.0476541483919,137.7337850273067,529.6672392863669,135.8286687995907,521.7253905336257,133.73861740277084C513.7835417808844,131.64856600595095,509.28025913742687,129.3735794400272,503.68166170961257,128.1335471442838C498.0830642817982,126.89351484854039,491.3891520696272,126.68843682297735,485.46413103070176,126.48820698777378C479.53910999177634,126.2879771525702,474.38298012609647,126.0925955077261,466.7441535773026,125.79161313497438C459.1053270285088,125.4906307622227,448.98380379660085,125.08404766156343,442.5982457054093,123.82349101977707C436.2126876142178,122.56293437799066,433.5630946637427,120.44840419507717,430.62743446180554,119.28225736112218C427.69177425986845,118.11611052716722,424.4700468064693,117.89834704217076,421.2907611019737,115.10067623692491C418.11147539747805,112.30300543167907,414.97463144188595,106.92542730618383,413.0265603298612,104.17184545784858C411.07848921783625,101.41826360951332,410.31919094937865,101.28867803833806,406.6057737573099,101.11061423399576C402.89235656524124,100.93255042965346,396.2248204495614,100.70600839214411,391.2951591968201,100.27873703486914C386.3654979440789,99.85146567759413,383.1737115542763,99.2234650005535,379.95355299707603,95.38148667695486C376.73339443987567,91.53950835335625,373.48486371527775,84.48355238319967,370.26389740953954,80.7156943024416C367.0429311038012,76.94783622168354,363.8495292169225,76.46807603032401,360.8906423611111,76.0400324877637C357.9317555052997,75.61198894520338,355.20738368055555,75.23566205144228,351.9090676854898,74.94527699723561C348.61075169042397,74.65489194302896,344.7384915250365,74.45044872837674,340.1701890076754,74.24872019195398C335.60188649031426,74.0469916555312,330.3375416209795,73.84797779733786,325.3535126781798,72.99057210884028C320.36948373538013,72.1331664203427,315.66577071911547,70.61736890154089,311.05604778874266,69.70646080110109C306.4463248583699,68.79555270066129,301.9305920138889,68.48953401858353,298.62017532437864,68.00408049284607C295.3097586348684,67.51862696710862,293.2046581003289,66.85373859771148,285.1582059119152,60.904251887778706C277.1117537235014,54.95476517784592,263.12394988121343,43.7206801273775,253.1847292808845,37.480572934900295C243.24550868055556,31.240465742423098,237.3548713221857,29.994336407937112,226.37405898209067,27.392912806482304C215.39324664199566,24.7914892050275,199.32225932017545,20.83477133660388,179.9171229212354,17.493914507560724C160.5119865222953,14.15305767851757,137.77270104623537,11.428061888854884,126.4030583082054,10.065563994023542L115.03341557017544,8.703066099192199" />
  </g>
  
  <g class="axis y" stroke="black" fill="none" stroke-dasharray="4 6">
    <path d="M 0,285 h900" /><path d="M 0,190 h900" /><path d="M 0,95 h900" />
  </g>
  <g
    class="axis x"
    stroke="black" fill="none"
    transform="translate(0, 380)">
  
  <path d="M0,0 h900" />
  <g transform="translate(842, 0)">
      <text text-anchor="middle"
      fill="black"
      stroke="none"
      transform="translate(0, 12)">Jan ’22</text>
      <path d="M0,0 v-5" />
    </g><g transform="translate(769, 0)">
      <text text-anchor="middle"
      fill="black"
      stroke="none"
      transform="translate(0, 12)">Dec</text>
      <path d="M0,0 v-5" />
    </g><g transform="translate(698, 0)">
      <text text-anchor="middle"
      fill="black"
      stroke="none"
      transform="translate(0, 12)">Nov</text>
      <path d="M0,0 v-5" />
    </g><g transform="translate(625, 0)">
      <text text-anchor="middle"
      fill="black"
      stroke="none"
      transform="translate(0, 12)">Oct</text>
      <path d="M0,0 v-5" />
    </g><g transform="translate(554, 0)">
      <text text-anchor="middle"
      fill="black"
      stroke="none"
      transform="translate(0, 12)">Sep</text>
      <path d="M0,0 v-5" />
    </g><g transform="translate(480, 0)">
      <text text-anchor="middle"
      fill="black"
      stroke="none"
      transform="translate(0, 12)">Aug</text>
      <path d="M0,0 v-5" />
    </g><g transform="translate(407, 0)">
      <text text-anchor="middle"
      fill="black"
      stroke="none"
      transform="translate(0, 12)">Jul</text>
      <path d="M0,0 v-5" />
    </g><g transform="translate(336, 0)">
      <text text-anchor="middle"
      fill="black"
      stroke="none"
      transform="translate(0, 12)">Jun</text>
      <path d="M0,0 v-5" />
    </g><g transform="translate(262, 0)">
      <text text-anchor="middle"
      fill="black"
      stroke="none"
      transform="translate(0, 12)">May</text>
      <path d="M0,0 v-5" />
    </g><g transform="translate(191, 0)">
      <text text-anchor="middle"
      fill="black"
      stroke="none"
      transform="translate(0, 12)">Apr</text>
      <path d="M0,0 v-5" />
    </g><g transform="translate(118, 0)">
      <text text-anchor="middle"
      fill="black"
      stroke="none"
      transform="translate(0, 12)">Mar</text>
      <path d="M0,0 v-5" />
    </g><g transform="translate(51, 0)">
      <text text-anchor="middle"
      fill="black"
      stroke="none"
      transform="translate(0, 12)">Feb</text>
      <path d="M0,0 v-5" />
    </g><g transform="translate(-22, 0)">
      <text text-anchor="middle"
      fill="black"
      stroke="none"
      transform="translate(0, 12)">Jan ’21</text>
      <path d="M0,0 v-5" />
    </g>
  
  </g>
</svg>