<svg xmlns="http://www.w3.org/2000/svg"
  viewBox="0 0 900 400"
  width="900"
  height="400">
  <style>
    text {
      font-family: "Courier New", Courier, monospace;
      font-size: 12px;
    }
  </style>
  <g class="lines" fill="none">
    <path stroke="darkblue" d="M824.7364334659594,126.66666666666669L817.0369719842442,128.43342464403983C809.337510502529,130.20018262141295,793.9385875390986,133.73369857615918,784.560697538754,135.44708930729186C775.1828075384093,137.16048003842454,771.8259505011505,137.0537455459436,762.7283837306171,137.92609075928658C753.6308169600838,138.79843597262953,738.7925404562761,140.64986089179638,730.6679025558432,141.51818735725408C722.5432646554101,142.3865138227118,721.1322653583517,142.27174183446036,717.4145247004031,142.78380377285802C713.6967840424546,143.29586571125563,707.672302023616,144.4347615763023,702.7170252158738,146.19390232147012C697.7617484081316,147.9530430666379,693.8756768114857,150.3324286919268,691.2802428787803,152.03694149744823C688.6848089460749,153.7414543029697,687.38001267731,154.7710942887237,684.3244282509412,155.73172981863934C681.2688438245724,156.69236534855497,676.4624712405998,157.58399642263228,673.1277926774052,159.3989728343563C669.7931141142107,161.21394924608032,667.930129571794,163.95227099545107,664.9352404187821,165.60733231904175C661.9403512657701,167.26239364263242,657.8135575021629,167.83419454044295,655.0860704453786,168.2176023207265C652.3585833885942,168.60101010101008,651.0304030386327,168.7960247637667,649.3768692496055,169.226530823432C647.7233354605783,169.65703688309733,645.7444482324853,170.32303433967135,643.119743098041,170.75354039933666C640.4950379635967,171.18404645900196,637.2245149228012,171.37906112175858,634.9358062332435,171.5740757845152C632.6470975436858,171.76909044727176,631.3402032053659,171.96410511002838,630.0499799085284,172.5830042872207C628.759756611691,173.201903464413,627.4862043563361,174.24468715604098,626.483142586908,174.86358633323326C625.48008081748,175.48248551042556,624.7475095339789,175.67750017318215,622.6990063226116,176.29639935037446C620.6505031112442,176.91529852756676,617.2860679720108,177.95808221919472,615.2635401143126,179.00086591082274C613.2410122566147,180.0436496024507,612.5603916804521,181.0864332940787,611.5567819077821,181.70533247127102C610.5531721351122,182.3242316484633,609.2265731659346,182.51924631121992,607.9393286581482,182.71426097397648C606.6520841503618,182.90927563673313,605.4041941039665,183.1042902994897,603.7670808406539,183.723189476682C602.1299675773414,184.3420886538743,600.1036310971117,185.38487234550226,597.5036213373359,185.8759828087838C594.9036115775601,186.36709327206532,591.7299285382381,186.3065305070004,589.5053557995351,186.37375645584623C587.280783060832,186.44098240469205,586.005320622748,186.63599706744867,584.2911033032905,187.13114909284263C582.576885983833,187.6263011182366,580.4239137830021,188.4215905062679,574.9717467785314,193.0577681726875C569.5195797740606,197.6939458391071,560.7682179659499,206.171011783915,555.8218618681252,210.50705208769725C550.8755057703004,214.84309239147947,549.7341553827615,215.0381070542361,548.8477830750929,215.2331217169927C547.9614107674244,215.42813637974928,547.3300165396262,215.6231510425059,546.694214800039,215.8181657052625C546.0584130604518,216.01318036801908,545.4182038090756,216.20819503077567,544.3823166454537,216.73843557875819C543.3464294818317,217.26867612674064,541.9148644059638,218.13414255994903,538.9128042391,218.66438310793146C535.910744072236,219.19462365591394,531.3381888143759,219.38963831867056,528.355214817568,219.9274120326132C525.37224082076,220.4651857465558,523.9788480850042,221.34571851168445,522.955608053345,221.88349222562707C521.9323680216859,222.42126593956968,521.2792806941235,222.61628060232627,518.6497061594436,223.41616417894056C516.0201316247635,224.21604775555485,511.41406988296586,225.6208002460268,508.7343491373369,226.42068382264105C506.0546283917078,227.22056739925532,505.30124864224734,227.41558206201194,504.3251760324863,228.21546563862617C503.3491034227252,229.0153492152405,502.1503379526635,230.42010170571245,499.8361940840607,232.06008099601794C497.5220502154579,233.70006028632346,494.09252794831394,235.5752663764625,492.0516067532301,237.80667304920658C490.01068555814635,240.0380797219507,489.3583654351226,242.6256869772999,488.7164221449165,244.61514608450094C488.0744788547104,246.60460519170195,487.44291239732183,247.99591615075485,486.811385083022,249.38722710980775C486.1798577687221,250.77853806886063,485.548369597511,252.16984902791353,479.4819340161909,254.7574562832627C473.41549843487064,257.3450635386119,461.9141154434414,261.1289670902574,453.8786611563299,263.7165743456066C445.84320686921836,266.3041816009558,441.27368128642456,267.6954925600087,435.60012488650733,268.4886553709135C429.92656848659004,269.2818181818182,423.14898126954927,269.4768328445748,417.1464037231539,269.6718475073314C411.14382617675864,269.866862170088,405.91625830100867,270.0618768328446,398.1862375351173,270.60797845212295C390.45621676922593,271.15408007140127,380.22374311319317,272.05126864720137,373.7569637634527,273.7676601215522C367.29018441371227,275.48405159590294,364.5890993702642,278.01964596880447,361.59967067812755,279.3849504866335C358.610241985991,280.7502550044626,355.332469645166,280.9452696672192,352.0974767859944,282.89571911258446C348.86248392682273,284.84616855794974,345.6702705493046,288.55205278592376,343.67628974620425,290.50250223128904C341.6823089431039,292.4529516766543,340.88656071442153,292.6479663394109,337.11318598448656,293.11687862782276C333.3398112545516,293.58579091623466,326.58881002336403,294.3286008303018,321.5895128980562,294.79751311871365C316.5902157727484,295.2664254071255,313.34262275332037,295.4614400698821,310.06643179327926,296.80184480356064C306.7902408332382,298.14224953723925,303.4854519325841,300.6280443418398,300.2084467962979,301.96844907551844C296.9314416600116,303.308853809197,293.68222028809316,303.5038684719536,290.6693801145979,303.6988831347102C287.65653994110266,303.89389779746676,284.8800809660306,304.0889124602234,281.52511062564764,304.28392712298C278.1701402852647,304.4789417857366,274.2366585795708,304.6739564484932,269.60159572334646,304.8689711112498C264.96653286712205,305.06398577400637,259.62988886036715,305.25900043676296,254.57579141086248,306.02671013498053C249.52169396135784,306.7944198331981,244.7501430691034,308.1348245668767,240.0733301944587,308.9025342650943C235.39651731981405,309.67024396331186,230.81444246277917,309.8652586260685,227.44727513595353,310.52212412387433C224.0801078091279,311.17898962168005,221.92784801251153,312.29770595453505,213.78695790164525,317.58539582510065C205.64606779077894,322.8730856956663,191.51654736566272,332.3297491039426,181.46782702527977,338.2115178728082C171.41910668489683,344.0932866416737,165.45118642924714,346.4001607711286,154.35258582066493,349.42583044195953C143.25398521208277,352.4515001127905,127.02470425056806,356.1959653249976,107.43474252166463,359.4922675890418C87.84478079276118,362.788569853086,64.89413829646901,365.63670916896723,53.41881704832292,367.0607788269079L41.943495800176834,368.4848484848485" />
    <path stroke="blue" d="M824.7364334659594,109.88346157798344L817.0369719842442,112.27152177081337C809.337510502529,114.6595819636433,793.9385875390986,119.43570234930318,784.560697538754,121.9247484205498C775.1828075384093,124.41379449179642,771.8259505011505,124.61576624862982,762.7283837306171,125.58185156708934C753.6308169600838,126.54793688554885,738.7925404562761,128.27813576563452,730.6679025558432,129.1769974356517C722.5432646554101,130.0758591056689,721.1322653583517,130.14338356561765,717.4145247004031,130.55788151629977C713.6967840424546,130.9723794669819,707.672302023616,131.73385090839741,702.7170252158738,133.54249687312014C697.7617484081316,135.35114283784284,693.8756768114857,138.20696332587272,691.2802428787803,139.78420789965762C688.6848089460749,141.36145247344248,687.38001267731,141.6601211329823,684.3244282509412,142.0458921105391C681.2688438245724,142.43166308809592,676.4624712405998,142.9045363836697,673.1277926774052,145.5172790194842C669.7931141142107,148.13002165529872,667.930129571794,152.882633631354,664.9352404187821,155.4608731907609C661.9403512657701,158.03911275016785,657.8135575021629,158.4429798929264,655.0860704453786,158.76848156570946C652.3585833885942,159.09398323849254,651.0304030386327,159.34111944130015,649.3768692496055,159.67657498138132C647.7233354605783,160.01203052146246,645.7444482324853,160.43580539881717,643.119743098041,160.7535973725703C640.4950379635967,161.07138934632343,637.2245149228012,161.283198416475,634.9358062332435,161.4843858324186C632.6470975436858,161.6855732483622,631.3402032053659,161.8761390100979,630.0499799085284,162.10698249612622C628.759756611691,162.3378259821546,627.4862043563361,162.6089471924757,626.483142586908,162.8466712461702C625.48008081748,163.08439529986467,624.7475095339789,163.28872219693255,622.6990063226116,163.55937436715078C620.6505031112442,163.830026537369,617.2860679720108,164.16700398073758,615.2635401143126,164.47798361374913C613.2410122566147,164.78896324676072,612.5603916804521,165.07394506941532,611.5567819077821,165.3218446389373C610.5531721351122,165.5697442084593,609.2265731659346,165.78056152484868,607.9393286581482,166.0323625280897C606.6520841503618,166.28416353133073,605.4041941039665,166.5769482214234,603.7670808406539,167.52190961925626C602.1299675773414,168.46687101708915,600.1036310971117,170.0640091226622,597.5036213373359,171.66212576872883C594.9036115775601,173.26024241479544,591.7299285382381,174.85933760135558,589.5053557995351,175.76110671971674C587.280783060832,176.66287583807795,586.005320622748,176.86731888824013,584.2911033032905,178.2462764508791C582.576885983833,179.62523401351802,580.4239137830021,182.17870608863367,574.9717467785314,186.58426598061283C569.5195797740606,190.98982587259195,560.7682179659499,197.24747358143455,555.8218618681252,200.48145262454065C550.8755057703004,203.71543166764673,549.7341553827615,203.92574204501625,548.8477830750929,204.20796315439142C547.9614107674244,204.49018426376654,547.3300165396262,204.84431610514721,546.694214800039,205.12679068403227C546.0584130604518,205.4092652629173,545.4182038090756,205.62008257930668,544.3823166454537,205.9572984179185C543.3464294818317,206.29451425653033,541.9148644059638,206.75812861736458,538.9128042391,209.37238902702163C535.910744072236,211.98664943667868,531.3381888143759,216.75155589515848,528.355214817568,219.2920666621537C525.37224082076,221.83257742914898,523.9788480850042,222.14869250465972,522.955608053345,222.41215870060975C521.9323680216859,222.6756248965598,521.2792806941235,222.88644221294916,518.6497061594436,223.79406772397343C516.0201316247635,224.70169323499772,511.41406988296586,226.3061269406569,508.7343491373369,227.23916512536118C506.0546283917078,228.17220331006547,505.30124864224734,228.43384597381487,504.3251760324863,228.83312996020277C503.3491034227252,229.23241394659064,502.1503379526635,229.76933925561698,499.8361940840607,230.81535073139386C497.5220502154579,231.8613622071707,494.09252794831394,233.4164598496981,492.0516067532301,234.4915904842534C490.01068555814635,235.56672111880872,489.3583654351226,236.16188474539194,488.7164221449165,236.7135708329663C488.0744788547104,237.26525692054062,487.44291239732183,237.77346546910607,486.811385083022,238.30083836129572C486.1798577687221,238.82821125348536,485.548369597511,239.37474848929926,479.4819340161909,240.60376227193282C473.41549843487064,241.83277605456632,461.9141154434414,243.74426638401948,453.8786611563299,245.8406918825765C445.84320686921836,247.93711738113356,441.27368128642456,250.21847804879448,435.60012488650733,251.46488444627502C429.92656848659004,252.71129084375556,423.14898126954927,252.92274297105578,417.1464037231539,253.1293469079965C411.14382617675864,253.33595084493723,405.91625830100867,253.5377065915185,398.1862375351173,253.84506306600738C390.45621676922593,254.15241954049625,380.22374311319317,254.56537674289268,373.7569637634527,255.83230748641623C367.29018441371227,257.0992382299398,364.5890993702642,259.22014251459046,361.59967067812755,260.39266345028256C358.610241985991,261.56518438597476,355.332469645166,261.78932197270836,352.0974767859944,264.59336687969136C348.86248392682273,267.39741178667435,345.6702705493046,272.78136401390674,343.67628974620425,275.54131996397916C341.6823089431039,278.3012759140516,340.88656071442153,278.43723558696405,337.11318598448656,278.6216734930435C333.3398112545516,278.8061113991229,326.58881002336403,279.03902753836945,321.5895128980562,279.4726729973816C316.5902157727484,279.90631845639376,313.34262275332037,280.54069323517155,310.06643179327926,284.3890456605073C306.7902408332382,288.2373980858431,303.4854519325841,295.29972815773687,300.2084467962979,299.0739603402321C296.9314416600116,302.8481925227273,293.68222028809316,303.334326815824,290.6693801145979,303.76874446012147C287.65653994110266,304.20316210441894,284.8800809660306,304.58586309991716,281.52511062564764,304.882622255861C278.1701402852647,305.17938141180485,274.2366585795708,305.3901987281942,269.60159572334646,305.5983013663542C264.96653286712205,305.8064040045141,259.62988886036715,306.01179196444457,254.57579141086248,306.87557175467924C249.52169396135784,307.73935154491403,244.7501430691034,309.261523165453,240.0733301944587,310.17880536763C235.39651731981405,311.0960875698069,230.81444246277917,311.4084803536219,227.44727513595353,311.90030798109643C224.0801078091279,312.3921356085711,221.92784801251153,313.06339807970545,213.78695790164525,319.0192588913754C205.64606779077894,324.9751197030453,191.51654736566272,336.2155788552509,181.46782702527977,342.4620601494653C171.41910668489683,348.7085414436796,165.45118642924714,349.9610448799028,154.35258582066493,352.56884258309475C143.25398521208277,355.1766402862867,127.02470425056806,359.13973225644753,107.43474252166463,362.4869631872278C87.84478079276118,365.8341941180081,64.89413829646901,368.565564009408,53.41881704832292,369.93124895510783L41.943495800176834,371.2969339008078" />
    
    <path stroke="darkorange" d="M824.7364334659594,253.33333333333331L817.0369719842442,251.56657535596017C809.337510502529,249.79981737858705,793.9385875390986,246.2663014238408,784.560697538754,244.5529106927081C775.1828075384093,242.83951996157546,771.8259505011505,242.9462544540564,762.7283837306171,242.07390924071342C753.6308169600838,241.20156402737044,738.7925404562761,239.35013910820362,730.6679025558432,238.4818126427459C722.5432646554101,237.61348617728822,721.1322653583517,237.72825816553964,717.4145247004031,237.21619622714198C713.6967840424546,236.7041342887444,707.672302023616,235.5652384236977,702.7170252158738,233.8060976785299C697.7617484081316,232.0469569333621,693.8756768114857,229.66757130807324,691.2802428787803,227.96305850255177C688.6848089460749,226.2585456970303,687.38001267731,225.22890571127633,684.3244282509412,224.26827018136066C681.2688438245724,223.30763465144503,676.4624712405998,222.41600357736775,673.1277926774052,220.6010271656437C669.7931141142107,218.78605075391965,667.930129571794,216.04772900454893,664.9352404187821,214.39266768095823C661.9403512657701,212.73760635736758,657.8135575021629,212.16580545955705,655.0860704453786,211.78239767927346C652.3585833885942,211.39898989898987,651.0304030386327,211.20397523623328,649.3768692496055,210.773469176568C647.7233354605783,210.34296311690264,645.7444482324853,209.67696566032862,643.119743098041,209.24645960066331C640.4950379635967,208.81595354099798,637.2245149228012,208.6209388782414,634.9358062332435,208.42592421548477C632.6470975436858,208.2309095527282,631.3402032053659,208.0358948899716,630.0499799085284,207.4169957127793C628.759756611691,206.798096535587,627.4862043563361,205.75531284395902,626.483142586908,205.13641366676674C625.48008081748,204.51751448957444,624.7475095339789,204.32249982681785,622.6990063226116,203.70360064962554C620.6505031112442,203.08470147243324,617.2860679720108,202.04191778080528,615.2635401143126,200.99913408917726C613.2410122566147,199.95635039754927,612.5603916804521,198.91356670592128,611.5567819077821,198.29466752872898C610.5531721351122,197.67576835153668,609.2265731659346,197.48075368878006,607.9393286581482,197.28573902602344C606.6520841503618,197.09072436326687,605.4041941039665,196.8957097005103,603.7670808406539,196.276810523318C602.1299675773414,195.6579113461257,600.1036310971117,194.61512765449774,597.5036213373359,194.1240171912162C594.9036115775601,193.63290672793468,591.7299285382381,193.69346949299958,589.5053557995351,193.62624354415377C587.280783060832,193.5590175953079,586.005320622748,193.36400293255133,584.2911033032905,192.86885090715737C582.576885983833,192.3736988817634,580.4239137830021,191.57840949373212,574.9717467785314,186.9422318273125C569.5195797740606,182.3060541608929,560.7682179659499,173.828988216085,555.8218618681252,169.49294791230275C550.8755057703004,165.15690760852053,549.7341553827615,164.9618929457639,548.8477830750929,164.76687828300732C547.9614107674244,164.57186362025072,547.3300165396262,164.37684895749413,546.694214800039,164.18183429473754C546.0584130604518,163.98681963198092,545.4182038090756,163.79180496922433,544.3823166454537,163.26156442124184C543.3464294818317,162.73132387325936,541.9148644059638,161.86585744005097,538.9128042391,161.3356168920685C535.910744072236,160.805376344086,531.3381888143759,160.6103616813294,528.355214817568,160.0725879673868C525.37224082076,159.53481425344418,523.9788480850042,158.65428148831555,522.955608053345,158.11650777437293C521.9323680216859,157.57873406043032,521.2792806941235,157.38371939767373,518.6497061594436,156.58383582105944C516.0201316247635,155.78395224444515,511.41406988296586,154.3791997539732,508.7343491373369,153.57931617735892C506.0546283917078,152.77943260074466,505.30124864224734,152.58441793798806,504.3251760324863,151.78453436137377C503.3491034227252,150.9846507847595,502.1503379526635,149.57989829428757,499.8361940840607,147.93991900398206C497.5220502154579,146.29993971367657,494.09252794831394,144.42473362353752,492.0516067532301,142.19332695079342C490.01068555814635,139.9619202780493,489.3583654351226,137.3743130227001,488.7164221449165,135.38485391549906C488.0744788547104,133.39539480829805,487.44291239732183,132.00408384924515,486.811385083022,130.61277289019225C486.1798577687221,129.22146193113937,485.548369597511,127.83015097208647,479.4819340161909,125.24254371673726C473.41549843487064,122.65493646138806,461.9141154434414,118.8710329097426,453.8786611563299,116.2834256543934C445.84320686921836,113.6958183990442,441.27368128642456,112.30450743999131,435.60012488650733,111.51134462908658C429.92656848659004,110.71818181818183,423.14898126954927,110.52316715542524,417.1464037231539,110.32815249266862C411.14382617675864,110.13313782991203,405.91625830100867,109.93812316715544,398.1862375351173,109.39202154787709C390.45621676922593,108.84591992859875,380.22374311319317,107.94873135279867,373.7569637634527,106.23233987844787C367.29018441371227,104.51594840409706,364.5890993702642,101.98035403119553,361.59967067812755,100.61504951336649C358.610241985991,99.24974499553741,355.332469645166,99.05473033278082,352.0974767859944,97.10428088741553C348.86248392682273,95.15383144205025,345.6702705493046,91.44794721407624,343.67628974620425,89.49749776871094C341.6823089431039,87.54704832334563,340.88656071442153,87.35203366058904,337.11318598448656,86.88312137217719C333.3398112545516,86.41420908376534,326.58881002336403,85.67139916969823,321.5895128980562,85.20248688128638C316.5902157727484,84.73357459287452,313.34262275332037,84.53855993011793,310.06643179327926,83.19815519643934C306.7902408332382,81.85775046276076,303.4854519325841,79.37195565816018,300.2084467962979,78.03155092448159C296.9314416600116,76.69114619080301,293.68222028809316,76.4961315280464,290.6693801145979,76.30111686528981C287.65653994110266,76.10610220253322,284.8800809660306,75.9110875397766,281.52511062564764,75.71607287702001C278.1701402852647,75.52105821426342,274.2366585795708,75.32604355150681,269.60159572334646,75.13102888875022C264.96653286712205,74.93601422599363,259.62988886036715,74.74099956323703,254.57579141086248,73.97328986501944C249.52169396135784,73.20558016680185,244.7501430691034,71.86517543312327,240.0733301944587,71.09746573490568C235.39651731981405,70.3297560366881,230.81444246277917,70.13474137393149,227.44727513595353,69.47787587612571C224.0801078091279,68.82101037831993,221.92784801251153,67.70229404546495,213.78695790164525,62.4146041748993C205.64606779077894,57.12691430433367,191.51654736566272,47.67025089605735,181.46782702527977,41.788482127191806C171.41910668489683,35.906713358326265,165.45118642924714,33.59983922887148,154.35258582066493,30.574169558040527C143.25398521208277,27.54849988720957,127.02470425056806,23.804034675002423,107.43474252166463,20.507732410958223C87.84478079276118,17.21143014691402,64.89413829646901,14.363290831032762,53.41881704832292,12.93922117309213L41.943495800176834,11.515151515151503" />
    <path stroke="orange" d="M824.7364334659594,270.11653842201656L817.0369719842442,267.72847822918663C809.337510502529,265.34041803635665,793.9385875390986,260.5642976506968,784.560697538754,258.0752515794502C775.1828075384093,255.58620550820356,771.8259505011505,255.38423375137018,762.7283837306171,254.41814843291067C753.6308169600838,253.45206311445114,738.7925404562761,251.7218642343655,730.6679025558432,250.8230025643483C722.5432646554101,249.92414089433112,721.1322653583517,249.85661643438235,717.4145247004031,249.44211848370023C713.6967840424546,249.02762053301808,707.672302023616,248.26614909160256,702.7170252158738,246.45750312687986C697.7617484081316,244.64885716215716,693.8756768114857,241.79303667412728,691.2802428787803,240.21579210034238C688.6848089460749,238.63854752655752,687.38001267731,238.33987886701766,684.3244282509412,237.95410788946091C681.2688438245724,237.56833691190408,676.4624712405998,237.09546361633033,673.1277926774052,234.48272098051584C669.7931141142107,231.86997834470128,667.930129571794,227.11736636864603,664.9352404187821,224.5391268092391C661.9403512657701,221.9608872498322,657.8135575021629,221.55702010707364,655.0860704453786,221.2315184342906C652.3585833885942,220.90601676150746,651.0304030386327,220.65888055869985,649.3768692496055,220.32342501861868C647.7233354605783,219.98796947853756,645.7444482324853,219.56419460118283,643.119743098041,219.24640262742972C640.4950379635967,218.9286106536766,637.2245149228012,218.716801583525,634.9358062332435,218.51561416758145C632.6470975436858,218.3144267516378,631.3402032053659,218.12386098990214,630.0499799085284,217.89301750387378C628.759756611691,217.6621740178454,627.4862043563361,217.3910528075243,626.483142586908,217.15332875382978C625.48008081748,216.91560470013533,624.7475095339789,216.71127780306747,622.6990063226116,216.44062563284925C620.6505031112442,216.16997346263102,617.2860679720108,215.83299601926242,615.2635401143126,215.52201638625084C613.2410122566147,215.21103675323926,612.5603916804521,214.92605493058466,611.5567819077821,214.67815536106264C610.5531721351122,214.43025579154065,609.2265731659346,214.2194384751513,607.9393286581482,213.96763747191025C606.6520841503618,213.71583646866927,605.4041941039665,213.42305177857656,603.7670808406539,212.47809038074374C602.1299675773414,211.53312898291085,600.1036310971117,209.9359908773378,597.5036213373359,208.33787423127114C594.9036115775601,206.73975758520456,591.7299285382381,205.14066239864442,589.5053557995351,204.23889328028326C587.280783060832,203.33712416192205,586.005320622748,203.13268111175987,584.2911033032905,201.7537235491209C582.576885983833,200.37476598648198,580.4239137830021,197.82129391136633,574.9717467785314,193.41573401938717C569.5195797740606,189.01017412740805,560.7682179659499,182.75252641856545,555.8218618681252,179.51854737545935C550.8755057703004,176.28456833235327,549.7341553827615,176.07425795498372,548.8477830750929,175.79203684560858C547.9614107674244,175.50981573623346,547.3300165396262,175.15568389485279,546.694214800039,174.87320931596773C546.0584130604518,174.5907347370827,545.4182038090756,174.37991742069335,544.3823166454537,174.0427015820815C543.3464294818317,173.7054857434697,541.9148644059638,173.24187138263542,538.9128042391,170.6276109729784C535.910744072236,168.01335056332138,531.3381888143759,163.24844410484158,528.355214817568,160.7079333378463C525.37224082076,158.16742257085104,523.9788480850042,157.8513074953403,522.955608053345,157.58784129939025C521.9323680216859,157.3243751034402,521.2792806941235,157.1135577870508,518.6497061594436,156.20593227602652C516.0201316247635,155.29830676500225,511.41406988296586,153.69387305934308,508.7343491373369,152.7608348746388C506.0546283917078,151.8277966899345,505.30124864224734,151.5661540261851,504.3251760324863,151.16687003979723C503.3491034227252,150.76758605340933,502.1503379526635,150.23066074438296,499.8361940840607,149.1846492686061C497.5220502154579,148.13863779282926,494.09252794831394,146.5835401503019,492.0516067532301,145.5084095157466C490.01068555814635,144.43327888119128,489.3583654351226,143.83811525460803,488.7164221449165,143.28642916703373C488.0744788547104,142.73474307945938,487.44291239732183,142.22653453089396,486.811385083022,141.69916163870428C486.1798577687221,141.17178874651464,485.548369597511,140.62525151070074,479.4819340161909,139.39623772806723C473.41549843487064,138.16722394543368,461.9141154434414,136.25573361598052,453.8786611563299,134.15930811742348C445.84320686921836,132.06288261886647,441.27368128642456,129.78152195120552,435.60012488650733,128.53511555372498C429.92656848659004,127.28870915624441,423.14898126954927,127.0772570289442,417.1464037231539,126.87065309200348C411.14382617675864,126.66404915506273,405.91625830100867,126.46229340848146,398.1862375351173,126.15493693399259C390.45621676922593,125.84758045950373,380.22374311319317,125.43462325710732,373.7569637634527,124.16769251358379C367.29018441371227,122.90076177006023,364.5890993702642,120.77985748540955,361.59967067812755,119.60733654971743C358.610241985991,118.4348156140253,355.332469645166,118.21067802729168,352.0974767859944,115.40663312030865C348.86248392682273,112.60258821332566,345.6702705493046,107.21863598609328,343.67628974620425,104.45868003602085C341.6823089431039,101.69872408594846,340.88656071442153,101.562764413036,337.11318598448656,101.37832650695655C333.3398112545516,101.19388860087709,326.58881002336403,100.96097246163059,321.5895128980562,100.52732700261843C316.5902157727484,100.09368154360628,313.34262275332037,99.45930676482847,310.06643179327926,95.6109543394927C306.7902408332382,91.7626019141569,303.4854519325841,84.70027184226315,300.2084467962979,80.92603965976794C296.9314416600116,77.15180747727271,293.68222028809316,76.66567318417601,290.6693801145979,76.23125553987855C287.65653994110266,75.79683789558106,284.8800809660306,75.4141369000828,281.52511062564764,75.11737774413898C278.1701402852647,74.82061858819516,274.2366585795708,74.60980127180578,269.60159572334646,74.40169863364586C264.96653286712205,74.19359599548592,259.62988886036715,73.98820803555542,254.57579141086248,73.12442824532067C249.52169396135784,72.26064845508593,244.7501430691034,70.73847683454694,240.0733301944587,69.82119463237C235.39651731981405,68.90391243019303,230.81444246277917,68.59151964637812,227.44727513595353,68.0996920189035C224.0801078091279,67.60786439142889,221.92784801251153,66.93660192029459,213.78695790164525,60.98074110862464C205.64606779077894,55.0248802969547,191.51654736566272,43.78442114474911,181.46782702527977,37.53793985053475C171.41910668489683,31.291458556320382,165.45118642924714,30.03895512009724,154.35258582066493,27.431157416905275C143.25398521208277,24.823359713713312,127.02470425056806,20.860267743552527,107.43474252166463,17.51303681277221C87.84478079276118,14.165805881991894,64.89413829646901,11.434435990592045,53.41881704832292,10.068751044892123L41.943495800176834,8.703066099192199" />
  </g>
  
  <g class="axis y" stroke="black" fill="none" stroke-dasharray="4 6">
    <path d="M 0,285 h900" /><path d="M 0,190 h900" /><path d="M 0,95 h900" />
  </g>
  <g
    class="axis x"
    stroke="black" fill="none"
    transform="translate(0, 380)">
  
  <path d="M0,0 h900" />
  <g transform="translate(751, 0)">
      <text text-anchor="middle"
      fill="black"
      stroke="none"
      transform="translate(0, 12)">Jan ’22</text>
      <path d="M0,0 v-5" />
    </g><g transform="translate(677, 0)">
      <text text-anchor="middle"
      fill="black"
      stroke="none"
      transform="translate(0, 12)">Dec</text>
      <path d="M0,0 v-5" />
    </g><g transform="translate(605, 0)">
      <text text-anchor="middle"
      fill="black"
      stroke="none"
      transform="translate(0, 12)">Nov</text>
      <path d="M0,0 v-5" />
    </g><g transform="translate(531, 0)">
      <text text-anchor="middle"
      fill="black"
      stroke="none"
      transform="translate(0, 12)">Oct</text>
      <path d="M0,0 v-5" />
    </g><g transform="translate(460, 0)">
      <text text-anchor="middle"
      fill="black"
      stroke="none"
      transform="translate(0, 12)">Sep</text>
      <path d="M0,0 v-5" />
    </g><g transform="translate(386, 0)">
      <text text-anchor="middle"
      fill="black"
      stroke="none"
      transform="translate(0, 12)">Aug</text>
      <path d="M0,0 v-5" />
    </g><g transform="translate(312, 0)">
      <text text-anchor="middle"
      fill="black"
      stroke="none"
      transform="translate(0, 12)">Jul</text>
      <path d="M0,0 v-5" />
    </g><g transform="translate(240, 0)">
      <text text-anchor="middle"
      fill="black"
      stroke="none"
      transform="translate(0, 12)">Jun</text>
      <path d="M0,0 v-5" />
    </g><g transform="translate(166, 0)">
      <text text-anchor="middle"
      fill="black"
      stroke="none"
      transform="translate(0, 12)">May</text>
      <path d="M0,0 v-5" />
    </g><g transform="translate(94, 0)">
      <text text-anchor="middle"
      fill="black"
      stroke="none"
      transform="translate(0, 12)">Apr</text>
      <path d="M0,0 v-5" />
    </g><g transform="translate(20, 0)">
      <text text-anchor="middle"
      fill="black"
      stroke="none"
      transform="translate(0, 12)">Mar</text>
      <path d="M0,0 v-5" />
    </g><g transform="translate(-47, 0)">
      <text text-anchor="middle"
      fill="black"
      stroke="none"
      transform="translate(0, 12)">Feb</text>
      <path d="M0,0 v-5" />
    </g><g transform="translate(-121, 0)">
      <text text-anchor="middle"
      fill="black"
      stroke="none"
      transform="translate(0, 12)">Jan ’21</text>
      <path d="M0,0 v-5" />
    </g>
  
  </g>
</svg>