<svg xmlns="http://www.w3.org/2000/svg"
  viewBox="0 0 900 400"
  width="900"
  height="400">
  <style>
    text {
      font-family: "Courier New", Courier, monospace;
      font-size: 12px;
    }
  </style>
  <g class="lines" fill="none">
    <path stroke="darkblue" d="M848.3601146449704,143.23076923076923L844.5949762502408,143.64490878195082C840.8298378555113,144.05904833313238,833.2995610660523,144.88732743549554,827.396700193342,146.49074474348382C821.4938393206318,148.0941620514721,817.2183943646705,150.4727175650855,814.3825068031043,152.17640025893147C811.546619241538,153.88008295277743,810.1502890743669,154.90889282685592,806.801156731407,155.86869824509608C803.4520243884468,156.82850366333625,798.1500898696978,157.71930462573803,794.4896602202781,159.53345092578655C790.8292305708586,161.34759722583507,788.8103057907683,164.08508886353036,785.5288720219372,165.73932007544553C782.247438253106,167.39355128736068,777.7034954955338,167.96452207349571,774.7203179109564,168.3470997421038C771.7371403263791,168.7296774107119,770.3147279147962,168.923861961793,768.5294212827172,169.35353790978283C766.7441146506382,169.7832138577726,764.5959137980627,170.44838120267116,761.7273775884032,170.878057150661C758.8588413787437,171.3077330986508,755.2699698119999,171.50191764973192,752.7761988677906,171.69610220081302C750.2824279235814,171.8902867518941,748.8837576019065,172.08447130297523,747.5036819034239,172.702540368492C746.1236062049411,173.32060943400882,744.7621251296504,174.36256301396133,743.7023449809703,174.9806320794781C742.6425648322905,175.59870114499495,741.8844856102211,175.79288569607604,739.6586361609167,176.41095476159285C737.432786711612,177.02902382710963,733.7391670350722,178.0709774070621,731.5422900956296,179.1129309870146C729.345413156187,180.1548845669671,728.6452789538416,181.19683814691962,727.5848875707765,181.8149072124364C726.5244961877112,182.43297627795323,725.103847623926,182.62716082903432,723.7270944209232,182.82134538011542C722.3503412179203,183.0155299311965,721.0174833757001,183.2097144822776,719.2504919453796,183.8277835477944C717.4835005150594,184.44585261331122,715.282375496639,185.48780619326374,712.4413841279558,185.97808654486974C709.6003927592725,186.4683668964758,706.1195350403264,186.40697401973534,703.6973003489935,186.4733698569057C701.2750656576605,186.539765694076,699.9114539939413,186.7339502451571,698.0584618856129,187.2282721588756C696.2054697772847,187.72259407259403,693.8630972243477,188.51705334894987,687.840853544274,193.15240090369397C681.8186098642001,197.78774845843813,672.1164950569896,206.2639842915705,666.6584250804825,210.59919448367725C661.2003551039754,214.93440467578398,659.9863299581718,215.1285892268651,659.056703439916,215.3227737779462C658.12707692166,215.5169583290273,657.4818490309516,215.71114288010838,656.8317050694018,215.90532743118948C656.181561107852,216.09951198227063,655.5265010754607,216.29369653335172,654.4301079871029,216.82310696965865C653.3337148987451,217.35251740596564,651.7959887544208,218.21715372749853,648.5065565470624,218.7465641638055C645.2171243397039,219.27597460011248,640.1759860693113,219.4701591511936,636.9078422823999,220.0071027534607C633.6396984954885,220.5440463557279,632.1445491920583,221.42374900918102,631.0622625201206,221.96069261144817C629.9799758481829,222.49763621371525,629.3105518077376,222.69182076479638,626.4365843439689,223.49087422973514C623.5626168802002,224.2899276946739,618.4841059931081,225.69385007347037,615.554206217127,226.4929035384092C612.6243064411459,227.29195700334796,611.8430177762758,227.48614155442905,610.8133409210706,228.28519501936785C609.7836640658653,229.0842484843066,608.5055990203247,230.48817086310308,605.983458068719,232.1273200417331C603.4613171171133,233.76646922036306,599.6951002594425,235.64084519882658,597.4777076744542,237.87142175989524C595.2603150894657,240.10199832096382,594.59174677716,242.6887754646375,593.9347526245351,244.67740446016307C593.2777584719105,246.66603345568862,592.6323384789667,248.05651430306602,591.9869621456222,249.4469951504434C591.3415858122776,250.8374759978208,590.6962531385319,252.22795684519824,583.988863738126,254.81473398887192C577.2814743377202,257.40151113254564,564.5120282106542,261.1845845725156,555.6084256384042,263.77136171618935C546.7048230661543,266.358138859863,541.6670640487202,267.7486197072404,535.3978860429562,268.54095240646967C529.128708037192,269.3332851056989,521.6281110430979,269.52746965678,514.9919479124159,269.72165420786115C508.355784781734,269.91583875894224,502.5840555144642,270.11002331002334,494.0211287928059,270.65529481762616C485.4582020711476,271.200566325229,474.1040778951008,272.0969247893536,466.9501512145339,273.8124861520289C459.79622453396695,275.5280475147042,456.84249534888005,278.06281177593024,453.5671520941021,279.42728618208383C450.2918088393241,280.79176058823737,446.69485151485515,280.98594513931846,443.14560976607663,282.93556447300824C439.59636801729795,284.885183806698,436.0948418442097,288.59023792299655,433.92980585028,290.53985725668633C431.76476985635026,292.4894765903761,430.9362240415788,292.6836611414572,426.78647943694887,293.1517433181936C422.6367348323188,293.61982549492996,415.1657914378302,294.3618052973216,409.6486718537458,294.82988747405795C404.13155226966154,295.2979696507943,400.5682564959816,295.4921542018754,396.97306301931013,296.8317288238785C393.37786954263873,298.1713034458816,389.7507783629758,300.6562681388067,386.1546767666462,301.9958427608098C382.5585751703167,303.33541738281286,378.9934631573205,303.52960193389396,375.6920070964117,303.72378648497505C372.390551035503,303.91797103605614,369.35275092668167,304.1121555871373,365.66968814116734,304.3063401382184C361.9866253556531,304.5005246892995,357.65829989344576,304.6947092403806,352.547441609493,304.88889379146167C347.43658332554014,305.0830783425428,341.5431922198418,305.2772628936239,335.96494919723017,306.044142480166C330.38670617461855,306.81102206670806,325.12361123509373,308.1505966887112,319.9661856229029,308.91747627525325C314.8087600107121,309.6843558617953,309.75700372585527,309.8785404128764,306.06033660930876,310.5345757990067C302.36366949276226,311.190611185137,300.02209154452606,312.30849740631646,291.00088747654956,317.5953571652066C281.97968340857307,322.8822169240968,266.27885322085626,332.3380502206976,255.12968466611122,338.2189888778877C243.98051611136614,344.0999275350777,237.3830091895928,346.405971552857,225.0628203357024,349.43081111201246C212.74263148181208,352.4556506711679,194.69976069580468,356.1992857716996,172.90843828463292,359.4947579240683C151.1171158734612,362.790230076437,125.57734183712508,365.6375392806428,112.807454818957,367.0611938827456L100.03756780078895,368.4848484848485" />
    <path stroke="blue" d="M848.3601146449704,131.32759948413914L844.5949762502408,131.63471517637012C840.8298378555113,131.9418308686011,833.2995610660523,132.55606225306303,827.396700193342,134.2891145890525C821.4938393206318,136.02216692504194,817.2183943646705,138.87404021255892,814.3825068031043,140.44733758583087C811.546619241538,142.0206349591028,810.1502890743669,142.3153564181297,806.801156731407,142.69718019517356C803.4520243884468,143.0790039722174,798.1500898696978,143.54793006727823,794.4896602202781,146.1567255025798C790.8292305708586,148.7655209378814,788.8103057907683,153.51418571342376,785.5288720219372,156.0884780723177C782.247438253106,158.6627704312117,777.7034954955338,159.06269037345731,774.7203179109564,159.38424484572747C771.7371403263791,159.70579931799762,770.3147279147962,159.9489883202923,768.5294212827172,160.28049665986052C766.7441146506382,160.61200499942876,764.5959137980627,161.0318326762705,761.7273775884032,161.3456774495107C758.8588413787437,161.6595222227509,755.2699698119999,161.86738409238953,752.7761988677906,162.0646243078202C750.2824279235814,162.26186452325086,748.8837576019065,162.4484830844736,747.5036819034239,162.67537936998903C746.1236062049411,162.90227565550447,744.7621251296504,163.1694496653126,743.7023449809703,163.40322651849417C742.6425648322905,163.63700337167572,741.8844856102211,163.83738306823065,739.6586361609167,164.10408803793595C737.432786711612,164.37079300764125,733.7391670350722,164.70382325049687,731.5422900956296,165.0108556829955C729.345413156187,165.31788811549416,728.6452789538416,165.5989227376358,727.5848875707765,165.84287510664487C726.5244961877112,166.0868274756539,725.103847623926,166.29369759153033,723.7270944209232,166.54155139425845C722.3503412179203,166.78940519698654,721.0174833757001,167.07824268656628,719.2504919453796,168.01925688388624C717.4835005150594,168.96027108120617,715.282375496639,170.55346198626629,712.4413841279558,172.14763143181995C709.6003927592725,173.74180087737363,706.1195350403264,175.33694886342084,703.6973003489935,176.23477078126908C701.2750656576605,177.13259269911734,699.9114539939413,177.3330885487666,698.0584618856129,178.70809891089257C696.2054697772847,180.0831092730186,693.8630972243477,182.63263414762136,687.840853544274,187.03424683908756C681.8186098642001,191.43585953055376,672.1164950569896,197.68956003888334,666.6584250804825,200.91959188147652C661.2003551039754,204.14962372406967,659.9863299581718,204.3559869009263,659.056703439916,204.63426080978846C658.12707692166,204.9125347186507,657.4818490309516,205.26271935951846,656.8317050694018,205.54124673789053C656.181561107852,205.81977411626266,655.5265010754607,206.0266442321391,654.4301079871029,206.35991287023796C653.3337148987451,206.69318150833683,651.7959887544208,207.15284866865818,648.5065565470624,209.76316187780228C645.2171243397039,212.37347508694634,640.1759860693113,217.13443434491322,636.9078422823999,219.67099791139557C633.6396984954885,222.20756147787787,632.1445491920583,222.51972935287566,631.0622625201206,222.7792483483128C629.9799758481829,223.0387673437499,629.3105518077376,223.24563745962632,626.4365843439689,224.14931577013763C623.5626168802002,225.05299408064903,618.4841059931081,226.65348058579525,615.554206217127,227.5825715699866C612.6243064411459,228.51166255417797,611.8430177762758,228.76935801741445,610.8133409210706,229.1646948032894C609.7836640658653,229.56003158916437,608.5055990203247,230.09300969767776,605.983458068719,231.13507397294168C603.4613171171133,232.17713824820564,599.6951002594425,233.72828869022007,597.4777076744542,234.7994721242624C595.2603150894657,235.87065555830478,594.59174677716,236.46187198437508,593.9347526245351,237.00961087143648C593.2777584719105,237.5573497584979,592.6323384789667,238.06161110655037,591.9869621456222,238.58503679822707C591.3415858122776,239.10846248990381,590.6962531385319,239.6510525252048,583.988863738126,240.87611910732537C577.2814743377202,242.10118568944594,564.5120282106542,244.00872881838617,555.6084256384042,246.10120711643026C546.7048230661543,248.19368541447434,541.6670640487202,250.4710988816224,535.3978860429562,251.71355807858995C529.128708037192,252.95601727555763,521.6281110430979,253.1635222023449,514.9919479124159,253.3661789387727C508.355784781734,253.5688356752005,502.5840555144642,253.76664422126882,494.0211287928059,254.07005349524476C485.4582020711476,254.37346276922065,474.1040778951008,254.78247277110415,466.9501512145339,256.04545631411474C459.79622453396695,257.3084398571254,456.84249534888005,259.4253969412631,453.5671520941021,260.5939706764423C450.2918088393241,261.7625444116215,446.69485151485515,261.98273479784217,443.14560976607663,264.78283250431224C439.59636801729795,267.5829302107823,436.0948418442097,272.96293523750177,433.92980585028,275.71894398706127C431.76476985635026,278.47495273662076,430.9362240415788,278.60696520902025,426.78647943694887,278.7874559145868C422.6367348323188,278.9679466201533,415.1657914378302,279.1969155588869,409.6486718537458,279.62661381738604C404.13155226966154,280.0563120758853,400.5682564959816,280.6867396541502,396.97306301931013,284.531144878973C393.37786954263873,288.3755501037959,389.7507783629758,295.4339329751767,386.1546767666462,299.204217957159C382.5585751703167,302.97450293914125,378.9934631573205,303.45669003172503,375.6920070964117,303.8871604755096C372.390551035503,304.31763091929406,369.35275092668167,304.6963847142794,365.66968814116734,304.9891966697103C361.9866253556531,305.28200862514115,357.65829989344576,305.4888787410176,352.547441609493,305.6930341786646C347.43658332554014,305.8971896163116,341.5431922198418,306.09863037572916,335.96494919723017,306.95846296545096C330.38670617461855,307.81829555517277,325.12361123509373,309.3365199751988,319.9661856229029,310.2498549768629C314.8087600107121,311.1631899785269,309.75700372585527,311.47163556182886,306.06033660930876,311.95951598879054C302.36366949276226,312.4473964157522,300.02209154452606,313.1147116863736,291.00088747654956,319.0666252975306C281.97968340857307,325.0185389086876,266.27885322085626,336.2550508603802,255.12968466611122,342.4975849540817C243.98051611136614,348.7401190477831,237.3830091895928,349.98867528349336,225.0628203357024,352.5925257861724C212.74263148181208,355.19637628885135,194.69976069580468,359.1555210584993,172.90843828463292,362.4988047887666C151.1171158734612,365.842088519034,125.57734183712508,368.5695112099209,112.807454818957,369.93322255536435L100.03756780078895,371.2969339008078" />
    
    <path stroke="darkorange" d="M848.3601146449704,236.76923076923077L844.5949762502408,236.35509121804918C840.8298378555113,235.94095166686762,833.2995610660523,235.11267256450446,827.396700193342,233.50925525651618C821.4938393206318,231.90583794852787,817.2183943646705,229.5272824349145,814.3825068031043,227.82359974106853C811.546619241538,226.11991704722257,810.1502890743669,225.09110717314408,806.801156731407,224.13130175490394C803.4520243884468,223.17149633666375,798.1500898696978,222.280695374262,794.4896602202781,220.46654907421348C790.8292305708586,218.65240277416493,788.8103057907683,215.91491113646964,785.5288720219372,214.26067992455452C782.247438253106,212.60644871263932,777.7034954955338,212.03547792650429,774.7203179109564,211.65290025789616C771.7371403263791,211.27032258928807,770.3147279147962,211.07613803820698,768.5294212827172,210.64646209021717C766.7441146506382,210.21678614222733,764.5959137980627,209.5516187973288,761.7273775884032,209.12194284933898C758.8588413787437,208.69226690134917,755.2699698119999,208.49808235026808,752.7761988677906,208.30389779918698C750.2824279235814,208.10971324810586,748.8837576019065,207.91552869702477,747.5036819034239,207.29745963150796C746.1236062049411,206.67939056599116,744.7621251296504,205.63743698603867,743.7023449809703,205.01936792052186C742.6425648322905,204.40129885500505,741.8844856102211,204.20711430392396,739.6586361609167,203.58904523840715C737.432786711612,202.97097617289037,733.7391670350722,201.9290225929379,731.5422900956296,200.8870690129854C729.345413156187,199.84511543303287,728.6452789538416,198.80316185308038,727.5848875707765,198.18509278756358C726.5244961877112,197.56702372204677,725.103847623926,197.37283917096565,723.7270944209232,197.17865461988455C722.3503412179203,196.98447006880346,721.0174833757001,196.79028551772237,719.2504919453796,196.17221645220556C717.4835005150594,195.55414738668878,715.282375496639,194.5121938067363,712.4413841279558,194.02191345513026C709.6003927592725,193.5316331035242,706.1195350403264,193.59302598026466,703.6973003489935,193.52663014309428C701.2750656576605,193.46023430592393,699.9114539939413,193.26604975484284,698.0584618856129,192.7717278411244C696.2054697772847,192.27740592740597,693.8630972243477,191.48294665105013,687.840853544274,186.84759909630603C681.8186098642001,182.21225154156193,672.1164950569896,173.7360157084295,666.6584250804825,169.40080551632278C661.2003551039754,165.06559532421602,659.9863299581718,164.87141077313493,659.056703439916,164.67722622205383C658.12707692166,164.4830416709727,657.4818490309516,164.28885711989162,656.8317050694018,164.09467256881052C656.181561107852,163.9004880177294,655.5265010754607,163.7063034666483,654.4301079871029,163.17689303034132C653.3337148987451,162.64748259403436,651.7959887544208,161.78284627250147,648.5065565470624,161.25343583619448C645.2171243397039,160.7240253998875,640.1759860693113,160.5298408488064,636.9078422823999,159.99289724653926C633.6396984954885,159.4559536442721,632.1445491920583,158.57625099081898,631.0622625201206,158.03930738855186C629.9799758481829,157.50236378628475,629.3105518077376,157.30817923520362,626.4365843439689,156.50912577026486C623.5626168802002,155.71007230532607,618.4841059931081,154.30614992652963,615.554206217127,153.50709646159083C612.6243064411459,152.70804299665204,611.8430177762758,152.51385844557095,610.8133409210706,151.71480498063218C609.7836640658653,150.9157515156934,608.5055990203247,149.51182913689695,605.983458068719,147.87267995826693C603.4613171171133,146.23353077963694,599.6951002594425,144.3591548011734,597.4777076744542,142.12857824010476C595.2603150894657,139.89800167903616,594.59174677716,137.31122453536247,593.9347526245351,135.32259553983693C593.2777584719105,133.33396654431138,592.6323384789667,131.943485696934,591.9869621456222,130.55300484955657C591.3415858122776,129.1625240021792,590.6962531385319,127.77204315480178,583.988863738126,125.18526601112808C577.2814743377202,122.59848886745438,564.5120282106542,118.81541542748438,555.6084256384042,116.2286382838107C546.7048230661543,113.641861140137,541.6670640487202,112.2513802927596,535.3978860429562,111.45904759353034C529.128708037192,110.6667148943011,521.6281110430979,110.47253034322,514.9919479124159,110.27834579213891C508.355784781734,110.08416124105781,502.5840555144642,109.8899766899767,494.0211287928059,109.34470518237386C485.4582020711476,108.79943367477101,474.1040778951008,107.90307521064642,466.9501512145339,106.1875138479711C459.79622453396695,104.4719524852958,456.84249534888005,101.93718822406977,453.5671520941021,100.57271381791622C450.2918088393241,99.20823941176265,446.69485151485515,99.01405486068154,443.14560976607663,97.06443552699174C439.59636801729795,95.11481619330193,436.0948418442097,91.40976207700345,433.92980585028,89.46014274331365C431.76476985635026,87.51052340962384,430.9362240415788,87.31633885854274,426.78647943694887,86.84825668180639C422.6367348323188,86.38017450507003,415.1657914378302,85.6381947026784,409.6486718537458,85.17011252594206C404.13155226966154,84.7020303492057,400.5682564959816,84.5078457981246,396.97306301931013,83.16827117612151C393.37786954263873,81.82869655411842,389.7507783629758,79.34373186119335,386.1546767666462,78.00415723919025C382.5585751703167,76.66458261718715,378.9934631573205,76.47039806610606,375.6920070964117,76.27621351502495C372.390551035503,76.08202896394384,369.35275092668167,75.88784441286275,365.66968814116734,75.69365986178164C361.9866253556531,75.49947531070053,357.65829989344576,75.30529075961944,352.547441609493,75.11110620853833C347.43658332554014,74.91692165745722,341.5431922198418,74.72273710637613,335.96494919723017,73.95585751983403C330.38670617461855,73.18897793329194,325.12361123509373,71.84940331128885,319.9661856229029,71.08252372474676C314.8087600107121,70.31564413820466,309.75700372585527,70.12145958712357,306.06033660930876,69.46542420099327C302.36366949276226,68.80938881486298,300.02209154452606,67.69150259368351,291.00088747654956,62.40464283479337C281.97968340857307,57.11778307590322,266.27885322085626,47.6619497793024,255.12968466611122,41.781011122112346C243.98051611136614,35.900072464922296,237.3830091895928,33.59402844714302,225.0628203357024,30.569188887987554C212.74263148181208,27.544349328832094,194.69976069580468,23.80071422830044,172.90843828463292,20.505242075931736C151.1171158734612,17.209769923563027,125.57734183712508,14.362460719357266,112.807454818957,12.938806117254385L100.03756780078895,11.515151515151503" />
    <path stroke="orange" d="M848.3601146449704,248.67240051586086L844.5949762502408,248.36528482362988C840.8298378555113,248.05816913139893,833.2995610660523,247.44393774693697,827.396700193342,245.7108854109475C821.4938393206318,243.97783307495806,817.2183943646705,241.12595978744108,814.3825068031043,239.55266241416916C811.546619241538,237.97936504089725,810.1502890743669,237.68464358187032,806.801156731407,237.30281980482644C803.4520243884468,236.9209960277826,798.1500898696978,236.45206993272177,794.4896602202781,233.8432744974202C790.8292305708586,231.2344790621186,788.8103057907683,226.48581428657624,785.5288720219372,223.9115219276823C782.247438253106,221.3372295687883,777.7034954955338,220.9373096265427,774.7203179109564,220.61575515427253C771.7371403263791,220.29420068200238,770.3147279147962,220.0510116797077,768.5294212827172,219.71950334013945C766.7441146506382,219.3879950005713,764.5959137980627,218.9681673237295,761.7273775884032,218.65432255048927C758.8588413787437,218.3404777772491,755.2699698119999,218.13261590761047,752.7761988677906,217.9353756921798C750.2824279235814,217.73813547674914,748.8837576019065,217.55151691552638,747.5036819034239,217.32462063001097C746.1236062049411,217.09772434449553,744.7621251296504,216.8305503346874,743.7023449809703,216.59677348150583C742.6425648322905,216.36299662832428,741.8844856102211,216.16261693176935,739.6586361609167,215.89591196206405C737.432786711612,215.6292069923588,733.7391670350722,215.29617674950316,731.5422900956296,214.9891443170045C729.345413156187,214.68211188450587,728.6452789538416,214.4010772623642,727.5848875707765,214.1571248933551C726.5244961877112,213.91317252434604,725.103847623926,213.7063024084696,723.7270944209232,213.45844860574155C722.3503412179203,213.21059480301346,721.0174833757001,212.92175731343374,719.2504919453796,211.9807431161138C717.4835005150594,211.03972891879388,715.282375496639,209.44653801373374,712.4413841279558,207.85236856818005C709.6003927592725,206.25819912262637,706.1195350403264,204.66305113657916,703.6973003489935,203.76522921873092C701.2750656576605,202.86740730088266,699.9114539939413,202.6669114512334,698.0584618856129,201.29190108910743C696.2054697772847,199.9168907269814,693.8630972243477,197.3673658523787,687.840853544274,192.9657531609125C681.8186098642001,188.5641404694463,672.1164950569896,182.3104399611166,666.6584250804825,179.08040811852348C661.2003551039754,175.85037627593033,659.9863299581718,175.6440130990737,659.056703439916,175.36573919021149C658.12707692166,175.0874652813493,657.4818490309516,174.73728064048154,656.8317050694018,174.45875326210947C656.181561107852,174.18022588373734,655.5265010754607,173.9733557678609,654.4301079871029,173.64008712976204C653.3337148987451,173.30681849166317,651.7959887544208,172.84715133134182,648.5065565470624,170.23683812219772C645.2171243397039,167.62652491305366,640.1759860693113,162.86556565508678,636.9078422823999,160.32900208860448C633.6396984954885,157.79243852212213,632.1445491920583,157.48027064712434,631.0622625201206,157.2207516516872C629.9799758481829,156.96123265625008,629.3105518077376,156.75436254037365,626.4365843439689,155.8506842298623C623.5626168802002,154.94700591935097,618.4841059931081,153.34651941420472,615.554206217127,152.41742843001336C612.6243064411459,151.488337445822,611.8430177762758,151.23064198258555,610.8133409210706,150.8353051967106C609.7836640658653,150.43996841083566,608.5055990203247,149.90699030232224,605.983458068719,148.86492602705832C603.4613171171133,147.82286175179436,599.6951002594425,146.27171130977993,597.4777076744542,145.20052787573758C595.2603150894657,144.1293444416952,594.59174677716,143.5381280156249,593.9347526245351,142.9903891285635C593.2777584719105,142.4426502415021,592.6323384789667,141.93838889344963,591.9869621456222,141.4149632017729C591.3415858122776,140.89153751009619,590.6962531385319,140.3489474747952,583.988863738126,139.12388089267463C577.2814743377202,137.89881431055406,564.5120282106542,135.99127118161383,555.6084256384042,133.89879288356974C546.7048230661543,131.80631458552563,541.6670640487202,129.52890111837763,535.3978860429562,128.28644192141002C529.128708037192,127.04398272444239,521.6281110430979,126.8364777976551,514.9919479124159,126.63382106122731C508.355784781734,126.43116432479951,502.5840555144642,126.23335577873117,494.0211287928059,125.92994650475525C485.4582020711476,125.62653723077933,474.1040778951008,125.21752722889585,466.9501512145339,123.95454368588521C459.79622453396695,122.69156014287462,456.84249534888005,120.5746030587369,453.5671520941021,119.40602932355769C450.2918088393241,118.2374555883785,446.69485151485515,118.01726520215782,443.14560976607663,115.21716749568772C439.59636801729795,112.41706978921768,436.0948418442097,107.03706476249822,433.92980585028,104.28105601293873C431.76476985635026,101.52504726337925,430.9362240415788,101.39303479097977,426.78647943694887,101.21254408541324C422.6367348323188,101.03205337984672,415.1657914378302,100.80308444111313,409.6486718537458,100.37338618261391C404.13155226966154,99.94368792411471,400.5682564959816,99.31326034584983,396.97306301931013,95.46885512102699C393.37786954263873,91.62444989620415,389.7507783629758,84.56606702482333,386.1546767666462,80.79578204284104C382.5585751703167,77.02549706085875,378.9934631573205,76.54330996827501,375.6920070964117,76.11283952449047C372.390551035503,75.68236908070593,369.35275092668167,75.30361528572058,365.66968814116734,75.0108033302897C361.9866253556531,74.71799137485881,357.65829989344576,74.51112125898239,352.547441609493,74.30696582133538C347.43658332554014,74.1028103836884,341.5431922198418,73.90136962427083,335.96494919723017,73.04153703454902C330.38670617461855,72.18170444482722,325.12361123509373,70.66348002480117,319.9661856229029,69.75014502313715C314.8087600107121,68.83681002147313,309.75700372585527,68.52836443817114,306.06033660930876,68.04048401120946C302.36366949276226,67.55260358424778,300.02209154452606,66.88528831362642,291.00088747654956,60.9333747024694C281.97968340857307,54.981461091312404,266.27885322085626,43.744949139619756,255.12968466611122,37.502415045918326C243.98051611136614,31.2598809522169,237.3830091895928,30.01132471650669,225.0628203357024,27.407474213827655C212.74263148181208,24.803623711148628,194.69976069580468,20.84447894150078,172.90843828463292,17.501195211233398C151.1171158734612,14.15791148096602,125.57734183712508,11.43048879007911,112.807454818957,10.066777444635655L100.03756780078895,8.703066099192199" />
  </g>
  
  <g class="axis y" stroke="black" fill="none" stroke-dasharray="4 6">
    <path d="M 0,285 h900" /><path d="M 0,190 h900" /><path d="M 0,95 h900" />
  </g>
  <g
    class="axis x"
    stroke="black" fill="none"
    transform="translate(0, 380)">
  
  <path d="M0,0 h900" />
  <g transform="translate(75, 0)">
      <text text-anchor="middle"
      fill="black"
      stroke="none"
      transform="translate(0, 12)">Mar</text>
      <path d="M0,0 v-5" />
    </g><g transform="translate(157, 0)">
      <text text-anchor="middle"
      fill="black"
      stroke="none"
      transform="translate(0, 12)">Apr</text>
      <path d="M0,0 v-5" />
    </g><g transform="translate(237, 0)">
      <text text-anchor="middle"
      fill="black"
      stroke="none"
      transform="translate(0, 12)">May</text>
      <path d="M0,0 v-5" />
    </g><g transform="translate(320, 0)">
      <text text-anchor="middle"
      fill="black"
      stroke="none"
      transform="translate(0, 12)">Jun</text>
      <path d="M0,0 v-5" />
    </g><g transform="translate(399, 0)">
      <text text-anchor="middle"
      fill="black"
      stroke="none"
      transform="translate(0, 12)">Jul</text>
      <path d="M0,0 v-5" />
    </g><g transform="translate(482, 0)">
      <text text-anchor="middle"
      fill="black"
      stroke="none"
      transform="translate(0, 12)">Aug</text>
      <path d="M0,0 v-5" />
    </g><g transform="translate(564, 0)">
      <text text-anchor="middle"
      fill="black"
      stroke="none"
      transform="translate(0, 12)">Sep</text>
      <path d="M0,0 v-5" />
    </g><g transform="translate(644, 0)">
      <text text-anchor="middle"
      fill="black"
      stroke="none"
      transform="translate(0, 12)">Oct</text>
      <path d="M0,0 v-5" />
    </g><g transform="translate(727, 0)">
      <text text-anchor="middle"
      fill="black"
      stroke="none"
      transform="translate(0, 12)">Nov</text>
      <path d="M0,0 v-5" />
    </g><g transform="translate(807, 0)">
      <text text-anchor="middle"
      fill="black"
      stroke="none"
      transform="translate(0, 12)">Dec</text>
      <path d="M0,0 v-5" />
    </g>
  
  </g>
</svg>