<svg xmlns="http://www.w3.org/2000/svg"
  viewBox="0 0 900 400"
  width="900"
  height="400">
  <style>
    text {
      font-family: "Courier New", Courier, monospace;
      font-size: 12px;
    }
  </style>
  <g class="lines" fill="none">
    <path stroke="darkblue" d="M808.59516765286,156.1240310077519L805.9446815791048,156.56886685772002C803.2941955053493,157.01370270768814,797.9932233578387,157.9033744076244,794.3337560796575,159.71639144520736C790.6742888014763,161.52940848279033,788.6563263926246,164.26577085802003,785.3758549950318,165.91887280746963C782.0953835974391,167.57197475691922,777.5524032111052,168.14181628058873,774.5701879977663,168.52326468673124C771.5879727844272,168.90471309287375,770.166522744083,169.0977683814893,768.3821784832422,169.52631506701357C766.5978342224016,169.95486175253782,764.4505957410646,170.6188998349708,761.5830219026434,171.04744652049507C758.7154480642222,171.47599320601933,755.1275388687168,171.6690484946349,752.634730295746,171.8621037832504C750.141921722775,172.05515907186592,748.7442137723388,172.24821436048148,747.3651004450944,172.8651541635327C745.9859871178501,173.482093966584,744.6254684137976,174.52291828407093,743.566650636356,175.13985808712218C742.5078328589146,175.7567978901734,741.7507160080837,175.9498531787889,739.5258289300176,176.56679298184017C737.3009418519514,177.1837327848914,733.6082845466499,178.22455710237833,731.4123699784456,179.2653814198653C729.2164554102415,180.30620573735223,728.5172835791345,181.34703005483917,727.4578545673077,181.96396985789042C726.3984255554809,182.58090966094164,724.9787393629341,182.77396494955715,723.6029485311698,182.96702023817272C722.2271576994053,183.1600755267883,720.8952622284233,183.3531308154038,719.1292331693415,183.97007061845503C717.3632041102595,184.58701042150628,715.1630414630775,185.62783473899322,712.3230124656326,186.1169858281337C709.4829834681879,186.60613691727417,706.0030881204799,186.54361477806813,703.5818158003855,186.6088813527729C701.160543480291,186.67414792747772,699.7978941878101,186.86720321609323,697.9458644507204,187.36039586734614C696.0938347136304,187.85358851859905,693.7524245319319,188.6469185324893,687.7311432230964,193.2811368247679C681.7098619142611,197.91535511704646,672.0087094782889,206.39046168771327,666.5516018730203,210.72454261735444C661.0944942677515,215.05862354699562,659.8814314931864,215.2516788356112,658.9527673461688,215.44473412422676C658.0241031991513,215.63778941284227,657.3798376796814,215.83084470145778,656.73065608937,216.02389999007335C656.0814744990586,216.2169552786889,655.4273768379057,216.41001056730443,654.3319461207863,216.93829174114583C653.2365154036669,217.46657291498727,651.6997516305811,218.33007997405457,648.411281794461,218.85836114789603C645.1228119583409,219.38664232173744,640.0826360591866,219.579697610353,636.8154546435136,220.11551195015454C633.5482732278406,220.65132628995607,632.0540862956489,221.52989968094369,630.9727619949496,222.06571402074528C629.8914376942503,222.6015283605468,629.2229760250433,222.79458364916232,626.349970932513,223.59250785163556C623.4769658399827,224.3904320541088,618.3994173241289,225.79322517043968,615.4704799193862,226.5911493729129C612.5415425146435,227.3890735753861,611.761216221012,227.58212886400167,610.732501737045,228.38005306647491C609.7037872530781,229.1779772689481,608.426684578776,230.58077038527904,605.9055059984086,232.21879030144342C603.3843274180414,233.8568102176079,599.6190729316089,235.73005693360588,597.4026427178591,237.95950423220893C595.186212504109,240.18895153081198,594.5186065630415,242.77459941202014,593.8625747816553,244.76209914508013C593.2065430002689,246.7495988781401,592.5620853785637,248.13895046305194,591.9176714164574,249.52830204796376C591.2732574543512,250.9176536328756,590.628887151844,252.30700521778746,583.9224601226765,254.89265309899557C577.216033093509,257.47830098020376,564.4475493376816,261.26024515770814,555.54490913667,263.8458930389163C546.6422689356583,266.4315409201244,541.6054722894627,267.8208925050363,535.337256654937,268.61209594179996C529.0690410204112,269.40329937856364,521.5694063975556,269.5963546671792,514.9342056381118,269.7894099557947C508.2990048786684,269.98246524441026,502.528237982637,270.1755205330258,493.9662736322172,270.7196627781631C485.4043092817972,271.2638050233004,474.0511474769889,272.15903422495944,466.8981831676603,273.8734663251692C459.74521885833184,275.5878984253789,456.79245204448324,278.1215334241394,453.5180711609437,279.48487856782737C450.24369027740414,280.8482237115154,446.6476953241736,281.04127900013094,443.0994159466334,282.98976907135517C439.5511365690932,284.9382591425794,436.05057276724347,288.6421839964123,433.88649914455203,290.59067406763654C431.72242552186066,292.53916413886077,430.89484207832766,292.73221942747637,426.7460598449361,293.19917234174716C422.5972776115445,293.66612525601795,415.1272965882942,294.406975795944,409.6111393754483,294.87392871021484C404.0949821626023,295.34088162448563,400.5326487601608,295.5339369131012,396.93841765472774,296.87238227263873C393.34418654929476,298.21082763217623,389.71805774087017,300.69466306263575,386.1229185157791,302.03310842217326C382.52777929068793,303.3715537817108,378.96362964893007,303.5646090703263,375.66313595925976,303.75766435894184C372.36264226958946,303.9507196475574,369.3258045320065,304.143774936173,365.6437041177306,304.3368302247885C361.9616037034547,304.52988551340405,357.6342406124858,304.7229408020196,352.52434469977135,304.91599609063513C347.414448787057,305.1090513792507,341.52202005259704,305.3021066678662,335.9447394012238,306.06785699194273C330.3674587498506,306.83360731601925,325.1053261815642,308.1720526755568,319.9488629406117,308.93780299963333C314.79239969965926,309.70355332370985,309.7416057860409,309.8966086123254,306.04590104073276,310.5515147359901C302.35019629542467,311.2064208596548,300.00958071842683,312.3231778183688,290.98933902168875,317.6089083147933C281.96909732495067,322.89463881121793,266.2692295084723,332.3493428453532,255.1210233249656,338.22915224007767C243.97281714145893,344.1089616348022,237.376272590924,346.41387639011595,225.05704610827203,349.43758668680584C212.7378196256201,352.4612969834957,194.6959112108511,356.2038028215618,172.90555117091776,359.498145711465C151.1151911309844,362.7924886013681,125.57637946588666,365.6386685431083,112.8069736333378,367.0617585139784L100.03756780078895,368.4848484848485" />
    <path stroke="blue" d="M808.59516765286,142.41071401370328L805.9446815791048,142.64578119415324C803.2941955053493,142.88084837460323,797.9932233578387,143.35098273550315,794.3337560796575,145.96098643664382C790.6742888014763,148.57099013778452,788.6563263926246,153.32086317916597,785.3758549950318,155.89636380389905C782.0953835974391,158.47186442863213,777.5524032111052,158.87299263671687,774.5701879977663,159.19575537482615C771.5879727844272,159.51851811293542,770.166522744083,159.7629153810692,768.3821784832422,160.09563198647652C766.5978342224016,160.42834859188386,764.4505957410646,160.8493845345647,761.5830219026434,161.16443757364402C758.7154480642222,161.4794906127233,755.1275388687168,161.68856074820107,752.634730295746,161.88700922947086C750.141921722775,162.08545771074066,748.7442137723388,162.27328453780248,747.3651004450944,162.50138908915707C745.9859871178501,162.7294936405116,744.6254684137976,162.99787591615885,743.566650636356,163.23286103517952C742.5078328589146,163.46784615420017,741.7507160080837,163.66943411659423,739.5258289300176,163.93734735213863C737.3009418519514,164.20526058768303,733.6082845466499,164.53949909637774,731.4123699784456,164.8477397947155C729.2164554102415,165.15598049305325,728.5172835791345,165.43822338103405,727.4578545673077,165.6833840158822C726.3984255554809,165.92854465073037,724.9787393629341,166.13662303244593,723.6029485311698,166.38568510101314C722.2271576994053,166.63474716958032,720.8952622284233,166.92479292499917,719.1292331693415,167.8670153881582C717.3632041102595,168.80923785131725,715.1630414630775,170.4036370222165,712.3230124656326,171.9990147336093C709.4829834681879,173.5943924450021,706.0030881204799,175.1907486968884,703.5818158003855,176.08977888057575C701.160543480291,176.9888090642631,699.7978941878101,177.1905131797515,697.9458644507204,178.5667318077166C696.0938347136304,179.94295043568172,693.7524245319319,182.49368357612354,687.7311432230964,186.89650453342884C681.7098619142611,191.29932549073416,672.0087094782889,197.55423426490293,666.5516018730203,200.78547437333518C661.0944942677515,204.01671448176742,659.8814314931864,204.22428592446317,658.9527673461688,204.50376809916452C658.0241031991513,204.78325027386578,657.3798376796814,205.13464318057268,656.73065608937,205.41437882478388C656.0814744990586,205.69411446899508,655.4273768379057,205.90219285071066,654.3319461207863,206.2366697546487C653.2365154036669,206.57114665858663,651.6997516305811,207.03202208474707,648.411281794461,209.64354355973032C645.1228119583409,212.2550650347135,640.0826360591866,217.01723255851945,636.8154546435136,219.55500439084094C633.5482732278406,222.09277622316233,632.0540862956489,222.40615236399924,630.9727619949496,222.66687962527547C629.8914376942503,222.92760688655167,629.2229760250433,223.13568526826725,626.349970932513,224.0405718446177C623.4769658399827,224.94545842096815,618.3994173241289,226.5471531919535,615.4704799193862,227.47745244198396C612.5415425146435,228.40775169201444,611.761216221012,228.66665542109,610.732501737045,229.06320047280406C609.7037872530781,229.45974552451813,608.426684578776,229.99393189887064,605.9055059984086,231.0372044399737C603.3843274180414,232.0804769810767,599.6190729316089,233.6328356889303,597.4026427178591,234.70522738881175C595.186212504109,235.77761908869329,594.5186065630415,236.37004378060269,593.8625747816553,236.91899093350312C593.2065430002689,237.46793808640368,592.5620853785637,237.97340770029527,591.9176714164574,238.49804165781111C591.2732574543512,239.0226756153269,590.628887151844,239.566473916467,583.9224601226765,240.7927487644267C577.216033093509,242.0190236123864,564.4475493376816,243.9277750071657,555.54490913667,246.02146157104895C546.6422689356583,248.11514813493216,541.6054722894627,250.39376986791925,535.337256654937,251.637437330726C529.0690410204112,252.88110479353273,521.5694063975556,253.08981798615912,514.9342056381118,253.293682988426C508.2990048786684,253.49754799069294,502.528237982637,253.6965648026004,493.9662736322172,254.00118234241543C485.4043092817972,254.30579988223045,474.0511474769889,254.71601814995304,466.8981831676603,255.9802099588028C459.74521885833184,257.2444017676525,456.79245204448324,259.36256711762934,453.5180711609437,260.5323491186477C450.24369027740414,261.7021311196659,446.6476953241736,261.9235297717257,443.0994159466334,264.7248357440349C439.5511365690932,267.52614171634406,436.05057276724347,272.90735500890264,433.88649914455203,275.66457202430126C431.72242552186066,278.42178903969983,430.89484207832766,278.5550097779385,426.7460598449361,278.73670874934413C422.5972776115445,278.9184077207497,415.1272965882942,279.1485849253224,409.6111393754483,279.57949144966074C404.0949821626023,280.01039797399903,400.5326487601608,280.6420338181031,396.93841765472774,284.487647308765C393.34418654929476,288.333260799427,389.71805774087017,295.3928519366469,386.1229185157791,299.16434518446835C382.52777929068793,302.9358384322897,378.96362964893007,303.41923379071255,375.66313595925976,303.8509125003362C372.36264226958946,304.2825912099599,369.3258045320065,304.6625532707843,365.6437041177306,304.9565734920543C361.9616037034547,305.2505937133243,357.6342406124858,305.45867209503984,352.52434469977135,305.66403579852596C347.414448787057,305.8693995020121,341.52202005259704,306.0720485272687,335.9447394012238,306.9330893828296C330.3674587498506,307.79413023839055,325.1053261815642,309.3135629242557,319.9488629406117,310.22810619175885C314.79239969965926,311.142649459262,309.7416057860409,311.4523033084031,306.04590104073276,311.9413920012039C302.35019629542467,312.4304806940047,300.00958071842683,313.09900423046514,290.98933902168875,319.0521261074613C281.96909732495067,325.0052479844574,266.2692295084723,336.2429682019892,255.1210233249656,342.4867105615297C243.97281714145893,348.73045292107025,237.376272590924,349.98021742261955,225.05704610827203,352.58527619113767C212.7378196256201,355.1903349596558,194.6959112108511,359.1506879951428,172.90555117091776,362.49517999124924C151.1151911309844,365.83967198735576,125.57637946588666,368.5683029440818,112.8069736333378,369.9326184224448L100.03756780078895,371.2969339008078" />
    
    <path stroke="darkorange" d="M808.59516765286,223.8759689922481L805.9446815791048,223.43113314227995C803.2941955053493,222.98629729231186,797.9932233578387,222.09662559237563,794.3337560796575,220.28360855479266C790.6742888014763,218.47059151720967,788.6563263926246,215.73422914198,785.3758549950318,214.08112719253037C782.0953835974391,212.42802524308078,777.5524032111052,211.85818371941127,774.5701879977663,211.47673531326873C771.5879727844272,211.09528690712622,770.166522744083,210.90223161851068,768.3821784832422,210.47368493298643C766.5978342224016,210.04513824746218,764.4505957410646,209.3811001650292,761.5830219026434,208.95255347950493C758.7154480642222,208.52400679398067,755.1275388687168,208.3309515053651,752.634730295746,208.1378962167496C750.141921722775,207.94484092813403,748.7442137723388,207.7517856395185,747.3651004450944,207.13484583646724C745.9859871178501,206.517906033416,744.6254684137976,205.4770817159291,743.566650636356,204.86014191287782C742.5078328589146,204.2432021098266,741.7507160080837,204.0501468212111,739.5258289300176,203.43320701815983C737.3009418519514,202.8162672151086,733.6082845466499,201.77544289762167,731.4123699784456,200.7346185801347C729.2164554102415,199.69379426264777,728.5172835791345,198.65296994516083,727.4578545673077,198.03603014210958C726.3984255554809,197.41909033905836,724.9787393629341,197.22603505044285,723.6029485311698,197.03297976182728C722.2271576994053,196.8399244732117,720.8952622284233,196.6468691845962,719.1292331693415,196.02992938154492C717.3632041102595,195.4129895784937,715.1630414630775,194.37216526100678,712.3230124656326,193.8830141718663C709.4829834681879,193.39386308272583,706.0030881204799,193.4563852219318,703.5818158003855,193.39111864722705C701.160543480291,193.32585207252228,699.7978941878101,193.13279678390674,697.9458644507204,192.63960413265383C696.0938347136304,192.14641148140092,693.7524245319319,191.35308146751063,687.7311432230964,186.71886317523214C681.7098619142611,182.0846448829536,672.0087094782889,173.60953831228676,666.5516018730203,169.27545738264556C661.0944942677515,164.94137645300438,659.8814314931864,164.7483211643888,658.9527673461688,164.55526587577327C658.0241031991513,164.36221058715773,657.3798376796814,164.1691552985422,656.73065608937,163.97610000992665C656.0814744990586,163.78304472131111,655.4273768379057,163.58998943269557,654.3319461207863,163.06170825885417C653.2365154036669,162.53342708501273,651.6997516305811,161.6699200259454,648.411281794461,161.14163885210397C645.1228119583409,160.61335767826256,640.0826360591866,160.420302389647,636.8154546435136,159.88448804984543C633.5482732278406,159.34867371004387,632.0540862956489,158.4701003190563,630.9727619949496,157.93428597925472C629.8914376942503,157.39847163945316,629.2229760250433,157.20541635083762,626.349970932513,156.4074921483644C623.4769658399827,155.6095679458912,618.3994173241289,154.20677482956032,615.4704799193862,153.40885062708708C612.5415425146435,152.61092642461384,611.761216221012,152.4178711359983,610.732501737045,151.61994693352509C609.7037872530781,150.82202273105187,608.426684578776,149.41922961472096,605.9055059984086,147.78120969855652C603.3843274180414,146.1431897823921,599.6190729316089,144.26994306639412,597.4026427178591,142.04049576779107C595.186212504109,139.811048469188,594.5186065630415,137.22540058797986,593.8625747816553,135.2379008549199C593.2065430002689,133.2504011218599,592.5620853785637,131.86104953694806,591.9176714164574,130.47169795203624C591.2732574543512,129.0823463671244,590.628887151844,127.69299478221255,583.9224601226765,125.1073469010044C577.216033093509,122.52169901979626,564.4475493376816,118.73975484229184,555.54490913667,116.15410696108371C546.6422689356583,113.56845907987558,541.6054722894627,112.17910749496373,535.337256654937,111.38790405820005C529.0690410204112,110.59670062143636,521.5694063975556,110.40364533282082,514.9342056381118,110.21059004420528C508.2990048786684,110.01753475558974,502.528237982637,109.82447946697418,493.9662736322172,109.28033722183689C485.4043092817972,108.73619497669961,474.0511474769889,107.8409657750406,466.8981831676603,106.12653367483085C459.74521885833184,104.4121015746211,456.79245204448324,101.87846657586063,453.5180711609437,100.51512143217263C450.24369027740414,99.15177628848464,446.6476953241736,98.95872099986907,443.0994159466334,97.01023092864484C439.5511365690932,95.0617408574206,436.05057276724347,91.35781600358767,433.88649914455203,89.40932593236342C431.72242552186066,87.46083586113919,430.89484207832766,87.26778057252363,426.7460598449361,86.80082765825284C422.5972776115445,86.33387474398205,415.1272965882942,85.593024204056,409.6111393754483,85.1260712897852C404.0949821626023,84.65911837551441,400.5326487601608,84.46606308689887,396.93841765472774,83.12761772736133C393.34418654929476,81.7891723678238,389.71805774087017,79.30533693736427,386.1229185157791,77.96689157782674C382.52777929068793,76.62844621828921,378.96362964893007,76.43539092967367,375.66313595925976,76.24233564105812C372.36264226958946,76.0492803524426,369.3258045320065,75.85622506382705,365.6437041177306,75.66316977521151C361.9616037034547,75.47011448659596,357.6342406124858,75.27705919798042,352.52434469977135,75.08400390936488C347.414448787057,74.89094862074934,341.52202005259704,74.6978933321338,335.9447394012238,73.93214300805727C330.3674587498506,73.16639268398073,325.1053261815642,71.8279473244432,319.9488629406117,71.06219700036668C314.79239969965926,70.29644667629015,309.7416057860409,70.10339138767459,306.04590104073276,69.44848526400988C302.35019629542467,68.79357914034513,300.00958071842683,67.67682218163122,290.98933902168875,62.39109168520664C281.96909732495067,57.10536118878205,266.2692295084723,47.65065715464679,255.1210233249656,41.770847759922304C243.97281714145893,35.891038365197815,237.376272590924,33.5861236098841,225.05704610827203,30.562413313194195C212.7378196256201,27.53870301650429,194.6959112108511,23.796197178438195,172.90555117091776,20.501854288535053C151.1151911309844,17.207511398631905,125.57637946588666,14.361331456891705,112.8069736333378,12.938241486021603L100.03756780078895,11.515151515151503" />
    <path stroke="orange" d="M808.59516765286,237.58928598629672L805.9446815791048,237.35421880584678C803.2941955053493,237.11915162539677,797.9932233578387,236.64901726449685,794.3337560796575,234.03901356335618C790.6742888014763,231.42900986221548,788.6563263926246,226.67913682083403,785.3758549950318,224.10363619610095C782.0953835974391,221.52813557136787,777.5524032111052,221.12700736328313,774.5701879977663,220.80424462517385C771.5879727844272,220.48148188706463,770.166522744083,220.23708461893082,768.3821784832422,219.90436801352348C766.5978342224016,219.57165140811617,764.4505957410646,219.1506154654353,761.5830219026434,218.83556242635598C758.7154480642222,218.52050938727666,755.1275388687168,218.31143925179893,752.634730295746,218.11299077052914C750.141921722775,217.91454228925934,748.7442137723388,217.7267154621975,747.3651004450944,217.49861091084293C745.9859871178501,217.2705063594884,744.6254684137976,217.00212408384115,743.566650636356,216.76713896482048C742.5078328589146,216.53215384579983,741.7507160080837,216.3305658834058,739.5258289300176,216.06265264786143C737.3009418519514,215.794739412317,733.6082845466499,215.46050090362226,731.4123699784456,215.1522602052845C729.2164554102415,214.84401950694675,728.5172835791345,214.56177661896595,727.4578545673077,214.3166159841178C726.3984255554809,214.07145534926963,724.9787393629341,213.86337696755405,723.6029485311698,213.61431489898686C722.2271576994053,213.36525283041968,720.8952622284233,213.0752070750008,719.1292331693415,212.1329846118418C717.3632041102595,211.19076214868275,715.1630414630775,209.5963629777835,712.3230124656326,208.0009852663907C709.4829834681879,206.4056075549979,706.0030881204799,204.8092513031116,703.5818158003855,203.91022111942425C701.160543480291,203.0111909357369,699.7978941878101,202.8094868202485,697.9458644507204,201.4332681922834C696.0938347136304,200.0570495643183,693.7524245319319,197.50631642387646,687.7311432230964,193.10349546657116C681.7098619142611,188.7006745092658,672.0087094782889,182.44576573509707,666.5516018730203,179.2145256266648C661.0944942677515,175.98328551823252,659.8814314931864,175.7757140755368,658.9527673461688,175.49623190083548C658.0241031991513,175.21674972613417,657.3798376796814,174.86535681942732,656.73065608937,174.58562117521612C656.0814744990586,174.30588553100492,655.4273768379057,174.09780714928937,654.3319461207863,173.76333024535134C653.2365154036669,173.42885334141337,651.6997516305811,172.96797791525293,648.411281794461,170.35645644026974C645.1228119583409,167.74493496528652,640.0826360591866,162.98276744148055,636.8154546435136,160.44499560915912C633.5482732278406,157.90722377683767,632.0540862956489,157.59384763600076,630.9727619949496,157.33312037472453C629.8914376942503,157.0723931134483,629.2229760250433,156.86431473173275,626.349970932513,155.95942815538228C623.4769658399827,155.05454157903185,618.3994173241289,153.45284680804647,615.4704799193862,152.52254755801604C612.5415425146435,151.59224830798556,611.761216221012,151.33334457890996,610.732501737045,150.93679952719592C609.7037872530781,150.54025447548187,608.426684578776,150.00606810112933,605.9055059984086,148.9627955600263C603.3843274180414,147.9195230189233,599.6190729316089,146.36716431106973,597.4026427178591,145.29477261118822C595.186212504109,144.22238091130677,594.5186065630415,143.62995621939731,593.8625747816553,143.08100906649682C593.2065430002689,142.53206191359632,592.5620853785637,142.02659229970473,591.9176714164574,141.5019583421889C591.2732574543512,140.9773243846731,590.628887151844,140.433526083533,583.9224601226765,139.2072512355733C577.216033093509,137.9809763876136,564.4475493376816,136.0722249928343,555.54490913667,133.97853842895105C546.6422689356583,131.88485186506784,541.6054722894627,129.60623013208075,535.337256654937,128.362562669274C529.0690410204112,127.11889520646726,521.5694063975556,126.91018201384088,514.9342056381118,126.70631701157397C508.2990048786684,126.50245200930708,502.528237982637,126.30343519739961,493.9662736322172,125.9988176575846C485.4043092817972,125.69420011776957,474.0511474769889,125.28398185004694,466.8981831676603,124.01979004119721C459.74521885833184,122.75559823234751,456.79245204448324,120.63743288237066,453.5180711609437,119.46765088135236C450.24369027740414,118.29786888033404,446.6476953241736,118.07647022827423,443.0994159466334,115.27516425596507C439.5511365690932,112.47385828365589,436.05057276724347,107.09264499109732,433.88649914455203,104.33542797569874C431.72242552186066,101.57821096030015,430.89484207832766,101.44499022206155,426.7460598449361,101.26329125065591C422.5972776115445,101.08159227925024,415.1272965882942,100.85141507467758,409.6111393754483,100.42050855033926C404.0949821626023,99.98960202600092,400.5326487601608,99.35796618189694,396.93841765472774,95.51235269123498C393.34418654929476,91.66673920057303,389.71805774087017,84.60714806335311,386.1229185157791,80.83565481553171C382.52777929068793,77.06416156771031,378.96362964893007,76.58076620928745,375.66313595925976,76.14908749966379C372.36264226958946,75.71740879004014,369.3258045320065,75.3374467292157,365.6437041177306,75.04342650794571C361.9616037034547,74.74940628667571,357.6342406124858,74.54132790496016,352.52434469977135,74.33596420147404C347.414448787057,74.13060049798794,341.52202005259704,73.92795147273127,335.9447394012238,73.06691061717036C330.3674587498506,72.20586976160943,325.1053261815642,70.68643707574428,319.9488629406117,69.77189380824115C314.79239969965926,68.85735054073801,309.7416057860409,68.54769669159693,306.04590104073276,68.05860799879613C302.35019629542467,67.56951930599534,300.00958071842683,66.90099576953486,290.98933902168875,60.947873892538745C281.96909732495067,54.99475201554262,266.2692295084723,43.75703179801087,255.1210233249656,37.51328943847033C243.97281714145893,31.26954707892979,237.376272590924,30.019782577380468,225.05704610827203,27.414723808862323C212.7378196256201,24.809665040344186,194.6959112108511,20.84931200485722,172.90555117091776,17.50482000875073C151.1151911309844,14.160328012644241,125.57637946588666,11.431697055918221,112.8069736333378,10.06738157755521L100.03756780078895,8.703066099192199" />
  </g>
  
  <g class="axis y" stroke="black" fill="none" stroke-dasharray="4 6">
    <path d="M 0,285 h900" /><path d="M 0,190 h900" /><path d="M 0,95 h900" />
  </g>
  <g
    class="axis x"
    stroke="black" fill="none"
    transform="translate(0, 380)">
  
  <path d="M0,0 h900" />
  <g transform="translate(75, 0)">
      <text text-anchor="middle"
      fill="black"
      stroke="none"
      transform="translate(0, 12)">Mar</text>
      <path d="M0,0 v-5" />
    </g><g transform="translate(157, 0)">
      <text text-anchor="middle"
      fill="black"
      stroke="none"
      transform="translate(0, 12)">Apr</text>
      <path d="M0,0 v-5" />
    </g><g transform="translate(237, 0)">
      <text text-anchor="middle"
      fill="black"
      stroke="none"
      transform="translate(0, 12)">May</text>
      <path d="M0,0 v-5" />
    </g><g transform="translate(320, 0)">
      <text text-anchor="middle"
      fill="black"
      stroke="none"
      transform="translate(0, 12)">Jun</text>
      <path d="M0,0 v-5" />
    </g><g transform="translate(399, 0)">
      <text text-anchor="middle"
      fill="black"
      stroke="none"
      transform="translate(0, 12)">Jul</text>
      <path d="M0,0 v-5" />
    </g><g transform="translate(482, 0)">
      <text text-anchor="middle"
      fill="black"
      stroke="none"
      transform="translate(0, 12)">Aug</text>
      <path d="M0,0 v-5" />
    </g><g transform="translate(564, 0)">
      <text text-anchor="middle"
      fill="black"
      stroke="none"
      transform="translate(0, 12)">Sep</text>
      <path d="M0,0 v-5" />
    </g><g transform="translate(644, 0)">
      <text text-anchor="middle"
      fill="black"
      stroke="none"
      transform="translate(0, 12)">Oct</text>
      <path d="M0,0 v-5" />
    </g><g transform="translate(727, 0)">
      <text text-anchor="middle"
      fill="black"
      stroke="none"
      transform="translate(0, 12)">Nov</text>
      <path d="M0,0 v-5" />
    </g><g transform="translate(807, 0)">
      <text text-anchor="middle"
      fill="black"
      stroke="none"
      transform="translate(0, 12)">Dec</text>
      <path d="M0,0 v-5" />
    </g>
  
  </g>
</svg>