<svg xmlns="http://www.w3.org/2000/svg"
  viewBox="0 0 900 460"
  width="900"
  height="460">
  <style>
    text {
      font-family: "Courier New", Courier, monospace;
    }
    .legend {
      font-size: 12px;
    }
  </style>
  <g class="lines" fill="none" transform="translate(20, 80)">>
    <path stroke="darkblue" d="M879.8326737027264,58.77551020408162L870.9258901268105,59.463143034571594C862.0191065508944,60.15077586506157,844.2055393990626,61.52604152604152,834.5106668199368,62.60400330043186C824.8157942408106,63.68196507482221,823.2396162343906,64.46262296262296,810.6269024796565,65.56492032206319C798.0141887249221,66.6672176815034,774.3649392218736,68.09115451258309,755.0356469802585,69.64326594683737C735.7063547386437,71.19537738109166,720.6970197584623,72.87566341852056,710.3012624039771,74.10066407938747C699.905505049492,75.3256647402544,694.1233253207033,76.09538002455935,680.7699219771388,77.35225336357554C667.4165186335741,78.60912670259172,646.4918916752339,80.35315809631918,626.8347149239444,81.5243402763556C607.1775381726549,82.69552245639203,588.787811628416,83.29385542273742,564.6449403868743,85.44055404438465C540.5020691453327,87.58725266603189,510.60605320648807,91.28231694298097,483.0652339200183,93.35388157707457C455.52441463354836,95.42544621116816,430.33879199945324,95.87351120240629,412.9339688468151,97.91273533852568C395.52914569417703,99.95195947464504,385.90512202299595,103.58234275564568,380.3600774360277,106.28631159721556C374.8150328490595,108.99028043878542,373.3489673463041,110.76783484092454,372.0944323239796,112.54538924306365C370.8398973016552,114.32294364520278,369.7968927597617,116.1004980473419,361.47731289171753,118.66875012389961C353.1577330236734,121.23700220045735,337.5615778294786,124.59595195143368,327.95468233735056,126.23057254319713C318.3477868452226,127.86519313496058,314.73015105516134,127.77548456751116,305.4020995145872,128.6133251950528C296.0740479740129,129.4511658225944,281.0355806829257,131.21655564512707,272.6753238231635,132.05058903783004C264.3150669634014,132.884622430533,262.6330205349644,132.78729939340624,258.6564055232673,133.28381902363125C254.6797905115703,133.7803386538562,248.4086069166132,134.87070095143295,243.20098628889446,136.54866366175597C237.99336566117572,138.22662637207904,233.8493080006953,140.49218949514838,230.98907725131133,142.1183994205433C228.12884650192737,143.74460934593824,226.5524426636399,144.73146607365877,223.2344896553876,145.6529501590061C219.9165366471353,146.5744342443534,214.85703446891816,147.43054568732757,211.26146011611877,149.16140534491439C207.66588576331938,150.8922650025012,205.53423923593778,153.49787287470076,202.27666120936237,155.07723402774022C199.019083182787,156.65659518077965,194.63557365701783,157.209709614659,191.64398663381385,157.58434635824963C188.65239961060993,157.95898310184023,187.0527350899712,158.15514215514216,185.12943403495842,158.57439832130493C183.20613297994564,158.99365448746775,180.95919539055876,159.63600776649145,178.06984790488048,160.05526393265424C175.18050041920216,160.47452009881704,171.6487430372325,160.67067915211896,169.09361892812996,160.86683820542086C166.53849481902748,161.0629972587228,164.96000398279216,161.25915631202471,163.39809621420562,161.8568901684762C161.83618844561911,162.45462402492774,160.29086374468136,163.45393268452887,159.01460213924346,164.0516665409804C157.7383405338056,164.6494003974319,156.73114202386753,164.84555945073382,154.41495581787262,165.44329330718531C152.0987696118777,166.0410271636368,148.4735957098259,167.04033582323794,146.18324778439387,168.03964448283907C143.89289985896184,169.0389531424402,142.9373779101496,170.03826180204132,141.66057119330742,170.63599565849287C140.38376447646525,171.23372951494437,138.78567299159317,171.42988856824627,137.2267282928542,171.6260476215482C135.66778359411524,171.82220667485012,134.14798568150934,172.01836572815202,132.24101850036052,172.61609958460352C130.33405131921168,173.21383344105504,128.03991486951992,174.2131421006562,125.17513243991023,174.6898129649817C122.31035001030052,175.16648382930723,118.87492160077294,175.12051689835712,116.38359499423565,175.19561295953307C113.89226838769838,175.270709020709,112.34504358415143,175.4668680740109,110.36137922842038,175.94736778665347C108.37771487268931,176.42786749929607,105.95761096477412,177.19270787127928,100.2557222521829,181.59628450699878C94.55383353959168,185.9998611427183,85.57016002232443,194.04217404217403,80.37141302953678,198.16141001855286C75.17266603674915,202.2806459949317,73.75884556844113,202.47680504823362,72.59865764923894,202.6729641015355C71.43846973003677,202.86912315483744,70.53191435994042,203.06528220813937,69.6209747366925,203.26144126144126C68.71003511344458,203.4576003147432,67.79471123704509,203.65375936804506,66.48579745849081,204.1675008389294C65.17688367993652,204.6812423098137,63.47437999922746,205.5125661982805,60.209668800561765,206.02630766916482C56.94495760189608,206.54004914004918,52.11803888527379,206.73620819335108,48.8723131380886,207.25708634777655C45.62658739090343,207.77796450220208,43.962054613155374,208.62356175775116,42.6657212270813,209.1444399121767C41.36938784100723,209.66531806660217,40.44125384660715,209.8614771199041,37.547062656736536,210.63066988107119C34.652871466865925,211.39986264223828,29.792623081524784,212.7420891112705,26.848550304509644,213.5112818724376C23.904477527494507,214.28047463360463,22.87658035880537,214.47663368690655,21.62716549002828,215.24582644807364C20.377750621251195,216.0150192092407,18.90681805238616,217.35724567827296,16.326392986819275,218.92231858925277C13.745967921252385,220.48739150023258,10.056050358983645,222.27531085316,7.747406158632232,224.40068338960796C5.438761958280821,226.52605592605596,4.511391119846739,228.9888816460245,3.5943423552179965,230.8850406993264C2.677293590589253,232.78119975262828,1.7705668997658481,234.11069213926353,0.8638791454713205,235.4401845258988C-0.042808608823207216,236.76967691253404,-0.9494574265888575,238.0991692991693,-7.262373193196495,240.56199501913787C-13.575288959804134,243.02482073910645,-25.29447167525376,246.62097979240835,-33.56601554762218,249.08380551237693C-41.83755941999059,251.5466312323455,-46.661464449277794,252.87612361898073,-52.58357427554535,253.6389493389493C-58.50568410181291,254.40177505891788,-65.52599872506083,254.5979341122198,-71.77539343845827,254.79409316552173C-78.0247881518557,254.9902522188236,-83.50326295540265,255.1864112721255,-91.47098509294256,255.7151790210796C-99.43870723048246,256.2439467700337,-109.89567670201535,257.10532321463995,-116.60682360501994,258.74278661576795C-123.31797050802453,260.38025001689596,-126.28329484250082,262.7938003745457,-129.53544122329785,264.0986550800215C-132.78758760409485,265.40350978549736,-136.32655603121262,265.59966883879923,-139.82297072592053,267.45887137036203C-143.31938542062844,269.31807390192483,-146.77324638292646,272.8403199117485,-149.03519789784838,274.69952244331125C-151.2971494127703,276.55872497487405,-152.36719148031608,276.754884028176,-156.39914698050626,277.21052504262497C-160.4311024806964,277.66616605707395,-167.42497141353098,278.38128903267005,-172.67638006162497,278.836930047119C-177.92778870971895,279.292571061568,-181.43673707307244,279.4887301148699,-184.97413246442352,280.76999555115054C-188.5115278557746,282.0512609874312,-192.07737027512337,284.41763280669056,-195.61557554627515,285.6988982429712C-199.15378081742688,286.9801636792518,-202.66434894038164,287.17632273255373,-205.9397832591001,287.37248178585565C-209.2152175778186,287.5686408391576,-212.25551809230078,287.76479989245945,-215.87127714167002,287.9609589457614C-219.48703619103935,288.1571179990633,-223.67825377529576,288.3532770523652,-228.56735023488196,288.5494361056671C-233.45644669446824,288.745595158969,-239.0434220293843,288.94175421227095,-244.3493418179063,289.6804664570622C-249.65526160642835,290.41917870185347,-254.68012584855637,291.7004441381341,-259.610752009843,292.4391563829254C-264.54137817112957,293.1778686277167,-269.37776625157477,293.37402768101856,-273.0056579233422,294.00772963068283C-276.6335495951096,294.64143158034716,-279.0529448581992,295.71267642637383,-287.42936816475117,300.7334751502317C-295.8057914713031,305.7542738740895,-310.13924282131734,314.7246264757785,-320.41342865168934,320.3082367874994C-330.68761448206124,325.89184709922034,-336.90253479279085,328.0887151209732,-348.22106062609447,330.9665473398193C-359.5395864593981,333.84437955866525,-375.96171781527573,337.4031759746045,-395.7267954753897,340.53739696596836C-415.49187313550357,343.6716179573323,-438.5998970998539,346.38126352412064,-450.15390908202903,347.7360863075149L-461.70792106420413,349.0909090909091" />
    <path stroke="blue" d="M879.8326737027264,38.07856992442499L870.9258901268105,38.636315868751105C862.0191065508944,39.19406181307722,844.2055393990626,40.30955370172944,834.5106668199368,41.43504643135356C824.8157942408106,42.56053916097768,823.2396162343906,43.696032731573695,810.6269024796565,45.72303395652728C798.0141887249221,47.750035181480875,774.3649392218736,50.66854406079204,755.0356469802585,53.31009251465593C735.7063547386437,55.951640968519825,720.6970197584623,58.31622899693645,710.3012624039771,59.662038115904345C699.905505049492,61.00784723487222,694.1233253207033,61.334877444391374,680.7699219771388,62.700802809620946C667.4165186335741,64.06672817485052,646.4918916752339,66.47154869579053,626.8347149239444,67.9189643440695C607.1775381726549,69.36637999234846,588.787811628416,69.85639076796639,564.6449403868743,72.96262039320824C540.5020691453327,76.06885001845008,510.60605320648807,81.79129849331586,483.0652339200183,84.97507912647933C455.52441463354836,88.15885975964278,430.33879199945324,88.80397255110393,412.9339688468151,90.631345630201C395.52914569417703,92.45871870929807,385.90512202299595,95.46835207603108,380.3600774360277,97.31906745499309C374.8150328490595,99.16978283395508,373.3489673463041,99.8615802251461,372.0944323239796,100.41972527375901C370.8398973016552,100.97787032237193,369.7968927597617,101.40236302840678,361.47731289171753,103.88309312514782C353.1577330236734,106.36382322188888,337.5615778294786,110.9007907093361,327.95468233735056,113.27105621470766C318.3477868452226,115.64132172007919,314.73015105516134,115.84488524337502,305.4020995145872,116.77234582505349C296.0740479740129,117.69980640673198,281.0355806829257,119.35116404679313,272.6753238231635,120.21493906678943C264.3150669634014,121.07871408678572,262.6330205349644,121.15490648671715,258.6564055232673,121.55981061471181C254.6797905115703,121.96471474270645,248.4086069166132,122.6983305987643,243.20098628889446,124.42400652953425C237.99336566117572,126.14968246030416,233.8493080006953,128.86741846578616,230.98907725131133,130.37387202619394C228.12884650192737,131.8803255866017,226.5524426636399,132.17549670193526,223.2344896553876,132.55318580275855C219.9165366471353,132.93087490358184,214.85703446891816,133.39108198989484,211.26146011611877,135.8785337143307C207.66588576331938,138.36598543876656,205.53423923593778,142.8806818013252,202.27666120936237,145.33544640074334C199.019083182787,147.79021100016146,194.63557365701783,148.18504383643906,191.64398663381385,148.50563570116097C188.65239961060993,148.82622756588282,187.0527350899712,149.07257845904897,185.12943403495842,149.40260030331638C183.20613297994564,149.73262214758378,180.95919539055876,150.14631494295244,178.06984790488048,150.45960288227752C175.18050041920216,150.77289082160257,171.6487430372325,150.98577390488404,169.09361892812996,151.18859436838957C166.53849481902748,151.39141483189508,164.96000398279216,151.58417267562467,163.39809621420562,151.815088363421C161.83618844561911,152.04600405121735,160.29086374468136,152.31507758308052,159.01460213924346,152.55251170340264C157.7383405338056,152.7899458237248,156.73114202386753,152.99574053250595,154.41495581787262,153.26436971058743C152.0987696118777,153.53299888866889,148.4735957098259,153.86446253605067,146.18324778439387,154.17129667888375C143.89289985896184,154.4781308217168,142.9373779101496,154.7603354600012,141.66057119330742,155.00740954268622C140.38376447646525,155.25448362537125,138.78567299159317,155.466427152457,137.2267282928542,155.71719733024426C135.66778359411524,155.96796750803153,134.14798568150934,156.2575643365204,132.24101850036052,157.1650127828684C130.33405131921168,158.07246122921637,128.03991486951992,159.59776129342347,125.17513243991023,161.12398839599288C122.31035001030052,162.6502154985623,118.87492160077294,164.17736963949403,116.38359499423565,165.04389908423727C113.89226838769838,165.91042852898047,112.34504358415143,166.11633327753518,110.36137922842038,167.43493598527837C108.37771487268931,168.7535386930216,105.95761096477412,171.18483935995326,100.2557222521829,175.3707495375977C94.55383353959168,179.55665971524215,85.57016002232443,185.49717940359935,80.37141302953678,188.5731708823114C75.17266603674915,191.64916236102349,73.75884556844113,191.86062563009045,72.59865764923894,192.14021485579426C71.43846973003677,192.41980408149803,70.53191435994042,192.76751926383872,69.6209747366925,193.04734861855187C68.71003511344458,193.3271779732651,67.79471123704509,193.5391215003508,66.48579745849081,193.8708109958578C65.17688367993652,194.20250049136476,63.47437999922746,194.65393595529304,60.209668800561765,197.14282557073759C56.94495760189608,199.6317151861821,52.11803888527379,204.15805895314296,48.8723131380886,206.57708048606585C45.62658739090343,208.99610201898872,43.962054613155374,209.30780131787364,42.6657212270813,209.56962273085892C41.36938784100723,209.83144414384424,40.44125384660715,210.04338767092997,37.547062656736536,210.91546527714354C34.652871466865925,211.78754288335702,29.792623081524784,213.31975456869836,26.848550304509644,214.21590733945084C23.904477527494507,215.11206011020332,22.87658035880537,215.37215396636694,21.62716549002828,215.76264486503018C20.377750621251195,216.15313576369348,18.90681805238616,216.6740237048563,16.326392986819275,217.67720380399336C13.745967921252385,218.6803839031304,10.056050358983645,220.1658561602416,7.747406158632232,221.1966228308529C5.438761958280821,222.22738950146424,4.511391119846739,222.8034505855757,3.5943423552179965,223.3383224222051C2.677293590589253,223.87319425883445,1.7705668997658481,224.36687684798167,0.8638791454713205,224.8787151310887C-0.042808608823207216,225.39055341419578,-0.9494574265888575,225.92054739126263,-7.262373193196495,227.0970980968954C-13.575288959804134,228.27364880252824,-25.29447167525376,230.09675623672703,-33.56601554762218,232.09506541007684C-41.83755941999059,234.09337458342668,-46.661464449277794,236.26688549592754,-52.58357427554535,237.45991341562595C-58.50568410181291,238.65294133532439,-65.52599872506083,238.8654862622204,-71.77539343845827,239.0734381666705C-78.0247881518557,239.28139007112074,-83.50326295540265,239.48474895312506,-91.47098509294256,239.78815062998925C-99.43870723048246,240.09155230685346,-109.89567670201535,240.49499677857742,-116.60682360501994,241.7074688155797C-123.31797050802453,242.91994085258204,-126.28329484250082,244.9414404548627,-129.53544122329785,246.06447162128788C-132.78758760409485,247.18750278771304,-136.32655603121262,247.4120655182828,-139.82297072592053,250.08075097329927C-143.31938542062844,252.74943642831582,-146.77324638292646,257.86224460777913,-149.03519789784838,260.48916157730145C-151.2971494127703,263.1160785468237,-152.36719148031608,263.257104306405,-156.39914698050626,263.44405681319705C-160.4311024806964,263.63100931998923,-167.42497141353098,263.8638885739922,-172.67638006162497,264.2869324467205C-177.92778870971895,264.7099763194489,-181.43673707307244,265.3231848109026,-184.97413246442352,268.98121423067437C-188.5115278557746,272.63924365044613,-192.07737027512337,279.34209399853603,-195.61557554627515,282.9299042408799C-199.15378081742688,286.5177144832238,-202.66434894038164,286.99048461982176,-205.9397832591001,287.41426003650463C-209.2152175778186,287.8380354531875,-212.25551809230078,288.21281614995536,-215.87127714167002,288.5061782618821C-219.48703619103935,288.7995403738089,-223.67825377529576,289.01148390089463,-228.56735023488196,289.22085562755245C-233.45644669446824,289.4302273542103,-239.0434220293843,289.63702728044024,-244.3493418179063,290.46756683537944C-249.65526160642835,291.29810639031865,-254.68012584855637,292.75238557396716,-259.610752009843,293.63361162443056C-264.54137817112957,294.514837674894,-269.37776625157477,294.82301059217235,-273.0056579233422,295.3011744139704C-276.6335495951096,295.7793382357684,-279.0529448581992,296.4274929620862,-287.42936816475117,302.08210927417457C-295.8057914713031,307.73672558626293,-310.13924282131734,318.3978034841219,-320.41342865168934,324.3277444638839C-330.68761448206124,330.2576854436459,-336.90253479279085,331.456489505311,-348.22106062609447,333.9392565567361C-359.5395864593981,336.42202360816106,-375.96171781527573,340.188753649346,-395.7267954753897,343.37203639006526C-415.49187313550357,346.5553191307845,-438.5998970998539,349.1551545710381,-450.15390908202903,350.45507229116487L-461.70792106420413,351.7549900112916" />
    
    <path stroke="darkorange" d="M879.8326737027264,301.2244897959184L870.9258901268105,300.5368569654284C862.0191065508944,299.8492241349384,844.2055393990626,298.4739584739585,834.5106668199368,297.3959966995681C824.8157942408106,296.31803492517776,823.2396162343906,295.537377037377,810.6269024796565,294.4350796779368C798.0141887249221,293.3327823184966,774.3649392218736,291.9088454874169,755.0356469802585,290.3567340531626C735.7063547386437,288.8046226189083,720.6970197584623,287.12433658147944,710.3012624039771,285.8993359206125C699.905505049492,284.6743352597456,694.1233253207033,283.90461997544065,680.7699219771388,282.6477466364245C667.4165186335741,281.3908732974083,646.4918916752339,279.6468419036808,626.8347149239444,278.4756597236444C607.1775381726549,277.304477543608,588.787811628416,276.7061445772626,564.6449403868743,274.55944595561533C540.5020691453327,272.41274733396807,510.60605320648807,268.71768305701903,483.0652339200183,266.64611842292544C455.52441463354836,264.5745537888318,430.33879199945324,264.1264887975937,412.9339688468151,262.0872646614743C395.52914569417703,260.04804052535496,385.90512202299595,256.4176572443543,380.3600774360277,253.71368840278444C374.8150328490595,251.0097195612146,373.3489673463041,249.23216515907544,372.0944323239796,247.45461075693638C370.8398973016552,245.6770563547972,369.7968927597617,243.89950195265814,361.47731289171753,241.33124987610037C353.1577330236734,238.76299779954266,337.5615778294786,235.40404804856632,327.95468233735056,233.76942745680287C318.3477868452226,232.13480686503942,314.73015105516134,232.22451543248886,305.4020995145872,231.38667480494723C296.0740479740129,230.5488341774056,281.0355806829257,228.78344435487293,272.6753238231635,227.94941096217C264.3150669634014,227.115377569467,262.6330205349644,227.21270060659376,258.6564055232673,226.71618097636875C254.6797905115703,226.21966134614377,248.4086069166132,225.12929904856705,243.20098628889446,223.45133633824403C237.99336566117572,221.77337362792096,233.8493080006953,219.50781050485162,230.98907725131133,217.88160057945666C228.12884650192737,216.25539065406176,226.5524426636399,215.2685339263412,223.2344896553876,214.34704984099392C219.9165366471353,213.4255657556466,214.85703446891816,212.56945431267243,211.26146011611877,210.8385946550856C207.66588576331938,209.1077349974988,205.53423923593778,206.5021271252992,202.27666120936237,204.92276597225978C199.019083182787,203.34340481922035,194.63557365701783,202.790290385341,191.64398663381385,202.4156536417504C188.65239961060993,202.04101689815977,187.0527350899712,201.84485784485787,185.12943403495842,201.42560167869507C183.20613297994564,201.00634551253225,180.95919539055876,200.36399223350858,178.06984790488048,199.94473606734576C175.18050041920216,199.52547990118296,171.6487430372325,199.32932084788104,169.09361892812996,199.13316179457914C166.53849481902748,198.9370027412772,164.96000398279216,198.74084368797534,163.39809621420562,198.14310983152382C161.83618844561911,197.5453759750723,160.29086374468136,196.54606731547116,159.01460213924346,195.94833345901964C157.7383405338056,195.35059960256808,156.73114202386753,195.15444054926618,154.41495581787262,194.55670669281469C152.0987696118777,193.95897283636316,148.4735957098259,192.95966417676206,146.18324778439387,191.96035551716093C143.89289985896184,190.9610468575598,142.9373779101496,189.96173819795865,141.66057119330742,189.36400434150713C140.38376447646525,188.76627048505563,138.78567299159317,188.57011143175373,137.2267282928542,188.3739523784518C135.66778359411524,188.17779332514988,134.14798568150934,187.98163427184798,132.24101850036052,187.38390041539648C130.33405131921168,186.78616655894496,128.03991486951992,185.7868578993438,125.17513243991023,185.3101870350183C122.31035001030052,184.83351617069275,118.87492160077294,184.87948310164282,116.38359499423565,184.80438704046693C113.89226838769838,184.72929097929102,112.34504358415143,184.5331319259891,110.36137922842038,184.05263221334653C108.37771487268931,183.572132500704,105.95761096477412,182.80729212872072,100.2557222521829,178.40371549300122C94.55383353959168,174.0001388572817,85.57016002232443,165.95782595782597,80.37141302953678,161.83858998144714C75.17266603674915,157.7193540050683,73.75884556844113,157.52319495176638,72.59865764923894,157.32703589846446C71.43846973003677,157.13087684516256,70.53191435994042,156.93471779186066,69.6209747366925,156.73855873855874C68.71003511344458,156.5423996852568,67.79471123704509,156.34624063195494,66.48579745849081,155.8324991610706C65.17688367993652,155.31875769018626,63.47437999922746,154.4874338017195,60.209668800561765,153.97369233083518C56.94495760189608,153.45995085995085,52.11803888527379,153.26379180664892,48.8723131380886,152.74291365222345C45.62658739090343,152.22203549779792,43.962054613155374,151.37643824224884,42.6657212270813,150.8555600878233C41.36938784100723,150.33468193339783,40.44125384660715,150.1385228800959,37.547062656736536,149.36933011892884C34.652871466865925,148.60013735776178,29.792623081524784,147.25791088872953,26.848550304509644,146.48871812756244C23.904477527494507,145.71952536639537,22.87658035880537,145.52336631309345,21.62716549002828,144.75417355192639C20.377750621251195,143.9849807907593,18.90681805238616,142.64275432172704,16.326392986819275,141.0776814107472C13.745967921252385,139.5126084997674,10.056050358983645,137.72468914684,7.747406158632232,135.59931661039204C5.438761958280821,133.47394407394404,4.511391119846739,131.0111183539755,3.5943423552179965,129.11495930067358C2.677293590589253,127.21880024737168,1.7705668997658481,125.88930786073645,0.8638791454713205,124.5598154741012C-0.042808608823207216,123.23032308746595,-0.9494574265888575,121.9008307008307,-7.262373193196495,119.43800498086212C-13.575288959804134,116.97517926089354,-25.29447167525376,113.37902020759162,-33.56601554762218,110.91619448762306C-41.83755941999059,108.45336876765448,-46.661464449277794,107.12387638101923,-52.58357427554535,106.36105066105067C-58.50568410181291,105.5982249410821,-65.52599872506083,105.40206588778018,-71.77539343845827,105.20590683447828C-78.0247881518557,105.00974778117636,-83.50326295540265,104.81358872787446,-91.47098509294256,104.28482097892037C-99.43870723048246,103.7560532299663,-109.89567670201535,102.89467678536,-116.60682360501994,101.25721338423203C-123.31797050802453,99.619749983104,-126.28329484250082,97.20619962545429,-129.53544122329785,95.90134491997844C-132.78758760409485,94.59649021450262,-136.32655603121262,94.40033116120071,-139.82297072592053,92.54112862963792C-143.31938542062844,90.68192609807515,-146.77324638292646,87.15968008825149,-149.03519789784838,85.3004775566887C-151.2971494127703,83.44127502512593,-152.36719148031608,83.24511597182402,-156.39914698050626,82.78947495737502C-160.4311024806964,82.33383394292603,-167.42497141353098,81.61871096732995,-172.67638006162497,81.16306995288096C-177.92778870971895,80.70742893843196,-181.43673707307244,80.51126988513006,-184.97413246442352,79.23000444884941C-188.5115278557746,77.9487390125688,-192.07737027512337,75.58236719330942,-195.61557554627515,74.3011017570288C-199.15378081742688,73.01983632074815,-202.66434894038164,72.82367726744624,-205.9397832591001,72.62751821414433C-209.2152175778186,72.43135916084242,-212.25551809230078,72.2352001075405,-215.87127714167002,72.03904105423861C-219.48703619103935,71.84288200093668,-223.67825377529576,71.64672294763479,-228.56735023488196,71.45056389433287C-233.45644669446824,71.25440484103096,-239.0434220293843,71.05824578772905,-244.3493418179063,70.31953354293779C-249.65526160642835,69.58082129814652,-254.68012584855637,68.29955586186588,-259.610752009843,67.56084361707461C-264.54137817112957,66.82213137228335,-269.37776625157477,66.62597231898144,-273.0056579233422,65.99227036931714C-276.6335495951096,65.35856841965284,-279.0529448581992,64.28732357362617,-287.42936816475117,59.26652484976831C-295.8057914713031,54.24572612591047,-310.13924282131734,45.27537352422146,-320.41342865168934,39.69176321250055C-330.68761448206124,34.108152900779636,-336.90253479279085,31.91128487902682,-348.22106062609447,29.03345266018077C-359.5395864593981,26.15562044133473,-375.96171781527573,22.596824025395453,-395.7267954753897,19.462603034031602C-415.49187313550357,16.32838204266775,-438.5998970998539,13.618736475879324,-450.15390908202903,12.26391369248511L-461.70792106420413,10.909090909090896" />
    <path stroke="orange" d="M879.8326737027264,321.921430075575L870.9258901268105,321.36368413124893C862.0191065508944,320.8059381869228,844.2055393990626,319.69044629827056,834.5106668199368,318.56495356864644C824.8157942408106,317.43946083902233,823.2396162343906,316.3039672684263,810.6269024796565,314.2769660434727C798.0141887249221,312.2499648185191,774.3649392218736,309.33145593920796,755.0356469802585,306.6899074853441C735.7063547386437,304.04835903148023,720.6970197584623,301.68377100306355,710.3012624039771,300.3379618840957C699.905505049492,298.9921527651278,694.1233253207033,298.66512255560866,680.7699219771388,297.2991971903791C667.4165186335741,295.9332718251495,646.4918916752339,293.5284513042095,626.8347149239444,292.0810356559305C607.1775381726549,290.6336200076516,588.787811628416,290.1436092320336,564.6449403868743,287.0373796067918C540.5020691453327,283.93114998154994,510.60605320648807,278.2087015066841,483.0652339200183,275.02492087352067C455.52441463354836,271.8411402403572,430.33879199945324,271.1960274488961,412.9339688468151,269.368654369799C395.52914569417703,267.54128129070193,385.90512202299595,264.53164792396893,380.3600774360277,262.68093254500695C374.8150328490595,260.8302171660449,373.3489673463041,260.1384197748539,372.0944323239796,259.580274726241C370.8398973016552,259.0221296776281,369.7968927597617,258.5976369715932,361.47731289171753,256.1169068748522C353.1577330236734,253.63617677811115,337.5615778294786,249.0992092906639,327.95468233735056,246.72894378529236C318.3477868452226,244.35867827992084,314.73015105516134,244.155114756625,305.4020995145872,243.22765417494648C296.0740479740129,242.300193593268,281.0355806829257,240.64883595320688,272.6753238231635,239.7850609332106C264.3150669634014,238.9212859132143,262.6330205349644,238.84509351328288,258.6564055232673,238.44018938528825C254.6797905115703,238.03528525729357,248.4086069166132,237.3016694012357,243.20098628889446,235.57599347046576C237.99336566117572,233.85031753969585,233.8493080006953,231.13258153421384,230.98907725131133,229.62612797380606C228.12884650192737,228.11967441339826,226.5524426636399,227.82450329806474,223.2344896553876,227.44681419724145C219.9165366471353,227.06912509641816,214.85703446891816,226.60891801010516,211.26146011611877,224.1214662856693C207.66588576331938,221.63401456123347,205.53423923593778,217.1193181986748,202.27666120936237,214.66455359925666C199.019083182787,212.20978899983854,194.63557365701783,211.81495616356096,191.64398663381385,211.4943642988391C188.65239961060993,211.17377243411724,187.0527350899712,210.92742154095106,185.12943403495842,210.59739969668365C183.20613297994564,210.26737785241622,180.95919539055876,209.85368505704756,178.06984790488048,209.54039711772248C175.18050041920216,209.22710917839743,171.6487430372325,209.01422609511596,169.09361892812996,208.81140563161046C166.53849481902748,208.6085851681049,164.96000398279216,208.41582732437533,163.39809621420562,208.18491163657896C161.83618844561911,207.9539959487826,160.29086374468136,207.68492241691948,159.01460213924346,207.44748829659736C157.7383405338056,207.2100541762752,156.73114202386753,207.00425946749408,154.41495581787262,206.7356302894126C152.0987696118777,206.46700111133111,148.4735957098259,206.1355374639493,146.18324778439387,205.82870332111622C143.89289985896184,205.52186917828317,142.9373779101496,205.2396645399988,141.66057119330742,204.99259045731378C140.38376447646525,204.74551637462875,138.78567299159317,204.533572847543,137.2267282928542,204.2828026697557C135.66778359411524,204.03203249196847,134.14798568150934,203.7424356634796,132.24101850036052,202.8349872171316C130.33405131921168,201.92753877078363,128.03991486951992,200.40223870657653,125.17513243991023,198.8760116040071C122.31035001030052,197.3497845014377,118.87492160077294,195.82263036050597,116.38359499423565,194.95610091576273C113.89226838769838,194.08957147101955,112.34504358415143,193.8836667224648,110.36137922842038,192.56506401472163C108.37771487268931,191.2464613069784,105.95761096477412,188.81516064004674,100.2557222521829,184.6292504624023C94.55383353959168,180.44334028475785,85.57016002232443,174.50282059640065,80.37141302953678,171.4268291176886C75.17266603674915,168.35083763897651,73.75884556844113,168.13937436990958,72.59865764923894,167.85978514420574C71.43846973003677,167.58019591850197,70.53191435994042,167.2324807361613,69.6209747366925,166.9526513814481C68.71003511344458,166.67282202673493,67.79471123704509,166.4608784996492,66.48579745849081,166.12918900414223C65.17688367993652,165.79749950863524,63.47437999922746,165.346064044707,60.209668800561765,162.85717442926244C56.94495760189608,160.3682848138179,52.11803888527379,155.84194104685704,48.8723131380886,153.42291951393418C45.62658739090343,151.00389798101128,43.962054613155374,150.69219868212636,42.6657212270813,150.43037726914108C41.36938784100723,150.16855585615573,40.44125384660715,149.95661232907003,37.547062656736536,149.0845347228565C34.652871466865925,148.21245711664298,29.792623081524784,146.68024543130164,26.848550304509644,145.78409266054916C23.904477527494507,144.88793988979668,22.87658035880537,144.62784603363306,21.62716549002828,144.23735513496982C20.377750621251195,143.84686423630657,18.90681805238616,143.3259762951437,16.326392986819275,142.3227961960067C13.745967921252385,141.31961609686962,10.056050358983645,139.83414383975844,7.747406158632232,138.8033771691471C5.438761958280821,137.77261049853576,4.511391119846739,137.19654941442425,3.5943423552179965,136.6616775777949C2.677293590589253,136.12680574116553,1.7705668997658481,135.63312315201827,0.8638791454713205,135.12128486891126C-0.042808608823207216,134.6094465858042,-0.9494574265888575,134.07945260873737,-7.262373193196495,132.90290190310455C-13.575288959804134,131.72635119747176,-25.29447167525376,129.90324376327297,-33.56601554762218,127.90493458992314C-41.83755941999059,125.90662541657332,-46.661464449277794,123.73311450407245,-52.58357427554535,122.54008658437402C-58.50568410181291,121.34705866467561,-65.52599872506083,121.13451373777964,-71.77539343845827,120.92656183332946C-78.0247881518557,120.7186099288793,-83.50326295540265,120.51525104687494,-91.47098509294256,120.21184937001074C-99.43870723048246,119.90844769314657,-109.89567670201535,119.50500322142257,-116.60682360501994,118.29253118442027C-123.31797050802453,117.08005914741797,-126.28329484250082,115.05855954513736,-129.53544122329785,113.93552837871216C-132.78758760409485,112.81249721228698,-136.32655603121262,112.58793448171724,-139.82297072592053,109.91924902670071C-143.31938542062844,107.2505635716842,-146.77324638292646,102.13775539222088,-149.03519789784838,99.5108384226986C-151.2971494127703,96.88392145317631,-152.36719148031608,96.74289569359506,-156.39914698050626,96.55594318680293C-160.4311024806964,96.36899068001081,-167.42497141353098,96.13611142600782,-172.67638006162497,95.71306755327946C-177.92778870971895,95.2900236805511,-181.43673707307244,94.67681518909741,-184.97413246442352,91.01878576932563C-188.5115278557746,87.36075634955382,-192.07737027512337,80.65790600146396,-195.61557554627515,77.07009575912006C-199.15378081742688,73.48228551677617,-202.66434894038164,73.00951538017826,-205.9397832591001,72.58573996349539C-209.2152175778186,72.16196454681251,-212.25551809230078,71.78718385004468,-215.87127714167002,71.49382173811792C-219.48703619103935,71.20045962619113,-223.67825377529576,70.98851609910541,-228.56735023488196,70.77914437244758C-233.45644669446824,70.56977264578974,-239.0434220293843,70.3629727195598,-244.3493418179063,69.53243316462058C-249.65526160642835,68.70189360968136,-254.68012584855637,67.24761442603284,-259.610752009843,66.36638837556941C-264.54137817112957,65.48516232510599,-269.37776625157477,65.17698940782763,-273.0056579233422,64.69882558602959C-276.6335495951096,64.22066176423154,-279.0529448581992,63.57250703791377,-287.42936816475117,57.91789072582541C-295.8057914713031,52.263274413737044,-310.13924282131734,41.60219651587808,-320.41342865168934,35.672255536116054C-330.68761448206124,29.742314556354028,-336.90253479279085,28.543510494688945,-348.22106062609447,26.060743443263927C-359.5395864593981,23.577976391838906,-375.96171781527573,19.811246350653956,-395.7267954753897,16.62796360993471C-415.49187313550357,13.444680869215468,-438.5998970998539,10.844845428961932,-450.15390908202903,9.544927708835163L-461.70792106420413,8.245009988708395" />
  </g>
  
  <g class="axis y" stroke="black" fill="none" stroke-dasharray="4 6" transform="translate(20, 80)">
    <path d="M 20,270 h900" />
      <g transform="translate(0, 270)">
      <text text-anchor="middle"
      fill="black"
      stroke="none"
      transform="translate(0, 3)">25%</text>
      <path d="M0,v-5 0" />
      </g><path d="M 20,180 h900" />
      <g transform="translate(0, 180)">
      <text text-anchor="middle"
      fill="black"
      stroke="none"
      transform="translate(0, 3)">50%</text>
      <path d="M0,v-5 0" />
      </g><path d="M 20,90 h900" />
      <g transform="translate(0, 90)">
      <text text-anchor="middle"
      fill="black"
      stroke="none"
      transform="translate(0, 3)">75%</text>
      <path d="M0,v-5 0" />
      </g><path d="M 20,0 h900" />
    <g transform="translate(0, 0)">
    <text text-anchor="middle"
    fill="black"
    stroke="none"
    transform="translate(0, 3)">100%</text>
    <path d="M0,v-5 0" />
    </g>
  </g>
  <g
    class="axis x"
    stroke="black" fill="none"
    transform="translate(20, 440)">
  
  <path d="M0,0 h900" />
  <g transform="translate(829, 0)">
      <text text-anchor="middle"
      fill="black"
      stroke="none"
      transform="translate(0, 12)">Sep</text>
      <path d="M0,0 v-5" />
    </g><g transform="translate(755, 0)">
      <text text-anchor="middle"
      fill="black"
      stroke="none"
      transform="translate(0, 12)">Aug</text>
      <path d="M0,0 v-5" />
    </g><g transform="translate(682, 0)">
      <text text-anchor="middle"
      fill="black"
      stroke="none"
      transform="translate(0, 12)">Jul</text>
      <path d="M0,0 v-5" />
    </g><g transform="translate(610, 0)">
      <text text-anchor="middle"
      fill="black"
      stroke="none"
      transform="translate(0, 12)">Jun</text>
      <path d="M0,0 v-5" />
    </g><g transform="translate(537, 0)">
      <text text-anchor="middle"
      fill="black"
      stroke="none"
      transform="translate(0, 12)">May</text>
      <path d="M0,0 v-5" />
    </g><g transform="translate(465, 0)">
      <text text-anchor="middle"
      fill="black"
      stroke="none"
      transform="translate(0, 12)">Apr</text>
      <path d="M0,0 v-5" />
    </g><g transform="translate(392, 0)">
      <text text-anchor="middle"
      fill="black"
      stroke="none"
      transform="translate(0, 12)">Mar</text>
      <path d="M0,0 v-5" />
    </g><g transform="translate(325, 0)">
      <text text-anchor="middle"
      fill="black"
      stroke="none"
      transform="translate(0, 12)">Feb</text>
      <path d="M0,0 v-5" />
    </g><g transform="translate(252, 0)">
      <text text-anchor="middle"
      fill="black"
      stroke="none"
      transform="translate(0, 12)">Jan ’22</text>
      <path d="M0,0 v-5" />
    </g><g transform="translate(178, 0)">
      <text text-anchor="middle"
      fill="black"
      stroke="none"
      transform="translate(0, 12)">Dec</text>
      <path d="M0,0 v-5" />
    </g><g transform="translate(107, 0)">
      <text text-anchor="middle"
      fill="black"
      stroke="none"
      transform="translate(0, 12)">Nov</text>
      <path d="M0,0 v-5" />
    </g><g transform="translate(33, 0)">
      <text text-anchor="middle"
      fill="black"
      stroke="none"
      transform="translate(0, 12)">Oct</text>
      <path d="M0,0 v-5" />
    </g><g transform="translate(-38, 0)">
      <text text-anchor="middle"
      fill="black"
      stroke="none"
      transform="translate(0, 12)">Sep</text>
      <path d="M0,0 v-5" />
    </g>
  
  </g>
  <g class="legend" transform="translate(20,10)">
    <rect width="18" height="18" style="fill: darkblue; stroke: darkblue;"></rect>
    <text x="22" y="14">TypeScript (by file number)</text>
  </g>
  <g class="legend" transform="translate(20,30)">
    <rect width="18" height="18" style="fill: blue; stroke: blue;"></rect>
    <text x="22" y="14">TypeScript (by file size)</text>
  </g>
  <g class="legend" transform="translate(260,10)">
    <rect width="18" height="18" style="fill: darkorange; stroke: darkorange;"></rect>
    <text x="22" y="14">JavaScript (by file number)</text>
  </g>
  <g class="legend" transform="translate(260,30)">
    <rect width="18" height="18" style="fill: orange; stroke: orange;"></rect>
    <text x="22" y="14">JavaScript (by file size)</text>
  </g>
  <g class="total" transform="translate(570,30)">
    <text x="22" y="14" font-size="35px">83.6% complete</text>
  </g>
</svg>