<svg xmlns="http://www.w3.org/2000/svg"
  viewBox="0 0 900 400"
  width="900"
  height="400">
  <style>
    text {
      font-family: "Courier New", Courier, monospace;
      font-size: 12px;
    }
  </style>
  <g class="lines" fill="none">
    <path stroke="darkblue" d="M825.220960433245,120.77519379844962L824.8414947221521,121.70811660346544C824.4620290110593,122.64103940848128,823.7030975888734,124.50688501851295,815.6289883189129,127.20735595154201C807.5548790489523,129.90782688457108,792.165591931217,133.44292314059757,782.7973377765674,135.15789417301045C773.4290836219176,136.87286520542332,770.0818624303538,136.76771101422264,760.9939315055154,137.64163652884585C751.9060005806773,138.51556204346903,737.0773599225646,140.3685672639161,728.9623578678267,141.23847403065403C720.8473558130886,142.108380797392,719.4459923617252,141.9951891104208,715.7378875494718,142.50883135009863C712.0297827372182,143.02247358977647,706.0149365640746,144.16294975610336,701.0692956020272,145.92367080255138C696.1236546399801,147.6843918489994,692.2472188890292,150.06535777556854,689.6614208020188,151.77145088237023C687.0756227150085,153.4775439891719,685.7804622919385,154.5087642762061,682.7345137112648,155.470980107402C679.688565130591,156.4331959385979,674.8918283923134,157.3264073139554,671.5667856748138,159.14296402695965C668.2417429573142,160.9595207399639,666.3883942605926,163.69942279061488,663.4031409532756,165.35606441548575C660.4178876459588,167.01270604035665,656.3007297280466,167.58608723944744,653.5828785169572,167.97107532101123C650.8650273058679,168.35606340257502,649.5464828016014,168.55265836661184,647.902584858269,168.9847447275574C646.2586869149369,169.41683108850293,644.289435532539,170.0844088463572,641.6743662437897,170.51649520730274C639.0592969550404,170.9485815682483,635.79840975994,171.1451765322851,633.5193369160771,171.34177149632194C631.2402640722145,171.5383664603588,629.9430055795897,171.73496142439558,628.6624181284473,172.35544090286808C627.3818306773048,172.97592038134061,626.1179142676449,174.02028437424883,625.1244883439118,174.6407638527214C624.1310624201789,175.2612433311939,623.4081269823727,175.45783829523074,621.3692596167003,176.07831777370325C619.3303922510281,176.69879725217575,615.9755929574895,177.743161245084,613.9627009454865,178.78752523799218C611.9498089334835,179.8318892309004,611.278824203016,180.87625322380862,610.2848502760411,181.49673270228115C609.290876349066,182.11721218075365,607.9739132255835,182.3138071447905,606.696304563492,182.5104021088273C605.4186959014007,182.70699707286417,604.1804417007004,182.90359203690096,602.5529642830829,183.5240715153735C600.9254868654654,184.14455099384602,598.9087862309307,185.1889149867542,596.3184123168498,185.68160575131597C593.728038402769,186.17429651587773,590.563991209142,186.11531405209303,588.349054316134,186.18412030221907C586.134117423126,186.25292655234512,584.8682908307369,186.44952151638196,583.1637093569744,186.94625384305616C581.4591278832119,187.44298616973035,579.3157915280761,188.23985585904188,573.8732603693003,192.8776138267417C568.4307292105245,197.51537179444153,559.6890032481089,205.99401804052968,554.7522829959793,210.3316386455921C549.8155627438495,214.6692592506546,548.6838482020056,214.86585421469144,547.8071117400319,215.06244917872823C546.9303752780585,215.25904414276508,546.3086168959552,215.4556391068019,545.682451002063,215.65223407083874C545.0562851081709,215.84882903487554,544.4257117024897,216.04542399891238,543.3994603845628,216.57724484817507C542.3732090666358,217.10906569743779,540.951279836463,217.97611243192637,537.9588555152941,218.50793328118905C534.9664311941251,219.03975413045177,530.40351178196,219.2363490944886,527.4301736308472,219.77570310971146C524.4568354797342,220.31505712493427,523.0730785896734,221.19717019134316,522.0594744037093,221.73652420656603C521.0458702177452,222.27587822178884,520.4024187358777,222.4724731858257,517.7824800468928,223.27393706372018C515.1625413579078,224.07540094161467,510.5661154618051,225.48173373336684,507.8960305618711,226.28319761126136C505.22594566193703,227.08466148915588,504.48220175817164,227.2812564531927,503.5157649941056,228.08272033108722C502.54932823003946,228.88418420898174,501.36019860567285,230.2905170007339,499.055690582765,231.93207659231962C496.75118255985717,233.57363618390536,493.3312961384083,235.4504225753246,491.3000107890194,237.68340954934897C489.2687254396306,239.91639652337327,488.626041162302,242.5055840800027,487.9937337177908,244.49662348848395C487.36142627327973,246.48766289696525,486.7394956615862,247.88055415729832,486.1176041929814,249.27344541763145C485.4957127243765,250.66633667796455,484.8738603988604,252.0592279382977,478.8170606632352,254.64841549492712C472.76026092761003,257.23760305155656,461.2685137818758,261.0230869044822,453.2426953404593,263.61227446111167C445.2168768990428,266.20146201774105,440.656987161944,267.59435327807415,434.9930666077218,268.38909639025917C429.3291460534995,269.1838395024442,422.5611946821537,269.38043446648095,416.56825298145344,269.5770294305178C410.5753112807531,269.77362439455464,405.3573792506982,269.97021935859146,397.63699433050186,270.51790127915C389.9166094103055,271.06558319970856,379.6937715999677,271.9643520767889,373.23662809592224,273.68232385241987C366.7794845918768,275.40029562805097,364.08803539412366,277.93747030223267,361.1082425476822,279.304355121342C358.12844970124064,280.67123994045124,354.86031320611056,280.8678349044881,351.634956192634,282.8198646511336C348.40959917915734,284.77189439777914,345.22702164733414,288.4793589270334,343.2426766899288,290.4313886736789C341.2583317325235,292.3834184203244,340.47221934953615,292.5800133843612,336.7084804652962,293.0505059740533C332.94474158105623,293.5209985637454,326.20337619556364,294.26538877909275,321.21371491595085,294.73588136878476C316.22405363633806,295.2063739584769,312.986096462605,295.4029689225137,309.71954134825893,296.7449539574725C306.45298623391295,298.0869389924313,303.1578331789539,300.57431409831213,299.8904638883626,301.91629913327097C296.62309459777134,303.25828416822975,293.3835090715479,303.45487913226657,290.3803047437477,303.6514740963034C287.3771004159474,303.84806906034026,284.6102772865704,304.044664024377,281.26494279188245,304.2412589884139C277.91960829719454,304.4378539524507,273.99576243719565,304.63444891648754,269.37033542666626,304.83104388052436C264.74490841613687,305.0276388445612,259.417900255077,305.224233808598,254.37343865126732,305.99352380809586C249.32897704745764,306.7628138075936,244.5670620008982,308.1047988425524,239.89988497194852,308.87408884205024C235.2327079429989,309.64337884154804,230.66026893165903,309.83997380558486,227.3027374505284,310.4984196046709C223.9452059693978,311.15686540375685,221.80258201847641,312.2771620378921,213.67132775330515,317.5664322097379C205.54007348813386,322.8557023815838,191.42018890871262,332.3139460911404,181.3811044140247,338.19729516128615C171.34201991933674,344.08064423143196,165.38373550938206,346.389098662167,154.2947707464949,349.41634863427817C143.20580598360772,352.44359860638934,126.98616086778804,356.1896441198767,107.40583498457961,359.4875266852011C87.8255091013712,362.78540925052556,64.88450245077401,365.635128867687,53.41399912547542,367.0599886762678L41.943495800176834,368.4848484848485" />
    <path stroke="blue" d="M825.220960433245,109.09161169562397L824.8414947221521,109.30784015999204C824.4620290110593,109.5240686243601,823.7030975888734,109.95652555309623,815.6289883189129,112.55945528313333C807.5548790489523,115.16238501317044,792.165591931217,119.93578754450853,782.7973377765674,122.4221157614334C773.4290836219176,124.90844397835825,770.0818624303538,125.10769788086986,760.9939315055154,126.07106534500763C751.9060005806773,127.03443280914537,737.0773599225646,128.76191383490925,728.9623578678267,129.6580576506047C720.8473558130886,130.55420146630013,719.4459923617252,130.61900807192708,715.7378875494718,131.03078816828744C712.0297827372182,131.4425682646478,706.0149365640746,132.20132185174157,701.0692956020272,134.0072499621425C696.1236546399801,135.81317807254342,692.2472188890292,138.66628070625157,689.6614208020188,140.24080742571465C687.0756227150085,141.81533414517776,685.7804622919385,142.11128495039586,682.7345137112648,142.49433807363087C679.688565130591,142.87739119686591,674.8918283923134,143.3475466381179,671.5667856748138,145.95757141961064C668.2417429573142,148.56759620110338,666.3883942605926,153.3174903228369,663.4031409532756,155.89301202792208C660.4178876459588,158.4685337330072,656.3007297280466,158.869683021444,653.5828785169572,159.19246683990528C650.8650273058679,159.51525065836663,649.5464828016014,159.75966900685248,647.902584858269,160.09240669261183C646.2586869149369,160.42514437837124,644.289435532539,160.84620140140416,641.6743662437897,161.16127552083552C639.0592969550404,161.4763496402669,635.79840975994,161.68544085609668,633.5193369160771,161.8839104177185C631.2402640722145,162.08237997934037,629.9430055795897,162.27022788675427,628.6624181284473,162.4983535184609C627.3818306773048,162.72647915016748,626.1179142676449,162.99488250616682,625.1244883439118,163.22988870553954C624.1310624201789,163.46489490491226,623.4081269823727,163.66650394765836,621.3692596167003,163.93443826355477C619.3303922510281,164.20237257945124,615.9755929574895,164.53663216849804,613.9627009454865,164.84489394718784C611.9498089334835,165.15315572587767,611.278824203016,165.4354196942105,610.2848502760411,165.68060140941074C609.290876349066,165.92578312461094,607.9739132255835,166.13388258667854,606.696304563492,166.38296573559782C605.4186959014007,166.63204888451708,604.1804417007004,166.92211572028796,602.5529642830829,167.8643592637991C600.9254868654654,168.80660280731018,598.9087862309307,170.4010230585615,596.3184123168498,171.99642185030635C593.728038402769,173.59182064205118,590.563991209142,175.18819797428955,588.349054316134,176.08724923832895C586.134117423126,176.98630050236838,584.8682908307369,177.18802569820878,583.1637093569744,178.56426540652595C581.4591278832119,179.94050511484315,579.3157915280761,182.49125933563707,573.8732603693003,186.89410137329443C568.4307292105245,191.2969434109518,559.6890032481089,197.5518732654726,554.7522829959793,200.78313445425692C549.8155627438495,204.0143956430412,548.6838482020056,204.221988166089,547.8071117400319,204.5014914211424C546.9303752780585,204.78099467619572,546.3086168959552,205.13240866325464,545.682451002063,205.41216538781794C545.0562851081709,205.6919221123812,544.4257117024897,205.90002157444883,543.3994603845628,206.23451955873887C542.3732090666358,206.56901754302893,540.951279836463,207.02991404954142,537.9588555152941,209.64145660487668C534.9664311941251,212.25299916021194,530.40351178196,217.01518776436998,527.4301736308472,219.55298067704348C524.4568354797342,222.09077358971695,523.0730785896734,222.40417081090592,522.0594744037093,222.66491915253422C521.0458702177452,222.92566749416247,520.4024187358777,223.13376695623006,517.7824800468928,224.0386746129326C515.1625413579078,224.94358226963513,510.5661154618051,226.5452981209725,507.8960305618711,227.47561845135507C505.22594566193703,228.40593878173755,504.48220175817164,228.6648635911652,503.5157649941056,229.0614297232313C502.54932823003946,229.4579958552974,501.36019860567285,229.992203310002,499.055690582765,231.03549693145706C496.75118255985717,232.07879055291218,493.3312961384083,233.6311703411178,491.3000107890194,234.70358312135133C489.2687254396306,235.77599590158488,488.626041162302,236.36844167384638,487.9937337177908,236.91740990709891C487.36142627327973,237.46637814035148,486.7394956615862,237.97186883459514,486.1176041929814,238.49652387246303C485.4957127243765,239.02117891033092,484.8738603988604,239.56499829182303,478.8170606632352,240.7912942201348C472.76026092761003,242.01759014844654,461.2685137818758,243.92636262357792,453.2426953404593,246.02007026781317C445.2168768990428,248.11377791204848,440.656987161944,250.39242072538764,434.9930666077218,251.63610926854642C429.3291460534995,252.8797978117052,422.5611946821537,253.08853208468364,416.56825298145344,253.29241816730266C410.5753112807531,253.49630424992156,405.3573792506982,253.6953421421811,397.63699433050186,253.9999807623482C389.9166094103055,254.30461938251528,379.6937715999677,254.71485873058995,373.23662809592224,255.9790716197917C366.7794845918768,257.2432845089935,364.08803539412366,259.3614709393224,361.1082425476822,260.5312740206928C358.12844970124064,261.70107710206315,354.86031320611056,261.922496834475,351.634956192634,264.72382388713623C348.40959917915734,267.52515093979747,345.22702164733414,272.9063853127081,343.2426766899288,275.6636234084587C341.2583317325235,278.42086150420937,340.47221934953615,278.5541033228,336.7084804652962,278.7358233745577C332.94474158105623,278.91754342631543,326.20337619556364,279.14774171124014,321.21371491595085,279.57866931593054C316.22405363633806,280.00959692062094,312.986096462605,280.64125384507696,309.71954134825893,284.486888416091C306.45298623391295,288.332522987105,303.1578331789539,295.392135204677,299.8904638883626,299.16364953285046C296.62309459777134,302.9351638610239,293.3835090715479,303.4185802997988,290.3803047437477,303.8502800897745C287.3771004159474,304.2819798797502,284.6102772865704,304.66196302092675,281.26494279188245,304.9560043225488C277.91960829719454,305.2500456241708,273.99576243719565,305.4581450862384,269.37033542666626,305.6635298700766C264.74490841613687,305.86891465391477,259.417900255077,306.0715847595235,254.37343865126732,306.93264669543646C249.32897704745764,307.7937086313494,244.5670620008982,309.3131623975666,239.89988497194852,310.2277267454218C235.2327079429989,311.142291093277,230.66026893165903,311.4519660227702,227.3027374505284,311.94107579592304C223.9452059693978,312.4301855690759,221.80258201847641,313.0987301858884,213.67132775330515,319.0518731432366C205.54007348813386,325.0050161005848,191.42018890871262,336.24275739846854,181.3811044140247,342.4865208383612C171.34201991933674,348.73028427825375,165.38373550938206,349.9800698601551,154.2947707464949,352.5851497090253C143.20580598360772,355.1902295578955,126.98616086778804,359.15060367373457,107.40583498457961,362.4951167501931C87.8255091013712,365.8396298266516,64.88450245077401,368.5682818637297,53.41399912547542,369.93260788226877L41.943495800176834,371.2969339008078" />
    
    <path stroke="darkorange" d="M825.220960433245,259.2248062015504L824.8414947221521,258.29188339653456C824.4620290110593,257.3589605915187,823.7030975888734,255.49311498148708,815.6289883189129,252.79264404845802C807.5548790489523,250.09217311542895,792.165591931217,246.55707685940243,782.7973377765674,244.84210582698952C773.4290836219176,243.12713479457668,770.0818624303538,243.23228898577736,760.9939315055154,242.35836347115415C751.9060005806773,241.48443795653097,737.0773599225646,239.6314327360839,728.9623578678267,238.76152596934597C720.8473558130886,237.89161920260804,719.4459923617252,238.00481088957926,715.7378875494718,237.4911686499014C712.0297827372182,236.97752641022353,706.0149365640746,235.83705024389664,701.0692956020272,234.07632919744864C696.1236546399801,232.3156081510006,692.2472188890292,229.93464222443149,689.6614208020188,228.2285491176298C687.0756227150085,226.52245601082814,685.7804622919385,225.4912357237939,682.7345137112648,224.52901989259803C679.688565130591,223.56680406140217,674.8918283923134,222.6735926860446,671.5667856748138,220.85703597304038C668.2417429573142,219.04047926003614,666.3883942605926,216.30057720938512,663.4031409532756,214.64393558451425C660.4178876459588,212.98729395964335,656.3007297280466,212.41391276055256,653.5828785169572,212.02892467898877C650.8650273058679,211.64393659742495,649.5464828016014,211.44734163338816,647.902584858269,211.0152552724426C646.2586869149369,210.58316891149707,644.289435532539,209.9155911536428,641.6743662437897,209.4835047926972C639.0592969550404,209.0514184317517,635.79840975994,208.8548234677149,633.5193369160771,208.65822850367806C631.2402640722145,208.4616335396412,629.9430055795897,208.26503857560442,628.6624181284473,207.64455909713186C627.3818306773048,207.02407961865936,626.1179142676449,205.97971562575117,625.1244883439118,205.35923614727866C624.1310624201789,204.73875666880613,623.4081269823727,204.5421617047693,621.3692596167003,203.92168222629678C619.3303922510281,203.30120274782425,615.9755929574895,202.25683875491606,613.9627009454865,201.21247476200782C611.9498089334835,200.1681107690996,611.278824203016,199.12374677619138,610.2848502760411,198.50326729771885C609.290876349066,197.88278781924632,607.9739132255835,197.68619285520947,606.696304563492,197.48959789117262C605.4186959014007,197.29300292713583,604.1804417007004,197.09640796309904,602.5529642830829,196.4759284846265C600.9254868654654,195.85544900615398,598.9087862309307,194.8110850132458,596.3184123168498,194.31839424868403C593.728038402769,193.82570348412227,590.563991209142,193.88468594790697,588.349054316134,193.8158796977809C586.134117423126,193.74707344765486,584.8682908307369,193.550478483618,583.1637093569744,193.05374615694382C581.4591278832119,192.55701383026965,579.3157915280761,191.76014414095812,573.8732603693003,187.1223861732583C568.4307292105245,182.48462820555847,559.6890032481089,174.00598195947035,554.7522829959793,169.6683613544079C549.8155627438495,165.3307407493454,548.6838482020056,165.1341457853086,547.8071117400319,164.93755082127174C546.9303752780585,164.74095585723492,546.3086168959552,164.5443608931981,545.682451002063,164.34776592916128C545.0562851081709,164.15117096512446,544.4257117024897,163.95457600108764,543.3994603845628,163.42275515182493C542.3732090666358,162.89093430256221,540.951279836463,162.02388756807363,537.9588555152941,161.49206671881092C534.9664311941251,160.9602458695482,530.40351178196,160.76365090551138,527.4301736308472,160.2242968902885C524.4568354797342,159.68494287506567,523.0730785896734,158.8028298086568,522.0594744037093,158.26347579343397C521.0458702177452,157.72412177821113,520.4024187358777,157.52752681417428,517.7824800468928,156.7260629362798C515.1625413579078,155.9245990583853,510.5661154618051,154.5182662666331,507.8960305618711,153.7168023887386C505.22594566193703,152.91533851084412,504.48220175817164,152.7187435468073,503.5157649941056,151.91727966891278C502.54932823003946,151.11581579101826,501.36019860567285,149.7094829992661,499.055690582765,148.06792340768038C496.75118255985717,146.42636381609466,493.3312961384083,144.5495774246754,491.3000107890194,142.31659045065106C489.2687254396306,140.08360347662673,488.626041162302,137.49441591999732,487.9937337177908,135.50337651151605C487.36142627327973,133.5123371030348,486.7394956615862,132.11944584270168,486.1176041929814,130.72655458236855C485.4957127243765,129.33366332203542,484.8738603988604,127.94077206170228,478.8170606632352,125.35158450507286C472.76026092761003,122.76239694844345,461.2685137818758,118.97691309551776,453.2426953404593,116.38772553888832C445.2168768990428,113.7985379822589,440.656987161944,112.40564672192579,434.9930666077218,111.61090360974083C429.3291460534995,110.81616049755586,422.5611946821537,110.61956553351904,416.56825298145344,110.42297056948219C410.5753112807531,110.22637560544537,405.3573792506982,110.02978064140855,397.63699433050186,109.48209872084999C389.9166094103055,108.93441680029143,379.6937715999677,108.03564792321112,373.23662809592224,106.31767614758009C366.7794845918768,104.59970437194904,364.08803539412366,102.06252969776732,361.1082425476822,100.69564487865802C358.12844970124064,99.32876005954874,354.86031320611056,99.13216509551192,351.634956192634,97.18013534886639C348.40959917915734,95.22810560222086,345.22702164733414,91.52064107296665,343.2426766899288,89.56861132632112C341.2583317325235,87.61658157967561,340.47221934953615,87.41998661563878,336.7084804652962,86.9494940259467C332.94474158105623,86.47900143625463,326.20337619556364,85.7346112209073,321.21371491595085,85.26411863121521C316.22405363633806,84.79362604152313,312.986096462605,84.5970310774863,309.71954134825893,83.2550460425275C306.45298623391295,81.91306100756867,303.1578331789539,79.42568590168787,299.8904638883626,78.08370086672906C296.62309459777134,76.74171583177025,293.3835090715479,76.54512086773342,290.3803047437477,76.3485259036966C287.3771004159474,76.15193093965978,284.6102772865704,75.95533597562296,281.26494279188245,75.75874101158612C277.91960829719454,75.56214604754929,273.99576243719565,75.36555108351247,269.37033542666626,75.16895611947565C264.74490841613687,74.97236115543883,259.417900255077,74.775766191402,254.37343865126732,74.00647619190418C249.32897704745764,73.23718619240638,244.5670620008982,71.89520115744757,239.89988497194852,71.12591115794976C235.2327079429989,70.35662115845194,230.66026893165903,70.16002619441512,227.3027374505284,69.5015803953291C223.9452059693978,68.84313459624309,221.80258201847641,67.72283796210789,213.67132775330515,62.433567790262025C205.54007348813386,57.14429761841615,191.42018890871262,47.68605390885961,181.3811044140247,41.802704838713844C171.34201991933674,35.919355768568074,165.38373550938206,33.61090133783308,154.2947707464949,30.583651365721888C143.20580598360772,27.556401393610702,126.98616086778804,23.81035588012333,107.40583498457961,20.5124733147989C87.8255091013712,17.21459074947447,64.88450245077401,14.36487113231299,53.41399912547542,12.940011323732245L41.943495800176834,11.515151515151503" />
    <path stroke="orange" d="M825.220960433245,270.90838830437605L824.8414947221521,270.692159840008C824.4620290110593,270.4759313756399,823.7030975888734,270.04347444690376,815.6289883189129,267.44054471686667C807.5548790489523,264.8376149868296,792.165591931217,260.0642124554915,782.7973377765674,257.5778842385666C773.4290836219176,255.09155602164174,770.0818624303538,254.89230211913014,760.9939315055154,253.9289346549924C751.9060005806773,252.9655671908546,737.0773599225646,251.23808616509075,728.9623578678267,250.34194234939534C720.8473558130886,249.44579853369987,719.4459923617252,249.38099192807292,715.7378875494718,248.96921183171256C712.0297827372182,248.5574317353522,706.0149365640746,247.79867814825843,701.0692956020272,245.99275003785752C696.1236546399801,244.18682192745655,692.2472188890292,241.33371929374843,689.6614208020188,239.75919257428532C687.0756227150085,238.18466585482224,685.7804622919385,237.88871504960414,682.7345137112648,237.50566192636913C679.688565130591,237.12260880313409,674.8918283923134,236.6524533618821,671.5667856748138,234.04242858038933C668.2417429573142,231.43240379889662,666.3883942605926,226.68250967716313,663.4031409532756,224.10698797207797C660.4178876459588,221.5314662669928,656.3007297280466,221.13031697855604,653.5828785169572,220.80753316009472C650.8650273058679,220.48474934163337,649.5464828016014,220.24033099314752,647.902584858269,219.90759330738817C646.2586869149369,219.57485562162879,644.289435532539,219.1537985985958,641.6743662437897,218.83872447916448C639.0592969550404,218.5236503597331,635.79840975994,218.31455914390332,633.5193369160771,218.1160895822815C631.2402640722145,217.91762002065965,629.9430055795897,217.72977211324573,628.6624181284473,217.5016464815391C627.3818306773048,217.27352084983252,626.1179142676449,217.00511749383318,625.1244883439118,216.77011129446052C624.1310624201789,216.5351050950878,623.4081269823727,216.33349605234164,621.3692596167003,216.06556173644523C619.3303922510281,215.79762742054876,615.9755929574895,215.46336783150196,613.9627009454865,215.15510605281216C611.9498089334835,214.84684427412233,611.278824203016,214.5645803057895,610.2848502760411,214.31939859058926C609.290876349066,214.07421687538906,607.9739132255835,213.8661174133214,606.696304563492,213.61703426440215C605.4186959014007,213.36795111548292,604.1804417007004,213.07788427971204,602.5529642830829,212.1356407362009C600.9254868654654,211.19339719268984,598.9087862309307,209.59897694143854,596.3184123168498,208.0035781496937C593.728038402769,206.40817935794885,590.563991209142,204.81180202571045,588.349054316134,203.91275076167105C586.134117423126,203.01369949763162,584.8682908307369,202.81197430179122,583.1637093569744,201.43573459347405C581.4591278832119,200.05949488515685,579.3157915280761,197.508740664363,573.8732603693003,193.10589862670562C568.4307292105245,188.70305658904826,559.6890032481089,182.4481267345274,554.7522829959793,179.21686554574308C549.8155627438495,175.98560435695876,548.6838482020056,175.77801183391094,547.8071117400319,175.4985085788576C546.9303752780585,175.21900532380425,546.3086168959552,174.86759133674533,545.682451002063,174.58783461218206C545.0562851081709,174.3080778876188,544.4257117024897,174.09997842555117,543.3994603845628,173.76548044126113C542.3732090666358,173.43098245697107,540.951279836463,172.97008595045858,537.9588555152941,170.35854339512335C534.9664311941251,167.74700083978806,530.40351178196,162.98481223563007,527.4301736308472,160.44701932295655C524.4568354797342,157.90922641028305,523.0730785896734,157.59582918909408,522.0594744037093,157.3350808474658C521.0458702177452,157.07433250583753,520.4024187358777,156.86623304376988,517.7824800468928,155.9613253870674C515.1625413579078,155.05641773036487,510.5661154618051,153.45470187902745,507.8960305618711,152.52438154864493C505.22594566193703,151.59406121826242,504.48220175817164,151.33513640883479,503.5157649941056,150.93857027676867C502.54932823003946,150.54200414470256,501.36019860567285,150.00779668999797,499.055690582765,148.96450306854288C496.75118255985717,147.9212094470878,493.3312961384083,146.3688296588822,491.3000107890194,145.29641687864867C489.2687254396306,144.22400409841512,488.626041162302,143.63155832615365,487.9937337177908,143.08259009290109C487.36142627327973,142.53362185964852,486.7394956615862,142.02813116540486,486.1176041929814,141.50347612753697C485.4957127243765,140.97882108966908,484.8738603988604,140.43500170817697,478.8170606632352,139.2087057798652C472.76026092761003,137.98240985155346,461.2685137818758,136.07363737642206,453.2426953404593,133.9799297321868C445.2168768990428,131.88622208795152,440.656987161944,129.60757927461236,434.9930666077218,128.36389073145355C429.3291460534995,127.12020218829478,422.5611946821537,126.91146791531635,416.56825298145344,126.70758183269739C410.5753112807531,126.5036957500784,405.3573792506982,126.3046578578189,397.63699433050186,126.00001923765183C389.9166094103055,125.69538061748473,379.6937715999677,125.28514126941008,373.23662809592224,124.0209283802083C366.7794845918768,122.7567154910065,364.08803539412366,120.63852906067761,361.1082425476822,119.46872597930725C358.12844970124064,118.29892289793686,354.86031320611056,118.07750316552502,351.634956192634,115.27617611286381C348.40959917915734,112.47484906020254,345.22702164733414,107.09361468729192,343.2426766899288,104.3363765915413C341.2583317325235,101.57913849579063,340.47221934953615,101.44589667719997,336.7084804652962,101.26417662544229C332.94474158105623,101.08245657368457,326.20337619556364,100.85225828875984,321.21371491595085,100.42133068406946C316.22405363633806,99.99040307937908,312.986096462605,99.35874615492304,309.71954134825893,95.51311158390904C306.45298623391295,91.66747701289502,303.1578331789539,84.60786479532304,299.8904638883626,80.83635046714959C296.62309459777134,77.06483613897613,293.3835090715479,76.58141970020121,290.3803047437477,76.1497199102255C287.3771004159474,75.71802012024979,284.6102772865704,75.3380369790733,281.26494279188245,75.04399567745124C277.91960829719454,74.74995437582918,273.99576243719565,74.54185491376157,269.37033542666626,74.3364701299234C264.74490841613687,74.13108534608524,259.417900255077,73.92841524047651,254.37343865126732,73.06735330456354C249.32897704745764,72.20629136865057,244.5670620008982,70.68683760243336,239.89988497194852,69.77227325457817C235.2327079429989,68.85770890672298,230.66026893165903,68.54803397722982,227.3027374505284,68.05892420407697C223.9452059693978,67.56981443092413,221.80258201847641,66.90126981411159,213.67132775330515,60.948126856763416C205.54007348813386,54.99498389941524,191.42018890871262,43.75724260153143,181.3811044140247,37.51347916163884C171.34201991933674,31.26971572174624,165.38373550938206,30.019930139844863,154.2947707464949,27.41485029097467C143.20580598360772,24.80977044210447,126.98616086778804,20.849396326265452,107.40583498457961,17.504883249806905C87.8255091013712,14.16037017334836,64.88450245077401,11.431718136270279,53.41399912547542,10.06739211773124L41.943495800176834,8.703066099192199" />
  </g>
  
  <g class="axis y" stroke="black" fill="none" stroke-dasharray="4 6">
    <path d="M 0,285 h900" /><path d="M 0,190 h900" /><path d="M 0,95 h900" />
  </g>
  <g
    class="axis x"
    stroke="black" fill="none"
    transform="translate(0, 380)">
  
  <path d="M0,0 h900" />
  <g transform="translate(833, 0)">
      <text text-anchor="middle"
      fill="black"
      stroke="none"
      transform="translate(0, 12)">Feb</text>
      <path d="M0,0 v-5" />
    </g><g transform="translate(759, 0)">
      <text text-anchor="middle"
      fill="black"
      stroke="none"
      transform="translate(0, 12)">Jan ’22</text>
      <path d="M0,0 v-5" />
    </g><g transform="translate(685, 0)">
      <text text-anchor="middle"
      fill="black"
      stroke="none"
      transform="translate(0, 12)">Dec</text>
      <path d="M0,0 v-5" />
    </g><g transform="translate(614, 0)">
      <text text-anchor="middle"
      fill="black"
      stroke="none"
      transform="translate(0, 12)">Nov</text>
      <path d="M0,0 v-5" />
    </g><g transform="translate(540, 0)">
      <text text-anchor="middle"
      fill="black"
      stroke="none"
      transform="translate(0, 12)">Oct</text>
      <path d="M0,0 v-5" />
    </g><g transform="translate(468, 0)">
      <text text-anchor="middle"
      fill="black"
      stroke="none"
      transform="translate(0, 12)">Sep</text>
      <path d="M0,0 v-5" />
    </g><g transform="translate(394, 0)">
      <text text-anchor="middle"
      fill="black"
      stroke="none"
      transform="translate(0, 12)">Aug</text>
      <path d="M0,0 v-5" />
    </g><g transform="translate(320, 0)">
      <text text-anchor="middle"
      fill="black"
      stroke="none"
      transform="translate(0, 12)">Jul</text>
      <path d="M0,0 v-5" />
    </g><g transform="translate(248, 0)">
      <text text-anchor="middle"
      fill="black"
      stroke="none"
      transform="translate(0, 12)">Jun</text>
      <path d="M0,0 v-5" />
    </g><g transform="translate(174, 0)">
      <text text-anchor="middle"
      fill="black"
      stroke="none"
      transform="translate(0, 12)">May</text>
      <path d="M0,0 v-5" />
    </g><g transform="translate(103, 0)">
      <text text-anchor="middle"
      fill="black"
      stroke="none"
      transform="translate(0, 12)">Apr</text>
      <path d="M0,0 v-5" />
    </g><g transform="translate(29, 0)">
      <text text-anchor="middle"
      fill="black"
      stroke="none"
      transform="translate(0, 12)">Mar</text>
      <path d="M0,0 v-5" />
    </g><g transform="translate(-38, 0)">
      <text text-anchor="middle"
      fill="black"
      stroke="none"
      transform="translate(0, 12)">Feb</text>
      <path d="M0,0 v-5" />
    </g>
  
  </g>
</svg>