<svg xmlns="http://www.w3.org/2000/svg"
  viewBox="0 0 900 400"
  width="900"
  height="400">
  <style>
    text {
      font-family: "Courier New", Courier, monospace;
      font-size: 12px;
    }
  </style>
  <g class="lines" fill="none">
    <path stroke="darkblue" d="M824.0595106015779,145.46875L821.9267874618282,146.65874955954897C819.7940643220786,147.84874911909796,815.5286180425793,150.22874823819592,812.7027291574751,151.93387453752644C809.8768402723709,153.63900083685692,808.490508781662,154.66925431642002,805.1513751151641,155.6305033401447C801.8122414486661,156.5917523638694,796.5203056063792,157.48399693175577,792.8698746334217,159.29958683728884C789.2194436604641,161.11517674282194,787.2105175568358,163.85411198600175,783.9390824644669,165.50978680340145C780.6676473720977,167.16546162080115,776.1337032909877,167.73787601242077,773.1605243828723,168.12189728651342C770.187345474757,168.50591856060603,768.7749317396364,168.7015467171717,766.9996237840193,169.13266627064607C765.2243158284024,169.56378582412046,763.086113652289,170.23039677450353,760.2275761190916,170.66151632797792C757.369038585894,171.0926358814523,753.7901656956124,171.28826403801796,751.3063934278653,171.4838921945836C748.822621160118,171.67952035114925,747.4339495149053,171.87514850771493,746.0638724928846,172.49466117871626C744.6937954708641,173.11417384971764,743.3423130720354,174.15757103515466,742.2925315998174,174.77708370615605C741.2427501275996,175.3965963771574,740.4946695819923,175.59222453372308,738.2788188091499,176.2117372047244C736.0629680363073,176.83124987572577,732.3793470362297,177.8746470611628,730.192468773249,178.91804424659983C728.0055905102685,179.96144143203688,727.3154549843853,181.00483861747395,726.265062277782,181.62435128847528C725.214669571179,182.24386395947667,723.8040196838559,182.43949211604232,722.4372651573152,182.635120272608C721.0705106307745,182.83074842917367,719.7476514650161,183.0263765857393,717.9906587111581,183.64588925674067C716.2336659572996,184.265401927742,714.0425396153414,185.30879911317905,711.2115469231202,185.80052307026963C708.3805542308991,186.29224702736022,704.9096951884148,186.23229775610434,702.4974591735441,186.30013719875924C700.0852231586733,186.36797664141412,698.7316101714159,186.5636047979798,696.8886167395498,187.0593703171828C695.0456233076837,187.55513583638583,692.7132494312087,188.3510387182262,686.701004427597,192.98782987845485C680.6887594239853,197.62462103868356,670.9966432932368,206.10230047730047,665.5485719931918,210.43895427489178C660.1005006931468,214.7756080724831,658.8964742238053,214.97123622904874,657.9768463820114,215.1668643856144C657.0572185402176,215.36249254218004,656.4219893259715,215.5581206987457,655.7818440408837,215.7537488553114C655.141698755796,215.949377011877,654.4966373998667,216.14500516844268,653.410242987971,216.6758592102342C652.3238485760753,217.20671325202576,650.7961211082131,218.07279317904317,647.5166875773167,218.6036472208347C644.2372540464204,219.13450126262623,639.2061144524897,219.33012941919188,635.9479693420404,219.86851662694357C632.689824231591,220.40690383469527,631.204673604623,221.28805009363296,630.1323856091475,221.82643730138463C629.0600976136717,222.3648245091363,628.4006722496887,222.56045266570197,625.536703462382,223.36094973612532C622.6727346750753,224.1614468065486,617.6042224644452,225.56681279082963,614.6843213649262,226.367309861253C611.7644202654072,227.1678069316763,610.9931302769993,227.36343508824197,609.9734520982561,228.1639321586653C608.9537739195129,228.96442922908864,607.6857075504344,230.36979521336966,605.1735652752907,232.01038799748423C602.661423000147,233.65098078159875,598.9052048189384,235.52680036554685,596.6978109104122,237.7588205321C594.4904170018858,239.9908406986532,593.831847366042,242.57906144781145,593.1848518898793,244.56913404882155C592.5378564137167,246.55920664983168,591.9024350972351,247.9511311026936,591.2670574403526,249.34305555555557C590.6316797834701,250.73498000841752,589.9963457861865,252.12690446127945,583.2989550622427,254.7151252104377C576.601564338299,257.30334595959596,563.8421168876952,261.0878630050505,554.9485129919073,263.6760837542088C546.0549090961193,266.264304503367,541.0271487551473,267.656228956229,534.7679694258453,268.45000526094276C528.5087900965432,269.24378156565655,521.018191778911,269.43940972222225,514.3920273246913,269.6350378787879C507.7658628704714,269.83066603535354,502.00413227966374,270.0262941919192,493.45120423446747,270.57300930500656C484.89827618927126,271.119724418094,473.5541506896864,272.01752648770315,466.41022268558163,273.734531455863C459.26629468147684,275.4515364240229,456.32256417285197,277.9877442907334,453.0572195945361,279.35366230237156C449.7918750162203,280.71958031400965,446.2049163682134,280.91520847057535,442.6656732958968,282.8662714097497C439.12643022358037,284.817334348924,435.6349027269542,288.5238320707071,433.4798654094864,290.47489500988144C431.3248280920188,292.42595794905577,430.50628095370945,292.6215861056214,426.3665350255416,293.0911118878424C422.22678909737357,293.5606376700633,414.7658443793471,294.3040610779394,409.2587234717248,294.7735868601604C403.75160256410254,295.2431126423813,400.1983054668847,295.4387407989469,396.6131106666753,296.77975902643453C393.02791586646595,298.1207772539222,389.41082336326514,300.6071855523318,385.82472044339767,301.9482037798195C382.2386175235302,303.28922200730716,378.68350418699606,303.4848501638728,375.3920468025494,303.68047832043845C372.10058941810274,303.8761064770041,369.07278798574345,304.07173463356975,365.39972387669127,304.2673627901354C361.7266597676391,304.46299094670104,357.4083329818938,304.65861910326674,352.30747337440306,304.8542472598324C347.2066137669123,305.04987541639804,341.32322133767605,305.2455035729637,335.7549769915265,306.01382676499037C330.18673264537705,306.782149957017,324.93363638231426,308.12316818450466,319.78620944658553,308.8914913765313C314.6387825108568,309.6598145685579,309.597024902462,309.85544272512357,305.9103564623776,310.51292171673845C302.2236880222932,311.17040070835327,299.89210875051907,312.28973053501727,290.88090335900466,317.578033899392C281.8696979674902,322.8663372637667,266.1788664562355,332.32361416585206,255.03969657795255,338.2059964285267C243.90052669966954,344.0883786912013,237.31301845435826,346.3958663144651,225.00282827693,349.42214947910514C212.6926380995017,352.4484326437452,194.65976598995636,356.19351134976137,172.8784422552467,359.4904271076146C151.09711852053704,362.7873428654679,125.56734316066299,365.63609567515823,112.80245548072595,367.06047208000336L100.03756780078895,368.4848484848485" />
    <path stroke="blue" d="M824.0595106015779,132.76534513797037L821.9267874618282,134.19246584166908C819.7940643220786,135.61958654536775,815.5286180425793,138.47382795276516,812.7027291574751,140.04949344591753C809.8768402723709,141.6251589390699,808.490508781662,141.92224851797724,805.1513751151641,142.30644041490154C801.8122414486661,142.69063231182585,796.5203056063792,143.1619265267671,792.8698746334217,145.7730900819491C789.2194436604641,148.38425363713114,787.2105175568358,153.13528653255392,783.9390824644669,155.71194701132833C780.6676473720977,158.28860749010275,776.1337032909877,158.6908955522288,773.1605243828723,159.0148181443794C770.187345474757,159.33874073652999,768.7749317396364,159.5842978587051,766.9996237840193,159.91817431815375C765.2243158284024,160.25205077760242,763.086113652289,160.6742465743246,760.2275761190916,160.99045946744522C757.369038585894,161.30667236056584,753.7901656956124,161.5169023500849,751.3063934278653,161.71651068539603C748.822621160118,161.91611902070713,747.4339495149053,162.10510570181032,746.0638724928846,162.33437010720618C744.6937954708641,162.56363451260208,743.3423130720354,162.83317664229062,742.2925315998174,163.06932161535264C741.2427501275996,163.3054665884146,740.4946695819923,163.50821440485,738.2788188091499,163.7772874944357C736.0629680363073,164.04636058402141,732.3793470362297,164.3817589467575,730.192468773249,164.69115949913657C728.0055905102685,165.00056005151566,727.3154549843853,165.28396279353777,726.265062277782,165.53028328242726C725.214669571179,165.77660377131676,723.8040196838559,165.98584200707361,722.4372651573152,166.23606392968216C721.0705106307745,166.48628585229068,719.7476514650161,166.77749146175086,717.9906587111581,167.72087377895124C716.2336659572996,168.6642560961516,714.0425396153414,170.25981512109217,711.2115469231202,171.85635268652626C708.3805542308991,173.45289025196038,704.9096951884148,175.05040635788805,702.4974591735441,175.9505963956167C700.0852231586733,176.8507864333454,698.7316101714159,177.0536504028751,696.8886167395498,178.43102888488156C695.0456233076837,179.80840736688796,692.7132494312087,182.36030036137115,686.701004427597,186.76428117271777C680.6887594239853,191.1682619840644,670.9966432932368,197.42433061227447,665.5485719931918,200.65673057474805C660.1005006931468,203.88913053722163,658.8964742238053,204.09786183395872,657.9768463820114,204.37850386270134C657.0572185402176,204.65914589144396,656.4219893259715,205.01169865219217,655.7818440408837,205.29259415044473C655.141698755796,205.57348964869723,654.4966373998667,205.78272788445415,653.410242987971,206.11836464243345C652.3238485760753,206.45400140041275,650.7961211082131,206.91603668061452,647.5166875773167,209.52871800963908C644.2372540464204,212.1413993386636,639.2061144524897,216.9047267165109,635.9479693420404,219.44365840287364C632.689824231591,221.98259008923642,631.204673604623,222.29712608411464,630.1323856091475,222.55901319943223C629.0600976136717,222.82090031474976,628.4006722496887,223.03013855050662,625.536703462382,223.9361849808984C622.6727346750753,224.8422314112902,617.6042224644452,226.44508603631687,614.6843213649262,227.37654514038869C611.7644202654072,228.30800424446045,610.9931302769993,228.56806782757735,609.9734520982561,228.96577273333273C608.9537739195129,229.36347763908807,607.6857075504344,229.89882386748195,605.1735652752907,230.9432562626263C602.661423000147,231.9876886577707,598.9052048189384,233.54120721966555,596.6978109104122,234.61475877358836C594.4904170018858,235.68831032751118,593.831847366042,236.28189487346194,593.1848518898793,236.83200188040374C592.5378564137167,237.38210888734557,591.9024350972351,237.88873835527852,591.2670574403526,238.41453216683567C590.6316797834701,238.94032597839282,589.9963457861865,239.48528413357425,583.2989550622427,240.71271883557526C576.601564338299,241.94015353757626,563.8421168876952,243.85006478639693,554.9485129919073,245.94491120432144C546.0549090961193,248.03975762224601,541.0271487551473,250.31953920927444,534.7679694258453,251.5643665261225C528.5087900965432,252.80919384297056,521.018191778911,253.01906688963825,514.3920273246913,253.22409174594648C507.7658628704714,253.4291166022547,502.00413227966374,253.6292932682035,493.45120423446747,253.93507066205984C484.89827618927126,254.24084805591622,473.5541506896864,254.65222617768015,466.41022268558163,255.9175778405712C459.26629468147684,257.1829295034622,456.32256417285197,259.3022547074804,453.0572195945361,260.47319656254007C449.7918750162203,261.64413841759966,446.2049163682134,261.86669692370083,442.6656732958968,264.6691627500513C439.12643022358037,267.4716285764018,435.6349027269542,272.8540017230017,433.4798654094864,275.61237859244164C431.3248280920188,278.3707554618816,430.50628095370945,278.5051360541615,426.3665350255416,278.6879948796084C422.22678909737357,278.8708537050554,414.7658443793471,279.1021907636694,409.2587234717248,279.53425714204906C403.75160256410254,279.9663235204287,400.1983054668847,280.599119218574,396.6131106666753,284.4458925632773C393.02791586646595,288.2926659079806,389.41082336326514,295.35341689924184,385.82472044339767,299.12607000110455C382.2386175235302,302.8987231029673,378.68350418699606,303.3832783154315,375.3920468025494,303.81611687909646C372.10058941810274,304.2489554427614,369.07278798574345,304.6300773576272,365.39972387669127,304.9252574329385C361.7266597676391,305.22043750824986,357.4083329818938,305.4296757440067,352.30747337440306,305.63619930153413C347.2066137669123,305.84272285906155,341.32322133767605,306.0465317383596,335.7549769915265,306.9087324479618C330.18673264537705,307.77093315756406,324.93363638231426,309.2915256974705,319.78620944658553,310.207228819015C314.6387825108568,311.12293194055945,309.597024902462,311.43374564374193,305.9103564623776,311.923994190584C302.2236880222932,312.41424273742615,299.89210875051907,313.0839261279279,290.88090335900466,319.03820785896534C281.8696979674902,324.9924895900028,266.1788664562355,336.2313696615759,255.03969657795255,342.4762718751577C243.90052669966954,348.72117408873964,237.31301845435826,349.97209844433024,225.00282827693,352.57831706688967C212.6926380995017,355.18453568944915,194.65976598995636,359.1460485789775,172.8784422552467,362.49170042912533C151.09711852053704,365.8373522792731,125.56734316066299,368.5671430900405,112.80245548072595,369.93203849542414L100.03756780078895,371.2969339008078" />
    
    <path stroke="darkorange" d="M824.0595106015779,234.53125L821.9267874618282,233.34125044045103C819.7940643220786,232.15125088090204,815.5286180425793,229.7712517618041,812.7027291574751,228.0661254624736C809.8768402723709,226.36099916314308,808.490508781662,225.33074568357998,805.1513751151641,224.36949665985526C801.8122414486661,223.4082476361306,796.5203056063792,222.51600306824423,792.8698746334217,220.70041316271116C789.2194436604641,218.88482325717806,787.2105175568358,216.14588801399827,783.9390824644669,214.49021319659855C780.6676473720977,212.8345383791988,776.1337032909877,212.2621239875792,773.1605243828723,211.87810271348656C770.187345474757,211.4940814393939,768.7749317396364,211.29845328282826,766.9996237840193,210.86733372935393C765.2243158284024,210.4362141758795,763.086113652289,209.76960322549644,760.2275761190916,209.33848367202208C757.369038585894,208.9073641185477,753.7901656956124,208.71173596198204,751.3063934278653,208.51610780541637C748.822621160118,208.3204796488507,747.4339495149053,208.12485149228505,746.0638724928846,207.50533882128374C744.6937954708641,206.88582615028236,743.3423130720354,205.8424289648453,742.2925315998174,205.22291629384395C741.2427501275996,204.60340362284262,740.4946695819923,204.40777546627695,738.2788188091499,203.7882627952756C736.0629680363073,203.16875012427423,732.3793470362297,202.1253529388372,730.192468773249,201.08195575340017C728.0055905102685,200.03855856796312,727.3154549843853,198.99516138252602,726.265062277782,198.3756487115247C725.214669571179,197.75613604052333,723.8040196838559,197.56050788395768,722.4372651573152,197.364879727392C721.0705106307745,197.16925157082633,719.7476514650161,196.9736234142607,717.9906587111581,196.35411074325933C716.2336659572996,195.734598072258,714.0425396153414,194.69120088682095,711.2115469231202,194.19947692973037C708.3805542308991,193.70775297263978,704.9096951884148,193.76770224389566,702.4974591735441,193.69986280124076C700.0852231586733,193.63202335858588,698.7316101714159,193.4363952020202,696.8886167395498,192.9406296828172C695.0456233076837,192.4448641636142,692.7132494312087,191.64896128177384,686.701004427597,187.01217012154515C680.6887594239853,182.3753789613165,670.9966432932368,173.89769952269953,665.5485719931918,169.56104572510822C660.1005006931468,165.22439192751693,658.8964742238053,165.0287637709513,657.9768463820114,164.8331356143856C657.0572185402176,164.63750745781996,656.4219893259715,164.44187930125432,655.7818440408837,164.24625114468864C655.141698755796,164.050622988123,654.4966373998667,163.85499483155732,653.410242987971,163.3241407897658C652.3238485760753,162.79328674797424,650.7961211082131,161.92720682095683,647.5166875773167,161.39635277916528C644.2372540464204,160.86549873737374,639.2061144524897,160.66987058080807,635.9479693420404,160.1314833730564C632.689824231591,159.59309616530473,631.204673604623,158.71194990636704,630.1323856091475,158.17356269861534C629.0600976136717,157.63517549086365,628.4006722496887,157.439547334298,625.536703462382,156.63905026387468C622.6727346750753,155.83855319345136,617.6042224644452,154.43318720917034,614.6843213649262,153.632690138747C611.7644202654072,152.83219306832368,610.9931302769993,152.636564911758,609.9734520982561,151.83606784133465C608.9537739195129,151.03557077091133,607.6857075504344,149.63020478663034,605.1735652752907,147.98961200251577C602.661423000147,146.34901921840125,598.9052048189384,144.47319963445315,596.6978109104122,142.24117946789997C594.4904170018858,140.0091593013468,593.831847366042,137.42093855218855,593.1848518898793,135.43086595117845C592.5378564137167,133.44079335016838,591.9024350972351,132.04886889730642,591.2670574403526,130.65694444444446C590.6316797834701,129.2650199915825,589.9963457861865,127.87309553872053,583.2989550622427,125.2848747895623C576.601564338299,122.69665404040404,563.8421168876952,118.91213699494949,554.9485129919073,116.32391624579124C546.0549090961193,113.735695496633,541.0271487551473,112.34377104377104,534.7679694258453,111.54999473905724C528.5087900965432,110.75621843434344,521.018191778911,110.56059027777779,514.3920273246913,110.36496212121214C507.7658628704714,110.16933396464647,502.00413227966374,109.97370580808081,493.45120423446747,109.42699069499342C484.89827618927126,108.88027558190602,473.5541506896864,107.98247351229686,466.41022268558163,106.26546854413702C459.26629468147684,104.54846357597717,456.32256417285197,102.01225570926658,453.0572195945361,100.64633769762845C449.7918750162203,99.28041968599034,446.2049163682134,99.08479152942469,442.6656732958968,97.13372859025033C439.12643022358037,95.18266565107598,435.6349027269542,91.47616792929291,433.4798654094864,89.52510499011856C431.3248280920188,87.57404205094421,430.50628095370945,87.37841389437854,426.3665350255416,86.90888811215764C422.22678909737357,86.43936232993673,414.7658443793471,85.69593892206056,409.2587234717248,85.22641313983965C403.75160256410254,84.75688735761874,400.1983054668847,84.56125920105309,396.6131106666753,83.22024097356544C393.02791586646595,81.8792227460778,389.41082336326514,79.39281444766816,385.82472044339767,78.05179622018052C382.2386175235302,76.71077799269288,378.68350418699606,76.51514983612721,375.3920468025494,76.31952167956156C372.10058941810274,76.1238935229959,369.07278798574345,75.92826536643025,365.39972387669127,75.73263720986459C361.7266597676391,75.53700905329895,357.4083329818938,75.34138089673327,352.30747337440306,75.14575274016762C347.2066137669123,74.95012458360196,341.32322133767605,74.75449642703632,335.7549769915265,73.98617323500966C330.18673264537705,73.21785004298302,324.93363638231426,71.87683181549538,319.78620944658553,71.10850862346874C314.6387825108568,70.34018543144208,309.597024902462,70.14455727487643,305.9103564623776,69.48707828326158C302.2236880222932,68.82959929164674,299.89210875051907,67.71026946498272,290.88090335900466,62.42196610060801C281.8696979674902,57.133662736233305,266.1788664562355,47.676385834147936,255.03969657795255,41.79400357147333C243.90052669966954,35.911621308798736,237.31301845435826,33.6041336855349,225.00282827693,30.57785052089488C212.6926380995017,27.55156735625486,194.65976598995636,23.806488650238652,172.8784422552467,20.509572892385396C151.09711852053704,17.212657134532133,125.56734316066299,14.363904324841819,112.80245548072595,12.939527919996662L100.03756780078895,11.515151515151503" />
    <path stroke="orange" d="M824.0595106015779,247.23465486202963L821.9267874618282,245.80753415833092C819.7940643220786,244.38041345463225,815.5286180425793,241.52617204723484,812.7027291574751,239.9505065540825C809.8768402723709,238.3748410609301,808.490508781662,238.07775148202276,805.1513751151641,237.69355958509846C801.8122414486661,237.30936768817415,796.5203056063792,236.83807347323287,792.8698746334217,234.2269099180509C789.2194436604641,231.61574636286886,787.2105175568358,226.8647134674461,783.9390824644669,224.2880529886717C780.6676473720977,221.71139250989725,776.1337032909877,221.30910444777123,773.1605243828723,220.98518185562065C770.187345474757,220.66125926347004,768.7749317396364,220.41570214129493,766.9996237840193,220.08182568184625C765.2243158284024,219.74794922239758,763.086113652289,219.3257534256754,760.2275761190916,219.00954053255478C757.369038585894,218.69332763943416,753.7901656956124,218.4830976499151,751.3063934278653,218.28348931460394C748.822621160118,218.08388097929287,747.4339495149053,217.89489429818968,746.0638724928846,217.66562989279382C744.6937954708641,217.43636548739792,743.3423130720354,217.16682335770938,742.2925315998174,216.9306783846474C741.2427501275996,216.6945334115854,740.4946695819923,216.49178559515,738.2788188091499,216.22271250556426C736.0629680363073,215.95363941597859,732.3793470362297,215.6182410532425,730.192468773249,215.30884050086343C728.0055905102685,214.99943994848434,727.3154549843853,214.71603720646223,726.265062277782,214.46971671757274C725.214669571179,214.22339622868324,723.8040196838559,214.01415799292636,722.4372651573152,213.76393607031784C721.0705106307745,213.5137141477093,719.7476514650161,213.22250853824914,717.9906587111581,212.27912622104876C716.2336659572996,211.33574390384842,714.0425396153414,209.74018487890785,711.2115469231202,208.14364731347374C708.3805542308991,206.54710974803962,704.9096951884148,204.94959364211198,702.4974591735441,204.04940360438331C700.0852231586733,203.14921356665465,698.7316101714159,202.94634959712494,696.8886167395498,201.5689711151185C695.0456233076837,200.19159263311204,692.7132494312087,197.63969963862885,686.701004427597,193.23571882728223C680.6887594239853,188.8317380159356,670.9966432932368,182.5756693877255,665.5485719931918,179.34326942525192C660.1005006931468,176.1108694627783,658.8964742238053,175.90213816604125,657.9768463820114,175.62149613729864C657.0572185402176,175.340854108556,656.4219893259715,174.9883013478078,655.7818440408837,174.70740584955527C655.141698755796,174.42651035130277,654.4966373998667,174.21727211554585,653.410242987971,173.88163535756655C652.3238485760753,173.54599859958725,650.7961211082131,173.08396331938548,647.5166875773167,170.47128199036092C644.2372540464204,167.8586006613364,639.2061144524897,163.0952732834891,635.9479693420404,160.55634159712633C632.689824231591,158.01740991076358,631.204673604623,157.70287391588533,630.1323856091475,157.4409868005678C629.0600976136717,157.1790996852502,628.4006722496887,156.96986144949335,625.536703462382,156.06381501910155C622.6727346750753,155.15776858870979,617.6042224644452,153.55491396368313,614.6843213649262,152.62345485961134C611.7644202654072,151.69199575553955,610.9931302769993,151.43193217242265,609.9734520982561,151.03422726666727C608.9537739195129,150.63652236091187,607.6857075504344,150.10117613251802,605.1735652752907,149.05674373737367C602.661423000147,148.0123113422293,598.9052048189384,146.45879278033442,596.6978109104122,145.3852412264116C594.4904170018858,144.31168967248882,593.831847366042,143.71810512653806,593.1848518898793,143.16799811959626C592.5378564137167,142.6178911126544,591.9024350972351,142.1112616447215,591.2670574403526,141.58546783316436C590.6316797834701,141.05967402160718,589.9963457861865,140.51471586642577,583.2989550622427,139.28728116442474C576.601564338299,138.05984646242374,563.8421168876952,136.14993521360307,554.9485129919073,134.05508879567853C546.0549090961193,131.96024237775399,541.0271487551473,129.68046079072556,534.7679694258453,128.4356334738775C528.5087900965432,127.19080615702944,521.018191778911,126.98093311036173,514.3920273246913,126.7759082540535C507.7658628704714,126.57088339774526,502.00413227966374,126.37070673179649,493.45120423446747,126.06492933794011C484.89827618927126,125.75915194408378,473.5541506896864,125.34777382231987,466.41022268558163,124.0824221594288C459.26629468147684,122.81707049653777,456.32256417285197,120.69774529251958,453.0572195945361,119.52680343745995C449.7918750162203,118.35586158240032,446.2049163682134,118.13330307629919,442.6656732958968,115.33083724994869C439.12643022358037,112.52837142359817,435.6349027269542,107.14599827699828,433.4798654094864,104.38762140755837C431.3248280920188,101.62924453811847,430.50628095370945,101.49486394583853,426.3665350255416,101.31200512039156C422.22678909737357,101.12914629494459,414.7658443793471,100.8978092363306,409.2587234717248,100.46574285795094C403.75160256410254,100.0336764795713,400.1983054668847,99.40088078142598,396.6131106666753,95.5541074367227C393.02791586646595,91.70733409201944,389.41082336326514,84.64658310075818,385.82472044339767,80.87392999889545C382.2386175235302,77.10127689703273,378.68350418699606,76.61672168456853,375.3920468025494,76.18388312090356C372.10058941810274,75.75104455723857,369.07278798574345,75.3699226423728,365.39972387669127,75.07474256706149C361.7266597676391,74.77956249175016,357.4083329818938,74.57032425599328,352.30747337440306,74.36380069846585C347.2066137669123,74.15727714093842,341.32322133767605,73.95346826164042,335.7549769915265,73.09126755203819C330.18673264537705,72.22906684243594,324.93363638231426,70.70847430252947,319.78620944658553,69.79277118098501C314.6387825108568,68.87706805944055,309.597024902462,68.56625435625813,305.9103564623776,68.076005809416C302.2236880222932,67.58575726257389,299.89210875051907,66.91607387207209,290.88090335900466,60.96179214103464C281.8696979674902,55.007510409997195,266.1788664562355,43.76863033842412,255.03969657795255,37.52372812484226C243.90052669966954,31.278825911260395,237.31301845435826,30.027901555669747,225.00282827693,27.421682933110276C212.6926380995017,24.815464310550812,194.65976598995636,20.853951421022526,172.8784422552467,17.50829957087471C151.09711852053704,14.162647720726893,125.56734316066299,11.432856909959545,112.80245548072595,10.067961504575871L100.03756780078895,8.703066099192199" />
  </g>
  
  <g class="axis y" stroke="black" fill="none" stroke-dasharray="4 6">
    <path d="M 0,285 h900" /><path d="M 0,190 h900" /><path d="M 0,95 h900" />
  </g>
  <g
    class="axis x"
    stroke="black" fill="none"
    transform="translate(0, 380)">
  
  <path d="M0,0 h900" />
  <g transform="translate(75, 0)">
      <text text-anchor="middle"
      fill="black"
      stroke="none"
      transform="translate(0, 12)">Mar</text>
      <path d="M0,0 v-5" />
    </g><g transform="translate(157, 0)">
      <text text-anchor="middle"
      fill="black"
      stroke="none"
      transform="translate(0, 12)">Apr</text>
      <path d="M0,0 v-5" />
    </g><g transform="translate(237, 0)">
      <text text-anchor="middle"
      fill="black"
      stroke="none"
      transform="translate(0, 12)">May</text>
      <path d="M0,0 v-5" />
    </g><g transform="translate(320, 0)">
      <text text-anchor="middle"
      fill="black"
      stroke="none"
      transform="translate(0, 12)">Jun</text>
      <path d="M0,0 v-5" />
    </g><g transform="translate(399, 0)">
      <text text-anchor="middle"
      fill="black"
      stroke="none"
      transform="translate(0, 12)">Jul</text>
      <path d="M0,0 v-5" />
    </g><g transform="translate(482, 0)">
      <text text-anchor="middle"
      fill="black"
      stroke="none"
      transform="translate(0, 12)">Aug</text>
      <path d="M0,0 v-5" />
    </g><g transform="translate(564, 0)">
      <text text-anchor="middle"
      fill="black"
      stroke="none"
      transform="translate(0, 12)">Sep</text>
      <path d="M0,0 v-5" />
    </g><g transform="translate(644, 0)">
      <text text-anchor="middle"
      fill="black"
      stroke="none"
      transform="translate(0, 12)">Oct</text>
      <path d="M0,0 v-5" />
    </g><g transform="translate(727, 0)">
      <text text-anchor="middle"
      fill="black"
      stroke="none"
      transform="translate(0, 12)">Nov</text>
      <path d="M0,0 v-5" />
    </g><g transform="translate(807, 0)">
      <text text-anchor="middle"
      fill="black"
      stroke="none"
      transform="translate(0, 12)">Dec</text>
      <path d="M0,0 v-5" />
    </g>
  
  </g>
</svg>