<svg xmlns="http://www.w3.org/2000/svg"
  viewBox="0 0 900 400"
  width="900"
  height="400">
  <style>
    text {
      font-family: "Courier New", Courier, monospace;
      font-size: 12px;
    }
  </style>
  <g class="lines" fill="none">
    <path stroke="darkblue" d="M882.4292489035088,73.18518518518516L874.9752060747159,74.07245318149073C867.5211632459228,74.95972117779628,852.613077588337,76.7342571704074,842.3064285626955,78.02821415442533C831.9997795370542,79.32217113844324,826.2945671433572,80.13554911386797,813.038055407555,81.46314948037677C799.7815436717528,82.79074984688559,778.9737325938453,84.6325726044785,759.4300363277067,85.86972119206422C739.8863400615683,87.10686977964993,721.6067586071989,87.73934419722845,697.589172309993,90.00620458429226C673.5715860127874,92.27306497135606,643.8159948727454,96.17431132790516,616.4094024991507,98.36186361699568C589.002810125556,100.5494159060862,563.9452165184088,101.02327412771815,546.6479466046095,103.17668922450257C529.35067669081,105.33010432128695,519.8137304703587,109.1630762932238,514.3450291786354,112.0181663568726C508.8763278869121,114.8732564205214,507.47587152391696,116.75046457588219,506.2863889821936,118.62767273124301C505.0969064404703,120.5048808866038,504.11839772001895,122.38208904196459,495.8824625558541,125.09392252032279C487.6465273916893,127.805755998681,472.15316578381106,131.35221480003662,462.63330266825733,133.07854837777865C453.1134395527036,134.80488195552067,449.56707492947453,134.7110903096491,440.3253219656021,135.59637836960144C431.0835690017297,136.48166642955377,416.146427697214,138.34603419532996,407.86992258604624,139.22730350739704C399.59341747487844,140.10857281946411,397.9775485570587,140.00674367782204,394.0731493943559,140.53174846282903C390.16875023165306,141.056753247836,383.97582082406717,142.20859195949205,378.84365553380593,143.9806755512692C373.71149024354463,145.75275914304635,369.6400890706079,148.14508761494463,366.84913631689625,149.86254326707544C364.0581835631847,151.57999891920625,362.5476792286982,152.62258175156964,359.30020874837845,153.59616012809465C356.05273826805865,154.56973850461966,351.0683016419055,155.4743124253063,347.5439403995244,157.3022316836397C344.0195791571432,159.13015094197308,341.9552932985339,161.8814155379532,338.76803891836033,163.5494197081532C335.5807845381867,165.21742387835323,331.2705616364488,165.80216762277314,328.348598283322,166.19851824966608C325.42663493019523,166.594868876559,323.8929311256795,166.80282638592496,322.0364424618802,167.24627529219967C320.1799537980809,167.68972419847432,318.00068027499793,168.36866450165772,315.18068740798225,168.8121134079324C312.36069454096656,169.25556231420708,308.89998233001813,169.46351982357302,306.4133333043767,169.67147733293896C303.9266842787353,169.87943484230496,302.4140984384009,170.0873923516709,300.91805202606355,170.71923437547255C299.42200561372624,171.35107639927423,297.94249862938597,172.40680293751157,296.73134667976797,173.03864496131325C295.52019473014997,173.67048698511493,294.5773978152541,173.87844449448087,292.32905790876475,174.51028651828256C290.0807180022753,175.14212854208418,286.52683510419246,176.19785508032155,284.30426548279075,177.25358161855888C282.0816958613891,178.30930815679622,281.19043951666873,179.3650346950336,279.97874389015016,179.99687671883524C278.7670482636315,180.62871874263692,277.23491335531463,180.8366762520029,275.74182221527263,181.04463376136883C274.24873107523064,181.2525912707348,272.7946837034635,181.46054878010077,270.95448592964954,182.0923908039024C269.1142881558356,182.72423282770407,266.8879399799749,183.7799593659414,264.0924475241434,184.2840126758323C261.29695506831195,184.7880659857232,257.93231833250974,184.7404460672676,255.50929892126885,184.8206148627228C253.08627951002802,184.90078365817803,251.6048774233486,185.10874116754397,249.68818430962236,185.61683603954728C247.77149119589615,186.12493091155065,245.41950705512315,186.9331631461913,239.79437438547586,191.58228365922028C234.16924171582858,196.23140417224923,225.27096051730703,204.7214129636665,220.14764551030598,209.0703961140581C215.02433050330492,213.4193792644497,213.67598168782433,213.62733677381564,212.580597967373,213.8352942831816C211.4852142469216,214.04325179254758,210.64279562149946,214.25120930191352,209.79600428043406,214.4591668112795C208.94921293936866,214.66712432064546,208.09804888266,214.8750818300114,206.85433068669695,215.41826522460323C205.61061249073387,215.96144861919507,203.97434015551644,216.8398578990128,200.77997137475805,217.3830412936047C197.58560259399965,217.9262246881965,192.83313736770037,218.13418219756247,189.65770407670803,218.68489875811443C186.48227078571577,219.23561531866642,184.88386943003047,220.12909093040443,183.65269852025162,220.67980749095645C182.4215276104728,221.23052405150838,181.55758714660035,221.43848156087438,178.73276332198233,222.25130798409796C175.9079394973643,223.06413440732163,171.12223231200065,224.48182974440294,168.2476581675727,225.29465616762658C165.37308402314474,226.1074825908502,164.40964291965244,226.31544010021616,163.2252670573882,227.12826652343983C162.04089119512398,227.94109294666347,160.6355805740878,229.35878828374476,158.1236971734464,231.01171042065963C155.611813772805,232.6646325575745,151.99335759255828,234.5527814943229,149.75253984432914,236.79713101367633C147.5117220961,239.04148053302984,146.6485427798884,241.64203063498837,145.79565837413,243.64443258879882C144.94277396837163,245.64683454260918,144.10018447306646,247.05108834827146,143.25763381182563,248.45534215393369C142.4150831505848,249.85959595959594,141.57257132340828,251.26384976525821,135.3380195656762,253.8643998672168C129.10346780794416,256.46494996917534,117.47687611965655,260.2617963674302,109.28885054065255,262.86234646938874C101.10082496164857,265.4628965713473,96.35136549192818,266.8671503770095,90.50659123785108,267.67325603452366C84.66181698377399,268.4793616920378,77.72172794534019,268.6873192014037,71.55053008015197,268.8952767107697C65.37933221496377,269.1032342201356,59.977025523021176,269.3111917295016,52.09202214796454,269.8702361953893C44.20701877290792,270.429280661277,33.83931871473726,271.33941208368645,27.207583797282968,273.0687464046466C20.575848879828683,274.7980807256068,17.680079103090765,277.34661794511766,14.498242074890868,278.7248653095561C11.316405046690967,280.1031126739945,7.84850076702908,280.31107018336047,4.423038236270702,282.2744624753351C0.9975757055123248,284.2378547673098,-2.385445076342544,287.95668184189316,-4.579693014630167,289.9200741338678C-6.77394095291779,291.8834664258424,-7.779416047638166,292.0914239352084,-11.73901006596965,292.5732790702296C-15.69860408430113,293.05513420525085,-22.612317026243716,293.8108869659273,-27.78815510524771,294.2927421009485C-32.963993184251706,294.7745972359698,-36.401956400317104,294.9825547453357,-39.86829178378016,296.33590232562364C-43.33462716724322,297.6892499059116,-46.829334718103944,300.1879875571215,-50.29647785010501,301.5413351374095C-53.76362098210608,302.89468271769744,-57.2031996952475,303.1026402270634,-60.40826337732167,303.3105977364293C-63.61332705939583,303.5185552457953,-66.58387571040275,303.72651275516125,-70.12836853173131,303.9344702645272C-73.67286135305987,304.1424277738932,-77.79129834471007,304.35038528325913,-82.60577768833396,304.5583427926251C-87.42025703195783,304.76630030199107,-92.93077872755539,304.97425781135706,-98.16098449661786,305.754910356184C-103.39119026568032,306.5355629010109,-108.34108010820772,307.88891048129886,-113.19697986484329,308.6695630261258C-118.05287962147888,309.4502155709527,-122.81478929222264,309.6581730803187,-126.37138280799563,310.3279814247338C-129.92797632376863,310.997789769149,-132.27925368457088,312.1294489486133,-140.57188269924737,317.4300816657883C-148.8645117139239,322.7307143829633,-163.09849238247466,332.200320637849,-173.28388980906638,338.09503225332395C-183.46928723565807,343.9897438687988,-189.60610142029077,346.309560844863,-200.83309058664858,349.34817336230327C-212.06007975300636,352.3867858797437,-228.3772439010893,356.1441939385602,-248.0285571262921,359.4534390492137C-267.6798703514949,362.7626841598673,-290.66533265381764,365.6237663223579,-302.15806380497895,367.05430740360316L-313.6507949561403,368.4848484848485" />
    <path stroke="blue" d="M882.4292489035088,57.08416591148308L874.9752060747159,58.33092214132885C867.5211632459228,59.57767837117462,852.613077588337,62.07119083086616,842.3064285626955,63.48932555280626C831.9997795370542,64.90746027474634,826.2945671433572,65.25021725893498,813.038055407555,66.68958579637352C799.7815436717528,68.12895433381206,778.9737325938453,70.6649344245005,759.4300363277067,72.19032048293562C739.8863400615683,73.71570654137072,721.6067586071989,74.23049856755252,697.589172309993,77.50685493500401C673.5715860127874,80.78321130245551,643.8159948727454,86.82113201117672,616.4094024991507,90.1793477758788C589.002810125556,93.53756354058089,563.9452165184088,94.21607436126385,546.6479466046095,96.14252659667363C529.35067669081,98.06897883208342,519.8137304703587,101.24337248222002,514.3450291786354,103.1944638119317C508.8763278869121,105.14555514164334,507.47587152391696,105.87334415093005,506.2863889821936,106.46005568749547C505.0969064404703,107.04676722406089,504.11839772001895,107.49240128790497,495.8824625558541,110.10850815305007C487.6465273916893,112.72461501819515,472.15316578381106,117.51119468464123,462.63330266825733,120.01070003667405C453.1134395527036,122.51020538870688,449.56707492947453,122.72263642632647,440.3253219656021,123.6991810255722C431.0835690017297,124.67572562481791,416.146427697214,126.41638378568977,407.86992258604624,127.3257047364932C399.59341747487844,128.2350256872966,397.9775485570587,128.31300942803156,394.0731493943559,128.7379666594999C390.16875023165306,129.16292389096824,383.97582082406717,129.93485461316996,378.84365553380593,131.75395985867885C373.71149024354463,133.57306510418778,369.6400890706079,136.43934487300388,366.84913631689625,138.02704872757496C364.0581835631847,139.61475258214602,362.5476792286982,139.92388052247207,359.30020874837845,140.3201107808151C356.05273826805865,140.7163410391581,351.0683016419055,141.19967361551804,347.5439403995244,143.8228755321188C344.0195791571432,146.44607744871948,341.9552932985339,151.20914870556098,338.76803891836033,153.79784754575408C335.5807845381867,156.3865463859472,331.2705616364488,156.80087280949198,328.348598283322,157.13683376306128C325.42663493019523,157.47279471663057,323.8929311256795,157.73039020022438,322.0364424618802,158.07630502109177C320.1799537980809,158.4222198419591,318.00068027499793,158.85645400010003,315.18068740798225,159.18470525463934C312.36069454096656,159.51295650917868,308.89998233001813,159.73522486011646,306.4133333043767,159.94687155684628C303.9266842787353,160.1585182535761,302.4140984384009,160.35954329609797,300.91805202606355,160.60084606291255C299.42200561372624,160.84214882972714,297.94249862938597,161.12372932083443,296.73134667976797,161.37191265531513C295.52019473014997,161.6200959897958,294.5773978152541,161.83488216764988,292.32905790876475,162.1159936186543C290.0807180022753,162.39710506965875,286.52683510419246,162.7445417938135,284.30426548279075,163.0659807076113C282.0816958613891,163.3874196214091,281.19043951666873,163.6828607248499,279.97874389015016,163.9412195751581C278.7670482636315,164.19957842546629,277.23491335531463,164.42085502264186,275.74182221527263,164.68311530666907C274.24873107523064,164.94537559069633,272.7946837034635,165.2486195615752,270.95448592964954,166.2040402401943C269.1142881558356,167.15946091881338,266.8879399799749,168.76705830517264,264.0924475241434,170.37563423202545C261.29695506831195,171.98421015887826,257.93231833250974,173.5937646262246,255.50929892126885,174.50599302537202C253.08627951002802,175.41822142451937,251.6048774233486,175.63312375546778,249.68818430962236,177.02254059889296C247.77149119589615,178.41195744231808,245.41950705512315,180.97588879821998,239.79437438547586,185.39190797098533C234.16924171582858,189.80792714375062,225.27096051730703,196.07603413337947,220.14764551030598,199.32047245727173C215.02433050330492,202.564910781164,213.67598168782433,202.78568043931978,212.580597967373,203.0783608294811C211.4852142469216,203.37104121964248,210.64279562149946,203.73563234180938,209.79600428043406,204.02856620148063C208.94921293936866,204.32150006115185,208.09804888266,204.54277665832743,206.85433068669695,204.89045177772542C205.61061249073387,205.2381268971235,203.97434015551644,205.71220053874393,200.77997137475805,208.3369202291872C197.58560259399965,210.96163991963044,192.83313736770037,215.73700565889644,189.65770407670803,218.2879757066779C186.48227078571577,220.83894575445936,184.88386943003047,221.16552011075632,183.65269852025162,221.43944558749254C182.4215276104728,221.7133710642288,181.55758714660035,221.93464766140437,178.73276332198233,222.8527324532149C175.9079394973643,223.77081724502537,171.12223231200065,225.38571023147074,168.2476581675727,226.32920769696125C165.37308402314474,227.27270516245176,164.40964291965244,227.54480710698735,163.2252670573882,227.9545503741614C162.04089119512398,228.3642936413355,160.6355805740878,228.9116782311481,158.1236971734464,229.96814898771117C155.611813772805,231.02461974427422,151.99335759255828,232.59017666758783,149.75253984432914,233.67576658292933C147.5117220961,234.76135649827086,146.6485427798884,235.3669794056403,145.79565837413,235.92912477400083C144.94277396837163,236.49127014236137,144.10018447306646,237.00993797171296,143.25763381182563,237.54777014468883C142.4150831505848,238.0856023176647,141.57257132340828,238.64259883426485,135.3380195656762,239.88207189768457C129.10346780794416,241.1215449611043,117.47687611965655,243.04349457134364,109.28885054065255,245.15037935068688C101.10082496164857,247.2572641300301,96.35136549192818,249.54908407847725,90.50659123785108,250.805949756744C84.66181698377399,252.06281543501078,77.72172794534019,252.28472684309722,71.55053008015197,252.50179006082416C65.37933221496377,252.7188532785511,59.977025523021176,252.93106830591856,52.09202214796454,253.24888406119362C44.20701877290792,253.56669981646868,33.83931871473726,253.9901162996513,27.207583797282968,255.2675063239611C20.575848879828683,256.5448963482708,17.680079103090765,258.6762599137077,14.498242074890868,259.85924013018604C11.316405046690967,261.0422203466644,7.84850076702908,261.27681721418423,4.423038236270702,264.09132140195345C0.9975757055123248,266.9058255897226,-2.385445076342544,272.3002370977412,-4.579693014630167,275.07065232859986C-6.77394095291779,277.8410675594585,-7.779416047638166,277.98748651315714,-11.73901006596965,278.18238370002285C-15.69860408430113,278.3772808868885,-22.612317026243716,278.62065630692115,-27.78815510524771,279.0647610467195C-32.963993184251706,279.50886578651784,-36.401956400317104,280.1536998460819,-39.86829178378016,284.0125115522039C-43.33462716724322,287.87132325832584,-46.829334718103944,294.9441126110058,-50.29647785010501,298.7288040742872C-53.76362098210608,302.51349553756864,-57.2031996952475,303.0100891114516,-60.40826337732167,303.45496603653527C-63.61332705939583,303.89984296161896,-66.58387571040275,304.2930032379034,-70.12836853173131,304.6002216746335C-73.67286135305987,304.9074401113635,-77.79129834471007,305.12871670853906,-82.60577768833396,305.3472786274852C-87.42025703195783,305.56584054643133,-92.93077872755539,305.78168778714803,-98.16098449661786,306.655926858169C-103.39119026568032,307.53016592918993,-108.34108010820772,309.0627968305151,-113.19697986484329,309.9905383134783C-118.05287962147888,310.9182797964415,-122.81478929222264,311.24113186104256,-126.37138280799563,311.74341876930345C-129.92797632376863,312.2457056775643,-132.27925368457088,312.9274274294848,-140.57188269924737,318.8937475219409C-148.8645117139239,324.860067614397,-163.09849238247466,336.11098604738885,-173.28388980906638,342.3679266223894C-183.46928723565807,348.62486719738996,-189.60610142029077,349.88782991439933,-200.83309058664858,352.50608689837753C-212.06007975300636,355.12434388235573,-228.3772439010893,359.0978951333027,-248.0285571262921,362.4555853448692C-267.6798703514949,365.8132755564357,-290.66533265381764,368.55510472862176,-302.15806380497895,369.9260193147148L-313.6507949561403,371.2969339008078" />
    
    <path stroke="darkorange" d="M882.4292489035088,306.81481481481484L874.9752060747159,305.92754681850926C867.5211632459228,305.04027882220373,852.613077588337,303.2657428295926,842.3064285626955,301.9717858455747C831.9997795370542,300.67782886155675,826.2945671433572,299.86445088613203,813.038055407555,298.5368505196232C799.7815436717528,297.2092501531144,778.9737325938453,295.3674273955215,759.4300363277067,294.1302788079358C739.8863400615683,292.8931302203501,721.6067586071989,292.26065580277157,697.589172309993,289.9937954157078C673.5715860127874,287.72693502864394,643.8159948727454,283.8256886720949,616.4094024991507,281.63813638300434C589.002810125556,279.4505840939138,563.9452165184088,278.9767258722818,546.6479466046095,276.8233107754974C529.35067669081,274.669895678713,519.8137304703587,270.8369237067762,514.3450291786354,267.9818336431274C508.8763278869121,265.1267435794786,507.47587152391696,263.2495354241178,506.2863889821936,261.37232726875703C505.0969064404703,259.49511911339624,504.11839772001895,257.61791095803545,495.8824625558541,254.90607747967724C487.6465273916893,252.19424400131902,472.15316578381106,248.6477851999634,462.63330266825733,246.92145162222138C453.1134395527036,245.19511804447936,449.56707492947453,245.28890969035092,440.3253219656021,244.4036216303986C431.0835690017297,243.51833357044623,416.146427697214,241.65396580467004,407.86992258604624,240.77269649260293C399.59341747487844,239.89142718053589,397.9775485570587,239.99325632217793,394.0731493943559,239.46825153717097C390.16875023165306,238.943246752164,383.97582082406717,237.79140804050795,378.84365553380593,236.01932444873077C373.71149024354463,234.24724085695365,369.6400890706079,231.85491238505537,366.84913631689625,230.13745673292456C364.0581835631847,228.42000108079375,362.5476792286982,227.37741824843042,359.30020874837845,226.40383987190538C356.05273826805865,225.43026149538036,351.0683016419055,224.52568757469373,347.5439403995244,222.69776831636034C344.0195791571432,220.86984905802694,341.9552932985339,218.1185844620468,338.76803891836033,216.4505802918468C335.5807845381867,214.78257612164677,331.2705616364488,214.19783237722686,328.348598283322,213.80148175033392C325.42663493019523,213.40513112344095,323.8929311256795,213.197173614075,322.0364424618802,212.75372470780033C320.1799537980809,212.31027580152565,318.00068027499793,211.63133549834228,315.18068740798225,211.18788659206757C312.36069454096656,210.74443768579292,308.89998233001813,210.53648017642695,306.4133333043767,210.32852266706098C303.9266842787353,210.12056515769504,302.4140984384009,209.91260764832907,300.91805202606355,209.28076562452745C299.42200561372624,208.64892360072577,297.94249862938597,207.59319706248843,296.73134667976797,206.96135503868675C295.52019473014997,206.32951301488512,294.5773978152541,206.12155550551915,292.32905790876475,205.48971348171747C290.0807180022753,204.85787145791585,286.52683510419246,203.8021449196785,284.30426548279075,202.74641838144112C282.0816958613891,201.69069184320378,281.19043951666873,200.63496530496639,279.97874389015016,200.0031232811647C278.7670482636315,199.37128125736308,277.23491335531463,199.16332374799708,275.74182221527263,198.95536623863117C274.24873107523064,198.74740872926517,272.7946837034635,198.53945121989923,270.95448592964954,197.90760919609758C269.1142881558356,197.2757671722959,266.8879399799749,196.22004063405856,264.0924475241434,195.71598732416768C261.29695506831195,195.2119340142768,257.93231833250974,195.2595539327324,255.50929892126885,195.1793851372772C253.08627951002802,195.09921634182197,251.6048774233486,194.89125883245603,249.68818430962236,194.38316396045272C247.77149119589615,193.8750690884494,245.41950705512315,193.06683685380872,239.79437438547586,188.41771634077975C234.16924171582858,183.7685958277508,225.27096051730703,175.27858703633353,220.14764551030598,170.92960388594193C215.02433050330492,166.58062073555033,213.67598168782433,166.37266322618436,212.580597967373,166.1647057168184C211.4852142469216,165.95674820745242,210.64279562149946,165.74879069808648,209.79600428043406,165.5408331887205C208.94921293936866,165.33287567935454,208.09804888266,165.1249181699886,206.85433068669695,164.58173477539674C205.61061249073387,164.0385513808049,203.97434015551644,163.16014210098717,200.77997137475805,162.6169587063953C197.58560259399965,162.07377531180347,192.83313736770037,161.86581780243753,189.65770407670803,161.31510124188557C186.48227078571577,160.76438468133355,184.88386943003047,159.87090906959557,183.65269852025162,159.32019250904355C182.4215276104728,158.7694759484916,181.55758714660035,158.56151843912565,178.73276332198233,157.748692015902C175.9079394973643,156.93586559267837,171.12223231200065,155.51817025559706,168.2476581675727,154.70534383237342C165.37308402314474,153.89251740914978,164.40964291965244,153.6845598997838,163.2252670573882,152.87173347656017C162.04089119512398,152.05890705333653,160.6355805740878,150.64121171625524,158.1236971734464,148.98828957934037C155.611813772805,147.33536744242554,151.99335759255828,145.4472185056771,149.75253984432914,143.20286898632364C147.5117220961,140.95851946697016,146.6485427798884,138.35796936501163,145.79565837413,136.35556741120124C144.94277396837163,134.35316545739082,144.10018447306646,132.94891165172857,143.25763381182563,131.54465784606631C142.4150831505848,130.14040404040404,141.57257132340828,128.73615023474179,135.3380195656762,126.13560013278322C129.10346780794416,123.53505003082468,117.47687611965655,119.73820363256984,109.28885054065255,117.1376535306113C101.10082496164857,114.53710342865274,96.35136549192818,113.13284962299048,90.50659123785108,112.32674396547638C84.66181698377399,111.52063830796226,77.72172794534019,111.3126807985963,71.55053008015197,111.10472328923034C65.37933221496377,110.89676577986438,59.977025523021176,110.68880827049843,52.09202214796454,110.12976380461072C44.20701877290792,109.57071933872301,33.83931871473726,108.66058791631356,27.207583797282968,106.93125359535343C20.575848879828683,105.20191927439323,17.680079103090765,102.65338205488236,14.498242074890868,101.27513469044395C11.316405046690967,99.89688732600551,7.84850076702908,99.68892981663954,4.423038236270702,97.7255375246649C0.9975757055123248,95.76214523269023,-2.385445076342544,92.04331815810689,-4.579693014630167,90.07992586613223C-6.77394095291779,88.11653357415757,-7.779416047638166,87.9085760647916,-11.73901006596965,87.4267209297704C-15.69860408430113,86.94486579474919,-22.612317026243716,86.1891130340727,-27.78815510524771,85.7072578990515C-32.963993184251706,85.22540276403028,-36.401956400317104,85.01744525466431,-39.86829178378016,83.66409767437638C-43.33462716724322,82.31075009408842,-46.829334718103944,79.81201244287848,-50.29647785010501,78.45866486259054C-53.76362098210608,77.10531728230258,-57.2031996952475,76.89735977293662,-60.40826337732167,76.68940226357067C-63.61332705939583,76.4814447542047,-66.58387571040275,76.27348724483875,-70.12836853173131,76.0655297354728C-73.67286135305987,75.85757222610683,-77.79129834471007,75.64961471674087,-82.60577768833396,75.44165720737492C-87.42025703195783,75.23369969800895,-92.93077872755539,75.02574218864298,-98.16098449661786,74.24508964381603C-103.39119026568032,73.46443709898908,-108.34108010820772,72.11108951870115,-113.19697986484329,71.33043697387419C-118.05287962147888,70.54978442904724,-122.81478929222264,70.34182691968128,-126.37138280799563,69.67201857526612C-129.92797632376863,69.00221023085099,-132.27925368457088,67.87055105138666,-140.57188269924737,62.56991833421165C-148.8645117139239,57.269285617036644,-163.09849238247466,47.79967936215096,-173.28388980906638,41.90496774667606C-183.46928723565807,36.01025613120115,-189.60610142029077,33.69043915513702,-200.83309058664858,30.6518266376967C-212.06007975300636,27.613214120256377,-228.3772439010893,23.855806061439868,-248.0285571262921,20.546560950786304C-267.6798703514949,17.23731584013274,-290.66533265381764,14.376233677642125,-302.15806380497895,12.945692596396812L-313.6507949561403,11.515151515151503" />
    <path stroke="orange" d="M882.4292489035088,322.91583408851693L874.9752060747159,321.6690778586712C867.5211632459228,320.4223216288254,852.613077588337,317.92880916913384,842.3064285626955,316.5106744471937C831.9997795370542,315.09253972525363,826.2945671433572,314.749782741065,813.038055407555,313.31041420362646C799.7815436717528,311.8710456661879,778.9737325938453,309.3350655754995,759.4300363277067,307.80967951706435C739.8863400615683,306.2842934586293,721.6067586071989,305.7695014324475,697.589172309993,302.493145064996C673.5715860127874,299.2167886975445,643.8159948727454,293.17886798882324,616.4094024991507,289.8206522241212C589.002810125556,286.4624364594191,563.9452165184088,285.78392563873615,546.6479466046095,283.85747340332637C529.35067669081,281.9310211679166,519.8137304703587,278.75662751778,514.3450291786354,276.80553618806834C508.8763278869121,274.85444485835666,507.47587152391696,274.12665584906995,506.2863889821936,273.53994431250453C505.0969064404703,272.9532327759391,504.11839772001895,272.507598712095,495.8824625558541,269.8914918469499C487.6465273916893,267.27538498180485,472.15316578381106,262.4888053153588,462.63330266825733,259.98929996332595C453.1134395527036,257.4897946112931,449.56707492947453,257.27736357367354,440.3253219656021,256.30081897442784C431.0835690017297,255.32427437518209,416.146427697214,253.58361621431024,407.86992258604624,252.67429526350682C399.59341747487844,251.7649743127034,397.9775485570587,251.68699057196844,394.0731493943559,251.26203334050012C390.16875023165306,250.83707610903176,383.97582082406717,250.06514538683007,378.84365553380593,248.24604014132115C373.71149024354463,246.42693489581225,369.6400890706079,243.56065512699615,366.84913631689625,241.97295127242504C364.0581835631847,240.38524741785398,362.5476792286982,240.0761194775279,359.30020874837845,239.6798892191849C356.05273826805865,239.2836589608419,351.0683016419055,238.80032638448196,347.5439403995244,236.1771244678812C344.0195791571432,233.5539225512805,341.9552932985339,228.79085129443902,338.76803891836033,226.20215245424592C335.5807845381867,223.6134536140528,331.2705616364488,223.199127190508,328.348598283322,222.86316623693872C325.42663493019523,222.52720528336945,323.8929311256795,222.26960979977562,322.0364424618802,221.9236949789083C320.1799537980809,221.57778015804092,318.00068027499793,221.14354599989997,315.18068740798225,220.81529474536066C312.36069454096656,220.48704349082132,308.89998233001813,220.26477513988357,306.4133333043767,220.05312844315372C303.9266842787353,219.8414817464239,302.4140984384009,219.64045670390206,300.91805202606355,219.39915393708748C299.42200561372624,219.1578511702729,297.94249862938597,218.8762706791656,296.73134667976797,218.6280873446849C295.52019473014997,218.3799040102042,294.5773978152541,218.16511783235012,292.32905790876475,217.8840063813457C290.0807180022753,217.60289493034125,286.52683510419246,217.25545820618652,284.30426548279075,216.9340192923887C282.0816958613891,216.61258037859093,281.19043951666873,216.3171392751501,279.97874389015016,216.0587804248419C278.7670482636315,215.80042157453371,277.23491335531463,215.57914497735814,275.74182221527263,215.31688469333088C274.24873107523064,215.05462440930364,272.7946837034635,214.7513804384248,270.95448592964954,213.7959597598057C269.1142881558356,212.84053908118665,266.8879399799749,211.23294169482736,264.0924475241434,209.62436576797452C261.29695506831195,208.01578984112174,257.93231833250974,206.4062353737754,255.50929892126885,205.49400697462798C253.08627951002802,204.58177857548063,251.6048774233486,204.36687624453222,249.68818430962236,202.97745940110704C247.77149119589615,201.58804255768192,245.41950705512315,199.02411120178007,239.79437438547586,194.60809202901473C234.16924171582858,190.19207285624938,225.27096051730703,183.92396586662053,220.14764551030598,180.67952754272827C215.02433050330492,177.43508921883597,213.67598168782433,177.2143195606802,212.580597967373,176.9216391705189C211.4852142469216,176.62895878035752,210.64279562149946,176.26436765819062,209.79600428043406,175.97143379851937C208.94921293936866,175.67849993884818,208.09804888266,175.45722334167257,206.85433068669695,175.10954822227458C205.61061249073387,174.7618731028765,203.97434015551644,174.28779946125607,200.77997137475805,171.66307977081283C197.58560259399965,169.03836008036959,192.83313736770037,164.2629943411036,189.65770407670803,161.71202429332212C186.48227078571577,159.16105424554064,184.88386943003047,158.83447988924368,183.65269852025162,158.56055441250746C182.4215276104728,158.28662893577118,181.55758714660035,158.0653523385956,178.73276332198233,157.14726754678512C175.9079394973643,156.22918275497463,171.12223231200065,154.61428976852923,168.2476581675727,153.67079230303875C165.37308402314474,152.72729483754824,164.40964291965244,152.45519289301265,163.2252670573882,152.04544962583856C162.04089119512398,151.63570635866446,160.6355805740878,151.0883217688519,158.1236971734464,150.03185101228883C155.611813772805,148.97538025572575,151.99335759255828,147.40982333241217,149.75253984432914,146.32423341707067C147.5117220961,145.23864350172914,146.6485427798884,144.6330205943597,145.79565837413,144.07087522599917C144.94277396837163,143.50872985763866,144.10018447306646,142.99006202828704,143.25763381182563,142.45222985531117C142.4150831505848,141.9143976823353,141.57257132340828,141.35740116573518,135.3380195656762,140.11792810231543C129.10346780794416,138.8784550388957,117.47687611965655,136.95650542865636,109.28885054065255,134.84962064931312C101.10082496164857,132.7427358699699,96.35136549192818,130.45091592152275,90.50659123785108,129.194050243256C84.66181698377399,127.93718456498921,77.72172794534019,127.7152731569028,71.55053008015197,127.49820993917587C65.37933221496377,127.2811467214489,59.977025523021176,127.06893169408143,52.09202214796454,126.75111593880636C44.20701877290792,126.4333001835313,33.83931871473726,126.00988370034867,27.207583797282968,124.73249367603891C20.575848879828683,123.45510365172917,17.680079103090765,121.32374008629229,14.498242074890868,120.14075986981395C11.316405046690967,118.9577796533356,7.84850076702908,118.72318278581578,4.423038236270702,115.90867859804656C0.9975757055123248,113.09417441027735,-2.385445076342544,107.69976290225877,-4.579693014630167,104.92934767140014C-6.77394095291779,102.1589324405415,-7.779416047638166,102.01251348684288,-11.73901006596965,101.8176162999772C-15.69860408430113,101.62271911311153,-22.612317026243716,101.37934369307884,-27.78815510524771,100.93523895328046C-32.963993184251706,100.49113421348211,-36.401956400317104,99.8463001539181,-39.86829178378016,95.98748844779611C-43.33462716724322,92.12867674167414,-46.829334718103944,85.05588738899417,-50.29647785010501,81.27119592571273C-53.76362098210608,77.48650446243131,-57.2031996952475,76.98991088854841,-60.40826337732167,76.54503396346473C-63.61332705939583,76.10015703838104,-66.58387571040275,75.70699676209658,-70.12836853173131,75.39977832536654C-73.67286135305987,75.09255988863652,-77.79129834471007,74.87128329146094,-82.60577768833396,74.65272137251479C-87.42025703195783,74.43415945356865,-92.93077872755539,74.21831221285196,-98.16098449661786,73.34407314183102C-103.39119026568032,72.46983407081007,-108.34108010820772,70.93720316948487,-113.19697986484329,70.00946168652172C-118.05287962147888,69.08172020355856,-122.81478929222264,68.75886813895742,-126.37138280799563,68.2565812306966C-129.92797632376863,67.75429432243577,-132.27925368457088,67.07257257051526,-140.57188269924737,61.10625247805911C-148.8645117139239,55.139932385602954,-163.09849238247466,43.88901395261117,-173.28388980906638,37.6320733776106C-183.46928723565807,31.375132802610036,-189.60610142029077,30.11217008560068,-200.83309058664858,27.49391310162251C-212.06007975300636,24.875656117644336,-228.3772439010893,20.902104866697343,-248.0285571262921,17.544414655130822C-267.6798703514949,14.186724443564302,-290.66533265381764,11.44489527137825,-302.15806380497895,10.073980685285225L-313.6507949561403,8.703066099192199" />
  </g>
  
  <g class="axis y" stroke="black" fill="none" stroke-dasharray="4 6">
    <path d="M 0,285 h900" /><path d="M 0,190 h900" /><path d="M 0,95 h900" />
  </g>
  <g
    class="axis x"
    stroke="black" fill="none"
    transform="translate(0, 380)">
  
  <path d="M0,0 h900" />
  <g transform="translate(827, 0)">
      <text text-anchor="middle"
      fill="black"
      stroke="none"
      transform="translate(0, 12)">Jul</text>
      <path d="M0,0 v-5" />
    </g><g transform="translate(756, 0)">
      <text text-anchor="middle"
      fill="black"
      stroke="none"
      transform="translate(0, 12)">Jun</text>
      <path d="M0,0 v-5" />
    </g><g transform="translate(682, 0)">
      <text text-anchor="middle"
      fill="black"
      stroke="none"
      transform="translate(0, 12)">May</text>
      <path d="M0,0 v-5" />
    </g><g transform="translate(611, 0)">
      <text text-anchor="middle"
      fill="black"
      stroke="none"
      transform="translate(0, 12)">Apr</text>
      <path d="M0,0 v-5" />
    </g><g transform="translate(538, 0)">
      <text text-anchor="middle"
      fill="black"
      stroke="none"
      transform="translate(0, 12)">Mar</text>
      <path d="M0,0 v-5" />
    </g><g transform="translate(471, 0)">
      <text text-anchor="middle"
      fill="black"
      stroke="none"
      transform="translate(0, 12)">Feb</text>
      <path d="M0,0 v-5" />
    </g><g transform="translate(398, 0)">
      <text text-anchor="middle"
      fill="black"
      stroke="none"
      transform="translate(0, 12)">Jan ’22</text>
      <path d="M0,0 v-5" />
    </g><g transform="translate(324, 0)">
      <text text-anchor="middle"
      fill="black"
      stroke="none"
      transform="translate(0, 12)">Dec</text>
      <path d="M0,0 v-5" />
    </g><g transform="translate(253, 0)">
      <text text-anchor="middle"
      fill="black"
      stroke="none"
      transform="translate(0, 12)">Nov</text>
      <path d="M0,0 v-5" />
    </g><g transform="translate(180, 0)">
      <text text-anchor="middle"
      fill="black"
      stroke="none"
      transform="translate(0, 12)">Oct</text>
      <path d="M0,0 v-5" />
    </g><g transform="translate(109, 0)">
      <text text-anchor="middle"
      fill="black"
      stroke="none"
      transform="translate(0, 12)">Sep</text>
      <path d="M0,0 v-5" />
    </g><g transform="translate(36, 0)">
      <text text-anchor="middle"
      fill="black"
      stroke="none"
      transform="translate(0, 12)">Aug</text>
      <path d="M0,0 v-5" />
    </g><g transform="translate(-38, 0)">
      <text text-anchor="middle"
      fill="black"
      stroke="none"
      transform="translate(0, 12)">Jul</text>
      <path d="M0,0 v-5" />
    </g>
  
  </g>
</svg>